<?xml version="1.0" encoding="utf-8"?>
<svg version="1.1" id="Layer_1" xmlns="http://www.w3.org/2000/svg" xmlns:xlink="http://www.w3.org/1999/xlink" x="0px" y="0px" viewBox="0 0 18 30" style="enable-background:new 0 0 18 30;" xml:space="preserve">
<style type="text/css">.st0{fill:#F69997;}</style>
<path class="st0" d="M9.4,6.3L9.4,6.3L9.4,6.3l0-6.3H8.6v6.3c0.1,0,0.3,0,0.4,0h0c-0.1,0-0.3,0-0.4,0v0.8c0.1,0,0.3,0,0.4,0c0.1,0,0.3,0,0.4,0l0,0c4.2,0.2,7.5,3.7,7.5,7.9c0,4.2-3.3,7.7-7.5,7.9c-0.1,0-0.3,0-0.4,0c-0.1,0-0.3,0-0.4,0c-4.2-0.2-7.5-3.7-7.5-7.9c0-4.2,3.3-7.7,7.5-7.9V6.3C4,6.5,0.3,10.3,0.3,15s3.7,8.5,8.3,8.7V30h0.8v-6.3c4.6-0.2,8.3-4,8.3-8.7C17.7,10.3,14,6.5,9.4,6.3z"/>
</svg>