<?xml version="1.0" encoding="utf-8"?>
<!-- Generator: Adobe Illustrator 20.1.0, SVG Export Plug-In . SVG Version: 6.00 Build 0)  -->
<svg version="1.1" id="Layer_1" xmlns="http://www.w3.org/2000/svg" xmlns:xlink="http://www.w3.org/1999/xlink" x="0px" y="0px"
	 viewBox="0 0 38 24" style="enable-background:new 0 0 38 24;" xml:space="preserve">
<style type="text/css">
	.st0{fill:#F69997;}
	.st1{fill:#FFFFFF;}
</style>
<path class="st0" d="M25.1,8.9h11.5c0.6,0,1.1-0.5,1.1-1.1c0-0.6-0.5-1.1-1.1-1.1H25.1c-0.6,0-1.1,0.5-1.1,1.1
	C24.1,8.4,24.6,8.9,25.1,8.9z M36.7,11.5H25.1c-0.6,0-1.1,0.5-1.1,1.1c0,0.6,0.5,1.1,1.1,1.1h11.5c0.6,0,1.1-0.5,1.1-1.1
	C37.7,12,37.2,11.5,36.7,11.5z M36.7,16.1H25.1c-0.6,0-1.1,0.5-1.1,1.1c0,0.6,0.5,1.1,1.1,1.1h11.5c0.6,0,1.1-0.5,1.1-1.1
	C37.7,16.6,37.2,16.1,36.7,16.1z"/>
<path class="st1" d="M9.3,13c0.9,0,1.8-0.5,2.5-1.4c0.7-1,1.2-2.3,1.3-3.7c0,0,0,0,0,0c-0.4-0.7-0.9-1.2-1.5-1.6c0,0,0,0.1,0,0.1
	c-0.7,1.2-1.9,2-3.3,2l-0.1,0c-0.1,0-0.3,0-0.3,0c-0.5,0-0.9,0.1-1.3,0.3C6.2,8.7,5.9,8.8,5.7,9C6.2,11.4,7.6,13,9.3,13z M9.2,19.3
	c1.8,0.1,3.5-1,4.1-2.6c-0.2-0.2-0.5-0.4-0.8-0.5c-1-0.7-1.7-1.6-2-2.8c-0.8,0.2-1.7,0.2-2.5,0c-0.3,1.2-1.1,2.3-2.3,2.9
	c0,0,0,0-0.1,0C6,17.9,7.5,19.1,9.2,19.3z M3.8,9.8C4,9.6,4.2,9.4,4.2,9.4c0.5-0.4,1-0.8,1.6-1.1C6.4,8.1,7,7.9,7.6,7.9
	c0.1,0,0.3,0,0.4,0C8.8,8,9.5,7.5,9.8,6.8c0.1-0.3,0.2-0.5,0.3-0.8c0.1-0.2,0.2-0.5,0.5-0.6c0.2-0.1,0.5-0.1,0.7,0
	c1.4,0.7,2.6,2,3.3,3.8c0,0.1,0.1,0.1,0.1,0.2c0.1-0.6,0.2-1.3,0.2-2c0-1.6-0.5-3-1.3-4.1c-0.8-1-1.8-1.6-2.8-1.6l-0.4,0
	c-0.1,0-0.3,0-0.4-0.1C9.3,1.1,8.6,1.1,8.3,1.1c0,0-0.1,0-0.1,0c-1.2,0-2.4,0.8-3.3,2.1C4,4.5,3.6,6.3,3.6,8.2c0,0.3,0,0.6,0.1,0.9
	C3.7,9.3,3.8,9.5,3.8,9.8z M14.4,16.3c0,0-0.2,0-0.4,0c-0.1,0-0.1-0.1-0.2-0.1c0,0.1-0.1,0.2-0.1,0.2c-0.7,2.2-2.6,3.6-4.6,3.5
	c-2-0.2-3.7-1.9-4.1-4.1c-0.3,0.1-1,0.4-1,0.4c-1.2,0.3-2.3,1.4-2.3,2.8v3.7h14.9v-3.7C16.6,17.5,15.6,16.3,14.4,16.3z"/>
<path class="st0" d="M14.1,15.5L14.1,15.5c-0.4,0-2.3-0.1-2.7-2.3c0.7-0.6,1.3-1.3,1.8-2.3c0.1,0.1,0.2,0.2,0.4,0.3
	c0.3,0.1,0.7,0,0.8-0.3c0.9-1.2,1.4-2.7,1.4-4.4c-0.1-1.6-0.6-3.1-1.6-4.2c-1-1.2-2.3-1.8-3.7-1.8c-0.1,0-0.2,0-0.3,0
	C9.5,0.3,8.8,0.1,8,0.1C6.4,0.2,4.9,1,3.9,2.4c-1,1.4-1.6,3.1-1.5,5c0,0.3,0,0.6,0.1,0.9C2.5,9,2.7,9.8,3.1,10.5
	c0.1,0.3,0.4,0.4,0.7,0.5c0.3,0,0.6-0.1,0.7-0.4c0,0,0-0.1,0.1-0.1c0.3,0.8,0.7,1.5,1.2,2.1C6,12.8,6.2,13,6.5,13.2
	c-0.4,2.2-2.2,2.3-2.7,2.3h0c-2,0.1-3.6,1.7-3.6,3.7v3.9c0,0.4,0.3,0.8,0.8,0.8h15.9c0.4,0,0.8-0.3,0.8-0.8v-3.9
	C17.7,17.2,16.1,15.6,14.1,15.5z M4.4,8.2c0,0-0.2,0.2-0.4,0.3C4,8.4,4,8.2,4,8c0-0.2-0.1-0.5-0.1-0.7c0-1.5,0.4-2.9,1.2-4
	c0.8-1,1.8-1.6,3-1.6c0,0,0.1,0,0.1,0c0.3,0,0.9,0,1.6,0.4c0.1,0.1,0.3,0.1,0.4,0.1l0.3,0c0.9,0,1.9,0.5,2.6,1.3
	c0.7,0.9,1.2,2,1.2,3.2c0,0.5,0,1.1-0.2,1.6c0-0.1,0-0.1-0.1-0.2c-0.6-1.4-1.7-2.4-3.1-3c-0.2-0.1-0.4-0.1-0.6,0
	C10.1,5.2,10,5.3,9.9,5.5C9.8,5.8,9.7,6,9.6,6.2C9.3,6.8,8.6,7.1,7.9,7.1c-0.1,0-0.2,0-0.4,0C7,7.1,6.4,7.2,5.9,7.4
	C5.3,7.6,4.9,7.9,4.4,8.2z M5.7,9.2C5.9,9.1,6.2,9,6.4,8.9c0.4-0.1,0.8-0.2,1.2-0.2c0.1,0,0.2,0,0.3,0l0.1,0c1.3,0,2.4-0.6,3-1.7
	c0,0,0-0.1,0-0.1c0.5,0.3,1,0.8,1.3,1.4c0,0,0,0,0,0c-0.1,1.2-0.5,2.3-1.2,3.1c-0.6,0.8-1.4,1.2-2.2,1.2C7.5,12.6,6.2,11.2,5.7,9.2z
	 M7.9,14c0.7,0.2,1.4,0.2,2.1,0c0.3,1,0.9,1.8,1.7,2.3c0.2,0.1,0.5,0.3,0.7,0.5c-0.5,1.4-1.9,2.3-3.4,2.2c-1.5-0.1-2.6-1.2-3-2.5
	c0,0,0,0,0.1,0C7,15.9,7.6,15,7.9,14z M16.1,22.3H1.8v-3.1c0-1.2,1-2.1,2.2-2.3c0,0,0.7-0.2,1-0.3c0.4,1.9,2,3.3,3.9,3.4
	c2,0.1,3.8-1.1,4.4-2.9c0,0,0-0.1,0.1-0.2c0.1,0,0.1,0,0.2,0.1c0.2,0,0.4,0,0.4,0c1.2,0,2.2,1,2.2,2.2V22.3z"/>
</svg>
