<?xml version="1.0" encoding="utf-8"?>
<!-- Generator: Adobe Illustrator 20.1.0, SVG Export Plug-In . SVG Version: 6.00 Build 0)  -->
<svg version="1.1" id="Layer_1" xmlns="http://www.w3.org/2000/svg" xmlns:xlink="http://www.w3.org/1999/xlink" x="0px" y="0px"
	 viewBox="0 0 24 24" style="enable-background:new 0 0 24 24;" xml:space="preserve">
<style type="text/css">
	.st0{fill:#FFFFFF;}
	.st1{fill:#F69997;}
</style>
<path class="st0" d="M19.4,23.2V9.9l-7.4-8L4.7,9.8v13.4h4.8V19c0-0.4,0.3-0.7,0.7-0.7h3.6c0.4,0,0.7,0.3,0.7,0.7v4.2H19.4z"/>
<path class="st1" d="M19.7,12c-0.6,0-1,0.4-1,1v8.8h-4.1v-3.4c0-0.5-0.4-1-1-1h-3.4c-0.5,0-1,0.4-1,1v3.4H5.2v-8.5c0-0.5-0.4-1-1-1
	c-0.5,0-1,0.4-1,1v9.5c0,0.5,0.4,1,1,1h6.1c0.5,0,1-0.4,1-1v-3.4h1.5v3.4c0,0.5,0.4,1,1,1h6.1c0.5,0,1-0.4,1-1V13
	C20.7,12.5,20.3,12,19.7,12z"/>
<path class="st1" d="M23.6,11.5l-5.2-5.2V2.8c0-0.5-0.5-1-1-1c-0.5,0-1,0.4-1,1v1.5l-3.8-3.8c-0.4-0.4-1-0.4-1.4,0L0.4,11.4
	c-0.2,0.2-0.3,0.5-0.3,0.7c0,0.2,0.1,0.5,0.3,0.6C0.5,13,0.8,13.1,1,13.1c0.3,0,0.5-0.1,0.7-0.3L12,2.6l10.2,10.3
	c0.2,0.2,0.4,0.3,0.7,0.3c0.3,0,0.5-0.1,0.7-0.2l0,0C24,12.5,24,11.9,23.6,11.5z"/>
</svg>
