<?xml version="1.0" encoding="utf-8"?>
<svg version="1.1" id="Layer_1" xmlns="http://www.w3.org/2000/svg" xmlns:xlink="http://www.w3.org/1999/xlink" x="0px" y="0px"
	 viewBox="0 0 18 18" style="enable-background:new 0 0 18 18;" xml:space="preserve">
<style type="text/css">
	.st0{fill:#AE3232;}
	.st1{fill:#FFFFFF;}
	.st2{font-family:'OpenSans-Bold';}
	.st3{font-size:14px;}
</style>
<polygon class="st0" points="18,6.6 15.9,5.6 15.5,5.3 15.5,4.8 15.6,2.5 13.3,2.6 12.8,2.7 12.5,2.2 11.5,0.1 9.5,1.4 9.1,1.7 
	8.6,1.4 6.7,0.1 5.7,2.2 5.4,2.7 4.9,2.6 2.6,2.5 2.7,4.8 2.7,5.3 2.2,5.6 0.2,6.6 1.4,8.6 1.7,9 1.4,9.5 0.2,11.4 2.2,12.5 
	2.7,12.7 2.7,13.2 2.6,15.5 5.4,15.4 5.7,15.9 6.7,17.9 8.6,16.7 9.1,16.4 9.5,16.7 11.5,17.9 12.5,15.9 12.8,15.4 13.3,15.4 
	15.6,15.5 15.5,13.2 15.5,12.7 15.9,12.5 18,11.4 16.7,9.5 16.5,9 16.7,8.6 "/>
<text transform="matrix(1 0 0 1 7.0417 14.0417)" class="st1 st2 st3">!</text>
</svg>
