<?xml version="1.0" encoding="utf-8"?>
<!-- Generator: Adobe Illustrator 20.1.0, SVG Export Plug-In . SVG Version: 6.00 Build 0)  -->
<svg version="1.1" id="Layer_1" xmlns="http://www.w3.org/2000/svg" xmlns:xlink="http://www.w3.org/1999/xlink" x="0px" y="0px"
	 viewBox="0 0 24 24" style="enable-background:new 0 0 24 24;" xml:space="preserve">
<style type="text/css">
	.st0{fill:#FFFFFF;}
	.st1{fill:#F69998;}
</style>
<path class="st0" d="M10,21c0,1.1,0.9,2,2,2c1.1,0,2-0.9,2-2v-1h-4V21z M18,11H6c0,1-0.1,1-0.2,2h12.4C18,12,18,12,18,11z M18.4,14
	H5.5c-0.5,2-1.3,3-2.4,4h17.7C19.7,17,18.9,16,18.4,14z M18,8c0-3.3-2.7-6-6-6C8.7,2,6,4.7,6,8v2h12V8z"/>
<path class="st1" d="M23.2,17.4c-2-1.4-3.3-3.8-3.3-6.4V8c0-4.4-3.6-7.9-7.9-7.9S4.1,3.6,4.1,8v3c0,2.7-1.3,5-3.4,6.5
	c-0.2,0.1-0.6,0.6-0.6,1.5c0,0.6,0.4,1,1,1c1.5,0,5,0,7.9,0v1c0,1.6,1.3,3,3,3c1.6,0,3-1.3,3-3v-1c4,0,7.7,0,7.9,0c0.5,0,1-0.5,1-1
	C23.9,18,23.4,17.6,23.2,17.4z M6,8c0-3.3,2.7-6,6-6c3.3,0,6,2.7,6,6v2H6V8z M6,11H18c0,1,0.1,1,0.2,2H5.8C6,12,6,12,6,11z M14,20.9
	c0,1.1-0.9,2-2,2c-1.1,0-2-0.9-2-2v-1c1,0,3,0,4,0V20.9z M3.2,18c1.1-1,1.9-2,2.4-4h12.8c0.5,2,1.3,3,2.4,4H3.2z"/>
</svg>
