<?xml version="1.0" encoding="utf-8"?>
<!-- Generator: Adobe Illustrator 20.1.0, SVG Export Plug-In . SVG Version: 6.00 Build 0)  -->
<svg version="1.1" id="Layer_1" xmlns="http://www.w3.org/2000/svg" xmlns:xlink="http://www.w3.org/1999/xlink" x="0px" y="0px"
	 viewBox="0 0 24 24" style="enable-background:new 0 0 24 24;" xml:space="preserve">
<style type="text/css">
	.st0{fill:#FFFFFF;}
	.st1{fill:#F69998;}
</style>
<path class="st0" d="M19.4,4.1c-1.8-1.4-4.3-2.2-7.4-2.2S6.4,2.7,4.6,4.1C2.7,5.6,1.7,8,1.7,11c0,3.6,1.4,6.2,4.1,7.7l0.7,0.4
	l-0.2,0.8c-0.2,0.8-0.4,1.5-0.5,2c0.7-0.3,1.6-0.8,2.4-1.8l0.4-0.5L9,19.8c0.9,0.2,1.9,0.3,3,0.3c3.1,0,5.6-0.7,7.4-2.2
	c1.9-1.5,2.9-3.9,2.9-6.9C22.3,8,21.3,5.6,19.4,4.1z"/>
<path class="st1" d="M20.3,2.7c-2-1.6-4.9-2.5-8.2-2.5S5.9,1.1,3.8,2.7c-1.1,0.9-2,2.1-2.6,3.4C0.6,7.5,0.3,9.2,0.3,11
	c0,4,1.5,7,4.3,8.9c-0.4,1.5-0.9,2.4-0.9,2.5l-0.9,1.6l1.7,0h0c0,0,0,0,0,0c0.5,0,2.9-0.1,4.9-2.3c0.9,0.1,1.8,0.2,2.7,0.2
	c3.4,0,6.2-0.8,8.2-2.5c1.1-0.9,2-2.1,2.6-3.4c0.6-1.4,0.9-3.1,0.9-4.9c0-1.8-0.3-3.5-0.9-4.9C22.3,4.8,21.4,3.6,20.3,2.7z
	 M19.2,17.7c-1.7,1.4-4.2,2.1-7.1,2.1c-1,0-2-0.1-2.9-0.3l-0.5-0.1l-0.3,0.4c-0.7,0.9-1.6,1.4-2.3,1.7c0.2-0.6,0.4-1.2,0.5-2
	l0.2-0.8l-0.6-0.4C3.4,17,2.1,14.5,2.1,11c0-2.9,0.9-5.2,2.8-6.7C6.6,3,9.1,2.3,12.1,2.3s5.4,0.7,7.1,2.1C21.1,5.8,22,8.1,22,11
	S21.1,16.2,19.2,17.7z"/>
<path class="st1" d="M11,17.2h1.8v-1.8H11V17.2z M15.5,8.4c-0.2-1.7-1.6-3-3.2-3.2c-1.1-0.1-2.1,0.2-2.9,0.9
	C8.6,6.8,8.2,7.8,8.2,8.8H10c0-0.5,0.2-1,0.6-1.3C11,7.1,11.5,7,12.1,7c0.8,0.1,1.5,0.8,1.6,1.6c0.1,0.7-0.2,1.3-0.8,1.7
	c-1.2,0.8-2,2.2-2,3.7h1.8c0-0.9,0.4-1.7,1.2-2.2C15.1,11.1,15.7,9.8,15.5,8.4z"/>
</svg>
