<?xml version="1.0" encoding="iso-8859-1"?>
<!-- Generator: Adobe Illustrator 20.1.0, SVG Export Plug-In . SVG Version: 6.00 Build 0)  -->
<svg version="1.1" id="Layer_1" xmlns="http://www.w3.org/2000/svg" xmlns:xlink="http://www.w3.org/1999/xlink" x="0px" y="0px"
	 viewBox="0 0 122 122" style="enable-background:new 0 0 122 122;" xml:space="preserve">
<circle style="fill:#E99E99;" cx="61.02" cy="60.779" r="60"/>
<path style="fill:#FFFFFF;" d="M79.523,37.645l-6.876-0.376V26.774c0-0.43-0.203-0.833-0.547-1.09
	c-0.344-0.256-0.789-0.335-1.201-0.213l-33.453,9.952c-0.699,0.208-1.104,0.926-0.932,1.626c-0.013-0.003-0.028-0.004-0.041-0.007
	v53.909c0,0.717,0.556,1.31,1.271,1.357l41.616,2.735c0.03,0.002,0.06,0.003,0.089,0.003c0.344,0,0.677-0.131,0.93-0.368
	c0.275-0.257,0.43-0.616,0.43-0.992V39.003C80.809,38.28,80.244,37.684,79.523,37.645z M69.927,28.598v8.522l-24.198-1.323
	L69.927,28.598z M78.089,92.234l-38.896-2.557V38.163l38.896,2.127V92.234z M53.232,63.5c0.541,0.433,1.709,1.542,4.208,4.372
	c0.156,0.177,0.176,0.199,0.215,0.239c0.255,0.255,0.601,0.398,0.962,0.398c0.361,0,0.707-0.143,0.962-0.398
	c0.04-0.04,0.06-0.062,0.217-0.24c2.497-2.829,3.665-3.938,4.205-4.37c2.279-1.823,7.021-5.617,7.021-9.469
	c0-3.96-2.699-6.621-6.718-6.621c-2.658,0-4.5,1.383-5.688,2.796c-1.187-1.413-3.029-2.796-5.688-2.796
	c-4.018,0-6.718,2.66-6.718,6.621C46.211,57.883,50.953,61.677,53.232,63.5z M52.928,50.13c2.294,0,3.711,1.705,4.495,3.136
	c0.239,0.436,0.696,0.706,1.193,0.706c0.497,0,0.954-0.271,1.193-0.706c0.785-1.43,2.201-3.136,4.495-3.136
	c2.541,0,3.998,1.422,3.998,3.901c0,2.545-4.36,6.032-6,7.345c-0.779,0.624-2.016,1.875-3.685,3.728
	c-1.668-1.853-2.905-3.105-3.685-3.728c-1.641-1.313-6-4.8-6-7.345C48.931,51.552,50.387,50.13,52.928,50.13z M47.96,73.315
	c-0.753-0.049-1.397,0.517-1.448,1.266c-0.051,0.75,0.517,1.398,1.266,1.448l20.264,1.36c0.031,0.002,0.062,0.003,0.093,0.003
	c0.709,0,1.307-0.55,1.355-1.269c0.05-0.749-0.517-1.398-1.266-1.448L47.96,73.315z M47.438,82.149l20.264,1.36
	c0.031,0.002,0.062,0.003,0.093,0.003c0.709,0,1.307-0.55,1.355-1.269c0.05-0.749-0.517-1.398-1.266-1.448l-20.264-1.36
	c-0.753-0.049-1.397,0.517-1.448,1.266C46.122,81.451,46.689,82.099,47.438,82.149z"/>
</svg>
