<?xml version="1.0" encoding="utf-8"?>
<svg version="1.1" id="proposals_templates" xmlns="http://www.w3.org/2000/svg" xmlns:xlink="http://www.w3.org/1999/xlink"
	 x="0px" y="0px" viewBox="0 0 122 122" style="enable-background:new 0 0 122 122;" xml:space="preserve">
<style type="text/css">
	.st0{fill:#E99E99;}
	.st1{fill:#FFFFFF;}
</style>
<circle class="st0" cx="61" cy="61.5" r="60"/>
<path class="st1" d="M90.6,54.9c-0.7-0.3-1.2-1.1-1.2-1.9c0-0.8,0.5-1.5,1.2-1.8c0.4-0.2,0.7-0.5,0.7-1c0-0.6-0.5-1-1-1h-6.4v-2
	c0-1.5-1.2-2.7-2.7-2.8c-0.7-0.3-1.2-1.1-1.2-1.9c0-0.8,0.5-1.5,1.2-1.8c0.4-0.2,0.7-0.5,0.7-1c0-0.6-0.5-1-1-1h-6.6v-1.9
	c0-1.5-1.2-2.7-2.7-2.8c-0.7-0.3-1.2-1.1-1.2-1.9c0-0.8,0.5-1.5,1.2-1.8c0.4-0.2,0.7-0.5,0.7-1c0-0.6-0.5-1-1-1H32.5
	c-2.1,0-3.8,1.7-3.8,3.8v39c0,1.6,1.3,2.9,2.9,2.9h6.7v7.6c0,1.6,1.3,2.9,2.9,2.9h6.5V92c0,1.6,1.3,2.9,2.9,2.9h39.9
	c1.6,0,2.9-1.3,2.9-2.9V57.8C93.3,56.2,92.1,55,90.6,54.9z M88.1,51.1c-0.3,0.6-0.5,1.2-0.5,1.9c0,0.7,0.2,1.3,0.5,1.9H51.5
	c-1,0-1.9-0.9-1.9-1.9c0-1,0.9-1.9,1.9-1.9H88.1z M78.7,40.6c-0.3,0.6-0.5,1.2-0.5,1.9c0,0.7,0.2,1.3,0.5,1.9H42.1
	c-1,0-1.9-0.9-1.9-1.9s0.9-1.9,1.9-1.9H78.7z M32.5,30.1h36.6c-0.3,0.6-0.5,1.2-0.5,1.9c0,0.7,0.2,1.3,0.5,1.9H32.5
	c-1,0-1.9-0.9-1.9-1.9C30.6,31,31.5,30.1,32.5,30.1z M33.5,71.9h-1.9c-0.5,0-1-0.4-1-1V35.3c0.6,0.3,1.2,0.5,1.9,0.5h1V71.9z
	 M38.3,42.5v29.4h-2.9V35.8h36.1c0.5,0,1,0.4,1,1v1.9H42.1C40,38.7,38.3,40.4,38.3,42.5z M43.1,82.4h-1.9c-0.5,0-1-0.4-1-1V45.8
	c0.6,0.3,1.2,0.5,1.9,0.5h1V82.4z M47.7,53v29.4H45V46.3h36.1c0.5,0,1,0.4,1,1v2H51.5C49.4,49.2,47.7,50.9,47.7,53z M52.4,92.9h-1.9
	c-0.5,0-1-0.4-1-1V56.3c0.6,0.3,1.2,0.5,1.9,0.5h1V92.9z M91.4,92c0,0.5-0.4,1-1,1H54.3V56.8h36.1c0.5,0,1,0.4,1,1V92z M83,65.8
	c-0.8,0-1.5,0.2-2.2,0.5c-0.6-3.2-3.3-5.6-6.7-5.6c-1.9,0-3.6,0.7-4.9,2c-1.3-1.3-3-2-4.9-2c-3.7,0-6.8,3-6.8,6.8
	c0,1.9,0.8,3.6,2.3,4.8l7.2,6c0.6,0.5,1.4,0.8,2.2,0.8c0.8,0,1.5-0.3,2.2-0.8l3.2-2.6l3.4,2.8c0.5,0.4,1.1,0.6,1.7,0.6
	c0.6,0,1.2-0.2,1.7-0.6l4.9-4.1c1.1-0.9,1.7-2.2,1.7-3.6C88,68.1,85.8,65.8,83,65.8z M70,76.7c-0.2,0.2-0.5,0.3-0.7,0.3
	c-0.3,0-0.5-0.1-0.7-0.3l-7.2-6c-0.9-0.8-1.5-1.9-1.5-3.1c0-2.5,2-4.5,4.5-4.5c1.6,0,3.1,0.8,3.9,2.2c0.2,0.3,0.6,0.5,1,0.5
	c0.4,0,0.8-0.2,1-0.5c0.8-1.4,2.3-2.2,3.9-2.2c2.1,0,3.9,1.4,4.4,3.4c-0.7-0.3-1.4-0.5-2.2-0.5c-2.8,0-5,2.2-5,5
	c0,1.3,0.5,2.6,1.5,3.4L70,76.7z M84.9,72.7L80,76.8c-0.1,0.1-0.4,0.1-0.5,0l-4.9-4.1c-0.6-0.5-0.9-1.1-0.9-1.9
	c0-1.5,1.2-2.8,2.8-2.8c1,0,1.9,0.5,2.4,1.3c0.2,0.3,0.6,0.5,1,0.5c0.4,0,0.8-0.2,1-0.5c0.5-0.8,1.4-1.3,2.4-1.3
	c1.5,0,2.8,1.2,2.8,2.8C85.8,71.6,85.5,72.2,84.9,72.7z M75.7,86.9h-4.1c-0.6,0-1,0.5-1,1c0,0.6,0.5,1,1,1h4.1c0.6,0,1-0.5,1-1
	C76.7,87.4,76.3,86.9,75.7,86.9z M77.7,81.8h-8.2c-0.6,0-1,0.5-1,1c0,0.6,0.5,1,1,1h8.2c0.6,0,1-0.5,1-1
	C78.8,82.3,78.3,81.8,77.7,81.8z"/>
</svg>
