<?xml version="1.0" encoding="utf-8"?>
<svg version="1.1" id="New_Inquiry" xmlns="http://www.w3.org/2000/svg" xmlns:xlink="http://www.w3.org/1999/xlink" x="0px" y="0px" viewBox="0 0 60 60" style="enable-background:new 0 0 60 60;" xml:space="preserve">
<style type="text/css">.st0{fill:#CC6666;}</style>
<path class="st0" d="M24,22.5c2.7,0,4.9-2.2,4.9-4.9s-2.2-4.9-4.9-4.9s-4.9,2.2-4.9,4.9S21.3,22.5,24,22.5z M37.5,24.5
	c2.1,0,3.9-1.7,3.9-3.9c0-2.1-1.7-3.9-3.9-3.9s-3.9,1.7-3.9,3.9C33.6,22.7,35.4,24.5,37.5,24.5z M27.5,27.2c0.6,0,1.1,0.1,1.6,0.3
	c0.2-0.7,0.8-2.3,2.7-3c-0.9-0.8-2.1-1.5-3.4-1.5h-8.6c-2.9,0-5.7,2.7-5.7,5.6V32h9.2l0.1-0.6C23.5,29.1,25.3,27.2,27.5,27.2z
	 M30.1,28.1c0.1,0.1,0.2,0.1,0.4,0.3c0.8-0.8,1.8-1.4,2.9-1.4l0,0c2.2,0,4,2,4.2,4.3V32H45v-2.7c0-2.3-1.8-4.3-4.1-4.3H34
	c-0.6,0-1.1,0.2-1.6,0.4C31.3,25.9,30.4,26.9,30.1,28.1z M36.1,32.2c0-0.2-0.1-0.2-0.1-0.4l0,0c0-1.8-1.1-3.2-2.6-3.3
	c-0.1,0,0,0.1-0.1,0.1c-1.6,0-2.8,1.4-2.9,3.4l0,0c0-1-0.2-1.4-0.5-1.9c-0.5-0.9-1.4-1.4-2.4-1.4c-1.6,0-2.9,1.3-2.9,3.3l0,0l0,0
	l0,0c0,0,0.4,4.5,5.8,6.2C35.8,36.5,36.1,32.2,36.1,32.2z M57.2,27.2L52,23.1V11.5c0-0.5-0.3-1-0.7-1.3l-8.1-8.4L42,3l1.2-1.2
	c-0.3-0.4-0.8-0.7-1.3-0.7V0.9H10C9,1,8,2.1,8,3v20l-6.5,4.8C1.2,28.2,1,28.6,1,29v25.5c0,1.2,0.7,2.4,1.5,3.2
	c0.7,0.7,2,1.3,3.2,1.3h48.6c1.2,0,2.5-0.6,3.2-1.4c0.8-0.8,1.5-2,1.5-3.2V29C59,28,58.1,27.2,57.2,27.2z M12,5h29.2L42,5.2V13h6
	v20.7L30.6,48.2c-0.2,0.1-0.4,0.2-0.6,0.2c-0.3,0-0.3-0.1-0.5-0.2L12,33.7V5z M55,54.4c0,0.2,0,0.3-0.2,0.4C54.7,55,54.5,55,54.3,55
	H5.7c-0.2,0-0.4,0-0.5-0.1C5,54.7,5,54.7,5,54.4V32.6l22.2,18.3c0.8,0.7,1.8,1,2.9,1c1,0,2-0.3,2.8-1L55,32.6V54.4z"/>
</svg>
