<?xml version="1.0" encoding="utf-8"?>
<svg version="1.1" id="New_Inquiry" xmlns="http://www.w3.org/2000/svg" xmlns:xlink="http://www.w3.org/1999/xlink" x="0px" y="0px" viewBox="0 0 60 60" style="enable-background:new 0 0 60 60;" xml:space="preserve">
<style type="text/css">.st0{fill:#CC6666;}</style>
<path class="st0" d="M58,28.2l-6-4.8v-20c0-1-1.1-1.4-2.1-1.4h-32V1.8c-0.5,0-0.9,0.1-1.2,0.4l1.2,1.1l-1.2-1.2l-8.1,8.4
	C8.3,10.9,8,11.4,8,11.9v11.6l-5.2,4.2c-1,0-1.8,0.8-1.8,1.7v25.5c0,1.2,0.6,2.2,1.4,3s2,1.2,3.1,1.2h48.6c1.2,0,2-0.5,2.8-1.2
	c0.8-0.8,1-1.8,1-3V29.3C58,28.9,58.3,28.5,58,28.2z M12,13h6V5.5L18.7,5H48v29.1L30.4,48.6c-0.2,0.1-0.4,0.2-0.6,0.2
	c-0.3,0-0.3-0.1-0.5-0.2L12,34.1V13z M55,54.8c0,0.2-0.1,0.6-0.2,0.8c-0.1,0.1-0.4,0.5-0.6,0.5H5.5c-0.2,0-0.3-0.3-0.4-0.5
	C5,55.4,5,55,5,54.8V32.9l22.1,18.3c0.8,0.7,1.8,1,2.8,1s2.1-0.3,2.9-1L55,32.9V54.8z M32,36v-7h7v-4h-7v-7h-4v7h-7v4h7v7H32z"/>
</svg>
