<?xml version="1.0" standalone="no"?>
<!DOCTYPE svg PUBLIC "-//W3C//DTD SVG 1.1//EN" "http://www.w3.org/Graphics/SVG/1.1/DTD/svg11.dtd" >
<svg>
<metadata>
Created by FontForge 20090914 at Tue Mar 22 10:04:37 2016
 By www-data
Copyright (c) 2012 Sabrina Mariela Lopez (typesenses@live.com.ar), with Reserved Font Name "Euphoria Script"
</metadata>
<defs>
<font id="EuphoriaScript-Regular" horiz-adv-x="1057" >
  <font-face 
    font-family="Euphoria Script"
    font-weight="400"
    font-stretch="normal"
    units-per-em="1250"
    panose-1="2 0 0 0 0 0 0 0 0 0"
    ascent="1000"
    descent="-250"
    x-height="484"
    cap-height="762"
    bbox="-366.998 -441.999 1483 1013"
    underline-thickness="62"
    underline-position="-63"
    unicode-range="U+0020-U+2122"
  />
<missing-glyph horiz-adv-x="187" 
 />
    <glyph glyph-name=".notdef" horiz-adv-x="187" 
 />
    <glyph glyph-name="space" unicode=" " horiz-adv-x="267" 
 />
    <glyph glyph-name="exclam" unicode="!" horiz-adv-x="236" 
d="M96 109c16 0 24 -7.66797 24 -23.001c0 -13.333 -7.33301 -38.666 -22 -75.999l-8 -18c-11.333 0 -20 9.66699 -26 29c-2.66699 10 -4 19.833 -4 29.5s1.33301 19.5 4 29.5c5.33301 19.333 16 29 32 29zM66 238.999c0 64 7.66699 137.667 23 221s35.833 156.5 61.5 219.5
s51.167 94.5 76.5 94.5c10.667 0 16 -5.33301 16 -16c-26.667 -60 -55.5 -156.167 -86.5 -288.5s-46.5 -224.5 -46.5 -276.5c0 -8.66699 -4.66699 -13 -14 -13c-20 0 -30 19.667 -30 59z" />
    <glyph glyph-name="quotedbl" unicode="&#x22;" horiz-adv-x="293" 
d="M160 600c-12.667 -31.333 -22.165 -46.999 -28.498 -46.999s-9.5 6.33301 -9.5 19s0.333008 24.667 1 36c2.66699 27.333 7.66699 53.666 15 78.999c3.33301 17.333 12.666 26 27.999 26c8 0 13.667 -2.66699 17 -8c7.33301 -12 -0.333984 -47 -23.001 -105z
M237.502 553.001c-6.33301 0 -9.5 6.33398 -9.5 19.001s0.333008 24.667 1 36c2.66699 27.333 7.66699 53.666 15 78.999c3.33301 17.333 12.666 26 27.999 26c14 0 21 -7 21 -21c0 -16.667 -7.66699 -44 -23 -82s-26.166 -57 -32.499 -57z" />
    <glyph glyph-name="numbersign" unicode="#" horiz-adv-x="775" 
d="M392 238c-72 -2.66699 -122 -4.00098 -150 -4.00098c-20.667 -116.667 -31 -201.334 -31 -254.001c0 -8.66699 -4.66699 -13 -14 -13c-15.333 0 -23 28.833 -23 86.5s3.66699 117.5 11 179.5c-68 -1.33301 -104 -2 -108 -2c-20 0 -31.333 7.33301 -34 22
c-0.666992 10 3.33301 15.667 12 17c3.33301 -4.66699 10.666 -7 21.999 -7h112c5.33301 40.667 14.333 88.334 27 143.001c-38.667 -1.33301 -79.334 -2 -122.001 -2c-19.333 0 -30.333 6.66699 -33 20c0.666992 10 4.66699 16 12 18c2.66699 -4 9.66699 -6 21 -6h130
c17.333 64.667 36.333 117 57 157s39 60 55 60c10.667 0 16 -5.33301 16 -16c-23.333 -50 -45.666 -116.667 -66.999 -200c65.333 0 114 0.333008 146 1c17.333 64 36.333 115.833 57 155.5s39 59.5 55 59.5c10.667 0 16 -5.33301 16 -16
c-24 -49.333 -46.667 -115.666 -68 -198.999c47.333 0.666992 97.666 1 150.999 1c6 0 8.66699 -3.66699 8 -11c-2.66699 -8 -9.66699 -12.333 -21 -13c-27.333 0 -75.333 -1 -144 -3c-7.33301 -30 -17.666 -79 -30.999 -147c52.667 0.666992 109.334 1 170.001 1
c6 0 8.66699 -3.66699 8 -11c-2.66699 -8 -9.66699 -12.333 -21 -13c-31.333 0 -85.333 -1 -162 -3c-21.333 -122.667 -32 -209 -32 -259c0 -8.66699 -4.66699 -13 -14 -13c-15.333 0 -23 29.833 -23 89.5s4 120.167 12 181.5zM247 262.999c32 1.33301 81.333 2 148 2
c8 50 17.667 98.333 29 145c-45.333 0 -94 -1 -146 -3c-4.66699 -14.667 -15 -62.667 -31 -144z" />
    <glyph glyph-name="dollar" unicode="$" horiz-adv-x="479" 
d="M29 48c0 -41.333 26.666 -62.001 79.999 -62.001c26.667 0 50.334 3.33301 71.001 10l58 336l-28.5 24c-13.667 11.333 -23.5 20 -29.5 26s-13.333 14 -22 24c-15.333 18.667 -23 40 -23 64c0 39.333 16 76.666 48 111.999s69 58 111 68c2 14.667 4.5 30.5 7.5 47.5
l6 33.5c1 5.33301 4.16699 8 9.5 8c2 0 4.33301 -0.666992 7 -2c10.667 -4.66699 16 -13.334 16 -26.001s-2.66699 -31.667 -8 -57c13.333 -0.666992 23.333 -5.16699 30 -13.5s10 -16.5 10 -24.5l-1 -12c-6.66699 4.66699 -15.5 7 -26.5 7s-17.833 -0.333008 -20.5 -1
c-20.667 -112.667 -37 -198.667 -49 -258c20 -17.333 35.667 -31.833 47 -43.5s22.5 -28.5 33.5 -50.5s16.5 -44.667 16.5 -68c0 -47.333 -14.833 -91.166 -44.5 -131.499s-70.834 -68.5 -123.501 -84.5c-9.33301 -44.667 -15 -75 -17 -91
c-1.33301 -6 -3.66602 -9 -6.99902 -9c-2 0 -3.66699 0.333008 -5 1c-7.33301 3.33301 -11 9 -11 17s0.666992 14.667 2 20c4 24 6.66699 42.333 8 55c-26.667 -4 -48.334 -6 -65.001 -6c-65.333 0 -104.666 22 -117.999 66c-3.33301 10.667 -5 21.334 -5 32.001
c0 26.667 10 54.334 30 83.001c32 44.667 74 69 126 73l14 1c8.66699 0 15.667 -2.66699 21 -8s9 -13 11 -23c-47.333 0 -88.333 -19.667 -123 -59c-24 -27.333 -36 -53.333 -36 -78zM283.999 81.499c17.333 31.667 26 68.3311 26 109.998s-14.667 78.834 -44 111.501
l-56 -294c32 16.667 56.667 40.834 74 72.501zM222.999 545.996c-16.667 -23.333 -24.999 -49.1689 -24.999 -77.502s16.333 -58.166 49 -89.499c13.333 82.667 25.666 155.667 36.999 219c-24 -11.333 -44.333 -28.666 -61 -51.999z" />
    <glyph glyph-name="percent" unicode="%" horiz-adv-x="721" 
d="M160 -89c-7.33301 0 -11 5.33301 -11 16s8.16699 32.667 24.5 66s72 154.5 167 363.5l157.5 345.5c8 14.667 16.833 22 26.5 22s16.167 -4 19.5 -12c6 -16 -0.666992 -44.333 -20 -85l-94 -185c-128.667 -255.333 -213.334 -427 -254.001 -515
c-5.33301 -10.667 -10.666 -16 -15.999 -16zM240 635c-39.333 0 -71.6689 -27.6689 -97.002 -83.002s-38 -112.333 -38 -171s15 -88 45 -88c32 0 59.167 23.833 81.5 71.5s33.5 96.834 33.5 147.501s-14 76 -42 76c0 5.33301 3.16699 10.833 9.5 16.5s13.833 8.5 22.5 8.5
c31.333 0 47 -28 47 -84s-12.667 -110.333 -38 -163c-32 -64 -71.167 -96 -117.5 -96s-75.166 27.667 -86.499 83c-3.33301 15.333 -5 31.333 -5 48c0 40.667 10 84.334 30 131.001c27.333 63.333 62.333 102.333 105 117c10.667 4 20.334 6 29.001 6s14.5 -1.66699 17.5 -5
s4.16699 -8.33301 3.5 -15zM572.997 341.998c-39.333 0 -71.6689 -27.667 -97.002 -83s-38 -112.333 -38 -171s14.667 -88 44 -88c32.667 0 60.167 24 82.5 72s33.5 97.167 33.5 147.5s-14.333 75.5 -43 75.5c0 6 3.33301 11.667 10 17s14.334 8 23.001 8
c31.333 0 47 -28 47 -84s-14.667 -113 -44 -171s-67 -87.167 -113 -87.5s-74.333 27.167 -85 82.5c-3.33301 15.333 -5 31 -5 47c0 41.333 10 85.333 30 132c26.667 62.667 61.334 101.667 104.001 117c10.667 4 20.334 6 29.001 6s14.667 -1.66699 18 -5
s4.66602 -8.33301 3.99902 -15z" />
    <glyph glyph-name="ampersand" unicode="&#x26;" horiz-adv-x="721" 
d="M292 627c-82.667 0 -124.006 -50.001 -124.006 -150.001c0 -26 3.33301 -54.333 10 -85c30 26 54.833 48.833 74.5 68.5s40.167 43.5 61.5 71.5c41.333 54.667 62 117 62 187c9.33301 -2 17.166 -7.16699 23.499 -15.5s9.5 -19.833 9.5 -34.5s-2.33301 -31 -7 -49
s-9.66699 -33.667 -15 -47s-14.833 -29.166 -28.5 -47.499l-30.5 -40.5c-6.66699 -8.66699 -20 -22.667 -40 -42c-48 -45.333 -75 -70 -81 -74s-9.66699 -6.66699 -11 -8s-2.66602 -2.5 -3.99902 -3.5s-2.66602 -2.16699 -3.99902 -3.5c28 -102 76.667 -192.667 146 -272
c32.667 38 55.334 83.333 68.001 136c8 30.667 12 57 12 79s-2 40.667 -6 56c-9.33301 37.333 -27.333 56 -54 56c4 14 15.333 21 34 21c26 0 43.333 -21.333 52 -64c3.33301 -15.333 5 -35.166 5 -59.499s-4.66699 -55.166 -14 -92.499
c-15.333 -60 -41.666 -111 -78.999 -153c68.667 -70.667 136.667 -106 204 -106c40.667 0 67.334 12.667 80.001 38c6.66699 14 6.33398 23 -0.999023 27c-0.666992 0.666992 -1.66699 1 -3 1c0 4 2 8.33301 6 13c6 7.33301 14 11 24 11c15.333 0 23 -10.333 23 -31
s-13.333 -40.334 -40 -59.001c-27.333 -18.667 -62 -28 -104 -28c-76 0 -151.333 33.333 -226 100c-48 -36.667 -99.5 -55 -154.5 -55s-100.333 12.667 -136 38s-53.5 59.666 -53.5 102.999s12.333 82 37 116s61.334 72 110.001 114c-13.333 45.333 -20 85.833 -20 121.5
s5 67.5 15 95.5s28 50.333 54 67s58.667 25 98 25c9.33301 0 15.5 -2.66699 18.5 -8s5.83301 -11 8.5 -17zM153.994 -1.00098c52.667 0 99.666 15.333 140.999 46c-71.333 71.333 -125.666 157.333 -162.999 258c-73.333 -67.333 -110 -131.666 -110 -192.999
c0 -34.667 13 -61.834 39 -81.501s57 -29.5 93 -29.5z" />
    <glyph glyph-name="quotesingle" unicode="'" horiz-adv-x="265" 
d="M201 651.5c6.66699 22.333 9.99902 44.833 9.99902 67.5s9 34 27 34s27 -12 27 -36c0 -36.667 -12.667 -67.667 -38 -93c-12.667 -11.333 -23 -17.333 -31 -18c-13.333 0 -20.666 3 -21.999 9v3c11.333 0 20.333 11.167 27 33.5z" />
    <glyph glyph-name="parenleft" unicode="(" horiz-adv-x="276" 
d="M281 775c6.66699 0 9.99902 -3.00098 9.99902 -9.00098s-2 -9 -6 -9c-38 -6 -75 -48.167 -111 -126.5s-62.333 -160.833 -79 -247.5s-25 -167 -25 -241c0 -113.333 18.333 -181.666 55 -204.999c2.66699 -2 4.33398 -4.66699 5.00098 -8
c1.33301 -5.33301 -0.666992 -8 -6 -8c-1.33301 0 -3.33301 0.666992 -6 2c-40 22 -68 65 -84 129c-10.667 41.333 -16 80.333 -16 117c0 100.667 17.667 209.667 53 327c22.667 75.333 53.167 139.333 91.5 192s77.833 81.667 118.5 87z" />
    <glyph glyph-name="parenright" unicode=")" horiz-adv-x="297" 
d="M5 -83c-6 0 -8.99805 3 -8.99805 9s2.33301 9 7 9c38 6 74.833 48.5 110.5 127.5s62 162.333 79 250s25.5 168.5 25.5 242.5c0 113.333 -18.667 182 -56 206c-4 2.66699 -5.33301 5.83398 -4 9.50098s3.16602 5.5 5.49902 5.5s4.5 -0.333008 6.5 -1
c34 -18.667 59.167 -52 75.5 -100s24.5 -100.667 24.5 -158c0 -62.667 -7.33301 -129.334 -22 -200.001s-33.834 -134.5 -57.501 -191.5s-52 -105 -85 -144s-66.5 -60.5 -100.5 -64.5z" />
    <glyph glyph-name="asterisk" unicode="*" horiz-adv-x="442" 
d="M210 681.5c22 -11.667 37.001 -24.167 45.001 -37.5c1.33301 5.33301 2 15.333 2 30s-1 31.5 -3 50.5s-1.33301 31.5 2 37.5c4.66699 7.33301 11.5 11 20.5 11s16 -2.83301 21 -8.5s8.16699 -13.834 9.5 -24.501s1.33301 -22 0 -34
c-2.66699 -27.333 -10.334 -49.333 -23.001 -66c17.333 6 43 19.667 77 41c8 4 15.5 6 22.5 6s12.5 -3.33301 16.5 -10s6 -12.334 6 -17.001c0 -14 -11.833 -26.333 -35.5 -37s-42.667 -16 -57 -16s-25.833 1.33301 -34.5 4c6.66699 -11.333 28.334 -33.666 65.001 -66.999
c8.66699 -8 13 -15.333 13 -22s-2.83301 -13 -8.5 -19s-13.334 -9 -23.001 -9s-21.834 8.66699 -36.501 26c-24 29.333 -35.667 57 -35 83c-13.333 -12 -30.333 -38.333 -51 -79c-6.66699 -12.667 -13.5 -19 -20.5 -19s-12.833 1.33301 -17.5 4
c-9.33301 6.66699 -14 13.334 -14 20.001s1.83301 15.167 5.5 25.5s14 23.5 31 39.5s33.5 26.333 49.5 31c-12 5.33301 -42 12 -90 20c-18 2.66699 -27 11 -27 25v6c4.66699 15.333 15.334 23 32.001 23s36 -5.83301 58 -17.5z" />
    <glyph glyph-name="plus" unicode="+" horiz-adv-x="626" 
d="M490 301c-38 0 -104.334 -1.66797 -199.001 -5.00098c-23.333 -118 -35 -200.667 -35 -248c0 -6.66699 -3.33301 -10 -10 -10c-8.66699 0 -13 19.667 -13 59c0 69.333 5.66699 135.333 17 198c-89.333 -1.33301 -142.166 -2 -158.499 -2s-25.833 6.66699 -28.5 20
c0.666992 10 4.66699 16 12 18c2.66699 -4 9.66699 -6 21 -6h159c12.667 62 28 113.333 46 154s33.667 61 47 61c8 0 12 -3.66699 12 -11c-22 -45.333 -41.333 -106 -58 -182c-1.33301 -5.33301 -3.33301 -12.666 -6 -21.999h207c5.33301 0 8 -2.66699 8 -8
c0 -10.667 -7 -16 -21 -16z" />
    <glyph glyph-name="comma" unicode="," horiz-adv-x="204" 
d="M55 10.5c6.66699 22.333 9.99902 44.833 9.99902 67.5s9 34 27 34s27 -12 27 -36c0 -36.667 -12.667 -67.667 -38 -93c-12 -12 -22.333 -18 -31 -18c-13.333 0 -20.666 3 -21.999 9v3c11.333 0 20.333 11.167 27 33.5z" />
    <glyph glyph-name="hyphen" unicode="-" horiz-adv-x="578" 
d="M446 301l-350 -8c-19.333 0 -30.333 6.66699 -33 20c0.666992 10 4.66699 16 12 18c2.66699 -4 9.66699 -6 21 -6h362c6.66699 0 9.66699 -3.66699 9 -11c-2.66699 -8 -9.66699 -12.333 -21 -13z" />
    <glyph glyph-name="period" unicode="." horiz-adv-x="234" 
d="M78 -7c-14 0 -21 13 -21 39c0 16 4.33301 33 13 51s21 27 37 27c13.333 0 20 -7.66699 20 -23s-12.333 -41 -37 -77z" />
    <glyph glyph-name="slash" unicode="/" horiz-adv-x="433" 
d="M0 -89c-7.33301 0 -11 5.33398 -11 16.001c0 11.333 8.16699 33.666 24.5 66.999s73 156.5 170 369.5s149 326.333 156 340s16.333 20.5 28 20.5s17.5 -8.33301 17.5 -25c0 -19.333 -5.66699 -40.5 -17 -63.5l-98 -193.5c-128.667 -255.333 -213.334 -427 -254.001 -515
c-5.33301 -10.667 -10.666 -16 -15.999 -16z" />
    <glyph glyph-name="zero" unicode="0" horiz-adv-x="491" 
d="M70 202c0 -116 29.332 -174 87.999 -174s108.167 44.667 148.5 134s60.5 177.333 60.5 264c0 100 -24 150 -72 150c2 9.33301 7.16699 17.333 15.5 24s18.5 10 30.5 10c52.667 0 79 -52.667 79 -158c0 -62.667 -12.333 -131.667 -37 -207
c-36 -108 -84 -181.333 -144 -220c-26 -17.333 -53 -26 -81 -26c-73.333 0 -121.666 38.667 -144.999 116c-9.33301 31.333 -14 68.5 -14 111.5s9 94.167 27 153.5c30.667 100.667 76 176 136 226c38 32 78 48 120 48c6 0 10.833 -2.16699 14.5 -6.5
s6.16699 -10.833 7.5 -19.5c-67.333 0 -124 -50 -170 -150c-42.667 -92 -64 -184 -64 -276z" />
    <glyph glyph-name="one" unicode="1" horiz-adv-x="395" 
d="M348 654c10.667 0 16.001 -5.33398 16.001 -16.001c-36 -40.667 -69.833 -137.167 -101.5 -289.5s-47.5 -264.5 -47.5 -336.5c0 -8.66699 -4.66699 -13 -14 -13c-20 0 -30 26.667 -30 80c0 118 11.333 228.5 34 331.5s51.667 174.167 87 213.5
c-56 -20 -108.833 -59.667 -158.5 -119s-74.5 -116 -74.5 -170c0 -30 8.66699 -45 26 -45c-3.33301 -15.333 -12.833 -23 -28.5 -23s-28.834 7 -39.501 21s-16 32.667 -16 56c0 44 20.5 90.833 61.5 140.5s88.667 90.334 143 122.001s101.833 47.5 142.5 47.5z" />
    <glyph glyph-name="two" unicode="2" horiz-adv-x="491" 
d="M-34 47c-4 0 -6 4.99902 -6 14.999s2.33301 15 7 15c13.333 0 40 17.667 80 53s81.5 77 124.5 125s81.333 99.667 115 155s50.5 100.333 50.5 135c0 51.333 -28 77 -84 77s-102 -26 -138 -78c-21.333 -31.333 -32 -58 -32 -80s6.66699 -33 20 -33v-5
c0 -15.333 -6.33301 -26.666 -19 -33.999c-5.33301 -2.66699 -11.333 -4 -18 -4c-26 0 -39 15 -39 45c0 40.667 19.333 83.667 58 129c52.667 60.667 114.667 91.334 186 92.001c46 0 80.833 -11.167 104.5 -33.5s35.5 -51.666 35.5 -87.999s-13.667 -77.833 -41 -124.5
s-61.333 -91.334 -102 -134.001c-86.667 -88.667 -166.667 -155.334 -240 -200.001c18 -1.33301 44 -4 78 -8c74.667 -10 126.334 -15 155.001 -15s49.667 1.83301 63 5.5s23.333 8.16699 30 13.5c14.667 11.333 24.334 23 29.001 35c11.333 0 16 -8.66699 14 -26
c-2.66699 -26.667 -16.834 -48 -42.501 -64s-58.334 -24 -98.001 -24s-93 9.33301 -160 28s-110.5 28 -130.5 28z" />
    <glyph glyph-name="three" unicode="3" horiz-adv-x="468" 
d="M226 352c90 -25.333 134.999 -84.6719 134.999 -178.005c0 -58 -23 -113.333 -69 -166c-56 -63.333 -130.333 -95 -223 -95c-72.667 0 -121 18.667 -145 56c-6 8.66699 -9 17 -9 25s3.16699 15.833 9.5 23.5s15.833 14.167 28.5 19.5
c0 -13.333 2.66699 -26.666 8 -39.999s17.166 -26.166 35.499 -38.499s42.5 -18.5 72.5 -18.5c68.667 0 124.334 29.333 167.001 88c32 44 48 90.333 48 139c0 74 -29.667 123.333 -89 148c-22.667 9.33301 -48.667 14 -78 14c0 8.66699 3 16.334 9 23.001s13.333 10 22 10
c30.667 0 66.667 22 108 66s62 87.667 62 131c0 18.667 -6.16699 33.834 -18.5 45.501s-30.833 17.5 -55.5 17.5c-46.667 0 -83.334 -18.667 -110.001 -56c-13.333 -18 -20 -35 -20 -51s7.66699 -24 23 -24c0 -10 -4.16699 -19.5 -12.5 -28.5s-18.166 -13.5 -29.499 -13.5
c-28 0 -42 14.333 -42 43s16.667 60 50 94c45.333 45.333 100.333 68 165 68s103.334 -23.333 116.001 -70c2.66699 -9.33301 4 -19.333 4 -30c0 -32.667 -15 -69.167 -45 -109.5s-69 -71.166 -117 -92.499z" />
    <glyph glyph-name="four" unicode="4" horiz-adv-x="547" 
d="M462 311c21.333 0 31.9961 -13.167 31.9961 -39.5s-11.333 -50.5 -34 -72.5c-29.333 -28.667 -69.666 -44.667 -120.999 -48c-9.33301 -63.333 -14 -115 -14 -155c0 -9.33301 -4.66699 -14 -14 -14c-20.667 0 -31 26.667 -31 80c0 38.667 0.666992 68 2 88
c-30.667 0.666992 -103 5.66699 -217 15c-16.667 -10 -33 -15 -49 -15c-37.333 0 -56 9 -56 27c0 9.33301 7.33301 17 22 23c8.66699 2.66699 18.334 4 29.001 4h7c16.667 14.667 32.667 39.334 48 74.001c24.667 58.667 43.667 134.667 57 228c4 28 6 56.5 6 85.5
s-5.33301 43.5 -16 43.5c2 12.667 9.33301 19 22 19c20 0 33 -29.333 39 -88c2.66699 -18.667 4 -43.834 4 -75.501s-4.66699 -73.167 -14 -124.5c-13.333 -74.667 -35 -131 -65 -169c78.667 -10.667 140.334 -17 185.001 -19c6.66699 97.333 21.334 182 44.001 254
c12 36.667 27 65.667 45 87s38 32 60 32c10.667 0 16 -5.33301 16 -16c-20.667 -28 -40.5 -75.5 -59.5 -142.5s-34.5 -138.167 -46.5 -213.5c50 4.66699 83 25 99 61c4 10 6 20.333 6 31s-4.66699 16.667 -14 18c4.66699 14.667 14 22 28 22z" />
    <glyph glyph-name="five" unicode="5" horiz-adv-x="450" 
d="M192.5 621c20.333 -4.66699 41 -7.00098 62 -7.00098s39.333 2.16699 55 6.5s27.5 9.5 35.5 15.5c16 13.333 26.333 27.333 31 42c8 0 12 -7.33301 12 -22c0 -35.333 -16 -64 -48 -86c-24 -16 -56 -24 -96 -24s-79 10 -117 30c-2 -10.667 -4.66699 -28 -8 -52
c-7.33301 -55.333 -15 -96.333 -23 -123c26.667 13.333 54.334 20 83.001 20c79.333 0 133.666 -32.333 162.999 -97c13.333 -30 20 -61.667 20 -95s-6 -68.333 -18 -105c-26 -77.333 -71 -135 -135 -173c-42.667 -25.333 -89.334 -38 -140.001 -38
c-72.667 0 -121 18.667 -145 56c-6 8.66699 -9 17 -9 25s3.16699 15.833 9.5 23.5s15.833 14.167 28.5 19.5c0 -13.333 2.66699 -26.666 8 -39.999s17.166 -26.166 35.499 -38.499s42.5 -18.5 72.5 -18.5c68 0 123.667 34 167 102c34.667 55.333 52 114.333 52 177
c0 78.667 -24 130.667 -72 156c-17.333 9.33301 -35.166 14 -53.499 14s-33.666 -3 -45.999 -9s-22.166 -12.667 -29.499 -20c-18.667 -20 -32.834 -30 -42.501 -30s-17 2 -22 6s-8.5 10.333 -10.5 19c18 0 32.833 15 44.5 45s19.5 62.667 23.5 98c12 96 27 144 45 144
c1.33301 0 7.83301 -2.33301 19.5 -7s27.667 -9.33398 48 -14.001z" />
    <glyph glyph-name="six" unicode="6" horiz-adv-x="467" 
d="M81 201c0 32.667 6.99902 67.499 20.999 104.499s36.833 70.5 68.5 100.5s67.834 45 108.501 45c56.667 0 93.334 -29 110.001 -87c5.33301 -20 8 -45.5 8 -76.5s-9.66699 -69.833 -29 -116.5c-30 -74 -73.333 -125 -130 -153c-25.333 -12.667 -52 -19 -80 -19
c-71.333 0 -119 37.333 -143 112c-10.667 32 -16 69.833 -16 113.5s9 95.167 27 154.5c33.333 109.333 85.666 195 156.999 257c58.667 51.333 122.334 77 191.001 77c6 0 10.833 -2.16699 14.5 -6.5s6.16699 -10.833 7.5 -19.5c-86.667 0 -161.667 -51 -225 -153
c-52.667 -84.667 -84.667 -180 -96 -286c-2.66699 -22.667 -4 -43.667 -4 -63c0 -62 12.333 -106.667 37 -134c13.333 -15.333 30 -23 50 -23c51.333 0 95 33.333 131 100c29.333 56.667 44 115 44 175c0 69.333 -18.333 108.333 -55 117c-4.66699 1.33301 -9.66699 2 -15 2
c-40 0 -75.667 -24.833 -107 -74.5s-47 -98.834 -47 -147.501c0 -3.33301 -2.33301 -5.66602 -7 -6.99902s-9.33398 -1.16602 -14.001 0.500977s-7 4.16699 -7 7.5z" />
    <glyph glyph-name="seven" unicode="7" horiz-adv-x="381" 
d="M383 654c10.667 0 16 -5.33105 16 -15.998c-32.667 -28.667 -74 -79.334 -124 -152.001s-96 -154.834 -138 -246.501s-63 -166.834 -63 -225.501c0 -8.66699 -4.66699 -13 -14 -13c-20.667 0 -31 16.667 -31 50c0 20 3.66699 45.667 11 77
c22 96.667 60.5 193.834 115.5 291.501s105.167 164.5 150.5 200.5c-18 -2.66699 -54.167 -11 -108.5 -25s-91.833 -21 -112.5 -21s-33.5 5 -38.5 15s-6.16699 20.333 -3.5 31l4 15c12 -10.667 28.833 -16 50.5 -16s67.5 5.83301 137.5 17.5s119.333 17.5 148 17.5z" />
    <glyph glyph-name="eight" unicode="8" horiz-adv-x="465" 
d="M409 674c0 -53.333 -15.498 -101.34 -46.498 -144.007s-74.833 -88.667 -131.5 -138c6 -7.33301 17.5 -20.666 34.5 -39.999s29.667 -34.333 38 -45s17.833 -24.667 28.5 -42c21.333 -33.333 32 -67.666 32 -102.999c0 -59.333 -21 -105.833 -63 -139.5
s-89.667 -50.5 -143 -50.5s-97.833 12.667 -133.5 38s-53.5 61 -53.5 107c0 54.667 26.667 108.667 80 162c24.667 24.667 59.667 56.334 105 95.001c-31.333 42.667 -47 85.334 -47 128.001s14.5 78.334 43.5 107.001s66.5 43 112.5 43c13.333 0 23.833 -2.33301 31.5 -7
s12.167 -9.66699 13.5 -15l2 -7c-7.33301 2.66699 -20.333 4 -39 4c-34.667 0 -60.834 -10 -78.501 -30s-26.5 -45.167 -26.5 -75.5s13.667 -64.166 41 -101.499c52.667 48 93.667 95 123 141s44 98.667 44 158c9.33301 -2 17.166 -7.16699 23.499 -15.5
s9.5 -18.166 9.5 -29.499zM302.002 136.993c0 20 -4.66797 40.668 -14.001 62.001s-17.666 37.166 -24.999 47.499s-22.166 28.166 -44.499 53.499l-40.5 46c-50.667 -44 -89.334 -84 -116.001 -120s-40 -73 -40 -111s13 -66.833 39 -86.5s58 -29.5 96 -29.5
s71.667 12.333 101 37s44 58.334 44 101.001z" />
    <glyph glyph-name="nine" unicode="9" horiz-adv-x="477" 
d="M61 362c0 -88 25.6689 -131.996 77.002 -131.996c40 0 74.167 24 102.5 72s42.5 95.333 42.5 142v8c0 2.66699 2.33301 4.66699 7 6c14.667 4 22 -0.333008 22 -13c0 -31.333 -6.16699 -65 -18.5 -101s-33.833 -69 -64.5 -99s-66.334 -45 -107.001 -45
c-57.333 0 -94.666 29.333 -111.999 88c-6.66699 22.667 -10 49.667 -10 81s8 68.666 24 111.999c28 74 69.667 124.667 125 152c25.333 12.667 51.666 19 78.999 19c76.667 0 128.667 -39.333 156 -118c12 -36 18 -76.833 18 -122.5s-7.66699 -96.834 -23 -153.501
c-30.667 -111.333 -80.667 -199 -150 -263c-58.667 -54.667 -122.667 -82 -192 -82c-42.667 0 -75.834 9 -99.501 27s-35.834 35.333 -36.501 52c0 9.33301 3 17.833 9 25.5s15 14.167 27 19.5c0.666992 -22.667 8.66699 -44.5 24 -65.5s40.333 -31.5 75 -31.5
c71.333 0 136 48 194 144c52 86 84.667 183 98 291c3.33301 27.333 5 52.666 5 75.999c0 66 -13.667 114 -41 144c-17.333 19.333 -38.666 29 -63.999 29c-52 0 -94 -32.667 -126 -98c-27.333 -54.667 -41 -109.334 -41 -164.001z" />
    <glyph glyph-name="colon" unicode=":" horiz-adv-x="250" 
d="M78 -7c-14 0 -21 13 -21 39c0 16 4.33301 33 13 51s21 27 37 27c13.333 0 20 -7.66699 20 -23s-12.333 -41 -37 -77zM102 258c-14 0 -21 13.333 -21 40c0 16 4.33301 33 13 51s21 27 37 27c13.333 0 20 -8 20 -24c0 -7.33301 -4 -18.833 -12 -34.5
s-16.333 -29.5 -25 -41.5z" />
    <glyph glyph-name="semicolon" unicode=";" horiz-adv-x="240" 
d="M108 258c-14 0 -21 13.332 -21 39.999c0 16 4.16699 33 12.5 51s20.5 27 36.5 27c14 0 21 -8 21 -24c0 -13.333 -12.333 -38.666 -37 -75.999zM55 10.499c6.66699 22.333 9.99902 44.833 9.99902 67.5s9 34 27 34s27 -12 27 -36c0 -36.667 -12.667 -67.667 -38 -93
c-12 -12 -22.333 -18 -31 -18c-13.333 0 -20.666 3 -21.999 9v3c11.333 0 20.333 11.167 27 33.5z" />
    <glyph glyph-name="less" unicode="&#x3c;" horiz-adv-x="533" 
d="M382 435c0 -28.667 -27.166 -63.833 -81.499 -105.5s-107.833 -65.167 -160.5 -70.5c44.667 -20 85.834 -52.167 123.501 -96.5s56.5 -81.833 56.5 -112.5c0 -10 -2.33301 -18.833 -7 -26.5s-12 -14.167 -22 -19.5c0 48.667 -29.333 100 -88 154s-123.334 81 -194.001 81
c2 8.66699 9.16699 17 21.5 25s25.833 12 40.5 12c70 0 134.5 24 193.5 72s88.5 92.667 88.5 134c2 -0.666992 4.66699 -1.66699 8 -3s7.66602 -6 12.999 -14s8 -18 8 -30z" />
    <glyph glyph-name="equal" unicode="=" horiz-adv-x="654" 
d="M490 376l-394 -8c-19.333 0 -30.333 6.66699 -33 20c0.666992 10 4.66699 16 12 18c2.66699 -4 9.66699 -6 21 -6h407c5.33301 0 8 -2.66699 8 -8c0 -10.667 -7 -16 -21 -16zM490 226l-394 -8c-19.333 0 -30.333 6.66699 -33 20c0.666992 10 4.66699 16 12 18
c2.66699 -4 9.66699 -6 21 -6h407c5.33301 0 8 -2.66699 8 -8c0 -10.667 -7 -16 -21 -16z" />
    <glyph glyph-name="greater" unicode="&#x3e;" horiz-adv-x="463" 
d="M27 52c0 28.667 27.002 63.835 81.002 105.502s107.667 65.167 161 70.5c-44.667 20 -85.834 52.167 -123.501 96.5s-56.5 81.833 -56.5 112.5c0 10 2.33301 18.667 7 26s11.667 13.666 21 18.999c0 -48.667 29.333 -99.834 88 -153.501s123.667 -80.5 195 -80.5
c-2 -8 -9.33301 -16.167 -22 -24.5s-26.334 -12.5 -41.001 -12.5c-46.667 0 -92.5 -12 -137.5 -36s-80.333 -52 -106 -84s-38.5 -61 -38.5 -87c-6.66699 2 -13 7.5 -19 16.5s-9 19.5 -9 31.5z" />
    <glyph glyph-name="question" unicode="?" horiz-adv-x="492" 
d="M193 666c-20.667 -30.667 -31.001 -57.168 -31.001 -79.501s6.66699 -33.5 20 -33.5c0 -10.667 -3.5 -20.5 -10.5 -29.5s-16.167 -13.5 -27.5 -13.5c-26 0 -39 15 -39 45c0 40.667 19.333 83.667 58 129c52.667 60.667 115 91.334 187 92.001
c45.333 0 80 -11.333 104 -34s36 -52 36 -88s-11.167 -72.833 -33.5 -110.5s-49.333 -72.167 -81 -103.5l-95.5 -90c-76 -70 -114 -123.333 -114 -160c0 -7.33301 -5.66699 -11.166 -17 -11.499s-17 3.5 -17 11.5c0 37.333 33.333 94.666 100 171.999l83.5 97
c27.667 33.333 51.334 68.5 71.001 105.5s29.5 71.167 29.5 102.5c0 51.333 -28.167 77 -84.5 77s-102.5 -26 -138.5 -78zM141.999 108.999c16 0 24 -7.66797 24 -23.001c0 -13.333 -7.33301 -38.666 -22 -75.999l-8 -18c-11.333 0 -20 9.66699 -26 29
c-2.66699 10 -4 19.833 -4 29.5s1.33301 19.5 4 29.5c5.33301 19.333 16 29 32 29z" />
    <glyph glyph-name="at" unicode="@" horiz-adv-x="837" 
d="M523 243c0 -58.667 15.6611 -88.001 46.9941 -88.001c37.333 0 69.833 25.833 97.5 77.5s41.5 106.167 41.5 163.5c0 105.333 -37.667 175.666 -113 210.999c-30 14.667 -65.333 22 -106 22c-108.667 0 -197 -44.333 -265 -133
c-59.333 -77.333 -89 -166.666 -89 -267.999c0 -84 23.333 -150.333 70 -199c38.667 -40 89.334 -60 152.001 -60c28 0 53.333 3.5 76 10.5s40 15.167 52 24.5c25.333 20.667 41 39.334 47 56.001l4 10l18 -1c-2 -10.667 -8.33301 -24.334 -19 -41.001
s-22.834 -30.5 -36.501 -41.5s-33.834 -21 -60.501 -30s-56.667 -13.5 -90 -13.5c-108 0 -185 40.333 -231 121c-25.333 44.667 -38 94.667 -38 150c0 31.333 4 64.333 12 99c22.667 98 71.334 179.167 146.001 243.5s164.834 96.5 270.501 96.5s177.167 -41.667 214.5 -125
c15.333 -36 23 -72.5 23 -109.5s-5.33301 -74.167 -16 -111.5c-20 -71.333 -52.333 -122 -97 -152c-21.333 -14.667 -43 -22 -65 -22c-36 0 -61.333 15 -76 45c-10.667 23.333 -16 51.333 -16 84c0 8.66699 0.333008 18 1 28h-8c-60 -104 -106.333 -156 -139 -156
c-40 0 -60 31.667 -60 95c0 46.667 13.333 96.334 40 149.001c33.333 66 74.333 104.333 123 115l23 3c12.667 0 23.334 -3.33301 32.001 -10s14.334 -13.334 17.001 -20.001l4 -10c2 -10 -2.33301 -15 -13 -15c-9.33301 0 -15.333 3.33301 -18 10
c-5.33301 13.333 -14.333 20 -27 20c-29.333 0 -56.333 -26.333 -81 -79c-29.333 -61.333 -44 -120 -44 -176c0 -28 4 -44.667 12 -50c12.667 0 37.334 27.333 74.001 82l22 36l24 39.5l24 38.5c6 9.33301 12.5 20 19.5 32l16.5 28c4 6.66699 8.33301 13.334 13 20.001
c8.66699 13.333 18.334 20 29.001 20c9.33301 0 14 -6 14 -18c-13.333 -24 -25.166 -55.5 -35.499 -94.5s-15.5 -74.5 -15.5 -106.5z" />
    <glyph glyph-name="A" unicode="A" 
d="M369 -14c-32.667 31.333 -49 78.3379 -49 141.005c0 70 23 142.333 69 217c25.333 41.333 59.666 75.333 102.999 102s90.666 40 141.999 40c22.667 0 47 -4 73 -12c50.667 83.333 92 143.666 124 180.999s59.667 65.666 83 84.999c52.667 42.667 106 64 160 64
c10.667 0 16 -5.33301 16 -16c-44 -96.667 -77.833 -194.167 -101.5 -292.5s-42 -194 -55 -287s-19.5 -171.833 -19.5 -236.5c0 -9.33301 -4.66699 -14 -14 -14c-23.333 0 -35 26.667 -35 80c0 67.333 -6.33301 128.333 -19 183c-23.333 104 -64 172.667 -122 206l-41.5 -80
l-45 -86.5c-9.66699 -18.333 -24 -44 -43 -77s-35.167 -59.5 -48.5 -79.5c-32 -48 -66.667 -90 -104 -126c6.66699 -2 14.667 -3 24 -3c56 0 102.333 18.5 139 55.5s62 80.833 76 131.5c2 7.33301 7.33301 10.666 16 9.99902c5.33301 -0.666992 7.33301 -3.33398 6 -8.00098
c-14.667 -57.333 -42.5 -107.5 -83.5 -150.5s-92.5 -64.5 -154.5 -64.5c-14 0 -29.667 2.33301 -47 7c-61.333 -49.333 -126.666 -74 -195.999 -74c-90 0 -154 35.333 -192 106c-20.667 38 -31 79 -31 123c0 23.333 3 47.666 9 72.999c16 68.667 48.667 117.667 98 147
c24.667 14.667 51.667 22 81 22c9.33301 0 17 -2.83301 23 -8.5s10.333 -14.5 13 -26.5c-39.333 0 -74.666 -14 -105.999 -42c-52.667 -46 -79 -111.333 -79 -196c0 -51.333 15.5 -91.5 46.5 -120.5s72.667 -43.5 125 -43.5s105.5 23.333 159.5 70zM633 450.005
c-56 0 -106.333 -18.333 -151 -55s-77.334 -79.5 -98.001 -128.5s-31 -98.5 -31 -148.5s12.667 -88 38 -114c25.333 24 52.333 55.5 81 94.5s51.334 71.833 68.001 98.5l78 130l69 116c-16 4.66699 -34 7 -54 7zM1022 765.005c-53.333 -14 -102 -47 -146 -99
s-89 -121 -135 -207c64.667 -35.333 110 -106 136 -212c12 113.333 31.5 217.5 58.5 312.5s55.833 163.5 86.5 205.5z" />
    <glyph glyph-name="B" unicode="B" horiz-adv-x="762" 
d="M562 461c79.333 -25.333 118.999 -90.3291 118.999 -194.996c0 -87.333 -37.167 -172.833 -111.5 -256.5s-176.5 -125.5 -306.5 -125.5c-102 0 -168.333 29.667 -199 89c-10.667 20 -16 40.5 -16 61.5s5.33301 42.5 16 64.5c20 42.667 49 64 87 64
c3.33301 0 5.66602 -1.83301 6.99902 -5.5s1.16602 -7.5 -0.500977 -11.5s-4.16699 -6 -7.5 -6c-22.667 0 -41.667 -14.667 -57 -44c-10.667 -19.333 -16 -37.666 -16 -54.999s4 -34 12 -50c23.333 -45.333 75.333 -68 156 -68c101.333 0 189.333 42.667 264 128
c58 65.333 93.667 137 107 215c3.33301 18.667 5 36 5 52c0 46 -13.667 80.333 -41 103c-14.667 12 -32.667 19 -54 21c-36 -15.333 -74.667 -23 -116 -23c-4.66699 0 -7 4.5 -7 13.5s2.33301 13.5 7 13.5c67.333 0 126.333 31.667 177 95
c37.333 47.333 57.333 93.666 60 138.999c-1.33301 40 -17 61 -47 63c-32.667 0 -67.667 -23.333 -105 -70s-71 -103.334 -101 -170.001s-57.5 -134.834 -82.5 -204.501s-44.5 -129.334 -58.5 -179.001s-21 -78.834 -21 -87.501s-4.66699 -13 -14 -13
c-20 0 -30 26.667 -30 80c0 128.667 14.5 253.667 43.5 375s61.167 202.333 96.5 243c-95.333 -13.333 -172.666 -47 -231.999 -101c-34 -30 -51 -62.667 -51 -98c0 -17.333 6.66699 -26 20 -26c-2.66699 -9.33301 -10 -14 -22 -14s-22.5 4.66699 -31.5 14
s-13.5 22.333 -13.5 39c0 39.333 23.833 75.833 71.5 109.5s99.167 58.667 154.5 75s102.333 24.5 141 24.5c10.667 0 16 -5.33301 16 -16c-43.333 -100.667 -82.666 -247.667 -117.999 -441h8c38.667 120.667 84.334 228.667 137.001 324c28 51.333 59 91.833 93 121.5
s68.667 44.5 104 44.5c56 0 89.333 -22.667 100 -68c2 -9.33301 3 -19.333 3 -30c0 -36 -13.833 -74.5 -41.5 -115.5s-62.5 -73.833 -104.5 -98.5z" />
    <glyph glyph-name="C" unicode="C" horiz-adv-x="605" 
d="M579 514c0 -2.66699 -2.83203 -4.33301 -8.49902 -5s-11.334 0.333008 -17.001 3s-8.5 6.33398 -8.5 11.001c0 68 7.66699 122.833 23 164.5s35.333 62.5 60 62.5c6.66699 0 12.334 -2.33301 17.001 -7s7 -11 7 -19c-30.667 -30.667 -52.334 -75.334 -65.001 -134.001
c-5.33301 -24 -8 -49.333 -8 -76zM519.001 726.001c-92 0 -174.332 -53.667 -246.999 -161c-62.667 -92.667 -103.667 -200.667 -123 -324c-6.66699 -40.667 -10 -78 -10 -112c0 -65.333 12 -117.833 36 -157.5s57.667 -59.5 101 -59.5c58.667 0 108.667 33.667 150 101
c28 45.333 42 85.333 42 120c0 15.333 -4 23 -12 23c4 15.333 14 23 30 23c18.667 0 28 -13.333 28 -40c0 -50 -22 -103.333 -66 -160c-52.667 -67.333 -114.334 -101 -185.001 -101c-88.667 0 -148.667 44.333 -180 133c-15.333 41.333 -23 88.166 -23 140.499
s8.66699 110.833 26 175.5c33.333 128 89.5 234.333 168.5 319s166.5 127.334 262.5 128.001c13.333 0 23 -4.33301 29 -13s8.66699 -17 8 -25v-13c-5.33301 2 -17 3 -35 3z" />
    <glyph glyph-name="D" unicode="D" horiz-adv-x="750" 
d="M44 478c-24.667 0 -36.999 17.3311 -36.999 51.998s18 73.334 54 116.001c60 72 143.333 113.667 250 125l55 3c121.333 0 209.333 -48.333 264 -145c32.667 -59.333 49 -127.666 49 -204.999c0 -32 -2.66699 -65.667 -8 -101
c-19.333 -118.667 -65.333 -219.334 -138 -302.001c-80 -91.333 -173.167 -137 -279.5 -137s-173.833 29.667 -202.5 89c-8.66699 18.667 -13 38.5 -13 59.5s5.66699 43.167 17 66.5c22 42.667 52 64 90 64c3.33301 0 5.5 -1.83301 6.5 -5.5s0.666992 -7.5 -1 -11.5
s-4.16699 -6 -7.5 -6c-22.667 0 -42.334 -14.667 -59.001 -44c-10.667 -20.667 -16 -39.667 -16 -57s3.33301 -33.333 10 -48c21.333 -45.333 72.333 -68 153 -68c91.333 0 174 46.667 248 140c66.667 84 109.667 182.667 129 296c6.66699 36.667 10 71.334 10 104.001
c0 72.667 -16.333 134 -49 184c-43.333 67.333 -111.333 101 -204 101c-116 0 -203 -39 -261 -117c-29.333 -40 -44 -77.333 -44 -112c0 -14 3 -21 9 -21c-4 -13.333 -12.333 -20 -25 -20zM188.001 98.998c0 101.333 9 199.832 27 295.499s40.167 171.334 66.5 227.001
s51.833 83.5 76.5 83.5c10.667 0 16 -5.33301 16 -16c-30 -62 -56.333 -144.667 -79 -248c-42 -188.667 -63 -325 -63 -409c0 -8.66699 -4.66699 -13 -14 -13c-20 0 -30 26.667 -30 80z" />
    <glyph glyph-name="E" unicode="E" horiz-adv-x="632" 
d="M477 302c32.667 0 53.9961 -21.666 63.9961 -64.999c4 -16 6 -32.667 6 -50c0 -40.667 -10.333 -85.334 -31 -134.001c-36 -84 -90.333 -143 -163 -177c-40 -18.667 -83 -28 -129 -28c-98.667 0 -166 36 -202 108c-16.667 33.333 -25 69 -25 107s7 77.667 21 119
c30.667 90.667 85.334 164.667 164.001 222c48.667 34.667 102.334 58.667 161.001 72c-53.333 19.333 -80 52.666 -80 99.999s23.667 92.166 71 134.499s107 63.5 179 63.5c12 0 21 -4.66699 27 -14s8.66699 -18.666 8 -27.999v-13c-5.33301 2.66699 -16.666 4 -33.999 4
c-60.667 0 -111.667 -21.333 -153 -64c-29.333 -30 -44 -59.667 -44 -89c0 -55.333 41.667 -83 125 -83c7.33301 0 13.5 -2.16699 18.5 -6.5s9.16699 -10.833 12.5 -19.5c-115.333 0 -212 -44.333 -290 -133c-73.333 -82.667 -110 -174.667 -110 -276
c0 -57.333 16.667 -101.666 50 -132.999c26 -25.333 60 -38 102 -38c94.667 0 167.334 40 218.001 120c33.333 52 50 106.667 50 164c0 62.667 -15.667 99.667 -47 111c-5.33301 2 -11 3 -17 3c8.66699 15.333 24.667 23 48 23zM582.996 548.001
c0 -3.33301 -2.99902 -4.99902 -8.99902 -4.99902s-11.833 1.33301 -17.5 4s-8.5 6.33398 -8.5 11.001c0 68 7.66699 122.833 23 164.5s35.666 62.5 60.999 62.5c6.66699 0 12.334 -2.5 17.001 -7.5s7 -11.167 7 -18.5c-30.667 -30.667 -52.334 -75.334 -65.001 -134.001
c-5.33301 -24.667 -8 -50.334 -8 -77.001z" />
    <glyph glyph-name="F" unicode="F" horiz-adv-x="680" 
d="M175 512c0 -49.333 13.9961 -75.668 41.9961 -79.001c-2 -9.33301 -9.66699 -14 -23 -14c-27.333 0 -46.666 16.667 -57.999 50c-5.33301 15.333 -8 34.166 -8 56.499s8.66699 49.166 26 80.499c39.333 72.667 110.666 119.334 213.999 140.001
c35.333 6.66699 73.166 10 113.499 10s74.833 4 103.5 12s48.334 17 59.001 27c28 26 48.667 39 62 39s20 -4 20 -12v-6c-4.66699 -18.667 -24.667 -36.334 -60 -53.001c-21.333 -9.33301 -45.333 -16.666 -72 -21.999c-22 -9.33301 -40.333 -34.833 -55 -76.5
s-30 -101.834 -46 -180.501c34.667 3.33301 63.334 5 86.001 5c6 0 8.66699 -3.66699 8 -11c-2.66699 -8 -9.66699 -12.167 -21 -12.5s-37.666 -3.83301 -78.999 -10.5c-31.333 -154.667 -58.666 -264 -81.999 -328c-58.667 -162 -142.334 -243 -251.001 -243
c-78 0 -126.667 35.667 -146 107c-7.33301 24.667 -11 49.334 -11 74.001c0 46.667 12.333 93.334 37 140.001c37.333 71.333 86.333 107 147 107c8.66699 0 15.834 -2 21.501 -6s9.5 -10 11.5 -18c-57.333 0 -104.666 -29.667 -141.999 -89
c-29.333 -46 -44 -93.667 -44 -143c0 -72 25.333 -116 76 -132c12 -3.33301 27.667 -5 47 -5s39.833 5.5 61.5 16.5s41.334 31 59.001 60l43.5 73c11.333 19.667 24.333 54.834 39 105.501c17.333 62 32 119.5 44 172.5s19.333 84.833 22 95.5c-37.333 -6 -65.5 -9 -84.5 -9
s-29.833 8.33301 -32.5 25c-0.666992 13.333 3 21 11 23c3.33301 -4 13.833 -6 31.5 -6s45.5 1.66699 83.5 5c16.667 65.333 32.667 118.5 48 159.5s33.333 72.167 54 93.5c-10.667 -0.666992 -27.334 -1 -50.001 -1c-128 0 -217.667 -37.667 -269 -113
c-24.667 -35.333 -37 -71 -37 -107zM614.996 306.998c0 -3.33301 -3 -5 -9 -5s-11.833 1.33301 -17.5 4s-8.5 6.33398 -8.5 11.001c0 68 7.66699 122.833 23 164.5s35.666 62.5 60.999 62.5c6.66699 0 12.334 -2.33301 17.001 -7s7 -11 7 -19
c-30 -30 -51.667 -74.667 -65 -134c-5.33301 -24.667 -8 -50.334 -8 -77.001z" />
    <glyph glyph-name="G" unicode="G" horiz-adv-x="755" 
d="M234 444c-36.667 8.66699 -65.9961 24.0029 -87.9961 46.0029c-24 25.333 -36 55 -36 89c0 55.333 18.333 97.666 55 126.999c21.333 16.667 45.333 25 72 25c6 0 10.667 -1.83301 14 -5.5s5.33301 -9.16699 6 -16.5c-27.333 0 -51 -10.667 -71 -32
c-25.333 -27.333 -38 -58 -38 -92c0 -20.667 7 -42.834 21 -66.501s39 -39.834 75 -48.501c34.667 86.667 78.5 159 131.5 217s107.833 87 164.5 87c48.667 0 77 -20 85 -60c2 -8 3 -16 3 -24c0 -34.667 -15.333 -72.667 -46 -114c-46.667 -64 -111 -106.333 -193 -127
c-24.667 -6 -50.334 -9.66699 -77.001 -11c-29.333 -90.667 -44 -176 -44 -256s18.333 -120 55 -120c25.333 0 54.333 17.667 87 53s63.334 79 92.001 131c56 102.667 95 183.334 117 242.001c10 24.667 19.833 43 29.5 55s21.5 18 35.5 18s21 -7.66699 21 -23
c-24 -56.667 -47.333 -151.667 -70 -285c-23.333 -125.333 -41 -206.333 -53 -243s-24.333 -70.5 -37 -101.5s-26 -56.667 -40 -77s-30.833 -41.333 -50.5 -63s-40.5 -38.834 -62.5 -51.501c-50.667 -28.667 -107.334 -43 -170.001 -43c-104 0 -175.667 34.667 -215 104
c-18.667 31.333 -28 61.166 -28 89.499s3.33301 53.833 10 76.5c16 52 44.333 87 85 105c15.333 6 29 9 41 9c21.333 0 33.666 -6.66699 36.999 -20l1 -6c-41.333 0 -73.666 -22.667 -96.999 -68c-15.333 -29.333 -23 -56.333 -23 -81c0 -96.667 41 -156 123 -178
c20 -5.33301 41.667 -8 65 -8c46 0 87.167 12 123.5 36s65.166 50 86.499 78s41.666 71.333 60.999 130s32.5 103.667 39.5 135s14 65.333 21 102s10.833 56.334 11.5 59.001s1.33398 5.83398 2.00098 9.50098s1.5 9 2.5 16s3.5 18.167 7.5 33.5h-10
c-40 -76 -82.333 -139.667 -127 -191s-86.334 -77 -125.001 -77s-68.334 12.333 -89.001 37c-26 31.333 -39 80.666 -39 147.999s16 144.333 48 231zM540.004 745.003c-42 0 -82.167 -26.5 -120.5 -79.5s-71.166 -119.833 -98.499 -200.5
c85.333 6 155.666 40.333 210.999 103c38.667 43.333 58 85 58 125c-4 32.667 -20.667 50 -50 52z" />
    <glyph glyph-name="H" unicode="H" horiz-adv-x="902" 
d="M506 725.5c40.667 10.333 69.3311 15.5 85.998 15.5c22 0 33.333 -4 34 -12l1 -4c-14 0 -26 -5.5 -36 -16.5s-19.667 -32.833 -29 -65.5c-10.667 -40.667 -20 -83.834 -28 -129.501s-12.5 -70.834 -13.5 -75.501s-2 -10.5 -3 -17.5s-2.16699 -13.5 -3.5 -19.5
c117.333 10 195.333 16 234 18c21.333 110.667 48 202.5 80 275.5s62.333 109.5 91 109.5c10.667 0 16 -5.33301 16 -16c-44 -96.667 -77.833 -194.167 -101.5 -292.5s-42 -194 -55 -287s-19.5 -171.833 -19.5 -236.5c0 -9.33301 -4.66699 -14 -14 -14
c-23.333 0 -35 26.667 -35 80c0 112.667 10.667 231.334 32 356.001c-64.667 -7.33301 -115.167 -13.5 -151.5 -18.5s-63.833 -8.5 -82.5 -10.5c-28.667 -157.333 -60.667 -266.333 -96 -327c-16.667 -28.667 -35.667 -55.334 -57 -80.001
c-43.333 -49.333 -100.333 -74 -171 -74c-52 0 -93.833 14.667 -125.5 44s-49.834 65 -54.501 107c-1.33301 14 -2 31.5 -2 52.5s3.83301 49 11.5 84s26 67.167 55 96.5s62.167 44 99.5 44c10 0 18 -3 24 -9s10 -15 12 -27c-60.667 0 -108 -29.667 -142 -89
c-22.667 -38.667 -34 -77.334 -34 -116.001c0 -20.667 3.33301 -41.667 10 -63c18.667 -59.333 62.334 -89 131.001 -89c66.667 0 119.667 35 159 105c24.667 44.667 43.667 89.334 57 134.001c18.667 64 35 130 49 198c-21.333 -2.66699 -40.333 -4 -57 -4
s-26.334 8.33301 -29.001 25c-2.66699 12.667 0 20.334 8 23.001c0.666992 0.666992 1.66699 1 3 1c2.66699 -4.66699 10.5 -7 23.5 -7s33.167 1 60.5 3c12.667 60.667 22.667 106.5 30 137.5s18.333 65 33 102s30.334 63.5 47.001 79.5
c-61.333 -11.333 -118.666 -32.666 -171.999 -63.999c-27.333 -16 -49.666 -35.667 -66.999 -59s-26 -47.666 -26 -72.999c0 -17.333 6.66699 -26 20 -26c-2.66699 -9.33301 -10 -14 -22 -14s-22.5 4.66699 -31.5 14s-13.5 22.333 -13.5 39c0 29.333 14 57.666 42 84.999
s62 49.5 102 66.5s80.333 30.667 121 41z" />
    <glyph glyph-name="I" unicode="I" horiz-adv-x="587" 
d="M589 762c10.667 0 17.001 -3.99902 19.001 -11.999l1 -4c-19.333 0 -35.833 -12.333 -49.5 -37s-23.834 -57.167 -30.501 -97.5l-22 -138c-8 -51.667 -15.5 -104.5 -22.5 -158.5s-18.167 -106.833 -33.5 -158.5s-33.166 -97.667 -53.499 -138s-48.5 -72.833 -84.5 -97.5
s-78.667 -37 -128 -37s-89.833 14.667 -121.5 44s-49.834 65 -54.501 107c-1.33301 14 -2 31.5 -2 52.5s3.83301 49 11.5 84s26 67.167 55 96.5s62.167 44 99.5 44c10 0 17.833 -3 23.5 -9s9.5 -15 11.5 -27c-60 0 -107.333 -29.667 -142 -89
c-22 -38.667 -33 -77.334 -33 -116.001c0 -20.667 3.33301 -41.667 10 -63c18.667 -59.333 62.334 -89 131.001 -89c37.333 0 70.166 12.167 98.499 36.5s51.166 57 68.499 98s32.333 86.667 45 137s23.667 102.833 33 157.5l27 155c22 116 49 192 81 228
c-52 -18 -99.167 -46.5 -141.5 -85.5s-63.5 -81.5 -63.5 -127.5c0 -20.667 7 -31 21 -31c-1.33301 -9.33301 -8.16602 -14 -20.499 -14s-23.333 5 -33 15s-14.5 24.333 -14.5 43c0 39.333 19.5 77.5 58.5 114.5s82.667 65.667 131 86s89.833 30.5 124.5 30.5z" />
    <glyph glyph-name="J" unicode="J" horiz-adv-x="732" 
d="M226 -205c50 0 93.666 14.833 130.999 44.5s67 68.834 89 117.501s41 103 57 163s29.5 122.167 40.5 186.5l32.5 181.5c24 131.333 56.333 215 97 251c-94 -14.667 -165.667 -60.667 -215 -138c-30.667 -47.333 -46 -93.666 -46 -138.999c0 -55.333 17 -85.333 51 -90
c2.66699 -0.666992 5.33398 -1 8.00098 -1c0 -4.66699 -2 -9 -6 -13c-7.33301 -7.33301 -17.333 -11 -30 -11c-39.333 0 -64.333 21 -75 63c-4 14 -6 28.667 -6 44c0 36.667 11 76 33 118c40 76.667 102.333 131 187 163c48 18 100.333 27 157 27
c7.33301 0 13 -1.66699 17 -5s6.33301 -8.33301 7 -15c-36.667 0 -64.334 -40.667 -83.001 -122c-8 -38 -15.667 -81.167 -23 -129.5l-24 -153c-8.66699 -53.667 -18.667 -107.334 -30 -161.001s-27.166 -104.667 -47.499 -153s-44 -91.333 -71 -129
s-61.833 -67.5 -104.5 -89.5s-86.667 -33 -132 -33s-82.333 5.66699 -111 17s-51.667 26.666 -69 45.999c-38 43.333 -57 93.333 -57 150c0 62 12 114 36 156c48.667 86 112.334 129 191.001 129c14 0 25.167 -3.66699 33.5 -11s13.166 -14.333 14.499 -21l2 -11
c-12 1.33301 -20.333 2 -25 2c-72 0 -127.667 -36.333 -167 -109c-24.667 -44.667 -37 -89.334 -37 -134.001c0 -27.333 4.33301 -54.666 13 -81.999c24.667 -72.667 78.667 -109 162 -109z" />
    <glyph glyph-name="K" unicode="K" horiz-adv-x="660" 
d="M723 -177c18 0 31.334 6.33203 40.001 18.999c4 0 6 -1.66699 6 -5s-1.66699 -8.33301 -5 -15c-14.667 -20 -32.667 -31 -54 -33c-33.333 0 -67.166 17.833 -101.499 53.5s-65 78.834 -92 129.501s-52.167 101.5 -75.5 152.5s-44.333 94.333 -63 130
s-33.334 53.5 -44.001 53.5c-4.66699 4.66699 -1.33398 14.667 9.99902 30c180.667 290 306.667 435 378 435c9.33301 0 16.666 -4.16699 21.999 -12.5s8.66602 -20.5 9.99902 -36.5c-28.667 0 -63.334 -19.333 -104.001 -58l-56.5 -58.5
c-16.333 -17.667 -38.166 -44.167 -65.499 -79.5l-130 -172c26.667 -18 76.667 -113 150 -285c26.667 -62.667 56.334 -119.667 89.001 -171s61.334 -77 86.001 -77zM367.001 739.999c10.667 0 15.999 -5.33301 15.999 -16c-52 -120 -95 -287.667 -129 -503
c-13.333 -87.333 -20 -150.333 -20 -189c0 -8.66699 -4.66699 -13 -14 -13c-20 0 -30 26.667 -30 80c0 128.667 14.5 253.667 43.5 375s61.167 202.333 96.5 243c-95.333 -13.333 -172.666 -47 -231.999 -101c-34 -30 -51 -62.667 -51 -98c0 -17.333 6.66699 -26 20 -26
c-2.66699 -9.33301 -10 -14 -22 -14s-22.5 4.66699 -31.5 14s-13.5 22.333 -13.5 39c0 39.333 23.833 75.833 71.5 109.5s99.167 58.667 154.5 75s102.333 24.5 141 24.5z" />
    <glyph glyph-name="L" unicode="L" horiz-adv-x="584" 
d="M537 728c-30 0 -54.8359 -20.1689 -74.5029 -60.502s-35.667 -92.666 -48 -156.999l-38 -199.5c-13 -68.667 -32.5 -136.834 -58.5 -204.501s-57.667 -119.834 -95 -156.501l104 -42.5l110 -44.5c75.333 -29.333 131.666 -44 168.999 -44c36.667 0 64.667 11.667 84 35
c4.66699 6 8.33398 12.667 11.001 20c10.667 0 16 -8 16 -24c0 -27.333 -12.5 -49.166 -37.5 -65.499s-53.167 -24.5 -84.5 -24.5s-66.666 6.16699 -105.999 18.5s-71 23.833 -95 34.5s-61.833 29.5 -113.5 56.5s-83.834 43.5 -96.501 49.5
c-36.667 -24 -81.167 -36 -133.5 -36s-86.5 14.667 -102.5 44c-4.66699 8 -7 16.833 -7 26.5s6.33301 20.334 19 32.001s35 17.5 67 17.5s82.333 -12.333 151 -37c53.333 60 96 182.667 128 368c12 72 25.333 141.833 40 209.5s35.834 123 63.501 166
s62.834 64.5 105.501 64.5c18.667 0 32.834 -4.66699 42.501 -14s14.5 -18.666 14.5 -27.999l1 -14c-6.66699 6.66699 -18.667 10 -36 10zM596.997 513.998c0 -2.66699 -2.83203 -4.33301 -8.49902 -5s-11.5 0.333008 -17.5 3s-9 6.33398 -9 11.001
c0 68 7.66699 122.833 23 164.5s35.666 62.5 60.999 62.5c6.66699 0 12.334 -2.33301 17.001 -7s7 -11 7 -19c-30.667 -30.667 -52.334 -75.334 -65.001 -134.001c-5.33301 -24 -8 -49.333 -8 -76zM-31.002 -52.001c0 -12 8.50098 -21.499 25.501 -28.499
s39.5 -10.5 67.5 -10.5s56 9.66699 84 29c-58.667 26.667 -104.667 40 -138 40c-20.667 0 -33.334 -7.33301 -38.001 -22c-0.666992 -2.66699 -1 -5.33398 -1 -8.00098z" />
    <glyph glyph-name="M" unicode="M" horiz-adv-x="968" 
d="M790 23c0 -90.667 20.6699 -136.002 62.0029 -136.002c26.667 0 49 19.667 67 59c4 6.66699 10 8.66699 18 6c3.33301 -1.33301 4.16602 -4.16602 2.49902 -8.49902s-4.16699 -9.66602 -7.5 -15.999s-9.33301 -16.166 -18 -29.499c-20 -29.333 -43 -44 -69 -44
c-80.667 0 -121 64 -121 192c0 144 51 369 153 675c2.66699 8 1.16699 12 -4.5 12s-11.834 -3 -18.501 -9c-35.333 -33.333 -71.5 -78 -108.5 -134s-69.5 -112.667 -97.5 -170c-49.333 -99.333 -85.666 -182 -108.999 -248c-31.333 -92.667 -59 -139 -83 -139
c-14 0 -21 7 -21 21c0 0.666992 0.333008 1.33398 1 2.00098c83.333 302 125 491.667 125 569c0 34.667 -7.66699 52 -23 52c-30.667 0 -79 -57.167 -145 -171.5s-115.667 -228.833 -149 -343.5c-40 -138 -75.333 -207 -106 -207c-14 0 -21 7.33301 -21 22
c0.666992 2 2.66699 7.66699 6 17s7.66602 23.166 12.999 41.499l25.5 87c11.667 39.667 21.5 78.167 29.5 115.5c26.667 124 40 213.333 40 268c0 29.333 -2 58.5 -6 87.5s-14 52.5 -30 70.5s-37 27 -63 27c-40.667 0 -69.334 -17 -86.001 -51
c-5.33301 -12 -8 -22.167 -8 -30.5s2.33301 -12.5 7 -12.5c-2 -9.33301 -10 -14 -24 -14s-21 9 -21 27c-0 27.333 13.833 51.666 41.5 72.999s59.167 32 94.5 32s63.5 -8.83301 84.5 -26.5s36.167 -41.167 45.5 -70.5c15.333 -48.667 23 -101.334 23 -158.001
c0 -21.333 -1.33301 -43.333 -4 -66h10c106 214.667 195 322 267 322c41.333 0 62 -35.333 62 -106c0 -34 -7.66699 -93.667 -23 -179h9c122 230 222 345 300 345c30 0 45 -16.667 45 -50c-20.667 -51.333 -43.667 -121.333 -69 -210
c-64 -219.333 -96 -383.666 -96 -492.999z" />
    <glyph glyph-name="N" unicode="N" horiz-adv-x="693" 
d="M528 26c0 -92.667 20.6592 -138.999 61.9922 -138.999c25.333 0 48 19.667 68 59c3.33301 6.66699 9 8.66699 17 6c4 -1.33301 5 -4.16602 3 -8.49902s-4.66699 -9.66602 -8 -15.999s-9.16602 -16 -17.499 -29s-18.666 -23.667 -30.999 -32s-25.166 -12.5 -38.499 -12.5
c-80.667 0 -121 63.667 -121 191c0 131.333 43 335.666 129 612.999l16 51c1.33301 5.33301 -0.166992 8 -4.5 8s-8.5 -1.66699 -12.5 -5c-37.333 -32.667 -77.166 -80.834 -119.499 -144.501s-81.166 -130.834 -116.499 -201.501
c-65.333 -129.333 -112.666 -230.166 -141.999 -302.499s-53.666 -108.5 -72.999 -108.5c-14 0 -21 7.33301 -21 22v2c8 18 23.333 67.667 46 149c40 142 62.667 268.667 68 380c0.666992 8 1 15.333 1 22c0 43.333 -7.66699 81 -23 113s-42.333 48 -81 48
s-66.334 -17.667 -83.001 -53c-5.33301 -11.333 -8 -21 -8 -29s2.33301 -12 7 -12c-1.33301 -9.33301 -9 -14 -23 -14s-21 9 -21 27c0 27.333 13.833 51.666 41.5 72.999s61.834 32 102.501 32c96.667 0 145 -88 145 -264c0 -38 -3.33301 -76.667 -10 -116h9
c154.667 294 274.334 441 359.001 441c30 0 45 -16.667 45 -50c-20.667 -51.333 -43.667 -121.333 -69 -210c-64 -218.667 -96 -382 -96 -490z" />
    <glyph glyph-name="O" unicode="O" horiz-adv-x="684" 
d="M564 468c0 122 -27.668 183 -83.001 183c0 4.66699 2.33301 9 7 13c8.66699 7.33301 19.334 11 32.001 11c44.667 0 74 -34.667 88 -104c6 -28 9 -57.667 9 -89c0 -59.333 -10.333 -125.333 -31 -198c-34.667 -124.667 -87 -217.667 -157 -279
c-48 -42 -99.667 -63 -155 -63c-90 0 -151 45.667 -183 137c-15.333 42.667 -23 90 -23 142s7.33301 108.333 22 169c30 120.667 79 217.334 147 290.001c58.667 62.667 121.667 94 189 94c18.667 0 33 -4.16699 43 -12.5s15 -16.833 15 -25.5l1 -12
c-6.66699 2.66699 -19 4 -37 4c-72 0 -135.833 -46 -191.5 -138s-89.834 -195.667 -102.501 -311c-3.33301 -29.333 -5 -56.333 -5 -81c0 -76 15 -134.333 45 -175c24 -31.333 55.333 -47 94 -47c80.667 0 146.834 55.167 198.501 165.5s77.5 219.166 77.5 326.499z" />
    <glyph glyph-name="P" unicode="P" horiz-adv-x="651" 
d="M648 682c0 40.667 -16.002 61 -48.002 61c-42.667 0 -87.5 -35.833 -134.5 -107.5s-86.833 -152.334 -119.5 -242.001s-59.834 -170.167 -81.501 -241.5s-32.5 -111.333 -32.5 -120s-4.66699 -13 -14 -13c-20 0 -30 26.667 -30 80c0 128.667 14.5 253.667 43.5 375
s61.167 202.333 96.5 243c-95.333 -13.333 -172.666 -47 -231.999 -101c-34 -30 -51 -62.667 -51 -98c0 -17.333 6.66699 -26 20 -26c-2.66699 -9.33301 -10 -14 -22 -14s-22.5 4.66699 -31.5 14s-13.5 22.333 -13.5 39c0 39.333 23.833 75.833 71.5 109.5
s99.167 58.667 154.5 75s102.333 24.5 141 24.5c10.667 0 16 -5.33301 16 -16c-42 -97.333 -81.333 -244.666 -118 -441.999h8c39.333 122.667 85 231 137 325c28 51.333 59 91.833 93 121.5s68.667 44.5 104 44.5c72 0 108 -38.667 108 -116
c0 -46.667 -16.333 -98.667 -49 -156c-41.333 -73.333 -93.333 -125.333 -156 -156c-33.333 -16.667 -66.666 -25 -99.999 -25c-8 0 -14.167 2.33301 -18.5 7s-7.16602 11.334 -8.49902 20.001c62.667 0 122 37.333 178 112c46 60.667 74.333 122.667 85 186
c2.66699 13.333 4 25.666 4 36.999z" />
    <glyph glyph-name="Q" unicode="Q" horiz-adv-x="682" 
d="M643 -181c48.667 0 81.3311 18.332 97.998 54.999c10 0 15 -7 15 -21c0 -28 -15 -51.667 -45 -71c-22.667 -14.667 -48 -22 -76 -22s-53.667 2.33301 -77 7s-51.666 14.334 -84.999 29.001l-69.5 31c-13 6 -41.5 20.833 -85.5 44.5s-67.667 36.167 -71 37.5
c-46.667 -17.333 -97.5 -26 -152.5 -26s-89.833 14.667 -104.5 44c-4 7.33301 -6 15.833 -6 25.5s6.83301 20.5 20.5 32.5s33.5 18 59.5 18c48.667 0 117.667 -18.333 207 -55c97.333 46.667 172.166 125.834 224.499 237.501s78.5 212.167 78.5 301.5
c0 109.333 -26.333 164 -79 164c0 4.66699 2.33301 9 7 13c8.66699 7.33301 19.334 11 32.001 11c62 0 93 -56.667 93 -170c0 -92 -28.167 -196.667 -84.5 -314s-135.5 -203 -237.5 -257c90.667 -38.667 150.334 -63.334 179.001 -74.001
c70.667 -27.333 123.667 -41 159 -41zM392.997 193.999c12.667 30 19 55.166 19 75.499s7.33301 33.666 22 39.999s23.667 4.5 27 -5.5l1 -7c0 -27.333 -9.16699 -60.666 -27.5 -99.999s-45.5 -75.5 -81.5 -108.5s-73.667 -49.5 -113 -49.5c-76.667 0 -126 40 -148 120
c-8.66699 29.333 -13 66.5 -13 111.5s11 101.5 33 169.5c36.667 111.333 89.667 198.333 159 261c55.333 48.667 112.666 73 171.999 73c18.667 0 32.834 -4.16699 42.501 -12.5s14.5 -16.833 14.5 -25.5v-12c-6 2.66699 -18 4 -36 4c-72.667 0 -139 -47.333 -199 -142
c-53.333 -84 -87 -178 -101 -282c-3.33301 -27.333 -5 -52.666 -5 -75.999c0 -60 12.667 -103.667 38 -131c15.333 -16 36 -24 62 -24s51.667 12.667 77 38s44.333 53 57 83zM52.9971 -22.002c-20.667 0 -33.667 -7.33301 -39 -22c-1.33301 -3.33301 -2 -6.33301 -2 -9
c0 -11.333 8.16699 -20.5 24.5 -27.5s40.5 -10.5 72.5 -10.5s66.667 5.66699 104 17c-70.667 34.667 -124 52 -160 52z" />
    <glyph glyph-name="R" unicode="R" horiz-adv-x="732" 
d="M649 682c0 40.667 -16.3359 61.0029 -49.0029 61.0029c-34.667 0 -71.167 -23.833 -109.5 -71.5s-72.166 -105.334 -101.499 -173.001s-56.166 -136.667 -80.499 -207s-43.166 -129.666 -56.499 -177.999s-20 -75.5 -20 -81.5c0 -8.66699 -4.66699 -13 -14 -13
c-20 0 -30 26.667 -30 80c0 128.667 14.5 253.667 43.5 375s61.167 202.333 96.5 243c-95.333 -13.333 -172.666 -47 -231.999 -101c-34 -30 -51 -62.667 -51 -98c0 -17.333 6.66699 -26 20 -26c-2.66699 -9.33301 -10 -14 -22 -14s-22.5 4.66699 -31.5 14
s-13.5 22.333 -13.5 39c0 39.333 23.833 75.833 71.5 109.5s99.167 58.667 154.5 75s102.333 24.5 141 24.5c10.667 0 16 -5.33301 16 -16c-46.667 -108 -86.334 -258.667 -119.001 -452h7c29.333 96.667 59.666 177.167 90.999 241.5s58.666 113 81.999 146
s49.166 60.167 77.499 81.5s56.833 32 85.5 32c58.667 0 93.667 -25.333 105 -76c2.66699 -11.333 4 -23.333 4 -36c0 -40.667 -14 -85 -42 -133c-40 -68.667 -93.667 -116.667 -161 -144l-38 -12c19.333 -2 39.833 -28.167 61.5 -78.5s40.834 -105.333 57.501 -165
s36.667 -114.167 60 -163.5s46.333 -74 69 -74c18 0 31.333 6.33301 40 19c4.66699 0 7 -1.66699 7 -5s-2 -8 -6 -14c-14.667 -20 -32.667 -31 -54 -33c-34.667 0 -68.167 23.667 -100.5 71s-58.5 99.833 -78.5 157.5s-41.167 115.167 -63.5 172.5
s-41.166 92.666 -56.499 105.999c-7.33301 0 -13.166 2.16699 -17.499 6.5s-6.83301 11.166 -7.5 20.499c70.667 0 134 35.333 190 106c50 63.333 75 124.666 75 183.999z" />
    <glyph glyph-name="S" unicode="S" horiz-adv-x="603" 
d="M49 -41c0 -49.333 26 -79.0049 78 -89.0049c10 -2 21.333 -3 34 -3c83.333 0 149.333 26.833 198 80.5s73 121.167 73 202.5c0 32 -5.83301 61.5 -17.5 88.5s-26.167 49.333 -43.5 67s-36.166 35.5 -56.499 53.5l-56.5 49c-17.333 14.667 -31.833 32.334 -43.5 53.001
s-17.5 42.667 -17.5 66c0 61.333 27.5 117.833 82.5 169.5s114.167 77.5 177.5 77.5c12.667 0 22 -4.66699 28 -14s9 -18.666 9 -27.999l-1 -13c-4.66699 2.66699 -16.334 4 -35.001 4c-42.667 0 -84 -20 -124 -60s-60 -86.333 -60 -139
c0 -21.333 5.83301 -42.166 17.5 -62.499s26.167 -38.166 43.5 -53.499l56 -51.5c20 -19 38.667 -37.667 56 -56s31.833 -40.666 43.5 -66.999s17.5 -54.166 17.5 -83.499c0 -80.667 -33.333 -152.334 -100 -215.001s-149 -94 -247 -94c-82.667 0 -135 26.667 -157 80
c-17.333 44 -10.666 92.667 20.001 146s75 89.333 133 108c21.333 6.66699 40.333 10 57 10s28.167 -2.83301 34.5 -8.5s10.5 -14.5 12.5 -26.5c-62.667 0 -116.334 -25.333 -161.001 -76c-34 -38 -51 -76.333 -51 -115zM513 511.995
c0 -3.33301 -3.16797 -5.00098 -9.50098 -5.00098s-12.166 1.33301 -17.499 4s-8 6.33398 -8 11.001c0 68 7.66699 122.667 23 164s35.666 62 60.999 62c6.66699 0 12.334 -2.33301 17.001 -7s7 -10.667 7 -18c-30 -30 -51.667 -75 -65 -135c-5.33301 -24 -8 -49.333 -8 -76
z" />
    <glyph glyph-name="T" unicode="T" horiz-adv-x="591" 
d="M167 511c0 -47.333 13.9971 -73.332 41.9971 -77.999c-2 -9.33301 -9.66699 -14 -23 -14c-27.333 0 -46.666 16.333 -57.999 49c-5.33301 15.333 -8 34 -8 56s8.66699 48.667 26 80c40 72.667 113.333 119.667 220 141c38 7.33301 79.667 11 125 11
s86.5 5.33301 123.5 16s64.333 22.667 82 36s34.334 25.333 50.001 36s28.667 16 39 16s15.5 -4.66699 15.5 -14c0 -22 -21.667 -44.333 -65 -67s-99.666 -37.334 -168.999 -44.001c-28.667 -15.333 -51 -69.666 -67 -162.999l-45 -263
c-12 -68 -26.167 -126.167 -42.5 -174.5s-34.833 -91 -55.5 -128s-47.834 -66.667 -81.501 -89s-73 -33.5 -118 -33.5s-81.5 14.667 -109.5 44c-30.667 32 -46 75.333 -46 130c0 91.333 24.333 161.333 73 210c29.333 29.333 62 44 98 44c8.66699 0 15.834 -2 21.501 -6
s9.5 -10 11.5 -18c-56.667 0 -102.667 -29.333 -138 -88c-26 -43.333 -39 -88.333 -39 -135c0 -76.667 26.333 -123.334 79 -140.001c12 -4 25 -6 39 -6c41.333 0 77.5 17 108.5 51s54.667 77 71 129s32 110.5 47 175.5s27.5 126.833 37.5 185.5s23.5 113.5 40.5 164.5
s36.5 86.833 58.5 107.5h-20c-136.667 0 -232 -38.333 -286 -115c-24.667 -34.667 -37 -70 -37 -106z" />
    <glyph glyph-name="U" unicode="U" horiz-adv-x="767" 
d="M611 36c0 -99.333 17.667 -148.998 53 -148.998c18.667 0 37.667 19.667 57 59c3.33301 6.66699 7.66602 9.16699 12.999 7.5s8 -3.66699 8 -6s-3.33301 -10.833 -10 -25.5s-17.167 -29.667 -31.5 -45s-28.833 -23 -43.5 -23c-69.333 0 -104 69 -104 207
c0 72 6.33301 148.333 19 229h-10c-102 -193.333 -180.667 -290 -236 -290c-67.333 0 -101 40 -101 120c0 32 9.83301 80.5 29.5 145.5l59.5 201.5c20 69.333 30 123 30 161c0 80 -32.667 120 -98 120c-60.667 0 -106 -34.667 -136 -104
c-20 -46.667 -30 -93.334 -30 -140.001c0 -22.667 2.33301 -45.334 7 -68.001c14.667 -69.333 45.667 -104 93 -104c-4.66699 -9.33301 -11 -14 -19 -14c-60 0 -99 38 -117 114c-6 24 -9 48 -9 72c0 51.333 13 103 39 155c38.667 76 95.667 114 171 114
c58 0 100.167 -16.167 126.5 -48.5s39.5 -74.333 39.5 -126s-18.667 -139.334 -56 -263.001s-56 -204.667 -56 -243s13 -57.5 39 -57.5c21.333 0 53.333 32.667 96 98c70 108.667 131.333 226.334 184 353.001c20.667 50 42.334 75 65.001 75c14.667 0 22 -7.66699 22 -23
c-28.667 -68 -51.5 -150.167 -68.5 -246.5s-25.5 -181.5 -25.5 -255.5z" />
    <glyph glyph-name="V" unicode="V" horiz-adv-x="628" 
d="M43 640c-4.66699 -11.333 -7.00195 -21.3301 -7.00195 -29.9971s2.66699 -13 8 -13c-1.33301 -9.33301 -8.66602 -14 -21.999 -14c-16 0 -24 11.667 -24 35s13 45.333 39 66c26.667 20.667 60.834 31 102.501 31s76.334 -15.5 104.001 -46.5s46.667 -68.833 57 -113.5
s15.5 -96 15.5 -154c0 -120.667 -21.667 -260.334 -65 -419.001c-2.66699 -8 0 -12 8 -12c6 0 12 2.66699 18 8c70 64 136.333 173.333 199 328s94 278.667 94 372c0 41.333 -9 62 -27 62c2 9.33301 7 17.166 15 23.499s17.333 9.5 28 9.5c29.333 0 44 -25 44 -75
c0 -72 -22.333 -169.167 -67 -291.5s-100 -232.833 -166 -331.5s-124.333 -148 -175 -148c-34.667 0 -52 16.667 -52 50c18.667 55.333 36 131.166 52 227.499s24 178.5 24 246.5c0 160 -40 240 -120 240c-40.667 0 -68.334 -17 -83.001 -51z" />
    <glyph glyph-name="W" unicode="W" horiz-adv-x="932" 
d="M556 169c0 -89.333 19.998 -133.998 59.998 -133.998c30.667 0 61.834 27 93.501 81s57.834 119.833 78.501 197.5s31.667 151.167 33 220.5c-32.667 26.667 -62.334 61.334 -89.001 104.001s-40 70.167 -40 82.5s5.66699 24.666 17 36.999s23.333 18.5 36 18.5
c28 0 52.5 -20.667 73.5 -62s32.5 -91.333 34.5 -150c24.667 -21.333 46 -32 64 -32s29.667 5.66699 35 17c8 0 12 -5 12 -15c0 -18.667 -10.333 -31 -31 -37l-18 -2c-20.667 0 -41.334 6 -62.001 18c-4 -76 -17 -153.333 -39 -232s-51 -145.167 -87 -199.5
s-73 -81.5 -111 -81.5c-53.333 0 -90.333 26 -111 78c-16.667 42 -25 92.333 -25 151c0 15.333 0.666992 31 2 47c-127.333 -232.667 -229 -349 -305 -349c-32.667 0 -49 15 -49 45v5c79.333 214.667 119 395.667 119 543c0 114 -32.667 171 -98 171
c-41.333 0 -70.333 -17.667 -87 -53c-5.33301 -11.333 -8 -21 -8 -29s2.33301 -12 7 -12c-1.33301 -9.33301 -9 -14 -23 -14s-21 9 -21 27c0 27.333 13.833 51.666 41.5 72.999s61.834 32 102.501 32c100.667 0 151 -77 151 -231c0 -57.333 -6.66699 -121.5 -20 -192.5
s-24.5 -121.667 -33.5 -152l-48.5 -157.5c-2 -7.33301 -0.333008 -11 5 -11c4.66699 0.666992 10.334 3.66699 17.001 9c46.667 40.667 92.667 97.334 138 170.001c65.333 107.333 113.333 205.666 144 294.999c32.667 101.333 64 152 94 152c13.333 0 20 -7 20 -21
c-16 -50.667 -36 -143.334 -60 -278.001c-8 -47.333 -12 -90.333 -12 -129zM751.998 745.002c-2.66699 -1.33301 -3.99707 -4.33301 -3.99707 -9s1.16699 -11.667 3.5 -21s10.166 -26 23.499 -50s28 -45.667 44 -65c-4.66699 41.333 -13.834 75.833 -27.501 103.5
s-26.834 41.5 -39.501 41.5z" />
    <glyph glyph-name="X" unicode="X" horiz-adv-x="649" 
d="M43 640c-4.66699 -11.333 -6.99707 -21.3311 -6.99707 -29.998s2.66699 -13 8 -13c-1.33301 -9.33301 -8.66602 -14 -21.999 -14c-16 0 -24 11.333 -24 34s13.5 44.667 40.5 66s62.833 32 107.5 32c54 0 100.5 -25.5 139.5 -76.5s73.5 -120.833 103.5 -209.5
c96.667 131.333 168.167 221.666 214.5 270.999s86.166 74.333 119.499 75c12 0 21.667 -4 29 -12s11.333 -16 12 -24l2 -12c-50 0 -108.333 -35 -175 -105c-56 -58.667 -119.333 -135 -190 -229c12 -38 25.5 -84.5 40.5 -139.5l38 -139
c10.333 -37.667 21.833 -74.834 34.5 -111.501c26 -74.667 54.333 -112 85 -112c16.667 0 30 6.33301 40 19c6 0 7.33301 -5.66699 4 -17c-6 -21.333 -25.667 -33 -59 -35c-44 0 -82.333 28.667 -115 86c-36.667 64.667 -75 174 -115 328
c-4.66699 18.667 -8.33398 32.667 -11.001 42c-78 -106.667 -129.667 -174 -155 -202s-46.666 -50.667 -63.999 -68c-32.667 -30.667 -61.334 -46 -86.001 -46c-14 0 -25 4 -33 12s-12.333 16 -13 24l-2 12c45.333 0 95.666 26.833 150.999 80.5s119 128.834 191 225.501
c-47.333 169.333 -94 273.666 -140 312.999c-20 17.333 -42 26 -66 26c-40.667 0 -68.334 -17 -83.001 -51z" />
    <glyph glyph-name="Y" unicode="Y" horiz-adv-x="747" 
d="M221 -303c46 0 87.165 12 123.498 36s65.166 50 86.499 78s41.666 71.333 60.999 130s32.5 103.667 39.5 135s14 65.333 21 102s10.833 56.334 11.5 59.001s1.33398 5.83398 2.00098 9.50098l3 16.5c1.33301 7.33301 4 21 8 41h-7
c-93.333 -181.333 -168.666 -272 -225.999 -272c-66.667 0 -100 40 -100 120c0 36 16.667 112.167 50 228.5s50 200.833 50 253.5c0 34 -7.83301 61.5 -23.5 82.5s-40.5 31.5 -74.5 31.5c-60.667 0 -106 -34.667 -136 -104c-20 -46.667 -30 -93.334 -30 -140.001
c0 -22.667 2.33301 -45.334 7 -68.001c14.667 -69.333 45.667 -104 93 -104c-4.66699 -9.33301 -11 -14 -19 -14c-60 0 -99 38 -117 114c-6 24 -9 48 -9 72c0 51.333 13 103 39 155c38.667 76 95.667 114 171 114c58 0 100.167 -16.167 126.5 -48.5s39.5 -74.333 39.5 -126
s-15.5 -134 -46.5 -247s-46.5 -188.667 -46.5 -227s13 -57.5 39 -57.5c22 0 53 31.667 93 95c65.333 100.667 122 210.334 170 329.001c18.667 46.667 39.667 70 63 70c14.667 0 22 -7.66699 22 -23c-23.333 -56.667 -46.666 -151.667 -69.999 -285
c-27.333 -156 -55.666 -267.667 -84.999 -335c-12.667 -29.333 -29.667 -60.833 -51 -94.5s-44.5 -60.334 -69.5 -80.001s-55.333 -36.167 -91 -49.5s-74.5 -20 -116.5 -20c-102 0 -173.667 34.667 -215 104c-19.333 33.333 -29 69 -29 107c0 20.667 3 42 9 64
c15.333 56 44.333 94.333 87 115c18 8.66699 34 13 48 13c22 0 35 -6.33301 39 -19l2 -7c-46 0 -82 -24 -108 -72c-16.667 -31.333 -25 -60 -25 -86c0 -99.333 40 -161.333 120 -186c21.333 -6.66699 45 -10 71 -10z" />
    <glyph glyph-name="Z" unicode="Z" horiz-adv-x="668" 
d="M494 749.5c58.667 -15.667 96.833 -23.501 114.5 -23.501s36.5 8 56.5 24s37.667 24 53 24c6 0 10.833 -3.33301 14.5 -10s5.16699 -12.834 4.5 -18.501s-1 -8.83398 -1 -9.50098c-21.333 0 -46.333 -25.667 -75 -77c-21.333 -37.333 -47.166 -88.166 -77.499 -152.499
l-64.5 -135.5c34.667 1.33301 58 2 70 2c6.66699 0 9.5 -4 8.5 -12s-6 -12 -15 -12s-17 -0.333008 -24 -1s-16 -1.33398 -27 -2.00098s-19.833 -1.33398 -26.5 -2.00098c-84.667 -167.333 -167.334 -281 -248.001 -341c20.667 -9.33301 64.834 -30.666 132.501 -63.999
s120.5 -57.166 158.5 -71.499s67.333 -21.5 88 -21.5s37 1.83301 49 5.5s21.333 8.16699 28 13.5c13.333 10.667 22.333 22.334 27 35.001c10.667 0 16 -8.33301 16 -25c0 -28 -12.333 -50.5 -37 -67.5s-53 -25.5 -85 -25.5s-68 7.33301 -108 22s-72.833 29 -98.5 43
s-64 36.667 -115 68l-98.5 60c-40.667 -21.333 -80.334 -32 -119.001 -32c-56 0 -92 14.667 -108 44c-4.66699 8 -7 16.833 -7 26.5s6.33301 20.334 19 32.001s35.167 17.5 67.5 17.5s81.5 -14 147.5 -42c60.667 51.333 131 155.666 211 312.999c-32 -4 -60.167 -6 -84.5 -6
s-37.833 8 -40.5 24c0.666992 10 4.66699 16 12 18c3.33301 -4 16.666 -6 39.999 -6s53.333 1 90 3l45 89.5l47 93.5c29.333 59.333 56.666 107 81.999 143c-14.667 -3.33301 -30.5 -5 -47.5 -5s-55.167 8 -114.5 24s-104 24 -134 24c-76 0 -129.667 -31.333 -161 -94
c-16 -31.333 -24 -59.833 -24 -85.5s2.33301 -47.834 7 -66.501c12 -45.333 33.667 -71.666 65 -78.999l16 -2c-3.33301 -15.333 -14.333 -23 -33 -23c-39.333 0 -67.666 22.667 -84.999 68c-8 22.667 -12 47.334 -12 74.001s6 56 18 88
c26.667 69.333 74.334 116 143.001 140c31.333 11.333 64.5 17 99.5 17s81.833 -7.83301 140.5 -23.5zM7.99902 8.99902c0 -12 8.33398 -21.499 25.001 -28.499s37.667 -10.5 63 -10.5s52.666 8.66699 81.999 26c-57.333 28 -98.5 42 -123.5 42s-40.167 -7 -45.5 -21
c-0.666992 -2.66699 -1 -5.33398 -1 -8.00098z" />
    <glyph glyph-name="bracketleft" unicode="[" horiz-adv-x="261" 
d="M90 -75c19.333 0 35.499 -2.00098 48.499 -6.00098s20.833 -8 23.5 -12l5 -6h-163c6.66699 49.333 22 190.333 46 423s38.333 375.334 43 428.001h165c-0.666992 -2 -2 -4.33301 -4 -7s-9.16699 -6.16699 -21.5 -10.5s-28.166 -6.5 -47.499 -6.5h-44l-91 -803h40z" />
    <glyph glyph-name="backslash" unicode="\" horiz-adv-x="471" 
d="M206.5 335c44.333 -215.333 69.834 -337.833 76.501 -367.5s10 -51 10 -64s-4.33301 -19.5 -13 -19.5c-6 0 -10.333 6.33301 -13 19c-12 55.333 -43.333 187.333 -94 396l-83.5 344.5c-5 21 -7.5 38.5 -7.5 52.5c0 25.333 8.66699 38 26 38
c3.33301 0 7.16602 -2.16699 11.499 -6.5s8.83301 -17 13.5 -38s29.167 -139.167 73.5 -354.5z" />
    <glyph glyph-name="bracketright" unicode="]" horiz-adv-x="325" 
d="M186 728c-19.333 0 -35.499 2.00098 -48.499 6.00098s-20.833 8 -23.5 12l-5 6h163c-6 -46.667 -21 -183.834 -45 -411.501s-39 -374.167 -45 -439.5h-164c0.666992 2 2 4.33301 4 7s9.16699 6.16699 21.5 10.5s28.166 6.5 47.499 6.5h44l91 803h-40z" />
    <glyph glyph-name="asciicircum" unicode="^" horiz-adv-x="458" 
d="M457 446h-34l-151 141l-235 -141h-35l237 169h49z" />
    <glyph glyph-name="underscore" unicode="_" horiz-adv-x="613" 
d="M465 -68l-449.001 -1c-7.33301 0 -11 2.66699 -11 8c0 16 15.333 25.667 46 29l442 -8c6.66699 0 9.66699 -3.33301 9 -10c-5.33301 -10.667 -17.666 -16.667 -36.999 -18z" />
    <glyph glyph-name="grave" unicode="`" horiz-adv-x="425" 
d="M232 684c24.667 -22.667 48.332 -47.668 70.999 -75.001s34 -44.166 34 -50.499s-3.83301 -9.5 -11.5 -9.5s-23.167 8.5 -46.5 25.5s-48 38.167 -74 63.5c-10 9.33301 -15 17.5 -15 24.5s2 14 6 21s9.33301 10.5 16 10.5s13.334 -3.33301 20.001 -10z" />
    <glyph glyph-name="a" unicode="a" horiz-adv-x="478" 
d="M84 0c-54.667 0 -81.999 42.999 -81.999 128.999c0 51.333 12.667 107.666 38 168.999c35.333 86 81.666 144.667 138.999 176c24.667 13.333 47.667 20 69 20s38.166 -4.66699 50.499 -14s20.166 -18.666 23.499 -27.999l6 -13c-2 -11.333 -7.66699 -17 -17 -17
c-10.667 0 -16.834 2.5 -18.501 7.5s-3.5 9.33301 -5.5 13s-6.66699 8.66699 -14 15s-15.666 9.5 -24.999 9.5c-43.333 0 -82.666 -39 -117.999 -117c-40 -90 -60 -174.667 -60 -254c0 -40 8 -60 24 -60c12.667 0 30.5 14.167 53.5 42.5s47.167 63.833 72.5 106.5
c44 73.333 79.667 137 107 191c22.667 48 46 72 70 72c12.667 0 19 -7.66699 19 -23c-6 -12.667 -13.667 -30.667 -23 -54s-21.666 -69.666 -36.999 -138.999s-23 -138.333 -23 -207s10.333 -103 31 -103c8 0 15.333 3.5 22 10.5s12.667 17.5 18 31.5
c2 7.33301 6.66699 11 14 11c2.66699 0 4.66699 -1 6 -3s1.33301 -5.33301 0 -10s-3.66602 -11.167 -6.99902 -19.5s-10.5 -19.5 -21.5 -33.5s-22.5 -21 -34.5 -21c-28 0 -49.5 18.333 -64.5 55s-22.5 80 -22.5 130s3.66699 98 11 144h-10
c-84.667 -144.667 -148.334 -217 -191.001 -217z" />
    <glyph glyph-name="b" unicode="b" horiz-adv-x="501" 
d="M191 92c0 -40 10.6689 -60.001 32.002 -60.001c27.333 0 57.333 36.667 90 110c38 84 57 162.667 57 236c0 50 -13 75 -39 75s-55.167 -21.167 -87.5 -63.5s-60.5 -89.833 -84.5 -142.5s-44.5 -100.167 -61.5 -142.5s-25.5 -65.833 -25.5 -70.5c0 -10 -5 -15 -15 -15
c-20 0 -30 26.667 -30 80c0 106 10.667 212.5 32 319.5s46.666 192.667 75.999 257s56.666 96.5 81.999 96.5c10.667 0 16 -5.33301 16 -16c-35.333 -78 -65.833 -171.667 -91.5 -281s-44.834 -213 -57.501 -311h7c30.667 78 65.667 148 105 210
c22 34.667 45.5 62.167 70.5 82.5s49.167 30.5 72.5 30.5c47.333 0 76.666 -30.667 87.999 -92c4 -18 6 -37 6 -57c0 -49.333 -10.667 -103 -32 -161c-30 -82.667 -69.333 -137 -118 -163c-16.667 -9.33301 -34 -14 -52 -14c-45.333 0 -68 30 -68 90
c0 32 8.83301 68.833 26.5 110.5s40.834 72.5 69.501 92.5c6 3.33301 11 2 15 -4c0.666992 -3.33301 0.333984 -5.66602 -0.999023 -6.99902c-25.333 -20 -45.333 -49.333 -60 -88s-22 -72.667 -22 -102z" />
    <glyph glyph-name="c" unicode="c" horiz-adv-x="388" 
d="M282 92c8.66699 0 12.999 -2.00098 12.999 -6.00098v-3c-2.66699 -7.33301 -10 -19.166 -22 -35.499s-23.5 -29.5 -34.5 -39.5s-25.167 -19.167 -42.5 -27.5s-35 -12.5 -53 -12.5c-70 0 -114.667 33.667 -134 101c-17.333 62.667 -10.333 134 21 214s75 137.333 131 172
c29.333 18 57.333 27 84 27s46 -7.66699 58 -23c18 58 41 87 69 87c10.667 0 16 -5.66699 16 -17l-20.5 -31.5c-8.33301 -13 -19.5 -36.167 -33.5 -69.5s-21 -62.666 -21 -87.999c0 -8.66699 -3.66699 -13 -11 -13c-8.66699 0 -13.667 7.66699 -15 23
c0 26 2.33301 50.333 7 73c-4 20.667 -18.667 31 -44 31c-48 0 -90.167 -36.333 -126.5 -109s-54.5 -143.667 -54.5 -213c0 -86.667 27.333 -130 82 -130c21.333 0 41.5 6.66699 60.5 20s32.5 26.666 40.5 39.999l13 21c2.66699 6 8.33398 9 17.001 9z" />
    <glyph glyph-name="d" unicode="d" horiz-adv-x="487" 
d="M84 0c-56 0 -84 42.999 -84 128.999c0 50 12.667 105 38 165c34.667 84 80.334 141 137.001 171c24.667 13.333 47 20 67 20s35.333 -3.5 46 -10.5s17.667 -14.167 21 -21.5l5 -11c-2 -11.333 -8 -17 -18 -17s-17.167 5.5 -21.5 16.5s-14.5 16.5 -30.5 16.5
c-43.333 0 -82 -38.333 -116 -115c-39.333 -86.667 -59 -168.667 -59 -246c0 -40.667 8.33301 -61 25 -61c13.333 0 32.833 16.5 58.5 49.5s52.167 73.167 79.5 120.5l99 179c24 104 53.167 194.833 87.5 272.5s62.833 116.5 85.5 116.5c11.333 0 17 -5.66699 17 -17
c-16 -34.667 -34.833 -82 -56.5 -142s-40 -117.167 -55 -171.5s-28.667 -119.166 -41 -194.499s-18.5 -146.333 -18.5 -213c0 -99.333 21.667 -149 65 -149c16.667 0 32.167 7.16699 46.5 21.5s24.5 28.5 30.5 42.5c3.33301 7.33301 9.33301 9.33301 18 6
c3.33301 -1.33301 4.66602 -3.33301 3.99902 -6c-4 -8.66699 -9 -18.667 -15 -30s-17.833 -25.333 -35.5 -42s-35.5 -25 -53.5 -25c-79.333 0 -119 74.667 -119 224c0 52.667 4.66699 109 14 169h-13c-94 -164.667 -163.333 -247 -208 -247z" />
    <glyph glyph-name="e" unicode="e" horiz-adv-x="389" 
d="M261 485c50.667 0 76.002 -29.6699 76.002 -89.0029c0 -34 -11.333 -69.667 -34 -107c-38.667 -62 -90 -93 -154 -93c-10 0 -18.333 1.66699 -25 5s-11.667 8.33301 -15 15c47.333 0 90.666 27.333 129.999 82c32 44 48 84.333 48 121c0 27.333 -11 41 -33 41
c-44 0 -85 -34.333 -123 -103c-40.667 -74.667 -61 -151.334 -61 -230.001c0 -66.667 19 -106.667 57 -120c7.33301 -2.66699 16.666 -4 27.999 -4s23.333 2.83301 36 8.5s23.334 12.5 32.001 20.5c17.333 16 31.666 33.667 42.999 53c2.66699 5.33301 7.66699 8 15 8
c12 0 17.667 -2 17 -6c-2 -7.33301 -9.5 -19.666 -22.5 -36.999s-25 -31.166 -36 -41.499s-25.333 -19.666 -43 -27.999s-35.5 -12.5 -53.5 -12.5c-70.667 0 -115.667 33.333 -135 100c-6 22.667 -9 46 -9 70c0 44.667 10.333 93.334 31 146.001
c32.667 80 77.667 137.667 135 173c31.333 18.667 63.333 28 96 28z" />
    <glyph glyph-name="f" unicode="f" horiz-adv-x="310" 
d="M-42 -313c-34 0 -50.999 20.3301 -50.999 60.9971c0 28.667 9 68 27 118s36 93.333 54 130c32.667 64 56 108 70 132c15.333 143.333 29 246 41 308c-16 -2 -32 -3 -48 -3s-25.667 8.33301 -29 25c0 13.333 4 21 12 23c2.66699 -4 12.334 -6 29.001 -6
s31.667 0.666992 45 2c43.333 199.333 117.333 299 222 299c13.333 0 19.666 -5 18.999 -15c-0.666992 -6.66699 -3 -10 -7 -10c-45.333 0 -81.666 -23.667 -108.999 -71s-49.333 -113.666 -66 -198.999c79.333 6 127.666 9 144.999 9c6 0 8.5 -4 7.5 -12
s-7.83301 -12 -20.5 -12s-59 -6.66699 -139 -20c-8.66699 -49.333 -17.834 -121 -27.501 -215s-17.5 -165.667 -23.5 -215s-13 -92.666 -21 -129.999s-17.667 -71.666 -29 -102.999c-23.333 -64 -57 -96 -101 -96zM-40.999 -284.003c20.667 0 36.333 17.333 47 52
c12 38 20.667 77.667 26 119c8 62 15 125.667 21 191c-50 -106 -80.333 -176 -91 -210c-18 -57.333 -27 -97 -27 -119s8 -33 24 -33zM360 614.997c-8 0 -12.332 6.66699 -12.999 20c0 42 7.16699 80.667 21.5 116s32.166 53 53.499 53c8 0 12 -5 12 -15l-13 -20
c-4 -6 -8.16699 -13 -12.5 -21s-8.83301 -17 -13.5 -27s-9 -20 -13 -30c-8.66699 -22 -13 -43.333 -13 -64c0 -8 -3 -12 -9 -12z" />
    <glyph glyph-name="g" unicode="g" horiz-adv-x="462" 
d="M84 0c-54.667 0 -81.9941 43.002 -81.9941 129.002c0 51.333 12.667 107.666 38 168.999c35.333 86 81.666 144.667 138.999 176c24.667 13.333 47.667 20 69 20s38.166 -4.66699 50.499 -14s20.166 -18.666 23.499 -27.999l6 -13c-2 -11.333 -7.66699 -17 -17 -17
c-10.667 0 -16.834 2.5 -18.501 7.5s-3.5 9.33301 -5.5 13s-6.66699 8.66699 -14 15s-15.666 9.5 -24.999 9.5c-43.333 0 -82.666 -39 -117.999 -117c-40 -90 -60 -174.667 -60 -254c0 -40 8 -60 24 -60c22 0 57.5 38.5 106.5 115.5s93.167 155.833 132.5 236.5
c20 40.667 41 61 63 61c14 0 21 -8 21 -24c-2.66699 -4.66699 -6.66699 -12.334 -12 -23.001s-15 -41.167 -29 -91.5s-26.667 -108 -38 -173s-21 -115.833 -29 -152.5c50.667 -8.66699 80 -30.667 88 -66c1.33301 -6 2 -14.167 2 -24.5s-4 -19.333 -12 -27
s-15 -11.5 -21 -11.5c1.33301 4.66699 1.66602 12.834 0.999023 24.501s-2.83398 21.5 -6.50098 29.5s-10.5 16.333 -20.5 25s-23 15 -39 19c-20.667 -81.333 -50.334 -148.333 -89.001 -201c-44 -59.333 -103.333 -89 -178 -89c-54.667 0 -91 19.333 -109 58
c-0.666992 2 -1 3.66699 -1 5c0 4 3.66699 6.83301 11 8.5s12.333 -0.833008 15 -7.5c12 -27.333 40 -41 84 -41c60 0 106.667 28.333 140 85c30 50 53 112.333 69 187c-120 -2.66699 -212.667 -48.667 -278 -138c-4 -6 -10.333 -7 -19 -3c-4.66699 2.66699 -6 6 -4 10
c28.667 43.333 68.667 80.166 120 110.499s113.666 46.833 186.999 49.5c7.33301 33.333 13.833 68.5 19.5 105.5s10.5 66.167 14.5 87.5s6.66699 36.666 8 45.999h-11c-88 -151.333 -153.333 -227 -196 -227z" />
    <glyph glyph-name="h" unicode="h" horiz-adv-x="456" 
d="M100.5 120c-19.667 -49.333 -29.4971 -78.498 -29.4971 -87.498s-4.66699 -13.5 -14 -13.5c-20 0 -30 26.667 -30 80c0 106 10.667 212.5 32 319.5s46.666 192.667 75.999 257s56.666 96.5 81.999 96.5c10.667 0 16 -5.33301 16 -16c-35.333 -78 -64.833 -167 -88.5 -267
s-43.5 -206.667 -59.5 -320h7c84.667 208 167.667 312 249 312c34 0 51 -16.333 51 -49l-18 -60.5c-7.33301 -25 -17 -69.833 -29 -134.5s-18 -121.334 -18 -170.001c0 -70.667 10.333 -106 31 -106c7.33301 0 14.666 3.16699 21.999 9.5s12.333 9.5 15 9.5
c9.33301 0 9 -7.33301 -1 -22c-2.66699 -4.66699 -8.5 -11 -17.5 -19s-17.833 -12 -26.5 -12c-26 0 -46.167 18.167 -60.5 54.5s-21.5 83.5 -21.5 141.5c0 98 14.667 199 44 303c1.33301 10 -2.66699 14.333 -12 13c-4.66699 -0.666992 -9.33398 -3.33398 -14.001 -8.00098
c-33.333 -30 -67.666 -77 -102.999 -141s-62.833 -120.667 -82.5 -170z" />
    <glyph glyph-name="i" unicode="i" horiz-adv-x="218" 
d="M26 85c0 98.667 10.168 186.667 30.501 264s46.166 116 77.499 116c15.333 0 23 -8.33301 23 -25c-6.66699 -17.333 -15 -40.333 -25 -69s-23.167 -80.5 -39.5 -155.5s-24.5 -141.833 -24.5 -200.5c0 -9.33301 -5 -14 -15 -14c-18 0 -27 28 -27 84zM160.001 559
c-14 0 -21 13.333 -21 40c0 16 4.33301 32.833 13 50.5s21 26.5 37 26.5c13.333 0 20 -7.66699 20 -23s-12.333 -41 -37 -77z" />
    <glyph glyph-name="j" unicode="j" horiz-adv-x="251" 
d="M-42 -313c-34 0 -51.002 20.334 -51.002 61.001c0 28.667 9.83301 69.667 29.5 123s38.834 98.666 57.501 135.999l67 125c15.333 164.667 37 267 65 307c12.667 17.333 27.334 26 44.001 26c15.333 0 23 -8.33301 23 -25c-33.333 -80 -56 -173.667 -68 -281
c-17.333 -156.667 -33.333 -263 -48 -319c-27.333 -102 -67 -153 -119 -153zM-41.002 -283.999c27.333 0 48 35.3359 62 106.003c12 61.333 20.5 118.666 25.5 171.999s7.83301 82.666 8.5 87.999c-50.667 -108 -81.667 -179 -93 -213c-18 -56.667 -27 -96.334 -27 -119.001
s8 -34 24 -34zM196.998 559.004c-14 0 -21 13.333 -21 40c0 16 4.16699 32.833 12.5 50.5s20.5 26.5 36.5 26.5c14 0 21 -7.66699 21 -23c0 -8 -4 -19.833 -12 -35.5s-16 -29.5 -24 -41.5z" />
    <glyph glyph-name="k" unicode="k" horiz-adv-x="456" 
d="M308 311c22 35.333 33.0029 68.501 33.0029 99.501s-9.66699 46.5 -29 46.5c-23.333 0 -49.833 -20.5 -79.5 -61.5s-56 -87.5 -79 -139.5s-42.5 -100.167 -58.5 -144.5s-24 -71.166 -24 -80.499c-0.666992 -8 -5.33398 -12 -14.001 -12c-20 0 -30 26.667 -30 80
c0 106 10.667 212.5 32 319.5s46.666 192.667 75.999 257s56.666 96.5 81.999 96.5c10.667 0 16 -5.33301 16 -16c-35.333 -78 -66 -173 -92 -285c-21.333 -86.667 -39.333 -179.667 -54 -279h8c76 195.333 152 293 228 293c47.333 0 71 -27 71 -81
c0 -34.667 -12.833 -71.334 -38.5 -110.001s-58.167 -64.334 -97.5 -77.001c8 -7.33301 24.333 -53 49 -137c8.66699 -30 20.667 -57.333 36 -82s31.833 -37 49.5 -37s30.834 6.33301 39.501 19c4 0 6 -1.66699 6 -5s-1.66699 -8.33301 -5 -15
c-14.667 -20 -32.667 -31 -54 -33c-27.333 0 -53 14 -77 42s-42.667 58.667 -56 92s-25.833 66.5 -37.5 99.5s-18.834 51.5 -21.501 55.5c-4.66699 3.33301 -7.66699 7.33301 -9 12c52.667 0 96 27.667 130 83z" />
    <glyph glyph-name="l" unicode="l" horiz-adv-x="263" 
d="M147 -146c-38.667 0 -67.166 20.332 -85.499 60.999s-27.5 101.667 -27.5 183s12 177.666 36 288.999s52.167 203.666 84.5 276.999s60.5 110 84.5 110c11.333 0 17 -6.66699 17 -20c-14 -32 -31.667 -80.167 -53 -144.5s-39.166 -123.833 -53.499 -178.5
s-27.333 -118.667 -39 -192s-17.5 -136.166 -17.5 -188.499s5.16699 -92.666 15.5 -120.999s24.5 -42.5 42.5 -42.5c15.333 0 30 7.16699 44 21.5s24 28.5 30 42.5c3.33301 7.33301 9.33301 9.33301 18 6c3.33301 -1.33301 4.16602 -4.16602 2.49902 -8.49902
s-4.33398 -9.83301 -8.00098 -16.5s-10.167 -17 -19.5 -31c-20 -31.333 -43.667 -47 -71 -47z" />
    <glyph glyph-name="m" unicode="m" horiz-adv-x="665" 
d="M245 122c0 82 15 185.667 45 311c2 6.66699 0 9.66699 -6 9c-4.66699 -0.666992 -9 -2.66699 -13 -6c-29.333 -24.667 -61.666 -70.334 -96.999 -137.001s-63.666 -127.5 -84.999 -182.5s-32 -87.167 -32 -96.5c0 -8 -5 -12 -15 -12c-20 0 -30 26.333 -30 79
c0 100 10 190.167 30 270.5s44.333 120.5 73 120.5c12.667 0 19 -7 19 -21c-30.667 -96.667 -52.667 -196 -66 -298h9c88 220 169 330 243 330c32 0 48 -15.667 48 -47c-31.333 -93.333 -54 -185.333 -68 -276h8c22 46.667 44.167 89.167 66.5 127.5s48.5 74 78.5 107
s57 49.5 81 49.5c32 0 48 -15.333 48 -46c-34.667 -115.333 -52 -227.666 -52 -336.999c0 -70.667 10.667 -106 32 -106c7.33301 0 14.666 3.16699 21.999 9.5s12.333 9.5 15 9.5c9.33301 0 9 -7.33301 -1 -22c-2.66699 -4.66699 -8.5 -11 -17.5 -19s-17.833 -12 -26.5 -12
c-26 0 -46.167 18.167 -60.5 54.5s-21.5 83.5 -21.5 141.5c0 102 10.667 191.667 32 269c1.33301 4.66699 -0.333984 7 -5.00098 7c-4 -0.666992 -8 -2.66699 -12 -6c-38 -32.667 -80.333 -93.167 -127 -181.5s-70 -140.5 -70 -156.5c0 -8 -5.33301 -12 -16 -12
c-19.333 0 -29 26.333 -29 79z" />
    <glyph glyph-name="n" unicode="n" horiz-adv-x="448" 
d="M77 162c86 212.667 169.665 319.001 250.998 319.001c34 0 51 -16.333 51 -49l-18 -60.5c-7.33301 -25 -17.166 -69.833 -29.499 -134.5s-18.5 -121.334 -18.5 -170.001c0 -70.667 10.333 -106 31 -106c8 0 15.667 3.16699 23 9.5s12.333 9.5 15 9.5
c9.33301 0 9.33301 -7.33301 0 -22c-3.33301 -4.66699 -9.5 -11 -18.5 -19s-18.167 -12 -27.5 -12c-25.333 0 -45.166 18.167 -59.499 54.5s-21.5 83.5 -21.5 141.5c0 92 14.333 193 43 303c2.66699 8.66699 0 13 -8 13c-5.33301 0 -11.333 -2.66699 -18 -8
c-32 -28 -65.667 -74.333 -101 -139s-63 -122.5 -83 -173.5s-30 -80.667 -30 -89s-4.66699 -12.5 -14 -12.5c-21.333 0 -32 26.333 -32 79c0 99.333 10.167 189.333 30.5 270s44.833 121 73.5 121c12 0 18 -7.33301 18 -22c-30.667 -99.333 -52.667 -200.333 -66 -303h9z
" />
    <glyph glyph-name="o" unicode="o" horiz-adv-x="413" 
d="M122 -9c-82 0 -123.003 56.335 -123.003 169.002c0 63.333 16 126.666 48 189.999c40.667 80 89 120 145 120c8 0 14.667 -2 20 -6s9 -10 11 -18c-42 0 -78.333 -33.667 -109 -101s-46 -133.666 -46 -198.999c0 -79.333 21.667 -119 65 -119
c24.667 0 50.334 18.833 77.001 56.5s48.834 87.167 66.501 148.5s26.5 123 26.5 185v12c-20.667 13.333 -37.667 30 -51 50s-20 34.667 -20 44s4.16699 18.166 12.5 26.499s16.833 12.5 25.5 12.5c12.667 0 25 -11.333 37 -34s20.333 -48.334 25 -77.001
c20.667 -14 38.834 -21 54.501 -21s28.167 2.66699 37.5 8c0 -9.33301 -3.33301 -17.666 -10 -24.999s-17 -11 -31 -11s-30 3.33301 -48 10c-0.666992 -64 -10.334 -128.333 -29.001 -193s-44.667 -118.834 -78 -162.501s-68.666 -65.5 -105.999 -65.5z" />
    <glyph glyph-name="p" unicode="p" horiz-adv-x="484" 
d="M189 92c0 -40 10.665 -59.999 31.998 -59.999c27.333 0 57.333 36.667 90 110c38 84 57 162.667 57 236c0 50 -13.167 75 -39.5 75s-55.166 -20.333 -86.499 -61s-59.166 -87.834 -83.499 -141.501s-45.166 -104.334 -62.499 -152.001s-27.833 -83 -31.5 -106l-8.5 -52
l-9.5 -55.5c-4.33301 -25.333 -8.33301 -44.666 -12 -57.999l-14.5 -50.5c-6 -20.333 -12.167 -36 -18.5 -47s-13.5 -22.167 -21.5 -33.5c-16 -22 -36.333 -33 -61 -33c-32 0 -48 18.333 -48 55c0 65.333 50 188.333 150 369c10 73.333 20.333 132.666 31 177.999
c23.333 107.333 48.166 190.5 74.499 249.5s50.166 88.5 71.499 88.5c10.667 0 16 -6.33301 16 -19c-32 -84.667 -65 -192 -99 -322l-6 -23h13c76 165.333 147.667 248 215 248c62.667 0 94 -49.667 94 -149c0 -72 -18.333 -144 -55 -216
c-40.667 -81.333 -89.334 -122 -146.001 -122c-46 0 -69 30 -69 90c0 32 8.83301 68.833 26.5 110.5s40.834 72.5 69.501 92.5c6 3.33301 11 2 15 -4c0.666992 -3.33301 0.333984 -5.66602 -0.999023 -6.99902c-25.333 -20 -45.333 -49.333 -60 -88s-22 -72.667 -22 -102z
M-102.002 -272.999c0 -20 7.33496 -30 22.002 -30c30 0 52.333 40.667 67 122c5.33301 28 14.666 98.667 27.999 212c-60.667 -117.333 -98.334 -208.333 -113.001 -273c-2.66699 -12 -4 -22.333 -4 -31z" />
    <glyph glyph-name="q" unicode="q" horiz-adv-x="480" 
d="M84 0c-54.667 0 -81.9971 43.001 -81.9971 129.001c0 51.333 12.667 107.666 38 168.999c35.333 86 81.666 144.667 138.999 176c24.667 13.333 47.667 20 69 20s38.166 -4.66699 50.499 -14s20.166 -18.666 23.499 -27.999l6 -13c-2 -11.333 -7.66699 -17 -17 -17
c-10.667 0 -16.834 2.5 -18.501 7.5s-3.5 9.33301 -5.5 13s-6.66699 8.66699 -14 15s-15.666 9.5 -24.999 9.5c-43.333 0 -82.666 -39 -117.999 -117c-40 -90 -60 -174.667 -60 -254c0 -40 8 -60 24 -60c18 0 46.833 29.333 86.5 88s74.834 117.334 105.501 176.001l47 88
c20 40.667 41 61 63 61c14 0 21 -8 21 -24c-8.66699 -18.667 -20.667 -54.5 -36 -107.5s-28 -102.333 -38 -148s-19.167 -101.834 -27.5 -168.501s-12.5 -134.667 -12.5 -204s12.333 -104 37 -104c7.33301 0 14.833 3.16699 22.5 9.5s12.667 9.5 15 9.5
s4.16602 -0.833008 5.49902 -2.5s1.5 -4.16699 0.5 -7.5s-3 -7.33301 -6 -12s-9.16699 -11 -18.5 -19s-18.333 -12 -27 -12c-56 0 -84 64.667 -84 194c0 113.333 12 234.666 36 363.999h-9c-84.667 -144.667 -148.334 -217 -191.001 -217z" />
    <glyph glyph-name="r" unicode="r" horiz-adv-x="383" 
d="M318 287c-25.333 0 -37.999 27.668 -37.999 83.001c0 31.333 6 60.666 18 87.999c-45.333 -39.333 -96 -112.5 -152 -219.5s-84 -176.833 -84 -209.5c0 -8 -5.33301 -12 -16 -12c-19.333 0 -29 26.333 -29 79c0 99.333 10 189.333 30 270s44.333 121 73 121
c12.667 0 19 -7.33301 19 -22c-30.667 -97.333 -52.667 -197 -66 -299h7c54 124.667 113.667 222 179 292c37.333 40 71.333 60 102 60c6.66699 0 12.167 -2 16.5 -6s6.5 -9 6.5 -15c-4.66699 -4.66699 -10.334 -11.667 -17.001 -21s-15.667 -31.5 -27 -66.5
s-17 -73.167 -17 -114.5c0 -5.33301 -1.66699 -8 -5 -8z" />
    <glyph glyph-name="s" unicode="s" horiz-adv-x="379" 
d="M71 34c0 -46.667 15.001 -69.998 45.001 -69.998c28 0 54.167 23 78.5 69s36.5 104 36.5 174c0 34 -6.16699 82 -18.5 144s-18.5 102.5 -18.5 121.5s0.666992 31.5 2 37.5c-8.66699 -14 -33.667 -60.5 -75 -139.5s-78 -141.5 -110 -187.5
c-2.66699 -2.66699 -6.33398 -3.5 -11.001 -2.5s-8.5 3 -11.5 6s-4.5 5.16699 -4.5 6.5s0.333008 2.33301 1 3c31.333 45.333 67.833 107.833 109.5 187.5s76.5 139.167 104.5 178.5s55.667 59 83 59c14 0 21 -6 21 -18c0 -8 -5.66699 -18.667 -17 -32
c-36 -40.667 -54 -82.334 -54 -125.001c0 -25.333 9.66699 -74.166 29 -146.499s29 -124.833 29 -157.5c0 -58.667 -16.333 -108.5 -49 -149.5s-69.667 -61.5 -111 -61.5c-58.667 0 -88 33.667 -88 101c0 50.667 15.5 103.667 46.5 159s62.167 92.666 93.5 111.999
c6 4 9.83301 1.66699 11.5 -7s0.5 -14.334 -3.5 -17.001c-35.333 -20 -66 -62.667 -92 -128c-18 -46 -27 -85 -27 -117z" />
    <glyph glyph-name="t" unicode="t" horiz-adv-x="289" 
d="M59 433c-26 0 -39.0039 10.666 -39.0039 31.999c0 8 3.33301 13 10 15c0.666992 0.666992 1.66699 1 3 1c4 -4.66699 11.5 -7 22.5 -7s28.5 0.666992 52.5 2c31.333 84.667 61.333 127 90 127c11.333 0 17 -6.33301 17 -19c-10.667 -26.667 -22.667 -61 -36 -103
c66 7.33301 109 11 129 11c5.33301 0 8 -2.66699 8 -8c0 -10.667 -7 -16 -21 -16c-7.33301 0 -49.666 -7 -126.999 -21c-52.667 -166.667 -79 -301.667 -79 -405s20.667 -155 62 -155c16.667 0 32.334 7.16699 47.001 21.5s25 28.5 31 42.5
c2.66699 7.33301 8.33398 9.33301 17.001 6c4 -1.33301 5.33301 -3.33301 4 -6c-4 -8.66699 -9 -18.667 -15 -30s-17.667 -25.333 -35 -42s-35 -25 -53 -25c-79.333 0 -119 69 -119 207c0 116.667 21.667 241.334 65 374.001c-9.33301 -1.33301 -20.666 -2 -33.999 -2z" />
    <glyph glyph-name="u" unicode="u" horiz-adv-x="475" 
d="M350 -75c8 0 15.5059 3.50195 22.5059 10.502s13.5 17.833 19.5 32.5c0.666992 6 4.66699 9 12 9s10.166 -3 8.49902 -9s-4.33398 -13.333 -8.00098 -22s-11.334 -20.167 -23.001 -34.5s-23.5 -21.5 -35.5 -21.5c-26.667 0 -47.334 16.667 -62.001 50
c-15.333 33.333 -23 74.5 -23 123.5s3.66699 99.5 11 151.5h-9c-80.667 -140.667 -142.667 -211 -186 -211c-51.333 0 -77 39.167 -77 117.5s16.667 156.5 50 234.5c36.667 86 69 129 97 129c12 0 18 -7.33301 18 -22c-28 -74 -52 -146 -72 -216s-30 -122.167 -30 -156.5
s8 -51.5 24 -51.5c11.333 0 28.166 13.667 50.499 41s45.166 60.666 68.499 99.999c50 84.667 88.167 156.667 114.5 216s53.5 89 81.5 89c13.333 0 20 -7.33301 20 -22c-42.667 -84.667 -73 -185.667 -91 -303c-7.33301 -46.667 -11 -92.334 -11 -137.001
c0 -65.333 10 -98 30 -98z" />
    <glyph glyph-name="v" unicode="v" horiz-adv-x="389" 
d="M316 453c19.333 -14.667 37.834 -21.9961 55.501 -21.9961s30.167 2.33301 37.5 7c0 -8.66699 -3.83301 -16.834 -11.5 -24.501s-18.667 -11.5 -33 -11.5s-29.833 3.33301 -46.5 10c-2 -62.667 -14 -126.834 -36 -192.501s-50.333 -120.667 -85 -165
s-69.167 -66.5 -103.5 -66.5s-58.833 14.167 -73.5 42.5s-22 60.833 -22 97.5c0 44 6.16699 91.167 18.5 141.5s26.833 90.833 43.5 121.5s31.667 46 45 46s20 -7 20 -21c-42 -145.333 -63 -247.333 -63 -306s13 -88 39 -88c22.667 0 48.5 19.667 77.5 59
s54.167 91.166 75.5 155.499s32 127.166 32 188.499v6c-19.333 14 -35 30.667 -47 50s-18 33.833 -18 43.5s4.33301 18.5 13 26.5s18 12 28 12c12 0 23.167 -11.167 33.5 -33.5s17.166 -47.833 20.499 -76.5z" />
    <glyph glyph-name="w" unicode="w" horiz-adv-x="629" 
d="M542 453c19.333 -14.667 37.8311 -21.9971 55.498 -21.9971s30.167 2.33301 37.5 7c0 -8.66699 -3.83301 -16.834 -11.5 -24.501s-18.667 -11.5 -33 -11.5s-29.833 3.33301 -46.5 10c-1.33301 -62.667 -11.666 -126.834 -30.999 -192.501s-44.333 -120.667 -75 -165
s-61 -66.5 -91 -66.5s-53 11.667 -69 35c-16.667 26 -25 63 -25 111c0 27.333 1.66699 56.666 5 87.999c-82.667 -148 -146.167 -222 -190.5 -222s-66.5 37.333 -66.5 112c0 77.333 19 160 57 248c32 70 61.333 106.667 88 110c12.667 0 19 -7 19 -21l-30 -74.5
c-12 -30.333 -27.833 -78.833 -47.5 -145.5s-29.5 -115.834 -29.5 -147.501s7 -47.5 21 -47.5c17.333 0 44.5 28 81.5 84s69.5 112 97.5 168l43 83c18.667 37.333 35.334 56 50.001 56s22 -7 22 -21c-40.667 -139.333 -61 -248.333 -61 -327c0 -36.667 10.667 -55 32 -55
c24 0 49.167 19.833 75.5 59.5s48.333 91.334 66 155.001s26.5 126.5 26.5 188.5v6c-19.333 14 -35 30.667 -47 50s-18 33.833 -18 43.5s4.33301 18.5 13 26.5s18 12 28 12c12.667 0 24 -11.167 34 -33.5s16.667 -47.833 20 -76.5z" />
    <glyph glyph-name="x" unicode="x" horiz-adv-x="401" 
d="M294 -35c-28.667 0 -55.334 19.501 -80.001 58.501s-50 92.5 -76 160.5c-34.667 -54.667 -62.667 -95.834 -84 -123.501s-38.666 -41.5 -51.999 -41.5c-7.33301 0 -12.833 2.16699 -16.5 6.5s-5.5 8.83301 -5.5 13.5v7c4.66699 0 10 3.16699 16 9.5l15.5 16.5
c4.33301 4.66699 9.5 11.167 15.5 19.5l16 22.5l18 26.5l18.5 28l20.5 31.5l21 31l-13 36l-13 36l-11.5 32.5c-4.33301 12.333 -8.16602 22.5 -11.499 30.5l-11 26c-4 9.33301 -7.5 16.833 -10.5 22.5s-6.5 10.834 -10.5 15.501c-6.66699 10 -13 15 -19 15l2.5 10.5
c1 4.33301 5.33301 10.166 13 17.499s17.167 11 28.5 11c16.667 0 33.167 -16 49.5 -48s34.166 -77 53.499 -135c78 109.333 134 164 168 164c8 0 14.5 -2.33301 19.5 -7s8.16699 -11.667 9.5 -21c-24 0 -50.833 -16.167 -80.5 -48.5s-63.5 -77.166 -101.5 -134.499
c38.667 -122.667 65.5 -195.834 80.5 -219.501s27 -35.5 36 -35.5s17.167 3.16699 24.5 9.5s12.333 9.5 15 9.5c9.33301 0 9 -7.33301 -1 -22c-2.66699 -4.66699 -8.5 -11 -17.5 -19s-17.833 -12 -26.5 -12z" />
    <glyph glyph-name="y" unicode="y" horiz-adv-x="465" 
d="M27 -313c60 0 107.003 28.333 141.003 85c29.333 50 52 112.333 68 187c-120.667 -2.66699 -213.334 -48.667 -278.001 -138c-4 -6 -10.333 -7 -19 -3c-4.66699 2.66699 -6 6 -4 10c28.667 43.333 68.667 80.166 120 110.499s113.666 46.833 186.999 49.5
c7.33301 33.333 14.333 72.333 21 117s14.334 88 23.001 130h-9c-86.667 -154 -152.667 -231 -198 -231c-50.667 0 -76 39 -76 117s16.667 156.5 50 235.5s63.666 121.5 90.999 127.5l6 1c11.333 0 17 -7.33301 17 -22l-28 -70.5c-11.333 -29 -26.333 -76.667 -45 -143
s-28 -118 -28 -155s8 -55.5 24 -55.5c18.667 0 48.667 32.333 90 97c60.667 94.667 113.334 190.667 158.001 288c19.333 40.667 40 61 62 61c14 0 21 -7.66699 21 -23c-12.667 -23.333 -28 -67 -46 -131s-32.667 -128.5 -44 -193.5s-21 -115.833 -29 -152.5
c50.667 -8.66699 80 -30.667 88 -66c1.33301 -6 2 -14.167 2 -24.5s-4 -19.333 -12 -27s-15 -11.5 -21 -11.5c1.33301 4.66699 1.66602 12.834 0.999023 24.501s-2.83398 21.5 -6.50098 29.5s-10.5 16.333 -20.5 25s-23 15 -39 19c-51.333 -193.333 -140.333 -290 -267 -290
c-54.667 0 -91 19.333 -109 58c-0.666992 2 -1 3.66699 -1 5c0 4 3.5 6.5 10.5 7.5s12.167 -1.16699 15.5 -6.5c12 -27.333 40 -41 84 -41z" />
    <glyph glyph-name="z" unicode="z" horiz-adv-x="417" 
d="M-11 -336c-52 0 -77.9951 24.998 -77.9951 74.998c0 44 22.5 95.833 67.5 155.5s101.5 102.5 169.5 128.5c3.33301 1.33301 6.66602 0.5 9.99902 -2.5s5 -6.33301 5 -10s-2 -6.5 -6 -8.5c-68.667 -25.333 -126.334 -72 -173.001 -140c-31.333 -46.667 -47 -85 -47 -115
s11.667 -45.333 35 -46c55.333 0 115.666 38 180.999 114c55.333 64 92.666 128 111.999 192c6.66699 22 10 40.333 10 55c0 31.333 -14.667 47 -44 47c-22.667 0 -50.334 -7.5 -83.001 -22.5s-53.667 -22.5 -63 -22.5c-15.333 0 -25 11.333 -29 34l-2 12
c49.333 0 99.333 34 150 102c42.667 58.667 68.667 115.667 78 171c1.33301 10 2 19 2 27c0 32 -13 48.333 -39 49c-26.667 0 -52.834 -10.167 -78.501 -30.5s-46.667 -43.666 -63 -69.999s-29.5 -50.166 -39.5 -71.499s-15 -34.333 -15 -39
s-3.16699 -7.83398 -9.5 -9.50098s-12.666 -0.833984 -18.999 2.49902s-9.5 8.83301 -9.5 16.5s6.33301 23.334 19 47.001s29.167 49.334 49.5 77.001s46 52.167 77 73.5s61.667 32 92 32s53.833 -10 70.5 -30s25 -46 25 -78c0 -86 -44 -167.667 -132 -245
c8 1.33301 14.333 2 19 2c62.667 0 94 -34.667 94 -104c0 -50 -18.667 -107 -56 -171c-46 -78 -102.333 -134.333 -169 -169c-37.333 -18.667 -74.333 -28 -111 -28z" />
    <glyph glyph-name="braceleft" unicode="{" horiz-adv-x="316" 
d="M90 254c0 54.667 -16 81.998 -48 81.998c-3.33301 0 -5 3.66699 -5 11c0 19.333 3.66699 29 11 29c20 0 36.667 10 50 30s23 44.833 29 74.5s13.333 62 22 97s18 67.333 28 97s26.667 54.5 50 74.5s51.666 30 84.999 30c8 0 14.333 -2.16699 19 -6.5
s7.33398 -10.5 8.00098 -18.5c-37.333 0 -66.333 -11.167 -87 -33.5s-34.334 -50.666 -41.001 -84.999s-12 -69.5 -16 -105.5c-10 -92 -36.333 -151 -79 -177c14.667 -14 22 -38.5 22 -73.5s-3.33301 -71.5 -10 -109.5c-11.333 -64.667 -17 -110.667 -17 -138
c0 -67.333 26 -101 78 -101c-1.33301 -13.333 -10 -20 -26 -20c-29.333 0 -51.166 10.5 -65.499 31.5s-21.5 47.167 -21.5 78.5c0 61.333 2.33301 113.333 7 156s7 68.334 7 77.001z" />
    <glyph glyph-name="bar" unicode="|" horiz-adv-x="364" 
d="M138 -124c-7.33301 0 -11 6.66797 -11 20.001c2.66699 209.333 8 456.666 16 741.999c0.666992 55.333 13.334 83 38.001 83c4.66699 0 8.5 -2.5 11.5 -7.5s4.5 -10.833 4.5 -17.5l-39 -762c-0.666992 -38.667 -7.33398 -58 -20.001 -58z" />
    <glyph glyph-name="braceright" unicode="}" horiz-adv-x="321" 
d="M223 435c0 -54.667 16.001 -82.001 48.001 -82.001c3.33301 0 5 -3.5 5 -10.5s-1 -13.5 -3 -19.5s-4.66699 -9 -8 -9c-24 0 -42.833 -13.833 -56.5 -41.5s-24.334 -61.334 -32.001 -101.001s-16.5 -79.167 -26.5 -118.5s-27.333 -72.833 -52 -100.5
s-56.667 -41.5 -96 -41.5c-8 0 -14.333 2.16699 -19 6.5s-7.66699 10.5 -9 18.5c37.333 0 66.333 11.167 87 33.5s34.334 50.666 41.001 84.999s12 69.5 16 105.5c10 92 36.667 150.667 80 176c-14.667 14.667 -22 39.334 -22 74.001s3.33301 71.334 10 110.001
c11.333 64 17 109.667 17 137c0 67.333 -26 101 -78 101c0 4.66699 2.33301 9.33398 7 14.001s10.667 7 18 7c29.333 0 51.166 -10.5 65.499 -31.5s21.5 -47.5 21.5 -79.5c0 -60 -2.33301 -111.5 -7 -154.5s-7 -69.167 -7 -78.5z" />
    <glyph glyph-name="asciitilde" unicode="~" horiz-adv-x="475" 
d="M355 462l-23.999 0.000976562c-13.333 0 -39.833 -4.83301 -79.5 -14.5s-68.5 -14.5 -86.5 -14.5s-35 5.16699 -51 15.5s-27.333 20.833 -34 31.5l-11 15h33c11.333 -14.667 27.666 -22 48.999 -22s52.333 6.33301 93 19s72.667 19 96 19s46 -6.33301 68 -19
s38.333 -25.334 49 -38.001l16 -19h-33c-20.667 18 -49 27 -85 27z" />
    <glyph glyph-name="exclamdown" unicode="&#xa1;" horiz-adv-x="312" 
d="M172 485c16 0 24 -7.66797 24 -23.001c0 -13.333 -7.33301 -38.666 -22 -75.999l-8 -18c-11.333 0 -20 9.66699 -26 29c-3.33301 10 -5 19.833 -5 29.5s1.66699 19.5 5 29.5c5.33301 19.333 16 29 32 29zM180 219.999c0 -64.667 -7.66797 -138.667 -23.001 -222
s-35.833 -156.5 -61.5 -219.5s-51.167 -94.5 -76.5 -94.5c-10.667 0 -16 5.33301 -16 16c26.667 59.333 55.334 155.333 86.001 288s46 225 46 277c0 9.33301 5 14 15 14c20 0 30 -19.667 30 -59z" />
    <glyph glyph-name="cent" unicode="&#xa2;" horiz-adv-x="452" 
d="M128 -192c-7.33301 2.66699 -11.002 9.00293 -11.002 19.0029s7.33301 57 22 141c-68 1.33301 -111.333 35.333 -130 102c-6 22 -9 45 -9 69c0 45.333 10.333 94 31 146c32 80.667 76.333 138 133 172c20.667 12.667 42.334 20.667 65.001 24l13 77
c6.66699 41.333 12.667 75.666 18 102.999c0.666992 6.66699 3.66699 10 9 10c2 0 4 -0.333008 6 -1c12 -4 18 -14.667 18 -32c0 -4.66699 -0.333008 -9 -1 -13l-5 -30c-2.66699 -16 -6 -34 -10 -54l-12 -60c14 -2.66699 25.5 -8.83398 34.5 -18.501
s14.5 -18.834 16.5 -27.501l3 -13h-25c0 6 -3.5 12.333 -10.5 19s-14.833 10.667 -23.5 12c-55.333 -292.667 -83.666 -442.334 -84.999 -449.001c17.333 4.66699 33.5 13.667 48.5 27s25.833 25.333 32.5 36l9 16c2.66699 6 8.33398 9 17.001 9s13 -2 13 -6v-3
c-20 -40.667 -47.667 -71.667 -83 -93c-14 -9.33301 -28.667 -15.666 -44 -18.999c-2.66699 -16 -6.33398 -36 -11.001 -60c-8.66699 -46 -14.334 -78 -17.001 -96c-1.33301 -6 -3.66602 -9 -6.99902 -9c-2 0 -3.66699 0.666992 -5 2zM68.998 135.003
c0 -84.667 25.333 -129.002 76 -133.002l78 447c-43.333 -15.333 -79.833 -56.666 -109.5 -123.999s-44.5 -130.666 -44.5 -189.999z" />
    <glyph glyph-name="sterling" unicode="&#xa3;" horiz-adv-x="727" 
d="M501 312c-33.333 0 -75.001 -1.00293 -125.001 -3.00293c-29.333 -131.333 -70 -222.333 -122 -273c110.667 -41.333 189.667 -62 237 -62c23.333 0 43 4.5 59 13.5s26 17.833 30 26.5l7 14c10.667 0 15.667 -8.66699 15 -26
c-1.33301 -26.667 -14.166 -47.834 -38.499 -63.501s-53 -23.5 -86 -23.5s-67.333 5 -103 15s-63.334 19.667 -83.001 29l-84.5 42c-38 -22 -83.5 -33 -136.5 -33s-87.833 14.667 -104.5 44c-4.66699 8 -7 16.833 -7 26.5s6.33301 20.334 19 32.001s36 17.5 70 17.5
s86.333 -12 157 -36c40 45.333 72.333 130 97 254c-24.667 -1.33301 -54.667 -2 -90 -2c-19.333 0 -30.333 7.33301 -33 22c-0.666992 10 3 15.667 11 17c3.33301 -4.66699 10.666 -7 21.999 -7h95c21.333 114.667 37.333 188.334 48 221.001c31.333 96.667 80 145 146 145
c18.667 0 32.834 -4.66699 42.501 -14s14.5 -18.666 14.5 -27.999l1 -14c-6.66699 6.66699 -17.667 10 -33 10s-28.333 -2.66699 -39 -8s-20 -14.666 -28 -27.999s-14.833 -26 -20.5 -38s-11.334 -29.667 -17.001 -53s-10.167 -42.5 -13.5 -57.5
s-7.66602 -37.5 -12.999 -67.5s-9.66602 -52.667 -12.999 -68h132c6 0 8.5 -4 7.5 -12s-7.83301 -12 -20.5 -12zM582.999 440.997c0 -2.66699 -2.83203 -4.16699 -8.49902 -4.5s-11.5 0.833984 -17.5 3.50098s-9 6.33398 -9 11.001c0 68 7.66699 122.833 23 164.5
s35.666 62.5 60.999 62.5c6.66699 0 12.334 -2.33301 17.001 -7s7 -11 7 -19c-30.667 -30.667 -52.334 -75.334 -65.001 -134.001c-5.33301 -24.667 -8 -50.334 -8 -77.001zM-12 33.9971c0 -11.333 8.16797 -20.666 24.501 -27.999s39.5 -11 69.5 -11s58.667 8.33301 86 25
c-55.333 28.667 -102.333 43 -141 43c-20.667 0 -33.334 -7 -38.001 -21c-0.666992 -2.66699 -1 -5.33398 -1 -8.00098z" />
    <glyph glyph-name="currency" unicode="&#xa4;" horiz-adv-x="565" 
d="M468 470c8.66699 0 12.998 -3.66895 12.998 -11.002c0 -4.66699 -2 -9.33398 -6 -14.001l-69 -69c12.667 -22 19 -48.333 19 -79c0 -59.333 -17.333 -114.666 -52 -165.999l77 -78c7.33301 -6.66699 8 -13.167 2 -19.5s-12.667 -5.83301 -20 1.5l-75 74
c-35.333 -44 -75.166 -66 -119.499 -66s-77.166 14 -98.499 42l-56 -55c-3.33301 -3.33301 -6.66602 -5 -9.99902 -5c-6 0 -9.83301 1.5 -11.5 4.5s-2.5 6.16699 -2.5 9.5s1.66699 6.66602 5 9.99902l61 61c-4.66699 17.333 -7 33.666 -7 48.999
c0 51.333 15.667 96.333 47 135c22.667 28 49 45.333 79 52c4 1.33301 7.16699 0.5 9.5 -2.5s3.33301 -6.5 3 -10.5s-1.83301 -6.33301 -4.5 -7c-25.333 -7.33301 -45.333 -32.333 -60 -75c-10.667 -28.667 -16 -56.667 -16 -84c0 -66.667 19.833 -100 59.5 -100
s72.834 27.667 99.501 83c22.667 46.667 34 93.667 34 141c0 70 -20 105 -60 105c-24.667 0 -47.334 -9.33301 -68.001 -28c-12 -9.33301 -23.333 -12.666 -34 -9.99902c-3.33301 0.666992 -4 2.33398 -2 5.00098l-79 80c-4.66699 4.66699 -6.33398 9.83398 -5.00098 15.501
s4.33301 8.83398 9 9.50098s10 -1.33301 16 -6l78 -78c30 23.333 60.5 35 91.5 35s55.167 -7.66699 72.5 -23l69 69c3.33301 3.33301 7 5 11 5z" />
    <glyph glyph-name="yen" unicode="&#xa5;" horiz-adv-x="585" 
d="M409 4l-57.0029 -0.00292969c-43.333 -70.667 -103.333 -106 -180 -106c-64 0 -105 21.333 -123 64c-5.33301 12.667 -8 26.167 -8 40.5s5.66699 30.333 17 48s28 26.5 50 26.5c12.667 0 20.667 -4.33301 24 -13l1 -4c-28 0 -47 -13.333 -57 -40
c-4 -9.33301 -6 -20.166 -6 -32.499s6.83301 -26.333 20.5 -42s35.834 -23.5 66.501 -23.5c53.333 0 99.333 26.667 138 80h-40c-14 0 -21 5.33301 -21 16c0.666992 6 3 9.33301 7 10c2 -3.33301 10.5 -5 25.5 -5s28.833 -0.333008 41.5 -1
c10.667 18.667 18.334 33 23.001 43c-14.667 -0.666992 -35 -1 -61 -1c-14 0 -21.333 5.33301 -22 16c0.666992 6 3 9.33301 7 10c2 -3.33301 7 -5 15 -5h70c20 48.667 40.667 117.667 62 207h-8c-53.333 -87.333 -104 -131 -152 -131c-45.333 0 -68 27.333 -68 82
c0 34.667 11.5 87.167 34.5 157.5s34.5 123.5 34.5 159.5c0 58 -26.667 87 -80 87c-45.333 0 -81.333 -23 -108 -69c-18.667 -32 -28 -63.667 -28 -95c0 -14.667 2 -29 6 -43c12 -46 42.667 -69 92 -69c-0.666992 -11.333 -9.33398 -17 -26.001 -17
c-47.333 0 -78 23.667 -92 71c-5.33301 16.667 -8 37 -8 61s7.66699 52.333 23 85c31.333 66.667 78.333 100 141 100c42 0 74.5 -13 97.5 -39s34.5 -59.167 34.5 -99.5s-11.167 -95.166 -33.5 -164.499s-33.5 -116.833 -33.5 -142.5s7.33301 -38.5 22 -38.5
c17.333 0 36.666 11.333 57.999 34s41.333 50.334 60 83.001c38 69.333 65.333 129 82 179s35 75 55 75c6.66699 0 11.5 -2 14.5 -6s4.5 -7 4.5 -9s-0.333008 -3.66699 -1 -5c-19.333 -42.667 -41.666 -118.167 -66.999 -226.5s-46.666 -184.5 -63.999 -228.5h40
c5.33301 0 7.33301 -2.66699 6 -8s-8.16602 -8 -20.499 -8s-23.5 -0.333008 -33.5 -1c-5.33301 -14.667 -12.333 -30 -21 -46h54c5.33301 0 7.33301 -2.66699 6 -8s-6 -8 -14 -8z" />
    <glyph glyph-name="brokenbar" unicode="&#xa6;" horiz-adv-x="417" 
d="M136 329l5.99902 261c0.666992 51.333 12.334 77 35.001 77c10 0 15 -8.33301 15 -25c0 -3.33301 -1 -23 -3 -59s-4.16699 -79 -6.5 -129s-4.5 -91.667 -6.5 -125h-40zM136.999 -125c-6.66699 0 -10 6.33301 -10 19c0.666992 46 3 161 7 345h38
c-10 -192 -15.333 -295 -16 -309c-0.666992 -36.667 -7 -55 -19 -55z" />
    <glyph glyph-name="section" unicode="&#xa7;" horiz-adv-x="554" 
d="M19 41c0 -6.66699 1 -13.333 3 -20c8 -24.667 31.667 -37 71 -37c56.667 0 101.667 17.667 135 53s50 80.666 50 135.999c0 48 -18.667 88.667 -56 122l-48 40c-38 30 -57 62.667 -57 98s15.833 69.833 47.5 103.5s67.167 53.834 106.5 60.501v4c0 42 19 80.833 57 116.5
s78.333 53.5 121 53.5c13.333 0 23.333 -3.83301 30 -11.5s10 -15.5 10 -23.5v-12c-6 4.66699 -17.333 7 -34 7c-30 0 -58.5 -12.833 -85.5 -38.5s-40.5 -56.834 -40.5 -93.501c0 -30 19 -61 57 -93l48 -43c37.333 -35.333 56 -75.333 56 -120s-13.667 -85.5 -41 -122.5
s-66 -62.833 -116 -77.5c-6.66699 -50.667 -31.167 -93.667 -73.5 -129s-96 -53 -161 -53s-103.5 21 -115.5 63c-2.66699 9.33301 -4 18.666 -4 27.999c0 26.667 10.333 53.334 31 80.001c33.333 42.667 75 64.334 125 65.001c8 0 14.667 -2.5 20 -7.5s9 -12.5 11 -22.5
c-45.333 0 -84 -19 -116 -57c-20.667 -24.667 -31 -47.667 -31 -69zM232 335.001l45.998 -42.001c38.667 -36 58 -76 58 -120c30.667 14.667 54.334 36.834 71.001 66.501s25 61.167 25 94.5s-6.16699 61 -18.5 83s-26.333 39.333 -42 52l-51 43
c-18.333 16 -31.166 31 -38.499 45c-27.333 -5.33301 -52 -20 -74 -44s-33 -51.667 -33 -83s19 -63 57 -95z" />
    <glyph glyph-name="dieresis" unicode="&#xa8;" horiz-adv-x="450" 
d="M160 559c-14 0 -21 13.333 -21 40c0 16 4.33301 32.833 13 50.5s21 26.5 37 26.5c13.333 0 20 -7.66699 20 -23s-12.333 -41 -37 -77zM303 559c-14 0 -21 13.667 -21 41c0 16 4.16699 32.667 12.5 50s20.5 26 36.5 26c14 0 21 -7.66699 21 -23c0 -8 -4 -19.833 -12 -35.5
s-16 -29.5 -24 -41.5z" />
    <glyph glyph-name="copyright" unicode="&#xa9;" horiz-adv-x="842" 
d="M452 578c84.667 0 154 -29.999 208 -89.999c46.667 -52 70 -113 70 -183c0 -98.667 -38 -182.334 -114 -251.001c-66.667 -60 -142.5 -90 -227.5 -90s-154.167 30 -207.5 90c-46 51.333 -69 112 -69 182c0 99.333 38 183.333 114 252c66 60 141.333 90 226 90z
M133 237.001c0 -64 21.333 -119.667 64 -167c50 -56 114.5 -84 193.5 -84s149.5 28 211.5 84c71.333 64 107 141.667 107 233c0 64.667 -21.667 121 -65 169c-50.667 56 -115.5 84 -194.5 84s-148.833 -28 -209.5 -84c-71.333 -64.667 -107 -143 -107 -235zM481 158.001
c1.33301 5.33301 5.49805 7.99902 12.498 7.99902s10.5 -2 10.5 -6v-2c-1.33301 -2 -3 -5 -5 -9s-6.83301 -10.833 -14.5 -20.5s-15.5 -18.334 -23.5 -26.001s-18.667 -14.5 -32 -20.5s-26.666 -9 -39.999 -9c-56 0 -90.333 28 -103 84c-3.33301 14.667 -5 30 -5 46
c0 40 10.667 82.667 32 128c29.333 62 67.333 102 114 120c14.667 5.33301 29.667 8 45 8s27.333 -5.66699 36 -17c14 42.667 31.667 64 53 64c8 0 12 -4 12 -12c-37.333 -52 -56 -99.333 -56 -142c0 -7.33301 -3 -10.666 -9 -9.99902
c-7.33301 0.666992 -11 9.16699 -11 25.5s0.833008 28.333 2.5 36s2.33398 12 2.00098 13s-1.33301 2.83301 -3 5.5s-3.5 5.33398 -5.5 8.00098c-4.66699 5.33301 -12.667 8 -24 8c-36 0 -67.667 -27.333 -95 -82s-41 -108 -41 -160c0 -65.333 20.667 -98 62 -98
c16 0 31.167 5 45.5 15s24.833 20 31.5 30z" />
    <glyph glyph-name="ordfeminine" unicode="&#xaa;" horiz-adv-x="457" 
d="M133 457c-35.333 0 -52.998 27.667 -52.998 83c0 44.667 13.333 91 40 139c34.667 59.333 74.667 90 120 92c11.333 0 21 -3 29 -9s14.333 -15 19 -27c-0.666992 -7.33301 -5.33398 -11 -14.001 -11c-6 0 -10.333 2.66699 -13 8c-2.66699 12 -10.334 18 -23.001 18
c-25.333 0 -49 -23 -71 -69c-25.333 -53.333 -38 -104 -38 -152c0 -25.333 4 -40.666 12 -45.999c9.33301 0 26.5 18.5 51.5 55.5s47.5 73.833 67.5 110.5l30 55c12.667 24.667 25.167 37 37.5 37s18.5 -5 18.5 -15c-12.667 -25.333 -24.5 -63 -35.5 -113
s-16.5 -91.333 -16.5 -124s1.16699 -53.667 3.5 -63s6.83301 -14 13.5 -14c8.66699 0 15.667 7.33301 21 22c1.33301 4.66699 4.5 7 9.5 7s7.5 -1.66699 7.5 -5v-2c-10.667 -32 -24 -48 -40 -48c-18 0 -31.833 11.5 -41.5 34.5s-14.5 51.667 -14.5 86
s2.33301 65.166 7 92.499h-5c-56 -94.667 -96.667 -142 -122 -142z" />
    <glyph glyph-name="guillemotleft" unicode="&#xab;" horiz-adv-x="610" 
d="M206 61c-114 130.667 -171 200.667 -171 210c0 4.66699 3 9 9 13l228 145v-32l-179 -137l113 -165v-34zM251 263c-2 3.33301 -3 6.66699 -3 10s2.66699 7 8 11l229 145v-32l-179 -137l112 -165v-34c-85.333 98.667 -141 166 -167 202z" />
    <glyph glyph-name="logicalnot" unicode="&#xac;" horiz-adv-x="815" 
d="M675 381c16.667 0 28.167 -3.66699 34.5 -11s9.5 -13.833 9.5 -19.5s-1 -11.167 -3 -16.5l-105 -243h-32l71 233l-588 12v27l609 18h4z" />
    <glyph glyph-name="uni00AD" unicode="&#xad;" horiz-adv-x="495" 
d="M377 254l-282 -1.99902c-6.66699 0 -10 2 -10 6c0 1.33301 0.333008 2.66602 1 3.99902c3.33301 11.333 18 17 44 17l276 -8c6 0 9 -1.66699 9 -5c-4 -7.33301 -16.667 -11.333 -38 -12z" />
    <glyph glyph-name="registered" unicode="&#xae;" horiz-adv-x="449" 
d="M246.5 773c40.333 0 72.334 -13.165 96.001 -39.498s35.5 -56.5 35.5 -90.5c0 -46.667 -17 -85.167 -51 -115.5s-71 -45.5 -111 -45.5s-71.667 13.167 -95 39.5s-35 56.166 -35 89.499c0 47.333 16.667 86.166 50 116.499s70.166 45.5 110.499 45.5zM277.001 682.002
c6.66699 12 10.002 22 10.002 30s-3.66699 12 -11 12c-18.667 0 -38.334 -25.5 -59.001 -76.5s-31 -82.5 -31 -94.5c0 -2.66699 -1.33301 -4 -4 -4c-6 0 -9 6.33301 -9 19c0 32.667 3 63.167 9 91.5s13.667 47.833 23 58.5c-15.333 -2.66699 -29.666 -8 -42.999 -16
s-20 -18 -20 -30c0 -3.33301 1.66699 -5 5 -5c-0.666992 -4.66699 -2.66699 -7 -6 -7c-8 0 -12 5.83301 -12 17.5s10.833 22.5 32.5 32.5s37.167 15 46.5 15s14 -1 14 -3c-9.33301 -23.333 -16 -45.333 -20 -66s-6.33301 -32 -7 -34h3c24.667 74 51 111 79 111
c18.667 0 28 -10.167 28 -30.5s-11 -38.5 -33 -54.5c-8.66699 -6.66699 -18 -11 -28 -13c6.66699 0 13.167 -8.33301 19.5 -25s12.666 -34.667 18.999 -54s12.166 -31.333 17.499 -36c38 26 60 61.667 66 107c0.666992 4.66699 1 9.33398 1 14.001
c0 31.333 -11 59.166 -33 83.499s-51.5 36.5 -88.5 36.5s-69.5 -13 -97.5 -39c-33.333 -30 -50 -67 -50 -111c0 -30 10.667 -57 32 -81s50.333 -36 87 -36c25.333 0 49 6.33301 71 19c-12 7.33301 -23.833 28.5 -35.5 63.5s-19.5 54.167 -23.5 57.5c-4 0 -6 2 -6 6v2
c22 0 40 13.333 54 40z" />
    <glyph glyph-name="degree" unicode="&#xb0;" horiz-adv-x="354" 
d="M119.5 642.5c17.667 17.667 39.667 26.5 66 26.5s48.5 -8.66699 66.5 -26s27 -39 27 -65s-9 -47.833 -27 -65.5s-40.167 -26.5 -66.5 -26.5s-48.333 9 -66 27s-26.5 39.667 -26.5 65s8.83301 46.833 26.5 64.5zM140.5 534.5c12.333 -12.333 26.999 -18.5 43.999 -18.5
s31.667 6.16699 44 18.5s18.5 27 18.5 44s-6.16699 31.667 -18.5 44s-27.166 18.5 -44.499 18.5s-32 -6.16699 -44 -18.5s-18 -27 -18 -44s6.16699 -31.667 18.5 -44z" />
    <glyph glyph-name="plusminus" unicode="&#xb1;" horiz-adv-x="583" 
d="M249 206c-10.667 0 -15.999 9.33301 -15.999 28s2 39.667 6 63c-39.333 -1.33301 -87 -2 -143 -2c-19.333 0 -30.333 6.66699 -33 20c0.666992 10 4.66699 16 12 18c2.66699 -4 9.66699 -6 21 -6h148c10 40.667 22.333 77 37 109s28 48 40 48c8 0 12 -3.66699 12 -11
c-14 -29.333 -30 -78 -48 -146h156c5.33301 0 8 -2.66699 8 -8c0 -10.667 -7.83301 -16 -23.5 -16s-64.834 -1.33301 -147.501 -4l-18 -83c0 -6.66699 -3.66699 -10 -11 -10zM428.001 153l-332 -8c-19.333 0 -30.333 6.66699 -33 20c0.666992 10 4.66699 16 12 18
c2.66699 -4 9.66699 -6 21 -6h345c5.33301 0 8 -2.66699 8 -8c0 -10.667 -7 -16 -21 -16z" />
    <glyph glyph-name="twosuperior" unicode="&#xb2;" horiz-adv-x="279" 
d="M50 522c10 0 27.999 12.1689 53.999 36.502s50.5 53.166 73.5 86.499s34.5 60.333 34.5 81c0 19.333 -12.167 29 -36.5 29s-44.166 -13.333 -59.499 -40c-10 -17.333 -11 -28.333 -3 -33c1.33301 -0.666992 2.66602 -1 3.99902 -1c-2 -17.333 -9.16699 -26 -21.5 -26
s-18.5 6.33301 -18.5 19c0 4 0.666992 8.33301 2 13c6 27.333 22.333 50.333 49 69c19.333 13.333 39.333 20 60 20c44.667 0 67 -18.667 67 -56c0 -29.333 -18.167 -63.833 -54.5 -103.5s-73.5 -71.834 -111.5 -96.501c58.667 -5.33301 93.334 -8 104.001 -8s20 2 28 6
s13 8 15 12l3 6c6.66699 0 9 -6.33301 7 -19c-3.33301 -20.667 -16 -33.667 -38 -39l-22 -3c-21.333 0 -47 4.33301 -77 13s-49.667 13 -59 13c-2.66699 0 -4 3.5 -4 10.5s1.33301 10.5 4 10.5z" />
    <glyph glyph-name="threesuperior" unicode="&#xb3;" horiz-adv-x="290" 
d="M176 634c42.667 -11.333 64 -38.666 64 -81.999c0 -28 -12.5 -55.667 -37.5 -83s-58.833 -41 -101.5 -41c-16.667 0 -31 2.33301 -43 7c-20 8 -30 18 -30 30c0 5.33301 2 10.166 6 14.499s10 8.16602 18 11.499c0 -30 16.333 -45 49 -45s57.667 14.667 75 44
c11.333 18.667 17 35.334 17 50.001c0 55.333 -23.333 83 -70 83c0.666992 10.667 6.66699 16 18 16s25.666 10.333 42.999 31s26 41 26 61c0 16.667 -10.833 25 -32.5 25s-38.167 -9.66699 -49.5 -29c-7.33301 -14 -7 -22.667 1 -26l5 -1
c-2.66699 -14 -10.167 -21 -22.5 -21s-18.5 6 -18.5 18c0 24 15 45 45 63c16.667 10 34.334 15 53.001 15c40.667 0 61 -16.333 61 -49c0 -22.667 -12 -45 -36 -67c-12 -10.667 -25.333 -19 -40 -25z" />
    <glyph glyph-name="acute" unicode="&#xb4;" horiz-adv-x="445" 
d="M382 653c-20 -24 -42.333 -46.998 -67 -68.998s-40.167 -33 -46.5 -33s-9.5 3.16699 -9.5 9.5s7.66699 21.666 23 45.999s33.333 48.166 54 71.499c8.66699 10 16.5 15 23.5 15s13.5 -1.5 19.5 -4.5s9 -7.66699 9 -14s-2 -13.5 -6 -21.5z" />
    <glyph glyph-name="mu" unicode="&#xb5;" horiz-adv-x="475" 
d="M-28 -288c-34 0 -50.999 32.999 -50.999 98.999c0 57.333 12.333 139 37 245c21.333 88.667 44 166.667 68 234c46 130 86.333 195 121 195c12 0 18 -7.33301 18 -22c-28 -74 -52 -146 -72 -216s-30 -122.167 -30 -156.5s8 -51.5 24 -51.5c23.333 0 60.333 42 111 126
s90.667 158.333 120 223s57.333 97 84 97c13.333 0 20 -7.33301 20 -22c-17.333 -27.333 -38.333 -85 -63 -173s-37 -158.667 -37 -212s10.667 -80 32 -80c8.66699 0 16.5 3.66699 23.5 11s13.167 18 18.5 32c1.33301 6 4.66602 9 9.99902 9c8.66699 0 12.667 -2 12 -6
c-4 -17.333 -13.167 -35.166 -27.5 -53.499s-27.5 -27.5 -39.5 -27.5c-58.667 0 -88 54 -88 162c0 25.333 3 56 9 92h-8c-80.667 -142 -143 -213 -187 -213c-34 0 -57 19 -69 57c-19.333 -90 -29 -166.333 -29 -229s10 -94 30 -94c0 -6.66699 -3.66699 -12.667 -11 -18
s-16 -8 -26 -8z" />
    <glyph glyph-name="paragraph" unicode="&#xb6;" horiz-adv-x="698" 
d="M206 -101c-90 0 -150.333 27.667 -181 83c-12 21.333 -18 42.166 -18 62.499s4 39.833 12 58.5c19.333 42.667 49.333 64 90 64c11.333 0 20.666 -5.66699 27.999 -17c-30 0 -53.333 -16.667 -70 -50c-9.33301 -19.333 -14 -38 -14 -56s4.33301 -35.333 13 -52
c22.667 -45.333 69.334 -68 140.001 -68c52.667 0 97.334 14 134.001 42s64 63.667 82 107s33.667 93.333 47 150s23 111.167 29 163.5s15.167 104.5 27.5 156.5s27.166 92 44.499 120c-47.333 18 -84.666 27 -111.999 27c-64.667 0 -118.334 -32.667 -161.001 -98
c-35.333 -52.667 -53 -108.667 -53 -168c0 -67.333 22 -109.666 66 -126.999c12 -4.66699 25 -7 39 -7c-2 -10 -9.33301 -15 -22 -15c-66.667 0 -113.667 28.333 -141 85c-13.333 28 -20 56.833 -20 86.5s5.33301 59.5 16 89.5c24 69.333 67.667 119.333 131 150
c36.667 18 77.334 27 122.001 27s94 -10.667 148 -32c1.33301 2 3.66602 4.66699 6.99902 8c22 82.667 53.667 124 95 124c8.66699 0 14.334 -4 17.001 -12l2 -4c-34.667 0 -62 -27.333 -82 -82c14.667 8 32.667 12 54 12c30.667 0 49 -10.333 55 -31
c1.33301 -4.66699 2 -9 2 -13c0 -13.333 -6.66699 -24.666 -20 -33.999s-28.166 -14 -44.499 -14s-37.5 4.66699 -63.5 14c-9.33301 -48.667 -18.666 -133.667 -27.999 -255s-18.333 -209.333 -27 -264c-17.333 -118 -53.666 -177 -108.999 -177
c-6.66699 0 -11.334 2.16699 -14.001 6.5s-3.33398 10.833 -2.00098 19.5c41.333 0 71 51 89 153c8.66699 48.667 15.334 98 20.001 148c18 176 31 286.333 39 331c-16.667 -42 -29.334 -95 -38.001 -159s-16.834 -117 -24.501 -159s-15.834 -81.333 -24.501 -118
s-21 -72.167 -37 -106.5s-34.333 -63.833 -55 -88.5s-47 -44.334 -79 -59.001s-68.333 -22 -109 -22zM676 706c-26 0 -47.667 -9.66699 -65 -29l-1 -8c22 -8 40.667 -12 56 -12c24.667 0 39 7.33301 43 22c0.666992 2 1 4 1 6c0 8.66699 -6 15 -18 19
c-4.66699 1.33301 -10 2 -16 2z" />
    <glyph glyph-name="periodcentered" unicode="&#xb7;" horiz-adv-x="302" 
d="M123 240c-14 0 -21 13.333 -21 40c0 16 4.16699 33 12.5 51s20.5 27 36.5 27c14 0 21 -7.66699 21 -23c0 -16 -12 -41.667 -36 -77z" />
    <glyph glyph-name="cedilla" unicode="&#xb8;" horiz-adv-x="254" 
d="M44 -92c0 14.667 16.9971 46.333 50.9971 95h22l-46 -82c17.333 8.66699 37 13 59 13c33.333 0 53.333 -12.667 60 -38c0.666992 -4.66699 1 -9.66699 1 -15c0 -19.333 -11.167 -39.166 -33.5 -59.499s-53.833 -30.5 -94.5 -30.5s-61 13 -61 39
c0 10 4.66699 17.333 14 22c2.66699 1.33301 6 2 10 2c6.66699 0 11.334 -4 14.001 -12c-9.33301 0 -14.666 -5 -15.999 -15c-1.33301 -15.333 10.334 -23 35.001 -23c40 0 69 14.667 87 44c7.33301 12 11 22.5 11 31.5s-3.16699 17.167 -9.5 24.5s-15.5 11 -27.5 11
s-22.333 -1.16699 -31 -3.5s-16 -4.83301 -22 -7.5s-10 -4.33398 -12 -5.00098h-2c-6 0 -9 3 -9 9z" />
    <glyph glyph-name="onesuperior" unicode="&#xb9;" horiz-adv-x="244" 
d="M206 773c5.33301 0 8.00098 -2.33398 8.00098 -7.00098c-16.667 -12 -31 -53.5 -43 -124.5s-18 -125.833 -18 -164.5c0 -4 -3 -6 -9 -6c-12.667 0 -19 12.333 -19 37c0 52 4.66699 101.167 14 147.5s21.666 79.5 36.999 99.5c-26 -10 -49.667 -27.667 -71 -53
s-32 -50.333 -32 -75c0 -14 6 -21 18 -21c0 -10 -5.5 -15 -16.5 -15s-19.5 3.83301 -25.5 11.5s-9 16.834 -9 27.501c0 32 18.833 63.833 56.5 95.5s74.167 47.5 109.5 47.5z" />
    <glyph glyph-name="ordmasculine" unicode="&#xba;" horiz-adv-x="311" 
d="M111 453c-50.667 0 -76.0029 34.665 -76.0029 103.998c0 37.333 9.66699 74.666 29 111.999c24 48 53.333 72 88 72c6.66699 0 11.834 -1.5 15.501 -4.5s5.83398 -7.16699 6.50098 -12.5c-24.667 0 -46.167 -19.833 -64.5 -59.5s-27.5 -80.5 -27.5 -122.5
s12.667 -63 38 -63c22.667 0 45 24.333 67 73s33 100.334 33 155.001v8c-12 8 -21.833 17.667 -29.5 29s-11.5 19.833 -11.5 25.5s2.33301 10.834 7 15.501s10.5 7 17.5 7s14 -6.66699 21 -20s11.833 -28.666 14.5 -45.999c11.333 -6.66699 21.5 -10 30.5 -10
s15.833 1.66699 20.5 5c0 -14.667 -6.66699 -22 -20 -22c-11.333 0 -21 1.33301 -29 4c-1.33301 -59.333 -14.666 -115.833 -39.999 -169.5s-55.333 -80.5 -90 -80.5z" />
    <glyph glyph-name="guillemotright" unicode="&#xbb;" horiz-adv-x="578" 
d="M497 226c1.33301 -2.66699 2 -5.66699 2 -9s-2.66699 -7 -8 -11l-228 -145v32l178 137l-112 164v35c85.333 -99.333 141.333 -167 168 -203zM284 226c2 -2.66699 3 -5.66699 3 -9s-2.66699 -7 -8 -11l-229 -145v32l179 137l-112 164v35c85.333 -99.333 141 -167 167 -203
z" />
    <glyph glyph-name="onequarter" unicode="&#xbc;" horiz-adv-x="988" 
d="M829 194c16.667 0 25.0029 -11.665 25.0029 -34.998s-10.667 -44.333 -32 -63s-51.333 -29 -90 -31c-6.66699 -42.667 -10 -80.334 -10 -113.001c0 -6.66699 -3.66699 -10 -11 -10c-18.667 0 -28 20.333 -28 61c0 27.333 0.333008 48 1 62
c-35.333 1.33301 -87.666 6 -156.999 14c-13.333 -6.66699 -26.333 -10 -39 -10c-27.333 0 -42 6.66699 -44 20c-1.33301 10.667 5.66699 18.334 21 23.001c5.33301 2 11.666 3 18.999 3h10c33.333 37.333 57 112.333 71 225c2 18 3 38 3 60s-4 33 -12 33v1
c0 10.667 6.33301 16 19 16c17.333 0 29.666 -21.667 36.999 -65c3.33301 -19.333 5 -41.333 5 -66s-2.33301 -52.334 -7 -83.001c-9.33301 -56.667 -26.333 -100 -51 -130c67.333 -9.33301 109.333 -14.333 126 -15c5.33301 72 14.666 128.833 27.999 170.5
s27.166 70.5 41.499 86.5s30.5 24 48.5 24c8 0 12 -4 12 -12c-30.667 -40.667 -57.334 -130.334 -80.001 -269.001c40.667 4 66 20.333 76 49c6 17.333 5.33301 28.333 -2 33c-1.33301 0.666992 -2.66602 1 -3.99902 1c2 13.333 10 20 24 20zM315.003 713.002
c12 0 18 -4.00195 18 -12.002c-26.667 -30 -51.667 -101.167 -75 -213.5s-35 -195.166 -35 -248.499c0 -6.66699 -3.66699 -10 -11 -10c-18.667 0 -28 19.667 -28 59c0 84 7.66699 162.833 23 236.5s35.333 126.834 60 159.501c-41.333 -16.667 -79.333 -45.667 -114 -87
s-52 -81.333 -52 -120c0 -22 6.66699 -33 20 -33c0 -14.667 -7.16699 -22 -21.5 -22s-25.5 5.66699 -33.5 17s-12 26 -12 44c0 49.333 31.5 100 94.5 152s118.5 78 166.5 78zM190.003 -89c-8 0 -12 5.33301 -12 16s8.16699 32.667 24.5 66s72.333 155 168 365
s147.667 323.5 156 340.5s18.5 25.5 30.5 25.5s18 -8.66699 18 -26c0 -18.667 -5.66699 -39.5 -17 -62.5l-98 -193.5c-128.667 -255.333 -213.334 -427 -254.001 -515c-5.33301 -10.667 -10.666 -16 -15.999 -16z" />
    <glyph glyph-name="onehalf" unicode="&#xbd;" horiz-adv-x="926" 
d="M565 340c-12.667 -20 -19.001 -37.502 -19.001 -52.502s5.33301 -22.833 16 -23.5c0 -8.66699 -3 -16.5 -9 -23.5s-13.667 -10.5 -23 -10.5c-20.667 0 -31 11.333 -31 34c0 36.667 18.667 73.667 56 111s80 56 128 56c72.667 0 109 -30.667 109 -92
c0 -26.667 -10.333 -57.167 -31 -91.5s-46.334 -67.166 -77.001 -98.499c-65.333 -66.667 -125.666 -116.334 -180.999 -149.001c2 0 27.333 -1.66699 76 -5s83.834 -5 105.501 -5s38.834 3.33301 51.501 10s20.667 13.334 24 20.001l5 10c9.33301 0 13 -8 11 -24
c-2 -25.333 -16 -44.666 -42 -57.999c-15.333 -7.33301 -37 -11 -65 -11s-67 7 -117 21s-82.333 21 -97 21c-2 0 -3.5 1.83301 -4.5 5.5s-0.833008 7.33398 0.5 11.001s3 5.5 5 5.5c13.333 0 41.833 21 85.5 63s85.5 91.667 125.5 149s60 102.666 60 135.999
c0 35.333 -20.833 53 -62.5 53s-74.834 -20.667 -99.501 -62zM314.999 712.998c12 0 18 -4.00195 18 -12.002c-26.667 -30 -51.667 -101.167 -75 -213.5s-35 -195.166 -35 -248.499c0 -6.66699 -3.66699 -10 -11 -10c-18.667 0 -28 19.667 -28 59
c0 84 7.66699 162.833 23 236.5s35.333 126.834 60 159.501c-41.333 -16.667 -79.333 -45.667 -114 -87s-52 -81.333 -52 -120c0 -22 6.66699 -33 20 -33c0 -14.667 -7.16699 -22 -21.5 -22s-25.5 5.66699 -33.5 17s-12 26 -12 44c0 49.333 31.5 100 94.5 152
s118.5 78 166.5 78zM189.999 -89.0039c-8 0 -12 5.33301 -12 16s8.16699 32.667 24.5 66s72.333 155 168 365s147.667 323.5 156 340.5s18.5 25.5 30.5 25.5s18 -8.66699 18 -26c0 -18.667 -5.66699 -39.5 -17 -62.5l-98 -193.5
c-128.667 -255.333 -213.334 -427 -254.001 -515c-5.33301 -10.667 -10.666 -16 -15.999 -16z" />
    <glyph glyph-name="threequarters" unicode="&#xbe;" horiz-adv-x="1032" 
d="M873 194c17.333 0 26 -11.6689 26 -35.002s-11 -44.333 -33 -63s-52 -29 -90 -31c-6.66699 -50 -10 -87.667 -10 -113c0 -6.66699 -3.33301 -10 -10 -10c-19.333 0 -29 20.333 -29 61c0 27.333 0.333008 48 1 62c-32.667 1.33301 -85 6 -157 14
c-12 -6.66699 -26.333 -10 -43 -10s-28.5 3.83301 -35.5 11.5s-6.66699 15.334 1 23.001s19.5 11.5 35.5 11.5h9c34 35.333 58 110.333 72 225c2 18 3 38 3 60s-4 33 -12 33v3c0 9.33301 6 14 18 14c18 0 30.667 -21.667 38 -65c3.33301 -19.333 5 -41.166 5 -65.499
s-2.66699 -52.166 -8 -83.499c-9.33301 -56.667 -26.333 -100 -51 -130c66.667 -9.33301 109 -14.333 127 -15c6 78.667 18.5 145.167 37.5 199.5s45.5 81.5 79.5 81.5c8.66699 0 13 -4 13 -12c-30.667 -40.667 -57.334 -130.334 -80.001 -269.001c40 4 65.333 20.333 76 49
c6 17.333 5 28.333 -3 33c-1.33301 0.666992 -2.66602 1 -3.99902 1c2.66699 13.333 10.667 20 24 20zM222 500.998c64 -18 96.0029 -58.999 96.0029 -122.999c0 -41.333 -16.667 -80.666 -50 -117.999c-40.667 -44.667 -93.667 -67 -159 -67c-36 0 -63 6.33301 -81 19
s-27 23.667 -27 33c0 14.667 7.33301 26.334 22 35.001l7 4c0 -15.333 6.16699 -30.5 18.5 -45.5s32.5 -22.5 60.5 -22.5c52 0 92.333 23.333 121 70c16.667 28 25 56 25 84c0 13.333 -1.66699 26.666 -5 39.999c-14.667 50 -50.667 75 -108 75
c1.33301 15.333 8.66602 23 21.999 23c22 0 46.833 15.5 74.5 46.5s41.5 61.833 41.5 92.5c0 26 -17.167 39 -51.5 39s-60.166 -14.333 -77.499 -43c-6 -10.667 -9 -19.334 -9 -26.001s1.5 -11.334 4.5 -14.001s6.5 -4 10.5 -4c-2.66699 -23.333 -12.334 -35 -29.001 -35
c-22 0 -33 12.167 -33 36.5s14.667 49.333 44 75s64.666 38.5 105.999 38.5c53.333 0 83.666 -18.333 90.999 -55c1.33301 -6 2 -12 2 -18c0 -28 -12 -55.333 -36 -82s-50.667 -46 -80 -58zM234.003 -89.001c-7.33301 0 -11 5.33398 -11 16.001
c0 11.333 8.16699 33.666 24.5 66.999s73 156.5 170 369.5s149 326.333 156 340s16.333 20.5 28 20.5s17.5 -8.33301 17.5 -25c0 -19.333 -5.66699 -40.5 -17 -63.5l-98 -193.5c-128.667 -255.333 -213.334 -427 -254.001 -515c-5.33301 -10.667 -10.666 -16 -15.999 -16z
" />
    <glyph glyph-name="questiondown" unicode="&#xbf;" horiz-adv-x="492" 
d="M298 -190c21.333 31.333 32.001 58.001 32.001 80.001s-6.66699 33 -20 33v5c0 15.333 6.33301 26.666 19 33.999c5.33301 2.66699 11.333 4 18 4c26 0 39 -15 39 -45c0 -40.667 -19.333 -83.667 -58 -129c-52 -61.333 -114 -92 -186 -92c-46 0 -80.833 11.333 -104.5 34
s-35.5 52 -35.5 88s11.167 72.833 33.5 110.5s49.166 72.167 80.499 103.5l94 90c76.667 70 115 123.333 115 160c0 7.33301 5.83301 11.166 17.5 11.499s17.5 -3.5 17.5 -11.5c0 -37.333 -33.333 -94.666 -100 -171.999l-84 -97c-66.667 -80.667 -100 -149.667 -100 -207
c0 -52 28 -78 84 -78s102 26 138 78zM359.001 484.001c16 0 24 -7.66699 24 -23c0 -14.667 -7.66699 -39.667 -23 -75l-8 -19c-11.333 0 -20 9.66699 -26 29c-2.66699 9.33301 -4 19 -4 29s1.33301 19.667 4 29c6 20 17 30 33 30z" />
    <glyph glyph-name="Agrave" unicode="&#xc0;" 
d="M961 1005c24 -22.667 47.332 -47.667 69.999 -75s34 -44.333 34 -51s-3.66699 -10 -11 -10s-22.833 8.66699 -46.5 26s-48.167 38.666 -73.5 63.999c-10.667 9.33301 -16 17.333 -16 24s2.16699 13.334 6.5 20.001s9.83301 10 16.5 10s13.334 -2.66699 20.001 -8z
M368.999 -14c-32.667 31.333 -49 78.3379 -49 141.005c0 70 23 142.333 69 217c25.333 41.333 59.666 75.333 102.999 102s90.666 40 141.999 40c22.667 0 47 -4 73 -12c50.667 83.333 92 143.666 124 180.999s59.667 65.666 83 84.999c52.667 42.667 106 64 160 64
c10.667 0 16 -5.33301 16 -16c-44 -96.667 -77.833 -194.167 -101.5 -292.5s-42 -194 -55 -287s-19.5 -171.833 -19.5 -236.5c0 -9.33301 -4.66699 -14 -14 -14c-23.333 0 -35 26.667 -35 80c0 67.333 -6.33301 128.333 -19 183c-23.333 104 -64 172.667 -122 206l-41.5 -80
l-45 -86.5c-9.66699 -18.333 -24 -44 -43 -77s-35.167 -59.5 -48.5 -79.5c-32 -48 -66.667 -90 -104 -126c6.66699 -2 14.667 -3 24 -3c56 0 102.333 18.5 139 55.5s62 80.833 76 131.5c2 7.33301 7.33301 10.666 16 9.99902c5.33301 -0.666992 7.33301 -3.33398 6 -8.00098
c-14.667 -57.333 -42.5 -107.5 -83.5 -150.5s-92.5 -64.5 -154.5 -64.5c-14 0 -29.667 2.33301 -47 7c-61.333 -49.333 -126.666 -74 -195.999 -74c-90 0 -154 35.333 -192 106c-20.667 38 -31 79 -31 123c0 23.333 3 47.666 9 72.999c16 68.667 48.667 117.667 98 147
c24.667 14.667 51.667 22 81 22c9.33301 0 17 -2.83301 23 -8.5s10.333 -14.5 13 -26.5c-39.333 0 -74.666 -14 -105.999 -42c-52.667 -46 -79 -111.333 -79 -196c0 -51.333 15.5 -91.5 46.5 -120.5s72.667 -43.5 125 -43.5s105.5 23.333 159.5 70zM632.999 450.005
c-56 0 -106.333 -18.333 -151 -55s-77.334 -79.5 -98.001 -128.5s-31 -98.5 -31 -148.5s12.667 -88 38 -114c25.333 24 52.333 55.5 81 94.5s51.334 71.833 68.001 98.5l78 130l69 116c-16 4.66699 -34 7 -54 7zM1022 765.005c-53.333 -14 -102 -47 -146 -99
s-89 -121 -135 -207c64.667 -35.333 110 -106 136 -212c12 113.333 31.5 217.5 58.5 312.5s55.833 163.5 86.5 205.5z" />
    <glyph glyph-name="Aacute" unicode="&#xc1;" 
d="M1143 958c-20 -24 -42.333 -47.166 -67 -69.499s-40.167 -33.5 -46.5 -33.5s-9.5 3.16699 -9.5 9.5s7.5 21.666 22.5 45.999s33.167 48.5 54.5 72.5c9.33301 9.33301 17.333 14 24 14s13.167 -1.66699 19.5 -5s9.5 -8 9.5 -14s-2.33301 -12.667 -7 -20zM369 -13.999
c-32.667 31.333 -49 78.3379 -49 141.005c0 70 23 142.333 69 217c25.333 41.333 59.666 75.333 102.999 102s90.666 40 141.999 40c22.667 0 47 -4 73 -12c50.667 83.333 92 143.666 124 180.999s59.667 65.666 83 84.999c52.667 42.667 106 64 160 64
c10.667 0 16 -5.33301 16 -16c-44 -96.667 -77.833 -194.167 -101.5 -292.5s-42 -194 -55 -287s-19.5 -171.833 -19.5 -236.5c0 -9.33301 -4.66699 -14 -14 -14c-23.333 0 -35 26.667 -35 80c0 67.333 -6.33301 128.333 -19 183c-23.333 104 -64 172.667 -122 206l-41.5 -80
l-45 -86.5c-9.66699 -18.333 -24 -44 -43 -77s-35.167 -59.5 -48.5 -79.5c-32 -48 -66.667 -90 -104 -126c6.66699 -2 14.667 -3 24 -3c56 0 102.333 18.5 139 55.5s62 80.833 76 131.5c2 7.33301 7.33301 10.666 16 9.99902c5.33301 -0.666992 7.33301 -3.33398 6 -8.00098
c-14.667 -57.333 -42.5 -107.5 -83.5 -150.5s-92.5 -64.5 -154.5 -64.5c-14 0 -29.667 2.33301 -47 7c-61.333 -49.333 -126.666 -74 -195.999 -74c-90 0 -154 35.333 -192 106c-20.667 38 -31 79 -31 123c0 23.333 3 47.666 9 72.999c16 68.667 48.667 117.667 98 147
c24.667 14.667 51.667 22 81 22c9.33301 0 17 -2.83301 23 -8.5s10.333 -14.5 13 -26.5c-39.333 0 -74.666 -14 -105.999 -42c-52.667 -46 -79 -111.333 -79 -196c0 -51.333 15.5 -91.5 46.5 -120.5s72.667 -43.5 125 -43.5s105.5 23.333 159.5 70zM633 450.006
c-56 0 -106.333 -18.333 -151 -55s-77.334 -79.5 -98.001 -128.5s-31 -98.5 -31 -148.5s12.667 -88 38 -114c25.333 24 52.333 55.5 81 94.5s51.334 71.833 68.001 98.5l78 130l69 116c-16 4.66699 -34 7 -54 7zM1022 765.006c-53.333 -14 -102 -47 -146 -99
s-89 -121 -135 -207c64.667 -35.333 110 -106 136 -212c12 113.333 31.5 217.5 58.5 312.5s55.833 163.5 86.5 205.5z" />
    <glyph glyph-name="Acircumflex" unicode="&#xc2;" 
d="M1060 975c5.33301 0 9.33301 -2.66699 12 -8l59 -118h-28l-46 77l-130 -77h-29l144 118c6.66699 5.33301 12.667 8 18 8zM369 -14c-32.667 31.333 -49 78.3379 -49 141.005c0 70 23 142.333 69 217c25.333 41.333 59.666 75.333 102.999 102s90.666 40 141.999 40
c22.667 0 47 -4 73 -12c50.667 83.333 92 143.666 124 180.999s59.667 65.666 83 84.999c52.667 42.667 106 64 160 64c10.667 0 16 -5.33301 16 -16c-44 -96.667 -77.833 -194.167 -101.5 -292.5s-42 -194 -55 -287s-19.5 -171.833 -19.5 -236.5
c0 -9.33301 -4.66699 -14 -14 -14c-23.333 0 -35 26.667 -35 80c0 67.333 -6.33301 128.333 -19 183c-23.333 104 -64 172.667 -122 206l-41.5 -80l-45 -86.5c-9.66699 -18.333 -24 -44 -43 -77s-35.167 -59.5 -48.5 -79.5c-32 -48 -66.667 -90 -104 -126
c6.66699 -2 14.667 -3 24 -3c56 0 102.333 18.5 139 55.5s62 80.833 76 131.5c2 7.33301 7.33301 10.666 16 9.99902c5.33301 -0.666992 7.33301 -3.33398 6 -8.00098c-14.667 -57.333 -42.5 -107.5 -83.5 -150.5s-92.5 -64.5 -154.5 -64.5c-14 0 -29.667 2.33301 -47 7
c-61.333 -49.333 -126.666 -74 -195.999 -74c-90 0 -154 35.333 -192 106c-20.667 38 -31 79 -31 123c0 23.333 3 47.666 9 72.999c16 68.667 48.667 117.667 98 147c24.667 14.667 51.667 22 81 22c9.33301 0 17 -2.83301 23 -8.5s10.333 -14.5 13 -26.5
c-39.333 0 -74.666 -14 -105.999 -42c-52.667 -46 -79 -111.333 -79 -196c0 -51.333 15.5 -91.5 46.5 -120.5s72.667 -43.5 125 -43.5s105.5 23.333 159.5 70zM633 450.005c-56 0 -106.333 -18.333 -151 -55s-77.334 -79.5 -98.001 -128.5s-31 -98.5 -31 -148.5
s12.667 -88 38 -114c25.333 24 52.333 55.5 81 94.5s51.334 71.833 68.001 98.5l78 130l69 116c-16 4.66699 -34 7 -54 7zM1022 765.005c-53.333 -14 -102 -47 -146 -99s-89 -121 -135 -207c64.667 -35.333 110 -106 136 -212c12 113.333 31.5 217.5 58.5 312.5
s55.833 163.5 86.5 205.5z" />
    <glyph glyph-name="Atilde" unicode="&#xc3;" 
d="M966 909c-16.667 0 -32.6689 -13.667 -48.002 -41h-32c5.33301 16.667 14.333 31 27 43c24.667 23.333 49.334 35 74.001 35c12 0 27.167 -7.83301 45.5 -23.5s35 -23.5 50 -23.5s29.167 12 42.5 36h30c-1.33301 -2 -2.83301 -4.83301 -4.5 -8.5s-5.66699 -10 -12 -19
s-13.166 -16.833 -20.499 -23.5c-18 -18.667 -35.667 -28 -53 -28s-35.833 8.83301 -55.5 26.5s-34.167 26.5 -43.5 26.5zM368.998 -14c-32.667 31.333 -49 78.3379 -49 141.005c0 70 23 142.333 69 217c25.333 41.333 59.666 75.333 102.999 102s90.666 40 141.999 40
c22.667 0 47 -4 73 -12c50.667 83.333 92 143.666 124 180.999s59.667 65.666 83 84.999c52.667 42.667 106 64 160 64c10.667 0 16 -5.33301 16 -16c-44 -96.667 -77.833 -194.167 -101.5 -292.5s-42 -194 -55 -287s-19.5 -171.833 -19.5 -236.5
c0 -9.33301 -4.66699 -14 -14 -14c-23.333 0 -35 26.667 -35 80c0 67.333 -6.33301 128.333 -19 183c-23.333 104 -64 172.667 -122 206l-41.5 -80l-45 -86.5c-9.66699 -18.333 -24 -44 -43 -77s-35.167 -59.5 -48.5 -79.5c-32 -48 -66.667 -90 -104 -126
c6.66699 -2 14.667 -3 24 -3c56 0 102.333 18.5 139 55.5s62 80.833 76 131.5c2 7.33301 7.33301 10.666 16 9.99902c5.33301 -0.666992 7.33301 -3.33398 6 -8.00098c-14.667 -57.333 -42.5 -107.5 -83.5 -150.5s-92.5 -64.5 -154.5 -64.5c-14 0 -29.667 2.33301 -47 7
c-61.333 -49.333 -126.666 -74 -195.999 -74c-90 0 -154 35.333 -192 106c-20.667 38 -31 79 -31 123c0 23.333 3 47.666 9 72.999c16 68.667 48.667 117.667 98 147c24.667 14.667 51.667 22 81 22c9.33301 0 17 -2.83301 23 -8.5s10.333 -14.5 13 -26.5
c-39.333 0 -74.666 -14 -105.999 -42c-52.667 -46 -79 -111.333 -79 -196c0 -51.333 15.5 -91.5 46.5 -120.5s72.667 -43.5 125 -43.5s105.5 23.333 159.5 70zM632.998 450.005c-56 0 -106.333 -18.333 -151 -55s-77.334 -79.5 -98.001 -128.5s-31 -98.5 -31 -148.5
s12.667 -88 38 -114c25.333 24 52.333 55.5 81 94.5s51.334 71.833 68.001 98.5l78 130l69 116c-16 4.66699 -34 7 -54 7zM1022 765.005c-53.333 -14 -102 -47 -146 -99s-89 -121 -135 -207c64.667 -35.333 110 -106 136 -212c12 113.333 31.5 217.5 58.5 312.5
s55.833 163.5 86.5 205.5z" />
    <glyph glyph-name="Adieresis" unicode="&#xc4;" 
d="M969 856c-14 0 -21 13.333 -21 40c0 16 4.33301 33 13 51s21 27 37 27c13.333 0 20 -7.66699 20 -23c0 -16 -12 -41.667 -36 -77zM1112 856c-14 0 -21 13.667 -21 41c0 16 4.16699 32.833 12.5 50.5s20.5 26.5 36.5 26.5c14 0 21 -7.66699 21 -23
c0 -14 -12.333 -39.667 -37 -77zM369 -14c-32.667 31.333 -49 78.3379 -49 141.005c0 70 23 142.333 69 217c25.333 41.333 59.666 75.333 102.999 102s90.666 40 141.999 40c22.667 0 47 -4 73 -12c50.667 83.333 92 143.666 124 180.999s59.667 65.666 83 84.999
c52.667 42.667 106 64 160 64c10.667 0 16 -5.33301 16 -16c-44 -96.667 -77.833 -194.167 -101.5 -292.5s-42 -194 -55 -287s-19.5 -171.833 -19.5 -236.5c0 -9.33301 -4.66699 -14 -14 -14c-23.333 0 -35 26.667 -35 80c0 67.333 -6.33301 128.333 -19 183
c-23.333 104 -64 172.667 -122 206l-41.5 -80l-45 -86.5c-9.66699 -18.333 -24 -44 -43 -77s-35.167 -59.5 -48.5 -79.5c-32 -48 -66.667 -90 -104 -126c6.66699 -2 14.667 -3 24 -3c56 0 102.333 18.5 139 55.5s62 80.833 76 131.5c2 7.33301 7.33301 10.666 16 9.99902
c5.33301 -0.666992 7.33301 -3.33398 6 -8.00098c-14.667 -57.333 -42.5 -107.5 -83.5 -150.5s-92.5 -64.5 -154.5 -64.5c-14 0 -29.667 2.33301 -47 7c-61.333 -49.333 -126.666 -74 -195.999 -74c-90 0 -154 35.333 -192 106c-20.667 38 -31 79 -31 123
c0 23.333 3 47.666 9 72.999c16 68.667 48.667 117.667 98 147c24.667 14.667 51.667 22 81 22c9.33301 0 17 -2.83301 23 -8.5s10.333 -14.5 13 -26.5c-39.333 0 -74.666 -14 -105.999 -42c-52.667 -46 -79 -111.333 -79 -196c0 -51.333 15.5 -91.5 46.5 -120.5
s72.667 -43.5 125 -43.5s105.5 23.333 159.5 70zM633 450.005c-56 0 -106.333 -18.333 -151 -55s-77.334 -79.5 -98.001 -128.5s-31 -98.5 -31 -148.5s12.667 -88 38 -114c25.333 24 52.333 55.5 81 94.5s51.334 71.833 68.001 98.5l78 130l69 116c-16 4.66699 -34 7 -54 7z
M1022 765.005c-53.333 -14 -102 -47 -146 -99s-89 -121 -135 -207c64.667 -35.333 110 -106 136 -212c12 113.333 31.5 217.5 58.5 312.5s55.833 163.5 86.5 205.5z" />
    <glyph glyph-name="Aring" unicode="&#xc5;" 
d="M979.5 982c13.667 14 30.667 21 51 21s37.5 -7 51.5 -21s21 -31 21 -51s-7 -37 -21 -51s-31.167 -21 -51.5 -21s-37.333 7.16699 -51 21.5s-20.5 31.333 -20.5 51s6.83301 36.5 20.5 50.5zM1029 891c11.333 0 21.166 4 29.499 12s12.5 17.667 12.5 29
s-4.16699 21 -12.5 29s-18.166 12 -29.499 12s-21 -4 -29 -12s-12 -17.667 -12 -29s4 -21 12 -29s17.667 -12 29 -12zM369 -14c-32.667 31.333 -49 78.3379 -49 141.005c0 70 23 142.333 69 217c25.333 41.333 59.666 75.333 102.999 102s90.666 40 141.999 40
c22.667 0 47 -4 73 -12c50.667 83.333 92 143.666 124 180.999s59.667 65.666 83 84.999c52.667 42.667 106 64 160 64c10.667 0 16 -5.33301 16 -16c-44 -96.667 -77.833 -194.167 -101.5 -292.5s-42 -194 -55 -287s-19.5 -171.833 -19.5 -236.5
c0 -9.33301 -4.66699 -14 -14 -14c-23.333 0 -35 26.667 -35 80c0 67.333 -6.33301 128.333 -19 183c-23.333 104 -64 172.667 -122 206l-41.5 -80l-45 -86.5c-9.66699 -18.333 -24 -44 -43 -77s-35.167 -59.5 -48.5 -79.5c-32 -48 -66.667 -90 -104 -126
c6.66699 -2 14.667 -3 24 -3c56 0 102.333 18.5 139 55.5s62 80.833 76 131.5c2 7.33301 7.33301 10.666 16 9.99902c5.33301 -0.666992 7.33301 -3.33398 6 -8.00098c-14.667 -57.333 -42.5 -107.5 -83.5 -150.5s-92.5 -64.5 -154.5 -64.5c-14 0 -29.667 2.33301 -47 7
c-61.333 -49.333 -126.666 -74 -195.999 -74c-90 0 -154 35.333 -192 106c-20.667 38 -31 79 -31 123c0 23.333 3 47.666 9 72.999c16 68.667 48.667 117.667 98 147c24.667 14.667 51.667 22 81 22c9.33301 0 17 -2.83301 23 -8.5s10.333 -14.5 13 -26.5
c-39.333 0 -74.666 -14 -105.999 -42c-52.667 -46 -79 -111.333 -79 -196c0 -51.333 15.5 -91.5 46.5 -120.5s72.667 -43.5 125 -43.5s105.5 23.333 159.5 70zM633 450.005c-56 0 -106.333 -18.333 -151 -55s-77.334 -79.5 -98.001 -128.5s-31 -98.5 -31 -148.5
s12.667 -88 38 -114c25.333 24 52.333 55.5 81 94.5s51.334 71.833 68.001 98.5l78 130l69 116c-16 4.66699 -34 7 -54 7zM1022 765.005c-53.333 -14 -102 -47 -146 -99s-89 -121 -135 -207c64.667 -35.333 110 -106 136 -212c12 113.333 31.5 217.5 58.5 312.5
s55.833 163.5 86.5 205.5z" />
    <glyph glyph-name="AE" unicode="&#xc6;" horiz-adv-x="1459" 
d="M826 80l2 65.0039c0 142 -34.667 235.333 -104 280l-105.5 -199c-11.667 -21.333 -28.5 -50.333 -50.5 -87c-39.333 -64 -81.333 -117.667 -126 -161c14 -2 22 -3 24 -3c56 0 102.333 18.5 139 55.5s62 80.833 76 131.5c2 7.33301 7.33301 10.666 16 9.99902
c5.33301 -0.666992 7.33301 -3.33398 6 -8.00098c-14.667 -57.333 -42.5 -107.5 -83.5 -150.5s-92.5 -64.5 -154.5 -64.5c-14 0 -29.667 2.33301 -47 7c-61.333 -49.333 -126.666 -74 -195.999 -74c-90 0 -154 35.333 -192 106c-20.667 38 -31 79 -31 123
c0 23.333 3 47.666 9 72.999c16 68.667 48.667 117.667 98 147c24.667 14.667 51.667 22 81 22c9.33301 0 17 -2.83301 23 -8.5s10.333 -14.5 13 -26.5c-39.333 0 -74.666 -14 -105.999 -42c-52.667 -46 -79 -111.333 -79 -196c0 -51.333 15.5 -91.5 46.5 -120.5
s72.667 -43.5 125 -43.5s105.5 23.333 159.5 70c-32.667 31.333 -49 78.333 -49 141c0 70 23 142.333 69 217c25.333 41.333 59.666 75.333 102.999 102s90.666 40 141.999 40c22.667 0 46.667 -4 72 -12c58.667 96 115.334 172.667 170.001 230c62 66.667 128 100 198 100
c1.33301 0 2 -2.66699 2 -8s-0.333008 -13.333 -1 -24c-69.333 0 -132 -31.333 -188 -94c-28 -31.333 -52.833 -63.666 -74.5 -96.999s-45.834 -74.333 -72.501 -123c65.333 -39.333 103.666 -121.666 114.999 -246.999c26.667 63.333 67.334 119.333 122.001 168
s118.667 81 192 97c-53.333 19.333 -80 52.666 -80 99.999s22 90.666 66 129.999c50.667 45.333 112 68 184 68c12.667 0 22 -4.66699 28 -14s9 -18.666 9 -27.999l-1 -13c-5.33301 2.66699 -17 4 -35 4c-60 0 -111 -21.333 -153 -64c-28.667 -30 -43 -59.333 -43 -88
c0 -56 41.667 -84 125 -84c7.33301 0 13.5 -2.16699 18.5 -6.5s8.83301 -10.833 11.5 -19.5c-114.667 0 -211 -44.333 -289 -133c-73.333 -82.667 -110 -174.334 -110 -275.001c0 -58 16.667 -102.667 50 -134c26 -25.333 60 -38 102 -38c94.667 0 167.334 40 218.001 120
c33.333 52 50 106.667 50 164c0 62.667 -15.667 99.667 -47 111c-5.33301 2 -11 3 -17 3c8.66699 15.333 24.667 23 48 23c32.667 0 54 -21.667 64 -65c3.33301 -16 5 -32.667 5 -50c0 -40.667 -10 -85.334 -30 -134.001c-36 -84 -90.333 -143 -163 -177
c-40 -18.667 -83 -28 -129 -28c-80.667 0 -138.334 22.667 -173.001 68s-52 100 -52 164zM633 450.004c-56 0 -106.332 -18.333 -150.999 -55s-77.334 -79.5 -98.001 -128.5s-31 -98.5 -31 -148.5s12.667 -88 38 -114c42 40 91.667 104 149 192
c27.333 43.333 76.333 125.333 147 246c-14 5.33301 -32 8 -54 8zM1410 548.004c0 -3.33301 -2.99805 -4.99805 -8.99805 -4.99805c-17.333 0 -26 5 -26 15c0 68 7.66699 122.833 23 164.5s35.666 62.5 60.999 62.5c6 0 11.5 -2.5 16.5 -7.5s7.5 -11.167 7.5 -18.5
c-30.667 -30.667 -52.334 -75.334 -65.001 -134.001c-5.33301 -24.667 -8 -50.334 -8 -77.001z" />
    <glyph glyph-name="Ccedilla" unicode="&#xc7;" horiz-adv-x="605" 
d="M519 726c-92 0 -174.336 -53.668 -247.003 -161.001c-62.667 -92.667 -103.667 -200.667 -123 -324c-6.66699 -40.667 -10 -78 -10 -112c0 -65.333 12 -117.833 36 -157.5s57.667 -59.5 101 -59.5c58.667 0 108.667 33.667 150 101c28 45.333 42 85.333 42 120
c0 15.333 -4 23 -12 23c4 15.333 14 23 30 23c18.667 0 28 -13.333 28 -40c0 -50 -22 -103.333 -66 -160c-52.667 -67.333 -114.334 -101 -185.001 -101c-12 0 -25.333 1.66699 -40 5l-38 -69c17.333 8.66699 37 13 59 13c33.333 0 53.333 -12.667 60 -38
c0.666992 -4.66699 1 -9.66699 1 -15c0 -19.333 -11.167 -39.166 -33.5 -59.499s-52.666 -30.5 -90.999 -30.5s-59.5 10.333 -63.5 31c-2.66699 14 1.66602 24 12.999 30c2.66699 1.33301 6 2 10 2c6.66699 0 11.334 -4 14.001 -12c-9.33301 0 -14.666 -5 -15.999 -15
c-1.33301 -15.333 10.334 -23 35.001 -23c39.333 0 68.333 14.667 87 44c7.33301 12 11 22.667 11 32s-3.16699 17.666 -9.5 24.999s-15.5 11 -27.5 11s-22.333 -1.16699 -31 -3.5s-16 -5 -22 -8s-10 -4.83301 -12 -5.5h-2c-6.66699 0 -10 2.83301 -10 8.5s4 16.5 12 32.5
s19.333 34 34 54c-57.333 17.333 -97.666 59.333 -120.999 126c-14.667 40.667 -22 80.334 -22 119.001c0 108.667 28.667 227 86 355c36 81.333 87.667 149.5 155 204.5s139.333 82.5 216 82.5c13.333 0 23 -4.33301 29 -13s8.66699 -17 8 -25v-13c-5.33301 2 -17 3 -35 3z
M578.997 513.999c0 -3.33301 -4 -5 -12 -5l-13 3c-6 2.66699 -9 6.33398 -9 11.001c0 68 7.66699 122.833 23 164.5s35.333 62.5 60 62.5c6.66699 0 12.334 -2.33301 17.001 -7s7 -11 7 -19c-30.667 -30.667 -52.334 -75.334 -65.001 -134.001
c-5.33301 -24 -8 -49.333 -8 -76z" />
    <glyph glyph-name="Egrave" unicode="&#xc8;" horiz-adv-x="632" 
d="M453 970c24.667 -22.667 48.165 -47.833 70.498 -75.5s33.5 -44.5 33.5 -50.5s-3.5 -9 -10.5 -9s-22.667 8.66699 -47 26s-49.166 38.333 -74.499 63c-9.33301 9.33301 -14 17.5 -14 24.5s2 14 6 21s9.33301 10.5 16 10.5s13.334 -3.33301 20.001 -10zM476.998 302.001
c32.667 0 53.9961 -21.666 63.9961 -64.999c4 -16 6 -32.667 6 -50c0 -40.667 -10.333 -85.334 -31 -134.001c-36 -84 -90.333 -143 -163 -177c-40 -18.667 -83 -28 -129 -28c-98.667 0 -166 36 -202 108c-16.667 33.333 -25 69 -25 107s7 77.667 21 119
c30.667 90.667 85.334 164.667 164.001 222c48.667 34.667 102.334 58.667 161.001 72c-53.333 19.333 -80 52.666 -80 99.999s23.667 92.166 71 134.499s107 63.5 179 63.5c12 0 21 -4.66699 27 -14s8.66699 -18.666 8 -27.999v-13c-5.33301 2.66699 -16.666 4 -33.999 4
c-60.667 0 -111.667 -21.333 -153 -64c-29.333 -30 -44 -59.667 -44 -89c0 -55.333 41.667 -83 125 -83c7.33301 0 13.5 -2.16699 18.5 -6.5s9.16699 -10.833 12.5 -19.5c-115.333 0 -212 -44.333 -290 -133c-73.333 -82.667 -110 -174.667 -110 -276
c0 -57.333 16.667 -101.666 50 -132.999c26 -25.333 60 -38 102 -38c94.667 0 167.334 40 218.001 120c33.333 52 50 106.667 50 164c0 62.667 -15.667 99.667 -47 111c-5.33301 2 -11 3 -17 3c8.66699 15.333 24.667 23 48 23zM582.994 548.002
c0 -3.33301 -2.99902 -4.99902 -8.99902 -4.99902s-11.833 1.33301 -17.5 4s-8.5 6.33398 -8.5 11.001c0 68 7.66699 122.833 23 164.5s35.666 62.5 60.999 62.5c6.66699 0 12.334 -2.5 17.001 -7.5s7 -11.167 7 -18.5c-30.667 -30.667 -52.334 -75.334 -65.001 -134.001
c-5.33301 -24.667 -8 -50.334 -8 -77.001z" />
    <glyph glyph-name="Eacute" unicode="&#xc9;" horiz-adv-x="632" 
d="M620 925c-18.667 -23.333 -40.332 -46.333 -64.999 -69s-40.334 -34 -47.001 -34s-10 2.66699 -10 8c0 8 7.5 24 22.5 48s33.167 48 54.5 72c8 9.33301 15.5 14 22.5 14s13.667 -1.66699 20 -5s9.5 -8 9.5 -14s-2.33301 -12.667 -7 -20zM477.002 302
c32.667 0 53.9961 -21.666 63.9961 -64.999c4 -16 6 -32.667 6 -50c0 -40.667 -10.333 -85.334 -31 -134.001c-36 -84 -90.333 -143 -163 -177c-40 -18.667 -83 -28 -129 -28c-98.667 0 -166 36 -202 108c-16.667 33.333 -25 69 -25 107s7 77.667 21 119
c30.667 90.667 85.334 164.667 164.001 222c48.667 34.667 102.334 58.667 161.001 72c-53.333 19.333 -80 52.666 -80 99.999s23.667 92.166 71 134.499s107 63.5 179 63.5c12 0 21 -4.66699 27 -14s8.66699 -18.666 8 -27.999v-13c-5.33301 2.66699 -16.666 4 -33.999 4
c-60.667 0 -111.667 -21.333 -153 -64c-29.333 -30 -44 -59.667 -44 -89c0 -55.333 41.667 -83 125 -83c7.33301 0 13.5 -2.16699 18.5 -6.5s9.16699 -10.833 12.5 -19.5c-115.333 0 -212 -44.333 -290 -133c-73.333 -82.667 -110 -174.667 -110 -276
c0 -57.333 16.667 -101.666 50 -132.999c26 -25.333 60 -38 102 -38c94.667 0 167.334 40 218.001 120c33.333 52 50 106.667 50 164c0 62.667 -15.667 99.667 -47 111c-5.33301 2 -11 3 -17 3c8.66699 15.333 24.667 23 48 23zM582.998 548.001
c0 -3.33301 -2.99902 -4.99902 -8.99902 -4.99902s-11.833 1.33301 -17.5 4s-8.5 6.33398 -8.5 11.001c0 68 7.66699 122.833 23 164.5s35.666 62.5 60.999 62.5c6.66699 0 12.334 -2.5 17.001 -7.5s7 -11.167 7 -18.5c-30.667 -30.667 -52.334 -75.334 -65.001 -134.001
c-5.33301 -24.667 -8 -50.334 -8 -77.001z" />
    <glyph glyph-name="Ecircumflex" unicode="&#xca;" horiz-adv-x="632" 
d="M535 950c4.66699 0 8.33301 -2.66699 11 -8l60 -118h-28l-46 77l-130 -77h-29l144 118c7.33301 5.33301 13.333 8 18 8zM476.999 302c32.667 0 53.9961 -21.666 63.9961 -64.999c4 -16 6 -32.667 6 -50c0 -40.667 -10.333 -85.334 -31 -134.001
c-36 -84 -90.333 -143 -163 -177c-40 -18.667 -83 -28 -129 -28c-98.667 0 -166 36 -202 108c-16.667 33.333 -25 69 -25 107s7 77.667 21 119c30.667 90.667 85.334 164.667 164.001 222c48.667 34.667 102.334 58.667 161.001 72c-53.333 19.333 -80 52.666 -80 99.999
s23.667 92.166 71 134.499s107 63.5 179 63.5c12 0 21 -4.66699 27 -14s8.66699 -18.666 8 -27.999v-13c-5.33301 2.66699 -16.666 4 -33.999 4c-60.667 0 -111.667 -21.333 -153 -64c-29.333 -30 -44 -59.667 -44 -89c0 -55.333 41.667 -83 125 -83
c7.33301 0 13.5 -2.16699 18.5 -6.5s9.16699 -10.833 12.5 -19.5c-115.333 0 -212 -44.333 -290 -133c-73.333 -82.667 -110 -174.667 -110 -276c0 -57.333 16.667 -101.666 50 -132.999c26 -25.333 60 -38 102 -38c94.667 0 167.334 40 218.001 120
c33.333 52 50 106.667 50 164c0 62.667 -15.667 99.667 -47 111c-5.33301 2 -11 3 -17 3c8.66699 15.333 24.667 23 48 23zM582.995 548.001c0 -3.33301 -2.99902 -4.99902 -8.99902 -4.99902s-11.833 1.33301 -17.5 4s-8.5 6.33398 -8.5 11.001
c0 68 7.66699 122.833 23 164.5s35.666 62.5 60.999 62.5c6.66699 0 12.334 -2.5 17.001 -7.5s7 -11.167 7 -18.5c-30.667 -30.667 -52.334 -75.334 -65.001 -134.001c-5.33301 -24.667 -8 -50.334 -8 -77.001z" />
    <glyph glyph-name="Edieresis" unicode="&#xcb;" horiz-adv-x="632" 
d="M413 819c-14 0 -21 13.333 -21 40c0 16 4.16699 32.833 12.5 50.5s20.5 26.5 36.5 26.5c14 0 21 -7.66699 21 -23c0 -8 -4 -19.833 -12 -35.5s-16 -29.5 -24 -41.5zM555 819c-14 0 -21 13.333 -21 40c0 16 4.33301 32.833 13 50.5s21 26.5 37 26.5
c13.333 0 20 -7.66699 20 -23c0 -8 -4 -19.833 -12 -35.5s-16 -29.5 -24 -41.5zM477 302c32.667 0 53.9961 -21.666 63.9961 -64.999c4 -16 6 -32.667 6 -50c0 -40.667 -10.333 -85.334 -31 -134.001c-36 -84 -90.333 -143 -163 -177c-40 -18.667 -83 -28 -129 -28
c-98.667 0 -166 36 -202 108c-16.667 33.333 -25 69 -25 107s7 77.667 21 119c30.667 90.667 85.334 164.667 164.001 222c48.667 34.667 102.334 58.667 161.001 72c-53.333 19.333 -80 52.666 -80 99.999s23.667 92.166 71 134.499s107 63.5 179 63.5
c12 0 21 -4.66699 27 -14s8.66699 -18.666 8 -27.999v-13c-5.33301 2.66699 -16.666 4 -33.999 4c-60.667 0 -111.667 -21.333 -153 -64c-29.333 -30 -44 -59.667 -44 -89c0 -55.333 41.667 -83 125 -83c7.33301 0 13.5 -2.16699 18.5 -6.5s9.16699 -10.833 12.5 -19.5
c-115.333 0 -212 -44.333 -290 -133c-73.333 -82.667 -110 -174.667 -110 -276c0 -57.333 16.667 -101.666 50 -132.999c26 -25.333 60 -38 102 -38c94.667 0 167.334 40 218.001 120c33.333 52 50 106.667 50 164c0 62.667 -15.667 99.667 -47 111c-5.33301 2 -11 3 -17 3
c8.66699 15.333 24.667 23 48 23zM582.996 548.001c0 -3.33301 -2.99902 -4.99902 -8.99902 -4.99902s-11.833 1.33301 -17.5 4s-8.5 6.33398 -8.5 11.001c0 68 7.66699 122.833 23 164.5s35.666 62.5 60.999 62.5c6.66699 0 12.334 -2.5 17.001 -7.5s7 -11.167 7 -18.5
c-30.667 -30.667 -52.334 -75.334 -65.001 -134.001c-5.33301 -24.667 -8 -50.334 -8 -77.001z" />
    <glyph glyph-name="Igrave" unicode="&#xcc;" horiz-adv-x="587" 
d="M472 943c24.667 -22.667 48.167 -47.5 70.5 -74.5s33.5 -43.833 33.5 -50.5s-3.83301 -10 -11.5 -10s-23.167 8.5 -46.5 25.5s-48 38.167 -74 63.5c-10 9.33301 -15 17.5 -15 24.5s2 13.833 6 20.5s9.33301 10 16 10s13.667 -3 21 -9zM589 762
c10.667 0 17.001 -3.99902 19.001 -11.999l1 -4c-19.333 0 -35.833 -12.333 -49.5 -37s-23.834 -57.167 -30.501 -97.5l-22 -138c-8 -51.667 -15.5 -104.5 -22.5 -158.5s-18.167 -106.833 -33.5 -158.5s-33.166 -97.667 -53.499 -138s-48.5 -72.833 -84.5 -97.5
s-78.667 -37 -128 -37s-89.833 14.667 -121.5 44s-49.834 65 -54.501 107c-1.33301 14 -2 31.5 -2 52.5s3.83301 49 11.5 84s26 67.167 55 96.5s62.167 44 99.5 44c10 0 17.833 -3 23.5 -9s9.5 -15 11.5 -27c-60 0 -107.333 -29.667 -142 -89
c-22 -38.667 -33 -77.334 -33 -116.001c0 -20.667 3.33301 -41.667 10 -63c18.667 -59.333 62.334 -89 131.001 -89c37.333 0 70.166 12.167 98.499 36.5s51.166 57 68.499 98s32.333 86.667 45 137s23.667 102.833 33 157.5l27 155c22 116 49 192 81 228
c-52 -18 -99.167 -46.5 -141.5 -85.5s-63.5 -81.5 -63.5 -127.5c0 -20.667 7 -31 21 -31c-1.33301 -9.33301 -8.16602 -14 -20.499 -14s-23.333 5 -33 15s-14.5 24.333 -14.5 43c0 39.333 19.5 77.5 58.5 114.5s82.667 65.667 131 86s89.833 30.5 124.5 30.5z" />
    <glyph glyph-name="Iacute" unicode="&#xcd;" horiz-adv-x="587" 
d="M620 896c-18.667 -23.333 -40.3301 -46.166 -64.9971 -68.499s-40.334 -33.5 -47.001 -33.5s-10 2.66699 -10 8c0 8 7.66699 24.167 23 48.5s30.166 44.666 44.499 60.999s25.166 24.5 32.499 24.5c19.333 0 29 -6.66699 29 -20c0 -6 -2.33301 -12.667 -7 -20z
M589.004 762c10.667 0 17.001 -3.99902 19.001 -11.999l1 -4c-19.333 0 -35.833 -12.333 -49.5 -37s-23.834 -57.167 -30.501 -97.5l-22 -138c-8 -51.667 -15.5 -104.5 -22.5 -158.5s-18.167 -106.833 -33.5 -158.5s-33.166 -97.667 -53.499 -138s-48.5 -72.833 -84.5 -97.5
s-78.667 -37 -128 -37s-89.833 14.667 -121.5 44s-49.834 65 -54.501 107c-1.33301 14 -2 31.5 -2 52.5s3.83301 49 11.5 84s26 67.167 55 96.5s62.167 44 99.5 44c10 0 17.833 -3 23.5 -9s9.5 -15 11.5 -27c-60 0 -107.333 -29.667 -142 -89
c-22 -38.667 -33 -77.334 -33 -116.001c0 -20.667 3.33301 -41.667 10 -63c18.667 -59.333 62.334 -89 131.001 -89c37.333 0 70.166 12.167 98.499 36.5s51.166 57 68.499 98s32.333 86.667 45 137s23.667 102.833 33 157.5l27 155c22 116 49 192 81 228
c-52 -18 -99.167 -46.5 -141.5 -85.5s-63.5 -81.5 -63.5 -127.5c0 -20.667 7 -31 21 -31c-1.33301 -9.33301 -8.16602 -14 -20.499 -14s-23.333 5 -33 15s-14.5 24.333 -14.5 43c0 39.333 19.5 77.5 58.5 114.5s82.667 65.667 131 86s89.833 30.5 124.5 30.5z" />
    <glyph glyph-name="Icircumflex" unicode="&#xce;" horiz-adv-x="587" 
d="M562.5 922c5.66699 0 9.83301 -2.66699 12.5 -8l60 -117h-29l-45 76l-130 -76h-30l145 117c5.33301 5.33301 10.833 8 16.5 8zM588.999 762c10.667 0 17.001 -3.99902 19.001 -11.999l1 -4c-19.333 0 -35.833 -12.333 -49.5 -37s-23.834 -57.167 -30.501 -97.5l-22 -138
c-8 -51.667 -15.5 -104.5 -22.5 -158.5s-18.167 -106.833 -33.5 -158.5s-33.166 -97.667 -53.499 -138s-48.5 -72.833 -84.5 -97.5s-78.667 -37 -128 -37s-89.833 14.667 -121.5 44s-49.834 65 -54.501 107c-1.33301 14 -2 31.5 -2 52.5s3.83301 49 11.5 84
s26 67.167 55 96.5s62.167 44 99.5 44c10 0 17.833 -3 23.5 -9s9.5 -15 11.5 -27c-60 0 -107.333 -29.667 -142 -89c-22 -38.667 -33 -77.334 -33 -116.001c0 -20.667 3.33301 -41.667 10 -63c18.667 -59.333 62.334 -89 131.001 -89c37.333 0 70.166 12.167 98.499 36.5
s51.166 57 68.499 98s32.333 86.667 45 137s23.667 102.833 33 157.5l27 155c22 116 49 192 81 228c-52 -18 -99.167 -46.5 -141.5 -85.5s-63.5 -81.5 -63.5 -127.5c0 -20.667 7 -31 21 -31c-1.33301 -9.33301 -8.16602 -14 -20.499 -14s-23.333 5 -33 15
s-14.5 24.333 -14.5 43c0 39.333 19.5 77.5 58.5 114.5s82.667 65.667 131 86s89.833 30.5 124.5 30.5z" />
    <glyph glyph-name="Idieresis" unicode="&#xcf;" horiz-adv-x="587" 
d="M450 814c-14 0 -21 13.333 -21 40c0 16 4.33301 33 13 51s21 27 37 27c13.333 0 20 -7.66699 20 -23c0 -14 -12.333 -39.667 -37 -77zM593 814c-14 0 -21 13.333 -21 40c0 16 4.16699 33 12.5 51s20.5 27 36.5 27c14 0 21 -7.66699 21 -23c0 -16 -12 -41.667 -36 -77z
M589 762c10.667 0 17.001 -3.99902 19.001 -11.999l1 -4c-19.333 0 -35.833 -12.333 -49.5 -37s-23.834 -57.167 -30.501 -97.5l-22 -138c-8 -51.667 -15.5 -104.5 -22.5 -158.5s-18.167 -106.833 -33.5 -158.5s-33.166 -97.667 -53.499 -138s-48.5 -72.833 -84.5 -97.5
s-78.667 -37 -128 -37s-89.833 14.667 -121.5 44s-49.834 65 -54.501 107c-1.33301 14 -2 31.5 -2 52.5s3.83301 49 11.5 84s26 67.167 55 96.5s62.167 44 99.5 44c10 0 17.833 -3 23.5 -9s9.5 -15 11.5 -27c-60 0 -107.333 -29.667 -142 -89
c-22 -38.667 -33 -77.334 -33 -116.001c0 -20.667 3.33301 -41.667 10 -63c18.667 -59.333 62.334 -89 131.001 -89c37.333 0 70.166 12.167 98.499 36.5s51.166 57 68.499 98s32.333 86.667 45 137s23.667 102.833 33 157.5l27 155c22 116 49 192 81 228
c-52 -18 -99.167 -46.5 -141.5 -85.5s-63.5 -81.5 -63.5 -127.5c0 -20.667 7 -31 21 -31c-1.33301 -9.33301 -8.16602 -14 -20.499 -14s-23.333 5 -33 15s-14.5 24.333 -14.5 43c0 39.333 19.5 77.5 58.5 114.5s82.667 65.667 131 86s89.833 30.5 124.5 30.5z" />
    <glyph glyph-name="Eth" unicode="&#xd0;" horiz-adv-x="750" 
d="M44 478c-24.667 0 -36.999 17.3311 -36.999 51.998s18 73.334 54 116.001c60 72 143.333 113.667 250 125l55 3c121.333 0 209.333 -48.333 264 -145c32.667 -59.333 49 -127.666 49 -204.999c0 -32 -2.66699 -65.667 -8 -101
c-19.333 -118.667 -65.333 -219.334 -138 -302.001c-80 -91.333 -173.167 -137 -279.5 -137s-173.833 29.667 -202.5 89c-8.66699 18.667 -13 38.5 -13 59.5s5.66699 43.167 17 66.5c22 42.667 52 64 90 64c3.33301 0 5.5 -1.83301 6.5 -5.5s0.666992 -7.5 -1 -11.5
s-4.16699 -6 -7.5 -6c-22.667 0 -42.334 -14.667 -59.001 -44c-10.667 -20.667 -16 -39.667 -16 -57s3.33301 -33.333 10 -48c21.333 -45.333 72.333 -68 153 -68c91.333 0 174 46.667 248 140c66.667 84 109.667 182.667 129 296c6.66699 36.667 10 71.334 10 104.001
c0 72.667 -16.333 134 -49 184c-43.333 67.333 -111.333 101 -204 101c-116 0 -203 -39 -261 -117c-29.333 -40 -44 -77.333 -44 -112c0 -14 3 -21 9 -21c-4 -13.333 -12.333 -20 -25 -20zM409.001 373.998c-2 0 -45.3311 -1.66797 -129.998 -5.00098
c-31.333 -154.667 -47 -267 -47 -337c0 -8.66699 -4.66699 -13 -14 -13c-20 0 -30 26.667 -30 80c0 90 7 179 21 267c-42.667 -1.33301 -69.334 -2 -80.001 -2c-19.333 0 -30.333 6.66699 -33 20c0.666992 10 4.66699 16 12 18c2.66699 -4 9.66699 -6 21 -6h85
c16.667 90.667 38.5 164.834 65.5 222.501s53.167 86.5 78.5 86.5c10.667 0 16 -5.33301 16 -16c-32 -66.667 -61.667 -164 -89 -292c35.333 0.666992 80.666 1 135.999 1c5.33301 0 8 -2.66699 8 -8c0 -10.667 -6.66699 -16 -20 -16z" />
    <glyph glyph-name="Ntilde" unicode="&#xd1;" horiz-adv-x="693" 
d="M398 871c-16.667 0 -32.665 -13.6689 -47.998 -41.002h-31c5.33301 16.667 14.333 31.334 27 44.001c23.333 23.333 47.666 35 72.999 35c12 0 27.167 -7.83301 45.5 -23.5s32.833 -23.5 43.5 -23.5s19.834 2.83301 27.501 8.5s14.834 14.5 21.501 26.5h30
c-8.66699 -19.333 -22.334 -37.166 -41.001 -53.499s-35.834 -24.5 -51.501 -24.5s-33.334 8.66699 -53.001 26s-34.167 26 -43.5 26zM528.002 25.998c0 -92.667 20.6592 -138.999 61.9922 -138.999c25.333 0 48 19.667 68 59c3.33301 6.66699 9 8.66699 17 6
c4 -1.33301 5 -4.16602 3 -8.49902s-4.66699 -9.66602 -8 -15.999s-9.16602 -16 -17.499 -29s-18.666 -23.667 -30.999 -32s-25.166 -12.5 -38.499 -12.5c-80.667 0 -121 63.667 -121 191c0 131.333 43 335.666 129 612.999l16 51c1.33301 5.33301 -0.166992 8 -4.5 8
s-8.5 -1.66699 -12.5 -5c-37.333 -32.667 -77.166 -80.834 -119.499 -144.501s-81.166 -130.834 -116.499 -201.501c-65.333 -129.333 -112.666 -230.166 -141.999 -302.499s-53.666 -108.5 -72.999 -108.5c-14 0 -21 7.33301 -21 22v2c8 18 23.333 67.667 46 149
c40 142 62.667 268.667 68 380c0.666992 8 1 15.333 1 22c0 43.333 -7.66699 81 -23 113s-42.333 48 -81 48s-66.334 -17.667 -83.001 -53c-5.33301 -11.333 -8 -21 -8 -29s2.33301 -12 7 -12c-1.33301 -9.33301 -9 -14 -23 -14s-21 9 -21 27
c0 27.333 13.833 51.666 41.5 72.999s61.834 32 102.501 32c96.667 0 145 -88 145 -264c0 -38 -3.33301 -76.667 -10 -116h9c154.667 294 274.334 441 359.001 441c30 0 45 -16.667 45 -50c-20.667 -51.333 -43.667 -121.333 -69 -210c-64 -218.667 -96 -382 -96 -490z" />
    <glyph glyph-name="Ograve" unicode="&#xd2;" horiz-adv-x="684" 
d="M416 962c24.667 -24 48.167 -49.5 70.5 -76.5s33.5 -43.5 33.5 -49.5s-3.66699 -9 -11 -9s-22.833 8.5 -46.5 25.5s-48.5 38.167 -74.5 63.5c-10 9.33301 -15 17.5 -15 24.5s2 13.833 6 20.5s9.33301 10 16 10s13.667 -3 21 -9zM564 468c0 122 -27.668 183 -83.001 183
c0 4.66699 2.33301 9 7 13c8.66699 7.33301 19.334 11 32.001 11c44.667 0 74 -34.667 88 -104c6 -28 9 -57.667 9 -89c0 -59.333 -10.333 -125.333 -31 -198c-34.667 -124.667 -87 -217.667 -157 -279c-48 -42 -99.667 -63 -155 -63c-90 0 -151 45.667 -183 137
c-15.333 42.667 -23 90 -23 142s7.33301 108.333 22 169c30 120.667 79 217.334 147 290.001c58.667 62.667 121.667 94 189 94c18.667 0 33 -4.16699 43 -12.5s15 -16.833 15 -25.5l1 -12c-6.66699 2.66699 -19 4 -37 4c-72 0 -135.833 -46 -191.5 -138
s-89.834 -195.667 -102.501 -311c-3.33301 -29.333 -5 -56.333 -5 -81c0 -76 15 -134.333 45 -175c24 -31.333 55.333 -47 94 -47c80.667 0 146.834 55.167 198.501 165.5s77.5 219.166 77.5 326.499z" />
    <glyph glyph-name="Oacute" unicode="&#xd3;" horiz-adv-x="684" 
d="M575 928c-20 -24 -41.999 -46.999 -65.999 -68.999s-39.333 -33 -46 -33s-10 3.33301 -10 10s7.66699 22.167 23 46.5s30.166 44.666 44.499 60.999s25 24.5 32 24.5s13.5 -1.5 19.5 -4.5s9 -7.66699 9 -14s-2 -13.5 -6 -21.5zM564.001 468.001
c0 122 -27.668 183 -83.001 183c0 4.66699 2.33301 9 7 13c8.66699 7.33301 19.334 11 32.001 11c44.667 0 74 -34.667 88 -104c6 -28 9 -57.667 9 -89c0 -59.333 -10.333 -125.333 -31 -198c-34.667 -124.667 -87 -217.667 -157 -279c-48 -42 -99.667 -63 -155 -63
c-90 0 -151 45.667 -183 137c-15.333 42.667 -23 90 -23 142s7.33301 108.333 22 169c30 120.667 79 217.334 147 290.001c58.667 62.667 121.667 94 189 94c18.667 0 33 -4.16699 43 -12.5s15 -16.833 15 -25.5l1 -12c-6.66699 2.66699 -19 4 -37 4
c-72 0 -135.833 -46 -191.5 -138s-89.834 -195.667 -102.501 -311c-3.33301 -29.333 -5 -56.333 -5 -81c0 -76 15 -134.333 45 -175c24 -31.333 55.333 -47 94 -47c80.667 0 146.834 55.167 198.501 165.5s77.5 219.166 77.5 326.499z" />
    <glyph glyph-name="Ocircumflex" unicode="&#xd4;" horiz-adv-x="684" 
d="M519.5 944c5.66699 0 9.5 -2.33301 11.5 -7l60 -117h-29l-45 76l-130 -76h-29c64 53.333 112 92.333 144 117c6 4.66699 11.833 7 17.5 7zM564 468c0 122 -27.668 183 -83.001 183c0 4.66699 2.33301 9 7 13c8.66699 7.33301 19.334 11 32.001 11
c44.667 0 74 -34.667 88 -104c6 -28 9 -57.667 9 -89c0 -59.333 -10.333 -125.333 -31 -198c-34.667 -124.667 -87 -217.667 -157 -279c-48 -42 -99.667 -63 -155 -63c-90 0 -151 45.667 -183 137c-15.333 42.667 -23 90 -23 142s7.33301 108.333 22 169
c30 120.667 79 217.334 147 290.001c58.667 62.667 121.667 94 189 94c18.667 0 33 -4.16699 43 -12.5s15 -16.833 15 -25.5l1 -12c-6.66699 2.66699 -19 4 -37 4c-72 0 -135.833 -46 -191.5 -138s-89.834 -195.667 -102.501 -311c-3.33301 -29.333 -5 -56.333 -5 -81
c0 -76 15 -134.333 45 -175c24 -31.333 55.333 -47 94 -47c80.667 0 146.834 55.167 198.501 165.5s77.5 219.166 77.5 326.499z" />
    <glyph glyph-name="Otilde" unicode="&#xd5;" horiz-adv-x="684" 
d="M496 895.5c18.667 -15.667 35.334 -23.5 50.001 -23.5s28.667 12 42 36h31c-1.33301 -2 -2.83301 -4.83301 -4.5 -8.5s-5.83398 -10 -12.501 -19s-13.334 -17.167 -20.001 -24.5c-18.667 -18 -36.667 -27 -54 -27s-35.833 8.83301 -55.5 26.5s-33.834 26.5 -42.501 26.5
s-17 -3.33301 -25 -10s-16 -17 -24 -31h-31c10.667 31.333 31.334 54.333 62.001 69c12 6 24.333 9 37 9s28.334 -7.83301 47.001 -23.5zM564 468c0 122 -27.668 183 -83.001 183c0 4.66699 2.33301 9 7 13c8.66699 7.33301 19.334 11 32.001 11
c44.667 0 74 -34.667 88 -104c6 -28 9 -57.667 9 -89c0 -59.333 -10.333 -125.333 -31 -198c-34.667 -124.667 -87 -217.667 -157 -279c-48 -42 -99.667 -63 -155 -63c-90 0 -151 45.667 -183 137c-15.333 42.667 -23 90 -23 142s7.33301 108.333 22 169
c30 120.667 79 217.334 147 290.001c58.667 62.667 121.667 94 189 94c18.667 0 33 -4.16699 43 -12.5s15 -16.833 15 -25.5l1 -12c-6.66699 2.66699 -19 4 -37 4c-72 0 -135.833 -46 -191.5 -138s-89.834 -195.667 -102.501 -311c-3.33301 -29.333 -5 -56.333 -5 -81
c0 -76 15 -134.333 45 -175c24 -31.333 55.333 -47 94 -47c80.667 0 146.834 55.167 198.501 165.5s77.5 219.166 77.5 326.499z" />
    <glyph glyph-name="Odieresis" unicode="&#xd6;" horiz-adv-x="684" 
d="M424 816c-14 0 -21 13.332 -21 39.999c0 16 4.16699 33 12.5 51s20.5 27 36.5 27c14 0 21 -8 21 -24c0 -13.333 -12.333 -38.666 -37 -75.999zM566 815.999c-14 0 -21 13.332 -21 39.999c0 16 4.33301 33 13 51s21 27 37 27c13.333 0 20 -8 20 -24
c0 -13.333 -12.333 -38.666 -37 -75.999zM564 467.998c0 122 -27.668 183 -83.001 183c0 4.66699 2.33301 9 7 13c8.66699 7.33301 19.334 11 32.001 11c44.667 0 74 -34.667 88 -104c6 -28 9 -57.667 9 -89c0 -59.333 -10.333 -125.333 -31 -198
c-34.667 -124.667 -87 -217.667 -157 -279c-48 -42 -99.667 -63 -155 -63c-90 0 -151 45.667 -183 137c-15.333 42.667 -23 90 -23 142s7.33301 108.333 22 169c30 120.667 79 217.334 147 290.001c58.667 62.667 121.667 94 189 94c18.667 0 33 -4.16699 43 -12.5
s15 -16.833 15 -25.5l1 -12c-6.66699 2.66699 -19 4 -37 4c-72 0 -135.833 -46 -191.5 -138s-89.834 -195.667 -102.501 -311c-3.33301 -29.333 -5 -56.333 -5 -81c0 -76 15 -134.333 45 -175c24 -31.333 55.333 -47 94 -47c80.667 0 146.834 55.167 198.501 165.5
s77.5 219.166 77.5 326.499z" />
    <glyph glyph-name="multiply" unicode="&#xd7;" horiz-adv-x="587" 
d="M65 6c-4 -4 -7.66699 -6 -11 -6s-5 4 -5 12s5.83301 18.833 17.5 32.5l173.5 207.5l-43 73l-47 80l-31 53c-9.33301 14.667 -7.66602 22 5.00098 22c14 0 29 -12.333 45 -37l91 -168l172 205c4 4 7.5 6 10.5 6s5.5 -1.83301 7.5 -5.5s3 -7.5 3 -11.5
c0 -12 -10 -30.167 -30 -54.5s-69.333 -80.166 -148 -167.499c38.667 -74 73 -137 103 -189c6 -9.33301 5.33301 -14 -2 -14c-10 0 -21.667 11.333 -35 34c-26.667 49.333 -55.334 98 -86.001 146c-100 -112.667 -163.333 -185.334 -190 -218.001z" />
    <glyph glyph-name="Oslash" unicode="&#xd8;" horiz-adv-x="684" 
d="M525 674c62.667 -4 94 -68.333 94 -193c0 -108.667 -28.667 -221 -86 -337s-131.333 -182 -222 -198l-25 -83c-9.33301 -31.333 -14.833 -49.333 -16.5 -54s-4.16699 -7 -7.5 -7c-2 0 -5.33301 1.16699 -10 3.5s-7 7.16602 -7 14.499s1 14 3 20l30 102h-4
c-90 0 -151 45.667 -183 137c-15.333 42.667 -23 90 -23 142s7.33301 108.333 22 169c30 120.667 79 217.334 147 290.001c58.667 62.667 121.667 94 189 94c18.667 0 33 -4.16699 43 -12.5s15 -16.833 15 -25.5l1 -12c-6.66699 2.66699 -19 4 -37 4
c-72 0 -135.833 -46.167 -191.5 -138.5s-90.167 -196.166 -103.5 -311.499c-3.33301 -28.667 -5 -55.334 -5 -80.001c0 -76 15.333 -134.333 46 -175c23.333 -30.667 54.333 -46.334 93 -47.001c156.667 554 240.667 853.667 252 899c2 6.66699 5.66699 10 11 10
c2 0 4.33301 -0.666992 7 -2c11.333 -4 17 -13 17 -27c0 -9.33301 -6.66699 -36.666 -20 -81.999zM514 208c18.667 57.333 31.332 108.668 37.999 154.001s10 81.333 10 108c0 87.333 -16 143.666 -48 168.999l-194 -659c41.333 9.33301 79.333 35.333 114 78
s61.334 92.667 80.001 150z" />
    <glyph glyph-name="Ugrave" unicode="&#xd9;" horiz-adv-x="767" 
d="M516 836c24 -22.667 47.3301 -47.667 69.9971 -75s34 -44.333 34 -51s-3.66699 -10 -11 -10s-22.666 8.5 -45.999 25.5s-44.166 34.167 -62.499 51.5s-27.5 29.5 -27.5 36.5s2.16699 13.833 6.5 20.5s9.83301 10 16.5 10s13.334 -2.66699 20.001 -8zM610.997 36
c0 -99.333 17.667 -148.998 53 -148.998c18.667 0 37.667 19.667 57 59c3.33301 6.66699 7.66602 9.16699 12.999 7.5s8 -3.66699 8 -6s-3.33301 -10.833 -10 -25.5s-17.167 -29.667 -31.5 -45s-28.833 -23 -43.5 -23c-69.333 0 -104 69 -104 207
c0 72 6.33301 148.333 19 229h-10c-102 -193.333 -180.667 -290 -236 -290c-67.333 0 -101 40 -101 120c0 32 9.83301 80.5 29.5 145.5l59.5 201.5c20 69.333 30 123 30 161c0 80 -32.667 120 -98 120c-60.667 0 -106 -34.667 -136 -104
c-20 -46.667 -30 -93.334 -30 -140.001c0 -22.667 2.33301 -45.334 7 -68.001c14.667 -69.333 45.667 -104 93 -104c-4.66699 -9.33301 -11 -14 -19 -14c-60 0 -99 38 -117 114c-6 24 -9 48 -9 72c0 51.333 13 103 39 155c38.667 76 95.667 114 171 114
c58 0 100.167 -16.167 126.5 -48.5s39.5 -74.333 39.5 -126s-18.667 -139.334 -56 -263.001s-56 -204.667 -56 -243s13 -57.5 39 -57.5c21.333 0 53.333 32.667 96 98c70 108.667 131.333 226.334 184 353.001c20.667 50 42.334 75 65.001 75c14.667 0 22 -7.66699 22 -23
c-28.667 -68 -51.5 -150.167 -68.5 -246.5s-25.5 -181.5 -25.5 -255.5z" />
    <glyph glyph-name="Uacute" unicode="&#xda;" horiz-adv-x="767" 
d="M681 803c-20 -24 -42.333 -47.166 -67 -69.499s-40.167 -33.5 -46.5 -33.5s-9.5 3.16699 -9.5 9.5s7.5 21.666 22.5 45.999s33.167 48.5 54.5 72.5c8.66699 10 16.5 15 23.5 15s12.833 -1.66699 17.5 -5c8 -4 12 -9 12 -15s-2.33301 -12.667 -7 -20zM611 36.001
c0 -99.333 17.667 -148.998 53 -148.998c18.667 0 37.667 19.667 57 59c3.33301 6.66699 7.66602 9.16699 12.999 7.5s8 -3.66699 8 -6s-3.33301 -10.833 -10 -25.5s-17.167 -29.667 -31.5 -45s-28.833 -23 -43.5 -23c-69.333 0 -104 69 -104 207
c0 72 6.33301 148.333 19 229h-10c-102 -193.333 -180.667 -290 -236 -290c-67.333 0 -101 40 -101 120c0 32 9.83301 80.5 29.5 145.5l59.5 201.5c20 69.333 30 123 30 161c0 80 -32.667 120 -98 120c-60.667 0 -106 -34.667 -136 -104
c-20 -46.667 -30 -93.334 -30 -140.001c0 -22.667 2.33301 -45.334 7 -68.001c14.667 -69.333 45.667 -104 93 -104c-4.66699 -9.33301 -11 -14 -19 -14c-60 0 -99 38 -117 114c-6 24 -9 48 -9 72c0 51.333 13 103 39 155c38.667 76 95.667 114 171 114
c58 0 100.167 -16.167 126.5 -48.5s39.5 -74.333 39.5 -126s-18.667 -139.334 -56 -263.001s-56 -204.667 -56 -243s13 -57.5 39 -57.5c21.333 0 53.333 32.667 96 98c70 108.667 131.333 226.334 184 353.001c20.667 50 42.334 75 65.001 75c14.667 0 22 -7.66699 22 -23
c-28.667 -68 -51.5 -150.167 -68.5 -246.5s-25.5 -181.5 -25.5 -255.5z" />
    <glyph glyph-name="Ucircumflex" unicode="&#xdb;" horiz-adv-x="767" 
d="M615.5 866c5.66699 0 9.5 -2.33301 11.5 -7l60 -118h-28l-46 77l-130 -77h-29l144 118c6 4.66699 11.833 7 17.5 7zM611 36c0 -99.333 17.667 -148.998 53 -148.998c18.667 0 37.667 19.667 57 59c3.33301 6.66699 7.66602 9.16699 12.999 7.5s8 -3.66699 8 -6
s-3.33301 -10.833 -10 -25.5s-17.167 -29.667 -31.5 -45s-28.833 -23 -43.5 -23c-69.333 0 -104 69 -104 207c0 72 6.33301 148.333 19 229h-10c-102 -193.333 -180.667 -290 -236 -290c-67.333 0 -101 40 -101 120c0 32 9.83301 80.5 29.5 145.5l59.5 201.5
c20 69.333 30 123 30 161c0 80 -32.667 120 -98 120c-60.667 0 -106 -34.667 -136 -104c-20 -46.667 -30 -93.334 -30 -140.001c0 -22.667 2.33301 -45.334 7 -68.001c14.667 -69.333 45.667 -104 93 -104c-4.66699 -9.33301 -11 -14 -19 -14c-60 0 -99 38 -117 114
c-6 24 -9 48 -9 72c0 51.333 13 103 39 155c38.667 76 95.667 114 171 114c58 0 100.167 -16.167 126.5 -48.5s39.5 -74.333 39.5 -126s-18.667 -139.334 -56 -263.001s-56 -204.667 -56 -243s13 -57.5 39 -57.5c21.333 0 53.333 32.667 96 98
c70 108.667 131.333 226.334 184 353.001c20.667 50 42.334 75 65.001 75c14.667 0 22 -7.66699 22 -23c-28.667 -68 -51.5 -150.167 -68.5 -246.5s-25.5 -181.5 -25.5 -255.5z" />
    <glyph glyph-name="Udieresis" unicode="&#xdc;" horiz-adv-x="767" 
d="M488 712c-14 0 -21 13.332 -21 39.999c0 15.333 4.16699 32 12.5 50s20.5 27 36.5 27c14 0 21 -7.66699 21 -23c0 -13.333 -12.333 -38.666 -37 -75.999zM630 711.999c-14 0 -21 12.999 -21 38.999c0 16 4.33301 33 13 51s21 27 37 27c13.333 0 20 -7.66699 20 -23
c0 -13.333 -12.333 -38.666 -37 -75.999zM611 35.998c0 -99.333 17.667 -148.998 53 -148.998c18.667 0 37.667 19.667 57 59c3.33301 6.66699 7.66602 9.16699 12.999 7.5s8 -3.66699 8 -6s-3.33301 -10.833 -10 -25.5s-17.167 -29.667 -31.5 -45s-28.833 -23 -43.5 -23
c-69.333 0 -104 69 -104 207c0 72 6.33301 148.333 19 229h-10c-102 -193.333 -180.667 -290 -236 -290c-67.333 0 -101 40 -101 120c0 32 9.83301 80.5 29.5 145.5l59.5 201.5c20 69.333 30 123 30 161c0 80 -32.667 120 -98 120c-60.667 0 -106 -34.667 -136 -104
c-20 -46.667 -30 -93.334 -30 -140.001c0 -22.667 2.33301 -45.334 7 -68.001c14.667 -69.333 45.667 -104 93 -104c-4.66699 -9.33301 -11 -14 -19 -14c-60 0 -99 38 -117 114c-6 24 -9 48 -9 72c0 51.333 13 103 39 155c38.667 76 95.667 114 171 114
c58 0 100.167 -16.167 126.5 -48.5s39.5 -74.333 39.5 -126s-18.667 -139.334 -56 -263.001s-56 -204.667 -56 -243s13 -57.5 39 -57.5c21.333 0 53.333 32.667 96 98c70 108.667 131.333 226.334 184 353.001c20.667 50 42.334 75 65.001 75c14.667 0 22 -7.66699 22 -23
c-28.667 -68 -51.5 -150.167 -68.5 -246.5s-25.5 -181.5 -25.5 -255.5z" />
    <glyph glyph-name="Yacute" unicode="&#xdd;" horiz-adv-x="747" 
d="M667 800c-19.333 -23.333 -41.332 -46.167 -65.999 -68.5s-40.334 -33.5 -47.001 -33.5s-10 2.66699 -10 8c0 7.33301 7.66699 23.166 23 47.499s33.333 48.166 54 71.499c8.66699 10 16.5 15 23.5 15s13.667 -1.66699 20 -5s9.5 -8.16602 9.5 -14.499
s-2.33301 -13.166 -7 -20.499zM221.001 -303.001c46 0 87.165 12 123.498 36s65.166 50 86.499 78s41.666 71.333 60.999 130s32.5 103.667 39.5 135s14 65.333 21 102s10.833 56.334 11.5 59.001s1.33398 5.83398 2.00098 9.50098l3 16.5c1.33301 7.33301 4 21 8 41h-7
c-93.333 -181.333 -168.666 -272 -225.999 -272c-66.667 0 -100 40 -100 120c0 36 16.667 112.167 50 228.5s50 200.833 50 253.5c0 34 -7.83301 61.5 -23.5 82.5s-40.5 31.5 -74.5 31.5c-60.667 0 -106 -34.667 -136 -104c-20 -46.667 -30 -93.334 -30 -140.001
c0 -22.667 2.33301 -45.334 7 -68.001c14.667 -69.333 45.667 -104 93 -104c-4.66699 -9.33301 -11 -14 -19 -14c-60 0 -99 38 -117 114c-6 24 -9 48 -9 72c0 51.333 13 103 39 155c38.667 76 95.667 114 171 114c58 0 100.167 -16.167 126.5 -48.5s39.5 -74.333 39.5 -126
s-15.5 -134 -46.5 -247s-46.5 -188.667 -46.5 -227s13 -57.5 39 -57.5c22 0 53 31.667 93 95c65.333 100.667 122 210.334 170 329.001c18.667 46.667 39.667 70 63 70c14.667 0 22 -7.66699 22 -23c-23.333 -56.667 -46.666 -151.667 -69.999 -285
c-27.333 -156 -55.666 -267.667 -84.999 -335c-12.667 -29.333 -29.667 -60.833 -51 -94.5s-44.5 -60.334 -69.5 -80.001s-55.333 -36.167 -91 -49.5s-74.5 -20 -116.5 -20c-102 0 -173.667 34.667 -215 104c-19.333 33.333 -29 69 -29 107c0 20.667 3 42 9 64
c15.333 56 44.333 94.333 87 115c18 8.66699 34 13 48 13c22 0 35 -6.33301 39 -19l2 -7c-46 0 -82 -24 -108 -72c-16.667 -31.333 -25 -60 -25 -86c0 -99.333 40 -161.333 120 -186c21.333 -6.66699 45 -10 71 -10z" />
    <glyph glyph-name="Thorn" unicode="&#xde;" horiz-adv-x="503" 
d="M57 417c-24 -10 -40.499 -21.5 -49.499 -34.5s-13.5 -23.167 -13.5 -30.5c0 -26.667 19.667 -42.334 59 -47.001c22 122.667 43.333 227.667 64 315c5.33301 24.667 12.333 43.167 21 55.5s17.334 18.5 26.001 18.5c10.667 0 15.667 -6 15 -18l-77 -371
c8 0.666992 20 2.33398 36 5.00098c33.333 107.333 65.666 193 96.999 257c32 65.333 64 113.666 96 144.999c41.333 40.667 83.666 61 126.999 61c56 0 90 -24.333 102 -73c3.33301 -12 5 -24.667 5 -38c0 -42.667 -15.667 -90 -47 -142
c-48.667 -82 -118.334 -145 -209.001 -189c-47.333 -23.333 -97.333 -39 -150 -47l-23.5 -66.5l-22 -64l-19.5 -54.5c-7.33301 -20 -13.666 -36.167 -18.999 -48.5s-11 -24.166 -17 -35.499c-10.667 -21.333 -20 -32 -28 -32c-14 0 -21 13.5 -21 40.5s13 112.167 39 255.5
c-29.333 2.66699 -51.5 10.5 -66.5 23.5s-22.5 27.5 -22.5 43.5s7.66699 33 23 51s36.333 33.333 63 46zM493.001 685c0 34.667 -13.332 52.998 -39.999 54.998c-55.333 0 -108.333 -46 -159 -138c-42 -78 -83.333 -173.333 -124 -286c96.667 24.667 178 82.334 244 173.001
c47.333 64.667 73.666 125.334 78.999 182.001v14zM85.002 174.998c7.33301 0 21.667 35 43 105l-32 -2c-12 -60 -17.833 -92.167 -17.5 -96.5s2.5 -6.5 6.5 -6.5z" />
    <glyph glyph-name="germandbls" unicode="&#xdf;" horiz-adv-x="402" 
d="M190 23c26.667 0 46.334 10.833 59.001 32.5s19 46.5 19 74.5s-7.33301 53 -22 75l-44 64.5c-14.667 21 -22 44 -22 69s8.16699 49.667 24.5 74s34.166 44.333 53.499 60s37.166 34.667 53.499 57s24.5 44.833 24.5 67.5s-5.66699 40.834 -17 54.501
s-26.666 20.5 -45.999 20.5c-37.333 0 -67.666 -17.167 -90.999 -51.5s-40.5 -78.833 -51.5 -133.5s-20.5 -115.167 -28.5 -181.5s-18 -132.833 -30 -199.5s-28 -127.334 -48 -182.001s-50.167 -99.167 -90.5 -133.5s-90.166 -51.5 -149.499 -51.5
c-71.333 0 -118 24.333 -140 73c-7.33301 17.333 -11 34.833 -11 52.5s5 35.5 15 53.5c16 30.667 38.667 46 68 46c13.333 0 22.666 -5 27.999 -15l2 -5c-29.333 0 -50.333 -15.333 -63 -46c-5.33301 -14 -8 -28.667 -8 -44s5.33301 -31.333 16 -48
c18.667 -28.667 50 -43 94 -43s81.667 17.167 113 51.5s55.5 78.833 72.5 133.5s31.667 115.167 44 181.5l36.5 199c12 66.333 26.167 126.833 42.5 181.5s39.5 99.167 69.5 133.5s65.333 51.5 106 51.5s71.167 -9.5 91.5 -28.5s30.5 -41.167 30.5 -66.5
s-6.33301 -47.166 -19 -65.499s-27.834 -34.666 -45.501 -48.999l-53.5 -43c-18 -14.333 -33.333 -30.333 -46 -48s-19 -36.167 -19 -55.5s5.83301 -37.833 17.5 -55.5s24.5 -32.834 38.5 -45.501s26.833 -29 38.5 -49s17.5 -43.833 17.5 -71.5s-12.167 -54 -36.5 -79
s-56 -37.5 -95 -37.5s-65.167 15.667 -78.5 47c-6 15.333 -9 30.833 -9 46.5s3.66699 31.834 11 48.501c15.333 31.333 36.333 47 63 47c16.667 0 25 -7 25 -21c-26 -8.66699 -44.667 -26.334 -56 -53.001c-4.66699 -10.667 -7 -22.334 -7 -35.001
c0 -38.667 17.667 -58 53 -58z" />
    <glyph glyph-name="agrave" unicode="&#xe0;" horiz-adv-x="478" 
d="M233 684c24.667 -22.667 48.167 -47.5 70.5 -74.5s33.5 -43.833 33.5 -50.5s-3.66699 -10 -11 -10s-22.666 8.5 -45.999 25.5s-48 38.167 -74 63.5c-10 9.33301 -15 17.5 -15 24.5s2 14 6 21s9.16699 10.5 15.5 10.5s13.166 -3.33301 20.499 -10zM84 0
c-54.667 0 -81.999 42.999 -81.999 128.999c0 51.333 12.667 107.666 38 168.999c35.333 86 81.666 144.667 138.999 176c24.667 13.333 47.667 20 69 20s38.166 -4.66699 50.499 -14s20.166 -18.666 23.499 -27.999l6 -13c-2 -11.333 -7.66699 -17 -17 -17
c-10.667 0 -16.834 2.5 -18.501 7.5s-3.5 9.33301 -5.5 13s-6.66699 8.66699 -14 15s-15.666 9.5 -24.999 9.5c-43.333 0 -82.666 -39 -117.999 -117c-40 -90 -60 -174.667 -60 -254c0 -40 8 -60 24 -60c12.667 0 30.5 14.167 53.5 42.5s47.167 63.833 72.5 106.5
c44 73.333 79.667 137 107 191c22.667 48 46 72 70 72c12.667 0 19 -7.66699 19 -23c-6 -12.667 -13.667 -30.667 -23 -54s-21.666 -69.666 -36.999 -138.999s-23 -138.333 -23 -207s10.333 -103 31 -103c8 0 15.333 3.5 22 10.5s12.667 17.5 18 31.5
c2 7.33301 6.66699 11 14 11c2.66699 0 4.66699 -1 6 -3s1.33301 -5.33301 0 -10s-3.66602 -11.167 -6.99902 -19.5s-10.5 -19.5 -21.5 -33.5s-22.5 -21 -34.5 -21c-28 0 -49.5 18.333 -64.5 55s-22.5 80 -22.5 130s3.66699 98 11 144h-10
c-84.667 -144.667 -148.334 -217 -191.001 -217z" />
    <glyph glyph-name="aacute" unicode="&#xe1;" horiz-adv-x="478" 
d="M372 653c-20 -24 -41.998 -46.999 -65.998 -68.999s-39.333 -33 -46 -33s-10 3.33301 -10 10s7.66699 22.167 23 46.5s30.166 44.666 44.499 60.999s25.166 24.5 32.499 24.5c19.333 0 29 -6.66699 29 -20c0 -6 -2.33301 -12.667 -7 -20zM84.002 0.000976562
c-54.667 0 -81.999 42.999 -81.999 128.999c0 51.333 12.667 107.666 38 168.999c35.333 86 81.666 144.667 138.999 176c24.667 13.333 47.667 20 69 20s38.166 -4.66699 50.499 -14s20.166 -18.666 23.499 -27.999l6 -13c-2 -11.333 -7.66699 -17 -17 -17
c-10.667 0 -16.834 2.5 -18.501 7.5s-3.5 9.33301 -5.5 13s-6.66699 8.66699 -14 15s-15.666 9.5 -24.999 9.5c-43.333 0 -82.666 -39 -117.999 -117c-40 -90 -60 -174.667 -60 -254c0 -40 8 -60 24 -60c12.667 0 30.5 14.167 53.5 42.5s47.167 63.833 72.5 106.5
c44 73.333 79.667 137 107 191c22.667 48 46 72 70 72c12.667 0 19 -7.66699 19 -23c-6 -12.667 -13.667 -30.667 -23 -54s-21.666 -69.666 -36.999 -138.999s-23 -138.333 -23 -207s10.333 -103 31 -103c8 0 15.333 3.5 22 10.5s12.667 17.5 18 31.5
c2 7.33301 6.66699 11 14 11c2.66699 0 4.66699 -1 6 -3s1.33301 -5.33301 0 -10s-3.66602 -11.167 -6.99902 -19.5s-10.5 -19.5 -21.5 -33.5s-22.5 -21 -34.5 -21c-28 0 -49.5 18.333 -64.5 55s-22.5 80 -22.5 130s3.66699 98 11 144h-10
c-84.667 -144.667 -148.334 -217 -191.001 -217z" />
    <glyph glyph-name="acircumflex" unicode="&#xe2;" horiz-adv-x="478" 
d="M329 683c4.66699 0 8.66602 -2.66602 11.999 -7.99902l60 -118h-29l-45 77l-130 -77h-30c64 53.333 105.833 87.666 125.5 102.999s31.834 23 36.501 23zM83.999 0.000976562c-54.667 0 -81.999 42.999 -81.999 128.999c0 51.333 12.667 107.666 38 168.999
c35.333 86 81.666 144.667 138.999 176c24.667 13.333 47.667 20 69 20s38.166 -4.66699 50.499 -14s20.166 -18.666 23.499 -27.999l6 -13c-2 -11.333 -7.66699 -17 -17 -17c-10.667 0 -16.834 2.5 -18.501 7.5s-3.5 9.33301 -5.5 13s-6.66699 8.66699 -14 15
s-15.666 9.5 -24.999 9.5c-43.333 0 -82.666 -39 -117.999 -117c-40 -90 -60 -174.667 -60 -254c0 -40 8 -60 24 -60c12.667 0 30.5 14.167 53.5 42.5s47.167 63.833 72.5 106.5c44 73.333 79.667 137 107 191c22.667 48 46 72 70 72c12.667 0 19 -7.66699 19 -23
c-6 -12.667 -13.667 -30.667 -23 -54s-21.666 -69.666 -36.999 -138.999s-23 -138.333 -23 -207s10.333 -103 31 -103c8 0 15.333 3.5 22 10.5s12.667 17.5 18 31.5c2 7.33301 6.66699 11 14 11c2.66699 0 4.66699 -1 6 -3s1.33301 -5.33301 0 -10
s-3.66602 -11.167 -6.99902 -19.5s-10.5 -19.5 -21.5 -33.5s-22.5 -21 -34.5 -21c-28 0 -49.5 18.333 -64.5 55s-22.5 80 -22.5 130s3.66699 98 11 144h-10c-84.667 -144.667 -148.334 -217 -191.001 -217z" />
    <glyph glyph-name="atilde" unicode="&#xe3;" horiz-adv-x="478" 
d="M326 627.5c18.667 -15.667 35.333 -23.501 50 -23.501s28.667 12 42 36h31c-8.66699 -19.333 -22.5 -37.166 -41.5 -53.499s-36.333 -24.5 -52 -24.5s-33.334 8.66699 -53.001 26s-33.834 26 -42.501 26s-17 -3.33301 -25 -10s-16 -17 -24 -31h-31
c10.667 31.333 31.334 54.333 62.001 69c12 6 24.333 9 37 9s28.334 -7.83301 47.001 -23.5zM83.999 -0.000976562c-54.667 0 -81.999 42.999 -81.999 128.999c0 51.333 12.667 107.666 38 168.999c35.333 86 81.666 144.667 138.999 176c24.667 13.333 47.667 20 69 20
s38.166 -4.66699 50.499 -14s20.166 -18.666 23.499 -27.999l6 -13c-2 -11.333 -7.66699 -17 -17 -17c-10.667 0 -16.834 2.5 -18.501 7.5s-3.5 9.33301 -5.5 13s-6.66699 8.66699 -14 15s-15.666 9.5 -24.999 9.5c-43.333 0 -82.666 -39 -117.999 -117
c-40 -90 -60 -174.667 -60 -254c0 -40 8 -60 24 -60c12.667 0 30.5 14.167 53.5 42.5s47.167 63.833 72.5 106.5c44 73.333 79.667 137 107 191c22.667 48 46 72 70 72c12.667 0 19 -7.66699 19 -23c-6 -12.667 -13.667 -30.667 -23 -54s-21.666 -69.666 -36.999 -138.999
s-23 -138.333 -23 -207s10.333 -103 31 -103c8 0 15.333 3.5 22 10.5s12.667 17.5 18 31.5c2 7.33301 6.66699 11 14 11c2.66699 0 4.66699 -1 6 -3s1.33301 -5.33301 0 -10s-3.66602 -11.167 -6.99902 -19.5s-10.5 -19.5 -21.5 -33.5s-22.5 -21 -34.5 -21
c-28 0 -49.5 18.333 -64.5 55s-22.5 80 -22.5 130s3.66699 98 11 144h-10c-84.667 -144.667 -148.334 -217 -191.001 -217z" />
    <glyph glyph-name="adieresis" unicode="&#xe4;" horiz-adv-x="478" 
d="M233 559c-14 0 -21 13.333 -21 40c0 16 4.33301 32.833 13 50.5s21 26.5 37 26.5c13.333 0 20 -7.66699 20 -23c0 -8 -4 -19.833 -12 -35.5s-16 -29.5 -24 -41.5zM376 559c-14 0 -21 13.667 -21 41c0 16 4.16699 32.667 12.5 50s20.5 26 36.5 26c14 0 21 -7.66699 21 -23
s-12.333 -41 -37 -77zM84 0c-54.667 0 -81.999 42.999 -81.999 128.999c0 51.333 12.667 107.666 38 168.999c35.333 86 81.666 144.667 138.999 176c24.667 13.333 47.667 20 69 20s38.166 -4.66699 50.499 -14s20.166 -18.666 23.499 -27.999l6 -13
c-2 -11.333 -7.66699 -17 -17 -17c-10.667 0 -16.834 2.5 -18.501 7.5s-3.5 9.33301 -5.5 13s-6.66699 8.66699 -14 15s-15.666 9.5 -24.999 9.5c-43.333 0 -82.666 -39 -117.999 -117c-40 -90 -60 -174.667 -60 -254c0 -40 8 -60 24 -60c12.667 0 30.5 14.167 53.5 42.5
s47.167 63.833 72.5 106.5c44 73.333 79.667 137 107 191c22.667 48 46 72 70 72c12.667 0 19 -7.66699 19 -23c-6 -12.667 -13.667 -30.667 -23 -54s-21.666 -69.666 -36.999 -138.999s-23 -138.333 -23 -207s10.333 -103 31 -103c8 0 15.333 3.5 22 10.5
s12.667 17.5 18 31.5c2 7.33301 6.66699 11 14 11c2.66699 0 4.66699 -1 6 -3s1.33301 -5.33301 0 -10s-3.66602 -11.167 -6.99902 -19.5s-10.5 -19.5 -21.5 -33.5s-22.5 -21 -34.5 -21c-28 0 -49.5 18.333 -64.5 55s-22.5 80 -22.5 130s3.66699 98 11 144h-10
c-84.667 -144.667 -148.334 -217 -191.001 -217z" />
    <glyph glyph-name="aring" unicode="&#xe5;" horiz-adv-x="478" 
d="M260.5 686c13.667 14 30.834 21 51.501 21s37.834 -7 51.501 -21s20.5 -31.167 20.5 -51.5s-6.83301 -37.5 -20.5 -51.5s-30.834 -21 -51.501 -21s-37.834 7.16699 -51.501 21.5s-20.5 31.5 -20.5 51.5s6.83301 37 20.5 51zM281.5 606.5
c7.66699 -7.66699 17.334 -11.5 29.001 -11.5s21.5 3.83301 29.5 11.5s12 17.334 12 29.001s-4 21.334 -12 29.001s-17.833 11.5 -29.5 11.5s-21.334 -3.83301 -29.001 -11.5s-11.5 -17.334 -11.5 -29.001s3.83301 -21.334 11.5 -29.001zM84 0
c-54.667 0 -81.999 42.999 -81.999 128.999c0 51.333 12.667 107.666 38 168.999c35.333 86 81.666 144.667 138.999 176c24.667 13.333 47.667 20 69 20s38.166 -4.66699 50.499 -14s20.166 -18.666 23.499 -27.999l6 -13c-2 -11.333 -7.66699 -17 -17 -17
c-10.667 0 -16.834 2.5 -18.501 7.5s-3.5 9.33301 -5.5 13s-6.66699 8.66699 -14 15s-15.666 9.5 -24.999 9.5c-43.333 0 -82.666 -39 -117.999 -117c-40 -90 -60 -174.667 -60 -254c0 -40 8 -60 24 -60c12.667 0 30.5 14.167 53.5 42.5s47.167 63.833 72.5 106.5
c44 73.333 79.667 137 107 191c22.667 48 46 72 70 72c12.667 0 19 -7.66699 19 -23c-6 -12.667 -13.667 -30.667 -23 -54s-21.666 -69.666 -36.999 -138.999s-23 -138.333 -23 -207s10.333 -103 31 -103c8 0 15.333 3.5 22 10.5s12.667 17.5 18 31.5
c2 7.33301 6.66699 11 14 11c2.66699 0 4.66699 -1 6 -3s1.33301 -5.33301 0 -10s-3.66602 -11.167 -6.99902 -19.5s-10.5 -19.5 -21.5 -33.5s-22.5 -21 -34.5 -21c-28 0 -49.5 18.333 -64.5 55s-22.5 80 -22.5 130s3.66699 98 11 144h-10
c-84.667 -144.667 -148.334 -217 -191.001 -217z" />
    <glyph glyph-name="ae" unicode="&#xe6;" horiz-adv-x="648" 
d="M520 485c50.667 0 76.0059 -29.668 76.0059 -89.001c0 -34 -11.333 -69.667 -34 -107c-34.667 -55.333 -80 -86 -136 -92l-18 -1c-10 0 -18.333 1.66699 -25 5s-11.667 8.33301 -15 15c47.333 0 90.666 27.333 129.999 82c32 44 48 84.333 48 121c0 27.333 -11 41 -33 41
c-44 0 -85 -34.333 -123 -103c-40.667 -74.667 -61 -151.334 -61 -230.001c0 -66.667 19 -106.667 57 -120c7.33301 -2.66699 16.666 -4 27.999 -4s23.333 2.83301 36 8.5s23.334 12.5 32.001 20.5c17.333 16 31.666 33.667 42.999 53c2.66699 5.33301 7.66699 8 15 8
c12 0 17.333 -2 16 -6c-1.33301 -7.33301 -8.5 -19.666 -21.5 -36.999s-25 -31.166 -36 -41.499s-25.333 -19.666 -43 -27.999s-35.5 -12.5 -53.5 -12.5c-57.333 0 -97.333 21.333 -120 64c-16 30 -24 65 -24 105c0 17.333 1.66699 35.666 5 54.999
c-86.667 -128 -146.334 -192 -179.001 -192c-54.667 0 -82 43 -82 129c0 51.333 12.667 107.666 38 168.999c35.333 86 81.666 144.667 138.999 176c24.667 13.333 47.667 20 69 20s38.166 -4.66699 50.499 -14s20.166 -18.666 23.499 -27.999l6 -13
c-2 -11.333 -7.66699 -17 -17 -17c-10.667 0 -16.834 2.5 -18.501 7.5s-3.5 9.33301 -5.5 13s-6.66699 8.66699 -14 15s-15.666 9.5 -24.999 9.5c-43.333 0 -82.666 -39 -117.999 -117c-40 -90 -60 -174.667 -60 -254c0 -40 7.83301 -60 23.5 -60s48.667 34.667 99 104
s89.666 131 117.999 185s60.5 94.167 96.5 120.5s73.667 39.5 113 39.5z" />
    <glyph glyph-name="ccedilla" unicode="&#xe7;" horiz-adv-x="388" 
d="M71 -103c-13.333 6.66699 -5.33594 32.6631 23.9971 77.9961c-26.667 8.66699 -48 24.334 -64 47.001c-19.333 28.667 -29 66.334 -29 113.001c0 92.667 30 178.334 90 257.001c20.667 27.333 45 49.166 73 65.499s55 24.5 81 24.5s45 -7.66699 57 -23c18 58 41 87 69 87
c10.667 0 16 -5.66699 16 -17l-20.5 -31.5c-8.33301 -13 -19.5 -36.167 -33.5 -69.5s-21 -62.666 -21 -87.999c0 -8.66699 -3.66699 -13 -11 -13c-8.66699 0 -13.667 7.66699 -15 23c0 26 2.33301 50.333 7 73c-4 20.667 -18.667 31 -44 31
c-48 0 -90.167 -36.333 -126.5 -109s-54.5 -143.667 -54.5 -213c0 -86.667 27.333 -130 82 -130c21.333 0 41.5 6.66699 60.5 20s32.5 26.666 40.5 39.999l13 21c2.66699 6 8.33398 9 17.001 9s13 -2 13 -6v-3c-2.66699 -7.33301 -10 -19.166 -22 -35.499
s-23.5 -29.5 -34.5 -39.5s-25.167 -19.167 -42.5 -27.5s-32.166 -12.5 -44.499 -12.5s-23.833 0.666992 -34.5 2l-28 -51c17.333 8.66699 37 13 59 13c33.333 0 53.333 -12.667 60 -38c0.666992 -4.66699 1 -9.66699 1 -15c0 -19.333 -11.167 -39.166 -33.5 -59.499
s-52.666 -30.5 -90.999 -30.5s-59.5 10.333 -63.5 31c-2.66699 14 1.66602 24 12.999 30c2.66699 1.33301 6 2 10 2c6.66699 0 11.334 -4 14.001 -12c-10 0 -15.333 -5 -16 -15c-1.33301 -11.333 5.66699 -18.666 21 -21.999l14 -1c40 0 69 14.667 87 44
c7.33301 12 11 22.667 11 32s-3.33301 17.666 -10 24.999s-16 11 -28 11s-22.167 -1.16699 -30.5 -3.5s-15.5 -5 -21.5 -8s-10 -4.83301 -12 -5.5h-2z" />
    <glyph glyph-name="egrave" unicode="&#xe8;" horiz-adv-x="389" 
d="M192 684c24.667 -22.667 48.165 -47.5 70.498 -74.5s33.5 -43.833 33.5 -50.5s-3.66699 -10 -11 -10s-22.666 8.5 -45.999 25.5s-48 38.167 -74 63.5c-10 9.33301 -15 17.5 -15 24.5s2 14 6 21s9.33301 10.5 16 10.5s13.334 -3.33301 20.001 -10zM260.998 485
c50.667 0 76.002 -29.6699 76.002 -89.0029c0 -34 -11.333 -69.667 -34 -107c-38.667 -62 -90 -93 -154 -93c-10 0 -18.333 1.66699 -25 5s-11.667 8.33301 -15 15c47.333 0 90.666 27.333 129.999 82c32 44 48 84.333 48 121c0 27.333 -11 41 -33 41
c-44 0 -85 -34.333 -123 -103c-40.667 -74.667 -61 -151.334 -61 -230.001c0 -66.667 19 -106.667 57 -120c7.33301 -2.66699 16.666 -4 27.999 -4s23.333 2.83301 36 8.5s23.334 12.5 32.001 20.5c17.333 16 31.666 33.667 42.999 53c2.66699 5.33301 7.66699 8 15 8
c12 0 17.667 -2 17 -6c-2 -7.33301 -9.5 -19.666 -22.5 -36.999s-25 -31.166 -36 -41.499s-25.333 -19.666 -43 -27.999s-35.5 -12.5 -53.5 -12.5c-70.667 0 -115.667 33.333 -135 100c-6 22.667 -9 46 -9 70c0 44.667 10.333 93.334 31 146.001
c32.667 80 77.667 137.667 135 173c31.333 18.667 63.333 28 96 28z" />
    <glyph glyph-name="eacute" unicode="&#xe9;" horiz-adv-x="389" 
d="M334 653c-20 -24 -42.333 -46.998 -67 -68.998s-40.167 -33 -46.5 -33s-9.5 3.16699 -9.5 9.5s7.66699 21.666 23 45.999s33.333 48.166 54 71.499c8.66699 10 16.5 15 23.5 15s13.5 -1.5 19.5 -4.5s9 -7.66699 9 -14s-2 -13.5 -6 -21.5zM261 485.002
c50.667 0 76.002 -29.6699 76.002 -89.0029c0 -34 -11.333 -69.667 -34 -107c-38.667 -62 -90 -93 -154 -93c-10 0 -18.333 1.66699 -25 5s-11.667 8.33301 -15 15c47.333 0 90.666 27.333 129.999 82c32 44 48 84.333 48 121c0 27.333 -11 41 -33 41
c-44 0 -85 -34.333 -123 -103c-40.667 -74.667 -61 -151.334 -61 -230.001c0 -66.667 19 -106.667 57 -120c7.33301 -2.66699 16.666 -4 27.999 -4s23.333 2.83301 36 8.5s23.334 12.5 32.001 20.5c17.333 16 31.666 33.667 42.999 53c2.66699 5.33301 7.66699 8 15 8
c12 0 17.667 -2 17 -6c-2 -7.33301 -9.5 -19.666 -22.5 -36.999s-25 -31.166 -36 -41.499s-25.333 -19.666 -43 -27.999s-35.5 -12.5 -53.5 -12.5c-70.667 0 -115.667 33.333 -135 100c-6 22.667 -9 46 -9 70c0 44.667 10.333 93.334 31 146.001
c32.667 80 77.667 137.667 135 173c31.333 18.667 63.333 28 96 28z" />
    <glyph glyph-name="ecircumflex" unicode="&#xea;" horiz-adv-x="389" 
d="M285 683c4.66699 0 8.33301 -2.66699 11 -8l60 -118h-28l-46 77l-130 -77h-29l144 118c7.33301 5.33301 13.333 8 18 8zM260.999 485c50.667 0 76.002 -29.6699 76.002 -89.0029c0 -34 -11.333 -69.667 -34 -107c-38.667 -62 -90 -93 -154 -93
c-10 0 -18.333 1.66699 -25 5s-11.667 8.33301 -15 15c47.333 0 90.666 27.333 129.999 82c32 44 48 84.333 48 121c0 27.333 -11 41 -33 41c-44 0 -85 -34.333 -123 -103c-40.667 -74.667 -61 -151.334 -61 -230.001c0 -66.667 19 -106.667 57 -120
c7.33301 -2.66699 16.666 -4 27.999 -4s23.333 2.83301 36 8.5s23.334 12.5 32.001 20.5c17.333 16 31.666 33.667 42.999 53c2.66699 5.33301 7.66699 8 15 8c12 0 17.667 -2 17 -6c-2 -7.33301 -9.5 -19.666 -22.5 -36.999s-25 -31.166 -36 -41.499
s-25.333 -19.666 -43 -27.999s-35.5 -12.5 -53.5 -12.5c-70.667 0 -115.667 33.333 -135 100c-6 22.667 -9 46 -9 70c0 44.667 10.333 93.334 31 146.001c32.667 80 77.667 137.667 135 173c31.333 18.667 63.333 28 96 28z" />
    <glyph glyph-name="edieresis" unicode="&#xeb;" horiz-adv-x="389" 
d="M197 559c-14 0 -21 13.333 -21 40c0 16 4.16699 32.833 12.5 50.5s20.5 26.5 36.5 26.5c14 0 21 -7.66699 21 -23c0 -8 -4 -19.833 -12 -35.5s-16 -29.5 -24 -41.5zM339 559c-14 0 -21 13.333 -21 40c0 16 4.33301 32.833 13 50.5s21 26.5 37 26.5
c13.333 0 20 -7.66699 20 -23c0 -8 -4 -19.833 -12 -35.5s-16 -29.5 -24 -41.5zM261 485c50.667 0 76.002 -29.6699 76.002 -89.0029c0 -34 -11.333 -69.667 -34 -107c-38.667 -62 -90 -93 -154 -93c-10 0 -18.333 1.66699 -25 5s-11.667 8.33301 -15 15
c47.333 0 90.666 27.333 129.999 82c32 44 48 84.333 48 121c0 27.333 -11 41 -33 41c-44 0 -85 -34.333 -123 -103c-40.667 -74.667 -61 -151.334 -61 -230.001c0 -66.667 19 -106.667 57 -120c7.33301 -2.66699 16.666 -4 27.999 -4s23.333 2.83301 36 8.5
s23.334 12.5 32.001 20.5c17.333 16 31.666 33.667 42.999 53c2.66699 5.33301 7.66699 8 15 8c12 0 17.667 -2 17 -6c-2 -7.33301 -9.5 -19.666 -22.5 -36.999s-25 -31.166 -36 -41.499s-25.333 -19.666 -43 -27.999s-35.5 -12.5 -53.5 -12.5
c-70.667 0 -115.667 33.333 -135 100c-6 22.667 -9 46 -9 70c0 44.667 10.333 93.334 31 146.001c32.667 80 77.667 137.667 135 173c31.333 18.667 63.333 28 96 28z" />
    <glyph glyph-name="igrave" unicode="&#xec;" horiz-adv-x="218" 
d="M26 85c0 98.667 10.168 186.667 30.501 264s46.166 116 77.499 116c15.333 0 23 -8.33301 23 -25c-6.66699 -17.333 -15 -40.333 -25 -69s-23.167 -80.5 -39.5 -155.5s-24.5 -141.833 -24.5 -200.5c0 -9.33301 -5 -14 -15 -14c-18 0 -27 28 -27 84zM77.001 684
c24.667 -23.333 48.167 -48.5 70.5 -75.5s33.5 -43.667 33.5 -50s-3.83301 -9.5 -11.5 -9.5s-23.167 8.5 -46.5 25.5s-48 38.167 -74 63.5c-10 9.33301 -15 17.5 -15 24.5s2 13.833 6 20.5s9.33301 10 16 10s13.667 -3 21 -9z" />
    <glyph glyph-name="iacute" unicode="&#xed;" horiz-adv-x="218" 
d="M26 85c0 98.667 10.168 186.667 30.501 264s46.166 116 77.499 116c15.333 0 23 -8.33301 23 -25c-6.66699 -17.333 -15 -40.333 -25 -69s-23.167 -80.5 -39.5 -155.5s-24.5 -141.833 -24.5 -200.5c0 -9.33301 -5 -14 -15 -14c-18 0 -27 28 -27 84zM258.001 653
c-20 -24 -41.998 -46.999 -65.998 -68.999s-39.333 -33 -46 -33s-10 3.33301 -10 10s7.66699 22.167 23 46.5s30.166 44.666 44.499 60.999s25.166 24.5 32.499 24.5c19.333 0 29 -6.66699 29 -20c0 -6 -2.33301 -12.667 -7 -20z" />
    <glyph glyph-name="icircumflex" unicode="&#xee;" horiz-adv-x="218" 
d="M26 85c0 98.667 10.168 186.667 30.501 264s46.166 116 77.499 116c15.333 0 23 -8.33301 23 -25c-6.66699 -17.333 -15 -40.333 -25 -69s-23.167 -80.5 -39.5 -155.5s-24.5 -141.833 -24.5 -200.5c0 -9.33301 -5 -14 -15 -14c-18 0 -27 28 -27 84zM181.001 682
c6 0 10 -2.33301 12 -7l60 -118h-29l-45 77l-130 -77h-29l144 118c5.33301 4.66699 11 7 17 7z" />
    <glyph glyph-name="idieresis" unicode="&#xef;" horiz-adv-x="218" 
d="M26 85c0 98.667 10.168 186.667 30.501 264s46.166 116 77.499 116c15.333 0 23 -8.33301 23 -25c-6.66699 -17.333 -15 -40.333 -25 -69s-23.167 -80.5 -39.5 -155.5s-24.5 -141.833 -24.5 -200.5c0 -9.33301 -5 -14 -15 -14c-18 0 -27 28 -27 84zM85.001 559
c-14 0 -21 13.667 -21 41c0 16 4.16699 32.667 12.5 50s20.5 26 36.5 26c14 0 21 -7.66699 21 -23c0 -8 -4 -19.833 -12 -35.5s-16 -29.5 -24 -41.5zM227.001 559c-14 0 -21 13.333 -21 40c0 16 4.16699 32.833 12.5 50.5s20.5 26.5 36.5 26.5c14 0 21 -7.66699 21 -23
c0 -8 -4 -19.833 -12 -35.5s-16 -29.5 -24 -41.5z" />
    <glyph glyph-name="eth" unicode="&#xf0;" horiz-adv-x="528" 
d="M386 578c35.333 -53.333 53.0049 -124.326 53.0049 -212.993c0 -54.667 -8 -110.5 -24 -167.5s-47.333 -108.5 -94 -154.5s-101.834 -69 -165.501 -69s-107.834 31 -132.501 93c-11.333 28.667 -17 58.834 -17 90.501s5.33301 64.5 16 98.5
c22 69.333 58.333 116.333 109 141c21.333 10.667 44 16 68 16c35.333 0 63.166 -11.833 83.499 -35.5s30.5 -51.834 30.5 -84.501s-4.66699 -65.667 -14 -99c-3.33301 -10.667 -8.33301 -16.667 -15 -18c-10 -2.66699 -13.333 0.666016 -10 9.99902c10 34.667 15 66 15 94
s-7 52.333 -21 73s-34 31 -60 31c-46 0 -83.333 -32 -112 -96c-20 -46 -30 -92 -30 -138c0 -18.667 1.66699 -37.334 5 -56.001c11.333 -64 42.666 -96 93.999 -96c31.333 0 60.666 14 87.999 42c50 50 85.667 132 107 246c7.33301 40 11 72.333 11 97
c0 75.333 -8.33301 132.666 -25 171.999l-57 -30c-8 -4.66699 -12 -4 -12 2c0 8 11.667 18.667 35 32c7.33301 4 15.333 9 24 15c-20 37.333 -49.333 56 -88 56l-8 29c53.333 0 97.666 -21.333 132.999 -64c6 3.33301 18.333 10.666 37 21.999s32.834 19.666 42.501 24.999
s14.5 4.33301 14.5 -3c0 -10.667 -13.333 -23.334 -40 -38.001c-7.33301 -4.66699 -21 -12.334 -41 -23.001z" />
    <glyph glyph-name="ntilde" unicode="&#xf1;" horiz-adv-x="448" 
d="M262.5 627.5c18.333 -15.667 35.0029 -23.501 50.0029 -23.501s29.167 12 42.5 36h30c-8.66699 -19.333 -22.334 -37.166 -41.001 -53.499s-35.834 -24.5 -51.501 -24.5s-33.334 8.66699 -53.001 26s-34 26 -43 26s-17.5 -3.33301 -25.5 -10s-15.667 -17 -23 -31h-31
c10.667 31.333 31.667 54.333 63 69c11.333 6 23.333 9 36 9s28.167 -7.83301 46.5 -23.5zM77.0029 161.999c86 212.667 169.665 319.001 250.998 319.001c34 0 51 -16.333 51 -49l-18 -60.5c-7.33301 -25 -17.166 -69.833 -29.499 -134.5s-18.5 -121.334 -18.5 -170.001
c0 -70.667 10.333 -106 31 -106c8 0 15.667 3.16699 23 9.5s12.333 9.5 15 9.5c9.33301 0 9.33301 -7.33301 0 -22c-3.33301 -4.66699 -9.5 -11 -18.5 -19s-18.167 -12 -27.5 -12c-25.333 0 -45.166 18.167 -59.499 54.5s-21.5 83.5 -21.5 141.5c0 92 14.333 193 43 303
c2.66699 8.66699 0 13 -8 13c-5.33301 0 -11.333 -2.66699 -18 -8c-32 -28 -65.667 -74.333 -101 -139s-63 -122.5 -83 -173.5s-30 -80.667 -30 -89s-4.66699 -12.5 -14 -12.5c-21.333 0 -32 26.333 -32 79c0 99.333 10.167 189.333 30.5 270s44.833 121 73.5 121
c12 0 18 -7.33301 18 -22c-30.667 -99.333 -52.667 -200.333 -66 -303h9z" />
    <glyph glyph-name="ograve" unicode="&#xf2;" horiz-adv-x="413" 
d="M172 738c24 -22.667 47.3311 -47.668 69.998 -75.001s34 -44.333 34 -51s-3.66699 -10 -11 -10s-23.166 8.83301 -47.499 26.5s-48.833 38.834 -73.5 63.501c-10 8.66699 -15 16.5 -15 23.5s1.66699 12.833 5 17.5c4.66699 8.66699 10.334 13 17.001 13
s13.667 -2.66699 21 -8zM121.998 -9.00098c-82 0 -123.003 56.335 -123.003 169.002c0 63.333 16 126.666 48 189.999c40.667 80 89 120 145 120c8 0 14.667 -2 20 -6s9 -10 11 -18c-42 0 -78.333 -33.667 -109 -101s-46 -133.666 -46 -198.999
c0 -79.333 21.667 -119 65 -119c24.667 0 50.334 18.833 77.001 56.5s48.834 87.167 66.501 148.5s26.5 123 26.5 185v12c-20.667 13.333 -37.667 30 -51 50s-20 34.667 -20 44s4.16699 18.166 12.5 26.499s16.833 12.5 25.5 12.5c12.667 0 25 -11.333 37 -34
s20.333 -48.334 25 -77.001c20.667 -14 38.834 -21 54.501 -21s28.167 2.66699 37.5 8c0 -9.33301 -3.33301 -17.666 -10 -24.999s-17 -11 -31 -11s-30 3.33301 -48 10c-0.666992 -64 -10.334 -128.333 -29.001 -193s-44.667 -118.834 -78 -162.501
s-68.666 -65.5 -105.999 -65.5z" />
    <glyph glyph-name="oacute" unicode="&#xf3;" horiz-adv-x="413" 
d="M318 692c-20 -24 -42.333 -46.998 -67 -68.998s-40.167 -33 -46.5 -33s-9.5 3.16699 -9.5 9.5s7.66699 21.666 23 45.999s33.333 48.166 54 71.499c8.66699 10 16.5 15 23.5 15s13.5 -1.5 19.5 -4.5s9 -7.66699 9 -14s-2 -13.5 -6 -21.5zM122 -8.99805
c-82 0 -123.003 56.335 -123.003 169.002c0 63.333 16 126.666 48 189.999c40.667 80 89 120 145 120c8 0 14.667 -2 20 -6s9 -10 11 -18c-42 0 -78.333 -33.667 -109 -101s-46 -133.666 -46 -198.999c0 -79.333 21.667 -119 65 -119c24.667 0 50.334 18.833 77.001 56.5
s48.834 87.167 66.501 148.5s26.5 123 26.5 185v12c-20.667 13.333 -37.667 30 -51 50s-20 34.667 -20 44s4.16699 18.166 12.5 26.499s16.833 12.5 25.5 12.5c12.667 0 25 -11.333 37 -34s20.333 -48.334 25 -77.001c20.667 -14 38.834 -21 54.501 -21
s28.167 2.66699 37.5 8c0 -9.33301 -3.33301 -17.666 -10 -24.999s-17 -11 -31 -11s-30 3.33301 -48 10c-0.666992 -64 -10.334 -128.333 -29.001 -193s-44.667 -118.834 -78 -162.501s-68.666 -65.5 -105.999 -65.5z" />
    <glyph glyph-name="ocircumflex" unicode="&#xf4;" horiz-adv-x="413" 
d="M278 710c6 0 10 -2.66699 12 -8l60 -117h-29l-45 76l-130 -76h-29c64 53.333 112 92.333 144 117c5.33301 5.33301 11 8 17 8zM122 -9c-82 0 -123.003 56.335 -123.003 169.002c0 63.333 16 126.666 48 189.999c40.667 80 89 120 145 120c8 0 14.667 -2 20 -6
s9 -10 11 -18c-42 0 -78.333 -33.667 -109 -101s-46 -133.666 -46 -198.999c0 -79.333 21.667 -119 65 -119c24.667 0 50.334 18.833 77.001 56.5s48.834 87.167 66.501 148.5s26.5 123 26.5 185v12c-20.667 13.333 -37.667 30 -51 50s-20 34.667 -20 44
s4.16699 18.166 12.5 26.499s16.833 12.5 25.5 12.5c12.667 0 25 -11.333 37 -34s20.333 -48.334 25 -77.001c20.667 -14 38.834 -21 54.501 -21s28.167 2.66699 37.5 8c0 -9.33301 -3.33301 -17.666 -10 -24.999s-17 -11 -31 -11s-30 3.33301 -48 10
c-0.666992 -64 -10.334 -128.333 -29.001 -193s-44.667 -118.834 -78 -162.501s-68.666 -65.5 -105.999 -65.5z" />
    <glyph glyph-name="otilde" unicode="&#xf5;" horiz-adv-x="413" 
d="M173.5 689.5c11.667 5.66699 23.833 8.49805 36.5 8.49805s28.167 -7.83301 46.5 -23.5s32.833 -23.5 43.5 -23.5s19.834 2.83301 27.501 8.5s14.834 14.5 21.501 26.5h30c-8.66699 -19.333 -22.334 -37.166 -41.001 -53.499s-35.834 -24.5 -51.501 -24.5
s-33.334 8.66699 -53.001 26s-34 26 -43 26s-17.5 -3.33301 -25.5 -10s-15.667 -17 -23 -31h-32c5.33301 16 14.333 30.333 27 43s24.834 21.834 36.501 27.501zM121.999 -9.00195c-82 0 -123.003 56.335 -123.003 169.002c0 63.333 16 126.666 48 189.999
c40.667 80 89 120 145 120c8 0 14.667 -2 20 -6s9 -10 11 -18c-42 0 -78.333 -33.667 -109 -101s-46 -133.666 -46 -198.999c0 -79.333 21.667 -119 65 -119c24.667 0 50.334 18.833 77.001 56.5s48.834 87.167 66.501 148.5s26.5 123 26.5 185v12
c-20.667 13.333 -37.667 30 -51 50s-20 34.667 -20 44s4.16699 18.166 12.5 26.499s16.833 12.5 25.5 12.5c12.667 0 25 -11.333 37 -34s20.333 -48.334 25 -77.001c20.667 -14 38.834 -21 54.501 -21s28.167 2.66699 37.5 8c0 -9.33301 -3.33301 -17.666 -10 -24.999
s-17 -11 -31 -11s-30 3.33301 -48 10c-0.666992 -64 -10.334 -128.333 -29.001 -193s-44.667 -118.834 -78 -162.501s-68.666 -65.5 -105.999 -65.5z" />
    <glyph glyph-name="odieresis" unicode="&#xf6;" horiz-adv-x="413" 
d="M169 608c-14 0 -21 13 -21 39c0 16 4.33301 33 13 51s21 27 37 27c13.333 0 20 -7.66699 20 -23c0 -8 -4 -19.833 -12 -35.5s-16 -29.167 -24 -40.5zM312 608c-14 0 -21 13.667 -21 41c0 15.333 4.16699 31.833 12.5 49.5s20.5 26.5 36.5 26.5
c13.333 0 20 -7.66699 20 -23c0 -16 -12 -41.333 -36 -76zM122 -9c-82 0 -123.003 56.335 -123.003 169.002c0 63.333 16 126.666 48 189.999c40.667 80 89 120 145 120c8 0 14.667 -2 20 -6s9 -10 11 -18c-42 0 -78.333 -33.667 -109 -101s-46 -133.666 -46 -198.999
c0 -79.333 21.667 -119 65 -119c24.667 0 50.334 18.833 77.001 56.5s48.834 87.167 66.501 148.5s26.5 123 26.5 185v12c-20.667 13.333 -37.667 30 -51 50s-20 34.667 -20 44s4.16699 18.166 12.5 26.499s16.833 12.5 25.5 12.5c12.667 0 25 -11.333 37 -34
s20.333 -48.334 25 -77.001c20.667 -14 38.834 -21 54.501 -21s28.167 2.66699 37.5 8c0 -9.33301 -3.33301 -17.666 -10 -24.999s-17 -11 -31 -11s-30 3.33301 -48 10c-0.666992 -64 -10.334 -128.333 -29.001 -193s-44.667 -118.834 -78 -162.501
s-68.666 -65.5 -105.999 -65.5z" />
    <glyph glyph-name="divide" unicode="&#xf7;" horiz-adv-x="560" 
d="M233 117c-14 0 -21 13.333 -21 40c0 16 4.33301 33 13 51s21 27 37 27c13.333 0 20 -7.66699 20 -23c0 -16 -12 -41.667 -36 -77zM257 383c-14 0 -21 13 -21 39c0 16 4.33301 33 13 51s21 27 37 27c13.333 0 20 -7.66699 20 -23c0 -8 -4 -19.833 -12 -35.5
s-16 -29.5 -24 -41.5zM446 301l-350 -8c-19.333 0 -30.333 6.66699 -33 20c0.666992 10 4.66699 16 12 18c2.66699 -4 9.66699 -6 21 -6h362c6.66699 0 9.66699 -3.66699 9 -11c-2.66699 -8 -9.66699 -12.333 -21 -13z" />
    <glyph glyph-name="oslash" unicode="&#xf8;" horiz-adv-x="399" 
d="M119 -7c-79.333 5.33301 -119.001 64.3311 -119.001 176.998c0 62 15.667 124 47 186c40 80 89.667 123.667 149 131l27 180c0.666992 8 3.66699 12 9 12c1.33301 0 3 -0.333008 5 -1c11.333 -5.33301 17 -19.666 17 -42.999c0 -16.667 -14.833 -110.5 -44.5 -281.5
l-56.5 -327.5c38 11.333 69.167 47.833 93.5 109.5s36.5 119.5 36.5 173.5c0 75.333 -19 113 -57 113c0.666992 2 1.5 4.66699 2.5 8s4.66699 7.83301 11 13.5s14.166 8.5 23.499 8.5c44.667 0 67 -39.333 67 -118c0 -68.667 -17.667 -140.167 -53 -214.5
s-78.333 -116.166 -129 -125.499l-21 -137c-1.33301 -7.33301 -3.66602 -11 -6.99902 -11c-1.33301 0 -2.66602 0.333008 -3.99902 1c-7.33301 4 -11 11.5 -11 22.5s2.16699 33.833 6.5 68.5s6.83301 53 7.5 55zM119.999 361.498c-20.667 -45.667 -34 -86.667 -40 -123
s-9 -65.166 -9 -86.499c0 -78.667 18 -121.334 54 -128.001c3.33301 24.667 25 168 65 430c-26 -16 -49.333 -46.833 -70 -92.5z" />
    <glyph glyph-name="ugrave" unicode="&#xf9;" horiz-adv-x="475" 
d="M350 -75c8 0 15.5059 3.50195 22.5059 10.502s13.5 17.833 19.5 32.5c0.666992 6 4.66699 9 12 9s10.166 -3 8.49902 -9s-4.33398 -13.333 -8.00098 -22s-11.334 -20.167 -23.001 -34.5s-23.5 -21.5 -35.5 -21.5c-26.667 0 -47.334 16.667 -62.001 50
c-15.333 33.333 -23 74.5 -23 123.5s3.66699 99.5 11 151.5h-9c-80.667 -140.667 -142.667 -211 -186 -211c-51.333 0 -77 39.167 -77 117.5s16.667 156.5 50 234.5c36.667 86 69 129 97 129c12 0 18 -7.33301 18 -22c-28 -74 -52 -146 -72 -216s-30 -122.167 -30 -156.5
s8 -51.5 24 -51.5c11.333 0 28.166 13.667 50.499 41s45.166 60.666 68.499 99.999c50 84.667 88.167 156.667 114.5 216s53.5 89 81.5 89c13.333 0 20 -7.33301 20 -22c-42.667 -84.667 -73 -185.667 -91 -303c-7.33301 -46.667 -11 -92.334 -11 -137.001
c0 -65.333 10 -98 30 -98zM204.006 684.002c24.667 -22.667 48.332 -47.668 70.999 -75.001s34 -44.166 34 -50.499s-3.83301 -9.5 -11.5 -9.5s-23.167 8.5 -46.5 25.5s-48 38.167 -74 63.5c-10 9.33301 -15 17.5 -15 24.5s2 14 6 21s9.33301 10.5 16 10.5
s13.334 -3.33301 20.001 -10z" />
    <glyph glyph-name="uacute" unicode="&#xfa;" horiz-adv-x="475" 
d="M382 653c-20 -24 -42.333 -46.998 -67 -68.998s-40.167 -33 -46.5 -33s-9.5 3.16699 -9.5 9.5s7.66699 21.666 23 45.999s33.333 48.166 54 71.499c8.66699 10 16.5 15 23.5 15s13.5 -1.5 19.5 -4.5s9 -7.66699 9 -14s-2 -13.5 -6 -21.5zM350 -74.998
c8 0 15.5059 3.50195 22.5059 10.502s13.5 17.833 19.5 32.5c0.666992 6 4.66699 9 12 9s10.166 -3 8.49902 -9s-4.33398 -13.333 -8.00098 -22s-11.334 -20.167 -23.001 -34.5s-23.5 -21.5 -35.5 -21.5c-26.667 0 -47.334 16.667 -62.001 50
c-15.333 33.333 -23 74.5 -23 123.5s3.66699 99.5 11 151.5h-9c-80.667 -140.667 -142.667 -211 -186 -211c-51.333 0 -77 39.167 -77 117.5s16.667 156.5 50 234.5c36.667 86 69 129 97 129c12 0 18 -7.33301 18 -22c-28 -74 -52 -146 -72 -216s-30 -122.167 -30 -156.5
s8 -51.5 24 -51.5c11.333 0 28.166 13.667 50.499 41s45.166 60.666 68.499 99.999c50 84.667 88.167 156.667 114.5 216s53.5 89 81.5 89c13.333 0 20 -7.33301 20 -22c-42.667 -84.667 -73 -185.667 -91 -303c-7.33301 -46.667 -11 -92.334 -11 -137.001
c0 -65.333 10 -98 30 -98z" />
    <glyph glyph-name="ucircumflex" unicode="&#xfb;" horiz-adv-x="475" 
d="M327 682c6 0 10 -2.33301 12 -7l60 -118h-29l-45 77l-130 -77h-29l144 118c5.33301 4.66699 11 7 17 7zM350 -75c8 0 15.5059 3.50195 22.5059 10.502s13.5 17.833 19.5 32.5c0.666992 6 4.66699 9 12 9s10.166 -3 8.49902 -9s-4.33398 -13.333 -8.00098 -22
s-11.334 -20.167 -23.001 -34.5s-23.5 -21.5 -35.5 -21.5c-26.667 0 -47.334 16.667 -62.001 50c-15.333 33.333 -23 74.5 -23 123.5s3.66699 99.5 11 151.5h-9c-80.667 -140.667 -142.667 -211 -186 -211c-51.333 0 -77 39.167 -77 117.5s16.667 156.5 50 234.5
c36.667 86 69 129 97 129c12 0 18 -7.33301 18 -22c-28 -74 -52 -146 -72 -216s-30 -122.167 -30 -156.5s8 -51.5 24 -51.5c11.333 0 28.166 13.667 50.499 41s45.166 60.666 68.499 99.999c50 84.667 88.167 156.667 114.5 216s53.5 89 81.5 89
c13.333 0 20 -7.33301 20 -22c-42.667 -84.667 -73 -185.667 -91 -303c-7.33301 -46.667 -11 -92.334 -11 -137.001c0 -65.333 10 -98 30 -98z" />
    <glyph glyph-name="udieresis" unicode="&#xfc;" horiz-adv-x="475" 
d="M223 559c-14 0 -21 13.667 -21 41c0 16 4.16699 32.667 12.5 50s20.5 26 36.5 26c13.333 0 20 -7.66699 20 -23c0 -16 -12 -41.667 -36 -77zM365 559c-14 0 -21 13.333 -21 40c0 16 4.16699 32.833 12.5 50.5s20.5 26.5 36.5 26.5c14 0 21 -7.66699 21 -23
c0 -8 -4 -19.833 -12 -35.5s-16 -29.5 -24 -41.5zM350 -75c8 0 15.5059 3.50195 22.5059 10.502s13.5 17.833 19.5 32.5c0.666992 6 4.66699 9 12 9s10.166 -3 8.49902 -9s-4.33398 -13.333 -8.00098 -22s-11.334 -20.167 -23.001 -34.5s-23.5 -21.5 -35.5 -21.5
c-26.667 0 -47.334 16.667 -62.001 50c-15.333 33.333 -23 74.5 -23 123.5s3.66699 99.5 11 151.5h-9c-80.667 -140.667 -142.667 -211 -186 -211c-51.333 0 -77 39.167 -77 117.5s16.667 156.5 50 234.5c36.667 86 69 129 97 129c12 0 18 -7.33301 18 -22
c-28 -74 -52 -146 -72 -216s-30 -122.167 -30 -156.5s8 -51.5 24 -51.5c11.333 0 28.166 13.667 50.499 41s45.166 60.666 68.499 99.999c50 84.667 88.167 156.667 114.5 216s53.5 89 81.5 89c13.333 0 20 -7.33301 20 -22c-42.667 -84.667 -73 -185.667 -91 -303
c-7.33301 -46.667 -11 -92.334 -11 -137.001c0 -65.333 10 -98 30 -98z" />
    <glyph glyph-name="yacute" unicode="&#xfd;" horiz-adv-x="465" 
d="M376 653c-18.667 -23.333 -40.333 -46.167 -65 -68.5s-40.334 -33.5 -47.001 -33.5s-10 2.66699 -10 8c0 8 7.66699 24.167 23 48.5s33.333 47.833 54 70.5c8.66699 10 16.334 15 23.001 15c19.333 0 29 -6.66699 29 -20c0 -6 -2.33301 -12.667 -7 -20zM27.001 -313.001
c60 0 107.003 28.333 141.003 85c29.333 50 52 112.333 68 187c-120.667 -2.66699 -213.334 -48.667 -278.001 -138c-4 -6 -10.333 -7 -19 -3c-4.66699 2.66699 -6 6 -4 10c28.667 43.333 68.667 80.166 120 110.499s113.666 46.833 186.999 49.5
c7.33301 33.333 14.333 72.333 21 117s14.334 88 23.001 130h-9c-86.667 -154 -152.667 -231 -198 -231c-50.667 0 -76 39 -76 117s16.667 156.5 50 235.5s63.666 121.5 90.999 127.5l6 1c11.333 0 17 -7.33301 17 -22l-28 -70.5c-11.333 -29 -26.333 -76.667 -45 -143
s-28 -118 -28 -155s8 -55.5 24 -55.5c18.667 0 48.667 32.333 90 97c60.667 94.667 113.334 190.667 158.001 288c19.333 40.667 40 61 62 61c14 0 21 -7.66699 21 -23c-12.667 -23.333 -28 -67 -46 -131s-32.667 -128.5 -44 -193.5s-21 -115.833 -29 -152.5
c50.667 -8.66699 80 -30.667 88 -66c1.33301 -6 2 -14.167 2 -24.5s-4 -19.333 -12 -27s-15 -11.5 -21 -11.5c1.33301 4.66699 1.66602 12.834 0.999023 24.501s-2.83398 21.5 -6.50098 29.5s-10.5 16.333 -20.5 25s-23 15 -39 19c-51.333 -193.333 -140.333 -290 -267 -290
c-54.667 0 -91 19.333 -109 58c-0.666992 2 -1 3.66699 -1 5c0 4 3.5 6.5 10.5 7.5s12.167 -1.16699 15.5 -6.5c12 -27.333 40 -41 84 -41z" />
    <glyph glyph-name="thorn" unicode="&#xfe;" horiz-adv-x="481" 
d="M344 494c23.333 0 41.5 -7.33301 54.5 -22s19.5 -34.834 19.5 -60.501s-10.167 -81 -30.5 -166s-30.5 -144.167 -30.5 -177.5c0 -49.333 9 -74 27 -74c0 -5.33301 -3.33301 -10.5 -10 -15.5s-14.667 -7.5 -24 -7.5c-43.333 0 -65 34 -65 102
c0 42.667 11.333 106.834 34 192.501s34 140.334 34 164.001s-9.33301 35.5 -28 35.5c-30.667 0 -60.334 -31.167 -89.001 -93.5s-53.834 -138 -75.501 -227s-42.167 -177.833 -61.5 -266.5c-46.667 -213.333 -86.334 -320 -119.001 -320c-13.333 2 -20 24 -20 66
s5.83301 113 17.5 213s31.834 229.667 60.501 389s54.334 285.666 77.001 378.999c6.66699 29.333 17 51.666 31 66.999s25.667 23 35 23c18.667 0 25.667 -7.66699 21 -23c-38 -126 -73.5 -271.167 -106.5 -435.5s-56.5 -293.5 -70.5 -387.5s-21 -145.667 -21 -155
s0.333008 -14 1 -14c16 0 37.667 70.333 65 211c28.667 144.667 62.334 275.334 101.001 392.001c20 60 45.167 110.167 75.5 150.5s62.833 60.5 97.5 60.5z" />
    <glyph glyph-name="ydieresis" unicode="&#xff;" horiz-adv-x="465" 
d="M215 559c-14 0 -21 13.333 -21 40c0 16 4.33301 32.833 13 50.5s21 26.5 37 26.5c13.333 0 20 -7.66699 20 -23c0 -8 -4 -19.833 -12 -35.5s-16 -29.5 -24 -41.5zM358 559c-14 0 -21 13.333 -21 40c0 16 4.16699 32.833 12.5 50.5s20.5 26.5 36.5 26.5
c14 0 21 -7.66699 21 -23s-12.333 -41 -37 -77zM27 -313c60 0 107.003 28.333 141.003 85c29.333 50 52 112.333 68 187c-120.667 -2.66699 -213.334 -48.667 -278.001 -138c-4 -6 -10.333 -7 -19 -3c-4.66699 2.66699 -6 6 -4 10c28.667 43.333 68.667 80.166 120 110.499
s113.666 46.833 186.999 49.5c7.33301 33.333 14.333 72.333 21 117s14.334 88 23.001 130h-9c-86.667 -154 -152.667 -231 -198 -231c-50.667 0 -76 39 -76 117s16.667 156.5 50 235.5s63.666 121.5 90.999 127.5l6 1c11.333 0 17 -7.33301 17 -22l-28 -70.5
c-11.333 -29 -26.333 -76.667 -45 -143s-28 -118 -28 -155s8 -55.5 24 -55.5c18.667 0 48.667 32.333 90 97c60.667 94.667 113.334 190.667 158.001 288c19.333 40.667 40 61 62 61c14 0 21 -7.66699 21 -23c-12.667 -23.333 -28 -67 -46 -131s-32.667 -128.5 -44 -193.5
s-21 -115.833 -29 -152.5c50.667 -8.66699 80 -30.667 88 -66c1.33301 -6 2 -14.167 2 -24.5s-4 -19.333 -12 -27s-15 -11.5 -21 -11.5c1.33301 4.66699 1.66602 12.834 0.999023 24.501s-2.83398 21.5 -6.50098 29.5s-10.5 16.333 -20.5 25s-23 15 -39 19
c-51.333 -193.333 -140.333 -290 -267 -290c-54.667 0 -91 19.333 -109 58c-0.666992 2 -1 3.66699 -1 5c0 4 3.5 6.5 10.5 7.5s12.167 -1.16699 15.5 -6.5c12 -27.333 40 -41 84 -41z" />
    <glyph glyph-name="OE" unicode="&#x152;" horiz-adv-x="1121" 
d="M564 468c0 122 -27.6709 183.003 -83.0039 183.003c0 4.66699 2.33301 9 7 13c8.66699 7.33301 19.334 11 32.001 11c44 0 73.333 -34.333 88 -103c6 -28.667 9 -62 9 -100s-5.66699 -81.667 -17 -131c63.333 70 140.333 115 231 135
c-53.333 19.333 -80 52.666 -80 99.999s23.667 92.166 71 134.499s107 63.5 179 63.5c12.667 0 22 -4.66699 28 -14s9 -18.666 9 -27.999l-1 -13c-5.33301 2.66699 -17 4 -35 4c-60 0 -111 -21.333 -153 -64c-28.667 -30 -43 -59.333 -43 -88c0 -56 41.667 -84 125 -84
c7.33301 0 13.5 -2.16699 18.5 -6.5s8.83301 -10.833 11.5 -19.5c-115.333 0 -212 -44.333 -290 -133c-72.667 -82.667 -109 -174.334 -109 -275.001c0 -58 16.667 -102.667 50 -134c26 -25.333 60 -38 102 -38c94.667 0 167.334 40 218.001 120c32.667 52 49 107 49 165
c0 62 -15.667 98.667 -47 110c-4.66699 2 -10 3 -16 3c8.66699 15.333 24.667 23 48 23c32.667 0 54 -21.667 64 -65c3.33301 -16 5 -32.667 5 -50c0 -40.667 -10 -85.334 -30 -134.001c-36 -84 -90.333 -143 -163 -177c-40 -18.667 -83 -28 -129 -28
c-75.333 0 -132.166 20.667 -170.499 62s-57.166 94.333 -56.499 159c-62 -84.667 -132.667 -127 -212 -127c-90 0 -151 45.667 -183 137c-15.333 42.667 -23 90 -23 142s7.33301 108.333 22 169c30 120.667 79 217.334 147 290.001c58.667 62.667 121.667 94 189 94
c18.667 0 33 -4.16699 43 -12.5s15 -16.833 15 -25.5l1 -12c-6.66699 2.66699 -19 4 -37 4c-72 0 -135.833 -46 -191.5 -138s-89.834 -195.667 -102.501 -311c-3.33301 -29.333 -5 -56.333 -5 -81c0 -76 15 -134.333 45 -175c24 -31.333 55.333 -47 94 -47
c80.667 0 146.834 55.167 198.501 165.5s77.5 219.166 77.5 326.499zM1072 548.003c0 -3.33301 -2.99805 -4.99805 -8.99805 -4.99805c-17.333 0 -26 5 -26 15c0 68 7.66699 122.833 23 164.5s35.666 62.5 60.999 62.5c6 0 11.5 -2.5 16.5 -7.5s7.5 -11.167 7.5 -18.5
c-30.667 -30.667 -52.334 -75.334 -65.001 -134.001c-5.33301 -24.667 -8 -50.334 -8 -77.001z" />
    <glyph glyph-name="oe" unicode="&#x153;" horiz-adv-x="643" 
d="M515 485c51.333 0 77.002 -30.001 77.002 -90.001c0 -33.333 -11.667 -68.666 -35 -105.999c-34.667 -55.333 -80 -86 -136 -92l-18 -1c-10 0 -18.167 1.66699 -24.5 5s-11.166 8.33301 -14.499 15c47.333 0 90.666 27.333 129.999 82c31.333 43.333 47 83.333 47 120
c0 28 -11 42 -33 42c-47.333 0 -89.833 -36.833 -127.5 -110.5s-56.5 -146.167 -56.5 -217.5c0 -86 27.667 -129 83 -129c33.333 0 64.666 17.667 93.999 53c6.66699 8 13.334 17.667 20.001 29c2 5.33301 7.66699 8 17 8s14 -2 14 -6v-2
c-3.33301 -9.33301 -11 -21.833 -23 -37.5s-23.5 -28.667 -34.5 -39s-25.333 -19.666 -43 -27.999s-35.5 -12.5 -53.5 -12.5c-42 0 -74.667 11.667 -98 35s-38 54.666 -44 93.999c-42 -70.667 -86.667 -106 -134 -106c-82 0 -123 57.667 -123 173
c0 66 17.333 132.333 52 199c43.333 82.667 95.666 124 156.999 124c8 0 14.667 -2 20 -6s9 -10 11 -18c-46 0 -85.833 -35.5 -119.5 -106.5s-50.5 -141.167 -50.5 -210.5c0 -79.333 21.333 -119 64 -119c34 0 66.667 33 98 99c34.667 72 52 143 52 213
c0 54 -14.333 81 -43 81c0 6.66699 3.5 13.167 10.5 19.5s14.833 9.5 23.5 9.5c34.667 0 53.667 -26.667 57 -80c53.333 77.333 114.666 116 183.999 116z" />
    <glyph glyph-name="Scaron" unicode="&#x160;" horiz-adv-x="603" 
d="M367 975h28l65 -76l111 76h31l-145 -118c-14 -11.333 -24.333 -11.333 -31 0zM49 -41c0 -49.333 26 -79.0049 78 -89.0049c10 -2 21.333 -3 34 -3c83.333 0 149.333 26.833 198 80.5s73 121.167 73 202.5c0 32 -5.83301 61.5 -17.5 88.5s-26.167 49.333 -43.5 67
s-36.166 35.5 -56.499 53.5l-56.5 49c-17.333 14.667 -31.833 32.334 -43.5 53.001s-17.5 42.667 -17.5 66c0 61.333 27.5 117.833 82.5 169.5s114.167 77.5 177.5 77.5c12.667 0 22 -4.66699 28 -14s9 -18.666 9 -27.999l-1 -13c-4.66699 2.66699 -16.334 4 -35.001 4
c-42.667 0 -84 -20 -124 -60s-60 -86.333 -60 -139c0 -21.333 5.83301 -42.166 17.5 -62.499s26.167 -38.166 43.5 -53.499l56 -51.5c20 -19 38.667 -37.667 56 -56s31.833 -40.666 43.5 -66.999s17.5 -54.166 17.5 -83.499c0 -80.667 -33.333 -152.334 -100 -215.001
s-149 -94 -247 -94c-82.667 0 -135 26.667 -157 80c-17.333 44 -10.666 92.667 20.001 146s75 89.333 133 108c21.333 6.66699 40.333 10 57 10s28.167 -2.83301 34.5 -8.5s10.5 -14.5 12.5 -26.5c-62.667 0 -116.334 -25.333 -161.001 -76c-34 -38 -51 -76.333 -51 -115z
M513 511.995c0 -3.33301 -3.16797 -5.00098 -9.50098 -5.00098s-12.166 1.33301 -17.499 4s-8 6.33398 -8 11.001c0 68 7.66699 122.667 23 164s35.666 62 60.999 62c6.66699 0 12.334 -2.33301 17.001 -7s7 -10.667 7 -18c-30 -30 -51.667 -75 -65 -135
c-5.33301 -24 -8 -49.333 -8 -76z" />
    <glyph glyph-name="scaron" unicode="&#x161;" horiz-adv-x="379" 
d="M265 702c-6 0 -10.333 2.33301 -13 7l-60 119h29l65 -77l111 77h30l-145 -119c-5.33301 -4.66699 -11 -7 -17 -7zM71 34c0 -46.667 15.001 -69.998 45.001 -69.998c28 0 54.167 23 78.5 69s36.5 104 36.5 174c0 34 -6.16699 82 -18.5 144s-18.5 102.5 -18.5 121.5
s0.666992 31.5 2 37.5c-8.66699 -14 -33.667 -60.5 -75 -139.5s-78 -141.5 -110 -187.5c-2.66699 -2.66699 -6.33398 -3.5 -11.001 -2.5s-8.5 3 -11.5 6s-4.5 5.16699 -4.5 6.5s0.333008 2.33301 1 3c31.333 45.333 67.833 107.833 109.5 187.5s76.5 139.167 104.5 178.5
s55.667 59 83 59c14 0 21 -6 21 -18c0 -8 -5.66699 -18.667 -17 -32c-36 -40.667 -54 -82.334 -54 -125.001c0 -25.333 9.66699 -74.166 29 -146.499s29 -124.833 29 -157.5c0 -58.667 -16.333 -108.5 -49 -149.5s-69.667 -61.5 -111 -61.5c-58.667 0 -88 33.667 -88 101
c0 50.667 15.5 103.667 46.5 159s62.167 92.666 93.5 111.999c6 4 9.83301 1.66699 11.5 -7s0.5 -14.334 -3.5 -17.001c-35.333 -20 -66 -62.667 -92 -128c-18 -46 -27 -85 -27 -117z" />
    </font>
</defs>
</svg>
