<?xml version="1.0" encoding="iso-8859-1"?>
<!-- Generator: Adobe Illustrator 20.1.0, SVG Export Plug-In . SVG Version: 6.00 Build 0)  -->
<svg version="1.1" id="Layer_1" xmlns="http://www.w3.org/2000/svg" xmlns:xlink="http://www.w3.org/1999/xlink" x="0px" y="0px"
	 viewBox="0 0 122 122" style="enable-background:new 0 0 122 122;" xml:space="preserve">
<circle style="fill:#E99E99;" cx="61.02" cy="60.779" r="60"/>
<path style="fill:#FFFFFF;" d="M81.675,26.985H38.463c-2.373,0-4.302,1.883-4.302,4.197V92.42c0,2.315,1.93,4.198,4.302,4.198
	h43.211c2.373,0,4.303-1.883,4.303-4.198V31.182C85.978,28.867,84.047,26.985,81.675,26.985z M83.258,92.42
	c0,0.815-0.71,1.478-1.583,1.478H38.463c-0.873,0-1.583-0.663-1.583-1.478V31.182c0-0.814,0.71-1.477,1.583-1.477h43.211
	c0.873,0,1.583,0.663,1.583,1.477V92.42z M42.055,43.895h29.92c0.749,0,1.36-0.611,1.36-1.36c0-0.75-0.611-1.36-1.36-1.36h-29.92
	c-0.751,0-1.36,0.61-1.36,1.36C40.695,43.284,41.303,43.895,42.055,43.895z M48.002,36.823h24.135c0.749,0,1.36-0.61,1.36-1.36
	c0-0.749-0.611-1.36-1.36-1.36H48.002c-0.751,0-1.36,0.611-1.36,1.36C46.642,36.213,47.251,36.823,48.002,36.823z M42.055,49.743
	h13.6c0.749,0,1.36-0.61,1.36-1.36c0-0.749-0.611-1.36-1.36-1.36h-13.6c-0.751,0-1.36,0.611-1.36,1.36
	C40.695,49.133,41.303,49.743,42.055,49.743z M65.175,48.383c0,0.75,0.609,1.36,1.36,1.36h11.549c0.75,0,1.36-0.61,1.36-1.36
	c0-0.749-0.61-1.36-1.36-1.36H66.535C65.783,47.023,65.175,47.634,65.175,48.383z M42.055,55.591h36.029
	c0.751,0,1.36-0.609,1.36-1.36c0-0.751-0.609-1.36-1.36-1.36H42.055c-0.752,0-1.36,0.609-1.36,1.36
	C40.695,54.982,41.303,55.591,42.055,55.591z M63.815,61.439c0.751,0,1.36-0.609,1.36-1.36c0-0.751-0.609-1.36-1.36-1.36h-8.16
	c-0.752,0-1.36,0.609-1.36,1.36c0,0.751,0.608,1.36,1.36,1.36H63.815z M77.415,61.439c0.751,0,1.36-0.609,1.36-1.36
	c0-0.751-0.609-1.36-1.36-1.36h-8.16c-0.752,0-1.36,0.609-1.36,1.36c0,0.751,0.608,1.36,1.36,1.36H77.415z M42.055,61.439h8.16
	c0.751,0,1.36-0.609,1.36-1.36c0-0.751-0.609-1.36-1.36-1.36h-8.16c-0.752,0-1.36,0.609-1.36,1.36
	C40.695,60.83,41.303,61.439,42.055,61.439z M46.804,65.927c0,0.75,0.61,1.36,1.36,1.36h29.92c0.75,0,1.36-0.61,1.36-1.36
	c0-0.749-0.61-1.36-1.36-1.36h-29.92C47.414,64.567,46.804,65.178,46.804,65.927z M42.055,73.135h36.029
	c0.751,0,1.36-0.609,1.36-1.36c0-0.751-0.609-1.36-1.36-1.36H42.055c-0.752,0-1.36,0.609-1.36,1.36
	C40.695,72.526,41.303,73.135,42.055,73.135z M50.215,81.159h-8.16c-0.751,0-1.36,0.611-1.36,1.36s0.609,1.36,1.36,1.36h8.16
	c0.749,0,1.36-0.611,1.36-1.36S50.964,81.159,50.215,81.159z M75.534,75.921c-1.365,0-2.595,0.557-3.589,1.6
	c-0.994-1.043-2.224-1.6-3.589-1.6c-2.836,0-4.741,1.978-4.741,4.921c0,1.464,0.812,3.026,2.483,4.774
	c0.368,0.386,4.816,4.994,4.86,5.04c0.255,0.269,0.611,0.421,0.983,0.422h0.005c0.372,0,0.728-0.153,0.985-0.422
	c0.039-0.041,4.475-4.636,4.862-5.041c1.671-1.748,2.483-3.31,2.483-4.774C80.275,77.898,78.37,75.921,75.534,75.921z
	 M75.825,83.737c-0.382,0.4-3.849,3.992-3.881,4.024c-0.019-0.019-3.517-3.643-3.881-4.024c-1.505-1.575-1.729-2.49-1.729-2.895
	c0-0.822,0.262-2.201,2.021-2.201c1.179,0,1.944,1.011,2.379,1.86c0.232,0.454,0.701,0.74,1.211,0.74
	c0.511,0,0.978-0.286,1.211-0.74c0.434-0.849,1.199-1.86,2.379-1.86c1.758,0,2.021,1.379,2.021,2.201
	C77.555,81.247,77.33,82.162,75.825,83.737z"/>
</svg>
