<?xml version="1.0" encoding="iso-8859-1"?>
<!-- Generator: Adobe Illustrator 20.1.0, SVG Export Plug-In . SVG Version: 6.00 Build 0)  -->
<svg version="1.1" id="Layer_1" xmlns="http://www.w3.org/2000/svg" xmlns:xlink="http://www.w3.org/1999/xlink" x="0px" y="0px"
	 viewBox="0 0 122 122" style="enable-background:new 0 0 122 122;" xml:space="preserve">
<circle style="fill:#E99E99;" cx="61.02" cy="60.779" r="60"/>
<path style="fill:#FFFFFF;" d="M33.983,45.609c-0.053-0.007-0.109-0.009-0.162-0.009c-0.688,0-1.267,0.515-1.349,1.198
	c-0.228,1.911-0.471,3.715-0.722,5.362c-0.054,0.359,0.034,0.718,0.249,1.01c0.216,0.294,0.532,0.485,0.891,0.54
	c0.068,0.01,0.138,0.015,0.207,0.015c0.322,0,0.635-0.116,0.881-0.325c0.248-0.212,0.412-0.506,0.462-0.829
	c0.258-1.695,0.505-3.53,0.733-5.449c0.043-0.362-0.057-0.717-0.281-1.003C34.667,45.832,34.345,45.652,33.983,45.609z
	 M41.044,45.566c-0.389-0.057-0.785,0.06-1.081,0.314c-0.25,0.213-0.414,0.51-0.46,0.836c-0.273,1.879-0.566,3.671-0.871,5.33
	c-0.136,0.737,0.353,1.447,1.092,1.583c0.082,0.015,0.165,0.023,0.248,0.023c0.656,0,1.217-0.468,1.336-1.114
	c0.313-1.699,0.612-3.527,0.888-5.432C42.301,46.364,41.785,45.673,41.044,45.566z M92.603,28.797H68.077
	c-0.751,0-1.36,0.609-1.36,1.36c0,1.773,0.104,3.51,0.293,5.202c-0.726,0.318-3.343,1.302-7.864,1.302
	c-4.067,0-6.682-0.659-7.752-0.995c0.211-1.79,0.33-3.628,0.33-5.509c0-0.751-0.609-1.36-1.36-1.36H25.839
	c-0.75,0-1.36,0.609-1.36,1.36l0.001,59.183c0,0.751,0.609,1.36,1.36,1.36h12.516c1.139,0,1.359-1.419,1.357-1.448
	c-0.007-6.316-0.791-10.9-2.33-13.626c-0.537-0.95-1.119-1.593-1.679-2.027c1.259-1.213,2.292-3.107,2.292-5.906
	c0-0.334-0.121-0.64-0.321-0.876c1.493-1.836,3.866-5.002,6.255-9.215c0.603-1.063,1.225-2.23,1.843-3.488
	c0.871,0.523,2.35,1.062,4.951,1.488c1.084,1.891,3.108,3.512,4.369,4.521c0.303,0.242,1.087,0.961,2.925,3.044
	c0.096,0.108,0.694,0.582,1.263,0.582c0.001,0,0.409,0.053,0.995-0.584c1.879-2.045,2.62-2.799,2.923-3.042
	c1.312-1.05,3.452-2.763,4.496-4.753c2.561-0.505,4.002-1.058,4.833-1.54c0.663,1.367,1.334,2.63,1.982,3.772
	c2.389,4.213,4.762,7.379,6.255,9.215c-0.2,0.236-0.321,0.542-0.321,0.876c0,2.8,1.033,4.692,2.292,5.906
	c-0.56,0.434-1.143,1.077-1.679,2.028c-1.546,2.738-2.33,7.352-2.33,13.713c0,0.751,0.61,1.36,1.36,1.36h12.514
	c0.751,0,1.36-0.609,1.36-1.36l0.001-59.183C93.963,29.406,93.354,28.797,92.603,28.797z M27.199,69.053h7.958
	c-0.521,2.778-2.598,3.485-3.154,3.626h-4.804V69.053z M36.98,87.98h-9.781V75.451c0,0,6.086-0.005,6.15-0.014
	c0.102,0.001,0.841,0.066,1.665,1.526C35.859,78.46,36.856,81.574,36.98,87.98z M41.602,56.194
	c-1.208,2.137-2.423,4.004-3.511,5.551c-0.099-0.071-0.637-0.258-0.794-0.258c-0.57,0-1.084,0.361-1.278,0.896
	c-0.594,1.648-1.247,3.004-1.892,3.95h-3.295c0.43-0.777,0.833-1.726,1.225-2.889c0.239-0.711-0.144-1.484-0.855-1.723
	c-0.14-0.048-0.287-0.072-0.434-0.072c-0.585,0-1.102,0.372-1.29,0.926v0.001c-0.377,1.122-0.782,2.055-1.175,2.697
	c-0.387,0.654-1.104,1.06-1.104,1.06V31.517h6.61c-0.009,0.159-0.175,2.786-0.301,4.478c-0.057,0.746,0.505,1.401,1.252,1.458
	c0.034,0.003,0.57,0.033,1.026-0.357c0.262-0.224,0.408-0.554,0.434-0.898c0.157-2.081,0.258-3.722,0.313-4.682h4.587
	c-0.011,0.153-0.205,2.736-0.361,4.442c-0.032,0.361,0.077,0.714,0.309,0.994c0.232,0.279,0.56,0.45,0.921,0.484
	c0.043,0.004,0.584-0.019,1.039-0.348c0.276-0.201,0.409-0.542,0.439-0.882c0.195-2.123,0.317-3.773,0.38-4.69h5.137
	c-0.105,3.333-0.592,6.523-1.31,9.509c-0.529,1.834-1.119,3.828-1.661,5.562C44.678,50.323,43.078,53.584,41.602,56.194z M61.5,58
	c-0.527,0.422-1.302,1.195-2.353,2.349c-1.051-1.154-1.826-1.927-2.354-2.349c-1.012-0.81-4.089-3.272-4.089-4.878
	c0-1.519,0.861-2.357,2.425-2.357c1.425,0,2.323,1.092,2.826,2.009c0.238,0.436,0.695,0.706,1.192,0.706h0.001
	c0.496,0,0.954-0.27,1.192-0.706c0.503-0.916,1.401-2.009,2.826-2.009c1.563,0,2.425,0.837,2.425,2.357
	C65.589,54.727,62.511,57.19,61.5,58z M68.274,52.463c-0.279-2.668-2.26-4.417-5.109-4.417c-1.813,0-3.121,0.837-4.018,1.776
	c-0.897-0.94-2.205-1.776-4.018-1.776c-2.933,0-4.948,1.855-5.13,4.659c-1.833-0.381-2.605-0.77-2.901-0.968
	c0.386-0.888,0.916-2.452,1.477-4.235c0.408-1.143,0.792-2.33,1.143-3.555c0.961,0.363,2.361,0.82,4.077,1.179
	c0.092,0.019,1.339,0.09,1.609-1.053c0.083-0.353,0.007-0.719-0.193-1.023c-0.199-0.305-0.503-0.513-0.859-0.586
	c-1.549-0.324-3.812-1.114-3.927-1.159c0.319-1.114,0.599-2.108,0.807-2.851c1.508,0.41,4.16,0.929,7.915,0.929
	c3.642,0,6.218-0.585,7.736-1.075c0.189,0.811,0.45,1.886,0.772,3.108c-1.007,0.411-2.045,0.745-3.1,0.995
	c-0.354,0.084-0.653,0.301-0.843,0.61c-0.192,0.309-0.25,0.673-0.167,1.027c0.147,0.618,0.691,1.064,1.323,1.047
	c0.306-0.009,2.476-0.633,3.522-1.043c0.733,2.493,1.652,5.216,2.699,7.471C70.667,51.753,69.801,52.103,68.274,52.463z
	 M91.242,87.98h-9.781c0.124-6.406,1.121-9.52,1.966-11.016c0.815-1.444,1.547-1.523,1.666-1.526
	c0.064,0.009,6.149,0.014,6.149,0.014V87.98z M91.243,72.68h-4.799c-0.233-0.063-0.889-0.276-1.548-0.802
	c-0.849-0.678-1.389-1.625-1.612-2.824h7.959V72.68z M91.243,66.333c0,0-0.718-0.407-1.104-1.06
	c-0.392-0.641-0.798-1.575-1.175-2.698c-0.187-0.554-0.705-0.926-1.289-0.926c-0.147,0-0.292,0.024-0.434,0.072
	c-0.344,0.115-0.623,0.359-0.785,0.684c-0.162,0.326-0.187,0.695-0.071,1.039c0.393,1.161,0.796,2.111,1.226,2.889h-3.296
	c-0.645-0.945-1.296-2.302-1.892-3.95c-0.194-0.536-0.709-0.896-1.279-0.896c-0.158,0-0.313,0.027-0.463,0.082
	c-0.12,0.044-0.231,0.104-0.331,0.177c-1.075-1.529-2.274-3.372-3.472-5.484c-3.25-5.73-7.097-14.58-7.418-24.744h5.137
	c0.064,0.926,0.186,2.583,0.378,4.689c0.031,0.34,0.188,0.654,0.441,0.882c0.252,0.229,0.575,0.354,0.912,0.354
	c0.043,0,0.084-0.001,0.127-0.005c0.746-0.068,1.297-0.732,1.229-1.478c-0.123-1.352-0.35-4.289-0.361-4.442h4.585
	c0.052,0.92,0.154,2.567,0.313,4.682c0.026,0.345,0.18,0.664,0.434,0.898c0.252,0.232,0.579,0.361,0.922,0.361
	c0.033,0,0.068-0.002,0.104-0.004c0.748-0.056,1.31-0.712,1.254-1.458c-0.13-1.721-0.292-4.306-0.302-4.478h6.61V66.333z
	 M84.457,45.608c-0.36,0.044-0.683,0.224-0.907,0.51c-0.224,0.285-0.325,0.641-0.281,1.002c0.23,1.937,0.477,3.771,0.733,5.45
	c0.05,0.322,0.214,0.617,0.463,0.829c0.246,0.21,0.558,0.325,0.881,0.325c0.068,0,0.137-0.006,0.207-0.017
	c0.359-0.054,0.675-0.246,0.891-0.539c0.215-0.292,0.303-0.651,0.248-1.011c-0.25-1.649-0.494-3.453-0.721-5.361
	c-0.081-0.683-0.662-1.199-1.349-1.199C84.566,45.599,84.512,45.603,84.457,45.608z M78.939,46.716
	c-0.046-0.326-0.21-0.623-0.459-0.836c-0.297-0.256-0.695-0.37-1.082-0.314c-0.359,0.052-0.677,0.24-0.895,0.531
	c-0.216,0.292-0.307,0.65-0.256,1.01c0.278,1.918,0.578,3.745,0.888,5.432c0.118,0.646,0.68,1.114,1.335,1.114
	c0.083,0,0.166-0.008,0.248-0.023c0.737-0.136,1.228-0.846,1.092-1.583C79.504,50.39,79.212,48.597,78.939,46.716z M71.017,77.314
	c-0.132-0.63-0.688-1.081-1.331-1.081H49.695c-0.644,0-1.199,0.451-1.331,1.081l-4.08,19.476c-0.085,0.4,0.017,0.818,0.276,1.136
	c0.258,0.318,0.645,0.502,1.055,0.502h28.151c0.41,0,0.798-0.184,1.056-0.502c0.258-0.318,0.359-0.736,0.275-1.136L71.017,77.314z
	 M52.589,95.709H47.29l3.51-16.756h3.047L52.589,95.709z M55.316,95.709l1.258-16.756h5.821l1.129,16.756H55.316z M66.251,95.709
	l-1.128-16.756h3.459l3.51,16.756H66.251z"/>
</svg>
