<?xml version="1.0" encoding="iso-8859-1"?>
<!-- Generator: Adobe Illustrator 20.1.0, SVG Export Plug-In . SVG Version: 6.00 Build 0)  -->
<svg version="1.1" id="Layer_1" xmlns="http://www.w3.org/2000/svg" xmlns:xlink="http://www.w3.org/1999/xlink" x="0px" y="0px"
	 viewBox="0 0 122 122" style="enable-background:new 0 0 122 122;" xml:space="preserve">
<circle style="fill:#E99E99;" cx="61.02" cy="60.779" r="60"/>
<path style="fill:#FFFFFF;" d="M40.012,65.361c1.654,0,3-1.338,3-2.983c0-1.644-1.346-2.982-3-2.982c-1.654,0-3,1.338-3,2.982
	C37.012,64.023,38.358,65.361,40.012,65.361z M40.012,61.436c0.53,0,0.96,0.423,0.96,0.942c0,0.52-0.431,0.943-0.96,0.943
	c-0.529,0-0.96-0.423-0.96-0.943C39.052,61.859,39.483,61.436,40.012,61.436z M67.075,54.162H45.953c-0.563,0-1.02,0.456-1.02,1.02
	c0,0.563,0.457,1.02,1.02,1.02h21.122c0.563,0,1.02-0.457,1.02-1.02C68.095,54.619,67.638,54.162,67.075,54.162z M37.012,55.182
	c0,1.644,1.346,2.982,3,2.982c1.654,0,3-1.338,3-2.982c0-1.645-1.346-2.983-3-2.983C38.358,52.2,37.012,53.538,37.012,55.182z
	 M40.012,54.24c0.53,0,0.96,0.423,0.96,0.943c0,0.52-0.431,0.942-0.96,0.942c-0.529,0-0.96-0.422-0.96-0.942
	C39.052,54.662,39.483,54.24,40.012,54.24z M39.899,75.165c1.654,0,3-1.338,3-2.983c0-1.644-1.346-2.982-3-2.982
	c-1.654,0-3,1.338-3,2.982C36.899,73.826,38.245,75.165,39.899,75.165z M39.899,71.239c0.53,0,0.96,0.423,0.96,0.942
	c0,0.52-0.431,0.943-0.96,0.943c-0.529,0-0.96-0.423-0.96-0.943C38.939,71.662,39.37,71.239,39.899,71.239z M67.075,61.358H45.953
	c-0.563,0-1.02,0.457-1.02,1.02c0,0.564,0.457,1.02,1.02,1.02h21.122c0.563,0,1.02-0.456,1.02-1.02
	C68.095,61.815,67.638,61.358,67.075,61.358z M48.593,45.658h-7.921c-0.563,0-1.02,0.456-1.02,1.02c0,0.563,0.457,1.02,1.02,1.02
	h7.921c0.563,0,1.02-0.457,1.02-1.02C49.613,46.114,49.156,45.658,48.593,45.658z M82.521,69.019
	c-1.77-1.683-4.593-1.661-6.335,0.066c-1.579,1.565-1.826,4.038-0.587,5.88c0.004,0.005,0.008,0.01,0.011,0.016
	c1.337,1.906,3.016,3.506,4.991,4.753l1.035,0.654c0.269,0.17,0.576,0.254,0.885,0.254c0.308,0,0.616-0.084,0.885-0.254l1.035-0.654
	c1.975-1.248,3.654-2.847,4.99-4.753c0.004-0.006,0.008-0.011,0.011-0.016c1.24-1.842,0.993-4.315-0.586-5.88
	C87.113,67.357,84.291,67.335,82.521,69.019z M87.755,73.819c-1.18,1.68-2.662,3.09-4.404,4.192l-0.829,0.524l-0.83-0.524
	c-1.742-1.102-3.224-2.512-4.404-4.192c-0.688-1.031-0.548-2.411,0.335-3.285c0.973-0.965,2.557-0.965,3.531,0.001l0.203,0.201
	c0.643,0.637,1.689,0.637,2.331,0l0.203-0.201c0.974-0.965,2.557-0.965,3.531,0C88.303,71.408,88.443,72.788,87.755,73.819z
	 M92.122,64.01V40.266c0-2.005-1.642-3.636-3.66-3.636H32.751c-2.018,0-3.66,1.631-3.66,3.636v29.487
	c-1.485,0.178-2.64,1.438-2.64,2.962s1.155,2.784,2.64,2.961v5.02c0,2.005,1.642,3.637,3.66,3.637h6.337
	c0.564,0,1.02-0.456,1.02-1.02c0-0.563-0.456-1.02-1.02-1.02h-6.337c-0.893,0-1.62-0.717-1.62-1.597v-1.849h-0.034v-5.189h-1.647
	c-0.529,0-0.96-0.422-0.96-0.942c0-0.52,0.431-0.943,0.96-0.943h1.647V67.06h0.034V46.259h5.581c0.563,0,1.02-0.457,1.02-1.02
	c0-1.169,0.964-2.12,2.148-2.12h9.505c1.185,0,2.148,0.951,2.148,2.12c0,0.563,0.457,1.02,1.02,1.02h37.529V62.34
	c-2.162-1.446-4.764-2.29-7.561-2.29c-6.16,0-11.373,4.094-13.02,9.682h-22.31v0.013h-1.464c-0.563,0-1.02,0.457-1.02,1.02
	c0,0.564,0.457,1.02,1.02,1.02h21.122c0.022,0,0.04-0.011,0.061-0.012h2.161c-0.074,0.565-0.111,1.142-0.111,1.727
	c0,0.052,0,0.105,0.001,0.157H66.86c-0.004,0-0.007-0.002-0.011-0.002H45.726c-0.563,0-1.02,0.457-1.02,1.02
	c0,0.564,0.457,1.02,1.02,1.02h1.464v0.002h21.95c0.415,2.496,1.525,4.762,3.126,6.595H43.313c-0.563,0-1.02,0.457-1.02,1.02
	c0,0.564,0.457,1.02,1.02,1.02h31.112c0.021,0,0.043-0.001,0.064-0.002c2.25,1.645,5.028,2.619,8.033,2.619
	c7.477,0,13.562-6.034,13.562-13.45C96.083,69.8,94.568,66.444,92.122,64.01z M53.446,44.219c-0.459-1.803-2.106-3.14-4.061-3.14
	H39.88c-1.955,0-3.602,1.337-4.061,3.14h-4.688v-3.953c0-0.88,0.727-1.596,1.62-1.596h55.711c0.893,0,1.62,0.716,1.62,1.596v3.953
	H53.446z M82.521,84.91C76.168,84.91,71,79.791,71,73.5c0-6.291,5.168-11.41,11.521-11.41c6.352,0,11.522,5.119,11.522,11.41
	C94.043,79.791,88.874,84.91,82.521,84.91z"/>
</svg>
