<?xml version="1.0" encoding="iso-8859-1"?>
<svg version="1.1" id="Layer_1" xmlns="http://www.w3.org/2000/svg" xmlns:xlink="http://www.w3.org/1999/xlink" x="0px" y="0px" viewBox="0 0 24 24" style="enable-background:new 0 0 24 24;" xml:space="preserve"><path style="fill:#C55F56;" d="M22.9,0H4.1C3.5,0,3,0.5,3,1.1V3H1.1C0.5,3,0,3.5,0,4.1v18.8C0,23.5,0.5,24,1.1,24h18.8
	c0.6,0,1.1-0.5,1.1-1.1V21h1.9c0.6,0,1.1-0.5,1.1-1.1V1.1C24,0.5,23.5,0,22.9,0z M19,22H2V5h17V22z M22,19h-1V4.1 C21,3.5,20.5,3,19.9,3H5V2h17V19z M16,9H5v1h11V9z M16,11H5v1h11V11z M16,13H5v1h11V13z M16,15H5v1h11V15z M16,17H5v1h11V17z"/>
</svg>
