<?xml version="1.0" encoding="iso-8859-1"?>
<!-- Generator: Adobe Illustrator 20.1.0, SVG Export Plug-In . SVG Version: 6.00 Build 0)  -->
<svg version="1.1" id="Layer_1" xmlns="http://www.w3.org/2000/svg" xmlns:xlink="http://www.w3.org/1999/xlink" x="0px" y="0px"
	 viewBox="0 0 122 122" style="enable-background:new 0 0 122 122;" xml:space="preserve">
<circle style="fill:#E99E99;" cx="61.02" cy="60.779" r="60"/>
<path style="fill:#FFFFFF;" d="M81.967,81.394c0.288,0,0.574-0.122,0.776-0.358c4.285-5.021,6.645-11.427,6.645-18.037
	c0-6.795-2.478-13.336-6.977-18.419c-4.46-5.039-10.573-8.288-17.213-9.149c-0.557-0.072-1.07,0.322-1.143,0.881
	c-0.072,0.558,0.321,1.07,0.881,1.142c12.777,1.658,22.413,12.64,22.413,25.545c0,6.125-2.187,12.061-6.157,16.713
	c-0.365,0.428-0.315,1.072,0.114,1.438C81.497,81.314,81.732,81.394,81.967,81.394z M83.731,63c0-0.564-0.457-1.02-1.02-1.02h-3.96
	c-0.564,0-1.02,0.456-1.02,1.02c0,0.563,0.456,1.02,1.02,1.02h3.96C83.274,64.02,83.731,63.563,83.731,63z M74.444,74.414
	c-0.398-0.398-1.044-0.398-1.442,0c-0.398,0.398-0.398,1.044,0,1.442l2.8,2.8c0.199,0.199,0.46,0.299,0.721,0.299
	c0.261,0,0.522-0.1,0.721-0.299c0.398-0.398,0.398-1.044,0-1.442L74.444,74.414z M77.245,47.343c-0.398-0.398-1.044-0.398-1.442,0
	l-2.8,2.8c-0.398,0.398-0.398,1.044,0,1.442c0.199,0.199,0.46,0.299,0.721,0.299c0.261,0,0.522-0.1,0.721-0.299l2.8-2.8
	C77.643,48.387,77.643,47.741,77.245,47.343z M40.466,61.98c-0.564,0-1.02,0.456-1.02,1.02c0,0.563,0.456,1.02,1.02,1.02h3.96
	c0.563,0,1.02-0.457,1.02-1.02c0-0.564-0.457-1.02-1.02-1.02H40.466z M48.731,74.414l-2.8,2.8c-0.398,0.398-0.398,1.045,0,1.442
	c0.199,0.199,0.46,0.299,0.721,0.299c0.261,0,0.522-0.1,0.721-0.299l2.8-2.8c0.398-0.398,0.398-1.044,0-1.442
	C49.775,74.016,49.13,74.016,48.731,74.414z M85.764,41.256c-5.337-5.93-12.623-9.683-20.516-10.567
	c-0.559-0.064-1.064,0.34-1.127,0.9c-0.063,0.56,0.341,1.065,0.9,1.128C80.438,34.443,92.063,47.463,92.063,63
	c0,16.803-13.67,30.475-30.475,30.475c-16.803,0-30.475-13.672-30.475-30.475c0-3.722,0.662-7.344,1.964-10.782
	c0.723,0.586,1.468,1.145,2.237,1.677c-1.013,2.922-1.527,5.982-1.527,9.105c0,15.329,12.472,27.8,27.8,27.8
	c6.786,0,13.32-2.472,18.401-6.961c0.422-0.373,0.462-1.017,0.089-1.44c-0.373-0.422-1.018-0.462-1.44-0.089
	c-4.707,4.159-10.762,6.449-17.05,6.449c-14.204,0-25.76-11.556-25.76-25.76c0-2.72,0.421-5.388,1.25-7.945l1.682,1.072
	c0.391,0.25,0.84,0.375,1.288,0.375c0.449,0,0.898-0.125,1.289-0.375l2.25-1.434c4.161-2.654,7.698-6.054,10.515-10.106
	c0.004-0.005,0.007-0.011,0.011-0.016c1.327-1.992,1.763-4.365,1.359-6.6c1.665-0.405,3.372-0.643,5.096-0.71v21.405
	c-0.473,0.112-0.919,0.299-1.321,0.548l-4.978-4.977l1.377,0.125c0.562,0.051,1.057-0.362,1.108-0.923
	c0.051-0.561-0.363-1.057-0.924-1.108l-4.183-0.38c-0.007-0.001-0.014,0-0.021-0.001c-0.027-0.002-0.055-0.003-0.083-0.003
	c-0.013,0-0.025,0.001-0.038,0.002c-0.023,0.001-0.046,0.002-0.068,0.005c-0.013,0.001-0.026,0.004-0.039,0.006
	c-0.022,0.003-0.044,0.007-0.066,0.012c-0.013,0.003-0.024,0.006-0.037,0.009c-0.023,0.006-0.045,0.013-0.067,0.021
	c-0.011,0.003-0.022,0.007-0.033,0.011c-0.023,0.009-0.046,0.019-0.069,0.029c-0.01,0.005-0.019,0.009-0.029,0.013
	c-0.023,0.012-0.046,0.025-0.069,0.039c-0.008,0.005-0.016,0.009-0.025,0.015c-0.023,0.015-0.045,0.031-0.067,0.048
	c-0.007,0.005-0.015,0.009-0.021,0.015c-0.028,0.022-0.055,0.047-0.082,0.073c-0.026,0.026-0.05,0.053-0.073,0.082
	c-0.005,0.007-0.01,0.014-0.015,0.021c-0.017,0.022-0.033,0.044-0.048,0.068c-0.005,0.008-0.01,0.017-0.015,0.025
	c-0.014,0.023-0.027,0.046-0.038,0.069c-0.005,0.009-0.009,0.019-0.013,0.029c-0.011,0.023-0.021,0.045-0.029,0.068
	c-0.005,0.011-0.008,0.023-0.012,0.033c-0.007,0.022-0.014,0.044-0.02,0.067c-0.003,0.013-0.007,0.025-0.009,0.038
	c-0.005,0.022-0.008,0.044-0.013,0.066c-0.002,0.013-0.004,0.027-0.005,0.04c-0.003,0.023-0.004,0.045-0.005,0.068
	c-0.001,0.013-0.001,0.025-0.001,0.038c-0.001,0.029,0.001,0.058,0.003,0.086c0.001,0.006,0.001,0.011,0.001,0.017l0.001,0.005
	c0,0.001,0,0.001,0,0.001l0.38,4.177c0.048,0.53,0.493,0.928,1.015,0.928c0.031,0,0.062-0.001,0.093-0.004
	c0.561-0.051,0.975-0.547,0.924-1.108l-0.125-1.377l4.978,4.978c-0.423,0.68-0.668,1.483-0.668,2.342
	c0,2.104,1.468,3.87,3.432,4.333v4.116c0,0.563,0.457,1.02,1.02,1.02c0.564,0,1.02-0.457,1.02-1.02v-4.116
	c0.474-0.112,0.92-0.299,1.322-0.548l2.745,2.745c0.199,0.199,0.46,0.299,0.721,0.299c0.262,0,0.523-0.1,0.722-0.299
	c0.398-0.398,0.398-1.044,0-1.442l-2.746-2.746c0.423-0.681,0.668-1.483,0.668-2.341c0-2.104-1.468-3.871-3.433-4.334V26.903
	c0-0.563-0.456-1.02-1.02-1.02c-0.563,0-1.02,0.457-1.02,1.02v3.599c-2.959,0.092-5.875,0.579-8.682,1.456
	c-0.102,0.032-0.195,0.078-0.279,0.136c-3.357-2.198-7.918-1.824-10.865,1.124L40.3,33.658c-0.139,0.14-0.365,0.14-0.504,0
	l-0.442-0.441c-3.377-3.377-8.87-3.377-12.247,0c-3.023,3.023-3.496,7.797-1.124,11.354c0.003,0.006,0.007,0.011,0.011,0.016
	c1.59,2.288,3.411,4.368,5.443,6.223c-1.568,3.873-2.365,7.971-2.365,12.19c0,8.685,3.382,16.85,9.524,22.991
	c6.141,6.141,14.307,9.524,22.991,9.524c8.685,0,16.851-3.383,22.992-9.524c6.142-6.141,9.523-14.306,9.523-22.991
	C94.103,54.954,91.142,47.232,85.764,41.256z M61.587,60.588C62.918,60.588,64,61.669,64,63c0,1.33-1.082,2.412-2.413,2.412
	c-1.33,0-2.412-1.082-2.412-2.412S60.257,60.588,61.587,60.588z M60.567,32.542v2.677c-1.924,0.07-3.828,0.339-5.684,0.798
	c-0.365-0.852-0.867-1.655-1.499-2.375C55.718,32.992,58.127,32.622,60.567,32.542z M27.674,43.431
	c-1.828-2.749-1.46-6.438,0.875-8.772c2.582-2.581,6.781-2.581,9.363,0l0.441,0.442c0.935,0.934,2.455,0.934,3.39,0l0.441-0.442
	c2.581-2.581,6.781-2.581,9.363,0c2.335,2.335,2.702,6.023,0.875,8.772c-2.661,3.826-6.002,7.036-9.931,9.542l-2.251,1.435
	c-0.116,0.074-0.267,0.074-0.383,0l-2.25-1.435C33.677,50.467,30.335,47.257,27.674,43.431z M61.587,79.142
	c-0.563,0-1.02,0.456-1.02,1.02v3.961c0,0.563,0.457,1.02,1.02,1.02c0.564,0,1.02-0.457,1.02-1.02v-3.961
	C62.607,79.598,62.151,79.142,61.587,79.142z"/>
</svg>
