<?xml version="1.0" standalone="no"?>
<!DOCTYPE svg PUBLIC "-//W3C//DTD SVG 1.1//EN" "http://www.w3.org/Graphics/SVG/1.1/DTD/svg11.dtd">
<svg xmlns="http://www.w3.org/2000/svg">
<metadata>Copyright (C) 2021 by original authors @ fontello.com</metadata>
<defs>
<font id="idoico" horiz-adv-x="1000" >
<font-face font-family="idoico" font-weight="400" font-stretch="normal" units-per-em="1000" ascent="850" descent="-150" />
<missing-glyph horiz-adv-x="1000" />
<glyph glyph-name="right-open-big" unicode="&#xe800;" d="M13-20l358 370-358 372q-26 26 0 48 26 26 48 0l392-394q24-26 0-50l-392-394q-22-26-48 0-26 22 0 48z" horiz-adv-x="465" />

<glyph glyph-name="left-open-big" unicode="&#xe801;" d="M452-20q26-26 0-48-26-26-48 0l-392 394q-24 24 0 50l392 394q22 26 48 0 26-22 0-48l-358-372z" horiz-adv-x="465" />

<glyph glyph-name="calendar" unicode="&#xe802;" d="M71-79h161v161h-161v-161z m197 0h178v161h-178v-161z m-197 197h161v178h-161v-178z m197 0h178v178h-178v-178z m-197 214h161v161h-161v-161z m411-411h179v161h-179v-161z m-214 411h178v161h-178v-161z m428-411h161v161h-161v-161z m-214 197h179v178h-179v-178z m-196 482v161q0 7-6 12t-12 6h-36q-7 0-12-6t-6-12v-161q0-7 6-13t12-5h36q7 0 12 5t6 13z m410-482h161v178h-161v-178z m-214 214h179v161h-179v-161z m214 0h161v161h-161v-161z m18 268v161q0 7-5 12t-13 6h-35q-7 0-13-6t-5-12v-161q0-7 5-13t13-5h35q8 0 13 5t5 13z m215 36v-715q0-29-22-50t-50-21h-786q-29 0-50 21t-21 50v715q0 29 21 50t50 21h72v54q0 37 26 63t63 26h36q37 0 63-26t26-63v-54h214v54q0 37 27 63t63 26h35q37 0 64-26t26-63v-54h71q29 0 50-21t22-50z" horiz-adv-x="928.6" />

<glyph glyph-name="edit" unicode="&#xe803;" d="M750 623c-18 18-45 32-77 32-27 0-55-9-77-32l-323-318c0 0-5-5-5-5l-72-200c-5-4 0-14 4-18 5-5 9-5 14-5 0 0 4 0 4 0l182 55c5 0 5 4 9 4l337 337c18 18 31 45 31 77 0 23-9 50-27 73l0 0z m-368-464l-68-23c-5 14-9 23-18 32-10 9-14 14-23 18l32 87h41v-37c0-9 9-18 18-18h32l-14-59z m268 264l-223-223 5 32c0 4 0 9-5 14-4 4-9 4-13 4h-37v36c0 10-9 19-18 19h-27l218 213 0 0c14 14 32 23 50 23 18 0 36-9 50-23 14-13 23-32 23-50-5-13-9-32-23-45l0 0z m73 73l-18-19c0 28-14 50-32 69-18 22-41 31-68 31l18 19v0c13 13 32 22 50 22 18 0 36-9 50-22 13-14 23-32 23-50-5-19-10-37-23-50l0 0z m-118 4l-182-182c-9-9-9-18 0-27 4-5 9-5 13-5 5 0 10 0 14 5l182 182c9 9 9 18 0 27-9 9-23 9-27 0l0 0z m0 0" horiz-adv-x="1000" />

<glyph glyph-name="print_agree" unicode="&#xe804;" d="M998 748l-116 95-286-349h195l207 254z m-744-670l-152 128-96-115 270-226 307 376h-196l-133-163z m516 198h119v31h-83v39h81v32h-81v35h83v30h-119v-167z m-172 113c0 31-22 54-55 54h-80v-167h37v59h26l33-59h41l-37 63c17 4 35 20 35 50z m-61-22h-37v44h37c15 0 24-9 24-22 0-15-11-22-24-22z m-172-95c29 0 54 13 70 32v65h-79v-32h44v-20c-7-6-20-13-35-13-30 0-52 24-52 55 0 32 22 56 52 56 17 0 31-9 39-22l29 16c-13 21-35 37-68 37-48 0-89-33-89-87 0-53 39-87 89-87z m259 4h119v31h-84v39h82v32h-82v35h84v30h-119v-167z m-470 28h72l11-28h41l-65 167h-46l-65-167h41l11 28z m35 103l26-72h-52l26 72z" horiz-adv-x="1000" />

<glyph glyph-name="print_answer" unicode="&#xe805;" d="M500 850c-209 0-373-168-373-377 0-46 9-87 23-127l105-210c4-13 18-31 36-36 0 0 0 0 0 0v-41c0-23 18-41 41-41v-41c0-23 18-41 41-41v-41c0-22 18-41 41-41h168c23 0 41 19 41 41v41c23 0 41 18 41 41v41c22 0 41 18 41 41v41c0 0 0 0 0 5 18 4 31 22 41 41l104 209c14 41 23 81 23 127 4 200-164 368-373 368z m82-959h-164v41h168v-41z m45 82h-250v41h250v-41z m41 86h-336v41h332v-41z m96 291l-82-168h-359l-87 168c-18 36-27 82-27 127 0 159 132 291 291 291s291-132 291-291c0-45-9-91-27-127z m-264 373v-41c114 0 209-96 209-209h41c0 141-114 250-250 250z" horiz-adv-x="1000" />

<glyph glyph-name="print_details" unicode="&#xe806;" d="M959 850h-668c-23 0-41-18-41-41v-291h-209c-23 0-41-18-41-45v-459c0-82 73-164 168-164h668c82 0 169 82 169 168h0v791c-5 23-23 41-46 41z m-709-832c0-41-36-82-82-82-45 0-82 41-82 82h0v414h169v-414z m668 0l0 0c0-41-41-82-82-82h-527c14 28 27 55 27 82v750h582v-750z m-86 623h-414v-41h418v41z m0-82h-414v-41h418v41z m0-86h-414v-41h418v41z m0-82h-414v-41h418v41z m0-250h-414v-41h418v41z m0 82h-414v-41h418v41z m0 86h-414v-41h418v41z" horiz-adv-x="1000" />

<glyph glyph-name="print_question" unicode="&#xe807;" d="M955 850h-909c-23 0-46-23-46-45v-655c0-27 23-45 46-45h704l250-255v955c0 22-23 45-45 45z m-37-800l-136 136h-700v582h832v-718z m-532 486c23 0 37 19 37 37 0 41 36 77 77 77 41 0 77-36 77-77 0-41-36-77-77-77-23 0-41-37-41-78v-36c0-23 23-36 41-36 23 0 41 18 41 36v23c0 27 41 45 55 54 36 27 59 73 59 118 0 87-69 155-155 155s-154-73-154-155c0-22 18-41 40-41z m123-209c-27 0-45-22-45-45 0-27 22-46 45-46 27 0 46 23 46 46 0 23-19 45-46 45z" horiz-adv-x="1000" />

<glyph glyph-name="down-open-big" unicode="&#xe808;" d="M63 570l370-356 372 356q22 26 48 0 26-22 0-48l-396-392q-22-22-48 0l-396 392q-26 26 0 48 24 24 50 0z" horiz-adv-x="866" />

<glyph glyph-name="view_visit" unicode="&#xe809;" d="M960 850h-920c-20 0-40-20-40-40v-585l375-375h585c25 0 40 20 40 40v920c0 20-20 40-40 40z m-610-895l-245 245h245v-245z m550-5h-500v275c0 25 0 25-25 25h-275v500h800v-800z m-365 370l120 120 95-90v250h-250l90-95-120-120 65-65z" horiz-adv-x="1000" />

<glyph glyph-name="conversation_24_24" unicode="&#xe80a;" d="M946 725h-71v79c0 25-25 46-54 46h-779c-25 0-42-21-42-46v-533c0-25 17-46 42-46l83 0v-79c0-25 17-46 42-46l583 0 250-250v829c0 25-25 46-54 46z m-821-46v-371h-42v459h709v-42h-625c-25 0-42-21-42-46z m792-633l-134 137h-575v459h709v-596z m-125 346h-459v-42h459v42z m0 83h-459v-42h459v42z" horiz-adv-x="1000" />

<glyph glyph-name="new_messages" unicode="&#xe80b;" d="M900-144h-331c-169 0-313 138-313 313v0c0 169 138 312 313 312h331c169 0 313-137 313-312v0c0-169-144-313-313-313z m325 532c0 56-44 100-100 100h-775c-56 0-100-44-100-100v-444c0-57 44-100 100-100h775c56 0 100 43 100 100v444z m-125 25l-356-350c-6-7-13-7-19 0l-356 350h731z m-787-488c0 6 0 12 0 12v451c0 0 0 0 0 0l231-232-231-231z m75-19l200 200 93-87c13-13 38-25 57-25 18 0 43 6 56 25l94 87 200-200h-700z m762 31c0-6 0-12 0-12l-225 231 231 232c0 0 0 0 0 0v-451z m-256 626c12-13 31-13 44 0 12 12 12 31 0 43l-232 232c-12 12-31 12-43 0-13-13-13-32 0-44l231-231z m-175 0c12-13 31-13 44 0 12 12 12 31 0 43l-144 150c-13 13-31 13-44 0-12-12-12-37 0-50l144-143z m-138-32c13-12 32-12 44 0 13 13 13 32 0 44l-94 94c-12 12-31 12-43 0-13-13-13-31 0-44l93-94z m-500-318c-12 12-31 12-43 0-13-13-13-32 0-44l93-94c13-12 32-12 44 0 13 13 13 31 0 44l-94 94z" horiz-adv-x="1250" />

<glyph glyph-name="customer_calendar_input" unicode="&#xe80c;" d="M775 740h-30v30c0 40-35 75-75 75-40 0-75-35-75-75v-35h-75v35c0 40-35 75-75 75-40 0-75-35-75-75v-35h-65v35c0 40-35 75-75 75-40 0-75-35-75-75v-35h-30c-65 0-115-50-115-115v-655c0-65 50-115 115-115h655c65 0 115 50 115 115v660c-5 60-55 115-120 115z m-135 30c0 20 15 35 30 35 20 0 30-15 30-35v-135c0-20-15-35-30-35-20 0-30 15-30 35v135z m-220 0c0 20 15 35 30 35 20 0 30-15 30-35v-135c0-20-15-35-30-35-20 0-30 15-30 35v135z m-220 0c0 20 15 35 30 35 20 0 30-15 30-35v-135c0-20-15-35-30-35-15 5-30 20-30 40v130z m625-800c0-25-20-50-50-50h-650c-25 0-50 20-50 50v600h750v-600z m-60 480h-125v-110h125v110z m-505 0h-125v-110h125v110z m505-150h-125v-110h125v110z m-505 0h-125v-110h125v110z m0-150h-125v-110h125v110z m505 0h-125v-110h125v110z m-335 300h-125v-110h125v110z m0-300h-125v-110h125v110z m0 150h-125v-110h125v110z m165 150h-125v-110h125v110z m0-300h-125v-110h125v110z m0 150h-125v-110h125v110z" horiz-adv-x="900" />

<glyph glyph-name="up-open-big" unicode="&#xe80d;" d="M804 130l-372 358-370-358q-26-22-50 0-24 24 0 50l396 390q26 26 48 0l396-390q24-26 0-50-26-22-48 0z" horiz-adv-x="864" />

<glyph glyph-name="left-arrow" unicode="&#xe80e;" d="M-1 351l496 500 31-30-466-469 465-473-31-30-472 479-23 23z" horiz-adv-x="525" />

<glyph glyph-name="cart" unicode="&#xe80f;" d="M814 59c-59 0-105-45-105-105s46-104 105-104 104 45 104 104-50 105-104 105z m0-168c-37 0-64 27-64 63s27 64 64 64 63-27 63-64-31-63-63-63z m-459 168c-59 0-105-45-105-105s46-104 105-104 104 45 104 104-45 105-104 105z m0-168c-37 0-64 27-64 63s27 64 64 64 63-27 63-64-32-63-63-63z m645 291h-541-177l-96 632c-4 22-22 36-45 36-5 0-100 0-100 0-23 0-41-18-41-41s18-41 41-41h68l18-127h0l78-500c9-18 22-41 45-41h709c23 0 41 23 41 41l0 41z m-645 354l268-272 277 272c0 0 23 23 14 46-9 18-37 18-37 18h-127v209c0 23-18 41-41 41h-168c-23 0-41-18-41-41v-209h-123c0 0-31 5-41-18s19-46 19-46z m227-18v250h82v-250h86l-127-122-123 122h82z" horiz-adv-x="1000" />

<glyph glyph-name="Ñalendar_frontend" unicode="&#xe814;" d="M903 773l-50 0c-5 0-10 0-13-3-17 30-50 53-87 53-38 0-70-20-88-53-5 0-7 3-12 3l-300 0c-5 0-10 0-13-3-17 30-50 53-87 53-38 2-70-20-88-50-5 2-7 2-12 2l-50 0c-55 0-100-45-100-100l-3-700c0-55 45-100 100-100l800-3c55 0 100 45 100 100l3 701c0 55-45 100-100 100z m-150 0c27 0 50-23 50-50l0-100c0-28-23-50-50-50-28 0-50 22-50 50l0 100c0 27 22 50 50 50z m-500 2c27 0 50-22 50-50l0-100c0-27-23-50-50-50s-50 23-50 50l0 100c0 28 22 50 50 50z m697-803c0-27-22-50-50-50l-800 3c-27 0-50 22-50 50l3 700c0 28 22 50 50 50l50 0 0-100c0-7 0-12 2-20 10-45 50-80 98-80s87 35 97 80c0 5 3 13 3 20l0 100 300 0 0-100c0-7 0-12 2-20 10-45 50-80 98-80s87 35 97 80c3 8 3 13 3 20l0 100 50 0c27 0 50-22 50-50l-3-703z m-97 501l-700 2c-28 0-50-22-50-50l0-400c0-28 22-50 50-50l700-3c27 0 50 23 50 51l0 400c0 27-23 50-50 50z m-703-198l100 0 0-100-100 0 0 100z m150 0l100 0 0-100-100 0 0 100z m150 0l100 0 0-100-100 0 0 100z m150-2l100 0 0-100-100 0 0 100z m150 0l100 0 0-100-100 0 0 100z m103 150l0-100-100 0 0 100 100 0z m-150 0l0-100-100 0 0 100 100 0z m-150 0l0-100-100 0 0 100 100 0z m-150 2l0-100-100 0 0 100 100 0z m-150 0l0-100-100 0 0 100 100 0z m-103-400l0 100 100 0 0-100-100 0z m150 0l0 100 100 0 0-100-100 0z m150 0l0 100 100 0 0-100-100 0z m150-2l0 100 100 0 0-100-100 0z m250 0l-100 0 0 100 100 0 0-100z" horiz-adv-x="1000" />

<glyph glyph-name="hexagon" unicode="&#xe815;" d="M980 488l-101 108-8 39 0 1-50 23-123 142-146-12-61 31-77-39-137-7-60-89-105-49-30-145-45-62-1-1 18-57-36-145 0-1 123-149 14-51 1-1 37-15 88-114 187 3 77-33 1 0 54 31 102-2 82 108 129 69 16 110 35 42 0 1-18 75 34 189z m-5-1l-32-176-29 119-33 157 94-100z m-34-188l-3-18-14-98-98-118-45-59-56-30-126-74-108 2-22-1-115 49-158 61-40 52-10 13-42 151-45 142 15 58 12 60 78 107 56 85 85 39 110 56 73 3 62 5 127-64 141-65 14-16 42-45 35-165 32-130z m-75 334l7-30-37 39-7 8 37-17z m-171 163l115-132-131 60-119 61 135 11z m-204 18l51-26-54-4-62-3 65 33z m-211-44l123 5-100-50-77-36 54 81z m-164-137l96 44-52-78-71-98 27 132z m-75-206l38 52-10-49-13-50-15 47z m-18-201l34 135 42-134 39-139-115 138z m137-199l-11 40 3-5 35-45-27 10z m123-127l-81 106 150-58 105-45-174-3z m262-30l-65 28 11 1 99-2-45-27z m154 30l-91 2 119 70 47 25-75-97z m209 175l-116-63 38 50 92 112-14-99z m51 151l-29-35 13 90 1 6 15-61z" horiz-adv-x="1000" />

<glyph glyph-name="bride" unicode="&#xe816;" d="M829 42v316c0 109-29 225-79 313-62 108-150 167-250 167s-192-59-250-167c-50-88-79-204-79-313v-316c-46-42-46-88-46-96v-67c0-12 8-21 21-21h712c13 0 21 9 21 21v67c-4 8-4 54-50 96z m-621 316c0 105 30 213 71 296 42 67 109 146 221 146 113 0 179-79 217-150 46-83 71-192 71-296v-291c-13 8-25 12-42 16-129 46-154 67-154 134 0 0 0 0 0 0v12c16 13 33 25 50 42 12 16 25 33 33 50 29 0 75 16 88 79 8 33-9 54-25 62-9 5-21 5-34 5-8 100-46 166-108 195 0 0 0 0 0 0 0 55-46 100-100 100-54 0-100-45-100-100 0 0 0 0 0 0-58-29-96-95-104-195-13 4-21 0-34-5-16-8-33-29-25-62 13-63 55-79 84-79 8-17 21-34 33-50 17-17 33-29 50-42v-12c0 0 0 0 0 0 0-63-25-88-154-134-17-4-29-12-42-16v295z m292-116c-42 0-83 21-117 54-37 42-58 100-54 162 0 5 0 13 0 17 13 4 50 13 88 33 37 21 62 46 79 80 17-34 42-59 79-80 42-20 79-29 92-33 0-4 0-12 0-17 4-58-13-120-54-162-30-38-71-54-113-54z m83-113c-4-33-37-58-83-58-46 0-79 25-83 58 16 21 25 46 25 79 16-4 37-8 58-8 21 0 38 4 58 8 0-33 9-58 25-79z m-62 513c75-4 121-46 142-129-17 4-38 12-63 25-46 29-71 62-79 104z m-21 41c-21 0-42-4-62-8 8 25 33 46 62 46 29 0 54-21 63-46-21 4-42 8-63 8z m-21-41c-8-42-33-79-79-104-21-13-46-17-62-21 20 79 66 121 141 125z m217-284c8 21 8 42 12 63 5 4 13 4 17 4 4-4 8-12 4-21-8-29-21-37-33-46z m-392 5c-12 4-25 16-29 45 0 13 0 21 4 21 4 0 9 0 13-4 0-25 4-46 12-62z m388-463h-388v21c0 12 46 41 154 41 5-4 21-37 21-41 0-4 4-4 4-4 5-5 9-5 13-5h0 0 0c4 0 8 0 12 5 0 0 5 4 5 4 0 4 20 37 20 41 109 0 155-29 155-41v-21z m146 46v-46h-109v21c0 50-79 79-204 79-12 0-17-8-21-17 0-4-4-8-8-12-4 4-4 8-8 12-5 9-9 17-21 17-125 0-204-29-204-79v-21h-100v46c0 0-5 67 100 100 54 17 91 33 120 54 17-37 63-67 117-67 54 0 100 30 117 67 29-21 71-37 121-54 104-33 100-100 100-100z m-371 492c0 8-9 16-17 16h-50c-8 0-17-8-17-16 0-9 9-17 17-17h50c8 0 17 8 17 17z m133 16h-50c-8 0-17-8-17-16 0-9 9-17 17-17h50c8 0 17 8 17 17 0 8-9 16-17 16z m-67-137c-8 0-16-4-16-13 0 0-4-4-17-4-8 0-17 4-17 4 0 4-8 13-16 13s-17-4-17-13c0-16 25-25 54-25 29 0 54 13 54 25-8 9-16 13-25 13z" horiz-adv-x="1000" />

<glyph glyph-name="groom" unicode="&#xe817;" d="M871 117c-104 41-208 87-208 87v50c0 9-5 13-9 17-4 4-12 4-21 0l-33-13v42c42 29 75 71 96 125 0 0 4 0 4 0 29 0 58 25 67 63 12 41-9 83-42 91 0 0 0 0 0 0 4 92-17 163-58 209-42 41-100 66-179 66-71-4-134-25-171-71-42-45-63-116-59-208 0 0 0 0 0 0-33-8-54-50-41-92 8-37 37-62 66-62 0 0 5 0 5 0 20-54 54-96 95-125v-42l-33 13c-4 4-12 4-21 0-4-4-8-9-8-17v-50c0 0-104-46-208-87-92-38-113-92-113-171v-75c0-13 8-21 21-21h937c13 0 21 8 21 21v75c4 83-12 133-108 175z m-142 416c9-8 13-20 4-37-4-13-12-25-20-29 8 21 12 46 16 66z m-475-37c-4 17 0 29 9 37 4-25 8-45 12-66-8 4-17 16-21 29z m367-271v-83l-83 46 83 37z m-196 54c21-8 46-12 67-12 25 0 46 4 66 12v-37l-66-29-67 29v37z m71 529c67 0 117-16 150-50 21-20 33-50 42-87-80 0-155 17-217 58-46 25-71 54-79 63 25 12 58 16 104 16z m-150-50c4 5 4 5 8 9 0 0 0 0 0 0 0 0 13-17 38-38-29-58-71-71-92-75 8 46 21 79 46 104z m-46-200c0 21 0 38 0 55 25 0 88 12 129 91 4-4 13-8 17-12 50-29 129-63 233-63 4 0 9 0 13 0 0-21 0-46 0-71-13-145-92-254-196-254-104 4-188 109-196 254z m67-333l83-37-83-46v83z m-104-308l16-25h-62v37c0 13-9 21-21 21-13 0-21-8-21-21v-37h-129v54c0 67 12 104 87 133 63 25 121 50 163 67l-63-142c-4-4-4-12 0-21 5-4 9-8 17-8h58l-37-33c-8-9-13-17-8-25z m62-25l-17 33 63 58c4 4 8 13 4 17-4 8-8 13-17 13h-79l46 104v-13c0-8 4-12 8-16 5 0 9-5 9-5 4 0 8 0 8 5l0 0 104-205h-129z m67 221l100 54 100-54-100-201-100 201z m271-221h-138l104 204 0 0c4 0 4-4 9-4 4 0 8 0 8 4 4 4 8 8 8 17v12l46-104h-75c-8 0-17-4-17-13-4-8 0-16 5-21l62-58-12-37z m283 0h-133v37c0 13-9 21-21 21-13 0-21-8-21-21v-37h-63l13 25c4 8 4 16-4 25l-34 33h59c8 0 12 4 16 8 5 4 5 13 0 21l-62 142c42-17 100-42 162-67 75-29 88-66 88-133v-54z m-504 629h-50c-13 0-17 8-17 17s8 16 17 16h50c8 0 16-8 16-16s-8-17-16-17z m154 4h-54c-9 0-17 8-17 17s8 16 17 16h50c8 0 16-8 16-16s-4-17-12-17z m-108-150c-30 0-55 13-55 29 0 4 9 13 21 13s21-4 21-13c0 0 8-4 17-4 12 0 16 4 16 4 0 4 9 13 21 13s21-4 21-13c-4-16-29-29-62-29z" horiz-adv-x="1000" />

<glyph glyph-name="print" unicode="&#xe818;" d="M958 725h-166v83c0 25-17 42-42 42h-500c-25 0-42-17-42-42v-83h-166c-25 0-42-17-42-42v-541c0-25 17-42 42-42h166v-208c0-25 17-42 42-42h500c25 0 42 17 42 42v208h166c25 0 42 17 42 42v541c0 25-17 42-42 42z m-708 83h500v-83h-500v83z m500-916h-500v458h500v-458z m167 291h-125v167h41v83h-666v-83h41v-167h-125v459h834v-459z m-750 334c25 0 41 16 41 41 0 25-16 42-41 42-25 0-42-17-42-42 0-25 17-41 42-41z m125 0c25 0 41 16 41 41 0 25-16 42-41 42-25 0-42-17-42-42 0-25 17-41 42-41z m375-250h-334v-42h334v42z m0-125h-334v-42h334v42z m0-125h-334v-42h334v42z" horiz-adv-x="1000" />

<glyph glyph-name="save" unicode="&#xe819;" d="M500 600h125v167h-125v-167z m167-417h-334v-41h334v41z m0-125h-334v-41h334v41z m125 792h-750c-25 0-42-17-42-42v-916c0-25 17-42 42-42h916c25 0 42 17 42 42v750l-208 208z m-542-42h417v-250h-417v250z m500-875h-500v334h500v-334z m167 0h-125v375h-584v-375h-125v834h125v-250h500v250h63l146-146v-688z" horiz-adv-x="1000" />

<glyph glyph-name="categories_section" unicode="&#xe81a;" d="M913 850h-825c-25 0-46-21-46-46v-908c0-25 21-46 46-46h825c25 0 45 21 45 46v908c0 25-20 46-45 46z m-38-917h-750v834h750v-834z m-125 584h-333v-42h333v42z m0 83h-333v-42h333v42z m-375 0h-125v-125h125v125z m-42-83h-41v41h41v-41z m417-209h-333v-41h333v41z m0 84h-333v-42h333v42z m-375 0h-125v-125h125v125z m-42-84h-41v42h41v-42z m417-208h-333v-42h333v42z m0 83h-333v-41h333v41z m-375 0h-125v-125h125v125z m-42-83h-41v42h41v-42z" horiz-adv-x="1000" />

<glyph glyph-name="icon_input_search" unicode="&#xe81b;" d="M9 450c0 213 173 393 393 393l0 0c213 0 393-173 393-393l0 0c0-220-173-393-393-393l0 0c-213 0-393 173-393 393l0 0z m53 0c0-187 153-340 340-340l0 0c187 0 340 153 340 340l0 0c0 187-153 340-340 340l0 0c-187 0-340-153-340-340l0 0 0 0z m587-280l33 33 313-313-33-33-313 313" horiz-adv-x="1000" />

<glyph glyph-name="funnel" unicode="&#xe81d;" d="M946 846h-888c-16 0-33-17-33-33v-113c0-8 4-17 8-21l0 0 0 0 367-371v-316c0-9 4-21 13-25l137-113c4-4 13-8 21-8 4 0 8 0 12 4 13 4 17 17 17 29v429l367 371 0 0c4 4 8 13 8 21v113c4 20-8 33-29 33z m-408-554v-338l-75 59v279h75z m333 375l-313-313h-112l-313 313h738z m42 112v-46h-825v46h825z" horiz-adv-x="1000" />

<glyph glyph-name="right-arrow" unicode="&#xe81e;" d="M503 328l-472-479-31 30 465 473-466 469 31 30 496-500-23-23z" horiz-adv-x="525" />

<glyph glyph-name="check_list-01" unicode="&#xe844;" d="M692 352c0 102-46 202-114 242h0v242h-380v-242h0c-69-40-114-140-114-242s46-201 114-241h0v-242h380v242h0c69 40 114 140 114 241z m-456 444h304v-165a287 287 0 0 1-304 0z m304-887h-304v165a287 287 0 0 1 304 0z m-152 202a235 235 0 0 0-227 242 235 235 0 0 0 227 242 235 235 0 0 0 228-242 235 235 0 0 0-228-242z m133 242h-133v179a19 19 0 1 1-38 0v-201a20 20 0 0 1 19-20h152a20 20 0 0 1 0 40z" horiz-adv-x="773" />

<glyph glyph-name="check_list-02" unicode="&#xe845;" d="M722 805h-674a43 43 0 0 1-42-46v-825a43 43 0 0 1 42-43h674a43 43 0 0 1 43 43v825a43 43 0 0 1-43 46z m-33-836h-608v492h608z m0 570h-608v36h608z m0 76h-608v36h608z m0 76h-608v35h608z m-114-342h-380v-38h380z m0-76h-380v-38h380z m0-76h-380v-38h380z m0-76h-380v-38h380z" horiz-adv-x="773" />

<glyph glyph-name="time_icon" unicode="&#xe848;" d="M233 146c-16-17-16-42 0-58 17-17 42-17 59 0 16 16 16 41 0 58-13 12-42 12-59 0z m63 471c-17 16-42 16-58 0-21-17-21-46-5-59 17-16 42-16 59 0 16 13 16 42 4 59z m162-600c0-25 17-42 42-42 21 0 42 17 42 42 0 25-17 41-42 41-25 0-42-16-42-41z m-250 333c0 25-16 42-41 42s-42-17-42-42c0-25 17-42 42-42s41 17 41 42z m559 204c16 17 16 42 0 59-17 16-42 16-59 0-16-17-16-42 0-59 13-12 42-12 59 0z m66-246c25 0 42 17 42 42 0 21-17 42-42 42-25 0-41-17-41-42 0-25 16-42 41-42z m-129-225c17-16 42-16 59 0 16 17 16 42 0 59-17 16-42 16-59 0-12-13-12-42 0-59z m-204 642c-25 0-42-17-42-42v-262c-25-13-41-42-41-71 0-46 37-83 83-83 8 0 13 0 21 4l67-67c16-16 41-16 58 0 17 17 17 42 0 59l-67 66c0 9 4 13 4 21 0 29-16 58-41 71v262c0 25-17 42-42 42z m0-417c-4 0-12 0-17 5-4 4-8 4-12 8-8 8-13 17-13 29 0 25 17 42 42 42s42-17 42-42c0-25-17-42-42-42z m0-375c-146 0-275 75-350 192l100 100h-250v-250l92 92c87-130 237-217 408-217 275 0 500 225 500 500h-83c0-229-188-417-417-417z m408 700c-87 134-237 217-408 217-275 0-500-225-500-500h83c0 229 188 417 417 417 146 0 275-75 350-192l-100-100h250v250l-92-92z" horiz-adv-x="1000" />

<glyph glyph-name="settings" unicode="&#xe852;" d="M375 600c-69 0-125-56-125-125 0-69 56-125 125-125 69 0 125 56 125 125 0 69-56 125-125 125z m0-206c-44 0-81 37-81 81s37 81 81 81 81-37 81-81-37-81-81-81z m581-169h-50l38 38c19 18 19 43 0 56l-56 56c-19 19-44 19-57 0l-37-37v56c0 25-19 44-44 44v125c0 18-19 37-44 37h-31l25 25c19 19 19 44 0 56l-119 119c-18 19-43 19-56 0l-25-25v31c0 25-19 44-44 44h-162c-25 0-44-19-44-44v-25l-19 19c-18 19-43 19-62 0l-113-119c-18-18-18-43 0-56l19-25h-31c-25 0-44-19-44-44v-168c0-19 19-38 44-38h31l-19-19c-18-18-18-43 0-62l119-119c19-19 44-19 56 0l19 19v-31c0-19 19-38 44-38h125c0-25 19-44 44-44h50l-38-37c-19-19-19-44 0-57l56-56c19-19 44-19 57 0l37 38v-50c0-25 19-44 44-44h81c25 0 44 19 44 44v50l37-38c19-19 44-19 57 0l56 56c19 19 19 44 0 57l-38 37h50c25 0 44 19 44 44v81c0 25-19 44-44 44z m-537 6v-43h-88v43c-37 7-68 19-100 38l-31-31-56 62 31 31c-19 32-37 63-44 107h-50v81h44c6 37 25 75 44 106l-25 25 56 56 31-31c32 19 63 38 100 44v50h82v-44c37-6 75-19 106-44l31 32 56-57-25-37c19-31 38-63 44-100h44v-81h-50c-6-44-19-75-38-107l32-31-57-62-37 37c-25-25-63-37-100-44z m537-131h-43c-7-25-19-50-32-75l32-31-57-57-31 32c-19-13-44-25-75-32v-43h-81v43c-25 7-50 19-75 32l-31-32-63 57 31 31c-12 19-25 44-31 75h-44c25 0 44 19 44 44v37l25-25c19-18 44-18 56 0l0 0c0-6 0-6 0-12 0-69 57-125 125-125 69 0 125 56 125 125 0 69-56 125-125 125-6 0-6 0-12 0l-100-100 106 106c19 19 19 44 0 56l-19 19h25c25 0 44 19 44 44v-44c25-6 50-19 75-31l31 31 57-62-32-32c13-18 25-43 32-75h43v-81z m-331 44c0 44 38 81 81 81s82-37 82-81-38-81-82-81-81 31-81 81z" horiz-adv-x="1000" />

<glyph glyph-name="angle-down" unicode="&#xf107;" d="M600 439q0-7-6-12l-260-261q-5-5-13-5t-12 5l-260 261q-6 5-6 12t6 13l28 28q5 6 12 6t13-6l219-219 220 219q5 6 13 6t12-6l28-28q6-5 6-13z" horiz-adv-x="642.9" />
</font>
</defs>
</svg>
