<?xml version="1.0" encoding="utf-8"?>
<svg version="1.1" id="Layer_1" xmlns="http://www.w3.org/2000/svg" xmlns:xlink="http://www.w3.org/1999/xlink" x="0px" y="0px" viewBox="0 0 22 22" style="enable-background:new 0 0 22 22;" xml:space="preserve">
<path d="M21,0H1C0.5,0,0,0.5,0,1v14.4c0,0.6,0.5,1,1,1h15.5L22,22V1C22,0.5,21.5,0,21,0z M20.2,17.6l-3-3H1.8V1.8h18.3	V17.6z M8.5,6.9c0.5,0,0.8-0.4,0.8-0.8c0-0.9,0.8-1.7,1.7-1.7c0.9,0,1.7,0.8,1.7,1.7c0,0.9-0.8,1.7-1.7,1.7c-0.5,0-0.9,0.8-0.9,1.7 v0.8c0,0.5,0.5,0.8,0.9,0.8c0.5,0,0.9-0.4,0.9-0.8V9.8c0-0.6,0.9-1,1.2-1.2c0.8-0.6,1.3-1.6,1.3-2.6c0-1.9-1.5-3.4-3.4-3.4 S7.6,4.2,7.6,6C7.6,6.5,8,6.9,8.5,6.9z M11.2,11.5c-0.6,0-1,0.5-1,1c0,0.6,0.5,1,1,1c0.6,0,1-0.5,1-1C12.2,12,11.8,11.5,11.2,11.5z"/>
</svg>
