<?xml version="1.0" encoding="utf-8"?>
<svg version="1.1" id="Layer_1" xmlns="http://www.w3.org/2000/svg" xmlns:xlink="http://www.w3.org/1999/xlink" x="0px" y="0px" viewBox="0 0 22 22" style="enable-background:new 0 0 22 22;" xml:space="preserve">
<path d="M11,0C6.4,0,2.8,3.7,2.8,8.3c0,1,0.2,1.9,0.5,2.8l2.3,4.6C5.7,16,6,16.4,6.4, 16.5c0,0,0,0,0,0v0.9 c0,0.5,0.4,0.9,0.9,0.9v0.9c0,0.5,0.4,0.9,0.9,0.9v0.9c0,0.5,0.4,0.9,0.9,0.9h3.7c0.5,0,0.9-0.4,0.9-0.9v-0.9c0.5,0,0.9-0.4,0.9-0.9 v-0.9c0.5,0,0.9-0.4,0.9-0.9v-0.9c0,0,0,0,0-0.1c0.4-0.1,0.7-0.5,0.9-0.9l2.3-4.6c0.3-0.9,0.5-1.8,0.5-2.8C19.3,3.7,15.6,0,11,0z M12.8,21.1H9.2v-0.9h3.7V21.1z M13.8,19.3H8.3v-0.9h5.5V19.3z M14.7,17.4H7.3v-0.9h7.3V17.4z M16.8,11L15,14.7H7.1L5.2,11 c-0.4-0.8-0.6-1.8-0.6-2.8c0-3.5,2.9-6.4,6.4-6.4s6.4,2.9,6.4,6.4C17.4,9.2,17.2,10.2,16.8,11z M11,2.8v0.9c2.5,0,4.6,2.1,4.6,4.6 h0.9C16.5,5.2,14,2.8,11,2.8z"/>
</svg>
