<?xml version="1.0" encoding="utf-8"?>
<svg version="1.1" id="Layer_1" xmlns="http://www.w3.org/2000/svg" xmlns:xlink="http://www.w3.org/1999/xlink" x="0px" y="0px" viewBox="0 0 22 22" style="enable-background:new 0 0 22 22;" xml:space="preserve">
<path d="M21.1,0H6.4C5.9,0,5.5,0.4,5.5,0.9v6.4H0.9C0.4,7.3,0,7.7,0,8.3v10.1C0,20.2,1.6,22,3.7,22h14.7 c1.8,0,3.7-1.8,3.7-3.7h0V0.9C22,0.4,21.6,0,21.1,0z M5.5,18.3c0,0.9-0.8,1.8-1.8,1.8c-1,0-1.8-0.9-1.8-1.8h0V9.2h3.7V18.3z M20.2,18.3L20.2,18.3c0,0.9-0.9,1.8-1.8,1.8H6.8c0.3-0.6,0.6-1.2,0.6-1.8V1.8h12.8V18.3z M18.3,4.6H9.2v0.9h9.2V4.6z M18.3,6.4H9.2 v0.9h9.2V6.4z M18.3,8.3H9.2v0.9h9.2V8.3z M18.3,10.1H9.2V11h9.2V10.1z M18.3,15.6H9.2v0.9h9.2V15.6z M18.3,13.8H9.2v0.9h9.2V13.8z M18.3,11.9H9.2v0.9h9.2V11.9z"/>
</svg>
