<?xml version="1.0" encoding="utf-8"?>
<svg version="1.1" id="Layer_1" xmlns="http://www.w3.org/2000/svg" xmlns:xlink="http://www.w3.org/1999/xlink" x="0px" y="0px" viewBox="0 0 54 54" style="enable-background:new 0 0 54 54;" xml:space="preserve">
<path d="M53.9,5.5l-6.3-5.1L32.2,19.2h10.5L53.9,5.5z M13.7,41.7l-8.2-6.9L0.3,41l14.6,12.2l16.6-20.3H20.9L13.7,41.7z M41.6,31H48v-1.7h-4.5v-2.1h4.4v-1.7h-4.4v-1.9H48V22h-6.4V31z M32.3,24.9c0-1.7-1.2-2.9-3-2.9H25v9H27v-3.2h1.4l1.8,3.2h2.2 l-2-3.4C31.3,27.4,32.3,26.5,32.3,24.9z M29,26.1h-2v-2.4h2c0.8,0,1.3,0.5,1.3,1.2C30.3,25.7,29.7,26.1,29,26.1z M19.7,31.2 c1.6,0,2.9-0.7,3.8-1.7v-3.5h-4.3v1.7h2.4v1.1c-0.4,0.3-1.1,0.7-1.9,0.7c-1.6,0-2.8-1.3-2.8-3c0-1.7,1.2-3,2.8-3 c0.9,0,1.7,0.5,2.1,1.2l1.6-0.9c-0.7-1.1-1.9-2-3.7-2c-2.6,0-4.8,1.8-4.8,4.7C14.9,29.4,17,31.2,19.7,31.2z M33.7,31h6.4v-1.7h-4.5 v-2.1H40v-1.7h-4.4v-1.9h4.5V22h-6.4V31z M8.3,29.5h3.9l0.6,1.5h2.2l-3.5-9H9l-3.5,9h2.2L8.3,29.5z M10.2,23.9l1.4,3.9H8.8 L10.2,23.9z"/>
</svg>
