<?xml version="1.0" encoding="utf-8"?>
<!-- Generator: Adobe Illustrator 20.1.0, SVG Export Plug-In . SVG Version: 6.00 Build 0)  -->
<svg version="1.1" id="Layer_1" xmlns="http://www.w3.org/2000/svg" xmlns:xlink="http://www.w3.org/1999/xlink" x="0px" y="0px"
	 viewBox="0 0 30 24" style="enable-background:new 0 0 30 24;" xml:space="preserve">
<style type="text/css">
	.st0{fill:#F69998;}
</style>
<path class="st0" d="M27.5,2.4H24V1.8c0-1-0.7-1.8-1.5-1.8h-5C16.7,0,16,0.8,16,1.8v0.6h-2V1.8c0-1-0.7-1.8-1.5-1.8h-5
	C6.7,0,6,0.8,6,1.8v0.6H2.5C1.1,2.4,0,3.7,0,5.4v13.2c0,1.7,1.1,3,2.5,3h2v1.8C4.5,23.7,4.7,24,5,24h5c0.3,0,0.5-0.3,0.5-0.6v-1.8h9
	v1.8c0,0.3,0.2,0.6,0.5,0.6h5c0.3,0,0.5-0.3,0.5-0.6v-1.8h2c1.4,0,2.5-1.3,2.5-3V5.4C30,3.7,28.9,2.4,27.5,2.4z M17,1.8
	c0-0.3,0.2-0.6,0.5-0.6h5c0.3,0,0.5,0.3,0.5,0.6v0.6h-6V1.8z M7,1.8c0-0.3,0.2-0.6,0.5-0.6h5c0.3,0,0.5,0.3,0.5,0.6v0.6H7V1.8z
	 M9.5,22.8h-4v-1.2h4V22.8z M24.5,22.8h-4v-1.2h4V22.8z M29,18.6c0,1-0.7,1.8-1.5,1.8h-25c-0.8,0-1.5-0.8-1.5-1.8V5.4
	c0-1,0.7-1.8,1.5-1.8h25c0.8,0,1.5,0.8,1.5,1.8V18.6z M26.5,4.8h-23C2.7,4.8,2,5.6,2,6.6v10.8c0,1,0.7,1.8,1.5,1.8h23
	c0.8,0,1.5-0.8,1.5-1.8V6.6C28,5.6,27.3,4.8,26.5,4.8z M27,17.4c0,0.3-0.2,0.6-0.5,0.6h-23C3.2,18,3,17.7,3,17.4V6.6
	C3,6.3,3.2,6,3.5,6h23C26.8,6,27,6.3,27,6.6V17.4z M13.3,8.9c-0.3,0-0.5,0.3-0.5,0.6v1.2c0,0.3,0.2,0.6,0.5,0.6
	c0.3,0,0.5-0.3,0.5-0.6V9.5C13.8,9.2,13.6,8.9,13.3,8.9z M18.4,13.5L18.4,13.5l-1.2-4.6h-1.4v6h1v-2.8c0-0.3,0-1-0.1-1.9h0l1.2,4.7
	h1l1.3-4.7h0c0,0.8,0,1.2,0,1.4c0,0.2,0,0.3,0,0.5v2.9h1v-6h-1.4L18.4,13.5z M9.5,14.9h1.1v-6H9.5V14.9z M22.3,14.9h2.9v-1.1h-1.8
	v-1.6h1.7v-1h-1.7V10h1.8v-1h-2.9V14.9z M13.3,12.5c-0.3,0-0.5,0.3-0.5,0.6v1.2c0,0.3,0.2,0.6,0.5,0.6c0.3,0,0.5-0.3,0.5-0.6v-1.2
	C13.8,12.8,13.6,12.5,13.3,12.5z M5,9.9h1.4v5h1.1v-5h1.4V8.9H5V9.9z"/>
</svg>
