<?xml version="1.0" encoding="utf-8"?>
<!-- Generator: Adobe Illustrator 20.1.0, SVG Export Plug-In . SVG Version: 6.00 Build 0)  -->
<svg version="1.1" id="Layer_1" xmlns="http://www.w3.org/2000/svg" xmlns:xlink="http://www.w3.org/1999/xlink" x="0px" y="0px"
	 viewBox="0 0 22 24" style="enable-background:new 0 0 22 24;" xml:space="preserve">
<style type="text/css">
	.st0{fill:#F69998;}
</style>
<path class="st0" d="M14.4,8.1V7.8c0-0.3-0.3-0.6-0.6-0.6c-0.3,0-0.6,0.3-0.6,0.6v0.2c-0.8,0.1-1.6,0.4-2.3,0.8
	c-0.7-0.4-1.4-0.7-2.3-0.8V7.8c0-0.3-0.3-0.6-0.6-0.6S7.6,7.5,7.6,7.8v0.3c-2.2,0.4-3.9,2.3-3.9,4.6c0,2.6,2.1,4.7,4.7,4.7
	c1,0,1.9-0.3,2.6-0.8c0.8,0.5,1.7,0.8,2.6,0.8c2.6,0,4.7-2.1,4.7-4.7C18.3,10.4,16.6,8.5,14.4,8.1z M8.3,16.2c-2,0-3.6-1.6-3.6-3.5
	c0-1.9,1.6-3.5,3.6-3.5c0.6,0,1.2,0.2,1.8,0.5c-0.7,0.8-1.2,1.9-1.2,3.1c0,1.2,0.4,2.2,1.2,3.1C9.6,16.1,9,16.2,8.3,16.2z
	 M10.1,12.7c0-0.9,0.3-1.7,0.9-2.4c0.6,0.6,0.9,1.5,0.9,2.4c0,0.9-0.3,1.7-0.9,2.4C10.4,14.4,10.1,13.6,10.1,12.7z M13.6,16.2
	c-0.6,0-1.2-0.2-1.8-0.5c0.7-0.8,1.2-1.9,1.2-3.1c0-1.2-0.4-2.2-1.2-3.1c0.5-0.3,1.1-0.5,1.8-0.5c2,0,3.6,1.6,3.6,3.5
	C17.2,14.7,15.6,16.2,13.6,16.2z M20.3,1.2h-1.7V0.6c0-0.3-0.3-0.6-0.6-0.6c-0.3,0-0.6,0.3-0.6,0.6v0.6h-2.3V0.6
	c0-0.3-0.3-0.6-0.6-0.6c-0.3,0-0.6,0.3-0.6,0.6v0.6h-2.3V0.6C11.6,0.3,11.3,0,11,0s-0.6,0.3-0.6,0.6v0.6H8.1V0.6
	C8.1,0.3,7.8,0,7.5,0S6.9,0.3,6.9,0.6v0.6H4.6V0.6C4.6,0.3,4.4,0,4.1,0C3.7,0,3.5,0.3,3.5,0.6v0.6H1.7C0.8,1.2,0,1.9,0,2.8v19.6
	c0,0.7,0.5,1.4,1.2,1.6h19.7c0.7-0.2,1.2-0.9,1.2-1.6V2.8C22,1.9,21.2,1.2,20.3,1.2z M20.8,22.4c0,0.3-0.3,0.6-0.6,0.6H1.7
	c-0.3,0-0.6-0.3-0.6-0.6V2.8c0-0.3,0.3-0.6,0.6-0.6h1.7v1.1C3.5,3.7,3.7,4,4.1,4c0.3,0,0.6-0.3,0.6-0.6V2.3h2.3v1.1
	C6.9,3.7,7.2,4,7.5,4s0.6-0.3,0.6-0.6V2.3h2.3v1.1C10.4,3.7,10.7,4,11,4s0.6-0.3,0.6-0.6V2.3h2.3v1.1c0,0.3,0.3,0.6,0.6,0.6
	c0.3,0,0.6-0.3,0.6-0.6V2.3h2.3v1.1c0,0.3,0.3,0.6,0.6,0.6c0.3,0,0.6-0.3,0.6-0.6V2.3h1.7c0.3,0,0.6,0.3,0.6,0.6V22.4z"/>
</svg>
