<?xml version="1.0" encoding="utf-8"?>
<svg version="1.1" id="Layer_1" xmlns="http://www.w3.org/2000/svg" xmlns:xlink="http://www.w3.org/1999/xlink" x="0px" y="0px" viewBox="0 0 555 450" style="enable-background:new 0 0 555 450;" xml:space="preserve" preserveAspectRatio="none">
<style type="text/css">	.st0{fill:none;}	.st1{fill:#FF9998;}</style>
<polygon class="st0" points="19.6,423.7 220.9,432.2 540.6,409.3 545.2,218 537.8,35.9 253,23.9 10.7,41.2 8.3,142.8 "/>
<path class="st1" d="M18.6,447.8l0.1,1.1L221,434.4l319.7,13.4h0.9l0.8-36.5l11.4-0.8h0.8L547,218l4.3-182.7v-1.1l-11.7-0.5 l-1.2-31.4l-0.1-1.1L253,21.7L10.5,11.5H9.5L8.8,39.3l-5.7,0.4H2.2l4.2,103.2L-0.3,424v1.1l18.1,0.7L18.6,447.8z M20.5,446.5 l-0.8-20.7l181.9,7.7L20.5,446.5z M539.8,445.6L240.2,433l300.4-21.5L539.8,445.6z M552.8,408.4l-10.3,0.7l3.8-161.5L552.8,408.4z M549.4,36.4l-3.6,152.1L539.6,36L549.4,36.4z M536.5,3.5l1.2,30.1L272.3,22.5L536.5,3.5z M11.3,13.8l222.4,9.3l-223.1,16L11.3,13.8 z M10.7,41.2L253,23.9l284.7,12l7.3,182.1l-4.6,191.3l-319.7,22.9l-201.3-8.5L8.3,142.8L10.7,41.2z M4.2,41.8l4.6-0.4l-1.7,71.8 L4.2,41.8z M1.7,423l5.9-250.6l10,251.2L1.7,423z"/>
</svg>
