<?xml version="1.0" encoding="utf-8"?>
<!-- Generator: Adobe Illustrator 20.1.0, SVG Export Plug-In . SVG Version: 6.00 Build 0)  -->
<svg version="1.1" id="Layer_1" xmlns="http://www.w3.org/2000/svg" xmlns:xlink="http://www.w3.org/1999/xlink" x="0px" y="0px"
	 viewBox="0 0 512 512" style="enable-background:new 0 0 512 512;" xml:space="preserve">
<style type="text/css">
	.st0{fill:#F69997;}
	.st1{fill:#E28181;}
	.st2{fill:#917671;}
	.st3{fill:#F5F4EC;}
	.st4{fill:#E8E3CA;}
	.st5{fill:#FFFFFF;}
	.st6{fill:#474747;}
</style>
<circle class="st0" cx="256" cy="256" r="256"/>
<path class="st1" d="M189.7,503.2L74.1,386.8l75.7-72.1l278.9-142l83.2,83.2v0.1c0,141.4-114.6,256-256,256c-22.9,0-45.1-3-66.3-8.7
	L189.7,503.2z"/>
<path class="st2" d="M326.2,125.1c-61.9,0-112.1,35.7-112.1,79.5c0,44,50.2,79.5,112.1,79.5c25.4,0,48.9-6,67.6-16.1l44.1,27.8
	l-19.3-46.2c12.3-12.8,19.7-28.3,19.7-45C438.3,160.6,388.1,125.1,326.2,125.1z"/>
<path class="st3" d="M185.8,216.1c61.9,0,112.1,35.7,112.1,79.5c0,44-50.2,79.5-112.1,79.5c-25.4,0-48.9-6-67.6-16.1l-44.1,27.8
	l19.3-46.2c-12.3-12.8-19.7-28.3-19.7-45C73.7,251.7,123.9,216.1,185.8,216.1z"/>
<g>
	<g>
		<path class="st4" d="M271.1,176.9h107.7c3.4,0,6.2,2.8,6.2,6.2l0,0c0,3.4-2.8,6.2-6.2,6.2H271.1c-3.4,0-6.2-2.8-6.2-6.2l0,0
			C264.8,179.6,267.6,176.9,271.1,176.9z"/>
		<path class="st4" d="M271.1,201.8h107.7c3.4,0,6.2,2.8,6.2,6.2l0,0c0,3.4-2.8,6.2-6.2,6.2H271.1c-3.4,0-6.2-2.8-6.2-6.2l0,0
			C264.8,204.5,267.6,201.8,271.1,201.8z"/>
		<path class="st4" d="M271.1,226.8h107.7c3.4,0,6.2,2.8,6.2,6.2l0,0c0,3.4-2.8,6.2-6.2,6.2H271.1c-3.4,0-6.2-2.8-6.2-6.2l0,0
			C264.8,229.5,267.6,226.8,271.1,226.8z"/>
	</g>
	<g>
		<path class="st5" d="M270.8,175.6h107.7c3.4,0,6.2,2.8,6.2,6.2l0,0c0,3.4-2.8,6.2-6.2,6.2H270.8c-3.4,0-6.2-2.8-6.2-6.2l0,0
			C264.6,178.3,267.4,175.6,270.8,175.6z"/>
		<path class="st5" d="M270.8,200.4h107.7c3.4,0,6.2,2.8,6.2,6.2l0,0c0,3.4-2.8,6.2-6.2,6.2H270.8c-3.4,0-6.2-2.8-6.2-6.2l0,0
			C264.6,203.2,267.4,200.4,270.8,200.4z"/>
		<path class="st5" d="M270.8,225.4h107.7c3.4,0,6.2,2.8,6.2,6.2l0,0c0,3.4-2.8,6.2-6.2,6.2H270.8c-3.4,0-6.2-2.8-6.2-6.2l0,0
			C264.6,228.2,267.4,225.4,270.8,225.4z"/>
	</g>
</g>
<g>
	<g>
		<path class="st5" d="M131.2,265.8h107.7c3.4,0,6.2,2.8,6.2,6.2l0,0c0,3.4-2.8,6.2-6.2,6.2H131.2c-3.4,0-6.2-2.8-6.2-6.2l0,0
			C125,268.6,127.8,265.8,131.2,265.8z"/>
		<path class="st5" d="M131.2,290.8h107.7c3.4,0,6.2,2.8,6.2,6.2l0,0c0,3.4-2.8,6.2-6.2,6.2H131.2c-3.4,0-6.2-2.8-6.2-6.2l0,0
			C125,293.6,127.8,290.8,131.2,290.8z"/>
		<path class="st5" d="M131.2,315.7h107.7c3.4,0,6.2,2.8,6.2,6.2l0,0c0,3.4-2.8,6.2-6.2,6.2H131.2c-3.4,0-6.2-2.8-6.2-6.2l0,0
			C125,318.4,127.8,315.7,131.2,315.7z"/>
	</g>
	<g>
		<path class="st6" d="M130.4,264.5h107.7c3.4,0,6.2,2.8,6.2,6.2l0,0c0,3.4-2.8,6.2-6.2,6.2H130.4c-3.4,0-6.2-2.8-6.2-6.2l0,0
			C124.2,267.2,127,264.5,130.4,264.5z"/>
		<path class="st6" d="M130.4,289.4h107.7c3.4,0,6.2,2.8,6.2,6.2l0,0c0,3.4-2.8,6.2-6.2,6.2H130.4c-3.4,0-6.2-2.8-6.2-6.2l0,0
			C124.2,292.1,127,289.4,130.4,289.4z"/>
		<path class="st6" d="M130.4,314.3h107.7c3.4,0,6.2,2.8,6.2,6.2l0,0c0,3.4-2.8,6.2-6.2,6.2H130.4c-3.4,0-6.2-2.8-6.2-6.2l0,0
			C124.2,317.1,127,314.3,130.4,314.3z"/>
	</g>
</g>
</svg>
