<?xml version="1.0" encoding="utf-8"?>
<svg version="1.1" id="logo" xmlns="http://www.w3.org/2000/svg" xmlns:xlink="http://www.w3.org/1999/xlink" x="0px" y="0px" viewBox="0 0 174 34" style="enable-background:new 0 0 174 34;" xml:space="preserve">
<style type="text/css">
	.st0{fill:#592934;}
	.st1{fill:#FE8281;}
	.st2{fill:#FFFFFF;}
</style>
<path class="st0" d="M32.7,15.6c0.9-1.3,1.5-2.6,2-3.8c0.4-1.2,0.6-2.4,0.6-3.6c0-0.4-0.1-0.7-0.1-1s-0.2-0.6-0.3-0.8
	C34.4,6,34,5.7,33.6,5.7c-0.6,0-1.2,0.4-1.7,1.2L32.1,7c0.2-0.1,0.4-0.2,0.6-0.2c0.2,0,0.4-0.1,0.6-0.1c0.3,0,0.6,0.3,0.9,0.7
	s0.4,1,0.4,1.6c0,1.1-0.2,2.3-0.6,3.4c-0.4,1.1-1,2.3-1.8,3.5c-1.5,2.1-3.3,3.9-5.5,5.4c-1.1,0.7-2.2,1.3-3.1,1.6
	c-1,0.4-1.9,0.5-2.8,0.5c-0.9,0-1.7-0.3-2.2-0.9c-0.3-0.3-0.5-0.7-0.6-1c-0.1-0.4-0.2-0.8-0.2-1.2c0-1.3,0.5-2.9,1.5-4.7
	c0.5-0.8,1-1.5,1.5-2.2c0.5-0.7,1-1.3,1.6-1.9c0.1-0.1,0.2-0.2,0.4-0.3c0.1-0.1,0.3-0.3,0.5-0.5c0.3-0.2,0.4-0.3,0.4-0.4
	c0-0.1-0.1-0.2-0.1-0.2c-0.3,0-0.6,0.2-1.1,0.6c-0.1,0.1-0.3,0.3-0.6,0.5c-0.3,0.3-0.8,0.7-1.4,1.3c-1.5,1.2-2.7,2.3-3.8,3.2
	s-2,1.6-2.7,2.1c0.5-0.8,0.9-1.4,1.2-2s0.6-1.1,0.7-1.5c0.4-0.9,0.5-1.9,0.5-2.7c0-1.5-0.5-2.6-1.5-3.5c-1-0.9-2.3-1.3-3.9-1.3
	c-1.8,0-3.5,0.4-5.1,1.2c-1.6,0.8-3,2-4.3,3.7l0.3,0C2.8,10,4.3,8.9,6,8.2C7.3,7.6,8.6,7.3,10,7.3c0.8,0,1.5,0.1,2.1,0.3
	c0.6,0.2,1.1,0.5,1.6,0.9c0.9,0.9,1.4,1.9,1.4,3.2c0,3.3-2.5,7.2-7.3,11.5c0,0.2,0.2,0.2,0.3,0.2c0.9-0.9,1.9-1.8,3-2.7
	c1.1-1,2.3-2,3.7-3.1c0.6-0.5,1.1-1,1.7-1.4c0.6-0.5,1.2-1,1.8-1.5c-0.7,1.4-1.3,2.6-1.6,3.6s-0.5,1.7-0.5,2.3
	c0.1,0.5,0.2,1,0.4,1.4c0.2,0.4,0.4,0.8,0.8,1.2c0.7,0.7,1.6,1.1,2.6,1.1c1,0,2.1-0.2,3.2-0.7c1.1-0.4,2.3-1,3.6-1.9
	C27.9,20.9,29,20,30,19C31,18,31.9,16.9,32.7,15.6z M103,20.7c-1.3,1-2.1,1.6-2.3,1.7c-1.1,0.8-2,1.2-2.4,1.2c-0.7,0-1-0.2-1-0.7
	c0-0.4,0.2-0.8,0.6-1.3c0.4-0.4,0.6-0.7,0.6-0.7c0-0.2-0.1-0.3-0.2-0.3c-0.7,0-2.3,0.8-4.7,2.5c0.1-0.1,0.2-0.2,0.4-0.4
	c0.1-0.2,0.3-0.4,0.5-0.6c0.4-0.6,0.6-0.9,0.6-1c0-0.3-0.2-0.5-0.7-0.5c-0.1,0-0.1,0-0.2,0.1c0,0-0.1,0-0.1,0c0,0,0,0-0.1,0.1
	c0,0,0,0,0,0c-0.1,0.1-0.2,0.1-0.2,0.2c-0.2,0.2-0.4,0.4-0.7,0.6c-0.4,0.3-0.7,0.6-1.2,0.9c-1,0.7-1.7,1.1-2.1,1.1
	c-0.2,0-0.4-0.1-0.6-0.2c0.8-0.7,1.2-1.3,1.2-2c0-0.6-0.3-0.9-1-0.9c-0.3,0-0.7,0.1-1.1,0.3c-0.4,0.2-0.9,0.5-1.3,0.9
	c-0.5,0.4-0.9,0.8-1.1,1.2c-0.3,0.4-0.4,0.7-0.4,1.1c0,0.5,0.3,0.8,1,0.8c0.5,0,1-0.1,1.5-0.4c0.5-0.3,0.8-0.5,0.9-0.6
	c0.3,0.2,0.6,0.4,0.9,0.4c0.3,0,0.6-0.1,1-0.3c0.4-0.2,0.8-0.5,1.3-0.8c0.7-0.5,1.3-0.9,1.7-1.4c-0.1,0.1-0.2,0.3-0.3,0.5
	c-0.2,0.2-0.4,0.6-0.6,1c-0.3,0.4-0.4,0.6-0.5,0.8c-0.1,0.2-0.2,0.4-0.2,0.4c0,0.1,0,0.1,0.1,0.1c0.1,0.1,0.1,0.1,0.2,0.1
	c0.1,0,0.5-0.3,1.2-0.7c0.5-0.4,1.1-0.7,1.6-1c0.5-0.3,1-0.6,1.5-0.9c-0.1,0.3-0.1,0.5-0.2,0.8c0,0.2,0,0.4,0,0.5
	c0,0.8,0.4,1.2,1.1,1.2c0.8,0,1.8-0.4,3-1.2c0.5-0.3,1.4-1,2.6-2c0.1-0.1,0.1-0.1,0.1-0.2c0-0.1,0-0.1-0.1-0.1
	C103.1,20.7,103.1,20.7,103,20.7z M86.9,24c-0.4,0-0.6-0.3-0.6-0.7c0-0.8,0.8-1.5,2.3-2.2c-0.2,0.2-0.3,0.6-0.3,1.2
	c0,0.4,0.1,0.7,0.4,1C88,23.7,87.4,24,86.9,24z M88.7,22c0-0.3,0.1-0.6,0.3-0.8c0.2-0.3,0.5-0.4,0.8-0.4c0.2,0,0.3,0.1,0.3,0.3
	c0,0.6-0.4,1.2-1.2,1.8C88.8,22.8,88.7,22.5,88.7,22z M83.8,20.7c-0.1,0-0.1,0-0.1,0c-0.6,0.4-1.1,0.8-1.5,1.1
	c-0.4,0.3-0.8,0.5-1.1,0.7c-1.3,0.8-2.3,1.2-3.1,1.2c0.3-0.2,0.7-0.5,1-1c0.4-0.5,0.6-1,0.6-1.4c0-0.6-0.3-0.9-1-0.9
	c-0.2,0-0.5,0.1-0.7,0.2c0,0,0,0,0,0c-0.1,0-0.1,0-0.1,0c-1.2,0.9-2.2,1.6-3.1,2.2c-0.2,0.1-0.4,0.2-0.5,0.3
	c-0.2,0.1-0.4,0.2-0.6,0.3c0,0,0,0,0,0c-0.3,0.1-0.5,0.3-0.7,0.3c0.6-1,1-1.8,1-2.4c0-0.4-0.2-0.8-0.5-1c-0.4-0.3-0.8-0.4-1.2-0.4
	c-0.7,0-1.5,0.3-2.2,0.7c-0.4,0.2-0.7,0.5-0.9,0.7c-0.7,0.5-1.1,0.8-1.3,0.9c-1.1,0.8-2,1.2-2.4,1.2c-0.7,0-1-0.2-1-0.7
	c0-0.4,0.2-0.8,0.6-1.3c0.4-0.4,0.6-0.7,0.6-0.7c0-0.2-0.1-0.3-0.2-0.3c-0.7,0-2.3,0.8-4.7,2.5c0.1-0.1,0.2-0.2,0.4-0.4
	c0.1-0.2,0.3-0.4,0.5-0.6c0.4-0.6,0.6-0.9,0.6-1c0-0.3-0.2-0.5-0.7-0.5c-0.1,0-0.1,0-0.2,0.1c0,0,0,0,0,0c-0.1,0-0.1,0-0.1,0
	c-2.7,2-4.3,3-4.8,3c-0.5,0-0.7-0.3-0.7-0.8c0-0.4,0.2-0.8,0.6-1.3c0.4-0.5,0.6-0.7,0.6-0.8c0-0.1-0.1-0.2-0.2-0.2
	c-0.3,0.1-0.7,0.4-1.1,0.9c0,0,0,0-0.1,0.1c-0.9,0.7-1.7,1.2-2.4,1.6c-1,0.6-1.8,0.9-2.4,0.9c-0.8,0-1.3-0.5-1.5-1.5
	c1.2-0.9,2.2-1.7,3-2.3c0.9-0.7,1.6-1.3,2.1-1.7c3.3-3,4.9-5,4.9-6c0-0.6-0.3-0.9-0.8-0.9c-1,0-2.4,0.9-4.1,2.5
	c-0.8,0.7-1.4,1.5-2.1,2.2c-0.6,0.8-1.2,1.6-1.8,2.4c-0.3,0.4-0.5,0.8-0.7,1c-0.1,0.2-0.2,0.4-0.3,0.4c-0.2,0.4-0.4,0.7-0.5,1.1
	c-0.2,0.4-0.3,0.8-0.4,1.2c-0.2,0.2-0.5,0.3-0.8,0.5c-0.3,0.1-0.5,0.3-0.8,0.4c-0.3,0.2-0.6,0.3-0.9,0.3s-0.4,0.1-0.6,0.1
	c-0.4,0-0.6-0.2-0.6-0.5c0-0.2,0.1-0.3,0.1-0.5c0.1-0.2,0.2-0.3,0.4-0.5c0.1-0.1,0.2-0.2,0.2-0.2c0.2-0.2,0.4-0.3,0.6-0.5
	c0.5-0.4,0.9-0.6,1.3-0.6c0.4,0,0.7,0.1,0.7,0.2c0,0.1,0,0.1,0.1,0.2c0,0.1,0,0.1,0,0.2c0.1,0.1,0.1,0.2,0.2,0.2
	c0.2,0,0.3-0.2,0.3-0.5c0-0.2-0.1-0.3-0.2-0.4c-0.2-0.1-0.4-0.2-0.6-0.2c-0.4,0-0.7,0.1-1.1,0.2c0,0,0,0-0.1,0c0,0-0.1,0.1-0.2,0.1
	c-0.5,0.2-1,0.5-1.5,1c-0.3,0.3-0.5,0.5-0.7,0.7c-0.4,0.3-0.8,0.5-1.1,0.7c-1,0.6-1.8,0.9-2.4,0.9c-0.8,0-1.3-0.5-1.5-1.5
	c1.2-0.9,2.2-1.7,3-2.3c0.9-0.7,1.6-1.3,2.1-1.7c3.3-3,4.9-5,4.9-6c0-0.6-0.3-0.9-0.8-0.9c-1,0-2.4,0.9-4.1,2.5
	c-0.8,0.7-1.4,1.5-2.1,2.2c-0.6,0.8-1.2,1.6-1.8,2.4c-0.3,0.4-0.5,0.8-0.7,1c-0.1,0.2-0.2,0.4-0.3,0.4c-0.2,0.4-0.4,0.7-0.5,1.1
	c-0.2,0.4-0.3,0.8-0.4,1.2c-0.2,0.2-0.5,0.3-0.8,0.5c-0.3,0.1-0.5,0.3-0.8,0.4c-0.3,0.2-0.6,0.3-0.9,0.3s-0.4,0.1-0.6,0.1
	c-0.4,0-0.6-0.2-0.6-0.5c0-0.2,0.1-0.3,0.1-0.5c0.1-0.2,0.2-0.3,0.4-0.5c0.1-0.1,0.2-0.2,0.3-0.3c0.2-0.1,0.3-0.3,0.5-0.4
	c0.5-0.3,0.9-0.5,1.2-0.5c0.4,0,0.7,0.1,0.7,0.2c0,0.1,0,0.1,0.1,0.2c0,0.1,0,0.1,0,0.2c0.1,0.1,0.1,0.2,0.2,0.2
	c0.2,0,0.3-0.2,0.3-0.5c0-0.2-0.1-0.3-0.2-0.4c-0.2-0.1-0.4-0.2-0.6-0.2c-0.4,0-0.7,0.1-1.1,0.2c0,0,0,0,0,0c-0.1,0-0.1,0-0.1,0
	c-0.1,0.1-0.1,0.1-0.2,0.2c-0.5,0.2-0.9,0.5-1.4,0.9c-0.2,0.2-0.4,0.4-0.6,0.6c-0.1,0.1-0.2,0.2-0.3,0.2c-1.3,0.9-2.3,1.3-3,1.3
	c-0.3,0-0.5-0.1-0.7-0.2c-0.3-0.2-0.4-0.5-0.4-0.8c0.6-0.3,1.1-0.6,1.5-0.9c0.1-0.1,0.2-0.2,0.4-0.3c0.1-0.1,0.2-0.2,0.4-0.3
	c0.2-0.2,0.3-0.5,0.3-0.7c0-0.2-0.1-0.3-0.2-0.4c-0.1-0.1-0.3-0.2-0.4-0.2c-0.5,0-1.1,0.4-1.8,1.1c-0.7,0.8-1,1.4-1,2
	c0,0.9,0.5,1.4,1.3,1.4c1,0,2.2-0.5,3.4-1.3c0,0,0,0.1,0,0.1c0,0.3,0.1,0.5,0.3,0.7c0.2,0.2,0.5,0.3,0.7,0.3c0.3,0,0.6-0.1,0.9-0.1
	c0.3-0.1,0.6-0.2,0.9-0.3c0.3-0.2,0.6-0.3,0.9-0.5c0.3-0.2,0.6-0.3,0.8-0.5c0.3,1.2,0.9,1.7,1.8,1.7c0.8,0,1.6-0.3,2.5-0.8
	c0.2-0.1,0.5-0.3,0.8-0.6c0,0,0,0.1,0,0.1c0,0.3,0.1,0.5,0.3,0.7c0.2,0.2,0.5,0.3,0.7,0.3c0.3,0,0.6-0.1,0.9-0.1
	c0.3-0.1,0.6-0.2,0.9-0.3c0.3-0.2,0.6-0.3,0.9-0.5c0.3-0.2,0.6-0.3,0.8-0.5c0.3,1.2,0.9,1.7,1.8,1.7c0.8,0,1.6-0.3,2.5-0.8
	c0.2-0.2,0.5-0.4,0.9-0.6c0.3-0.2,0.6-0.5,1-0.8c-0.1,0.3-0.2,0.6-0.2,0.8c0,0.3,0.2,0.6,0.5,0.8c0.3,0.2,0.7,0.3,1,0.3
	c0.6,0,1.4-0.4,2.6-1.2c0.2-0.1,0.5-0.4,0.9-0.7c0.3-0.3,0.8-0.6,1.3-1.1c0,0,0,0.1,0,0.1c-0.1,0.1-0.2,0.3-0.3,0.5
	c-0.2,0.2-0.4,0.6-0.6,1c-0.3,0.4-0.4,0.6-0.5,0.8c-0.1,0.2-0.2,0.4-0.2,0.4c0,0.1,0,0.1,0.1,0.1c0.1,0.1,0.1,0.1,0.2,0.1
	c0.1,0,0.5-0.3,1.2-0.7c0.5-0.4,1.1-0.7,1.6-1c0.5-0.3,1-0.6,1.5-0.9c-0.1,0.3-0.1,0.5-0.2,0.8c0,0.2,0,0.4,0,0.5
	c0,0.8,0.4,1.2,1.1,1.2c0.8,0,1.8-0.4,3-1.2c0.3-0.2,0.6-0.5,1.1-0.8c0,0,0,0,0,0c0,0.3,0.1,0.6,0.2,0.7c0.2,0.2,0.4,0.3,0.7,0.3
	c0.5,0,1.1-0.2,1.7-0.5c0.2-0.1,0.4-0.2,0.5-0.3s0.3-0.2,0.5-0.3l0.2-0.3c-0.2,0.1-0.3,0.2-0.5,0.3c-0.2,0.1-0.3,0.2-0.5,0.2
	c-0.3,0.2-0.5,0.3-0.8,0.3c-0.2,0.1-0.4,0.1-0.6,0.1c-0.4,0-0.6-0.3-0.6-0.8c0-0.4,0.3-0.7,0.8-1c0.3-0.1,0.5-0.2,0.8-0.3
	c0.3-0.1,0.5-0.1,0.8-0.1c0.7,0,1.1,0.3,1.1,0.9c0,0.9-0.5,1.9-1.4,2.9c-0.2,0.1-0.5,0.2-1,0.3c-0.5,0.2-1.2,0.4-2.1,0.6
	c-1.8,0.6-3.1,1-3.9,1.3c-3.3,1.3-5,2.7-5,4.2c0,0.3,0.1,0.6,0.4,0.8c0.3,0.2,0.6,0.3,1.1,0.3c1.7,0,3.9-1.1,6.7-3.3
	c1-0.8,1.9-1.6,2.7-2.2c0.7-0.7,1.3-1.3,1.8-1.9c0.5-0.2,0.9-0.4,1.4-0.6c0,0,0,0,0,0c0.2-0.1,0.4-0.2,0.6-0.3s0.4-0.2,0.6-0.3
	c0,0.1,0,0.1,0,0.2c0.4,0.4,0.6,0.6,0.7,0.6c0.3,0.2,0.7,0.3,1.1,0.3c1.5,0,3-0.5,4.3-1.3c0.3-0.2,1.2-0.9,2.7-2.1
	c0.1-0.1,0.1-0.1,0.1-0.2C83.9,20.7,83.9,20.7,83.8,20.7z M51.5,17.7c0.6-0.8,1.1-1.5,1.7-2.2c0.6-0.7,1.2-1.3,1.9-1.9
	c1.3-1.2,2.2-1.8,2.8-1.8c0.3,0,0.5,0.2,0.5,0.5c0,0.6-0.5,1.4-1.3,2.6c-0.8,1.1-1.8,2.1-2.9,3c-0.8,0.7-1.6,1.3-2.4,2
	c-0.8,0.7-1.7,1.3-2.7,2C49.5,20.8,50.3,19.3,51.5,17.7z M41.8,17.7c0.5-0.8,1.1-1.5,1.7-2.2c0.6-0.7,1.2-1.3,1.9-1.9
	c1.3-1.2,2.2-1.8,2.8-1.8c0.3,0,0.5,0.2,0.5,0.5c0,0.6-0.5,1.4-1.3,2.6c-0.8,1.1-1.8,2.1-2.9,3c-0.8,0.7-1.6,1.3-2.4,2
	s-1.7,1.3-2.7,2C39.8,20.8,40.6,19.3,41.8,17.7z M31,21.3c0.4-0.4,0.6-0.6,0.9-0.6c0.2,0,0.2,0.1,0.2,0.2c0,0.4-0.5,0.8-1.3,1.3
	c-0.2,0.1-0.3,0.1-0.3,0.1C30.5,22,30.6,21.6,31,21.3z M69.2,27.1c-0.9,0.8-2,1.7-3.3,2.7c-0.7,0.5-1.4,0.9-2.2,1.2
	c-0.8,0.3-1.3,0.5-1.7,0.5c-0.4,0-0.7-0.1-1-0.3c-0.4-0.2-0.5-0.5-0.5-0.8c0-0.9,0.8-1.8,2.5-2.6c0.6-0.3,1.3-0.6,2.1-0.9
	c0.8-0.3,1.7-0.6,2.8-0.9c0.6-0.2,1.2-0.4,1.8-0.5c0.6-0.2,1.2-0.3,1.8-0.5C70.9,25.5,70.1,26.3,69.2,27.1z M77.4,23.4
	c-0.3,0.1-0.5,0.2-0.8,0.2c-0.3,0-0.7-0.2-1.1-0.4c-0.1,0-0.1,0-0.2,0c0.4-0.3,0.7-0.5,1.2-0.9c0.4-0.3,0.9-0.7,1.4-1.1
	c0,0,0.1,0,0.2,0h0.2c0.3,0,0.5,0.2,0.5,0.5c0,0.2-0.1,0.4-0.2,0.6c-0.1,0.2-0.2,0.4-0.4,0.6C77.9,23.1,77.6,23.3,77.4,23.4z
	 M172.3,20.7c-0.1,0-0.1,0-0.1,0c-0.7,0.5-1.3,1-1.7,1.3c-0.4,0.3-0.7,0.5-0.8,0.6c-1.3,0.9-2.3,1.3-3,1.3c-0.3,0-0.5-0.1-0.7-0.2
	c-0.2-0.2-0.3-0.4-0.4-0.7c0.2-0.1,0.3-0.2,0.5-0.3c0.1-0.1,0.3-0.2,0.4-0.3c0.2-0.1,0.4-0.3,0.6-0.4c0.1-0.1,0.3-0.2,0.4-0.3
	c0.1-0.1,0.2-0.2,0.4-0.3c0.2-0.2,0.3-0.5,0.3-0.7c0-0.2-0.1-0.3-0.2-0.4c-0.1-0.1-0.3-0.2-0.4-0.2c-0.5,0-1.1,0.4-1.8,1.1
	c-0.6,0.7-0.9,1.3-1,1.9c-0.6,0.3-1.1,0.5-1.5,0.5c-0.3,0-0.7-0.2-1-0.7c0.5-0.5,0.8-1.1,0.8-1.7c0-0.6-0.2-0.8-0.7-0.8
	c-0.3,0-0.5,0.1-0.7,0.4c-0.2,0.3-0.3,0.5-0.3,0.9c0,0.6,0.1,1,0.3,1.3c-0.9,0.8-1.5,1.1-1.8,1.1c-0.5,0-0.7-0.3-0.7-0.8
	c0-0.3,0.2-0.8,0.5-1.4c0.2-0.3,0.3-0.6,0.5-0.7c0.1-0.2,0.2-0.2,0.3-0.2c0,0,0-0.1,0-0.1c0-0.1-0.1-0.1-0.2-0.1
	c-0.2,0-0.3,0.1-0.4,0.2c-0.1,0.1-0.1,0.2-0.2,0.2c-0.2,0.2-0.4,0.4-0.6,0.6c-0.4,0.3-0.7,0.6-1.2,0.9c-1,0.7-1.7,1.1-2.1,1.1
	c-0.2,0-0.4-0.1-0.6-0.2c0.8-0.7,1.2-1.3,1.2-2c0-0.6-0.3-0.9-1-0.9c-0.3,0-0.7,0.1-1.1,0.3c-0.4,0.2-0.9,0.5-1.3,0.9
	c-0.5,0.4-0.9,0.8-1.1,1.2c-0.3,0.4-0.4,0.7-0.4,1.1c0,0.5,0.3,0.8,1,0.8c0.5,0,1-0.1,1.5-0.4c0.5-0.3,0.8-0.5,0.9-0.6
	c0.3,0.2,0.6,0.4,0.9,0.4c0.3,0,0.6-0.1,1-0.3c0.4-0.2,0.8-0.5,1.3-0.8c0.3-0.2,0.7-0.5,0.9-0.7c-0.1,0.1-0.1,0.2-0.2,0.3
	c-0.2,0.5-0.3,0.9-0.3,1.2c0,0.3,0.1,0.5,0.3,0.7c0.2,0.2,0.4,0.3,0.8,0.3c0.7,0,1.5-0.5,2.5-1.5c0.5,0.5,0.9,0.8,1.3,0.8
	c0.4,0,0.8-0.1,1.3-0.3c0.1,0,0.2-0.1,0.3-0.1c0.1,0.7,0.5,1.1,1.3,1.1c1,0,2.2-0.5,3.5-1.3c0.3-0.2,0.6-0.4,1.1-0.8
	c0.5-0.4,1-0.8,1.7-1.4c0.1-0.1,0.1-0.1,0.1-0.2C172.4,20.7,172.4,20.7,172.3,20.7z M166.2,21.3c0.4-0.4,0.6-0.6,0.9-0.6
	c0.2,0,0.2,0.1,0.2,0.2c0,0.4-0.5,0.8-1.3,1.3c-0.2,0.1-0.3,0.1-0.3,0.1C165.6,22,165.8,21.6,166.2,21.3z M152.8,24
	c-0.4,0-0.6-0.3-0.6-0.7c0-0.8,0.8-1.5,2.3-2.2c-0.2,0.2-0.3,0.6-0.3,1.2c0,0.4,0.1,0.7,0.4,1C153.9,23.7,153.3,24,152.8,24z
	 M154.6,22c0-0.3,0.1-0.6,0.3-0.8c0.2-0.3,0.5-0.4,0.8-0.4c0.2,0,0.3,0.1,0.3,0.3c0,0.6-0.4,1.2-1.2,1.8
	C154.7,22.8,154.6,22.5,154.6,22z M161.8,21.4c0-0.5,0.2-0.8,0.7-0.8c0.2,0,0.3,0.2,0.3,0.6c0,0.3-0.1,0.5-0.2,0.7
	c0,0-0.2,0.3-0.5,0.6C161.9,22.2,161.8,21.8,161.8,21.4z M150,22.5c0-0.1,0-0.2,0-0.3v-0.3c0-1.2,0.6-3.4,1.7-6.9
	c1.1-3.5,1.7-5.4,1.7-5.7c0-1-0.4-1.6-1.2-1.6c-0.6,0-1.3,0.2-2,0.5c-0.7,0.3-1.5,0.8-2.4,1.5c-0.5,0.5-1.4,1.2-2.5,2.3
	s-2.6,2.5-4.4,4.2c1.8-2.7,2.6-4.5,2.6-5.3c0-0.2-0.1-0.4-0.1-0.6c-0.1-0.2-0.2-0.3-0.3-0.4c-0.1-0.1-0.3-0.2-0.5-0.3
	c-0.2-0.1-0.4-0.1-0.6-0.1c-0.9,0-1.8,0.4-2.8,1c-0.7,0.4-1.5,1-2.5,1.8c-1,0.8-2.1,1.8-3.4,2.9c0.6-0.9,1.1-1.7,1.4-2.3
	s0.6-1.2,0.8-1.7c0.3-0.7,0.4-1.6,0.4-2.5c0-0.9-0.3-1.6-1-2.1c-0.7-0.5-1.6-0.8-2.6-0.8c-1.5,0-2.8,0.4-4.1,1.1
	c-0.9,0.5-1.9,1.3-2.9,2.4c-0.3,0.4-0.7,0.8-1,1.1c-0.3,0.4-0.6,0.8-1,1.1l0.2,0.2c0.3-0.3,0.5-0.6,0.8-0.8c0.3-0.3,0.5-0.6,0.8-0.8
	c0.9-0.9,1.8-1.7,2.7-2.2c1.3-0.7,2.6-1.1,3.9-1.1c0.9,0,1.6,0.3,2.1,0.8c0.6,0.5,0.9,1.1,0.9,1.8c0,0.6-0.2,1.3-0.5,2.1
	c-0.3,0.8-0.8,1.8-1.5,3c-0.6,1-1.2,1.9-1.8,2.8c-0.7,0.9-1.4,1.9-2.2,2.8c-0.3,0.4-0.6,0.8-1,1.1c-0.3,0.4-0.6,0.7-0.9,1.1
	c-0.6,0.8-0.9,1.3-0.9,1.5c0,0.1,0.1,0.2,0.1,0.2c0.3,0,1.4-1.3,3.5-3.7c0.9-1.1,1.9-2.3,3-3.3c1.1-1.1,2.2-2.1,3.4-3.2
	c2.7-2.2,4.5-3.4,5.5-3.4c0.2,0,0.4,0.1,0.5,0.3c0.2,0.2,0.2,0.4,0.2,0.6c0,0.7-0.8,2.2-2.3,4.5c-0.1,0.2-0.4,0.6-0.9,1.3
	s-1.2,1.6-2.1,2.7c-1.7,2.1-2.5,3.2-2.5,3.4c0,0,0,0.1,0,0.3V24c0,0,0.1,0,0.2,0c0.2,0,0.9-0.8,2.3-2.4c0.7-0.9,1.3-1.6,1.7-2.1
	s0.7-0.8,0.7-0.8c1.3-1.2,2.5-2.4,3.7-3.6c1.2-1.2,2.5-2.4,3.7-3.6C148.6,9.8,150,9,151,9c0.8,0,1.2,0.3,1.2,0.8
	c0,0.8-0.3,1.9-0.9,3.5c-0.3,0.7-0.6,1.5-0.8,2.2c-0.3,0.7-0.5,1.4-0.8,2.1c-0.3,0.9-0.5,1.7-0.7,2.4s-0.2,1.4-0.2,2
	c0,0.5,0,0.8,0.1,1c0.1,0.2,0.2,0.3,0.4,0.4h0.2c0.1,0,0.1,0,0.2,0c0.2-0.1,0.3-0.2,0.3-0.2c0-0.1,0-0.2,0-0.3V22.5z"/>
<path class="st1" d="M127.1,16.6c-0.5-6.6-8.5-6.7-12.4-4.4c0-2.4-1.9-4.4-4.1-5c-7-2.1-11.2,5.2-9.7,9.8c0.8,2.5,2.8,4.8,4.3,6.9
	c1.5,2,3.4,3.7,4,6.1v0.3c2.8-1.9,4.1-2.4,7-3.3C120.9,25.6,127.8,25.7,127.1,16.6z M57.3,18.1c0-0.4-0.3-0.8-0.7-0.9
	c-1.1-0.3-1.9,0.9-1.6,1.7c0.2,0.4,0.5,0.6,0.8,1c0.2,0.4,0.5,0.8,0.6,1.2c0.5-0.3,0.7-0.4,1.2-0.4c0.8-0.3,1.9-0.2,1.8-1.8
	C59.3,17.7,58,17.7,57.3,18.1z"/>
<path class="st2" d="M123.5,20.9c0,0-0.1,0-0.1,0c-0.7,0.5-1.2,0.9-1.6,1.2c-0.4,0.3-0.6,0.5-0.8,0.5c-1.2,0.8-2.1,1.2-2.7,1.2
	c-0.2,0-0.5-0.1-0.7-0.2c-0.2-0.2-0.3-0.4-0.3-0.6c0.2-0.1,0.3-0.2,0.5-0.3c0,0,0.1,0,0.1-0.1c0.3-0.2,0.6-0.4,0.8-0.5
	c0.1-0.1,0.2-0.2,0.3-0.3s0.2-0.2,0.3-0.3c0.1-0.1,0.2-0.3,0.3-0.4c0,0,0,0,0,0c0,0,0,0,0,0c0-0.1,0-0.1,0-0.2
	c0-0.1-0.1-0.3-0.2-0.4c-0.1-0.1-0.3-0.2-0.4-0.2c-0.4,0-1,0.3-1.6,1c-0.5,0.6-0.8,1.2-0.9,1.6c-0.4,0.2-0.7,0.4-0.9,0.4
	c-0.2,0-0.3,0-0.4-0.1c-0.1,0-0.2-0.1-0.2-0.1c0-0.1-0.1-0.1-0.1-0.2s0-0.2,0-0.3c0-0.3,0.2-0.7,0.5-1.1c0.2-0.2,0.3-0.4,0.4-0.5
	c0.1-0.1,0.1-0.2,0.1-0.2c0-0.2-0.1-0.3-0.2-0.3c-0.2,0-0.7,0.2-1.3,0.7c-0.9,0.6-1.6,1.1-2.1,1.4c-0.5,0.3-0.8,0.5-0.9,0.6l1-1.5
	c0.7-0.3,1.2-0.5,1.5-0.8c0.2-0.1,0.4-0.2,0.5-0.3s0.4-0.2,0.5-0.3c1-0.6,2-1.4,3.1-2.2c1-0.9,2-1.9,3-3.1c1.1-1.3,1.7-2.2,1.7-2.7
	c0-0.2-0.1-0.4-0.4-0.6c-0.2-0.2-0.5-0.3-0.8-0.3c-0.8,0-2.3,1.2-4.5,3.6c-0.7,0.7-1.2,1.4-1.8,2l-3.4-0.2l1.5-1.4
	c0-0.1,0-0.1,0-0.2c-0.1-0.1-0.1-0.1-0.2-0.1c-0.1,0-0.2,0-0.3,0.1s-0.1,0-0.2,0.1l-1.6,1.5h-6.8c-0.2,0-0.4,0.1-0.4,0.2
	c0,0.2,0,0.3,0.2,0.3l6.4,0.1c-0.4,0.5-0.9,0.9-1.3,1.4c-0.4,0.4-0.9,0.9-1.3,1.3c-1.2,1.3-1.8,2.4-1.8,3.1c0,0.3,0.1,0.6,0.3,0.8
	c0.2,0.2,0.4,0.3,0.7,0.3c0.8,0,1.8-0.4,2.9-1.2c0.3-0.2,0.6-0.4,1-0.8c0.1-0.1,0.1-0.1,0.2-0.2c-0.1,0.2-0.2,0.3-0.4,0.5
	c-0.2,0.3-0.4,0.6-0.5,0.8s-0.2,0.3-0.2,0.4c0,0.1,0.1,0.2,0.2,0.2c0.1,0,0.3-0.1,0.5-0.2c0.2-0.1,0.5-0.3,0.8-0.6
	c0.6-0.5,1.1-0.8,1.4-1.1c0.3-0.2,0.5-0.4,0.6-0.4c0.1-0.1,0.2-0.1,0.2-0.1s0.1,0,0.2,0c0,0.3-0.1,0.5-0.1,0.7s0,0.3,0,0.4
	c0,0.6,0.4,0.9,1.1,0.9c0.4,0,0.8-0.2,1.4-0.4c0.1,0.6,0.5,1,1.2,1c1,0,2-0.4,3.2-1.2c0.2-0.2,0.6-0.4,1-0.7
	c0.4-0.3,0.9-0.8,1.5-1.3c0-0.1,0.1-0.1,0.1-0.2C123.5,21,123.5,20.9,123.5,20.9z M116.5,16.3c0.6-0.7,1.1-1.3,1.6-1.8
	c0.4-0.5,0.8-0.9,1.1-1.2c1-0.9,1.7-1.3,2.2-1.3c0.4,0,0.6,0.2,0.6,0.5c0,0.8-0.7,1.9-2,3.3c-0.6,0.6-1.2,1.2-1.9,1.8
	c-0.7,0.6-1.4,1.2-2.2,1.8c-1.5,1.1-2.5,1.7-3.1,1.8c0,0,0,0,0,0c0.1-0.2,0.2-0.4,0.4-0.7c0.2-0.3,0.5-0.7,0.9-1.2
	c0.2-0.3,0.6-0.7,1-1.2c0.1-0.2,0.3-0.4,0.5-0.6h0.5c0.5,0,0.7-0.2,0.7-0.4l-0.8,0C116,16.9,116.2,16.6,116.5,16.3z M110.3,22.6
	c-1.1,0.8-2,1.1-2.6,1.1c-0.5,0-0.8-0.2-0.8-0.6c0-0.6,0.6-1.5,1.8-2.9c0.1-0.1,1-1,2.6-2.7h3.6c-0.2,0.2-0.4,0.4-0.5,0.6
	c-0.8,1-1.4,1.9-2,2.7c-0.1,0.1-0.2,0.3-0.3,0.5c-0.2,0.2-0.4,0.3-0.6,0.5C111.1,22.1,110.7,22.4,110.3,22.6z M117.3,22.4
	c0-0.3,0.2-0.6,0.5-0.9c0.3-0.4,0.6-0.5,0.8-0.5c0.2,0,0.2,0.1,0.2,0.1c0,0.2-0.1,0.3-0.3,0.5l-0.4,0.3c-0.2,0.1-0.4,0.3-0.5,0.4
	C117.5,22.4,117.4,22.4,117.3,22.4z"/>
</svg>
