<?xml version="1.0" encoding="utf-8"?>
<svg version="1.1" id="Layer_1" xmlns="http://www.w3.org/2000/svg" xmlns:xlink="http://www.w3.org/1999/xlink" x="0" y="0" viewBox="0 0 400 400" style="enable-background:new 0 0 400 400;" width="400" height="400" xml:space="preserve">
 <style type="text/css">.st0{fill:#C55F55;}</style>
 <path id="svg_1" d="m233.839901,191.925072l-16.49866,0c-5.40473,0 -10.24054,-4.5636 -10.24054,-10.2681l0,-3.70792c0,-7.13062 -5.97365,-12.83512 -12.80068,-12.83512l-63.15001,0c-7.11149,0 -12.80068,5.98972 -12.80068,12.83512l0,3.99315c0,5.41927 -4.55135,10.26809 -10.24054,10.26809l-16.78311,0c-12.80068,0 -23.32568,10.55332 -23.32568,23.38844l0,19.96574c0,2.85225 2.27567,4.84883 4.83581,4.84883c2.8446,0 4.83581,-2.2818 4.83581,-4.84883l0,-19.96574c0,-7.41585 6.25811,-13.69079 13.65406,-13.69079l16.49865,0c11.09392,0 20.19663,-9.1272 20.19663,-20.25097l0,-3.99315c0,-1.42612 1.13784,-2.85225 2.84459,-2.85225l63.15001,0c1.4223,0 2.8446,1.1409 2.8446,2.85225l0,3.99315c0,11.12377 9.1027,20.25097 20.19663,20.25097l16.49865,0c7.39594,0 13.65405,6.27494 13.65405,13.69079l0,92.12763c0,7.41585 -6.2581,13.6908 -13.65405,13.6908l-142.22976,0c-7.39595,0 -13.65406,-6.27495 -13.65406,-13.6908l0,-41.3576c0,-2.85225 -2.27567,-4.84883 -4.83581,-4.84883c-2.84459,0 -4.83581,2.2818 -4.83581,4.84883l0,41.64283c0,12.83512 10.525,23.38844 23.32568,23.38844l142.51422,0c12.80067,0 23.32568,-10.55332 23.32568,-23.38844l0,-92.41286c0,-13.12034 -10.52501,-23.67366 -23.32568,-23.67366zm-26.17028,67.31307c0,-25.09979 -20.19663,-45.35076 -45.22906,-45.35076c-25.03244,0 -45.22907,20.25097 -45.22907,45.35076c0,25.09978 20.19663,45.35075 45.22907,45.35075c24.74798,0 45.22906,-20.25097 45.22906,-45.35075zm-79.93312,0c0,-19.3953 15.64527,-35.08266 34.98852,-35.08266s34.98852,15.68736 34.98852,35.08266s-15.64528,35.08265 -34.98852,35.08265s-34.98852,-15.68736 -34.98852,-35.08265zm106.38785,-38.50536c0,-3.13748 -2.56013,-5.13405 -5.12027,-5.13405c-2.84459,0 -5.40473,2.56702 -5.40473,5.13405c0,2.85225 2.56014,5.13405 5.12027,5.13405c2.56014,0 5.40473,-1.99658 5.40473,-5.13405zm-94.15609,-69.59487c2.84459,0 4.83581,-2.2818 4.83581,-4.84882l0,-71.02099l142.79867,0l0,42.78373c0,2.85224 2.27568,4.84882 4.83582,4.84882c2.84459,0 4.83581,-2.2818 4.83581,-4.84882l0,-48.20301c0,-2.85225 -2.27568,-4.84882 -4.83581,-4.84882l-152.4703,0c-2.8446,0 -4.83582,2.2818 -4.83582,4.84882l0,75.86982c0,3.13747 1.99122,5.41927 4.83582,5.41927zm130.85137,-34.51221c2.8446,0 4.83582,-2.2818 4.83582,-4.84882l0,-19.96574c0,-2.85225 -2.27568,-4.84883 -4.83582,-4.84883l-109.51691,0c-2.84459,0 -4.83581,2.2818 -4.83581,4.84883l0,55.90407c0,2.85225 2.27567,4.84882 4.83581,4.84882c2.8446,0 4.83581,-2.28179 4.83581,-4.84882l0,-51.34047l99.56083,0l0,15.11691c0.28446,2.85225 2.56014,5.13405 5.12027,5.13405zm97.85408,48.48823l-142.22976,-55.33363c-2.56014,-0.85567 -5.40473,0.28523 -6.54257,2.85225l-14.22298,36.50879c-0.85337,2.56702 0.28446,5.41927 2.8446,6.56017c2.56014,0.85567 5.40473,-0.28523 6.54257,-2.85225l12.23176,-31.37474l132.84259,51.62571l-51.48717,132.62956l-36.12636,-13.6908c-2.56014,-0.85567 -5.40473,0.28523 -6.54257,2.85225c-0.85338,2.56703 0.28446,5.41928 2.8446,6.56018l41.24663,15.97259c0.56892,0.28522 1.13783,0.28522 1.70675,0.28522c2.27568,0 3.98244,-1.14089 4.55136,-3.13747l55.18514,-142.89766c0.85338,-2.85225 -0.28446,-5.41927 -2.84459,-6.56017zm-63.15002,102.68095c2.56014,0.85568 5.40474,-0.28522 6.54257,-2.85225l31.57501,-81.57431c0.56892,-1.1409 0.28446,-2.85225 0,-3.70792c-0.56892,-1.1409 -1.4223,-2.2818 -2.8446,-2.85225l-102.40542,-39.36103c-1.13784,-0.57045 -2.8446,-0.28523 -3.98243,0c-1.13784,0.57045 -2.27568,1.42612 -2.8446,2.85224l-12.80068,35.65311c-0.85338,2.56703 0.28446,5.41927 3.12906,6.56017c2.56013,0.85568 5.40473,-0.28522 6.54257,-3.13747l11.09392,-30.80429l92.7338,35.93834l-27.87703,72.16189l-33.28176,-12.83512c-2.56014,-0.85568 -5.40474,0.28522 -6.54257,2.85225c-0.85338,2.56702 0.28446,5.41927 2.84459,6.56017l38.11758,14.54647l-0.00001,0zm-29.01487,-49.91435c0.28446,0.28522 0.85338,0.28522 1.13784,0.28522c5.40473,-0.85567 15.64528,-3.13747 21.33447,-7.98629c7.39594,-5.98972 10.525,-13.6908 8.24932,-19.96574c-1.13784,-3.13748 -3.98243,-5.7045 -7.6804,-6.56018c-2.8446,-0.85567 -5.68919,-0.28522 -8.53379,0.85568c-0.85338,-2.85225 -2.56014,-5.13405 -5.12027,-6.8454c-3.12906,-1.99657 -6.82703,-2.56702 -10.24054,-1.1409c-5.97365,2.2818 -9.67163,9.98287 -8.81825,19.39529c0.28446,7.70108 5.40473,16.54305 8.53379,21.10664c0.28446,0.28523 0.56892,0.57045 1.13783,0.85568zm1.13784,-37.07923c1.4223,-0.57045 3.41352,-0.57045 5.12027,0.28522c0.28446,0.28523 0.56892,0.28523 1.13784,0.57045c1.99122,1.42612 3.41352,3.70792 3.69798,6.8454c0,1.71135 2.27567,2.85225 3.69797,1.71135c2.27568,-1.99658 5.12027,-2.56703 7.39595,-1.99658c1.99121,0.57045 3.98243,1.99658 4.55135,3.99315c1.4223,3.70792 -1.4223,9.69765 -6.82703,14.26124c-4.55135,3.99315 -13.08514,5.98973 -17.63649,6.8454c-2.56014,-3.99315 -6.82703,-11.40899 -7.11149,-17.68394c-0.56892,-7.13062 1.99122,-13.40557 5.97365,-14.83169z" class="st0" stroke="null"/>
</svg>