<?xml version="1.0" encoding="utf-8"?>
<svg version="1.1" id="Layer_1" xmlns="http://www.w3.org/2000/svg" xmlns:xlink="http://www.w3.org/1999/xlink" x="0px" y="0px" viewBox="0 0 110 96.3" style="enable-background:new 0 0 110 96.3;" xml:space="preserve">
<style type="text/css">
	.st0{fill:#C55F55;}
</style>
<path class="st0" d="M59.8,45.9h-5.8c-1.9,0-3.6-1.6-3.6-3.6V41c0-2.5-2.1-4.5-4.5-4.5H23.7c-2.5,0-4.5,2.1-4.5,4.5v1.4
	c0,1.9-1.6,3.6-3.6,3.6H9.7c-4.5,0-8.2,3.7-8.2,8.2v7c0,1,0.8,1.7,1.7,1.7c1,0,1.7-0.8,1.7-1.7v-7c0-2.6,2.2-4.8,4.8-4.8h5.8
	c3.9,0,7.1-3.2,7.1-7.1v-1.4c0-0.5,0.4-1,1-1h22.2c0.5,0,1,0.4,1,1v1.4c0,3.9,3.2,7.1,7.1,7.1h5.8c2.6,0,4.8,2.2,4.8,4.8v32.3
	c0,2.6-2.2,4.8-4.8,4.8H9.7c-2.6,0-4.8-2.2-4.8-4.8V72c0-1-0.8-1.7-1.7-1.7c-1,0-1.7,0.8-1.7,1.7v14.6c0,4.5,3.7,8.2,8.2,8.2h50.1
	c4.5,0,8.2-3.7,8.2-8.2V54.2C68,49.6,64.3,45.9,59.8,45.9z M50.6,69.5c0-8.8-7.1-15.9-15.9-15.9c-8.8,0-15.9,7.1-15.9,15.9
	c0,8.8,7.1,15.9,15.9,15.9C43.4,85.4,50.6,78.3,50.6,69.5z M22.5,69.5c0-6.8,5.5-12.3,12.3-12.3s12.3,5.5,12.3,12.3
	s-5.5,12.3-12.3,12.3S22.5,76.3,22.5,69.5z M59.9,56c0-1.1-0.9-1.8-1.8-1.8c-1,0-1.9,0.9-1.9,1.8c0,1,0.9,1.8,1.8,1.8
	C58.9,57.8,59.9,57.1,59.9,56z M26.8,31.6c1,0,1.7-0.8,1.7-1.7V5h50.2v15c0,1,0.8,1.7,1.7,1.7c1,0,1.7-0.8,1.7-1.7V3.1
	c0-1-0.8-1.7-1.7-1.7H26.8c-1,0-1.7,0.8-1.7,1.7v26.6C25.1,30.8,25.8,31.6,26.8,31.6z M72.8,19.5c1,0,1.7-0.8,1.7-1.7v-7
	c0-1-0.8-1.7-1.7-1.7H34.3c-1,0-1.7,0.8-1.7,1.7v19.6c0,1,0.8,1.7,1.7,1.7c1,0,1.7-0.8,1.7-1.7V12.4h35v5.3
	C71.1,18.7,71.9,19.5,72.8,19.5z M107.2,36.5L57.2,17.1c-0.9-0.3-1.9,0.1-2.3,1l-5,12.8c-0.3,0.9,0.1,1.9,1,2.3
	c0.9,0.3,1.9-0.1,2.3-1l4.3-11l46.7,18.1L86.1,85.8L73.4,81c-0.9-0.3-1.9,0.1-2.3,1c-0.3,0.9,0.1,1.9,1,2.3l14.5,5.6
	c0.2,0.1,0.4,0.1,0.6,0.1c0.8,0,1.4-0.4,1.6-1.1l19.4-50.1C108.5,37.8,108.1,36.9,107.2,36.5z M85,72.5c0.9,0.3,1.9-0.1,2.3-1
	l11.1-28.6c0.2-0.4,0.1-1,0-1.3c-0.2-0.4-0.5-0.8-1-1l-36-13.8c-0.4-0.2-1-0.1-1.4,0c-0.4,0.2-0.8,0.5-1,1l-4.5,12.5
	c-0.3,0.9,0.1,1.9,1.1,2.3c0.9,0.3,1.9-0.1,2.3-1.1l3.9-10.8l32.6,12.6l-9.8,25.3l-11.7-4.5c-0.9-0.3-1.9,0.1-2.3,1
	c-0.3,0.9,0.1,1.9,1,2.3L85,72.5z M74.8,55c0.1,0.1,0.3,0.1,0.4,0.1c1.9-0.3,5.5-1.1,7.5-2.8c2.6-2.1,3.7-4.8,2.9-7
	c-0.4-1.1-1.4-2-2.7-2.3c-1-0.3-2-0.1-3,0.3c-0.3-1-0.9-1.8-1.8-2.4c-1.1-0.7-2.4-0.9-3.6-0.4c-2.1,0.8-3.4,3.5-3.1,6.8
	c0.1,2.7,1.9,5.8,3,7.4C74.5,54.8,74.6,54.9,74.8,55z M75.2,42c0.5-0.2,1.2-0.2,1.8,0.1c0.1,0.1,0.2,0.1,0.4,0.2
	c0.7,0.5,1.2,1.3,1.3,2.4c0,0.6,0.8,1,1.3,0.6c0.8-0.7,1.8-0.9,2.6-0.7c0.7,0.2,1.4,0.7,1.6,1.4c0.5,1.3-0.5,3.4-2.4,5
	c-1.6,1.4-4.6,2.1-6.2,2.4c-0.9-1.4-2.4-4-2.5-6.2C72.9,44.7,73.8,42.5,75.2,42z"/>
</svg>
