<svg xmlns="http://www.w3.org/2000/svg" viewBox="0 0 24 24"><defs><style>.cls-1{fill:#c55f55;}</style></defs><title>Asset 1</title><g id="Layer_2" data-name="Layer 2"><g id="Layer_1-2" data-name="Layer 1"><path class="cls-1" d="M23,6H18.45A4,4,0,0,0,19,4a4,4,0,0,0-7-2.62A4,4,0,0,0,5.55,6H1A1,1,0,0,0,0,7v5a1,1,0,0,0,1,1V23a1,1,0,0,0,1,1H22a1,1,0,0,0,1-1V13a1,1,0,0,0,1-1V7A1,1,0,0,0,23,6ZM15,2a2,2,0,1,1-2,2A2,2,0,0,1,15,2ZM9,2A2,2,0,1,1,7,4,2,2,0,0,1,9,2ZM3,22V13H6v9Zm4,0V13H9v9Zm3,0V13h4v9Zm5,0V13h2v9Zm6,0H18V13h3Zm1-11H2V8H22Z"/></g></g></svg>