<?xml version="1.0" encoding="utf-8"?>
<!-- Generator: Adobe Illustrator 20.1.0, SVG Export Plug-In . SVG Version: 6.00 Build 0)  -->
<svg version="1.1" id="Layer_1" xmlns="http://www.w3.org/2000/svg" xmlns:xlink="http://www.w3.org/1999/xlink" x="0px" y="0px"
	 viewBox="0 0 122 122" style="enable-background:new 0 0 122 122;" xml:space="preserve">
<style type="text/css">
	.st0{fill:#E99E99;}
	.st1{fill:#FFFFFF;}
</style>
<circle class="st0" cx="61" cy="60.8" r="60"/>
<g>
	<path class="st1" d="M72.9,36.6H69c-0.4,0-0.6-0.3-0.6-0.6c0-0.4,0.3-0.6,0.6-0.6h3.9c0.3,0,0.5-0.2,0.5-0.5v-10
		c0-0.3-0.2-0.5-0.5-0.5h-4.2c-1.5,0-2-1.2-2-2v-0.6c0-0.2-0.3-0.7-1.3-0.7h-5.5c-1.1,0-1.3,0.6-1.3,0.7v0.6c0,0.8-0.6,2-2,2h-4.2
		c-0.3,0-0.5,0.2-0.5,0.5v10c0,0.3,0.2,0.5,0.5,0.5h3.3c0.4,0,0.6,0.3,0.6,0.6c0,0.4-0.3,0.6-0.6,0.6h-3.3c-1,0-1.8-0.8-1.8-1.8v-10
		c0-1,0.8-1.8,1.8-1.8h4.2c0.7,0,0.8-0.6,0.8-0.8v-0.5c0-1,0.9-2,2.6-2h5.5c1.8,0,2.6,1.2,2.6,2v0.6c0,0.3,0.1,0.7,0.7,0.7h4.2
		c1,0,1.8,0.8,1.8,1.8v10C74.6,35.8,73.9,36.6,72.9,36.6z"/>
	<path class="st1" d="M56.2,23.2c-0.4,0-0.6-0.3-0.6-0.6v-0.5h-2.1v0.5c0,0.4-0.3,0.6-0.6,0.6c-0.4,0-0.6-0.3-0.6-0.6V22
		c0-0.7,0.5-1.2,1.2-1.2h2.2c0.7,0,1.2,0.5,1.2,1.2v0.6C56.9,23,56.6,23.2,56.2,23.2z"/>
	<path class="st1" d="M62.6,38.3c-4.2,0-7.6-3.4-7.6-7.6s3.4-7.6,7.6-7.6s7.6,3.4,7.6,7.6S66.8,38.3,62.6,38.3z M62.6,24.4
		c-3.5,0-6.3,2.8-6.3,6.3s2.8,6.3,6.3,6.3s6.3-2.8,6.3-6.3S66.1,24.4,62.6,24.4z"/>
	<path class="st1" d="M62.6,36c-3,0-5.4-2.4-5.4-5.4s2.4-5.4,5.4-5.4s5.4,2.4,5.4,5.4S65.6,36,62.6,36z M62.6,26.6
		c-2.3,0-4.1,1.8-4.1,4.1s1.8,4.1,4.1,4.1s4.1-1.8,4.1-4.1S64.9,26.6,62.6,26.6z"/>
	<path class="st1" d="M56.1,28.2h-4.9c-0.4,0-0.6-0.3-0.6-0.6s0.3-0.6,0.6-0.6h4.9c0.4,0,0.6,0.3,0.6,0.6S56.4,28.2,56.1,28.2z"/>
	<path class="st1" d="M74,28.2h-4.9c-0.4,0-0.6-0.3-0.6-0.6s0.3-0.6,0.6-0.6H74c0.4,0,0.6,0.3,0.6,0.6S74.4,28.2,74,28.2z"/>
	<path class="st1" d="M58.5,100.7h-6.2c-0.7,0-1.3-0.6-1.3-1.3V92c0-0.4,0.3-0.6,0.6-0.6c0.4,0,0.6,0.3,0.6,0.6v7.5l6.2,0
		c0.4,0,0.6,0.3,0.6,0.6S58.9,100.7,58.5,100.7z"/>
	<path class="st1" d="M75.8,100.6H62.7c-0.4,0-0.6-0.3-0.6-0.6c0-0.4,0.3-0.6,0.6-0.6h13.1l0-7.4c0-0.4,0.3-0.6,0.6-0.6
		c0.4,0,0.6,0.3,0.6,0.6v7.5C77,100,76.5,100.6,75.8,100.6z"/>
	<path class="st1" d="M76,88.9c-0.4,0-0.6-0.3-0.6-0.6v-5.6l-13,0c-0.4,0-0.6-0.3-0.6-0.6s0.3-0.6,0.6-0.6h13.1
		c0.7,0,1.3,0.6,1.3,1.3v5.6C76.6,88.6,76.3,88.9,76,88.9z"/>
	<path class="st1" d="M51.7,88.9c-0.4,0-0.6-0.3-0.6-0.6v-5.6c0-0.7,0.6-1.3,1.3-1.3h6.2c0.4,0,0.6,0.3,0.6,0.6s-0.3,0.6-0.6,0.6
		h-6.2l0,5.6C52.3,88.6,52.1,88.9,51.7,88.9z"/>
	<path class="st1" d="M60.4,101.4c-0.4,0-0.6-0.3-0.6-0.6V81.4c0-0.4,0.3-0.6,0.6-0.6c0.4,0,0.6,0.3,0.6,0.6v19.3
		C61.1,101.1,60.8,101.4,60.4,101.4z"/>
	<path class="st1" d="M76.6,90.8H51.1c-0.4,0-0.6-0.3-0.6-0.6s0.3-0.6,0.6-0.6h25.5c0.4,0,0.6,0.3,0.6,0.6S76.9,90.8,76.6,90.8z"/>
	<path class="st1" d="M60.4,90.7c-0.2,0-0.3-0.1-0.5-0.2c-0.1-0.1-0.2-0.3-0.2-0.5c0-0.6,0.2-3.4,1.1-4.3c1-1,2.8-1,3.9,0
		c0.5,0.5,0.8,1.2,0.8,1.9c0,0.7-0.3,1.4-0.8,1.9l0,0l0,0v0C63.8,90.6,61,90.7,60.4,90.7C60.4,90.7,60.4,90.7,60.4,90.7z M62.8,86.3
		c-0.4,0-0.8,0.2-1,0.4c-0.3,0.3-0.6,1.6-0.7,2.7c1.2-0.1,2.4-0.4,2.7-0.7c0,0,0,0,0,0c0.3-0.3,0.4-0.6,0.4-1c0-0.4-0.2-0.8-0.4-1
		C63.6,86.4,63.2,86.3,62.8,86.3z"/>
	<path class="st1" d="M58,95.2c-0.7,0-1.4-0.3-1.9-0.8c-1.1-1.1-1.1-2.8,0-3.9c1-1,3.8-1.1,4.3-1.1c0.2,0,0.3,0.1,0.5,0.2
		C61,89.8,61,90,61,90.1c0,0.6-0.2,3.4-1.1,4.3C59.4,95,58.7,95.2,58,95.2z M59.7,90.8c-1.2,0.1-2.4,0.4-2.7,0.7
		c-0.6,0.6-0.6,1.5,0,2.1c0.6,0.6,1.5,0.6,2.1,0C59.4,93.2,59.6,91.9,59.7,90.8z"/>
	<path class="st1" d="M63.2,96.4c-0.2,0-0.5-0.1-0.6-0.4c-0.2-0.3,0-0.7,0.3-0.9c0.9-0.4,1.2-1.5,0.8-2.4c-0.3-0.7-2.3-1.6-3.5-2.1
		c-0.3-0.1-0.5-0.5-0.4-0.8c0.1-0.3,0.5-0.5,0.8-0.4c0.6,0.2,3.6,1.4,4.2,2.7c0.7,1.5,0.1,3.3-1.4,4.1
		C63.4,96.4,63.3,96.4,63.2,96.4z"/>
	<path class="st1" d="M60.4,90.7c-0.1,0-0.2,0-0.2,0c-0.6-0.2-3.6-1.4-4.2-2.7c-0.7-1.5-0.1-3.3,1.4-4.1c0.3-0.2,0.7,0,0.9,0.3
		c0.2,0.3,0,0.7-0.3,0.9c-0.9,0.4-1.2,1.5-0.8,2.4c0.3,0.7,2.3,1.6,3.5,2.1c0.3,0.1,0.5,0.5,0.4,0.8C60.9,90.6,60.7,90.7,60.4,90.7z
		"/>
	<path class="st1" d="M22.7,65.4c-0.1,0-0.2,0-0.3-0.1c-0.4-0.3-10.9-6.9-10.9-12.8c0-7.6,8.5-7.6,11.2-7.6s11.2,0,11.2,7.6
		c0,5.8-10.4,12.5-10.9,12.8C23,65.4,22.8,65.4,22.7,65.4z M22.7,46.2c-6.8,0-10,2-10,6.3c0,4.6,8.2,10.3,10,11.5
		c1.8-1.2,10-6.9,10-11.5C32.7,48.2,29.5,46.2,22.7,46.2z"/>
	<path class="st1" d="M22.7,65.4c-0.2,0-0.3-0.1-0.4-0.2c-0.3-0.3-7.7-6.9-7.7-12.7c0-5.1,2.6-7.6,8.1-7.6c5.4,0,8.1,2.5,8.1,7.6
		c0,5.8-7.4,12.4-7.7,12.7C23,65.4,22.9,65.4,22.7,65.4z M22.7,46.2c-4.7,0-6.8,2-6.8,6.3c0,4.5,5.3,9.9,6.8,11.4
		c1.6-1.5,6.8-6.9,6.8-11.4C29.5,48.2,27.4,46.2,22.7,46.2z"/>
	<path class="st1" d="M22.7,65.4c-0.2,0-0.5-0.1-0.6-0.3c-0.1-0.3-3.6-6.9-3.6-12.5c0-5.1,1.4-7.6,4.2-7.6s4.2,2.5,4.2,7.6
		c0,5.7-3.5,12.3-3.6,12.5C23.2,65.3,23,65.4,22.7,65.4z M22.7,46.2c-0.8,0-2.9,0-2.9,6.3c0,4,1.9,8.6,2.9,10.8
		c1-2.1,2.9-6.8,2.9-10.8C25.6,46.2,23.5,46.2,22.7,46.2z"/>
	<path class="st1" d="M23.9,70.6h-2.4c-0.8,0-1.4-0.6-1.4-1.4v-2.4c0-0.4,0.3-0.6,0.6-0.6h3.9c0.4,0,0.6,0.3,0.6,0.6v2.4
		C25.3,69.9,24.7,70.6,23.9,70.6z M21.4,67.4v1.7c0,0.1,0,0.1,0.1,0.1h2.4c0.1,0,0.1-0.1,0.1-0.1v-1.7H21.4z"/>
	<path class="st1" d="M98.6,58.7c-2.6,0-3.9-0.7-5.1-1.5l-0.2-0.1c-0.3-0.2-0.4-0.6-0.2-0.9c0.2-0.3,0.6-0.4,0.9-0.2l0.2,0.1
		c1.2,0.7,2.3,1.3,4.5,1.3c2.2,0,3.3-0.6,4.5-1.3c1.3-0.7,2.6-1.5,5.1-1.5c1,0,1.8,0.1,2.6,0.3c0.3,0.1,0.5,0.4,0.4,0.8
		c-0.1,0.3-0.4,0.5-0.8,0.4c-0.7-0.2-1.4-0.3-2.2-0.3c-2.2,0-3.3,0.6-4.5,1.3C102.5,57.9,101.2,58.7,98.6,58.7z"/>
	<path class="st1" d="M102.2,65.8c-5.3,0-9.3-5.5-9.3-10.5c0-1.8,0.6-4.5,1.6-6.1c0.1-0.2,0.3-0.3,0.5-0.3h14.3
		c0.2,0,0.4,0.1,0.5,0.3c1.1,1.6,1.6,4.2,1.6,6.1C111.5,60.3,107.5,65.8,102.2,65.8z M95.4,50.2c-0.8,1.4-1.2,3.6-1.2,5.1
		c0,4.3,3.5,9.2,8,9.2c4.5,0,8-5,8-9.2c0-1.5-0.4-3.7-1.2-5.1H95.4z"/>
	<path class="st1" d="M102.2,73.3c-0.4,0-0.6-0.3-0.6-0.6v-7.4c0-0.4,0.3-0.6,0.6-0.6c0.4,0,0.6,0.3,0.6,0.6v7.4
		C102.8,73,102.5,73.3,102.2,73.3z"/>
	<path class="st1" d="M107,74.9h-9.5c-0.4,0-0.6-0.3-0.6-0.6v-0.5c0-1,0.8-1.8,1.8-1.8h7.2c1,0,1.8,0.8,1.8,1.9v0.4
		C107.6,74.6,107.3,74.9,107,74.9z M98.1,73.6h8.2c-0.1-0.2-0.3-0.4-0.5-0.4h-7.2C98.3,73.3,98.1,73.4,98.1,73.6z"/>
	<path class="st1" d="M50.7,59.9c0.3-0.2,0.4-0.6,0.2-0.9c-0.2-0.3-0.6-0.4-0.9-0.2c-0.7,0.4-1.1,1-1.1,1.6s0.4,1.2,1.1,1.6l7.8,4.4
		c0.6,0.3,1.4,0.5,2.1,0.5c0.8,0,1.5-0.2,2.1-0.5l7.8-4.4c0.7-0.4,1.1-1,1.1-1.6c0-0.6-0.4-1.2-1.1-1.6c-0.3-0.2-0.7-0.1-0.9,0.2
		c-0.2,0.3-0.1,0.7,0.2,0.9c0.3,0.2,0.4,0.4,0.4,0.5c0,0.1-0.1,0.3-0.4,0.5l-7.8,4.4c-0.8,0.4-2.2,0.4-3,0l-7.8-4.4
		c-0.3-0.2-0.4-0.4-0.4-0.5C50.3,60.2,50.4,60,50.7,59.9z M101.2,34l-5.3-1.4l0.5-5.5c0-0.4-0.2-0.7-0.6-0.7c-0.3,0-0.7,0.2-0.7,0.6
		l-0.5,5.8c-0.1,0-0.2,0-0.3,0.1l-2.1,1.5l0.4-4.6c0-0.4-0.2-0.7-0.6-0.7c-0.3,0-0.7,0.2-0.7,0.6l-0.5,5.7L88.5,37l0.4-4.6
		c0-0.4-0.2-0.7-0.6-0.7c-0.3,0-0.7,0.2-0.7,0.6l-0.5,5.7L66.7,52.3l-4.6-2.6c-1.2-0.7-3-0.7-4.2,0l-4.7,2.7c0-0.1-0.1-0.2-0.2-0.2
		L34.6,35l0.3-5.7c0-0.4-0.3-0.7-0.6-0.7c-0.4,0-0.7,0.3-0.7,0.6l-0.3,4.6l-2.1-2l0.3-5.7c0-0.4-0.3-0.7-0.6-0.7
		c-0.4,0-0.7,0.3-0.7,0.6l-0.3,4.6l-1.9-1.7c-0.1-0.1-0.2-0.1-0.3-0.1l0.3-5.8c0-0.4-0.3-0.7-0.6-0.7c-0.4,0-0.7,0.3-0.7,0.6
		l-0.3,5.5l-5.4,0.7c-0.4,0-0.6,0.4-0.6,0.7c0,0.3,0.3,0.6,0.6,0.6c0,0,0.1,0,0.1,0l5.8-0.7c0,0.1,0.1,0.2,0.2,0.3l1.9,1.7l-4.6,0.6
		c-0.4,0-0.6,0.4-0.6,0.7c0,0.3,0.3,0.6,0.6,0.6c0,0,0.1,0,0.1,0l5.7-0.7l2.1,2l-4.6,0.6c-0.4,0-0.6,0.4-0.6,0.7
		c0,0.3,0.3,0.6,0.6,0.6c0,0,0.1,0,0.1,0l5.7-0.7L52,53l-1.9,1.1c-0.7,0.4-1.1,1-1.1,1.6s0.4,1.2,1.1,1.6l7.8,4.4
		c0.6,0.3,1.4,0.5,2.1,0.5c0.8,0,1.5-0.2,2.1-0.5l7.8-4.4c0.7-0.4,1.1-1,1.1-1.6c0-0.6-0.4-1.2-1.1-1.6l-2-1.1l20-14l5.5,1.5
		c0.1,0,0.1,0,0.2,0c0.3,0,0.5-0.2,0.6-0.5c0.1-0.3-0.1-0.7-0.5-0.8L89.3,38l2.4-1.7l5.5,1.5c0.1,0,0.1,0,0.2,0
		c0.3,0,0.5-0.2,0.6-0.5c0.1-0.3-0.1-0.7-0.5-0.8L93,35.4l2.1-1.5c0.1-0.1,0.2-0.2,0.2-0.2l5.6,1.5c0.1,0,0.1,0,0.2,0
		c0.3,0,0.5-0.2,0.6-0.5C101.8,34.4,101.6,34.1,101.2,34z M69.3,55.2c0.3,0.2,0.4,0.4,0.4,0.5c0,0.1-0.1,0.3-0.4,0.5l-7.8,4.4
		c-0.8,0.4-2.2,0.4-3,0l-7.8-4.4c-0.3-0.2-0.4-0.4-0.4-0.5c0-0.1,0.1-0.3,0.4-0.5l7.8-4.4c0.4-0.2,0.9-0.3,1.5-0.3
		c0.5,0,1.1,0.1,1.5,0.3L69.3,55.2z M100.6,88.8l-5.8,0.7c0-0.1-0.1-0.2-0.2-0.3l-1.9-1.7l4.6-0.6c0.4,0,0.6-0.4,0.6-0.7
		c0-0.4-0.4-0.6-0.7-0.6l-5.7,0.7l-2.1-2l4.6-0.6c0.4,0,0.6-0.4,0.6-0.7c0-0.4-0.4-0.6-0.7-0.6l-5.7,0.7l-18.2-17
		c0.6-0.4,0.9-0.9,0.9-1.5c0-0.6-0.4-1.2-1.1-1.6c-0.3-0.2-0.7-0.1-0.9,0.2c-0.2,0.3-0.1,0.7,0.2,0.9c0.3,0.2,0.4,0.4,0.4,0.5
		c0,0.1-0.1,0.3-0.4,0.5l-7.8,4.4c-0.8,0.4-2.2,0.4-3,0l-7.8-4.4c-0.3-0.2-0.4-0.4-0.4-0.5c0-0.1,0.1-0.3,0.4-0.5
		c0.3-0.2,0.4-0.6,0.2-0.9c-0.2-0.3-0.6-0.4-0.9-0.2c-0.7,0.4-1.1,1-1.1,1.6c0,0.6,0.4,1.2,1.1,1.6l1.1,0.6L30.7,81.4l-5.5-1.5
		c-0.3-0.1-0.7,0.1-0.8,0.5c-0.1,0.3,0.1,0.7,0.5,0.8l4.5,1.2L27,84l-5.5-1.5c-0.3-0.1-0.7,0.1-0.8,0.5c-0.1,0.3,0.1,0.7,0.5,0.8
		l4.5,1.2l-2.1,1.5c-0.1,0.1-0.2,0.2-0.2,0.2l-5.6-1.5c-0.3-0.1-0.7,0.1-0.8,0.5c-0.1,0.3,0.1,0.7,0.5,0.8l5.3,1.4l-0.5,5.5
		c0,0.4,0.2,0.7,0.6,0.7c0,0,0,0,0.1,0c0.3,0,0.6-0.3,0.6-0.6l0.5-5.8c0.1,0,0.2,0,0.3-0.1l2.1-1.5L26,90.6c0,0.4,0.2,0.7,0.6,0.7
		c0,0,0,0,0.1,0c0.3,0,0.6-0.3,0.6-0.6l0.5-5.7l2.4-1.7L29.7,88c0,0.4,0.2,0.7,0.6,0.7c0,0,0,0,0.1,0c0.3,0,0.6-0.3,0.6-0.6l0.5-5.7
		L52,68c0.1-0.1,0.2-0.2,0.2-0.4l5.6,3.2c0.6,0.3,1.4,0.5,2.1,0.5c0.8,0,1.5-0.2,2.1-0.5l6.8-3.8c0,0,0.1,0.1,0.1,0.1l18.4,17.1
		l-0.3,5.7c0,0.4,0.3,0.6,0.6,0.6c0,0,0,0,0,0c0.3,0,0.6-0.2,0.6-0.6l0.3-4.6l2.1,2l-0.3,5.8c0,0.4,0.3,0.8,0.6,0.8c0,0,0,0,0,0
		c0.3,0,0.6-0.4,0.6-0.7l0.3-4.7l1.9,1.7c0.1,0.1,0.2,0.1,0.3,0.1L93.8,96c0,0.4,0.3,0.5,0.6,0.5c0,0,0,0,0,0c0.3,0,0.6-0.1,0.6-0.4
		l0.3-5.4l5.4-0.6c0.4,0,0.6-0.3,0.6-0.7C101.3,89,101,88.8,100.6,88.8z"/>
</g>
</svg>
