<?xml version="1.0" encoding="utf-8"?>
<svg version="1.1" id="Layer_1" xmlns="http://www.w3.org/2000/svg" xmlns:xlink="http://www.w3.org/1999/xlink" x="0px" y="0px" viewBox="0 0 28 28" style="enable-background:new 0 0 28 28;" xml:space="preserve">
<style type="text/css">
	.st0{fill:#c55f55;}
</style>
<g>
	<path class="st0" d="M14,0.7c-3.6,0-7,1.4-9.5,3.9C2,7.1,0.6,10.5,0.6,14.1s1.4,7,3.9,9.5c2.5,2.5,5.9,3.9,9.5,3.9s7-1.4,9.5-3.9
		c2.5-2.5,3.9-5.9,3.9-9.5s-1.4-7-3.9-9.5C21,2.1,17.6,0.7,14,0.7z M14,26.6C7.1,26.6,1.5,21,1.5,14.1S7.1,1.5,14,1.5
		s12.6,5.6,12.6,12.6S20.9,26.6,14,26.6z"/>
	<circle class="st0" cx="14" cy="6.2" r="0.4"/>
	<path class="st0" d="M21.9,11.4c0-0.1-0.1-0.3-0.2-0.4l-4.4-2.7v-2c0-0.2-0.2-0.4-0.4-0.4h-0.8c-0.2-1-1.1-1.7-2.1-1.7
		s-1.9,0.7-2.1,1.7h-0.8c-0.2,0-0.4,0.2-0.4,0.4v1.9H9.3V6.8c0-0.2-0.2-0.4-0.4-0.4S8.5,6.6,8.5,6.8v1.3H6.6c-0.2,0-0.4,0.2-0.4,0.4
		v5.9l-3.4,0c-0.1,0-0.2,0-0.3,0.1c-0.1,0.1-0.1,0.2-0.1,0.3c0.2,3.2,1.7,6.1,4,8c0,0,0,0,0.1,0c1.3,1.2,2.9,2,4.7,2.5
		c0,0,0,0,0.1,0c0.9,0.2,1.9,0.4,2.9,0.4c1,0,2-0.1,2.9-0.4c0,0,0,0,0.1,0c1-0.3,2-0.7,2.9-1.2c1.7-1,3.2-2.4,4.2-4.2
		c0.1-0.2,0.1-0.5-0.1-0.6c-0.2-0.1-0.5-0.1-0.6,0.1c-0.4,0.7-0.9,1.4-1.5,2v-6.3h2.9c-0.1,1-0.3,2-0.7,2.9c-0.1,0.2,0,0.5,0.2,0.6
		c0.2,0.1,0.5,0,0.6-0.2c0.5-1.2,0.7-2.4,0.8-3.6c0-0.1,0-0.2-0.1-0.3c-0.1-0.1-0.2-0.1-0.3-0.1h-1.5v-1.3c0-0.2-0.2-0.4-0.4-0.4
		s-0.4,0.2-0.4,0.4v1.3h-1.1V11.4z M10.7,22.9h-0.1c-0.2,0-0.4,0.2-0.4,0.4c0,0.2,0.2,0.4,0.4,0.4h0.1v0.6C9.4,24,8.1,23.3,7,22.4
		v-2.4c0-0.2-0.2-0.4-0.4-0.4c-0.2,0-0.4,0.2-0.4,0.4v1.6c-1.6-1.7-2.7-3.9-2.9-6.3l2.9,0v3c0,0.2,0.2,0.4,0.4,0.4
		c0.2,0,0.4-0.2,0.4-0.4V8.9h3.7V22.9z M16.4,24.6c-0.8,0.2-1.6,0.3-2.4,0.3c-0.8,0-1.6-0.1-2.4-0.3v-0.9h4.9V24.6z M16.4,22.9h-4.9
		V10.6h4.9V22.9z M16.4,9.8h-4.9V6.7h0.7c0.2,0,0.4-0.2,0.4-0.4c0-0.7,0.6-1.3,1.3-1.3s1.3,0.6,1.3,1.3c0,0.2,0.2,0.4,0.4,0.4h0.7
		V9.8z M21,22.4c-1.1,0.9-2.4,1.6-3.7,2.1v-0.6h0.1c0.2,0,0.4-0.2,0.4-0.4c0-0.2-0.2-0.4-0.4-0.4h-0.1V9.3l3.7,2.3V22.4z"/>
	<path class="st0" d="M19.2,20.4c0.2,0,0.4-0.2,0.4-0.4v-0.6c0-0.2-0.2-0.4-0.4-0.4s-0.4,0.2-0.4,0.4v0.6
		C18.7,20.2,18.9,20.4,19.2,20.4z"/>
	<path class="st0" d="M19.2,18.1c0.2,0,0.4-0.2,0.4-0.4v-0.6c0-0.2-0.2-0.4-0.4-0.4s-0.4,0.2-0.4,0.4v0.6
		C18.7,17.9,18.9,18.1,19.2,18.1z"/>
	<path class="st0" d="M19.2,15.8c0.2,0,0.4-0.2,0.4-0.4v-0.6c0-0.2-0.2-0.4-0.4-0.4s-0.4,0.2-0.4,0.4v0.6
		C18.7,15.6,18.9,15.8,19.2,15.8z"/>
	<path class="st0" d="M19.2,13.5c0.2,0,0.4-0.2,0.4-0.4v-0.6c0-0.2-0.2-0.4-0.4-0.4s-0.4,0.2-0.4,0.4v0.6
		C18.7,13.3,18.9,13.5,19.2,13.5z"/>
	<path class="st0" d="M8.9,20.4c0.2,0,0.4-0.2,0.4-0.4v-0.6c0-0.2-0.2-0.4-0.4-0.4s-0.4,0.2-0.4,0.4v0.6C8.5,20.2,8.6,20.4,8.9,20.4
		z"/>
	<path class="st0" d="M8.9,18.1c0.2,0,0.4-0.2,0.4-0.4v-0.6c0-0.2-0.2-0.4-0.4-0.4s-0.4,0.2-0.4,0.4v0.6C8.5,17.9,8.6,18.1,8.9,18.1
		z"/>
	<path class="st0" d="M8.9,15.8c0.2,0,0.4-0.2,0.4-0.4v-0.6c0-0.2-0.2-0.4-0.4-0.4s-0.4,0.2-0.4,0.4v0.6C8.5,15.6,8.6,15.8,8.9,15.8
		z"/>
	<path class="st0" d="M8.9,11.2c0.2,0,0.4-0.2,0.4-0.4v-0.6c0-0.2-0.2-0.4-0.4-0.4S8.5,10,8.5,10.2v0.6C8.5,11,8.6,11.2,8.9,11.2z"
		/>
	<path class="st0" d="M8.9,13.5c0.2,0,0.4-0.2,0.4-0.4v-0.6c0-0.2-0.2-0.4-0.4-0.4s-0.4,0.2-0.4,0.4v0.6C8.5,13.3,8.6,13.5,8.9,13.5
		z"/>
	<path class="st0" d="M14,22.1c0.2,0,0.4-0.2,0.4-0.4v-0.6c0-0.2-0.2-0.4-0.4-0.4s-0.4,0.2-0.4,0.4v0.6C13.6,21.9,13.8,22.1,14,22.1
		z"/>
	<path class="st0" d="M14,19.8c0.2,0,0.4-0.2,0.4-0.4v-0.6c0-0.2-0.2-0.4-0.4-0.4s-0.4,0.2-0.4,0.4v0.6C13.6,19.6,13.8,19.8,14,19.8
		z"/>
	<path class="st0" d="M14,17.5c0.2,0,0.4-0.2,0.4-0.4v-0.6c0-0.2-0.2-0.4-0.4-0.4s-0.4,0.2-0.4,0.4v0.6C13.6,17.3,13.8,17.5,14,17.5
		z"/>
	<path class="st0" d="M14,15.2c0.2,0,0.4-0.2,0.4-0.4v-0.6c0-0.2-0.2-0.4-0.4-0.4s-0.4,0.2-0.4,0.4v0.6C13.6,15,13.8,15.2,14,15.2z"
		/>
	<path class="st0" d="M14,12.9c0.2,0,0.4-0.2,0.4-0.4v-0.6c0-0.2-0.2-0.4-0.4-0.4s-0.4,0.2-0.4,0.4v0.6C13.6,12.7,13.8,12.9,14,12.9
		z"/>
	<path class="st0" d="M15.2,8.1h-2.3c-0.2,0-0.4,0.2-0.4,0.4c0,0.2,0.2,0.4,0.4,0.4h2.3c0.2,0,0.4-0.2,0.4-0.4
		C15.6,8.3,15.4,8.1,15.2,8.1z"/>
</g>
</svg>
