<?xml version="1.0" encoding="utf-8"?>
<!-- Generator: Adobe Illustrator 20.1.0, SVG Export Plug-In . SVG Version: 6.00 Build 0)  -->
<svg version="1.1" id="Layer_1" xmlns="http://www.w3.org/2000/svg" xmlns:xlink="http://www.w3.org/1999/xlink" x="0px" y="0px"
	 viewBox="0 0 122 122" style="enable-background:new 0 0 122 122;" xml:space="preserve">
<style type="text/css">
	.st0{fill:#E99E99;}
	.st1{fill:#FFFFFF;}
</style>
<circle class="st0" cx="61" cy="60.8" r="60"/>
<path class="st1" d="M68.2,53.6l1.5-0.1l-0.1-1.1c-0.1-0.8-0.8-1.4-1.6-1.4l-1.5,0.1l-0.4-0.8c-0.2-0.4-0.6-0.5-1-0.4l-9.3,3.5
	l0.5,1.4l8.6-3.3l0.9,2.1l1.4-0.6l-0.2-0.4l0.9-0.1L68.2,53.6z M67.8,61.9c0.1,0.8,0.7,1.3,1.5,1.3c0.8-0.1,1.4-0.7,1.3-1.5
	s-0.7-1.3-1.5-1.3C68.4,60.4,67.8,61.1,67.8,61.9z M69.2,61.6c0.1,0,0.1,0,0.1,0.1c0,0.1-0.2,0.1-0.2,0
	C69.1,61.7,69.2,61.6,69.2,61.6z M71.9,57.9l0.1,1.5c-0.1,0-0.1-0.1-0.1-0.1l0.3,3.7l-5,0.4l-0.2-2.9l3.8-0.3c0.4,0,0.7-0.4,0.7-0.8
	l-0.3-3.8c-0.1-0.8-0.7-1.3-1.5-1.3l-19.9,1.6c-0.4,0-0.9-0.1-0.9-0.8c-0.1-0.7,0.4-0.9,0.8-0.9l1.3-0.1l0.5,1.2l11.5-4.7l-0.4-1.4
	L55,52.3v0l-5.4,0.4c-1.4,0.1-2.4,1.1-2.3,2.5l1.1,13.9c0.1,1.4,1.1,2.3,2.5,2.1l19.9-1.6c0.8-0.1,1.4-0.7,1.3-1.5L71.9,65l-1.5,0.1
	l0.2,3l-19.8,1.5c-0.4,0-0.9-0.1-0.9-0.8L49,57.3c0.3,0.1,0.6,0.1,0.9,0.1l19.8-1.5l0.2,2.9L66.7,59c-0.8,0.1-1.4,0.7-1.3,1.5
	l0.2,3.2c0.1,0.8,0.7,1.3,1.5,1.3l5.2-0.4c0.8-0.1,1.4-0.7,1.3-1.5l-0.3-3.8C73.3,58.4,72.7,57.9,71.9,57.9z M29.3,67.2
	c1.7-0.6,2.8-2.2,2.7-4.1c-0.2-2.2-2.1-3.8-4.3-3.7c-1.1,0.1-2.1-0.7-2.1-1.8c-0.1-1.1,0.7-2.1,1.8-2.1c1.1-0.1,2.1,0.7,2.1,1.8
	l2-0.2c-0.1-1.9-1.5-3.3-3.3-3.6l-0.1-1.1l-2,0.2l0.1,1.1c-1.7,0.6-2.8,2.2-2.7,4.1c0.2,2.2,2.1,3.8,4.3,3.7
	c1.1-0.1,2.1,0.7,2.1,1.8c0.1,1.1-0.7,2.1-1.8,2.1s-2.1-0.7-2.1-1.8l-2,0.2c0.1,1.9,1.5,3.3,3.3,3.6l0.1,1.1l2-0.2L29.3,67.2z
	 M28.7,72.4c6.6-0.5,11.5-6.3,11-12.9c-0.5-6.6-6.3-11.5-12.9-11c-6.6,0.5-11.5,6.3-11,12.9C16.3,68,22.1,72.9,28.7,72.4z
	 M17.8,61.2c-0.4-5.5,3.7-10.3,9.2-10.7c5.5-0.4,10.3,3.7,10.7,9.2c0.4,5.5-3.7,10.3-9.2,10.7C23.1,70.8,18.2,66.7,17.8,61.2z
	 M60.8,41.9c6.6-0.1,11.9-5.6,11.8-12.2c-0.1-6.6-5.6-11.9-12.2-11.8c-6.6,0.1-11.9,5.6-11.8,12.2C48.7,36.7,54.1,42,60.8,41.9z
	 M60.4,19.9c5.5-0.1,10.1,4.3,10.1,9.9c0.1,5.5-4.3,10.1-9.9,10.1c-5.5,0.1-10.1-4.3-10.1-9.9S54.9,20,60.4,19.9z M54.6,31.1l2,0
	l0.1,5l2,0l6-0.2l0-2l-6,0.1l0-3l2,0l0-2l-2,0l0-2.1c0-1.1,0.9-2,2-2c1.1,0,2,1,2,2l2,0c0-2-1.9-4-4.1-4s-4,1.8-4,4l0,2.1l-2,0
	L54.6,31.1z M104.1,60.6c-0.5-6.6-6.3-11.5-12.9-11c-6.6,0.5-11.5,6.3-11,12.9c0.5,6.6,6.3,11.5,12.9,11
	C99.6,73,104.6,67.2,104.1,60.6z M92.9,71.5c-5.5,0.4-10.3-3.7-10.7-9.2c-0.4-5.5,3.7-10.3,9.2-10.7c5.5-0.4,10.3,3.7,10.7,9.2
	C102.5,66.3,98.4,71.1,92.9,71.5z M92.5,66.5c-1.6,0.1-3.1-0.6-4.1-1.7l4-0.3l-0.2-2l-4.9,0.4c-0.1-0.3-0.2-0.6-0.2-1
	c0-0.3,0-0.7,0-1l4.9-0.4l-0.2-2l-4,0.3c0.8-1.3,2.2-2.2,3.8-2.3c1.4-0.1,2.7,0.4,3.6,1.2l1.3-1.5c-1.4-1.2-3.2-1.8-5.1-1.7
	c-2.8,0.2-5.1,2-6,4.5l-1.7,0.1l0.2,2l1.1-0.1c0,0.3,0,0.7,0,1s0.1,0.7,0.2,1l-1.1,0.1l0.2,2L86,65c1.3,2.3,3.8,3.7,6.6,3.5
	c1.8-0.1,3.3-0.9,4.5-2.1L95.7,65C94.8,65.9,93.8,66.4,92.5,66.5z M58.2,79.2c-6.6,0.1-12,5.5-11.9,12.1s5.5,12,12.1,11.9
	s12-5.5,11.9-12.1S64.8,79.1,58.2,79.2z M58.4,101.2c-5.5,0-10-4.4-10.1-9.9c0-5.5,4.4-10,9.9-10.1c5.5,0,10,4.4,10.1,9.9
	C68.4,96.6,63.9,101.2,58.4,101.2z M61.3,85.2l-3,4.4l-3-4.3l-2,0l4,6l-2,0l0,1l2,0l0,1l-2,0l0,1l2,0l0,4l2,0l0-4l2,0l0-1l-2,0l0-1
	l2,0l0-1l-2,0l4-6L61.3,85.2z M98.2,25.6l-1.1-1.2L76.6,44.1c0.4,0.4,0.7,0.8,1.1,1.2L98.2,25.6z M22.2,96.8l1.1,1.2l20.9-20.2
	c-0.4-0.4-0.7-0.8-1.1-1.2L22.2,96.8z M26.3,23.6l18.3,20.7c0.4-0.4,0.8-0.8,1.2-1.1L27.4,22.5L26.3,23.6z M75.5,79.3l19.8,22.4
	l1.2-1.1L76.7,78.2C76.3,78.5,75.9,78.9,75.5,79.3z"/>
</svg>
