<?xml version="1.0" encoding="utf-8"?>
<!-- Generator: Adobe Illustrator 20.1.0, SVG Export Plug-In . SVG Version: 6.00 Build 0)  -->
<svg version="1.1" id="Layer_1" xmlns="http://www.w3.org/2000/svg" xmlns:xlink="http://www.w3.org/1999/xlink" x="0px" y="0px"
	 viewBox="0 0 122 122" style="enable-background:new 0 0 122 122;" xml:space="preserve">
<style type="text/css">
	.st0{fill:#E99E99;}
	.st1{fill:#FFFFFF;}
</style>
<circle class="st0" cx="60.5" cy="61.4" r="60"/>
<path class="st1" d="M41,57v20h2V57c0-0.5,0.2-1,0.8-1H50v-2h-6.2C42,54,41,55.2,41,57z M79.8,59H73v2h6.8c0.5,0,1.2,0.6,1.2,1.2V77
	h2V62.2C83,60.4,81.6,59,79.8,59z M67.8,38H63v-2.6c0-0.6-0.9-1.1-1.5-1.1c-0.6,0-1.5,0.5-1.5,1.1V38h-4.2C54,38,53,39.7,53,41.5V77
	h1.8l0-35.1c0-0.5,0.4-0.9,1-0.9h12.1c0.5,0,1,0.4,1,0.9l0,35.1H71V41.5C71,39.7,69.6,38,67.8,38z M57,46h9v-3h-9V46z M57,51h9v-2
	h-9V51z M57,56h9v-2h-9V56z M57,66h9v-2h-9V66z M57,71h9v-2h-9V71z M57,61h9v-2h-9V61z M57,77h9v-3h-9V77z M45,66h5v-2h-5V66z
	 M45,71h5v-2h-5V71z M45,61h5v-2h-5V61z M45,77h5v-3h-5V77z M73,66h5v-2h-5V66z M73,71h5v-2h-5V71z M73,77h5v-3h-5V77z"/>
<path class="st1" d="M28.3,29.6c6.7-6.8,15.5-11.5,25.3-12.9c0-0.5,0.1-1,0.3-1.5c-10.5,1.4-19.9,6.4-27,13.6
	C27.5,29,27.9,29.2,28.3,29.6z M93.5,28.7c-6-6.1-13.7-10.6-22.3-12.7c0.1,0.4,0,0.9-0.1,1.3c0,0.1,0,0.1-0.1,0.2
	c8.3,2.1,15.6,6.4,21.4,12.3C92.7,29.4,93.1,29,93.5,28.7z M104.7,47.2c-0.5,0.1-1.1,0.2-1.7,0.1c1.4,4.4,2.2,9.1,2.2,14
	c0,5.3-0.9,10.3-2.5,15c0.5,0.3,1,0.7,1.3,1.2c1.9-5.1,2.9-10.5,2.9-16.2C106.9,56.4,106.1,51.7,104.7,47.2z M17.5,47.4
	c-0.6-0.1-1.1-0.3-1.5-0.6c-1.5,4.6-2.3,9.4-2.3,14.5c0,5.2,0.9,10.2,2.4,14.9c0.4-0.2,1-0.3,1.6-0.3c0,0,0,0,0,0
	c-1.5-4.6-2.4-9.4-2.4-14.5C15.3,56.5,16.1,51.8,17.5,47.4z M24.6,88.9c-0.4,0.3-0.9,0.5-1.5,0.6c7.2,9.5,18,16.2,30.3,18
	c-0.1-0.5-0.1-1,0-1.4C41.7,104.3,31.5,97.9,24.6,88.9z M70,105.5c0.2,0.5,0.3,0.9,0.3,1.4c9.6-2.1,18.1-7.2,24.5-14.2
	c-0.5-0.2-1-0.5-1.4-0.8C87.3,98.6,79.2,103.5,70,105.5z"/>
<g>
	<path class="st1" d="M14,79.2v8.9h1v-8.9c0-0.2,0.2-0.4,0.4-0.4h2.9v-1h-2.9C14.6,77.7,14,78.4,14,79.2z"/>
	<path class="st1" d="M31.8,80h-2.9v1h2.9c0.2,0,0.4,0.2,0.4,0.4v6.5h1v-6.5C33.3,80.7,32.6,80,31.8,80z"/>
	<path class="st1" d="M26.3,70.7h-2.2h-0.2v-1.3c0-0.3-0.2-0.5-0.5-0.5c-0.3,0-0.5,0.2-0.5,0.5v1.3h-2c-0.8,0-1.5,0.7-1.5,1.5v15.9
		h0h1h0l0-15.9c0-0.2,0.2-0.4,0.4-0.4h5.5c0.2,0,0.4,0.2,0.4,0.4l0,15.9h0h1h0V72.1C27.8,71.3,27.2,70.7,26.3,70.7z"/>
	<rect x="21.5" y="73" class="st1" width="4.2" height="1"/>
	<rect x="21.5" y="75.3" class="st1" width="4.2" height="1"/>
	<rect x="21.5" y="77.7" class="st1" width="4.2" height="1"/>
	<rect x="21.5" y="82.4" class="st1" width="4.2" height="1"/>
	<rect x="21.5" y="84.7" class="st1" width="4.2" height="1"/>
	<rect x="21.5" y="80" class="st1" width="4.2" height="1"/>
	<rect x="21.5" y="87" class="st1" width="4.2" height="1"/>
	<rect x="16.1" y="82.4" class="st1" width="2.2" height="1"/>
	<rect x="16.1" y="84.7" class="st1" width="2.2" height="1"/>
	<rect x="16.1" y="80" class="st1" width="2.2" height="1"/>
	<rect x="16.1" y="87" class="st1" width="2.2" height="1"/>
	<rect x="28.9" y="82.4" class="st1" width="2.2" height="1"/>
	<rect x="28.9" y="84.7" class="st1" width="2.2" height="1"/>
	<rect x="28.9" y="87" class="st1" width="2.2" height="1"/>
</g>
<g>
	<path class="st1" d="M107.1,81.5v8.9h-1v-8.9c0-0.2-0.2-0.4-0.4-0.4h-2.9v-1h2.9C106.5,80,107.1,80.7,107.1,81.5z"/>
	<path class="st1" d="M89.3,82.4h2.9v1h-2.9c-0.2,0-0.4,0.2-0.4,0.4v6.5h-1v-6.5C87.8,83,88.5,82.4,89.3,82.4z"/>
	<path class="st1" d="M94.7,73H97h0.2v-1.3c0-0.3,0.2-0.5,0.5-0.5s0.5,0.2,0.5,0.5V73h2c0.8,0,1.5,0.7,1.5,1.5v15.9h0h-1h0l0-15.9
		c0-0.2-0.2-0.4-0.4-0.4h-5.5c-0.2,0-0.4,0.2-0.4,0.4l0,15.9h0h-1h0V74.4C93.3,73.6,93.9,73,94.7,73z"/>
	<rect x="95.4" y="75.3" class="st1" width="4.2" height="1"/>
	<rect x="95.4" y="77.7" class="st1" width="4.2" height="1"/>
	<rect x="95.4" y="80" class="st1" width="4.2" height="1"/>
	<rect x="95.4" y="84.7" class="st1" width="4.2" height="1"/>
	<rect x="95.4" y="87" class="st1" width="4.2" height="1"/>
	<rect x="95.4" y="82.3" class="st1" width="4.2" height="1"/>
	<rect x="95.4" y="89.4" class="st1" width="4.2" height="1"/>
	<rect x="102.8" y="84.7" class="st1" width="2.2" height="1"/>
	<rect x="102.8" y="87" class="st1" width="2.2" height="1"/>
	<rect x="102.8" y="82.3" class="st1" width="2.2" height="1"/>
	<rect x="102.8" y="89.4" class="st1" width="2.2" height="1"/>
	<rect x="90" y="84.7" class="st1" width="2.2" height="1"/>
	<rect x="90" y="87" class="st1" width="2.2" height="1"/>
	<rect x="90" y="89.4" class="st1" width="2.2" height="1"/>
</g>
<g>
	<path class="st1" d="M69.8,17.5v8.9h-1v-8.9c0-0.2-0.2-0.4-0.4-0.4h-2.9v-1h2.9C69.1,16,69.8,16.7,69.8,17.5z"/>
	<path class="st1" d="M51.9,18.4h2.9v1h-2.9c-0.2,0-0.4,0.2-0.4,0.4v6.5h-1v-6.5C50.5,19.1,51.1,18.4,51.9,18.4z"/>
	<path class="st1" d="M57.4,9h2.2h0.2V7.7c0-0.3,0.2-0.5,0.5-0.5c0.3,0,0.5,0.2,0.5,0.5V9h2c0.8,0,1.5,0.7,1.5,1.5v15.9h0h-1h0
		l0-15.9c0-0.2-0.2-0.4-0.4-0.4h-5.5c-0.2,0-0.4,0.2-0.4,0.4l0,15.9h0h-1h0V10.5C55.9,9.7,56.6,9,57.4,9z"/>
	<rect x="58.1" y="11.4" class="st1" width="4.2" height="1"/>
	<rect x="58.1" y="13.7" class="st1" width="4.2" height="1"/>
	<rect x="58.1" y="16" class="st1" width="4.2" height="1"/>
	<rect x="58.1" y="20.7" class="st1" width="4.2" height="1"/>
	<rect x="58.1" y="23.1" class="st1" width="4.2" height="1"/>
	<rect x="58.1" y="18.4" class="st1" width="4.2" height="1"/>
	<rect x="58.1" y="25.4" class="st1" width="4.2" height="1"/>
	<rect x="65.5" y="20.7" class="st1" width="2.2" height="1"/>
	<rect x="65.5" y="23.1" class="st1" width="2.2" height="1"/>
	<rect x="65.5" y="18.4" class="st1" width="2.2" height="1"/>
	<rect x="65.5" y="25.4" class="st1" width="2.2" height="1"/>
	<rect x="52.7" y="20.7" class="st1" width="2.2" height="1"/>
	<rect x="52.7" y="23.1" class="st1" width="2.2" height="1"/>
	<rect x="52.7" y="25.4" class="st1" width="2.2" height="1"/>
</g>
<g>
	<g>
		<path class="st1" d="M23.5,46.4H18c-0.3,0-0.5-0.2-0.5-0.5v-13c0-0.3,0.2-0.5,0.5-0.5h5.4c0.3,0,0.5,0.2,0.5,0.5v13
			C24,46.1,23.8,46.4,23.5,46.4z M18.6,45.3h4.3V33.4h-4.3V45.3z"/>
		<path class="st1" d="M30,46.4h-6.5c-0.3,0-0.5-0.2-0.5-0.5V29.6c0-0.2,0.1-0.4,0.3-0.5c0.2-0.1,0.4-0.1,0.5,0l6.5,3.1
			c0.2,0.1,0.3,0.3,0.3,0.5v13.1C30.5,46.1,30.3,46.4,30,46.4z M24,45.3h5.4V33.1L24,30.4V45.3z"/>
	</g>
	<path class="st1" d="M27.5,43.7h-1.6c-0.1,0-0.3-0.1-0.3-0.3v-1.6c0-0.1,0.1-0.3,0.3-0.3h1.6c0.1,0,0.3,0.1,0.3,0.3v1.6
		C27.8,43.5,27.7,43.7,27.5,43.7z M26.2,43.1h1.1V42h-1.1V43.1z"/>
	<path class="st1" d="M27.5,40.4h-1.6c-0.1,0-0.3-0.1-0.3-0.3v-1.6c0-0.1,0.1-0.3,0.3-0.3h1.6c0.1,0,0.3,0.1,0.3,0.3v1.6
		C27.8,40.3,27.7,40.4,27.5,40.4z M26.2,39.9h1.1v-1.1h-1.1V39.9z"/>
	<path class="st1" d="M27.5,37.2h-1.6c-0.1,0-0.3-0.1-0.3-0.3v-1.6c0-0.1,0.1-0.3,0.3-0.3h1.6c0.1,0,0.3,0.1,0.3,0.3v1.6
		C27.8,37,27.7,37.2,27.5,37.2z M26.2,36.6h1.1v-1.1h-1.1V36.6z"/>
	<path class="st1" d="M22.1,43.7h-2.7c-0.1,0-0.3-0.1-0.3-0.3v-1.6c0-0.1,0.1-0.3,0.3-0.3h2.7c0.1,0,0.3,0.1,0.3,0.3v1.6
		C22.4,43.5,22.3,43.7,22.1,43.7z M19.7,43.1h2.2V42h-2.2V43.1z"/>
	<path class="st1" d="M22.1,40.4h-2.7c-0.1,0-0.3-0.1-0.3-0.3v-1.6c0-0.1,0.1-0.3,0.3-0.3h2.7c0.1,0,0.3,0.1,0.3,0.3v1.6
		C22.4,40.3,22.3,40.4,22.1,40.4z M19.7,39.9h2.2v-1.1h-2.2V39.9z"/>
	<path class="st1" d="M22.1,37.2h-2.7c-0.1,0-0.3-0.1-0.3-0.3v-1.6c0-0.1,0.1-0.3,0.3-0.3h2.7c0.1,0,0.3,0.1,0.3,0.3v1.6
		C22.4,37,22.3,37.2,22.1,37.2z M19.7,36.6h2.2v-1.1h-2.2V36.6z"/>
</g>
<g>
	<g>
		<path class="st1" d="M61.8,112.6v-13c0-0.3,0.2-0.5,0.5-0.5h5.4c0.3,0,0.5,0.2,0.5,0.5v13c0,0.3-0.2,0.5-0.5,0.5h-5.4
			C62,113.2,61.8,112.9,61.8,112.6z M67.2,100.2h-4.3v11.9h4.3V100.2z"/>
		<path class="st1" d="M55.3,112.6V99.5c0-0.2,0.1-0.4,0.3-0.5l6.5-3.1c0.2-0.1,0.4-0.1,0.5,0c0.2,0.1,0.3,0.3,0.3,0.5v16.3
			c0,0.3-0.2,0.5-0.5,0.5h-6.5C55.5,113.2,55.3,112.9,55.3,112.6z M61.8,97.3l-5.4,2.6v12.2h5.4V97.3z"/>
	</g>
	<path class="st1" d="M58,110.2v-1.6c0-0.1,0.1-0.3,0.3-0.3h1.6c0.1,0,0.3,0.1,0.3,0.3v1.6c0,0.1-0.1,0.3-0.3,0.3h-1.6
		C58.1,110.5,58,110.4,58,110.2z M59.6,108.9h-1.1v1.1h1.1V108.9z"/>
	<path class="st1" d="M58,107v-1.6c0-0.1,0.1-0.3,0.3-0.3h1.6c0.1,0,0.3,0.1,0.3,0.3v1.6c0,0.1-0.1,0.3-0.3,0.3h-1.6
		C58.1,107.2,58,107.1,58,107z M59.6,105.6h-1.1v1.1h1.1V105.6z"/>
	<path class="st1" d="M58,103.7v-1.6c0-0.1,0.1-0.3,0.3-0.3h1.6c0.1,0,0.3,0.1,0.3,0.3v1.6c0,0.1-0.1,0.3-0.3,0.3h-1.6
		C58.1,104,58,103.9,58,103.7z M59.6,102.4h-1.1v1.1h1.1V102.4z"/>
	<path class="st1" d="M63.4,110.2v-1.6c0-0.1,0.1-0.3,0.3-0.3h2.7c0.1,0,0.3,0.1,0.3,0.3v1.6c0,0.1-0.1,0.3-0.3,0.3h-2.7
		C63.5,110.5,63.4,110.4,63.4,110.2z M66.1,108.9h-2.2v1.1h2.2V108.9z"/>
	<path class="st1" d="M63.4,107v-1.6c0-0.1,0.1-0.3,0.3-0.3h2.7c0.1,0,0.3,0.1,0.3,0.3v1.6c0,0.1-0.1,0.3-0.3,0.3h-2.7
		C63.5,107.2,63.4,107.1,63.4,107z M66.1,105.6h-2.2v1.1h2.2V105.6z"/>
	<path class="st1" d="M63.4,103.7v-1.6c0-0.1,0.1-0.3,0.3-0.3h2.7c0.1,0,0.3,0.1,0.3,0.3v1.6c0,0.1-0.1,0.3-0.3,0.3h-2.7
		C63.5,104,63.4,103.9,63.4,103.7z M66.1,102.4h-2.2v1.1h2.2V102.4z"/>
</g>
<g>
	<g>
		<path class="st1" d="M97.9,45.4v-13c0-0.3,0.2-0.5,0.5-0.5h5.4c0.3,0,0.5,0.2,0.5,0.5v13c0,0.3-0.2,0.5-0.5,0.5h-5.4
			C98.2,45.9,97.9,45.7,97.9,45.4z M103.4,32.9H99v11.9h4.3V32.9z"/>
		<path class="st1" d="M91.4,45.4V32.3c0-0.2,0.1-0.4,0.3-0.5l6.5-3.1c0.2-0.1,0.4-0.1,0.5,0c0.2,0.1,0.3,0.3,0.3,0.5v16.3
			c0,0.3-0.2,0.5-0.5,0.5H92C91.7,45.9,91.4,45.7,91.4,45.4z M97.9,30l-5.4,2.6v12.2h5.4V30z"/>
	</g>
	<path class="st1" d="M94.2,42.9v-1.6c0-0.1,0.1-0.3,0.3-0.3h1.6c0.1,0,0.3,0.1,0.3,0.3v1.6c0,0.1-0.1,0.3-0.3,0.3h-1.6
		C94.3,43.2,94.2,43.1,94.2,42.9z M95.8,41.6h-1.1v1.1h1.1V41.6z"/>
	<path class="st1" d="M94.2,39.7v-1.6c0-0.1,0.1-0.3,0.3-0.3h1.6c0.1,0,0.3,0.1,0.3,0.3v1.6c0,0.1-0.1,0.3-0.3,0.3h-1.6
		C94.3,40,94.2,39.8,94.2,39.7z M95.8,38.3h-1.1v1.1h1.1V38.3z"/>
	<path class="st1" d="M94.2,36.4v-1.6c0-0.1,0.1-0.3,0.3-0.3h1.6c0.1,0,0.3,0.1,0.3,0.3v1.6c0,0.1-0.1,0.3-0.3,0.3h-1.6
		C94.3,36.7,94.2,36.6,94.2,36.4z M95.8,35.1h-1.1v1.1h1.1V35.1z"/>
	<path class="st1" d="M99.6,42.9v-1.6c0-0.1,0.1-0.3,0.3-0.3h2.7c0.1,0,0.3,0.1,0.3,0.3v1.6c0,0.1-0.1,0.3-0.3,0.3h-2.7
		C99.7,43.2,99.6,43.1,99.6,42.9z M102.3,41.6h-2.2v1.1h2.2V41.6z"/>
	<path class="st1" d="M99.6,39.7v-1.6c0-0.1,0.1-0.3,0.3-0.3h2.7c0.1,0,0.3,0.1,0.3,0.3v1.6c0,0.1-0.1,0.3-0.3,0.3h-2.7
		C99.7,40,99.6,39.8,99.6,39.7z M102.3,38.3h-2.2v1.1h2.2V38.3z"/>
	<path class="st1" d="M99.6,36.4v-1.6c0-0.1,0.1-0.3,0.3-0.3h2.7c0.1,0,0.3,0.1,0.3,0.3v1.6c0,0.1-0.1,0.3-0.3,0.3h-2.7
		C99.7,36.7,99.6,36.6,99.6,36.4z M102.3,35.1h-2.2v1.1h2.2V35.1z"/>
</g>
</svg>
