<?xml version="1.0" encoding="utf-8"?>
<!-- Generator: Adobe Illustrator 20.1.0, SVG Export Plug-In . SVG Version: 6.00 Build 0)  -->
<svg version="1.1" id="Layer_1" xmlns="http://www.w3.org/2000/svg" xmlns:xlink="http://www.w3.org/1999/xlink" x="0px" y="0px"
	 viewBox="0 0 122 122" style="enable-background:new 0 0 122 122;" xml:space="preserve">
<style type="text/css">
	.st0{fill:#E99E99;}
	.st1{fill:#FFFFFF;}
</style>
<circle class="st0" cx="61" cy="60.8" r="60"/>
<path class="st1" d="M108.1,80.8c-7.6-4.9-17.1-8.3-27.6-9.9c-4.7-0.7-9.6-1.1-14.5-1c2.3-3.2,9.9-14.2,9.9-19.3
	c0-6.3-5.1-11.3-11.3-11.3c-6.3,0-11.3,5.1-11.3,11.3c0,5.2,7.7,16.2,9.9,19.4c-3.3,0.1-6.5,0.4-9.7,0.9c-10.4,1.6-19.8,5.2-27.3,10
	C26,80.8,25.9,81,25.7,81H22V70.5c6-0.4,10.9-4.7,10.9-10c0-5.5-5.4-10-12.1-10S8.9,55,8.9,60.5c0,5.2,5.1,9.5,11.1,10V81h-4.3
	c-0.6,0-1,0.4-1,1s0.4,1,1,1h10c0.1,0,0.2-0.3,0.2-0.3c0.3,0.2,0.7,0.1,1-0.1c7.3-4.7,16.6-8.1,26.8-9.7c8.7-1.3,17.8-1.4,26.5,0
	c10.2,1.6,19.5,4.9,26.8,9.6c0.2,0.1,0.4,0.2,0.5,0.2c0.3,0,0.7-0.2,0.8-0.5C108.7,81.7,108.6,81.1,108.1,80.8z M21,57.4
	c-0.6,0-1,0.4-1,1v2.1l-2.3-1.9c-0.2-0.2-0.6-0.2-0.8,0.1c-0.2,0.2-0.1,0.5,0.1,0.7l2.9,2.4v3.8l-5.3-4c-0.2-0.2-0.6-0.1-0.8,0.1
	c-0.2,0.2,0,0.5,0.2,0.7l5.9,4.5v1.6c-5-0.4-9.1-3.8-9.1-8c0-4.4,4.4-8,9.9-8s10.1,3.6,10.1,8c0,4.1-3.9,7.6-8.9,8v-1.6l5.7-4.5
	c0.2-0.2,0.2-0.5,0-0.7c-0.2-0.2-0.4-0.3-0.6-0.1l-5.1,4v-3.8l2.7-2.4c0.2-0.2,0.2-0.5,0-0.7c-0.2-0.2-0.4-0.2-0.6-0.1L22,60.5v-2.1
	C22,57.9,21.6,57.4,21,57.4z M55.2,50.5c0-5.1,4.2-9.3,9.3-9.3c5.2,0,9.3,4.2,9.3,9.3c0,4-6.1,13.5-9.3,17.9
	C61.4,64,55.2,54.6,55.2,50.5z M51.1,61.5c0.2,0,0.4-0.1,0.6-0.2c0.5-0.3,0.6-0.9,0.3-1.4c-1.7-2.5-2.7-5.5-2.7-8.6
	c0-8.4,6.8-15.2,15.2-15.2S79.7,43,79.7,51.3c0,3.1-0.9,6.1-2.7,8.6c-0.3,0.5-0.2,1.1,0.3,1.4c0.5,0.3,1.1,0.2,1.4-0.3
	c2-2.9,3-6.2,3-9.7c0-9.5-7.7-17.2-17.2-17.2c-9.5,0-17.2,7.7-17.2,17.2c0,3.5,1,6.9,3,9.7C50.4,61.4,50.8,61.5,51.1,61.5z
	 M54.1,31.3c0.2,0.3,0.5,0.5,0.8,0.5c0.2,0,0.4-0.1,0.5-0.2c0.5-0.3,0.6-0.9,0.3-1.4l-2.9-4.6c-0.3-0.5-0.9-0.6-1.4-0.3
	c-0.5,0.3-0.6,0.9-0.3,1.4L54.1,31.3z M73.5,33.6c0.3,0,0.6-0.1,0.8-0.4l3.2-4.4c0.3-0.4,0.2-1.1-0.2-1.4c-0.5-0.3-1.1-0.2-1.4,0.2
	l-3.2,4.4c-0.3,0.4-0.2,1.1,0.2,1.4C73.1,33.6,73.3,33.6,73.5,33.6z M90.1,69c0.2,0.2,0.4,0.2,0.6,0.2c0.3,0,0.6-0.1,0.8-0.4
	c0.4-0.4,0.3-1.1-0.1-1.4L87.2,64c-0.4-0.4-1.1-0.3-1.4,0.1c-0.4,0.4-0.3,1.1,0.1,1.4L90.1,69z M41.5,64l-4.1,3.5
	c-0.4,0.4-0.5,1-0.1,1.4c0.2,0.2,0.5,0.4,0.8,0.4c0.2,0,0.5-0.1,0.6-0.2l4.1-3.5c0.4-0.4,0.5-1,0.1-1.4C42.6,63.7,42,63.6,41.5,64z
	 M37.3,45.9l5.2,1.4c0.1,0,0.2,0,0.3,0c0.4,0,0.8-0.3,1-0.7c0.1-0.5-0.2-1.1-0.7-1.2l-5.2-1.4c-0.5-0.1-1.1,0.2-1.2,0.7
	C36.4,45.2,36.7,45.7,37.3,45.9z M88.2,45.1c0.1,0,0.2,0,0.3,0l5.2-1.5c0.5-0.2,0.8-0.7,0.7-1.2c-0.2-0.5-0.7-0.8-1.2-0.7l-5.2,1.5
	c-0.5,0.2-0.8,0.7-0.7,1.2C87.4,44.9,87.8,45.1,88.2,45.1z M45.3,77.3c-2.5,0-4.5,1.9-4.5,4.1c0,0.6,0.4,1,1,1s1-0.4,1-1
	c0-1.2,1.1-2.1,2.5-2.1c1.4,0,2.5,1,2.5,2.1c0,0.6,0.4,1,1,1s1-0.4,1-1C49.8,79.1,47.8,77.3,45.3,77.3z M88,76.6
	c-2.5,0-4.5,1.9-4.5,4.1c0,0.6,0.4,1,1,1s1-0.4,1-1c0-1.2,1.1-2.1,2.5-2.1s2.5,1,2.5,2.1c0,0.6,0.4,1,1,1s1-0.4,1-1
	C92.5,78.5,90.5,76.6,88,76.6z M67,82.1c-2.5,0-4.5,1.9-4.5,4.1c0,0.6,0.4,1,1,1s1-0.4,1-1c0-1.2,1.1-2.1,2.5-2.1s2.5,1,2.5,2.1
	c0,0.6,0.4,1,1,1s1-0.4,1-1C71.5,84,69.5,82.1,67,82.1z M64.6,45.4c-2.8,0-5.1,2.3-5.1,5.1c0,2.8,2.3,5.1,5.1,5.1
	c2.8,0,5.1-2.3,5.1-5.1C69.7,47.7,67.4,45.4,64.6,45.4z M64.6,53.7c-1.7,0-3.1-1.4-3.1-3.1s1.4-3.1,3.1-3.1c1.7,0,3.1,1.4,3.1,3.1
	S66.3,53.7,64.6,53.7z"/>
</svg>
