<?xml version="1.0" encoding="utf-8"?>
<!-- Generator: Adobe Illustrator 20.1.0, SVG Export Plug-In . SVG Version: 6.00 Build 0)  -->
<svg version="1.1" id="Layer_1" xmlns="http://www.w3.org/2000/svg" xmlns:xlink="http://www.w3.org/1999/xlink" x="0px" y="0px"
	 viewBox="0 0 122 122" style="enable-background:new 0 0 122 122;" xml:space="preserve">
<style type="text/css">
	.st0{fill:#E99E99;}
	.st1{fill:#FFFFFF;}
</style>
<circle class="st0" cx="61" cy="60.8" r="60"/>
<path class="st1" d="M71.4,87.3c-0.1-0.3-0.4-0.5-0.8-0.5H50.7c-0.4,0-0.7,0.2-0.8,0.5l-1.9,5c-0.8,2-0.2,4.3,1.5,5.9v15.2
	c0,0.5,0.4,0.9,0.9,0.9H71c0.5,0,0.9-0.4,0.9-0.9V97.9c1.7-1.3,2.3-3.7,1.5-5.8L71.4,87.3z M64.1,112.5h-6.9v-8.1
	c0-0.2,0.2-0.4,0.4-0.4h6c0.2,0,0.4,0.2,0.4,0.4V112.5z M70.1,112.5H65v-8.1c0-0.7-0.6-1.3-1.3-1.3h-6c-0.7,0-1.3,0.6-1.3,1.3v8.1
	h-5.1V98.7c1.2-0.1,1.7-1.2,2.2-2c0.3-0.6,0.6-1.1,0.8-1.1c0.3,0,0.5,0.4,0.9,1c0.4,0.8,1,1.9,2.4,1.9c1.3,0,1.9-1.1,2.4-1.9
	c0.3-0.6,0.6-1,0.9-1c0.3,0,0.5,0.4,0.9,1c0.4,0.8,1,1.9,2.4,1.9c1.3,0,1.9-1.1,2.4-1.9c0.3-0.6,0.6-1,0.9-1c0.3,0,0.5,0.4,0.9,1
	c0.4,0.8,1,1.8,2.2,1.9V112.5z M70.6,96.8c-0.1,0-0.1,0.1-0.2,0.1c-0.3,0-0.5-0.4-0.9-1c-0.4-0.8-1-1.9-2.4-1.9s-1.9,1.1-2.4,1.9
	c-0.3,0.6-0.6,1-0.9,1c-0.3,0-0.5-0.4-0.9-1c-0.4-0.8-1-1.9-2.4-1.9c-1.3,0-1.9,1.1-2.4,1.9c-0.3,0.6-0.6,1-0.9,1
	c-0.3,0-0.5-0.4-0.9-1c-0.4-0.8-1-1.9-2.4-1.9c-1.3,0-1.9,1.1-2.4,2c-0.4,0.8-0.7,1.3-1.1,1c-1.2-1.1-1.7-2.7-1.1-4l1.7-4.4h18.7
	l1.7,4.3C72.3,94.3,71.8,96,70.6,96.8z M103,61.7h-3.9l1.2-1c0.2,0.1,0.5,0.2,0.7,0.2c0.7,0,1.4-0.6,1.4-1.4c0-0.2-0.1-0.5-0.2-0.7
	l0.8-0.8c0.1-0.1,0.1-0.3,0-0.5s-0.3-0.1-0.5,0l-0.8,0.8c-0.2-0.1-0.4-0.2-0.7-0.2c-0.7,0-1.4,0.6-1.4,1.4c0,0.3,0.1,0.5,0.2,0.7
	l-1.7,1.5h-10c-0.2,0-0.4,0.1-0.5,0.3c-0.1,0.2-0.1,0.4,0.1,0.6l7.3,9.3v6h-2.1c-0.3,0-0.6,0.2-0.6,0.6s0.2,0.6,0.6,0.6h5.4
	c0.3,0,0.6-0.2,0.6-0.6s-0.2-0.6-0.6-0.6h-2.1v-6l7.3-9.3c0.1-0.2,0.2-0.4,0.1-0.6C103.4,61.8,103.2,61.7,103,61.7z M101,58.9
	c0.2,0,0.3,0.1,0.5,0.2c0,0,0,0,0,0c0,0,0,0,0,0c0.1,0.1,0.2,0.3,0.2,0.5c0,0.4-0.3,0.7-0.7,0.7c-0.2,0-0.4-0.1-0.5-0.2
	c-0.1-0.1-0.2-0.3-0.2-0.5C100.3,59.2,100.6,58.9,101,58.9z M95.6,70.8l-6.3-8h12.6L95.6,70.8z M93.4,48.9L93,49.8
	c0,0.1,0,0.2,0,0.2c0,0.1,0.1,0.1,0.2,0.1h0.4c-0.1,0.1-0.1,0.3-0.2,0.4c-0.1,0.3-0.2,0.6-0.3,0.9c-0.1,0.6-0.1,1.2,0.2,1.7
	c0.2,0.4,0.3,0.7,0.5,0.9l0.1,0.1c0.2,0.2,0.3,0.4,0.4,0.7c0.4,0.8,0,1.6-0.4,2.2c-0.1,0.1,0,0.3,0.1,0.3c0,0,0.1,0,0.1,0
	c0.1,0,0.2,0,0.2-0.1c0.6-0.9,0.8-1.9,0.4-2.7c-0.1-0.3-0.3-0.5-0.5-0.8l-0.1-0.1c-0.2-0.2-0.3-0.5-0.5-0.8
	c-0.2-0.4-0.2-0.9-0.1-1.4c0.1-0.3,0.1-0.5,0.3-0.8c0.1-0.1,0.1-0.3,0.2-0.4l0-0.1c0,0,0.1-0.1,0.1-0.1h0.5c0.1,0,0.2,0,0.2-0.1
	c0-0.1,0-0.2,0-0.2l-0.4-0.9c1.3-0.3,2.4-1.6,2.4-3.3c0-1.8-1.3-3.3-2.8-3.3s-2.8,1.5-2.8,3.3C91.1,47.3,92.1,48.7,93.4,48.9z
	 M93.9,49.7C93.9,49.7,93.9,49.7,93.9,49.7C93.9,49.7,93.9,49.7,93.9,49.7h-0.3l0.3-0.7l0.3,0.7H93.9z M93.9,43.3
	c1,0,1.9,1.1,1.9,2.4c0,1.3-0.8,2.4-1.9,2.4S92,47,92,45.7C92,44.4,92.9,43.3,93.9,43.3z M112,60.1c0-2.7-1.8-4.8-4.1-4.8
	s-4.1,2.2-4.1,4.8c0,2.4,1.5,4.4,3.5,4.7l-0.7,1.5c-0.1,0.1,0,0.2,0,0.3c0.1,0.1,0.2,0.2,0.3,0.2h0.5c-0.1,0.2-0.2,0.4-0.3,0.6
	c-0.2,0.5-0.4,0.9-0.4,1.4c-0.2,0.9-0.1,1.8,0.2,2.5c0.2,0.6,0.5,1,0.8,1.4l0.1,0.2c0.2,0.3,0.5,0.7,0.6,1c0.5,1.2,0,2.5-0.6,3.3
	c-0.1,0.2-0.1,0.4,0.1,0.5c0.1,0,0.1,0.1,0.2,0.1c0.1,0,0.2-0.1,0.3-0.2c0.9-1.4,1.2-2.8,0.6-4c-0.2-0.4-0.4-0.8-0.7-1.1l-0.1-0.2
	c-0.2-0.4-0.5-0.7-0.7-1.3c-0.3-0.6-0.3-1.4-0.2-2.1c0.1-0.4,0.2-0.8,0.4-1.2c0.1-0.2,0.2-0.4,0.3-0.6l0.1-0.1
	c0-0.1,0.1-0.1,0.1-0.2h0.8c0.1,0,0.2-0.1,0.3-0.2c0.1-0.1,0.1-0.2,0-0.3l-0.7-1.5C110.5,64.5,112,62.5,112,60.1z M107.9,66.2
	C107.9,66.2,107.9,66.2,107.9,66.2C107.9,66.2,107.9,66.2,107.9,66.2h-0.5l0.5-1l0.5,1H107.9z M107.9,63.8c-1.6,0-3-1.7-3-3.7
	s1.3-3.7,3-3.7c1.6,0,3,1.7,3,3.7S109.6,63.8,107.9,63.8z M88.1,56.6c0-2.7-1.8-4.8-4.1-4.8s-4.1,2.2-4.1,4.8c0,2.4,1.5,4.4,3.5,4.7
	l-0.7,1.5c-0.1,0.1,0,0.2,0,0.3c0.1,0.1,0.2,0.2,0.3,0.2h0.5c-0.1,0.2-0.2,0.4-0.3,0.6c-0.2,0.5-0.4,0.9-0.4,1.4
	c-0.2,0.9-0.1,1.8,0.2,2.5c0.2,0.6,0.5,1,0.8,1.4l0.1,0.2c0.2,0.3,0.5,0.7,0.6,1c0.5,1.2,0,2.5-0.6,3.3c-0.1,0.2-0.1,0.4,0.1,0.5
	c0.1,0,0.1,0.1,0.2,0.1c0.1,0,0.2-0.1,0.3-0.2c0.9-1.4,1.2-2.8,0.6-4c-0.2-0.4-0.4-0.8-0.7-1.1l-0.1-0.2c-0.2-0.4-0.5-0.7-0.7-1.3
	c-0.3-0.6-0.3-1.4-0.2-2.1c0.1-0.4,0.2-0.8,0.4-1.2c0.1-0.2,0.2-0.4,0.3-0.6l0.1-0.1c0-0.1,0.1-0.1,0.1-0.2H85
	c0.1,0,0.2-0.1,0.3-0.2c0.1-0.1,0.1-0.2,0-0.3l-0.7-1.5C86.6,61,88.1,59,88.1,56.6z M84,62.6C84,62.6,84,62.6,84,62.6
	C84,62.6,84,62.6,84,62.6h-0.5l0.5-1l0.5,1H84z M84,60.3c-1.6,0-3-1.7-3-3.7s1.3-3.7,3-3.7c1.6,0,3,1.7,3,3.7S85.6,60.3,84,60.3z
	 M49,22.7h3.4c0.4,0,0.7-0.3,0.7-0.7s-0.3-0.7-0.7-0.7H49c-0.4,0-0.7,0.3-0.7,0.7S48.6,22.7,49,22.7z M54.6,16.3
	c0.1,0.1,0.3,0.2,0.4,0.2c0.2,0,0.3-0.1,0.5-0.2c0.2-0.3,0.2-0.7,0-0.9l-2.4-2.3c-0.3-0.2-0.7-0.2-0.9,0c-0.2,0.3-0.2,0.7,0,0.9
	L54.6,16.3z M72.3,36.9c-0.5,0.3-0.9,0.6-1.8,0.6c-0.9,0-1.3-0.3-1.8-0.6c-0.6-0.3-1.2-0.7-2.4-0.7c-1.2,0-1.8,0.4-2.4,0.7
	c-0.5,0.3-0.9,0.6-1.8,0.6c-0.9,0-1.3-0.3-1.8-0.6c-0.6-0.3-1.2-0.7-2.4-0.7c-1.2,0-1.8,0.4-2.4,0.7c-0.5,0.3-0.9,0.6-1.8,0.6
	c-0.9,0-1.3-0.3-1.8-0.6c-0.6-0.3-1.2-0.7-2.4-0.7c-0.3,0-0.5,0.2-0.5,0.5s0.2,0.5,0.5,0.5c0.9,0,1.3,0.3,1.8,0.6
	c0.6,0.3,1.2,0.7,2.4,0.7s1.8-0.4,2.4-0.7c0.5-0.3,0.9-0.6,1.8-0.6s1.3,0.3,1.8,0.6c0.6,0.3,1.2,0.7,2.4,0.7c1.2,0,1.8-0.4,2.4-0.7
	c0.5-0.3,0.9-0.6,1.8-0.6c0.9,0,1.3,0.3,1.8,0.6c0.6,0.3,1.2,0.7,2.4,0.7c1.2,0,1.8-0.4,2.4-0.7c0.5-0.3,0.9-0.6,1.8-0.6
	c0.3,0,0.5-0.2,0.5-0.5s-0.2-0.5-0.5-0.5C73.5,36.2,72.8,36.5,72.3,36.9z M70.5,31.2c0.2,0,0.3-0.1,0.5-0.2c0.2-0.3,0.2-0.7,0-0.9
	l-2.4-2.3c-0.3-0.2-0.7-0.2-0.9,0c-0.2,0.3-0.2,0.7,0,0.9l2.4,2.3C70.2,31.1,70.4,31.2,70.5,31.2z M53.1,31l2.4-2.3
	c0.3-0.2,0.3-0.7,0-0.9c-0.2-0.3-0.7-0.3-0.9,0L52.2,30c-0.3,0.2-0.3,0.7,0,0.9c0.1,0.1,0.3,0.2,0.5,0.2C52.8,31.2,53,31.1,53.1,31z
	 M62.2,34v-3.2c0-0.4-0.3-0.7-0.7-0.7s-0.7,0.3-0.7,0.7V34c0,0.4,0.3,0.7,0.7,0.7S62.2,34.4,62.2,34z M68.1,16.5
	c0.2,0,0.3-0.1,0.4-0.2L71,14c0.3-0.2,0.3-0.7,0-0.9c-0.2-0.3-0.7-0.3-0.9,0l-2.4,2.3c-0.3,0.2-0.3,0.7,0,0.9
	C67.8,16.4,68,16.5,68.1,16.5z M74.7,38.8c-1.2,0-1.8,0.4-2.4,0.7c-0.5,0.3-0.9,0.6-1.8,0.6c-0.9,0-1.3-0.3-1.8-0.6
	c-0.6-0.3-1.2-0.7-2.4-0.7c-1.2,0-1.8,0.4-2.4,0.7c-0.5,0.3-0.9,0.6-1.8,0.6c-0.9,0-1.3-0.3-1.8-0.6c-0.6-0.3-1.2-0.7-2.4-0.7
	c-1.2,0-1.8,0.4-2.4,0.7c-0.5,0.3-0.9,0.6-1.8,0.6c-0.9,0-1.3-0.3-1.8-0.6c-0.6-0.3-1.2-0.7-2.4-0.7c-0.3,0-0.5,0.2-0.5,0.5
	s0.2,0.5,0.5,0.5c0.9,0,1.3,0.3,1.8,0.6c0.6,0.3,1.2,0.7,2.4,0.7s1.8-0.4,2.4-0.7c0.5-0.3,0.9-0.6,1.8-0.6s1.3,0.3,1.8,0.6
	c0.6,0.3,1.2,0.7,2.4,0.7c1.2,0,1.8-0.4,2.4-0.7c0.5-0.3,0.9-0.6,1.8-0.6c0.9,0,1.3,0.3,1.8,0.6c0.6,0.3,1.2,0.7,2.4,0.7
	c1.2,0,1.8-0.4,2.4-0.7c0.5-0.3,0.9-0.6,1.8-0.6c0.3,0,0.5-0.2,0.5-0.5S75,38.8,74.7,38.8z M70.2,22c0,0.4,0.3,0.7,0.7,0.7h3.4
	c0.4,0,0.7-0.3,0.7-0.7s-0.3-0.7-0.7-0.7h-3.4C70.5,21.4,70.2,21.7,70.2,22z M61.6,29.1c4.1,0,7.4-3.2,7.4-7c0-3.9-3.3-7-7.4-7
	s-7.4,3.2-7.4,7C54.2,25.9,57.5,29.1,61.6,29.1z M61.6,16.3c3.4,0,6.1,2.6,6.1,5.7s-2.7,5.7-6.1,5.7s-6.1-2.6-6.1-5.7
	S58.2,16.3,61.6,16.3z M74.9,41.3c-1.2,0-1.8,0.4-2.4,0.7c-0.5,0.3-0.9,0.6-1.8,0.6c-0.9,0-1.3-0.3-1.8-0.6
	c-0.6-0.3-1.2-0.7-2.4-0.7c-1.2,0-1.8,0.4-2.4,0.7c-0.5,0.3-0.9,0.6-1.8,0.6c-0.9,0-1.3-0.3-1.8-0.6c-0.6-0.3-1.2-0.7-2.4-0.7
	c-1.2,0-1.8,0.4-2.4,0.7c-0.5,0.3-0.9,0.6-1.8,0.6c-0.9,0-1.3-0.3-1.8-0.6c-0.6-0.3-1.2-0.7-2.4-0.7c-0.3,0-0.5,0.2-0.5,0.5
	s0.2,0.5,0.5,0.5c0.9,0,1.3,0.3,1.8,0.6c0.6,0.3,1.2,0.7,2.4,0.7s1.8-0.4,2.4-0.7c0.5-0.3,0.9-0.6,1.8-0.6s1.3,0.3,1.8,0.6
	c0.6,0.3,1.2,0.7,2.4,0.7c1.2,0,1.8-0.4,2.4-0.7c0.5-0.3,0.9-0.6,1.8-0.6c0.9,0,1.3,0.3,1.8,0.6c0.6,0.3,1.2,0.7,2.4,0.7
	c1.2,0,1.8-0.4,2.4-0.7c0.5-0.3,0.9-0.6,1.8-0.6c0.3,0,0.5-0.2,0.5-0.5S75.2,41.3,74.9,41.3z M57.8,21.5c0.4,0,0.7-0.3,0.7-0.7
	c0-1,0.8-1.7,1.9-1.7c0.4,0,0.7-0.3,0.7-0.7s-0.3-0.7-0.7-0.7c-1.8,0-3.2,1.4-3.2,3C57.1,21.2,57.4,21.5,57.8,21.5z M61.6,13.9
	c0.4,0,0.7-0.3,0.7-0.7v-3.2c0-0.4-0.3-0.7-0.7-0.7s-0.7,0.3-0.7,0.7v3.2C60.9,13.6,61.2,13.9,61.6,13.9z M36.9,69.9
	c-2.2,0-4,1.5-4,3.4c0,1.8,1.6,3.2,3.7,3.3v3.4h-1.3c-0.2,0-0.3,0.2-0.3,0.3s0.2,0.3,0.3,0.3h3.4c0.2,0,0.3-0.2,0.3-0.3
	s-0.2-0.3-0.3-0.3h-1.3v-3.4c2.1-0.1,3.7-1.6,3.7-3.3C40.9,71.4,39.1,69.9,36.9,69.9z M37.2,75.9v-0.5l1.9-1.5
	c0.1-0.1,0.1-0.2,0-0.2c-0.1-0.1-0.2-0.1-0.2,0L37.2,75v-1.3l0.9-0.8c0.1-0.1,0.1-0.2,0-0.2c-0.1-0.1-0.2-0.1-0.2,0l-0.7,0.6v-0.7
	c0-0.2-0.2-0.3-0.3-0.3s-0.3,0.2-0.3,0.3v0.7l-0.7-0.6c-0.1-0.1-0.2-0.1-0.2,0c-0.1,0.1-0.1,0.2,0,0.2l0.9,0.8V75l-1.7-1.3
	c-0.1-0.1-0.2,0-0.2,0c-0.1,0.1,0,0.2,0,0.2l1.9,1.5v0.5c-1.7-0.1-3-1.3-3-2.7c0-1.5,1.5-2.7,3.4-2.7s3.4,1.2,3.4,2.7
	C40.2,74.6,38.9,75.8,37.2,75.9z M38.2,52.1c-0.6-2.1-2.4-3.7-4.6-3.9c-0.3-2.7-2.5-4.7-5.3-4.7c-2,0-3.8,1.1-4.7,2.9
	c-1.2-0.2-2.3,0-3.3,0.5c-0.8-0.4-1.5-0.6-2.4-0.6c-2.9,0-5.3,2.4-5.3,5.3c0,1.7,0.8,3.2,2.1,4.2c-0.8,0.9-1.2,2.1-1.2,3.3
	c0,2.8,2.1,5,4.8,5.3c0.2,1.4,0.9,2.5,2,3.2c0.8,0.5,1.7,0.8,2.6,0.8c0.4,0,0.8-0.1,1.2-0.2c0,1,0,2,0,3.1c-0.8-0.5-1.8-0.8-2.8-0.8
	c-2.6,0-4.8,1.8-4.8,4c0,2.1,1.9,3.8,4.4,3.9v4h-1.6c-0.2,0-0.4,0.2-0.4,0.4s0.2,0.4,0.4,0.4h4c0.2,0,0.4-0.2,0.4-0.4
	s-0.2-0.4-0.4-0.4h-1.6v-4c2.4-0.2,4.4-1.9,4.4-3.9c0-0.8-0.3-1.5-0.7-2.1h5.2c0.2,0,0.3-0.1,0.4-0.2c0.1-0.1,0.2-0.3,0.1-0.5
	c-0.3-1.5-0.5-3.2-0.7-4.6c1,0.5,2.4,1.1,3.6,1.1c3,0,5.3-2.3,5.3-5.3c0-0.3,0-0.6-0.1-0.9c1.8-0.9,2.9-2.7,2.9-4.7
	C42.2,54.8,40.5,52.7,38.2,52.1z M21.8,77.7V77l2.3-1.8c0.1-0.1,0.1-0.2,0-0.3c-0.1-0.1-0.2-0.1-0.3,0l-2.1,1.6V75l1.1-1
	c0.1-0.1,0.1-0.2,0-0.3c-0.1-0.1-0.2-0.1-0.3,0l-0.9,0.7v-0.8c0-0.2-0.2-0.4-0.4-0.4S21,73.5,21,73.7v0.8l-0.9-0.7
	c-0.1-0.1-0.2-0.1-0.3,0c-0.1,0.1-0.1,0.2,0,0.3l1.1,1v1.5L18.9,75c-0.1-0.1-0.2-0.1-0.3,0c-0.1,0.1-0.1,0.2,0,0.3L21,77v0.6
	c-2-0.2-3.6-1.5-3.6-3.1c0-1.7,1.8-3.2,4-3.2s4,1.4,4,3.2C25.4,76.2,23.8,77.5,21.8,77.7z M29.3,67.1c0.2,1.3,0.4,2.8,0.6,4.2h-4.5
	c-0.1-2.5,0.1-4.9,0.4-6.9c0-0.2,0-0.3-0.1-0.5l-0.4-0.4c-0.5-0.5-1-1.1-1.6-1.5c-0.8-0.5-1.5-1-2.4-1.5c0.9-0.1,1.7-0.1,2.5,0.1
	c0.6,0.1,1.2,0.4,1.7,0.8c0.2,0.1,0.4,0.1,0.5,0.1c0.2-0.1,0.3-0.2,0.4-0.4c0.6-2.4,1.5-4.6,2.6-6.7c-0.3,2.5-0.4,5.2-0.2,8
	c0,0.2,0.1,0.3,0.2,0.4c0.1,0.1,0.3,0.1,0.5,0.1c1.3-0.3,2.6-0.3,3.9-0.1c-1.7,0.8-3.1,1.9-4,2.9c-0.1,0.1-0.2,0.3-0.2,0.5
	L29.3,67.1z M38.3,61.1c-0.3,0.1-0.4,0.4-0.3,0.7c0.1,0.4,0.2,0.8,0.2,1.1c0,2.4-1.8,4.1-4.1,4.1c-1.1,0-2.5-0.6-3.3-1.1
	c1.2-1.1,2.9-2.2,4.8-2.7c0.2-0.1,0.4-0.3,0.4-0.5c0-0.3-0.2-0.5-0.4-0.6c-1.8-0.6-3.7-0.8-5.6-0.5c-0.2-3.6,0-6.9,0.7-10
	c0.1-0.3-0.1-0.5-0.3-0.6s-0.5,0-0.7,0.2c-1.8,2.7-3.1,5.6-4,8.8c-0.4-0.2-0.9-0.4-1.4-0.5c-1.5-0.4-3-0.1-4.4,0.1l-0.2,0
	c-0.2,0-0.4,0.2-0.5,0.5s0.1,0.5,0.3,0.6c1.3,0.7,2.6,1.4,3.8,2.2c0.5,0.3,0.9,0.9,1.4,1.4c0.1,0.1,0.1,0.1,0.2,0.2
	c-0.1,0.8-0.2,1.6-0.3,2.5c-1.1,0.4-2.3,0.3-3.2-0.3c-1-0.6-1.5-1.6-1.5-2.8c0-0.2-0.1-0.3-0.2-0.4c-0.1-0.1-0.3-0.2-0.5-0.2
	c-2.3,0-4.1-1.9-4.1-4.1c0-1.1,0.5-2.2,1.3-3c0.1-0.1,0.2-0.3,0.2-0.5c0-0.2-0.1-0.3-0.3-0.4c-1.3-0.7-2.1-2.1-2.1-3.6
	c0-2.3,1.9-4.1,4.1-4.1c0.7,0,1.4,0.2,2.1,0.6c0.2,0.1,0.4,0.1,0.6,0c0.7-0.4,1.4-0.6,2.1-0.6c0.3,0,0.7,0.1,1.1,0.2
	c0.3,0.1,0.6-0.1,0.7-0.3c0.6-1.6,2.1-2.7,3.9-2.7c2.3,0,4.1,1.9,4.1,4.1c0,0.3,0.3,0.6,0.6,0.6c2,0,3.7,1.4,4.1,3.4
	c0,0.2,0.2,0.4,0.5,0.5c2,0.4,3.4,2.1,3.4,4.1C41,59,40,60.5,38.3,61.1z M15.7,76.9H14v-4.5c2.7-0.2,4.9-2.1,4.9-4.4
	c0-2.5-2.4-4.4-5.3-4.4s-5.3,2-5.3,4.4c0,2.3,2.2,4.2,4.9,4.4v4.5h-1.8c-0.2,0-0.4,0.2-0.4,0.4s0.2,0.4,0.4,0.4h4.4
	c0.2,0,0.4-0.2,0.4-0.4S16,76.9,15.7,76.9z M13.5,66.6c-0.2,0-0.4,0.2-0.4,0.4V68l-1-0.8c-0.1-0.1-0.2-0.1-0.3,0
	c-0.1,0.1-0.1,0.2,0,0.3l1.3,1.1v1.7l-2.3-1.8c-0.1-0.1-0.2-0.1-0.3,0c-0.1,0.1-0.1,0.2,0,0.3l2.6,2v0.7c-2.2-0.2-4-1.7-4-3.5
	c0-2,2-3.6,4.4-3.6C16,64.4,18,66,18,68c0,1.8-1.8,3.3-4,3.5v-0.7l2.6-2c0.1-0.1,0.1-0.2,0-0.3c-0.1-0.1-0.2-0.1-0.3,0L14,70.2v-1.7
	l1.3-1.1c0.1-0.1,0.1-0.2,0-0.3c-0.1-0.1-0.2-0.1-0.3,0L14,68V67C14,66.8,13.8,66.6,13.5,66.6z M50.8,69.5c0,0,0.1,0,0.1,0l2.1-0.9
	c0.1-0.1,0.2-0.2,0.1-0.3s-0.2-0.2-0.3-0.1L50.7,69c-0.1,0.1-0.2,0.2-0.1,0.3C50.6,69.4,50.7,69.5,50.8,69.5z M52.6,66.6
	c0-0.1-0.2-0.2-0.3-0.2l-2.2,0.4c-0.1,0-0.2,0.2-0.2,0.3c0,0.1,0.1,0.2,0.3,0.2c0,0,0,0,0.1,0l2.2-0.4
	C52.5,66.9,52.6,66.7,52.6,66.6z M49.7,64.8c0,0.1,0.1,0.3,0.3,0.3h2.2c0.1,0,0.3-0.1,0.3-0.3s-0.1-0.3-0.3-0.3h-2.2
	C49.8,64.5,49.7,64.7,49.7,64.8z M71,71.4c0.1,0,0.2,0,0.2-0.1c0.1-0.1,0-0.3-0.1-0.4l-1.9-1.2c-0.1-0.1-0.3,0-0.4,0.1
	s0,0.3,0.1,0.4l1.9,1.2C70.9,71.4,70.9,71.4,71,71.4z M66.4,72.3c-0.1,0.1-0.2,0.2-0.1,0.4l1.2,1.8c0.1,0.1,0.1,0.1,0.2,0.1
	c0.1,0,0.1,0,0.1,0c0.1-0.1,0.2-0.2,0.1-0.4l-1.2-1.8C66.7,72.2,66.6,72.2,66.4,72.3z M51.9,71.5c0.1,0,0.1,0,0.1,0l1.8-1.2
	c0.1-0.1,0.2-0.2,0.1-0.4c-0.1-0.1-0.2-0.2-0.4-0.1L51.7,71c-0.1,0.1-0.2,0.2-0.1,0.4C51.7,71.4,51.8,71.5,51.9,71.5z M72.1,69.5
	c0.1,0,0.2-0.1,0.2-0.2c0.1-0.1,0-0.3-0.1-0.3l-2.1-0.9c-0.1-0.1-0.3,0-0.3,0.1s0,0.3,0.1,0.3l2.1,0.9C72,69.5,72,69.5,72.1,69.5z
	 M63.2,73.6c-0.1,0-0.2,0.2-0.2,0.3l0.4,2.2c0,0.1,0.1,0.2,0.3,0.2c0,0,0,0,0.1,0c0.1,0,0.2-0.2,0.2-0.3l-0.4-2.2
	C63.5,73.7,63.3,73.6,63.2,73.6z M64.7,73.5l0.9,2.1c0,0.1,0.1,0.2,0.2,0.2c0,0,0.1,0,0.1,0c0.1-0.1,0.2-0.2,0.1-0.3l-0.9-2.1
	c-0.1-0.1-0.2-0.2-0.3-0.1C64.7,73.2,64.7,73.3,64.7,73.5z M65,56.5c0.1,0,0.2-0.1,0.2-0.2l0.9-2.1c0.1-0.1,0-0.3-0.1-0.3
	c-0.1-0.1-0.3,0-0.3,0.1l-0.9,2.1c-0.1,0.1,0,0.3,0.1,0.3C64.9,56.5,64.9,56.5,65,56.5z M69.6,73.2c0.1,0,0.1,0,0.2-0.1
	c0.1-0.1,0.1-0.3,0-0.4l-1.6-1.6c-0.1-0.1-0.3-0.1-0.4,0c-0.1,0.1-0.1,0.3,0,0.4l1.6,1.6C69.4,73.2,69.5,73.2,69.6,73.2z M69.4,56.5
	l-1.6,1.6c-0.1,0.1-0.1,0.3,0,0.4c0.1,0.1,0.1,0.1,0.2,0.1s0.1,0,0.2-0.1l1.6-1.6c0.1-0.1,0.1-0.3,0-0.4
	C69.6,56.4,69.5,56.4,69.4,56.5z M70.8,58.2L69,59.4c-0.1,0.1-0.2,0.2-0.1,0.4c0.1,0.1,0.1,0.1,0.2,0.1c0.1,0,0.1,0,0.1,0l1.8-1.2
	c0.1-0.1,0.2-0.2,0.1-0.4C71.1,58.1,71,58.1,70.8,58.2z M67.6,55.1l-1.2,1.9c-0.1,0.1,0,0.3,0.1,0.4c0,0,0.1,0,0.1,0
	c0.1,0,0.2,0,0.2-0.1l1.2-1.9c0.1-0.1,0-0.3-0.1-0.4C67.8,54.9,67.7,55,67.6,55.1z M72.7,62.3l-2.2,0.4c-0.1,0-0.2,0.2-0.2,0.3
	c0,0.1,0.1,0.2,0.3,0.2c0,0,0,0,0.1,0l2.2-0.4c0.1,0,0.2-0.2,0.2-0.3C72.9,62.4,72.8,62.3,72.7,62.3z M72,60.2L69.9,61
	c-0.1,0.1-0.2,0.2-0.1,0.3c0,0.1,0.1,0.2,0.2,0.2c0,0,0.1,0,0.1,0l2.1-0.9c0.1-0.1,0.2-0.2,0.1-0.3C72.2,60.2,72.1,60.1,72,60.2z
	 M73.2,64.8c0-0.1-0.1-0.3-0.3-0.3h-2.2c-0.1,0-0.3,0.1-0.3,0.3s0.1,0.3,0.3,0.3h2.2C73.1,65.1,73.2,64.9,73.2,64.8z M72.7,67.3
	c0.1,0,0.2-0.1,0.3-0.2c0-0.1-0.1-0.3-0.2-0.3l-2.2-0.4c-0.1,0-0.3,0.1-0.3,0.2s0.1,0.3,0.2,0.3L72.7,67.3
	C72.7,67.3,72.7,67.3,72.7,67.3z M53.1,56.5c-0.1,0.1-0.1,0.3,0,0.4l1.6,1.6c0.1,0.1,0.1,0.1,0.2,0.1s0.1,0,0.2-0.1
	c0.1-0.1,0.1-0.3,0-0.4l-1.6-1.6C53.4,56.4,53.2,56.4,53.1,56.5z M51.6,58.3c-0.1,0.1,0,0.3,0.1,0.4l1.9,1.2c0,0,0.1,0,0.1,0
	c0.1,0,0.2,0,0.2-0.1c0.1-0.1,0-0.3-0.1-0.4L52,58.2C51.9,58.1,51.7,58.2,51.6,58.3z M50.6,60.3c-0.1,0.1,0,0.3,0.1,0.3l2.1,0.9
	c0,0,0.1,0,0.1,0c0.1,0,0.2-0.1,0.2-0.2c0.1-0.1,0-0.3-0.1-0.3l-2.1-0.9C50.8,60.1,50.6,60.2,50.6,60.3z M49.9,62.5
	c0,0.1,0.1,0.3,0.2,0.3l2.2,0.4c0,0,0,0,0.1,0c0.1,0,0.2-0.1,0.3-0.2c0-0.1-0.1-0.3-0.2-0.3l-2.2-0.4C50.1,62.3,49.9,62.4,49.9,62.5
	z M53.3,73.2c0.1,0,0.1,0,0.2-0.1l1.6-1.6c0.1-0.1,0.1-0.3,0-0.4c-0.1-0.1-0.3-0.1-0.4,0l-1.6,1.6c-0.1,0.1-0.1,0.3,0,0.4
	C53.2,73.2,53.2,73.2,53.3,73.2z M55.1,74.6c0.1,0,0.2,0,0.2-0.1l1.2-1.9c0.1-0.1,0-0.3-0.1-0.4c-0.1-0.1-0.3,0-0.4,0.1l-1.2,1.9
	c-0.1,0.1,0,0.3,0.1,0.4C55,74.6,55,74.6,55.1,74.6z M55.3,55.1C55.2,55,55,54.9,54.9,55c-0.1,0.1-0.2,0.2-0.1,0.4l1.2,1.9
	c0.1,0.1,0.1,0.1,0.2,0.1c0.1,0,0.1,0,0.1,0c0.1-0.1,0.2-0.2,0.1-0.4L55.3,55.1z M57.6,56.3c0,0.1,0.1,0.2,0.2,0.2c0,0,0.1,0,0.1,0
	c0.1-0.1,0.2-0.2,0.1-0.3l-0.9-2.1c-0.1-0.1-0.2-0.2-0.3-0.1c-0.1,0.1-0.2,0.2-0.1,0.3L57.6,56.3z M61.2,76.3c0,0.1,0.1,0.3,0.3,0.3
	s0.3-0.1,0.3-0.3v-2.2c0-0.1-0.1-0.3-0.3-0.3s-0.3,0.1-0.3,0.3V76.3z M56.9,75.7c0,0,0.1,0,0.1,0c0.1,0,0.2-0.1,0.2-0.2l0.9-2.1
	c0.1-0.1,0-0.3-0.1-0.3c-0.1-0.1-0.3,0-0.3,0.1l-0.9,2.1C56.7,75.5,56.8,75.6,56.9,75.7z M59.4,73.9L58.9,76c0,0.1,0.1,0.3,0.2,0.3
	c0,0,0,0,0.1,0c0.1,0,0.2-0.1,0.3-0.2l0.4-2.2c0-0.1-0.1-0.3-0.2-0.3C59.5,73.6,59.4,73.7,59.4,73.9z M61.4,55.8
	c0.1,0,0.3-0.1,0.3-0.3v-2.2c0-0.1-0.1-0.3-0.3-0.3s-0.3,0.1-0.3,0.3v2.2C61.2,55.7,61.3,55.8,61.4,55.8z M59.1,53.3
	c-0.1,0-0.2,0.2-0.2,0.3l0.4,2.2c0,0.1,0.1,0.2,0.3,0.2c0,0,0,0,0.1,0c0.1,0,0.2-0.2,0.2-0.3l-0.4-2.2
	C59.4,53.3,59.3,53.2,59.1,53.3z M63.7,53.3c-0.1,0-0.3,0.1-0.3,0.2L63,55.7c0,0.1,0.1,0.3,0.2,0.3c0,0,0,0,0.1,0
	c0.1,0,0.2-0.1,0.3-0.2l0.4-2.2C64,53.4,63.9,53.3,63.7,53.3z"/>
</svg>
