<?xml version="1.0" encoding="utf-8"?>
<!-- Generator: Adobe Illustrator 20.1.0, SVG Export Plug-In . SVG Version: 6.00 Build 0)  -->
<svg version="1.1" id="Event_Categories" xmlns="http://www.w3.org/2000/svg" xmlns:xlink="http://www.w3.org/1999/xlink" x="0px"
	 y="0px" viewBox="0 0 122 122" style="enable-background:new 0 0 122 122;" xml:space="preserve">
<style type="text/css">
	.st0{fill:#E99E99;}
	.st1{fill:#FFFFFF;}
</style>
<circle class="st0" cx="61" cy="60.8" r="60"/>
<path class="st1" d="M50.7,59.9c0.3-0.2,0.4-0.6,0.2-0.9c-0.2-0.3-0.6-0.4-0.9-0.2c-0.7,0.4-1.1,1-1.1,1.6c0,0.6,0.4,1.2,1.1,1.6
	l7.8,4.4c0.6,0.3,1.4,0.5,2.1,0.5c0.8,0,1.5-0.2,2.1-0.5l7.8-4.4c0.7-0.4,1.1-1,1.1-1.6c0-0.6-0.4-1.2-1.1-1.6
	c-0.3-0.2-0.7-0.1-0.9,0.2c-0.2,0.3-0.1,0.7,0.2,0.9c0.3,0.2,0.4,0.4,0.4,0.5c0,0.1-0.1,0.3-0.4,0.5l-7.8,4.4c-0.8,0.4-2.2,0.4-3,0
	l-7.8-4.4c-0.3-0.2-0.4-0.4-0.4-0.5C50.3,60.2,50.4,60,50.7,59.9z M21.3,30.5C21.3,30.5,21.4,30.5,21.3,30.5l5.9-0.7
	c0,0.1,0.1,0.2,0.2,0.3l1.9,1.7l-4.6,0.6c-0.4,0-0.6,0.4-0.6,0.7c0,0.3,0.3,0.6,0.6,0.6c0,0,0.1,0,0.1,0l5.7-0.7l2.1,2l-4.6,0.6
	c-0.4,0-0.6,0.4-0.6,0.7c0,0.3,0.3,0.6,0.6,0.6c0,0,0.1,0,0.1,0l5.7-0.7L52,53l-1.9,1.1c-0.7,0.4-1.1,1-1.1,1.6
	c0,0.6,0.4,1.2,1.1,1.6l7.8,4.4c0.6,0.3,1.4,0.5,2.1,0.5c0.8,0,1.5-0.2,2.1-0.5l7.8-4.4c0.7-0.4,1.1-1,1.1-1.6
	c0-0.6-0.4-1.2-1.1-1.6l-2-1.1l20-14l5.5,1.5c0.1,0,0.1,0,0.2,0c0.3,0,0.5-0.2,0.6-0.5c0.1-0.3-0.1-0.7-0.5-0.8L89.3,38l2.4-1.7
	l5.5,1.5c0.1,0,0.1,0,0.2,0c0.3,0,0.5-0.2,0.6-0.5c0.1-0.3-0.1-0.7-0.5-0.8L93,35.4l2.1-1.5c0.1-0.1,0.2-0.2,0.2-0.2l5.6,1.5
	c0.1,0,0.1,0,0.2,0c0.3,0,0.5-0.2,0.6-0.5c0.1-0.3-0.1-0.7-0.5-0.8l-5.3-1.4l0.5-5.5c0-0.4-0.2-0.7-0.6-0.7c-0.3,0-0.7,0.2-0.7,0.6
	l-0.5,5.8c-0.1,0-0.2,0-0.3,0.1l-2.1,1.5l0.4-4.6c0-0.4-0.2-0.7-0.6-0.7c-0.3,0-0.7,0.2-0.7,0.6l-0.5,5.7L88.5,37l0.4-4.6
	c0-0.4-0.2-0.7-0.6-0.7c-0.3,0-0.7,0.2-0.7,0.6l-0.5,5.7L66.7,52.3l-4.6-2.6c-1.2-0.7-3-0.7-4.2,0l-4.7,2.7c0-0.1-0.1-0.2-0.2-0.2
	L34.6,35l0.3-5.7c0-0.4-0.3-0.7-0.6-0.7c-0.4,0-0.7,0.3-0.7,0.6l-0.3,4.6l-2.1-2l0.3-5.7c0-0.4-0.3-0.7-0.6-0.7
	c-0.4,0-0.7,0.3-0.7,0.6l-0.3,4.6l-1.9-1.7c-0.1-0.1-0.2-0.1-0.3-0.1l0.3-5.8c0-0.4-0.3-0.7-0.6-0.7c-0.4,0-0.7,0.3-0.7,0.6
	l-0.3,5.5l-5.4,0.7c-0.4,0-0.6,0.4-0.6,0.7C20.7,30.2,21,30.5,21.3,30.5z M58.5,50.8c0.4-0.2,0.9-0.3,1.5-0.3s1.1,0.1,1.5,0.3
	l7.8,4.4c0.3,0.2,0.4,0.4,0.4,0.5c0,0.1-0.1,0.3-0.4,0.5l-7.8,4.4c-0.8,0.4-2.2,0.4-3,0l-7.8-4.4c-0.3-0.2-0.4-0.4-0.4-0.5
	c0-0.1,0.1-0.3,0.4-0.5L58.5,50.8z M100.6,88.8l-5.8,0.7c0-0.1-0.1-0.2-0.2-0.3l-1.9-1.7l4.6-0.6c0.4,0,0.6-0.4,0.6-0.7
	c0-0.4-0.4-0.6-0.7-0.6l-5.7,0.7l-2.1-2l4.6-0.6c0.4,0,0.6-0.4,0.6-0.7c0-0.4-0.4-0.6-0.7-0.6l-5.7,0.7l-18.2-17
	c0.6-0.4,0.9-0.9,0.9-1.5c0-0.6-0.4-1.2-1.1-1.6c-0.3-0.2-0.7-0.1-0.9,0.2c-0.2,0.3-0.1,0.7,0.2,0.9c0.3,0.2,0.4,0.4,0.4,0.5
	c0,0.1-0.1,0.3-0.4,0.5l-7.8,4.4c-0.8,0.4-2.2,0.4-3,0l-7.8-4.4c-0.3-0.2-0.4-0.4-0.4-0.5c0-0.1,0.1-0.3,0.4-0.5
	c0.3-0.2,0.4-0.6,0.2-0.9c-0.2-0.3-0.6-0.4-0.9-0.2c-0.7,0.4-1.1,1-1.1,1.6c0,0.6,0.4,1.2,1.1,1.6l1.1,0.6L30.7,81.4l-5.5-1.5
	c-0.3-0.1-0.7,0.1-0.8,0.5c-0.1,0.3,0.1,0.7,0.5,0.8l4.5,1.2L27,84l-5.5-1.5c-0.3-0.1-0.7,0.1-0.8,0.5c-0.1,0.3,0.1,0.7,0.5,0.8
	l4.5,1.2l-2.1,1.5c-0.1,0.1-0.2,0.2-0.2,0.2l-5.6-1.5c-0.3-0.1-0.7,0.1-0.8,0.5c-0.1,0.3,0.1,0.7,0.5,0.8l5.3,1.4l-0.5,5.5
	c0,0.4,0.2,0.7,0.6,0.7c0,0,0,0,0.1,0c0.3,0,0.6-0.3,0.6-0.6l0.5-5.8c0.1,0,0.2,0,0.3-0.1l2.1-1.5L26,90.6c0,0.4,0.2,0.7,0.6,0.7
	c0,0,0,0,0.1,0c0.3,0,0.6-0.3,0.6-0.6l0.5-5.7l2.4-1.7L29.7,88c0,0.4,0.2,0.7,0.6,0.7c0,0,0,0,0.1,0c0.3,0,0.6-0.3,0.6-0.6l0.5-5.7
	L52,68c0.1-0.1,0.2-0.2,0.2-0.4l5.6,3.2c0.6,0.3,1.4,0.5,2.1,0.5c0.8,0,1.5-0.2,2.1-0.5l6.8-3.8c0,0,0.1,0.1,0.1,0.1l18.4,17.1
	l-0.3,5.9c0,0.4,0.3,0.9,0.6,0.9h0c0.3,0,0.6-0.5,0.6-0.8l0.3-4.7l2.1,1.9l-0.3,5.8c0,0.4,0.3,0.8,0.6,0.8h0c0.3,0,0.6-0.4,0.6-0.7
	l0.3-4.7l1.9,1.7c0.1,0.1,0.2,0.1,0.3,0.1l-0.3,5.9c0,0.4,0.3,0.7,0.6,0.7h0c0.3,0,0.6-0.3,0.6-0.7l0.3-5.5l5.4-0.7
	c0.4,0,0.6-0.4,0.6-0.7C101.3,89,101,88.8,100.6,88.8z M111.7,54.5c-0.3-0.5-0.8-0.9-1.3-1c-0.3,0-0.5,0.1-0.6,0.4
	c0,0.3,0.1,0.5,0.4,0.6c0.2,0,0.5,0.2,0.6,0.5c0.2,0.3,0.2,0.7,0,1.1c-0.1,0.3,0,0.6,0.3,0.7c0.1,0,0.1,0,0.2,0
	c0.2,0,0.4-0.1,0.5-0.3C112.1,55.8,112,55.1,111.7,54.5z M113.8,54.8c-0.2-1.5-1.4-2.8-2.8-3.1c-1.2-0.2-2.3,0.2-3.1,1.2
	c-0.2-0.2-0.4-0.5-0.7-0.6c0.3-1.2,0.2-2.1,0.1-2.8c-0.5-2-2.2-3.4-4.1-3.4c-1.2,0-2.3,0.6-3.2,1.6c-0.8-1.1-2-1.6-3.2-1.6
	c-1.9,0-3.6,1.4-4.1,3.4c-0.2,0.7-0.3,1.7,0.1,2.9c-0.2,0.2-0.4,0.3-0.6,0.6c-0.8-1-2-1.4-3.1-1.2c-1.4,0.3-2.5,1.5-2.8,3.1
	c-0.2,1.2,0,4.2,5.1,7.2l-0.9,0.9c-0.2,0.2-0.2,0.5,0,0.7c0.1,0.1,0.2,0.1,0.4,0.1c0.1,0,0.3,0,0.4-0.1l0.4-0.4c0,2,0.3,6,2.3,7.9
	c0.1,0.1,0.2,0.1,0.3,0.1c0.1,0,0.3-0.1,0.4-0.2c0.2-0.2,0.2-0.5,0-0.7c-1.7-1.6-2-5.4-2-7.2l0.5,0.5c0.2,0.2,0.5,0.2,0.7,0
	s0.2-0.5,0-0.7L93.1,62c2.1-1.2,3.6-2.6,4.4-4c0.5,0.4,1.1,0.7,1.7,1.1l-0.8,0.8c-0.2,0.2-0.2,0.5,0,0.7c0.2,0.2,0.8,0.2,1,0
	l0.7-0.5v10.5c0,0.3,0.2,0.5,0.5,0.5s0.5-0.2,0.5-0.5V60.1l0.2,0.5c0.1,0.1,0.1,0.1,0.2,0.1c0.1,0,0.2,0,0.3-0.1
	c0.2-0.2,0.2-0.5,0-0.7l-0.9-0.8c0.6-0.4,1.2-0.7,1.7-1.1c0.8,1.5,2.3,2.9,4.4,4.1l-0.9,0.9c-0.2,0.2-0.2,0.5,0,0.7
	c0.2,0.2,0.5,0.2,0.7,0l0.5-0.5c0,1.8-0.3,5.6-2,7.2c-0.2,0.2-0.2,0.5,0,0.7c0.1,0.1,0.2,0.2,0.4,0.2c0.1,0,0.3,0,0.3-0.1
	c2-1.9,2.3-5.9,2.3-7.9l0.4,0.4c0.1,0.1,0.2,0.1,0.4,0.1s0.3,0,0.4-0.1c0.2-0.2,0.2-0.5,0-0.7l-0.9-0.9
	C113.8,59,113.9,56,113.8,54.8z M92.3,61.3c-1.9-1-3.2-2.2-4.1-3.4c-0.7-1-1-2-0.8-3c0.2-1.1,1-2,2-2.2c1-0.2,1.9,0.3,2.5,1.3
	c0.1,0.2,0.3,0.2,0.4,0.2h0c0.2,0,0.3-0.1,0.4-0.2c0.2-0.3,0.3-0.5,0.5-0.7c0.1,0.3,0.3,0.6,0.5,0.9c0.7,1.1,1.7,2.2,2.9,3.1
	C95.9,58.8,94.4,60.1,92.3,61.3z M100,58.4c-6.9-3.8-6.5-7.6-6.3-8.6c0.4-1.5,1.7-2.6,3.1-2.6c1.1,0,2,0.6,2.7,1.8
	c0.1,0.2,0.3,0.2,0.4,0.2h0c0.2,0,0.3-0.1,0.4-0.2c0.7-1.1,1.7-1.8,2.7-1.8c1.4,0,2.7,1.1,3.1,2.6C106.5,50.8,106.9,54.5,100,58.4z
	 M107.9,61.3c-2.2-1.2-3.7-2.6-4.4-4c1.2-1,2.2-2,2.8-3.1c0.2-0.3,0.4-0.6,0.5-1c0.2,0.2,0.4,0.5,0.6,0.8c0.1,0.2,0.3,0.2,0.4,0.2
	c0.2,0,0.3-0.1,0.4-0.2c0.6-1,1.5-1.5,2.5-1.3c1,0.2,1.8,1.1,2,2.2c0.1,0.9-0.1,2-0.8,3C111.1,59.1,109.7,60.3,107.9,61.3z
	 M96.8,47.9c-0.8,0.1-1.5,0.7-2,1.4c-0.5,0.9-0.5,1.9-0.1,3c0.1,0.2,0.3,0.3,0.5,0.3c0.1,0,0.1,0,0.2,0c0.3-0.1,0.4-0.4,0.3-0.7
	c-0.3-0.8-0.3-1.5,0.1-2.1c0.3-0.5,0.7-0.8,1.3-0.9c0.3,0,0.5-0.3,0.4-0.6C97.4,48,97.1,47.9,96.8,47.9z M89.8,53.6
	c-0.6,0.1-1,0.4-1.3,1c-0.3,0.6-0.4,1.3-0.1,2c0.1,0.2,0.3,0.3,0.5,0.3c0.1,0,0.1,0,0.2,0c0.3-0.1,0.4-0.4,0.3-0.7
	c-0.2-0.4-0.1-0.8,0-1.1c0.1-0.2,0.4-0.4,0.6-0.5c0.3,0,0.5-0.3,0.4-0.6C90.3,53.7,90,53.5,89.8,53.6z M17,58.8l14-6v9.7
	c0-0.3-0.9-0.4-1.4-0.4c-0.6,0-1.2,0.2-1.6,0.7c-0.5-0.4-1-0.7-1.6-0.7c-1.1,0-2.1,0.8-2.4,1.9c-0.2,0.6-0.2,1.5,0.5,2.7
	c0.6,1,1.7,1.9,3.2,2.7c0.1,0,0.2,0.1,0.3,0.1c0.1,0,0.2,0,0.3-0.1c1.5-0.8,2.5-1.7,3.2-2.7c0.5-0.8,0.6-1.5,0.6-2V46
	c0,0,0-0.1,0-0.2c-0.1-0.3-0.4-0.4-0.7-0.3l-14.8,6.5c-0.2,0.1-0.5,0.3-0.5,0.5v12.6c0-0.3-0.7-0.4-1.2-0.4c-0.6,0-1.1,0.2-1.6,0.7
	c-0.5-0.4-1-0.7-1.6-0.7c-1.1,0-2.1,0.8-2.3,1.9c-0.2,0.6-0.2,1.5,0.5,2.7c0.6,1,1.7,1.9,3.2,2.7c0.1,0,0.2,0.1,0.3,0.1
	c0.1,0,0.2,0,0.3-0.1c1.5-0.8,2.4-1.7,3-2.7c0.5-0.8,0.4-1.5,0.4-2V58.8z M28,68.2c-3.2-1.8-3-3.5-2.9-4c0.2-0.6,0.7-1.1,1.3-1.1
	c0.4,0,0.8,0.3,1.1,0.8c0.1,0.2,0.3,0.3,0.5,0.3h0c0.2,0,0.4-0.1,0.5-0.3c0.3-0.5,0.7-0.8,1.1-0.8c0.6,0,1.1,0.5,1.3,1.1
	C31,64.7,31.2,66.4,28,68.2z M17,52.9l14-6v4.6l-14,6V52.9z M13.3,70.9c-3.2-1.8-3-3.5-2.9-4c0.2-0.6,0.7-1.1,1.3-1.1
	c0.4,0,0.8,0.3,1.1,0.8c0.1,0.2,0.3,0.3,0.5,0.3h0c0.2,0,0.4-0.1,0.5-0.3c0.3-0.5,0.7-0.8,1.1-0.8c0.6,0,1.1,0.5,1.3,1.1
	C16.3,67.4,16.5,69.1,13.3,70.9z M47.8,38.3c0.1,0,0.1,0.1,0.2,0.1l7.2-2.4h17.3c1.3,0,2.5-1.3,2.5-2.5V13.7c0-1.3-1.2-2.7-2.5-2.7
	H52.7c-1.3,0-2.7,1.4-2.7,2.7v17.9l-2.9,5.9c-0.1,0.2,0,0.4,0.2,0.6C47.4,38.2,47.6,38.3,47.8,38.3z M51.2,32c0-0.1-0.2-0.2-0.2-0.3
	v-18c0-0.7,1-1.7,1.7-1.7h19.8c0.7,0,1.5,1,1.5,1.7v19.8c0,0.7-0.9,1.5-1.5,1.5H55.1c-0.1,0-0.1-0.2-0.2-0.1l-6,2L51.2,32z
	 M60.2,28.8c0.1,0,0.2,0.1,0.3,0.1c0.1,0,0.2,0,0.3-0.1c0.5-0.3,0.9-0.5,1.4-0.8c0.8,1,2.1,2,3.7,2.9c0.1,0,0.2,0.1,0.3,0.1
	s0.2,0,0.3-0.1c1.9-1,3.3-2.2,4.1-3.5c0.9-1.4,0.9-2.6,0.7-3.3c-0.4-1.4-1.6-2.4-3-2.4c-0.3,0-0.6,0.1-0.9,0.2
	c0.4-2.1-0.5-3.9-2-4.7C64,16.2,62,16.2,60.5,18c-1-1.1-2.3-1.6-3.7-1.4c-1.7,0.4-3,1.8-3.2,3.6C53.4,21.6,53.7,25.3,60.2,28.8z
	 M66.6,23.8c0.4-0.7,1-1.1,1.7-1.1c0.9,0,1.7,0.7,1.9,1.6c0.2,0.7,0.4,3-4,5.4c-4.4-2.4-4.2-4.8-4-5.4c0.2-0.9,1-1.6,1.9-1.6
	c0.6,0,1.2,0.4,1.7,1.1c0.1,0.2,0.3,0.3,0.5,0.3S66.5,24,66.6,23.8z M54.7,20.3c0.2-1.3,1.1-2.4,2.4-2.7c1.1-0.2,2.2,0.3,3,1.5
	c0.1,0.2,0.3,0.3,0.5,0.3s0.4-0.1,0.5-0.3c1.2-1.9,2.8-1.8,3.8-1.2c1.3,0.8,2,2.5,1.2,4.5c-0.6-0.6-1.3-0.8-2-0.8
	c-1.4,0-2.6,1-3,2.4c-0.2,0.7-0.2,1.8,0.5,3c-0.3,0.2-0.7,0.4-1,0.6C54.8,24.6,54.5,21.5,54.7,20.3z M52.4,87.1c0.1,0,0.3,0,0.4-0.1
	c0.2-0.2,0.2-0.5,0-0.7l-1.6-1.6c-0.2-0.2-0.5-0.2-0.7,0c-0.2,0.2-0.2,0.5,0,0.7l1.6,1.6C52.2,87,52.3,87.1,52.4,87.1z M67.2,93.5
	c-1.7,0-3.4,0.5-4.8,1.5c-1-0.7-2.1-1.2-3.3-1.4l3.2-2.1c0.2-0.1,0.3-0.4,0.2-0.6l-1-2.6c-0.1-0.2-0.3-0.3-0.5-0.3h-6.9
	c-0.2,0-0.4,0.1-0.5,0.3l-1,2.6c-0.1,0.2,0,0.5,0.2,0.6l3.2,2.1c-3.9,0.7-6.8,4.1-6.8,8.1c0,4.6,3.7,8.3,8.3,8.3
	c1.7,0,3.4-0.5,4.8-1.5c1.3,0.9,3,1.5,4.8,1.5c4.6,0,8.3-3.7,8.3-8.3C75.5,97.2,71.8,93.5,67.2,93.5z M60.8,89l0.3,0.9L59.6,89H60.8
	z M60.3,91h-5.1l2.6-1.5L60.3,91z M54.6,89h1.2l-1.6,0.9L54.6,89z M55,92h5.5l-2.7,1.8L55,92z M57.7,109c-4,0-7.3-3.3-7.3-7.3
	s3.3-7.3,7.3-7.3s7.3,3.3,7.3,7.3c0,1.3-0.3,2.6-1,3.7c-0.4-0.3-0.7-0.7-0.9-1.1c0.4-0.8,0.6-1.7,0.6-2.6c0-3.3-2.7-5.9-5.9-5.9
	s-5.9,2.7-5.9,5.9s2.7,5.9,5.9,5.9c1.1,0,2.1-0.3,3-0.8c0.3,0.3,0.6,0.7,0.9,1C60.4,108.6,59.1,109,57.7,109z M64.8,97.5
	c0.7-0.4,1.6-0.6,2.4-0.6c2.7,0,4.9,2.2,4.9,4.9c0,2.7-2.2,4.9-4.9,4.9c-0.9,0-1.7-0.2-2.4-0.6c0.8-1.3,1.2-2.8,1.2-4.3
	C66,100.2,65.5,98.7,64.8,97.5z M62.6,101.8c0,0.4-0.1,0.9-0.2,1.3c-0.1-0.4-0.2-0.9-0.2-1.3c0-0.4,0.1-0.9,0.2-1.3
	C62.6,100.9,62.6,101.3,62.6,101.8z M60.1,97.5c-0.8,1.3-1.2,2.8-1.2,4.3c0,1.6,0.4,3,1.2,4.3c-0.7,0.4-1.6,0.6-2.4,0.6
	c-2.7,0-4.9-2.2-4.9-4.9c0-2.7,2.2-4.9,4.9-4.9C58.6,96.8,59.4,97.1,60.1,97.5z M67.2,109c-4,0-7.3-3.3-7.3-7.3c0-1.3,0.3-2.6,1-3.7
	c0.4,0.3,0.7,0.7,0.9,1.1c-0.4,0.8-0.6,1.7-0.6,2.6c0,3.3,2.7,5.9,5.9,5.9s5.9-2.7,5.9-5.9s-2.7-5.9-5.9-5.9c-1.1,0-2.1,0.3-3,0.8
	c-0.3-0.3-0.6-0.7-0.9-1c1.2-0.8,2.5-1.2,3.9-1.2c4,0,7.3,3.3,7.3,7.3S71.2,109,67.2,109z M58,84.3V82c0-0.3-0.2-0.5-0.5-0.5
	S57,81.7,57,82v2.3c0,0.3,0.2,0.5,0.5,0.5S58,84.6,58,84.3z M63,87.1c0.1,0,0.3,0,0.4-0.1l1.6-1.6c0.2-0.2,0.2-0.5,0-0.7
	c-0.2-0.2-0.5-0.2-0.7,0l-1.6,1.6c-0.2,0.2-0.2,0.5,0,0.7C62.7,87,62.9,87.1,63,87.1z"/>
</svg>
