<?xml version="1.0" encoding="utf-8"?>
<svg version="1.1" id="Layer_1" xmlns="http://www.w3.org/2000/svg" xmlns:xlink="http://www.w3.org/1999/xlink" x="0px" y="0px" viewBox="0 0 28 26" style="enable-background:new 0 0 28 26;" xml:space="preserve">
<style type="text/css">
	.st0{fill:#c55f55;}
	.st1{fill:none;}
</style>
<g>
	<path class="st0" d="M21.9,5.8c0,1.1-0.8,1.8-1.4,2.3c-0.2,0.2-0.6,0.5-0.6,0.7c0,0.5-0.4,0.9-0.9,0.9h0c-0.5,0-0.9-0.4-0.9-0.9
		c0-1,0.7-1.6,1.3-2.1C19.7,6.3,20,6,20,5.8c0-0.5-0.4-0.9-0.9-0.9c-0.5,0-0.9,0.4-0.9,0.9c0,0.5-0.4,0.9-0.9,0.9
		c-0.5,0-0.9-0.4-0.9-0.9c0-1.5,1.2-2.7,2.7-2.7C20.6,3,21.9,4.3,21.9,5.8L21.9,5.8z"/>
	<path class="st0" d="M18.9,10.4c-0.5,0-0.9,0.4-0.9,0.9v0c0,0.5,0.4,0.9,0.9,0.9c0.5,0,0.9-0.4,0.9-0.9
		C19.8,10.9,19.4,10.4,18.9,10.4L18.9,10.4z"/>
</g>
<g>
	<path class="st0" d="M5.5,15.4c-0.4,0-0.7,0.3-0.7,0.7c0,0.4,0.3,0.7,0.7,0.7h0.1c0.4,0,0.7-0.3,0.7-0.7C6.3,15.7,6,15.4,5.5,15.4
		L5.5,15.4z"/>
	<path class="st0" d="M7.9,15.4c-0.4,0-0.7,0.3-0.7,0.7c0,0.4,0.3,0.7,0.7,0.7h0.1c0.4,0,0.7-0.3,0.7-0.7
		C8.6,15.7,8.3,15.4,7.9,15.4L7.9,15.4z"/>
</g>
<path class="st1" d="M24.3,2.1H14c-1,0-1.9,0.8-1.9,1.9v11.5l1.3-1.2c0.1-0.1,0.1-0.1,0.2-0.2c0.6-0.6,0.8-0.7,1.6-0.6
	c0.1,0,0.2,0,0.4,0h8.7c1,0,1.9-0.8,1.9-1.9V4C26.2,2.9,25.3,2.1,24.3,2.1z"/>
<path class="st0" d="M24.3,0.7H14c-1.8,0-3.3,1.4-3.3,3.2v4.5h-7c-1.8,0-3.3,1.5-3.3,3.2v7.5c0,1.8,1.5,3.2,3.3,3.2h9.5l2.9,2.7
	c0.1,0.1,0.3,0.2,0.5,0.2c0.1,0,0.2,0,0.3-0.1c0.2-0.1,0.4-0.3,0.4-0.6v-7.9c0-0.4-0.3-0.7-0.7-0.7c-0.4,0-0.7,0.3-0.7,0.7v6.4
	l-2-1.8c-0.1-0.1-0.3-0.2-0.4-0.2H3.7c-1,0-1.9-0.8-1.9-1.9v-7.5c0-1,0.9-1.9,1.9-1.9h7v7.1c0,0.3,0.2,0.5,0.4,0.6
	c0.2,0.1,0.5,0.1,0.7-0.1l0.8-0.7l1.7-1.5c0.1-0.1,0.1-0.1,0.2-0.2c0.1-0.1,0.3-0.2,0.3-0.3c0.1,0,0.2,0,0.3,0c0.1,0,0.3,0,0.4,0
	h8.7c1.8,0,3.2-1.5,3.2-3.2V4C27.5,2.2,26.1,0.7,24.3,0.7z M26.2,11.5c0,1-0.8,1.9-1.9,1.9h-8.7c-0.2,0-0.3,0-0.4,0
	c-0.8,0-1,0.1-1.6,0.6c-0.1,0-0.1,0.1-0.2,0.2l-1.3,1.2V4c0-1,0.9-1.9,1.9-1.9h10.3c1,0,1.9,0.8,1.9,1.9V11.5z"/>
</svg>
