<?xml version="1.0" encoding="utf-8"?>
<!-- Generator: Adobe Illustrator 20.1.0, SVG Export Plug-In . SVG Version: 6.00 Build 0)  -->
<svg version="1.1" id="Layer_1" xmlns="http://www.w3.org/2000/svg" xmlns:xlink="http://www.w3.org/1999/xlink" x="0px" y="0px"
	 viewBox="0 0 18 19" style="enable-background:new 0 0 18 19;" xml:space="preserve">
<style type="text/css">
	.st0{fill:#c55f55;stroke:#c55f55;stroke-width:0.4826;stroke-miterlimit:10;}
</style>
<path class="st0" d="M17.5,1.2c0-0.2-0.2-0.4-0.4-0.4H0.9C0.7,0.8,0.6,1,0.6,1.2v2c0,0.1,0,0.2,0.1,0.2v0l0,0c0,0,0,0,0,0l6.7,6.8
	v5.8c0,0.1,0,0.2,0.1,0.3l2.5,2c0.1,0.1,0.1,0.1,0.2,0.1c0.1,0,0.1,0,0.2,0c0.1-0.1,0.2-0.2,0.2-0.3v-7.9l6.7-6.8c0,0,0,0,0,0l0,0v0
	c0.1-0.1,0.1-0.2,0.1-0.2V1.2z M1.3,1.5h15.5v1.3H1.3V1.5z M9.9,17.4l-1.8-1.5v-5.5h1.8V17.4z M10.1,9.8H7.9L1.8,3.6h14.5L10.1,9.8z
	"/>
</svg>
