<?xml version="1.0" encoding="utf-8"?>
<!-- Generator: Adobe Illustrator 20.1.0, SVG Export Plug-In . SVG Version: 6.00 Build 0)  -->
<svg version="1.1" id="Layer_1" xmlns="http://www.w3.org/2000/svg" xmlns:xlink="http://www.w3.org/1999/xlink" x="0px" y="0px"
	 viewBox="0 0 15 15" style="enable-background:new 0 0 15 15;" xml:space="preserve">
<style type="text/css">
	.st0{fill:#C55F55;}
</style>
<g>
	<g>
		<path class="st0" d="M0.1,6c0-3.2,2.6-5.9,5.9-5.9l0,0c3.2,0,5.9,2.6,5.9,5.9l0,0c0,3.3-2.6,5.9-5.9,5.9l0,0
			C2.8,11.9,0.1,9.3,0.1,6L0.1,6z M0.9,6c0,2.8,2.3,5.1,5.1,5.1l0,0c2.8,0,5.1-2.3,5.1-5.1l0,0c0-2.8-2.3-5.1-5.1-5.1l0,0
			C3.2,0.9,0.9,3.2,0.9,6L0.9,6L0.9,6z"/>
	</g>
	<g>
		<polygon class="st0" points="9.7,10.2 10.2,9.7 14.9,14.4 14.4,14.9 9.7,10.2 		"/>
	</g>
</g>
</svg>
