<?xml version="1.0" encoding="utf-8"?>
<!-- Generator: Adobe Illustrator 20.1.0, SVG Export Plug-In . SVG Version: 6.00 Build 0)  -->
<svg version="1.1" id="Layer_1" xmlns="http://www.w3.org/2000/svg" xmlns:xlink="http://www.w3.org/1999/xlink" x="0px" y="0px"
	 viewBox="0 0 80 80" style="enable-background:new 0 0 80 80;" xml:space="preserve">
<style type="text/css">
	.st0{fill:#E99E99;}
	.st1{fill:#FFFFFF;}
</style>
<circle class="st0" cx="40.1" cy="39.9" r="39.9"/>
<path class="st1" d="M60.8,33.2l-0.2-0.1l0-5.8l0.3-0.1l-0.3,0c-0.1-0.2-0.1-0.3-0.3-0.3L44.2,16.5c-0.2-0.1-0.5-0.1-0.7,0l-16,10.3
	c-0.2,0.1-0.3,0.3-0.3,0.5s0.1,0.4,0.3,0.5l7.3,4.7v3.9c0,0.2,0.1,0.4,0.3,0.5c0.2,0.1,0.4,0.1,0.6,0.1c0.9-0.4,1.8-0.6,2.8-0.6
	c1.8,0,3.6,0.7,4.9,2c0.2,0.2,0.6,0.2,0.9,0c1.3-1.3,3.1-2,4.9-2c1,0,1.9,0.2,2.8,0.6c0.2,0.1,0.4,0.1,0.6-0.1
	c0.2-0.1,0.3-0.3,0.3-0.5v-3.8l6.4-4.1v4.6l-0.2,0.1c-0.7,0.3-1.1,1-1.1,1.8v5.3c0,0.3,0.3,0.6,0.6,0.6h2.7c0.3,0,0.6-0.3,0.6-0.6
	V35C61.9,34.2,61.5,33.5,60.8,33.2z M51.7,35.5l-0.4-0.1c-0.7-0.2-1.3-0.2-2-0.2c-1.9,0-3.7,0.6-5.2,1.8l-0.2,0.2l-0.2-0.2
	c-1.5-1.2-3.3-1.8-5.2-1.8c-0.7,0-1.4,0.1-2,0.3l-0.4,0.1v-5.3l0.2-0.1c1.2-0.5,4.3-1.7,7.7-1.7c3.3,0,6.4,1.2,7.6,1.7l0.2,0.1V35.5
	z M53,31.1v-1.3c0-0.2-0.1-0.4-0.3-0.5c-0.2-0.1-4.1-2.1-8.7-2.1c-4.6,0-8.6,2-8.8,2.1c-0.2,0.1-0.3,0.3-0.3,0.5v1.3L29,27.3
	l14.9-9.6l15,9.6L53,31.1z M60.7,39.7h-1.4V35c0-0.4,0.3-0.7,0.7-0.7c0.4,0,0.7,0.3,0.7,0.7V39.7z M29.3,52.1h-2.9
	c-0.3,0-0.6,0.3-0.6,0.6c0,0.3,0.3,0.6,0.6,0.6h2.9c0.3,0,0.6-0.3,0.6-0.6C29.9,52.4,29.7,52.1,29.3,52.1z M30.6,49.5h-5.5
	c-0.3,0-0.6,0.3-0.6,0.6c0,0.3,0.3,0.6,0.6,0.6h5.5c0.3,0,0.6-0.3,0.6-0.6C31.2,49.8,31,49.5,30.6,49.5z M48.8,38.6
	c-3.5,1.9-6.7,1.7-9.4,1.5C37.5,40,36,39.9,35,40.6c-1.1-0.7-2.6-0.6-4.5-0.5c-2.6,0.2-5.9,0.4-9.4-1.5c-0.2-0.1-0.4-0.1-0.6,0
	c-0.2,0.1-0.3,0.3-0.3,0.5v19c0,0.2,0.1,0.3,0.2,0.4c1,1.1,2.7,1,4.9,0.9c2.6-0.2,5.9-0.3,9.4,1.5C34.8,61,34.9,61,35,61
	c0.1,0,0.2,0,0.3-0.1c0,0,0,0,0,0c3.5-1.9,6.7-1.7,9.4-1.5c2.2,0.1,3.9,0.2,4.9-0.9c0.1-0.1,0.2-0.3,0.2-0.4v-19
	c0-0.2-0.1-0.4-0.3-0.5C49.2,38.5,49,38.5,48.8,38.6z M34.3,59.4c-2.4-1.1-4.6-1.3-6.6-1.3c-0.9,0-1.8,0.1-2.5,0.1
	c-1.7,0.1-3,0.2-3.8-0.3V40.1c3.4,1.6,6.7,1.4,9.1,1.2c1.7-0.1,3-0.2,3.8,0.3V59.4z M48.5,57.8c-0.7,0.5-2.1,0.4-3.8,0.3
	c-2.4-0.1-5.7-0.3-9.1,1.2V41.7c0.7-0.5,2.1-0.4,3.8-0.3c2.4,0.1,5.7,0.3,9.1-1.2V57.8z M48.6,60.3c-0.6,0.7-2.1,0.6-3.9,0.5
	c-2.6-0.2-6.1-0.4-9.8,1.5c-3.7-1.9-7.2-1.7-9.8-1.5c-1.8,0.1-3.3,0.2-3.9-0.5c-0.2-0.3-0.6-0.3-0.9,0c-0.3,0.2-0.3,0.6,0,0.9
	c1,1.1,2.7,1,4.9,0.9v3c0,0.2,0.1,0.4,0.3,0.5c0.1,0.1,0.2,0.1,0.3,0.1c0.1,0,0.2,0,0.3-0.1l1.7-0.9l1.7,0.9c0.2,0.1,0.4,0.1,0.6,0
	c0.2-0.1,0.3-0.3,0.3-0.5v-2.9c1.3,0.2,2.7,0.6,4.1,1.4c0.2,0.1,0.4,0.1,0.6,0c3.5-1.9,6.7-1.7,9.4-1.5c2.2,0.1,3.9,0.2,4.9-0.9
	c0.2-0.3,0.2-0.6,0-0.9C49.3,60.1,48.9,60.1,48.6,60.3z M29.3,64l-1.1-0.6c-0.2-0.1-0.4-0.1-0.6,0L26.5,64v-2c0.9,0,1.8,0,2.8,0V64z
	 M38.7,47.5c0,0.3,0.3,0.6,0.6,0.6h5.5c0.3,0,0.6-0.3,0.6-0.6c0-0.3-0.3-0.6-0.6-0.6h-5.5C38.9,46.9,38.7,47.1,38.7,47.5z
	 M44.8,49.5h-5.5c-0.3,0-0.6,0.3-0.6,0.6c0,0.3,0.3,0.6,0.6,0.6h5.5c0.3,0,0.6-0.3,0.6-0.6C45.4,49.8,45.1,49.5,44.8,49.5z
	 M30.6,46.9h-5.5c-0.3,0-0.6,0.3-0.6,0.6c0,0.3,0.3,0.6,0.6,0.6h5.5c0.3,0,0.6-0.3,0.6-0.6C31.2,47.1,31,46.9,30.6,46.9z M43.5,52.1
	h-2.9c-0.3,0-0.6,0.3-0.6,0.6c0,0.3,0.3,0.6,0.6,0.6h2.9c0.3,0,0.6-0.3,0.6-0.6C44.1,52.4,43.8,52.1,43.5,52.1z"/>
</svg>
