<?xml version="1.0" encoding="utf-8"?>
<!-- Generator: Adobe Illustrator 20.1.0, SVG Export Plug-In . SVG Version: 6.00 Build 0)  -->
<svg version="1.1" id="Layer_1" xmlns="http://www.w3.org/2000/svg" xmlns:xlink="http://www.w3.org/1999/xlink" x="0px" y="0px"
	 viewBox="0 0 27 27" style="enable-background:new 0 0 27 27;" xml:space="preserve">
<style type="text/css">
	.st0{fill:#C55F55;}
</style>
<g>
	<g>
		<path class="st0" d="M26.2,8.9L18.3,1C17.3,0,15.8,0,14.8,1L1,14.8C0,15.8,0,17.3,1,18.3l7.9,7.9c0.9,0.9,2.5,0.9,3.4,0l13.9-13.9
			C27.1,11.4,27.1,9.8,26.2,8.9z M10.3,25.2c-0.1,0-0.2-0.1-0.3-0.2l-7.9-7.9c0,0,0,0,0,0h8.2V25.2z M2.6,15.5L15.5,2.6l0,12.6
			c0,0.2-0.2,0.4-0.4,0.4L2.6,15.5z M11.9,24.3v-7.1h3.2c0.5,0,1-0.2,1.4-0.6s0.6-0.9,0.6-1.4v-3.2l7.1,0L11.9,24.3z M17.1,10.3V2.1
			c0,0,0,0,0,0L25,10c0.1,0.1,0.1,0.2,0.2,0.3L17.1,10.3z M1,3.7h8.3c0.4,0,0.8-0.4,0.8-0.8c0-0.4-0.4-0.8-0.8-0.8H1
			c-0.4,0-0.8,0.4-0.8,0.8C0.3,3.3,0.6,3.7,1,3.7z M1,6.8h5.2C6.7,6.8,7,6.4,7,6c0-0.4-0.4-0.8-0.8-0.8H1C0.6,5.2,0.3,5.6,0.3,6
			C0.3,6.4,0.6,6.8,1,6.8z M1,9.8h3.4c0.4,0,0.8-0.4,0.8-0.8c0-0.4-0.4-0.8-0.8-0.8H1C0.6,8.2,0.3,8.6,0.3,9C0.3,9.4,0.6,9.8,1,9.8z
			 M4.4,24.3H1c-0.4,0-0.8,0.4-0.8,0.8c0,0.4,0.4,0.8,0.8,0.8h3.4c0.4,0,0.8-0.4,0.8-0.8C5.2,24.7,4.8,24.3,4.4,24.3z"/>
	</g>
</g>
</svg>
