<?xml version="1.0" encoding="utf-8"?>
<svg version="1.1" xmlns="http://www.w3.org/2000/svg" xmlns:xlink="http://www.w3.org/1999/xlink" x="0px"
	 y="0px" viewBox="0 0 24 24" style="enable-background:new 0 0 24 24;" xml:space="preserve">
<style type="text/css">.st0{fill:#F69998;}</style>
<path class="st0" d="M21.1,9.1H3.3c-1.2,0-2.2,1-2.2,2.2l0,10.2c0,1.2,1,2.2,2.2,2.2h17.9c1.2,0,2.2-1,2.2-2.2V11.3
	C23.3,10.1,22.3,9.1,21.1,9.1zM20.5,10.5l-8.1,8.1c-0.1,0.1-0.3,0.1-0.5,0l-8.1-8.1L20.5,10.5zM2.6,21.8c0-0.1-0.1-0.2-0.1-0.3l0-10.2c0,0,0,0,0,0l5.3,5.3L2.6,21.8zM4.3,22.2l4.6-4.6l2.1,2.1c0.3,0.3,0.8,0.5,1.3,0.5c0.5,0,0.9-0.2,1.3-0.5l2.1-2.1l4.6,4.6L4.3,22.2zM21.8,21.4c0,0.1,0,0.2-0.1,0.3l-5.2-5.2l5.3-5.3c0,0,0,0,0,0L21.8,21.4zM20.5,6.8c0.3,0.3,0.7,0.3,1,0
	c0.3-0.3,0.3-0.7,0-1l-5.3-5.3c-0.3-0.3-0.7-0.3-1,0c-0.3,0.3-0.3,0.7,0,1L20.5,6.8zM16.5,6.8c0.3,0.3,0.7,0.3,1,0
	c0.3-0.3,0.3-0.7,0-1l-3.3-3.3c-0.3-0.3-0.7-0.3-1,0c-0.3,0.3-0.3,0.7,0,1L16.5,6.8zM13.4,7.6c0.3,0.3,0.7,0.3,1,0
	c0.3-0.3,0.3-0.7,0-1l-2.2-2.2c-0.3-0.3-0.7-0.3-1,0c-0.3,0.3-0.3,0.7,0,1L13.4,7.6z M5.7,8.4c0.3,0.3,0.7,0.3,1,0
	c0.3-0.3,0.3-0.7,0-1L4.5,5.3C4.3,5,3.8,5,3.5,5.3c-0.3,0.3-0.3,0.7,0,1L5.7,8.4z"/>
</svg>
