<?xml version="1.0" encoding="utf-8"?>
<svg version="1.1" id="Layer_1" xmlns="http://www.w3.org/2000/svg" xmlns:xlink="http://www.w3.org/1999/xlink" x="0px" y="0px" viewBox="0 0 30 30" style="enable-background:new 0 0 30 30;" xml:space="preserve">
<style type="text/css">
	.st0{fill:#664B51;}
	.st1{fill:#FFFFFF;font-family:'OpenSans';font-size:9px;}
</style>
<polygon class="st0" points="30,10.9 26.6,9.1 25.8,8.7 25.8,7.8 26,3.9 22.1,4.1 21.2,4.2 20.8,3.3 19,-0.1 15.8,2 15,2.5 14.2,2 11,-0.1 9.2,3.3 8.8,4.2 7.9,4.1 4,3.9 4.2,7.8 4.3,8.7 3.5,9.1 0,10.9 2.1,14.1 2.6,14.9 2.1,15.7 0,18.9 3.5,20.7 4.3,21.1 4.2,22 4,25.9 8.8,25.7 9.2,26.5 11,29.9 14.2,27.8 15,27.3 15.8,27.8 19,29.9 20.8,26.5 21.2,25.7 22.1,25.7 26,25.9 25.8,22 25.8,21.1 26.6,20.7 30,18.9 27.9,15.7 27.4,14.9 27.9,14.1 "/>
<text transform="matrix(1 0 0 1 5.3125 17.6875)" class="st1">New</text>
</svg>
