<?xml version="1.0" encoding="utf-8"?>
<svg version="1.1" xmlns="http://www.w3.org/2000/svg" xmlns:xlink="http://www.w3.org/1999/xlink" x="0px" y="0px"
	 viewBox="0 0 80 80" style="enable-background:new 0 0 80 80;" xml:space="preserve">
<style type="text/css">
	.st0{fill:#F69998;}
	.st1{fill:#FFFFFF;}
	.st3{font-size:11px;}
</style>
<circle class="st0" cx="40" cy="40" r="40"/>
<path class="st1" d="M62.3,45.7h-1.5v2.4h1.5V45.7z M62.3,49h-1.5v1.6h-6.1V52h7.6V49z M27.2,27.2h-6.9v1.5h6.9V27.2z M48.9,24
	L48.9,24l-3.3-5.6h-9.8L32.6,24h-4.7v-2.8h-8.4V24h-3v30.7H65V24H48.9z M36.7,19.9h8.1l2.4,4.1H34.3L36.7,19.9z M21,22.7h5.4V24H21
	V22.7z M63.5,53.2H18V34.1h11.7c-0.1,0.1-0.1,0.2-0.1,0.3c0,0,0,0.1,0,0.1c0,0.1-0.1,0.2-0.1,0.3c0,0,0,0.1,0,0.1
	c0,0.1-0.1,0.2-0.1,0.2c0,0,0,0.1,0,0.1c0,0.1-0.1,0.2-0.1,0.3c0,0,0,0.1,0,0.1c0,0.1-0.1,0.2-0.1,0.4c0,0,0,0.1,0,0.1
	c0,0.1-0.1,0.2-0.1,0.3c0,0,0,0.1,0,0.1c0,0.1,0,0.2-0.1,0.2c0,0,0,0.1,0,0.1c0,0.1,0,0.2-0.1,0.3c0,0,0,0.1,0,0.1
	c0,0.1,0,0.3-0.1,0.4c0,0,0,0,0,0.1c0,0.1,0,0.2,0,0.3c0,0,0,0.1,0,0.1c0,0.1,0,0.2,0,0.3c0,0,0,0.1,0,0.1c0,0.1,0,0.2,0,0.3
	c0,0,0,0.1,0,0.1c0,0.1,0,0.3,0,0.4c0,6.7,5.5,12.2,12.2,12.2c6.7,0,12.2-5.5,12.2-12.2c0-0.1,0-0.3,0-0.4c0,0,0-0.1,0-0.1
	c0-0.1,0-0.2,0-0.3c0,0,0-0.1,0-0.1c0-0.1,0-0.2,0-0.3c0,0,0-0.1,0-0.1c0-0.1,0-0.2,0-0.3c0,0,0,0,0-0.1c0-0.1,0-0.3-0.1-0.4
	c0,0,0-0.1,0-0.1c0-0.1,0-0.2-0.1-0.3c0,0,0-0.1,0-0.1c0-0.1,0-0.2-0.1-0.2c0,0,0-0.1,0-0.1c0-0.1,0-0.2-0.1-0.3c0,0,0-0.1,0-0.1
	c0-0.1-0.1-0.2-0.1-0.4c0,0,0-0.1,0-0.1c0-0.1-0.1-0.2-0.1-0.3c0,0,0-0.1,0-0.1c0-0.1-0.1-0.2-0.1-0.2c0,0,0-0.1,0-0.1
	c0-0.1-0.1-0.2-0.1-0.3c0,0,0-0.1,0-0.1c0-0.1-0.1-0.2-0.1-0.3h11.7V53.2z M30.1,39.4c0-2,0.5-3.9,1.6-5.6c1.6-2.6,4.1-4.4,7.1-4.9
	c0.7-0.1,1.4-0.2,2.1-0.2c0.7,0,1.4,0.1,2.1,0.2c2.9,0.6,5.5,2.3,7.1,4.9c1,1.7,1.6,3.6,1.6,5.6c0,5.9-4.8,10.7-10.7,10.7
	c-5.3,0-9.8-3.9-10.6-9.1C30.1,40.4,30.1,39.9,30.1,39.4z M63.5,32.7H50.9v0c0-0.1-0.1-0.1-0.1-0.2c0,0,0-0.1-0.1-0.1
	c-0.1-0.1-0.1-0.2-0.2-0.3c0,0,0-0.1-0.1-0.1c-0.1-0.1-0.1-0.1-0.2-0.2c0,0-0.1-0.1-0.1-0.1c0-0.1-0.1-0.1-0.1-0.2
	c0,0-0.1-0.1-0.1-0.1c0-0.1-0.1-0.1-0.1-0.2c0,0-0.1-0.1-0.1-0.1c0-0.1-0.1-0.1-0.1-0.2c0,0-0.1-0.1-0.1-0.1c0,0-0.1-0.1-0.1-0.1
	c0,0-0.1-0.1-0.1-0.1c0,0-0.1-0.1-0.1-0.1c0,0-0.1-0.1-0.1-0.1c-0.1,0-0.1-0.1-0.2-0.1c0,0-0.1-0.1-0.1-0.1c-0.1,0-0.1-0.1-0.2-0.1
	c0,0-0.1-0.1-0.1-0.1c-0.1,0-0.1-0.1-0.2-0.1c0,0-0.1-0.1-0.1-0.1c-0.1,0-0.1-0.1-0.2-0.1c0,0-0.1-0.1-0.1-0.1
	c-0.1,0-0.1-0.1-0.2-0.1c0,0-0.1-0.1-0.1-0.1c-0.1,0-0.1-0.1-0.2-0.1c0,0-0.1,0-0.1-0.1c-0.1-0.1-0.2-0.1-0.3-0.2
	c-1.8-1.1-3.9-1.6-6.1-1.6c-2.1,0-4.2,0.6-6.1,1.6c-0.1,0.1-0.2,0.1-0.3,0.2c0,0-0.1,0-0.1,0.1c-0.1,0-0.1,0.1-0.2,0.1
	c0,0-0.1,0.1-0.1,0.1c-0.1,0-0.1,0.1-0.2,0.1c0,0-0.1,0.1-0.1,0.1c-0.1,0-0.1,0.1-0.2,0.1c0,0-0.1,0.1-0.1,0.1
	c-0.1,0-0.1,0.1-0.2,0.1c0,0-0.1,0.1-0.1,0.1c-0.1,0-0.1,0.1-0.2,0.1c0,0-0.1,0.1-0.1,0.1c-0.1,0-0.1,0.1-0.2,0.1
	c0,0-0.1,0.1-0.1,0.1c0,0-0.1,0.1-0.1,0.1c0,0-0.1,0.1-0.1,0.1c0,0-0.1,0.1-0.1,0.1c0,0-0.1,0.1-0.1,0.1c0,0.1-0.1,0.1-0.1,0.2
	c0,0-0.1,0.1-0.1,0.1c0,0.1-0.1,0.1-0.1,0.2c0,0-0.1,0.1-0.1,0.1c0,0.1-0.1,0.1-0.1,0.2c0,0-0.1,0.1-0.1,0.1
	c-0.1,0.1-0.1,0.1-0.2,0.2c0,0,0,0.1-0.1,0.1c-0.1,0.1-0.1,0.2-0.2,0.3c0,0,0,0-0.1,0.1c0,0.1-0.1,0.1-0.1,0.2H18v-7.2h45.5V32.7z
	 M61.6,27.2h-4.5v3.7h4.5V27.2z M60.1,29.4h-1.5v-0.7h1.5V29.4z M33.7,40.3c1,2,6,6.2,6.6,6.7l0.5,0.4l0.5-0.4
	c0.6-0.5,5.7-4.7,6.6-6.7l0-0.1c0.2-0.5,0.6-1.2,0.6-2.2c0-2.5-2-4.4-4.4-4.4c-1.3,0-2.4,0.5-3.3,1.4c-0.8-0.9-2-1.4-3.3-1.4
	c-1.2,0-2.3,0.5-3.1,1.3c-0.8,0.8-1.3,1.9-1.3,3.1C33.1,39.1,33.4,39.8,33.7,40.3L33.7,40.3z M37.5,35c1.1,0,2.1,0.6,2.6,1.6
	l0.7,1.3l0.7-1.3c0.5-1,1.5-1.6,2.6-1.6c1.6,0,2.9,1.3,2.9,3c0,0.7-0.2,1.2-0.4,1.6l0,0.1c-0.1,0.1-0.1,0.3-0.2,0.4
	c-0.1,0.2-0.3,0.4-0.5,0.7c-0.1,0.1-0.1,0.2-0.2,0.2c-0.1,0.2-0.3,0.3-0.5,0.5c-0.2,0.2-0.4,0.4-0.6,0.6c0,0,0,0,0,0
	c-1.2,1.2-2.7,2.5-3.7,3.4c-1.7-1.4-4.9-4.3-5.7-5.7c0,0,0-0.1-0.1-0.1l0,0c-0.2-0.4-0.4-0.8-0.4-1.6C34.6,36.3,35.8,35,37.5,35z
	 M24.5,12.2H23v5.3h1.5V12.2z M32.5,14.4l-1.4-0.6l-2.2,4.8l1.4,0.6L32.5,14.4z M18.6,18.5l-2.2-4.8L15,14.4l2.2,4.8L18.6,18.5z"/>
<text transform="matrix(1 0 0 1 15.9953 66.75)" class="st1 st2 st3">User Photo</text>
</svg>
