<?xml version="1.0" encoding="utf-8"?>
<!-- Generator: Adobe Illustrator 20.1.0, SVG Export Plug-In . SVG Version: 6.00 Build 0)  -->
<svg version="1.1" id="Layer_1" xmlns="http://www.w3.org/2000/svg" xmlns:xlink="http://www.w3.org/1999/xlink" x="0px" y="0px"
	 viewBox="0 0 50 76" style="enable-background:new 0 0 50 76;" xml:space="preserve">
<style type="text/css">
	.st0{fill:#F59897;}
</style>
<g>
	<path class="st0" d="M39.9,20.3c-0.2,0-0.4,0.1-0.6,0.1c0.5-0.8,0.7-1.7,0.8-2.7c0-1.1-1.7-1.7-2.2-0.6c-0.3,0.6-0.6,1.2-1,1.8
		c-0.1,0.1-0.2,0.2-0.2,0.3c-0.3-0.6-0.8-1.2-1.5-1.5c-0.6-0.9-1.8-1.6-2.8-1.4c-0.5,0.1-1,0.4-1.4,0.7c0-0.2,0-0.3,0-0.5
		c1.5-0.2,2.6-1.3,3-2.8c0.1-0.4-0.3-1.1-0.8-1c-1.1,0.1-2.3,0.6-3.1,1.4c0-0.4-0.1-0.8-0.1-1.1c0-1,0-1.9-0.2-2.9
		c-0.1-0.8-1.1-0.7-1.5-0.2c-0.9,1.2-1.2,2.8-1.4,4.3c0,0.1,0,0.2,0,0.3c-0.2,0.1-0.4,0.1-0.5,0.2c-0.8,0.3-1.4,0.8-1.9,1.4
		c0,0,0,0.1-0.1,0.1c-0.6-0.6-1.3-0.9-2.1-0.8c-1.9,0.1-3.3,1.8-4,3.4c-0.6,1.6-0.1,3.6,0.9,4.9c0.9,1,2.3,1.2,3.5,1
		c1.9-0.3,4.4-2.2,4.5-4.4c0.5,0,1-0.2,1.4-0.4c-0.3,1.2-0.1,2.4,0.6,3.6c0.8,1.3,2.1,1.8,3.4,1.6c-2.4,1.3-2.2,4.2-0.3,6.1
		c2.3,2.3,5.7,2.1,7-1c0.8-1.8,0.4-3.5-0.9-4.9c-1.2-1.3-3.6-1.5-4.7,0.1c-0.7,1.1-0.4,2.9,1,3.4c1.7,0.6,2.2-1.2,2.2-2.5
		c0-0.3-0.5-0.4-0.5-0.1c-0.2,0.7-0.7,2.2-1.4,1.1c-0.8-1.1,0.7-2,1.7-1.7c2.7,0.6,2.2,4.5,0.2,5.6c-1.4,0.7-3.1-0.6-3.9-1.6
		c-1.2-1.4-1-3,0.6-4c0.3-0.2,0.2-0.6,0-0.8c0.7-0.3,1.4-0.7,2-1.2c0.4-0.3,0.6-0.7,0.8-1.1c1,0.1,2,0,2.9-0.2c0.3,0,0.7-0.1,1-0.2
		C41.8,22.1,41.2,19.9,39.9,20.3z M24.8,22.1c-1,1-3,1.9-4.3,0.8c-1.8-1.7-0.6-5.9,2-6c1.3,0,1.8,2.1,1,2.9
		c-0.2,0.2-0.5,0.4-0.7,0.3c-0.2,0,0-0.6,0.1-0.9c0.1-0.5-0.5-0.8-0.8-0.5c-1,1-1.1,2.7,0.6,2.9c1.3,0.2,2.2-0.8,2.6-1.9
		c0.1,0.1,0.2,0.1,0.2,0.2C25.8,20.6,25.5,21.3,24.8,22.1z M29.4,16.9c-0.2,1-0.9,1.8-1.9,2.1c-0.2,0-0.4,0-0.6,0
		c-0.3-0.5-0.8-1-1.3-1.3c-0.1-0.6,0.2-1.1,0.9-1.5c0.2-0.1,0.4-0.2,0.7-0.3c0,0,0.1,0,0.1,0c0.1,0.1,0.1,0.3,0.1,0.4
		c0.1,0.2,0.1,0.3,0.1,0.5c-0.1,0-0.3-0.1-0.4-0.1c-0.4-0.2-0.9,0.3-0.5,0.7c0.6,0.7,1.7,1.1,2.1-0.1c0.1-0.4,0.1-0.9-0.1-1.4
		C29.2,15.9,29.6,16.2,29.4,16.9z M31.6,23.8c-0.8-0.2-1.2-1-1.5-1.7c-0.4-1-0.1-2,0.5-2.9c0.5-0.8,1.3-1.7,2.3-1.7
		c0.6,0,1.1,0.7,1.3,1.2c0.5,1.1-1.1,1.5-1.8,1.4C31.7,20,31.4,20.8,32,21c1.4,0.4,2.9-0.1,3.3-1.4c0.4,0.9,0.4,1.7-0.2,2.7
		C34.3,23.4,32.9,24.2,31.6,23.8z"/>
	<path class="st0" d="M49.2,37.3c-0.7,0.1-1.3-0.1-2-0.3c-0.5-0.2-0.9-0.5-1.5-0.7c-0.1,0-0.1,0-0.2,0c0-0.2,0.1-0.3,0.1-0.5
		c0.2-1.5-0.4-2.7-1.3-3.5c0.1-0.1,0.2-0.1,0.3-0.2c1-0.9,1.8-2,2.5-3c0.4-0.6,0-1.5-0.7-1.7C46.7,16.2,41.8,2.2,29,0.9
		C21.4,0.1,14.3,2.2,9.1,7.9c-3.6,4.1-7.5,10.8-6,16.5c0,0.1-0.1,0.1-0.1,0.2c-0.3,1.2-0.3,2.5,0,3.7c-0.6-0.1-1.2-0.1-1.9-0.1
		c-0.9,0.1-1.3,1-0.7,1.7c1.1,1.2,2.8,1.8,4.3,1.2c0.6,0.2,1.2-0.3,1.2-0.9c0.1,0,0.1,0,0.2-0.1c0,0.1,0,0.1,0,0.2c0,0,0,0,0,0
		c-0.6,1.2-0.3,2.7,0.6,3.8c1,1.3,2.9,1.4,4.4,1.1c0.5-0.1,0.9-0.3,1.3-0.5c-0.2,0.3-0.4,0.7-0.6,1c-0.3,0.6-0.3,1.3-0.1,1.8
		c-1-0.5-2.2-0.7-3.1-0.2c-0.1-0.1-0.2-0.1-0.4-0.1c-1,0.2-1.8,0.6-2.4,1.2C5,36.9,3.2,36,1.4,36.3c-0.6,0.1-1,0.9-0.8,1.4
		c0.4,1,1.1,1.9,2.2,2.3c-0.8,0.9-1.3,2.1-1.5,3.4c-0.2,0.9,0.9,1.8,1.7,1C3.5,43.6,4,42.8,4.3,42c0.2-0.5,0.5-1.2,0.6-1.8
		c0,0,0,0,0,0c-0.3,1-0.1,2.1,0.7,3.2c1.4,1.8,4.3,3.4,6.6,2.6c-0.4,2.1,1.2,3.8,3.1,4.5c0.9,0.3,1.6-0.8,1.2-1.5
		c-0.4-0.8-0.9-1.5-1.3-2.3c0.6,0.1,1.1,0.3,1.7,0.7c1,0.6,2-0.5,1.5-1.5c-0.8-1.5-2.1-2.9-3.9-3.1c0,0,0-0.1,0-0.1
		c0.1-1.1-0.1-2.1-0.7-3c0.4,0.1,0.7,0.1,1.1,0.1c0.3,0,0.4-0.3,0.4-0.5c0.7,0.7,1.6,1,2.7,0.7c0.5-0.1,1-0.4,1.4-0.7
		c0,0,0,0.1,0,0.1c0.2,1.1,1.1,2,2,2.5c0.1,0,0.2,0.1,0.3,0.1c-0.2,0.1-0.4,0.2-0.6,0.3c-0.9,0.7-1.5,1.7-1.8,2.8
		c-0.2,0.8,0.6,1.7,1.4,1.4c0.8-0.3,1.5-0.8,2.1-1.4c0,0.8-0.1,1.7-0.5,2.5c-0.4,1,1,2,1.8,1.4c1.3-0.9,2.1-2,2.6-3.5
		c0.3-1.1,0.4-3.3-0.8-3.9c-0.1,0-0.1,0-0.2-0.1c0.1-0.1,0.3-0.2,0.4-0.3c0.6,1.2,2,1.9,3.6,2.2c-2.1,0.8-3.8,3.1-2,5.1
		c0.5,0.5,1.1,0.9,1.8,1c0,0.2,0.1,0.4,0.2,0.5c0.8,0.6,1.7,0.7,2.4,0.6c-3.8,7-2.1,16.4,1.1,23.6c-3.3,0.2-6.6,0.4-9.9,0.5
		c-1.9,0.1-3.8,0-5.6,0c-1.6,0,0.4-5,0.5-5.8c1.5-6.7,1.1-12.3-2.8-18.1c-0.1-0.1-0.3,0-0.2,0.1c4.6,7.6,1.2,16.1,0,24.1
		c-0.1,0.4,0.2,0.8,0.6,0.8c6.2,0.5,12.4,0.1,18.6-0.1c0.6,0,0.9-0.6,0.7-1.2c-3.5-7.9-6.1-19.6,0.6-26.6c1.4,1.3,4,2,5.2,0.5
		c0.7-0.8,0.9-2.1,0.6-3.2c0.2,0.1,0.4,0,0.4-0.3c0.1-2.5-2.3-3.8-4.5-3c-2,0.7-3.7,2.8-2.7,4.9c0,0,0,0.1,0,0.1
		c-0.1,0.1-0.2,0.3-0.3,0.4c0-1.7-0.9-3.4-2.4-4c1.5-0.6,2.6-2.1,2.9-3.7c0-0.2,0-0.4,0.1-0.6c0.1-0.1,0.2-0.1,0.2-0.2
		c1.1-2.6-0.4-6.3-3.5-5.7c-2,0.4-3.8,2.1-5,3.9c-0.2-0.7-0.6-1.3-1.2-1.8c-1-1-2.9-1.7-4-0.6c-0.4,0.3-0.6,0.8-0.8,1.2
		c0-1.1-0.2-2.1-0.7-2.8c1.3-0.3,2.5-1.1,3-2.4c0.1,0.1,0.1,0.2,0.2,0.3c1.5,1.8,4.7,2.6,6.3,0.6c2.1-2.5,0.8-7.1-2.7-7.2
		c-0.7,0-1.3,0.3-1.7,0.8c-0.1-0.1-0.2-0.2-0.3-0.2c-1,0-2,1-2.4,2c-1-1.1-2.5-1.7-3.9-1c0.4-1.4-0.3-2.9-1.5-4.1
		c-1.3-1.3-3.4-1.4-4.8-0.4c-0.7,0.5-1.1,1.2-1.2,1.9c-1.1,0.3-1.7,2.1-1.7,3.1c0,0.4,0.2,0.7,0.3,1c-0.5-0.2-0.9-0.4-1.4-0.4
		c-0.4,0-0.8,0.1-1.1,0.2c0-0.1,0-0.1,0-0.2c-2.5-11,8.1-21,18.6-21.5C36.7,4.9,42.3,16,42.6,25.5c0,0-0.1,0-0.1,0.1
		c-2.1,1.2-2.7,3.7-1.3,5.7c0,0,0,0.1,0,0.1c0,0.1,0,0.1,0,0.2c0,0-0.1,0-0.1,0c-1.1,0.2-2,0.7-2.6,1.7c-0.5,1-0.4,2.5,0.4,3.3
		c0,0.4,0.1,0.9,0.3,1.2c0.6,1.2,2.2,1.8,3.5,1.6c0.1,0,0.1,0,0.2-0.1c0,0.1,0,0.1,0,0.2c0,0.1,0.1,0.2,0.2,0.4
		c0.4,1.4,1.7,2.3,3.1,2.6c0.3,0.2,0.6,0.2,0.9,0.1c0.1,0,0.2,0,0.3,0c1.3-0.1,1.2-1.8,0-2c0,0-0.1,0-0.1,0
		c-0.2-0.3-0.3-0.5-0.5-0.7c0.9,0.1,1.9-0.1,2.7-0.4C50.4,38.9,50.4,37.3,49.2,37.3z M37.5,43.1c0.7-0.4,1.5-0.7,2.3-0.5
		c0.9,0.2,1.2,0.9,1.5,1.6c-0.1-0.2-0.3-0.3-0.5-0.4c-1.1-0.6-2.1,0.4-2.6,1.3c-0.3,0.6,0.4,1.2,0.9,0.7c0.3-0.3,0.5-0.6,0.9-0.8
		c0.2-0.1,0.2,0,0.2,0c0.3,0.3,0.4,0.9,0.4,1.4c0,2.1-2.3,1.2-3.4,0.6C35.3,45.8,36,44,37.5,43.1z M33.5,47.5c0,0.6-0.3,1.3-0.8,1.7
		c-0.5,0.3-1,0.3-1.5,0.1c0.8-0.4,0.9-1.5,0.8-2.3c0-0.3-0.1-0.5-0.2-0.7c-0.2-0.5-0.9-0.3-0.8,0.2c0.1,0.6,0.3,1.6-0.5,1.6
		c-0.6,0-1.2-0.3-1.6-0.7c-1.5-1.5,1.4-3.2,2.7-3.2C33.1,44.1,33.6,46.3,33.5,47.5z M31.5,34.5c0.7-0.3,1.6-0.5,2.3,0.2
		c0.5,0.5,0.7,1.2,0.7,1.9C33.9,35.8,33,35.3,32,35c-0.6-0.2-1.1-0.1-1.6,0.1C30.8,34.8,31.1,34.6,31.5,34.5z M27.3,39.4
		c0.2-1.3,1.1-2.6,2.2-3.6c-0.4,0.5-0.6,1.1-0.6,1.7c0.1,1.7,1.8,2,2.9,1.1c0.2-0.2,0-0.6-0.3-0.5c-1.7,0.7-1.6-1.7-0.4-1.9
		c1-0.1,2.1,0.6,2.6,1.5c0.5,1,0.1,2.2-0.5,3.1C32,42.8,26.8,42.4,27.3,39.4z M21,38c0.1,0.3,0.3,0.6,0.6,0.8
		c1.4,1.2,2.9,0.1,2.9-1.5c0-0.5-0.7-0.6-0.8-0.1c-0.4,1.1-1.3,0.4-1.4-0.5c0-1.1,0.8-1.6,1.7-1.1c1.6,0.8,2.5,3.2,1.1,4.6
		c-0.9,0.9-2.5,0.5-3.5-0.1c-0.5-0.3-0.8-0.8-0.8-1.4C20.9,38.5,21,38.2,21,38z M23.6,27.6c0.1-0.6,0.5-1,0.9-1.4
		c-0.2,0.5-0.2,1-0.2,1.5c0.1,0.8,0.5,1.4,1.3,1.6c0.6,0.2,1.4-0.1,1.7-0.6c0.2-0.4,0.3-0.9,0.2-1.4c0-0.3-0.5-0.3-0.6,0
		c-0.1,0.2-0.5,1.1-0.8,0.6c-0.3-0.5-0.2-1.3,0.1-1.8c0.4-0.9,1.6-0.6,2.2-0.1c1.4,1.1,1.3,4.2-0.6,4.8c-1.3,0.4-2.9-0.6-3.7-1.6
		C23.7,28.9,23.5,28.2,23.6,27.6z M16,32c-1,0.4-1.9,1-2.7,1.7c0.5-1.5-0.5-3.7-1.9-5.2c1.2,0.4,2.5,0.3,3.7,0
		C14.7,29.8,15,31.1,16,32z M13.1,42.9c-0.3,0.2-0.4,0.6-0.4,0.9c-0.3,0.4-0.7,0.7-1.2,0.8c-1.7,0.4-3.6-1-4.6-2.2
		c-1.1-1.3-0.6-2.4,0.4-3.2c-0.4,1.3,0.1,2.7,1.4,3.4c1.7,0.9,2.7-0.8,2.2-2.3c-0.2-0.6-1-0.3-0.9,0.3c0.1,0.5,0.1,1.1-0.6,0.8
		c-0.6-0.3-0.9-0.9-0.8-1.5c0.3-1.7,2-1.3,3.1-0.6C12.7,39.9,13.3,41.6,13.1,42.9z M19,37.8c-1.1,1.3-2.9,0.9-3.3-0.7
		c-0.4-1.3,1.6-2,1.2-0.4c-0.1,0.3,0.3,0.4,0.4,0.3c0.9-0.9,0.5-2.2-0.8-2.3c-1.5-0.1-2.4,1.5-2.1,2.8c0.1,0.4,0.2,0.7,0.4,1
		c-0.7-0.3-1.4-0.4-1.8-1.1c-0.3-0.6,0.2-1.3,0.5-1.8c0.9-1.4,2.6-2.6,4.3-2.7c0.2,0.1,0.4,0.1,0.7,0.1C20.1,33.6,20,36.7,19,37.8z
		 M20.6,27.4c-0.1-0.4-0.7-0.3-0.7,0.1c0,0.7-0.3,1.3-1,1.5c-0.6,0.2-0.7-0.2-0.6-0.8c0.2-1.2,1.3-1.6,2.4-1.3
		c1.8,0.5,1.9,3.2,0.5,4.2c-1.1,0.7-2.7,0.7-3.9,0c-1.4-0.7-1-2.1-0.4-3.2c-0.3,1.1,0,2.3,1.2,2.6C19.7,31,20.8,28.8,20.6,27.4z
		 M11.2,25.1c0.2,0.4,0.4,0.7,0.6,1c1.6,1.6,3.8-0.1,4.1-1.8c0.1-0.5-0.6-0.7-0.8-0.2c-0.5,1.5-2.5,1.6-2.7-0.2
		c-0.2-1.7,2.1-2.2,3.3-1.7c1.6,0.8,2.2,3,0.7,4c-1.3,0.9-3.1,1.2-4.5,0.8c-0.5-0.1-0.9-0.4-1-0.8C10.9,25.9,11,25.5,11.2,25.1z
		 M7.8,28.3c0.4-0.3,1.1,0,1.5,0.3c1.3,0.8,2.5,2.3,2.8,3.8c0.4,2-2.9,2-3.9,1.3c-1-0.6-1.3-2.4-0.3-3.1c0.3-0.2,1.5-0.6,1.6,0
		c0.1,0.6-0.3,1.2-0.7,1.6c-0.4,0.3-0.1,0.8,0.4,0.6c1.1-0.5,2-2,1.3-3.2c-0.6-1.1-2.2-0.8-3.2-0.2C7.3,28.9,7.5,28.5,7.8,28.3z
		 M25.8,3.6C14.6,3.3,2,15.9,6.4,27.1c0.1,0.2,0.2,0.3,0.4,0.3c-0.2,0.2-0.4,0.5-0.5,0.8c-0.1-0.2-0.2-0.4-0.2-0.5
		c-0.4-1.1-0.8-2.2-1.3-3.2C4.7,24.2,4.4,24,4.2,24C3.8,17.6,7.7,11,12.1,6.7C16.9,2,25.1,1.3,31.3,3c10.5,2.8,13.4,15.3,13.9,24.7
		c-0.6,0.3-1.1,0.6-1.6,0.9c0.1-0.6,0.2-1.2,0.3-1.8c0.1-0.4-0.1-0.9-0.4-1.1C44.4,14.4,38.1,3.8,25.8,3.6z M41.6,37.9
		c-0.9-0.2-1.5-0.9-1.4-1.8c0.1-2,1.7-0.6,1.9,0.5c0.1,0.4,0.7,0.3,0.7-0.1c0.1-1.4-1-3-2.5-2.7c-0.3,0.1-0.5,0.2-0.8,0.4
		c0-0.1,0-0.1,0-0.2c0.1-0.5,0.7-0.9,1.2-1.1c1.2-0.4,2.7,0,3.3,1.2C45,35.8,43.7,38.3,41.6,37.9z"/>
</g>
</svg>
