<?xml version="1.0" encoding="utf-8"?>
<!-- Generator: Adobe Illustrator 20.1.0, SVG Export Plug-In . SVG Version: 6.00 Build 0)  -->
<svg version="1.1" id="Layer_1" xmlns="http://www.w3.org/2000/svg" xmlns:xlink="http://www.w3.org/1999/xlink" x="0px" y="0px"
	 viewBox="0 0 122 122" style="enable-background:new 0 0 122 122;" xml:space="preserve">
<style type="text/css">
	.st0{fill:#E99E99;}
	.st1{fill:#FFFFFF;}
</style>
<circle class="st0" cx="61" cy="60.8" r="60"/>
<g>
	<path class="st1" d="M110.1,73.1H92.9c-0.2,0-0.5-0.1-0.6-0.3L90,69.7c-0.2-0.2-0.2-0.6-0.1-0.8c0.1-0.3,0.4-0.4,0.7-0.4h21.8
		c0.3,0,0.6,0.2,0.7,0.4c0.1,0.3,0.1,0.6-0.1,0.8l-2.3,3.1C110.6,73,110.3,73.1,110.1,73.1z M93.3,71.6h16.4l1.2-1.6H92.2L93.3,71.6
		z"/>
	<path class="st1" d="M105.5,70h-7.9c-0.4,0-0.8-0.3-0.8-0.8V54.4c0-0.4,0.3-0.8,0.8-0.8h7.9c0.4,0,0.8,0.3,0.8,0.8v14.8
		C106.3,69.7,105.9,70,105.5,70z M98.3,68.5h6.4V55.2h-6.4V68.5z"/>
	<path class="st1" d="M101.5,54.4c-1.3,0-2.3-1.1-2.3-2.4c0-1.2,1.8-3.4,2-3.7c0.1-0.2,0.4-0.2,0.6,0c0.2,0.2,2,2.4,2,3.7
		C103.9,53.3,102.8,54.4,101.5,54.4z M101.5,49.2c-0.7,0.9-1.6,2.2-1.6,2.8c0,0.9,0.7,1.7,1.6,1.7s1.6-0.7,1.6-1.7
		C103.1,51.4,102.2,50.1,101.5,49.2z"/>
	<path class="st1" d="M102.7,67.3c-0.2,0-0.4-0.2-0.4-0.4v-3.1c0-0.2,0.2-0.4,0.4-0.4s0.4,0.2,0.4,0.4v3.1
		C103.1,67.1,102.9,67.3,102.7,67.3z"/>
	<path class="st1" d="M100.3,58.7c-0.2,0-0.4-0.2-0.4-0.4v-1.6c0-0.2,0.2-0.4,0.4-0.4s0.4,0.2,0.4,0.4v1.6
		C100.7,58.6,100.6,58.7,100.3,58.7z"/>
</g>
<g>
	<path class="st1" d="M25.2,73.4H14.1c-1.3,0-2.5-0.6-3.2-1.7c-0.7-1.1-0.9-2.4-0.4-3.6l3.5-9c0.5-1.7,2-2.8,3.7-2.8h3.8
		c1.7,0,3.3,1.2,3.7,2.8l3.5,9c0.5,1.2,0.3,2.6-0.4,3.6C27.7,72.7,26.5,73.4,25.2,73.4z M17.8,57.8c-1,0-2,0.7-2.3,1.7
		c0,0,0,0.1,0,0.1l-3.5,9c-0.3,0.7-0.2,1.5,0.2,2.2c0.4,0.6,1.1,1,1.9,1h11.1c0.8,0,1.5-0.4,1.9-1c0.4-0.6,0.5-1.4,0.2-2.2l-3.5-9
		c0,0,0-0.1,0-0.1c-0.3-1-1.2-1.7-2.3-1.7H17.8z"/>
	<path class="st1" d="M16.2,69.9C16.1,69.9,16.1,69.9,16.2,69.9c-0.3-0.1-0.4-0.3-0.4-0.5l2.3-9.4c0.1-0.2,0.3-0.3,0.5-0.3
		c0.2,0.1,0.3,0.3,0.3,0.5l-2.3,9.4C16.5,69.7,16.3,69.9,16.2,69.9z"/>
	<path class="st1" d="M23.2,69.9c-0.2,0-0.3-0.1-0.4-0.3l-2.3-9.4c-0.1-0.2,0.1-0.4,0.3-0.5c0.2-0.1,0.4,0.1,0.5,0.3l2.3,9.4
		C23.6,69.6,23.5,69.8,23.2,69.9C23.2,69.9,23.2,69.9,23.2,69.9z"/>
	<path class="st1" d="M21.4,53.9c-0.6,0-1.3-0.2-1.8-0.6c-1.1,0.9-2.8,0.8-3.8-0.3c-0.1-0.2-0.1-0.4,0-0.6c0.2-0.1,0.4-0.1,0.6,0
		c0.8,0.8,2.1,0.8,2.9,0c0.1-0.2,0.4-0.2,0.6,0c0.8,0.8,2.1,0.8,2.9,0c0.1-0.2,0.4-0.2,0.6,0c0.2,0.1,0.2,0.4,0,0.6
		C22.9,53.6,22.2,53.9,21.4,53.9z"/>
	<path class="st1" d="M20.6,57.8h-2c-1.1,0-2-0.7-2.3-1.7l-1.3-4.7c-0.2-0.7-0.1-1.4,0.4-2c0.5-0.6,1.1-0.9,1.9-0.9h0.7
		c0.3,0,0.6,0.2,0.7,0.4c0.2,0.5,0.6,0.7,0.9,0.7c0.3,0,0.7-0.3,0.9-0.7c0.1-0.3,0.4-0.4,0.7-0.4H22c0.8,0,1.5,0.3,1.9,0.9
		c0.4,0.6,0.6,1.3,0.4,2l-1.3,4.7C22.7,57.1,21.7,57.8,20.6,57.8z M17.4,50c-0.3,0-0.5,0.1-0.7,0.3c-0.1,0.1-0.2,0.3-0.1,0.7
		l1.3,4.7c0.1,0.3,0.4,0.6,0.8,0.6h2c0.4,0,0.7-0.2,0.8-0.6l1.3-4.7c0.1-0.3,0-0.5-0.1-0.7C22.5,50.1,22.2,50,22,50h-0.3
		c-0.5,0.7-1.2,1.2-2,1.2s-1.5-0.4-2-1.2H17.4z"/>
</g>
<g>
	<path class="st1" d="M37.7,34.8C37.7,34.8,37.7,34.8,37.7,34.8c-0.1,0-0.2,0-0.2-0.1c-0.1-0.1-0.2-0.1-0.3-0.2
		c-0.3-0.2-0.6-0.3-0.9-0.5c-0.5-0.4-0.8-0.8-0.9-1.3c-0.1-0.4-0.1-0.8,0.1-1.1c0.3-0.6,1.1-0.9,1.8-0.6c0.1,0,0.2,0.1,0.4,0.2
		c0.1-0.1,0.3-0.2,0.4-0.2c0.7-0.3,1.5,0,1.8,0.6c0.2,0.3,0.2,0.7,0.1,1.1c-0.1,0.5-0.4,0.9-0.9,1.3c-0.3,0.2-0.6,0.4-0.9,0.5
		c-0.1,0.1-0.2,0.1-0.3,0.2C37.8,34.7,37.8,34.8,37.7,34.8z M36.7,31.6c-0.2,0-0.4,0.1-0.6,0.3c-0.1,0.2-0.1,0.4,0,0.6
		c0.1,0.3,0.3,0.6,0.6,0.8c0.2,0.2,0.5,0.3,0.8,0.5c0.1,0,0.1,0.1,0.2,0.1c0.1,0,0.1-0.1,0.2-0.1c0.3-0.2,0.5-0.3,0.8-0.5
		c0.3-0.3,0.5-0.5,0.6-0.8c0-0.2,0.1-0.4,0-0.6c-0.2-0.3-0.5-0.4-0.8-0.3c-0.2,0.1-0.3,0.2-0.3,0.2c-0.1,0.3-0.7,0.3-0.8,0
		c0,0-0.1-0.1-0.3-0.2C36.9,31.6,36.8,31.6,36.7,31.6z"/>
	<path class="st1" d="M46.2,36.3H29.1c-0.9,0-1.6-0.7-1.6-1.6v-4.7c0-0.9,0.7-1.6,1.6-1.6h17.1c0.9,0,1.6,0.7,1.6,1.6v4.7
		C47.8,35.6,47.1,36.3,46.2,36.3z M29.1,30.1v4.7h17.1l0-4.7H29.1z"/>
	<path class="st1" d="M44.7,30.1c-0.4,0-0.8-0.3-0.8-0.8v-5.5H31.4v5.5c0,0.4-0.3,0.8-0.8,0.8s-0.8-0.3-0.8-0.8v-5.5
		c0-0.9,0.7-1.6,1.6-1.6h12.5c0.9,0,1.6,0.7,1.6,1.6v5.5C45.5,29.7,45.1,30.1,44.7,30.1z"/>
	<path class="st1" d="M41.6,23.8c-0.4,0-0.8-0.3-0.8-0.8v-5.5h-6.2v5.5c0,0.4-0.3,0.8-0.8,0.8S33,23.5,33,23.1v-5.5
		c0-0.9,0.7-1.6,1.6-1.6h6.2c0.9,0,1.6,0.7,1.6,1.6v5.5C42.4,23.5,42,23.8,41.6,23.8z"/>
	<path class="st1" d="M37.7,17.6c-0.4,0-0.8-0.3-0.8-0.8v-2.6c0-0.4,0.3-0.8,0.8-0.8s0.8,0.3,0.8,0.8v2.6
		C38.5,17.3,38.1,17.6,37.7,17.6z"/>
	<path class="st1" d="M37.7,12.9c-0.2,0-0.4-0.1-0.6-0.2c-0.1-0.1-0.2-0.3-0.2-0.6c0-0.1,0-0.2,0.1-0.3c0-0.1,0.1-0.2,0.2-0.2
		c0.2-0.2,0.6-0.3,0.8-0.2c0.1,0,0.2,0.1,0.3,0.2c0.1,0.1,0.1,0.2,0.2,0.2c0,0.1,0.1,0.2,0.1,0.3c0,0.1,0,0.2-0.1,0.3
		c0,0.1-0.1,0.2-0.2,0.2c-0.1,0.1-0.2,0.1-0.3,0.2C37.9,12.9,37.8,12.9,37.7,12.9z"/>
</g>
<g>
	<path class="st1" d="M90.9,107.6H74.6c-1.1,0-2-0.9-2-2c0-1.1,0.9-2,2-2h16.4c1.1,0,2,0.9,2,2C93,106.7,92.1,107.6,90.9,107.6z
		 M74.6,104.9c-0.4,0-0.7,0.3-0.7,0.7c0,0.4,0.3,0.7,0.7,0.7h16.4c0.4,0,0.7-0.3,0.7-0.7c0-0.4-0.3-0.7-0.7-0.7H74.6z"/>
	<path class="st1" d="M90.3,104.5c-0.1,0-0.1,0-0.2,0c-0.4-0.1-0.6-0.5-0.5-0.8l2.3-8.8l-5.7,2.7c-0.2,0.1-0.4,0.1-0.5,0
		c-0.2-0.1-0.3-0.2-0.4-0.4l-2.5-6l-2.5,6c-0.1,0.2-0.2,0.3-0.4,0.4c-0.2,0.1-0.4,0.1-0.5,0l-5.7-2.7l2.3,8.8
		c0.1,0.4-0.1,0.7-0.5,0.8c-0.4,0.1-0.7-0.1-0.8-0.5l-2.7-10.1c0-0.1-0.1-0.2-0.1-0.3c0-0.3,0.3-0.6,0.6-0.7c0.2,0,0.4,0,0.5,0.1
		l6.3,3l2.9-6.8c0.1-0.3,0.4-0.4,0.6-0.4c0.3,0,0.5,0.2,0.6,0.4l2.9,6.8l6.3-3c0.1-0.1,0.3-0.2,0.5-0.2c0.3,0,0.6,0.3,0.6,0.7
		c0,0.1,0,0.2,0,0.2L90.9,104C90.8,104.3,90.6,104.5,90.3,104.5z"/>
	<path class="st1" d="M77.3,102.1c-0.4,0-0.7-0.3-0.7-0.7s0.3-0.7,0.7-0.7c0.4,0,0.7,0.3,0.7,0.7S77.7,102.1,77.3,102.1z
		 M77.3,101.5C77.3,101.5,77.3,101.5,77.3,101.5l0.3,0L77.3,101.5z"/>
	<path class="st1" d="M88.2,102.1c-0.4,0-0.7-0.3-0.7-0.7s0.3-0.7,0.7-0.7c0.4,0,0.7,0.3,0.7,0.7S88.6,102.1,88.2,102.1z
		 M88.2,101.5C88.2,101.5,88.2,101.5,88.2,101.5l0.3,0L88.2,101.5z"/>
	<path class="st1" d="M85.5,102.1c-0.4,0-0.7-0.3-0.7-0.7s0.3-0.7,0.7-0.7s0.7,0.3,0.7,0.7S85.9,102.1,85.5,102.1z M85.5,101.5
		C85.5,101.5,85.5,101.5,85.5,101.5l0.3,0L85.5,101.5z"/>
	<path class="st1" d="M82.8,102.1c-0.4,0-0.7-0.3-0.7-0.7s0.3-0.7,0.7-0.7c0.4,0,0.7,0.3,0.7,0.7S83.1,102.1,82.8,102.1z
		 M82.8,101.5C82.8,101.5,82.8,101.5,82.8,101.5l0.3,0L82.8,101.5z"/>
	<path class="st1" d="M80,102.1c-0.4,0-0.7-0.3-0.7-0.7s0.3-0.7,0.7-0.7s0.7,0.3,0.7,0.7S80.4,102.1,80,102.1z M80,101.5
		C80,101.5,80,101.5,80,101.5l0.3,0L80,101.5z"/>
</g>
<g>
	<path class="st1" d="M43.5,106.3c-0.1,0-0.2,0-0.2,0c-4-1.2-9.4-1.2-13.4,0c-0.3,0.1-0.7,0-0.9-0.3c-0.2-0.3-0.2-0.7,0.1-0.9
		c0.3-0.3,0.5-0.6,0.6-0.9c0.6-1.2,0.6-2.7,0.5-4l0-0.4c-0.1-1.4-0.2-2.9,0.3-4.4c0.5-1.6,1.8-2.9,3.5-3.6c1.9-0.8,4.1-0.7,5.8,0.3
		c1.4,0.8,2.4,2,2.9,3.3c0.5,1.4,0.4,2.9,0.3,4.4l0,0.4c-0.1,1.3-0.1,2.8,0.5,4c0.2,0.3,0.4,0.6,0.6,0.9c0.2,0.3,0.3,0.6,0.1,0.9
		C44,106.1,43.8,106.3,43.5,106.3z M36.6,92.8c-0.7,0-1.4,0.1-2.1,0.4c-1.3,0.5-2.2,1.4-2.6,2.6c-0.4,1.2-0.3,2.5-0.2,3.8l0,0.4
		c0.1,1.3,0.1,2.9-0.4,4.2c3.3-0.7,7.2-0.7,10.6,0c-0.5-1.4-0.5-2.9-0.4-4.2l0-0.4c0.1-1.3,0.1-2.7-0.2-3.8c-0.3-1-1.1-1.9-2.1-2.4
		C38.3,93,37.5,92.8,36.6,92.8z"/>
	<path class="st1" d="M36.6,107.6c-1.3,0-2.3-1-2.3-2.3v-0.7c0-0.4,0.3-0.8,0.8-0.8s0.8,0.3,0.8,0.8v0.7c0,0.4,0.3,0.8,0.8,0.8
		c0.4,0,0.8-0.3,0.8-0.8v-0.7c0-0.4,0.3-0.8,0.8-0.8s0.8,0.3,0.8,0.8v0.7C38.9,106.6,37.9,107.6,36.6,107.6z"/>
	<path class="st1" d="M26.2,103.1c-0.2,0-0.4-0.1-0.6-0.2c-1-1-1.6-2.4-1.6-3.9s0.6-2.8,1.6-3.9c0.3-0.3,0.8-0.3,1.1,0
		c0.3,0.3,0.3,0.8,0,1.1c-0.7,0.7-1.1,1.7-1.1,2.8c0,1,0.4,2,1.1,2.8c0.3,0.3,0.3,0.8,0,1.1C26.6,103.1,26.4,103.1,26.2,103.1z"/>
	<path class="st1" d="M28.1,102c-0.2,0-0.4-0.1-0.6-0.2c-0.7-0.7-1.1-1.7-1.1-2.8c0-1,0.4-2,1.1-2.8c0.3-0.3,0.8-0.3,1.1,0
		c0.3,0.3,0.3,0.8,0,1.1c-0.4,0.4-0.7,1-0.7,1.7c0,0.6,0.2,1.2,0.7,1.7c0.3,0.3,0.3,0.8,0,1.1C28.5,102,28.3,102,28.1,102z"/>
	<path class="st1" d="M46.9,103.1c-0.2,0-0.4-0.1-0.6-0.2c-0.3-0.3-0.3-0.8,0-1.1c0.7-0.7,1.1-1.7,1.1-2.8c0-1-0.4-2-1.1-2.8
		c-0.3-0.3-0.3-0.8,0-1.1c0.3-0.3,0.8-0.3,1.1,0c1,1,1.6,2.4,1.6,3.9s-0.6,2.8-1.6,3.9C47.3,103.1,47.1,103.1,46.9,103.1z"/>
	<path class="st1" d="M45,102c-0.2,0-0.4-0.1-0.6-0.2c-0.3-0.3-0.3-0.8,0-1.1c0.4-0.4,0.7-1,0.7-1.7c0-0.6-0.2-1.2-0.7-1.7
		c-0.3-0.3-0.3-0.8,0-1.1s0.8-0.3,1.1,0c0.7,0.7,1.1,1.7,1.1,2.8c0,1-0.4,2-1.1,2.8C45.4,102,45.2,102,45,102z"/>
	<path class="st1" d="M36.6,92.8c-0.4,0-0.8-0.3-0.8-0.8v-1.6c0-0.4,0.3-0.8,0.8-0.8s0.8,0.3,0.8,0.8V92
		C37.3,92.5,37,92.8,36.6,92.8z"/>
</g>
<g>
	<g>
		<path class="st1" d="M74.2,27.1c-0.4,0-0.8-0.1-1.2-0.4c-0.3-0.2-0.6-0.6-0.7-0.9c-0.3,0.1-0.7,0.1-1-0.1c-0.5-0.2-1-0.6-1.2-1.1
			c-0.4-0.9-0.2-2,0.5-2.6c-0.5-0.8-0.4-1.9,0.3-2.7c0.6-0.7,1.7-0.8,2.5-0.4c0.2-0.3,0.6-0.5,0.9-0.6c0.5-0.2,1.1-0.1,1.6,0.2
			c0.8,0.5,1.3,1.5,1.1,2.4c0.8,0.4,1.3,1.3,1.2,2.3c-0.1,0.6-0.4,1.1-0.9,1.5c-0.3,0.2-0.6,0.3-0.9,0.4c-0.1,1-0.8,1.8-1.7,2
			C74.5,27.1,74.3,27.1,74.2,27.1z M72.8,24.4c0.1,0,0.2,0,0.3,0.1c0.2,0.1,0.3,0.3,0.3,0.5l0,0.1c0,0.3,0.2,0.5,0.4,0.7
			c0.2,0.1,0.4,0.2,0.6,0.1c0.5-0.1,0.8-0.6,0.8-1.2c0,0,0-0.1,0-0.1c-0.1-0.2,0-0.4,0.2-0.6c0.2-0.1,0.4-0.2,0.6-0.1l0,0.5l0,0
			l0.1-0.5c0.2,0,0.4,0,0.6-0.1c0.2-0.2,0.4-0.4,0.4-0.7c0,0,0,0,0,0c0.1-0.6-0.3-1.1-0.8-1.2c0,0-0.1,0-0.1,0
			c-0.2,0-0.4-0.1-0.5-0.3c-0.1-0.2-0.1-0.4,0-0.6l0.1-0.1c0.2-0.5,0.1-1.2-0.4-1.4c-0.2-0.1-0.4-0.1-0.6-0.1
			c-0.2,0.1-0.4,0.3-0.5,0.5c0,0,0,0.1,0,0.1c-0.1,0.2-0.2,0.4-0.5,0.4c-0.2,0-0.4-0.1-0.6-0.2L73,20.1c-0.3-0.4-0.9-0.4-1.2,0
			c-0.4,0.4-0.4,1.1,0,1.5c0,0,0.1,0.1,0.1,0.1C72,21.8,72,22,72,22.2c0,0.2-0.2,0.4-0.4,0.4l-0.3-0.4l0,0l0.2,0.5
			c-0.5,0.3-0.6,0.9-0.4,1.4c0.1,0.3,0.3,0.4,0.5,0.5c0.2,0.1,0.4,0,0.6-0.1c0,0,0.1-0.1,0.1-0.1C72.5,24.4,72.6,24.4,72.8,24.4z"/>
	</g>
	<path class="st1" d="M82.4,18.5c-1.3,0-2.4-1.1-2.4-2.5s1.1-2.5,2.4-2.5s2.4,1.1,2.4,2.5S83.7,18.5,82.4,18.5z M82.4,14.6
		c-0.7,0-1.2,0.6-1.2,1.3s0.5,1.3,1.2,1.3s1.2-0.6,1.2-1.3S83,14.6,82.4,14.6z"/>
	<path class="st1" d="M73.9,24.1c-0.8,0-1.5-0.7-1.5-1.5s0.7-1.5,1.5-1.5s1.5,0.7,1.5,1.5S74.7,24.1,73.9,24.1z M73.9,22.2
		c-0.2,0-0.3,0.2-0.3,0.4c0,0.2,0.1,0.4,0.3,0.4c0.2,0,0.3-0.2,0.3-0.4C74.2,22.3,74,22.2,73.9,22.2z"/>
	<path class="st1" d="M85.9,37.7h-7.1c-0.3,0-0.5-0.2-0.6-0.5L77,30.5c0-0.2,0-0.3,0.1-0.5c0.1-0.1,0.3-0.2,0.5-0.2h9.7
		c0.2,0,0.3,0.1,0.5,0.2c0.1,0.1,0.2,0.3,0.1,0.5l-1.3,6.7C86.4,37.5,86.2,37.7,85.9,37.7z M79.3,36.6h6.1l1.1-5.6h-8.3L79.3,36.6z"
		/>
	<path class="st1" d="M88.1,31H76.7c-0.3,0-0.6-0.3-0.6-0.6v-1.9c0-0.3,0.3-0.6,0.6-0.6h11.5c0.3,0,0.6,0.3,0.6,0.6v1.9
		C88.7,30.7,88.5,31,88.1,31z M77.2,29.8h10.3v-0.8H77.2V29.8z"/>
	<path class="st1" d="M84.3,21.7c-0.1,0-0.3,0-0.4,0c-0.6-0.1-1.1-0.4-1.5-0.8c-0.4,0.4-0.9,0.7-1.5,0.8c-0.7,0.1-1.5-0.1-2.1-0.6
		c-1.1-0.9-1.4-2.5-0.8-3.7c-1.2-0.7-1.8-2.2-1.3-3.5c0.2-0.8,0.8-1.4,1.5-1.8c0.5-0.2,1-0.3,1.5-0.3c0.2-1.4,1.4-2.5,2.8-2.5
		s2.5,1.1,2.8,2.5c0.5-0.1,1.1,0,1.5,0.3c0.7,0.4,1.2,1,1.5,1.8l0,0c0.4,1.4-0.2,2.9-1.3,3.5c0.6,1.3,0.3,2.9-0.8,3.7
		C85.5,21.5,84.9,21.7,84.3,21.7z M82.4,19.3c0.2,0,0.4,0.1,0.5,0.3c0,0,0,0.1,0,0.1c0,0,0,0.1,0.1,0.1c0.3,0.4,0.6,0.6,1.1,0.7
		c0.4,0.1,0.8,0,1.2-0.3c0.8-0.6,0.9-1.8,0.4-2.6c0,0,0-0.1-0.1-0.1c0,0-0.1-0.1-0.1-0.1c-0.1-0.2-0.2-0.4-0.1-0.6
		c0.1-0.2,0.2-0.3,0.4-0.4c0,0,0.1,0,0.1,0c0,0,0.1,0,0.1,0c0.9-0.3,1.3-1.3,1.1-2.3l0,0c-0.1-0.5-0.5-0.9-0.9-1.1
		c-0.4-0.2-0.8-0.2-1.2-0.1c0,0-0.1,0-0.1,0c0,0-0.1,0-0.1,0c-0.2,0.1-0.4,0.1-0.6,0c-0.2-0.1-0.3-0.3-0.2-0.5c0,0,0-0.1,0-0.1
		c0,0,0-0.1,0-0.1c0-1-0.7-1.8-1.6-1.8s-1.6,0.8-1.6,1.8c0,0,0,0.1,0,0.1l0,0.1c0,0.2-0.1,0.4-0.2,0.5c-0.2,0.1-0.4,0.1-0.6,0
		c0,0-0.1,0-0.1,0c0,0-0.1,0-0.1,0c-0.4-0.1-0.8-0.1-1.2,0.1c-0.4,0.2-0.7,0.6-0.9,1.1c-0.3,1,0.2,2,1.1,2.3c0,0,0.1,0,0.1,0
		c0,0,0.1,0,0.1,0c0.2,0,0.4,0.2,0.4,0.4c0.1,0.2,0,0.4-0.1,0.6c0,0-0.1,0.1-0.1,0.1c0,0,0,0.1-0.1,0.1c-0.6,0.8-0.4,2,0.4,2.6
		c0.3,0.3,0.8,0.4,1.2,0.3c0.4-0.1,0.8-0.3,1.1-0.7c0,0,0-0.1,0.1-0.1c0,0,0-0.1,0-0.1C82,19.4,82.2,19.3,82.4,19.3z"/>
	<path class="st1" d="M82.4,29c-0.3,0-0.6-0.3-0.6-0.6v-8.6c0-0.3,0.3-0.6,0.6-0.6c0.3,0,0.6,0.3,0.6,0.6v8.6
		C83,28.8,82.7,29,82.4,29z"/>
	<g>
		<path class="st1" d="M90.9,24.1c-0.8,0-1.5-0.7-1.5-1.6c0-0.9,0.7-1.6,1.5-1.6c0.8,0,1.5,0.7,1.5,1.6
			C92.4,23.4,91.7,24.1,90.9,24.1z M90.9,22.2c-0.2,0-0.3,0.2-0.3,0.4c0,0.2,0.1,0.4,0.3,0.4c0.2,0,0.3-0.2,0.3-0.4
			S91.1,22.2,90.9,22.2z"/>
	</g>
	<path class="st1" d="M90.6,27.1c-0.1,0-0.2,0-0.3,0c-0.9-0.2-1.6-1-1.7-2c-0.5-0.1-0.9-0.3-1.3-0.7c-0.3-0.3-0.5-0.7-0.5-1.2
		c-0.1-1,0.4-1.9,1.2-2.3c-0.2-0.9,0.2-2,1.1-2.4c0.5-0.3,1-0.3,1.6-0.2c0.4,0.1,0.7,0.3,0.9,0.6c0.3-0.2,0.7-0.3,1-0.3
		c0.6,0,1.1,0.2,1.5,0.7c0.7,0.7,0.8,1.8,0.3,2.7c0.7,0.6,0.9,1.7,0.5,2.6c-0.3,0.5-0.7,0.9-1.2,1.1c-0.3,0.1-0.7,0.1-1,0.1
		c-0.2,0.4-0.4,0.7-0.7,0.9C91.4,27,91,27.1,90.6,27.1z M89.1,23.9c0.1,0,0.3,0.1,0.4,0.2c0.2,0.1,0.2,0.4,0.2,0.6c0,0,0,0.1,0,0.1
		c-0.1,0.6,0.2,1.1,0.7,1.2c0.3,0,0.5-0.1,0.6-0.1c0.2-0.2,0.4-0.4,0.4-0.7c0,0,0-0.1,0-0.1c0-0.2,0.1-0.4,0.3-0.5
		c0.2-0.1,0.4-0.1,0.6,0c0,0,0.1,0,0.1,0c0.2,0.1,0.5,0.2,0.7,0.1c0.2-0.1,0.4-0.3,0.5-0.5c0.2-0.5,0.1-1.2-0.4-1.4c0,0,0,0,0,0l0,0
		c-0.2-0.1-0.3-0.2-0.4-0.4c0-0.2,0-0.4,0.1-0.5c0,0,0.1-0.1,0.1-0.1c0.4-0.4,0.4-1.1,0-1.5c-0.2-0.2-0.4-0.3-0.6-0.3
		c-0.2,0-0.5,0.1-0.6,0.3c0,0,0,0,0,0.1c-0.1,0.2-0.3,0.3-0.5,0.3c-0.2,0-0.4-0.2-0.5-0.3c0,0,0-0.1-0.1-0.1
		c-0.1-0.3-0.3-0.4-0.6-0.5c-0.2-0.1-0.4,0-0.6,0.1c-0.5,0.3-0.6,0.9-0.4,1.4c0,0,0,0.1,0.1,0.1c0.1,0.2,0.1,0.4,0,0.6
		c-0.1,0.2-0.3,0.3-0.5,0.3c0,0-0.1,0-0.1,0c-0.5,0.1-0.9,0.6-0.8,1.2c0,0.2,0.1,0.4,0.3,0.6c0.2,0.2,0.5,0.3,0.8,0.3
		c0,0,0.1,0,0.1,0C89,23.9,89.1,23.9,89.1,23.9z M90.9,24.1c-0.8,0-1.5-0.7-1.5-1.6c0-0.9,0.7-1.6,1.5-1.6c0.8,0,1.5,0.7,1.5,1.6
		C92.4,23.4,91.7,24.1,90.9,24.1z M90.9,22.2c-0.2,0-0.3,0.2-0.3,0.4c0,0.2,0.1,0.4,0.3,0.4c0.2,0,0.3-0.2,0.3-0.4
		S91.1,22.2,90.9,22.2z"/>
	<path class="st1" d="M90.9,24.1c-0.8,0-1.5-0.7-1.5-1.6c0-0.9,0.7-1.6,1.5-1.6c0.8,0,1.5,0.7,1.5,1.6
		C92.4,23.4,91.7,24.1,90.9,24.1z M90.9,22.2c-0.2,0-0.3,0.2-0.3,0.4c0,0.2,0.1,0.4,0.3,0.4c0.2,0,0.3-0.2,0.3-0.4
		S91.1,22.2,90.9,22.2z"/>
	<g>
		<path class="st1" d="M82.3,29.1c-0.2,0-0.5-0.2-0.6-0.4c-0.6-1.9-3-3.9-4.7-3.9c-0.3,0-0.6-0.3-0.6-0.6s0.3-0.6,0.6-0.6
			c2.2,0,5,2.3,5.8,4.7c0.1,0.3-0.1,0.6-0.4,0.7C82.4,29,82.3,29.1,82.3,29.1z"/>
		<path class="st1" d="M82.5,29.1c-0.1,0-0.1,0-0.2,0c-0.3-0.1-0.5-0.4-0.4-0.7c0.7-2.4,3.6-4.8,5.7-4.8c0.3,0,0.6,0.3,0.6,0.6
			s-0.3,0.6-0.6,0.6c-1.7,0-4,2-4.6,4C83,28.9,82.8,29.1,82.5,29.1z"/>
	</g>
</g>
<path class="st1" d="M61.1,95.2c-0.3,0-0.5-0.1-0.7-0.4c-3.5-5.6-7.9-6.8-13.7-3.7c-0.2,0.1-0.5,0.1-0.8,0c-0.2-0.1-0.4-0.4-0.4-0.6
	c-0.2-6.6-3.5-10-10-10.2c-0.3,0-0.5-0.2-0.6-0.4c-0.1-0.2-0.1-0.5,0-0.8c3.1-5.9,1.9-10.4-3.7-13.9c-0.2-0.1-0.4-0.4-0.4-0.7
	c0-0.3,0.1-0.5,0.4-0.7c5.5-3.5,6.7-8.1,3.7-13.9c-0.1-0.2-0.1-0.5,0-0.8c0.1-0.2,0.4-0.4,0.6-0.4c6.5-0.2,9.8-3.6,10-10.2
	c0-0.3,0.2-0.5,0.4-0.6c0.2-0.1,0.5-0.1,0.8,0c5.8,3.1,10.2,1.9,13.7-3.7c0.3-0.5,1-0.5,1.3,0c3.5,5.6,7.9,6.8,13.7,3.7
	c0.2-0.1,0.5-0.1,0.8,0c0.2,0.1,0.4,0.4,0.4,0.6c0.2,6.6,3.5,10,10,10.2c0.3,0,0.5,0.2,0.6,0.4c0.1,0.2,0.1,0.5,0,0.8
	c-3.1,5.9-1.9,10.4,3.7,13.9c0.2,0.1,0.4,0.4,0.4,0.7c0,0.3-0.1,0.5-0.4,0.7c-5.5,3.5-6.7,8.1-3.7,13.9c0.1,0.2,0.1,0.5,0,0.8
	c-0.1,0.2-0.4,0.4-0.6,0.4c-6.5,0.2-9.8,3.6-10,10.2c0,0.3-0.2,0.5-0.4,0.6c-0.2,0.1-0.5,0.1-0.8,0c-5.8-3.1-10.2-1.9-13.7,3.7
	C61.6,95.1,61.4,95.2,61.1,95.2z M52.5,87.9c3.3,0,6.2,1.7,8.6,5.1c3.6-5.2,8.3-6.5,14-3.8c0.6-6.3,4-9.8,10.3-10.4
	C82.7,73,84,68.2,89.1,64.6c-5.1-3.7-6.4-8.5-3.8-14.2c-6.2-0.6-9.7-4.1-10.3-10.4c-5.7,2.6-10.4,1.4-14-3.8
	c-3.6,5.2-8.3,6.5-14,3.8c-0.6,6.3-4,9.8-10.3,10.4c2.6,5.8,1.4,10.6-3.8,14.2c5.1,3.7,6.4,8.5,3.8,14.2c6.2,0.6,9.7,4.1,10.3,10.4
	C49,88.3,50.8,87.9,52.5,87.9z"/>
<g>
	<path class="st1" d="M66.9,60.6c-0.2-0.6-0.9-0.9-1.5-0.7c-0.6,0.2-0.9,0.9-0.7,1.5c0.2,0.5,0.3,1,0.4,1.5c0.1,0.5,0.1,1,0.1,1.5
		c0,2.4-1,4.6-2.5,6.1c-1.6,1.6-3.7,2.5-6.1,2.5c-2.4,0-4.6-1-6.1-2.5c-1.6-1.6-2.5-3.7-2.5-6.1c0-2.4,1-4.6,2.5-6.1
		c1.6-1.6,3.7-2.5,6.1-2.5c0.7,0,1.3,0.1,1.9,0.2c0.6,0.1,1.3,0.4,1.8,0.6c0.6,0.3,1.3,0,1.6-0.6c0.3-0.6,0-1.3-0.6-1.6
		c-0.7-0.4-1.5-0.6-2.3-0.8c-0.8-0.2-1.6-0.3-2.5-0.3c-3.1,0-5.8,1.2-7.8,3.2c-2,2-3.2,4.8-3.2,7.8c0,3.1,1.2,5.8,3.2,7.8
		c2,2,4.8,3.2,7.8,3.2c3.1,0,5.8-1.2,7.8-3.2c2-2,3.2-4.8,3.2-7.8c0-0.7-0.1-1.3-0.2-1.9C67.3,61.8,67.1,61.2,66.9,60.6L66.9,60.6z"
		/>
	<path class="st1" d="M58.1,70.9c0.4,0.6,1.1,0.7,1.6,0.4c0.6-0.4,0.7-1.1,0.4-1.6c-0.1-0.1-0.1-0.2-0.2-0.4
		c-0.1-0.2-0.1-0.3-0.2-0.3c-0.2-0.5-0.4-0.9-0.5-1.4c-0.1-0.5-0.2-1-0.2-1.5c0-2,0.8-3.8,2.1-5.2c1.3-1.3,3.1-2.1,5.2-2.1
		c2,0,3.8,0.8,5.2,2.1c1.3,1.3,2.1,3.1,2.1,5.2c0,2-0.8,3.8-2.1,5.2c-1.3,1.3-3.1,2.1-5.2,2.1c-0.2,0-0.5,0-0.7-0.1
		c-0.2,0-0.3,0-0.4,0c-0.7-0.1-1.2,0.4-1.3,1.1c-0.1,0.7,0.4,1.2,1.1,1.3c0.1,0,0.2,0,0.3,0c0.3,0,0.8,0.1,1,0.1
		c2.7,0,5.1-1.1,6.8-2.8c1.8-1.8,2.8-4.2,2.8-6.8c0-2.7-1.1-5.1-2.8-6.8c-1.8-1.8-4.2-2.8-6.8-2.8c-2.7,0-5.1,1.1-6.8,2.8
		c-1.8,1.8-2.8,4.2-2.8,6.8c0,0.7,0.1,1.4,0.2,2c0.1,0.7,0.4,1.3,0.6,1.9c0,0.1,0.1,0.3,0.3,0.5C57.9,70.5,58,70.7,58.1,70.9
		L58.1,70.9z"/>
</g>
</svg>
