<?xml version="1.0" encoding="utf-8"?>
<svg version="1.1" id="Layer_1" xmlns="http://www.w3.org/2000/svg" xmlns:xlink="http://www.w3.org/1999/xlink" x="0px" y="0px" viewBox="0 0 28 28" style="enable-background:new 0 0 28 28;" xml:space="preserve">
<style type="text/css">
	.st0{fill:#c55f55;}
</style>
<g>
	<path class="st0" d="M4.6,4.6C3.7,5.5,3.1,6.6,2.8,7.9c-0.2,1.2-0.1,2.5,0.5,3.6c0.1,0.2,0.3,0.3,0.5,0.3c0.1,0,0.2,0,0.2-0.1
		c0.3-0.1,0.4-0.5,0.3-0.7c-0.9-1.9-0.4-4.2,1-5.7c0.2-0.2,0.2-0.6,0-0.8C5.1,4.3,4.8,4.3,4.6,4.6z"/>
	<path class="st0" d="M15.1,10c0.2-1.2,0.1-2.5-0.5-3.6c-0.1-0.3-0.5-0.4-0.7-0.3c-0.3,0.1-0.4,0.5-0.3,0.7c0.9,1.9,0.4,4.2-1,5.7
		c-0.2,0.2-0.2,0.6,0,0.8c0.1,0.1,0.3,0.2,0.4,0.2c0.1,0,0.3-0.1,0.4-0.2C14.3,12.5,14.9,11.3,15.1,10z"/>
	<path class="st0" d="M27.3,24.1L20.2,17c0,0,0,0,0,0c0,0,0,0,0,0l-1.5-1.5c-0.2-0.2-0.5-0.3-0.8-0.3c-0.1,0-0.2,0-0.3,0L16,13.6
		C18.2,10.4,17.9,5.9,15,3c-1.6-1.6-3.7-2.5-6-2.5S4.6,1.4,3,3c-3.3,3.3-3.3,8.7,0,12c1.6,1.6,3.7,2.5,6,2.5c1.7,0,3.3-0.5,4.7-1.4
		l1.5,1.5c0,0.1,0,0.2,0,0.3c0,0.3,0.1,0.6,0.3,0.8l1.5,1.5c0,0,0,0,0,0c0,0,0,0,0,0l7.1,7.1c0.2,0.2,0.5,0.3,0.8,0.3
		c0.3,0,0.6-0.1,0.8-0.3l1.6-1.6c0.2-0.2,0.3-0.5,0.3-0.8C27.6,24.6,27.5,24.3,27.3,24.1z M19,17.4L17.4,19l-1.1-1.1l0,0l1.6-1.6
		L19,17.4z M3.8,14.2c-2.9-2.9-2.9-7.5,0-10.4C5.2,2.4,7,1.6,9,1.6c2,0,3.8,0.8,5.2,2.2c2.9,2.9,2.9,7.5,0,10.4l0,0
		c-1.4,1.4-3.2,2.1-5.2,2.1C7,16.3,5.2,15.6,3.8,14.2z M15,15C15,15,15,15,15,15C15,15,15,15,15,15l0.4-0.4l1.3,1.3l-0.8,0.8
		l-1.3-1.3L15,15z M24.9,26.5C24.9,26.5,24.9,26.5,24.9,26.5L24.9,26.5l-6.7-6.7l1.6-1.6l6.7,6.7L24.9,26.5z"/>
</g>
</svg>
