<?xml version="1.0" encoding="utf-8"?>
<!-- Generator: Adobe Illustrator 20.1.0, SVG Export Plug-In . SVG Version: 6.00 Build 0)  -->
<svg version="1.1" id="Layer_1" xmlns="http://www.w3.org/2000/svg" xmlns:xlink="http://www.w3.org/1999/xlink" x="0px" y="0px"
	 viewBox="0 0 122 122" style="enable-background:new 0 0 122 122;" xml:space="preserve">
<style type="text/css">
	.st0{fill:#E99E99;}
	.st1{fill:none;stroke:#FFFFFF;stroke-width:0.7;stroke-miterlimit:10;}
</style>
<circle class="st0" cx="61" cy="60.8" r="60"/>
<g>
	<path class="st1" d="M83.6,67.2c-0.2,0.2-0.4,0.1-0.6,0.1c-0.1,0-0.1,0.1-0.2,0.2c-0.1,0-0.2,0-0.3,0c-0.2,0.1-0.2,0.2-0.2,0.4
		c0,0.2-0.1,0.4-0.1,0.6c-0.3,0.1-0.4,0.2-0.4,0.5c0,0.1,0,0.3,0,0.4c-0.2,0.3-0.2,0.1-0.4,0.1c-0.1,0-0.2,0.1-0.3,0.1
		c-0.1,0-0.3-0.2-0.4-0.2c-0.1-0.1-0.1-0.2-0.3-0.1c-0.1,0-0.2,0.2-0.2,0.3h0.1c0,0.4-0.2,0.7-0.6,0.6c-0.2,0-0.3-0.1-0.4,0
		c-0.1,0-0.1,0.1-0.2,0.1s-0.2,0-0.3-0.1c-0.4-0.1-0.6-0.1-0.9,0s-0.6,0-0.7,0.4c0,0.1,0,0.1,0,0.1c-0.1-0.2-0.1-0.4-0.1-0.6
		s0.1-0.3,0.1-0.4c0-0.2-0.1-0.1-0.1-0.3c0-0.1,0.2-0.2,0.2-0.4c0.1-0.1,0.1-0.3,0.1-0.4c0.2-0.3,0.2-0.4,0.2-0.8
		c0.2,0,0.1-0.1,0.1-0.2v-0.3c-0.1-0.2-0.2-0.2-0.3-0.4c-0.1-0.2,0-0.3,0.1-0.5c0.1-0.5,0-1.2-0.1-1.7c-0.2-1.7-0.4-4-0.6-5.8
		c0.1,0.2,0.1,0.3,0.2,0.5c0.3,0.4,0.9,0.2,1.2,0c0.1-0.1,0.2-0.1,0.3-0.2l0.1-0.1c1-0.1,3.2-0.3,3.8-0.4v0.2l0,0l1.1,7.6
		c-0.1,0-0.2,0.1-0.2,0.2C83.6,66.9,83.8,66.9,83.6,67.2z"/>
	<path class="st1" d="M99,78.4c-0.2,0.2-0.4,0.3-0.5,0.6c-0.1,0.2-0.2,0.5-0.3,0.7c-0.1,0.3-0.2,0.7-0.5,0.8c0-0.1-0.1-0.2-0.1-0.2
		c-0.3,0.1,0,0.6,0,0.8c-0.3,0-0.5-0.1-0.6,0.3c-0.1,0.2-0.1,0.5-0.4,0.6c-0.1-0.1-0.2-0.2-0.3-0.2c-0.2,0.1-0.1,0.1-0.1,0.3
		c0,0.2-0.3,0.4-0.5,0.4c0-0.1,0-0.1,0-0.2c0,0.1-0.1,0.3-0.2,0.4s-0.3,0-0.4,0.2s0.2,0.2,0.1,0.4c-0.1,0.2-0.4,0-0.4-0.2
		c-0.2,0.1,0.2,0.4,0.1,0.5c-0.1,0-0.1,0.2-0.1,0.3c0,0.1-0.1,0.2-0.2,0.3c-0.1-0.1-0.2-0.2-0.2-0.2c-0.1,0-0.1-0.1-0.1-0.1
		c-0.1-0.1-0.2-0.2-0.4-0.2c-0.2-0.1-0.1-0.2-0.1-0.3c0-0.1,0-0.1-0.1-0.2s-0.1-0.1-0.2-0.1c0-0.1-0.1-0.1-0.1-0.2s-0.1-0.1-0.2-0.1
		c-0.1-0.1-0.1-0.2-0.1-0.3c0-0.1-0.1-0.1-0.1-0.2s0-0.2-0.1-0.2c-0.1-0.1-0.1-0.3-0.2-0.3c-0.1-0.1-0.3-0.1-0.4-0.2
		s-0.2-0.2-0.3-0.2c-0.4-0.2-0.5-0.4-0.8-0.7c-0.2-0.1-0.3-0.3-0.5-0.4c-0.1-0.1-0.2-0.3-0.4-0.4c-0.3-0.2-0.3-0.1-0.4-0.5
		c-0.1-0.3-0.3-0.3-0.4-0.6c-0.1-0.1-0.2-0.3-0.3-0.3c-0.1,0-0.1,0-0.2-0.1s-0.1-0.1-0.2-0.2s-0.2,0-0.4,0c-0.2-0.1-0.3-0.3-0.3-0.5
		c-0.1-0.1,0-0.2,0.1-0.3c0-0.1,0-0.1,0.1-0.2c0-0.1,0.1-0.2,0.2-0.3l0.1-0.1c0.1-0.1,0.2-0.1,0.3-0.2c0.1,0,0.1,0,0.2,0
		s0.1-0.1,0.2-0.1c0.1-0.1,0.2,0,0.4-0.1c0.1-0.1,0.2-0.2,0.3-0.2c0.1,0,0.3,0,0.4,0c0.2,0,0.2-0.1,0.3-0.1l2-0.1
		c0.1,0.1,0,0.3,0.1,0.3s0.2,0,0.2,0l0.4,0.5l2.4-0.4c0,0,0,0,0-0.1L99,78.4z"/>
	<polygon class="st1" points="77.1,90.8 77.1,90.8 77,90.8 77,90.8 	"/>
	<g>
		<path class="st1" d="M75.7,93.1c-0.1,0.1-0.2,0.2-0.2,0.3c0.2,0.1,0.3,0.2,0.4,0.4c0.1,0.1,0.4,0.3,0,0.3c-0.2,0-0.3-0.3-0.4-0.4
			c-0.2-0.1-0.3,0.1-0.6,0.1c0-0.1,0.1-0.5-0.1-0.4c-0.2,0-0.2,0.4-0.2,0.5s0,0.2-0.1,0.3c-0.1,0.1-0.1,0-0.3,0.1
			c-0.1,0.1-0.2,0.4-0.3,0.2c0-0.1,0.1-0.2,0-0.2l-0.3,0.1c-0.1,0-0.4-0.1-0.5,0c-0.2,0.1-0.1,0.4-0.4,0.2c-0.2-0.1-0.3-0.1-0.5-0.2
			c-0.2,0-0.4,0-0.6-0.1c-0.3-0.2,0-0.3,0.2-0.4c-0.2-0.2-0.6-0.3-0.9-0.3c0-0.1,0-0.1,0-0.2c-0.2-0.1-0.5,0.1-0.7,0
			c-0.1,0-0.1-0.1-0.3-0.1c-0.1,0-0.2,0.1-0.3,0.1c-0.2,0.1-0.2,0-0.4-0.1c-0.2-0.1-0.2,0-0.4,0c-0.2,0-0.5,0-0.8,0
			c-0.1,0-0.3,0-0.4-0.1c-0.1,0-0.2-0.2-0.3-0.2c-0.2-0.1-0.6,0.1-0.8,0.1c-0.3,0.1-0.6,0.1-0.9,0.1l0,0l0.1-0.1c0,0,0,0,0-0.1
			l0.1-0.1c0.1-0.1,0-0.2,0-0.3v-0.1c0-0.1,0.1-0.1,0.1-0.1c0.1-0.1,0.1-0.2,0.1-0.3c0-0.1-0.1-0.2-0.2-0.3c0-0.1-0.1-0.2-0.1-0.3
			c0-0.1,0.1-0.2,0.2-0.2c0-0.1,0-0.2,0-0.3c0-0.1,0-0.2,0-0.3c0-0.1,0-0.1,0.1-0.2l0.1-0.1c0-0.1,0-0.2,0-0.3
			c0-0.1,0.1-0.1,0.1-0.1v-0.1c0-0.1-0.1-0.2-0.1-0.3c0,0,0-0.1-0.1-0.1c0-0.1,0-0.1,0-0.1c0-0.1,0.1-0.3,0-0.4
			c0-0.1-0.1-0.2-0.1-0.3c-0.1-0.1-0.1-0.1-0.2-0.2l-0.1-0.1l-0.1-0.1c0-0.1-0.1-0.1-0.1-0.2s0-0.2,0-0.2c-0.1-0.1-0.1-0.1-0.2-0.3
			c0-0.1,0-0.1-0.1-0.2s-0.2-0.3-0.2-0.4l-0.1-2.5l6.5-0.3c0,0.1,0,0.2,0.1,0.2s0.2-0.1,0.2,0.1c0,0.1-0.2,0.2-0.2,0.3
			c0,0.1,0,0.5,0,0.5c0.1,0.2,0.3,0,0.4,0c0.1,0.1-0.1,0.3-0.1,0.4s-0.1,0.1-0.1,0.2s0.1,0.1,0.1,0.2s0,0.2-0.1,0.3l-0.1,0.1
			c0,0.1,0,0.1,0,0.2c0,0.2-0.1,0.1-0.2,0.2s-0.1,0.2-0.2,0.3c-0.1,0.1-0.2,0-0.3,0.2v0.1c0.2,0,0.1,0.1,0.1,0.1
			c-0.1,0.1-0.3,0.1-0.3,0.3c0,0.1,0.2,0.1,0.1,0.2s-0.3,0.1-0.2,0.3c0.1,0.1,0.2,0.1,0,0.3c-0.2,0.2-0.3,0.2-0.2,0.4
			c0,0.2,0.1,0.4,0.1,0.5c0.1,0,0.3,0,0.4,0c0.5,0,1-0.1,1.5-0.1c0.4,0,0.8-0.1,1.2-0.1c0.2,0,0.6-0.1,0.8-0.1
			c0.3,0.1,0.1,0.4,0,0.6c0,0.1-0.1,0.3-0.1,0.4s0.1,0.1,0.2,0.2c0,0.1,0,0.2,0.1,0.2c0.1,0.1,0.2,0.1,0.3,0.2
			c0.1,0.1,0.2,0.2,0.2,0.4c0,0.1,0,0.2,0,0.2c0,0.1,0.1,0.1,0.2,0.1s0.2,0.1,0.3,0.2c0,0.1-0.1,0.2-0.2,0.2
			c0.1,0.1,0.4,0.1,0.5,0.2c0.1,0.2-0.2,0.3-0.3,0.4C75.8,92.8,75.8,92.9,75.7,93.1z"/>
		<path class="st1" d="M45.8,40l-0.6,8.3L45,50.9l-13.4-1.3l-0.1,1c-0.1,0-0.6-0.1-0.7-0.1c-0.3,0-0.4,0-0.6,0.1
			c-0.4,0.1-0.8,0-1.2,0c-0.5,0-0.6,0-1-0.3c-0.2-0.1-0.2-0.3-0.4-0.5c-0.1-0.2-0.2-0.2-0.4-0.3c-0.3-0.2-0.2-0.4-0.1-0.7
			c0-0.3,0-0.5-0.1-0.7s-0.1-0.3-0.1-0.5c0-0.4-0.2-0.8-0.6-0.4c-0.2,0.2-0.2,0.2-0.4,0.1c-0.2-0.1-0.3-0.2-0.4-0.4
			c-0.3-0.3-0.3-0.7,0.1-1c0.1-0.1,0.3-0.2,0.4-0.3c0.1-0.2,0-0.4,0-0.6c0-0.2,0.1-0.3,0.1-0.5c0-0.4-0.7-0.3-1-0.5
			s-0.5-0.6-0.6-0.9c-0.2-0.4-0.3-0.7-0.3-1.1c0-0.2,0.1-0.2,0.2-0.4s0-0.2,0-0.4c0-0.1,0-0.2,0-0.3s-0.2-0.1-0.2-0.2
			c-0.1-0.2,0.1-0.7,0.1-1c0.1-0.3,0.1-0.6,0.2-0.9c0.1-0.4,0.2-0.8,0.2-1.2C30.2,38.4,37.5,39.4,45.8,40z"/>
		<path class="st1" d="M96.5,63c-0.1,0.1-0.1,0.3-0.2,0.5l0,0l0,0l0,0v0.1c0,0,0,0,0,0.1c0,0,0,0,0,0.1s0,0.1,0,0.2l0,0
			c0,0,0,0,0,0.1l0,0l0,0l0,0l0,0v0.1l0,0l0,0l0,0l0,0c-0.1,0.1-0.1,0.1-0.2,0.2c0,0.1-0.1,0.2-0.1,0.2l0,0v0.1l0,0l0,0l0,0
			c0,0,0,0,0,0.1l0,0c0,0,0,0-0.1,0l0,0l0,0l0,0l0,0l0,0l0,0l0,0l0,0l0,0c0,0,0,0,0,0.1l0,0c0,0,0,0,0,0.1c0,0,0,0,0,0.1
			c0,0,0,0,0,0.1l0,0c0,0,0,0,0,0.1v0.1c0,0.1-0.1,0.2-0.1,0.3c0,0,0,0,0,0.1l0,0l-0.1,0.1c0,0,0,0,0,0.1s-0.1,0.1-0.1,0.1l0,0l0,0
			l0,0l0,0l0,0l0,0l0,0l0,0l0,0l0,0l0,0l0,0c-0.1,0-0.1-0.1-0.2-0.1c0,0,0,0-0.1,0l0,0l0,0h-0.1c0,0,0,0-0.1,0l0,0l0,0l0,0l0,0l0,0
			l0,0l0,0l0,0C95,66.1,95,66.2,95,66.2v0.1c0,0.1,0,0.2-0.1,0.3v0.1l0,0l0,0l0,0c0,0.1-0.1,0.1-0.1,0.2l0,0l0,0l0,0l0,0
			c0,0.1,0,0.1,0,0.2l0,0l0,0l0,0l0,0l0,0l0,0l0,0l0,0l0,0l0,0h-0.1l0,0l0,0l0,0l0,0l-0.1,0.1l0,0l0,0l0,0l0,0c0,0,0,0,0,0.1
			c0,0.2-0.1,0.3-0.1,0.5v0.1l0,0V68l0,0c-0.1,0.1-0.1,0.3-0.2,0.4c0,0,0,0.1-0.1,0.1l0,0l0,0l0,0l0,0l0,0l0,0l0,0h-0.1
			c0,0.1-0.1,0.1-0.2,0.2l0,0l0,0l0,0l0,0l0,0c0,0,0,0-0.1,0l0,0c0,0,0,0-0.1,0c0,0,0,0-0.1,0l0,0l0,0l0,0l0,0l0,0h-0.1
			c0,0,0,0-0.1,0s-0.1,0.1-0.1,0.1s0,0-0.1,0l0,0l0,0l0,0l0,0c0,0,0,0-0.1,0l0,0c-0.1,0-0.1,0.1-0.2,0.1c-0.1,0.1-0.2,0.1-0.3,0.2
			c-0.1,0-0.1,0-0.2,0s-0.2,0-0.3,0.1c-0.1,0-0.2,0-0.3,0h-0.1l0,0l0,0l0,0h-0.1c-0.1,0-0.2,0-0.2,0l-0.1-0.1l0,0l0,0l0,0
			c-0.1-0.1-0.1-0.2-0.2-0.3l0,0l0,0l0,0l0,0l0,0L91,68.7c-0.1,0-0.1,0-0.1,0l0,0c0-0.2-0.1-0.3-0.3-0.5c-0.2-0.3-0.4-0.5-0.6-0.8
			s-0.4-0.7-0.5-1v-0.1l0,0l0,0l0,0l0,0l0,0l0,0l0,0l0,0c0.1,0,0.4,0,0.5-0.1s0.1-0.2,0.2-0.3c0.1,0,0.1,0,0.2-0.1l0.1-0.1
			c0-0.1-0.1-0.2-0.2-0.3c-0.1-0.2,0-0.2,0.1-0.3c0.1-0.2,0-0.4,0.2-0.5c0.1-0.1,0.2,0,0.3,0.1c0.1,0,0.2,0,0.3,0
			c0.1-0.1,0.1-0.1,0.1-0.2c0-0.1,0-0.3,0-0.4c0.1-0.1,0.2-0.2,0.3-0.3c0.1-0.1,0.3-0.2,0.4-0.3s0.1-0.1,0.2-0.2
			c0-0.1,0.1-0.2,0.2-0.2c0-0.1,0-0.2,0.1-0.3c0-0.1,0-0.1,0.1-0.1c0.1-0.1,0.1-0.2,0.2-0.2s0.2-0.1,0.2-0.1c0-0.1,0-0.2,0-0.2
			c0-0.2-0.1-0.3-0.1-0.4c0-0.2,0-0.3,0.1-0.5s0.1-0.3,0.2-0.4c0.1-0.2,0-0.4-0.1-0.6c0,0,0-0.1-0.1-0.1c0.1-0.1,0-0.2,0.1-0.3
			s0.2-0.1,0.2-0.2c0,0,0,0,0.1,0l0.4,2.5l1.9-0.3c0,0.1,0,0.1,0,0.2c0,0.1,0,0.3,0,0.5s0,0.3,0.1,0.5c0,0.1,0.1,0.2,0.1,0.4
			c0,0,0.1,0,0.1-0.1c0.1-0.1,0.1-0.1,0.2-0.2c0-0.1,0-0.2,0.1-0.3c0.1-0.2,0.3,0,0.5-0.2c0.1-0.1,0.1-0.2,0.1-0.3
			c0.1-0.1,0.2-0.1,0.3-0.2c0.2-0.1,0.4-0.2,0.6-0.2l0,0l0,0l0,0l0,0h0.1c0,0,0,0,0.1,0l0,0l0,0l0,0C96.4,63,96.4,63,96.5,63
			L96.5,63L96.5,63z"/>
		<path class="st1" d="M104.6,60c0,0.2,0.1,0.4,0.1,0.6c0,0.2-0.1,0.3-0.2,0.5s-0.1,0.4-0.1,0.7c0,0.2-0.1,0.4-0.2,0.5
			c-0.1,0.2-0.2,0.3-0.2,0.5c0,0.1-0.1,0.5-0.2,0.3c-0.1-0.1,0.1-1.1-0.3-0.8c-0.1,0-0.1,0.2-0.2,0.2s-0.1-0.1-0.2-0.1
			c-0.1-0.2-0.3-0.1-0.4-0.2c0,0-0.1-0.2-0.2-0.2l0,0c0-0.1-0.1-0.1-0.1-0.2v-0.1c0-0.1-0.1-0.2-0.1-0.3s0-0.1,0.1-0.2l0.1-0.1
			c0.1-0.1,0.1-0.1,0.2-0.2c0.1-0.1,0.1-0.1,0.2-0.2c0.1-0.1,0.2-0.1,0.2-0.2v-0.1l0.1-0.1c0-0.1,0-0.2,0-0.3
			c-0.1-0.2,0-0.4-0.1-0.5c-0.2,0-0.2-0.3-0.3-0.4c-0.1-0.1-0.2-0.1-0.2-0.2c0-0.1-0.1-0.2-0.1-0.3c0-0.2,0-0.4,0-0.6
			c0-0.1,0-0.2,0.1-0.3s0.1-0.2,0.1-0.3s0.1-0.1,0.1-0.2c0.1-0.1,0-0.2,0-0.3s0.1-0.2,0.2-0.3l0,0c0,0.1,0.1,0.1,0.1,0.1
			c0.1,0,0.2,0,0.3,0.1c0.1,0,0.1,0,0.2,0s0.1,0.1,0.2,0.1s0.2,0.1,0.4,0.1c0.2,0.1,0.4,0.1,0.5,0.3s0.1,0.3,0.1,0.4
			c0,0.1-0.1,0.2,0,0.2c0,0.1,0.1,0.1,0.1,0.2c0,0.1,0,0.2,0,0.2c-0.1-0.1-0.2,0-0.3,0.1c-0.1,0.2,0,0.3,0.2,0.4
			c0.2,0.1,0.3,0.3,0.2,0.5C104.5,59.6,104.5,59.8,104.6,60z"/>
		<path class="st1" d="M106.3,46.1c0,0.1,0,0.2,0,0.3s0,0.1,0,0.1v0.1c0,0.3-0.2,0.6-0.4,0.8c-0.1,0.1-0.2,0.1-0.2,0.2
			c-0.1,0.1,0,0.2,0,0.4c0,0.1,0.1,0.2,0.1,0.3c0,0.2-0.1,0.4-0.1,0.6c0,0.1,0,0.2,0.1,0.3c0,0.1,0,0.2,0,0.3s-0.1,0.2-0.1,0.3
			s0.1,0.1,0.1,0.2c0,0.1-0.1,0.2-0.1,0.3s0.1,0.2,0.1,0.3c0,0.2-0.1,0.4-0.1,0.6c0,0.2,0.2,0.4,0.2,0.6c0,0.1,0,0.1,0,0.2
			c-0.7,0.1-1.3,0.3-1.5,0.3c0-0.1,0-0.1,0-0.2c0-0.1,0-0.1,0-0.2c0-0.1,0-0.3,0-0.4c0-0.1-0.1-0.3-0.1-0.4c0-0.1-0.1-0.1-0.1-0.2
			v-0.1c0,0,0-0.1-0.1-0.1c-0.1-0.1-0.1-0.2-0.2-0.4c-0.1-0.1-0.2-0.2-0.2-0.4c0-0.1,0-0.2,0-0.2v-0.2c0-0.1,0-0.2,0-0.2
			c0-0.1,0-0.2,0-0.2c-0.1-0.3-0.2-0.5-0.1-0.8c0-0.1,0-0.1,0-0.2c0-0.1,0-0.1,0-0.2c0,0,0-0.1,0.1-0.1v-0.1c0-0.1,0-0.1-0.1-0.2
			c0-0.1-0.1-0.1-0.1-0.2c0-0.1,0-0.1,0-0.2c0-0.1,0-0.2-0.1-0.3s0-0.3-0.1-0.4c0-0.1,0-0.2,0-0.3c0.2,0,0.3-0.1,0.5-0.1
			c0.5-0.1,1-0.2,1.5-0.3c0.3-0.1,0.5-0.1,0.8-0.2l0,0v0.1c0,0.1,0.1,0.1,0.1,0.2c0,0.1,0,0.1,0,0.1
			C106.3,46.1,106.3,46.1,106.3,46.1z"/>
		<path class="st1" d="M77.9,67.6c0,0.1,0.1,0.2-0.1,0.2c0,0.4-0.1,0.5-0.2,0.8c-0.1,0.1-0.1,0.2-0.1,0.4c-0.1,0.1-0.2,0.2-0.2,0.4
			c-0.1,0.2,0.1,0.2,0.1,0.3c0,0.1-0.1,0.3-0.1,0.4c-0.1,0.2,0,0.4,0.1,0.6c0,0.1,0,0.1-0.1,0.2s-0.2,0.1-0.2,0.2s0.1,0.2,0.1,0.4
			c0,0.3-0.6,0-0.6,0.3c0,0.1,0.1,0.1,0.1,0.2s0,0.1,0,0.2c-0.1,0.2-0.1,0.4-0.4,0.4c-0.2,0-0.4-0.1-0.6-0.1s-0.3,0.2-0.4,0.4
			c0,0.1-0.1,0.2-0.2,0.3L75,73.1c-0.2,0-0.2,0-0.3-0.2c-0.1-0.1-0.2-0.2-0.3-0.3c-0.1-0.2,0-0.6-0.1-0.8c0-0.1,0-0.3-0.1-0.4
			s-0.2-0.2-0.3-0.3c0-0.1,0-0.3-0.1-0.4s-0.3,0-0.4,0c-0.2-0.1-0.4-0.4-0.6-0.6s-0.5-0.2-0.4-0.6c0-0.1,0.1-0.1,0.1-0.2
			s0-0.1,0-0.2s0-0.2,0.1-0.4c0.1-0.2,0.1-0.6,0-0.8c-0.1-0.3-0.4-0.3-0.6-0.1c-0.1,0.1-0.1,0.1-0.3,0c-0.1-0.1-0.2-0.2-0.2-0.3
			c0-0.2-0.1-0.5-0.2-0.7c-0.1-0.1-0.2-0.1-0.3-0.2c-0.1-0.1-0.2-0.2-0.2-0.3c-0.1-0.2-0.4-0.2-0.6-0.5c-0.2-0.2-0.3-0.4-0.3-0.7
			c0-0.2-0.2-0.5-0.2-0.7c0-0.1,0.1-0.2,0.1-0.4c0-0.1-0.1-0.3-0.1-0.4l0,0c0.1-0.2,0.3-0.4,0.5-0.5c0.3-0.2,0.4-0.2,0.4-0.6
			c0-0.3,0.2-0.5-0.1-0.7c0.1-0.5,0.3-0.7,0.8-0.8c0.2-0.1,0.3-0.2,0.5-0.3s0.2-0.2,0.3-0.4c0-0.1,0.1-0.2,0.1-0.3s0-0.3-0.1-0.4
			c0-0.1,0-0.3,0-0.4c0-0.1-0.2-0.2-0.3-0.3c-0.1-0.1-0.1-0.2-0.2-0.3s-0.2-0.2-0.3-0.2c-0.1-0.1-0.1-0.2-0.2-0.3l5.7-0.5
			c0,0.3,0,0.6,0.2,0.8c0.1,0.2,0.2,0.4,0.3,0.6v0.1c0.2,1.8,0.4,4.2,0.6,5.8c0,0.5,0.2,1.2,0.1,1.7c-0.1,0.2-0.2,0.3-0.1,0.5
			s0.2,0.2,0.3,0.4C77.9,67.3,77.9,67.6,77.9,67.6z"/>
		<path class="st1" d="M71.6,43c-0.5,0.4-1.1,0.5-1.6,0.9c-0.2,0.2-0.3,0.4-0.5,0.6c-0.2,0.2-0.4,0.3-0.6,0.5
			c-0.4,0.3-0.8,0.7-1.2,1.1c-0.2,0.2-0.2,0.3-0.1,0.3h-0.1c-0.4,0-0.3,0.5-0.3,0.7c0,0.3,0,0.5,0,0.8s0.1,0.4-0.2,0.5
			c-0.3,0.2-0.7,0.5-0.7,0.9c0,0.1-0.1,0.3,0,0.4c0.1,0.1,0.2,0.1,0.3,0.2c0.1,0.1,0,0.2,0,0.4c-0.1,0.1-0.1,0.2-0.1,0.4
			c0,0.3,0,0.6-0.1,0.8c0,0.1,0,0.3,0,0.4c0.1,0.1,0.2,0.1,0.3,0.2c0.1,0.1,0.2,0.2,0.3,0.2c0.1,0,0.3,0,0.4,0.1
			c0.1,0,0.2,0.1,0.4,0.1c0.1,0,0.2-0.1,0.4,0.1c0.1,0.1,0.1,0.2,0.2,0.3s0.2,0.2,0.2,0.3c0.1,0.1,0.2,0.2,0.3,0.3
			c0.1,0.1,0.1,0.2,0.2,0.3c0.1,0.2,0.4,0.3,0.6,0.5c0.1,0.1,0.1,0.2,0.1,0.4c0,0.1,0.1,0.1,0,0.2c0,0.1-0.1,0.1-0.1,0.2
			c0,0.1,0,0.2,0,0.3c0,0,0,0,0,0.1c-1.6,0.3-8.1,0.3-9.9,0.3v-4.9c-0.2-0.2-0.4-0.4-0.5-0.6c-0.1-0.2-0.1-0.3-0.1-0.5
			c0-0.3,0.2-0.5,0.2-0.7c0-0.1,0-0.3,0-0.4c-0.1-0.1-0.1-0.3-0.2-0.4c0-0.1-0.1-0.1-0.1-0.2c0-0.1,0-0.1,0-0.2c0-0.1,0-0.2,0-0.2
			c0-0.1-0.1-0.1-0.1-0.2c0-0.1,0-0.3,0-0.4c0-0.1,0.1-0.1,0.1-0.2c0-0.1,0-0.1,0-0.2c0-0.1,0-0.2,0-0.3c-0.1-0.2-0.2-0.3-0.1-0.5
			c0-0.1,0.1-0.2,0.1-0.2c0-0.1,0.1-0.1,0.1-0.2c0-0.1,0-0.2-0.1-0.2c0-0.1,0-0.1-0.1-0.1c0,0,0-0.1-0.1-0.1
			c-0.2-0.6-0.2-0.6-0.3-0.7c0-0.1,0-0.2,0-0.2c0-0.1-0.1-0.2-0.2-0.2c0-0.1,0-0.2,0-0.2c0-0.2,0-0.4,0-0.6c0-0.1,0-0.3,0-0.5
			c0-0.1,0-0.1-0.1-0.2l0,0c0,0,0-0.1-0.1-0.1c0-0.1-0.1-0.3,0-0.3c0-0.1,0-0.2,0-0.3c0.1-0.1,0.1-0.2,0.1-0.3s0-0.2,0-0.2
			c0-0.1-0.1-0.2-0.1-0.2c0-0.1-0.1-0.1-0.1-0.2v-0.1c0-0.1,0-0.2-0.1-0.2c0.7,0,1.3,0,2,0c0.2,0,0.5,0,0.7,0s0.3,0,0.5,0
			s0.2,0,0.2,0.2c0,0.1,0,0.3,0.2,0.2c0.1-0.1,0.1-0.3,0.3-0.3c0.2-0.1,0.4-0.1,0.5,0.1c0.1,0.2,0,0.3,0.2,0.4
			c0.1,0,0.3-0.1,0.5,0.1c0.2,0.2,0.3,0,0.4,0c0.2,0,0.3,0.2,0.4,0.3s0.2,0.1,0.3,0.3c0.1,0,0.2-0.1,0.2-0.1
			c0.1-0.1,0.3-0.2,0.5-0.2s0.3,0.1,0.5,0.2c0.1,0,0.3,0,0.4,0.1s0.1,0.2,0.3,0.2c0.1,0,0.2,0,0.3,0.1c0.1,0.1,0.1,0.2,0.2,0.3
			s0.2,0,0.3,0c0.2-0.1,0.5,0.2,0.7,0.3c0.1,0.1,0.2,0.1,0.3,0.2c0.1,0,0.2,0,0.4,0.1c0.1,0.1,0.2,0.1,0.3,0
			c0.1-0.1,0.1-0.2,0.2-0.2c0.1-0.1,0.2,0,0.4-0.1c0.1,0,0.2-0.1,0.3-0.1c0.2,0,0.2,0.1,0.3,0c0.1,0,0.1-0.1,0.1-0.1
			c0.1,0,0.1,0.1,0.2,0.1c0.2,0,0.2-0.1,0.4,0c0.2,0.1,0.2,0.1,0.4,0.1c0.1,0,0.3,0.1,0.4,0.2C71.5,42.7,71.8,42.8,71.6,43z"/>
		<path class="st1" d="M34.1,60.8l-1.4,11c-3.5-0.4-7.1-1-10.4-1.6l2.3-13.5c1.9,0.3,3.9,0.5,5.9,0.7l-0.4,2.9
			C30,60.3,31.7,60.5,34.1,60.8z"/>
		<path class="st1" d="M90.4,73.6c-0.1,0.1-0.1,0.1-0.1,0.2s-0.2,0.1-0.2,0.1C90,74,90,74,89.9,74.1s-0.1,0.1-0.1,0.2
			c-0.1,0.1-0.1,0.1-0.2,0.1s-0.2,0.1-0.2,0c0,0,0-0.1,0-0.2s0.1-0.3-0.1-0.3c-0.1,0-0.2,0.2-0.3,0.3c-0.1,0.1-0.1,0.3-0.1,0.4
			s-0.1,0.3-0.3,0.3c-0.1,0-0.3,0.1-0.4,0.2c-0.1,0-0.1,0.1-0.2,0.2c0,0,0,0.1-0.1,0.1c0,0-0.1,0-0.1,0.1c-0.1,0-0.1,0-0.2,0
			s-0.1,0-0.2,0s-0.1,0-0.2,0s-0.1,0.1-0.2,0.1c-0.1,0.1-0.2,0.2-0.3,0.4c-0.1,0.1-0.1,0.2-0.2,0.3c-0.1,0.1-0.3,0.1-0.3,0.3
			c0,0.1,0,0.1,0,0.2s-0.1,0.1-0.1,0.2c-0.1,0.1,0,0.2,0,0.3v0.1c-0.9,0.1-1.8,0.2-2.8,0.3c-1.9,0.2-3.9,0.4-5.6,0.5
			c-2.3,0.2-4.1,0.3-4.6,0.3l0,0c0.1-0.1,0.2-0.1,0.3-0.2c0.1-0.1,0.1-0.2,0.1-0.3c0-0.1,0-0.3,0-0.4c0-0.2,0.1-0.2,0.2-0.3
			c0.1-0.1,0.1-0.3,0.1-0.4s0.1-0.2,0.2-0.3c0.2-0.2,0.4-0.5,0.4-0.8v-0.1c0-0.3,0-0.5,0-0.8c0-0.1,0.1-0.2,0.2-0.3c0,0,0,0,0-0.1
			l0,0l0,0c0.7,0,3.2-0.1,3.2-0.1v-0.7c2,0,5.1-0.3,8.4-0.7c1.1-0.1,2.3-0.3,3.5-0.5h0.1c0.1,0,0.3,0,0.4-0.1L90.4,73.6z"/>
	</g>
	<g>
		<path class="st1" d="M45.6,73l-0.1,1.5l-0.7,12L36.4,86l0,0c0,0,0,0,0,0.1l0,0l0,0l0,0l0,0l0,0c0,0,0.1,0,0.1,0.1l0,0l-4-0.4l0,0
			l0.1,1.4l0,0L30.8,87l1.9-15.1C37.1,72.4,41.5,72.7,45.6,73z"/>
		<path class="st1" d="M111,53.7c0,0.1-0.2,0.3-0.3,0.4c-0.2,0.1-0.3-0.1-0.4-0.2c-0.1-0.2-0.1-0.2-0.3-0.1
			c-0.1,0.1-0.2,0.2-0.3,0.4c0,0.1,0,0.1,0,0.2c-0.7-0.5-0.9-1.2-0.9-1.2c-0.1,0-0.5,0.1-1,0.2c-1.2,0.3-3.1,0.7-3.5,0.8v-0.1
			c0-0.1,0-0.1,0-0.2c0-0.1,0.1-0.3,0.1-0.4c0-0.4,0-0.7,0-1l0,0l0,0c0.2-0.1,0.9-0.2,1.5-0.3c0.8-0.2,1.8-0.4,2.1-0.5
			c0.1,0,0.2-0.1,0.2-0.1c0.1-0.1,0.2-0.2,0.3-0.3c0.1-0.1,0.2-0.2,0.3-0.3c0.1,0,0.2-0.2,0.3-0.2c0,0.1,0,0.2,0,0.3
			c0,0.2,0.1,0.3,0.2,0.4c0.1,0.1,0.3,0.1,0.1,0.2c-0.2,0.1-0.3,0.1-0.3,0.4c0,0.1-0.1,0.4,0,0.5s0.4,0.1,0.5,0.2
			c0.1,0.1,0.1,0.3,0.2,0.4c0.1,0.1,0.3,0.1,0.4,0.2c0.1,0.1,0.1,0.3,0.3,0.3C110.9,53.5,111.1,53.5,111,53.7z"/>
		<path class="st1" d="M103,60.2L103,60.2l-0.1,0.2c0,0.1-0.1,0.1-0.2,0.2c-0.1,0.1-0.1,0.1-0.2,0.2c-0.1,0.1-0.1,0.1-0.2,0.2
			l-0.1,0.1c0,0,0,0-0.1,0s-0.2,0-0.3-0.1c-0.1,0-0.2,0-0.2,0c-0.1,0.1-0.2,0.1-0.3,0.1c-0.1,0-0.1,0-0.1,0.1v0.1l-0.1,0.1l-0.1,0.1
			l-7,1.3l-1.9,0.3l-0.4-2.5l-0.7-4c0.1,0,0.2,0,0.4-0.1c0.2-0.1,0.2-0.2,0.3-0.3c0.1-0.1,0.2-0.2,0.3-0.3c0.1-0.1,0.2-0.1,0.3-0.1
			l0.1,1.1c0,0,6.7-1.4,8.4-1.9c0,0,0,0,0.1,0s0.1,0,0.2,0s0.1,0.1,0.2,0.1s0.1,0,0.2,0.1c0.1,0,0.2,0,0.2,0.2c0,0.1,0,0.3,0,0.4
			c0,0.1,0.1,0.1,0.1,0.2c0,0,0,0.1,0.1,0.1h0.1c0.1,0,0.1,0,0.2,0.1c0.1,0,0.1,0.1,0.2,0.2c0.1,0,0.3,0,0.3,0.1s0,0.1,0,0.2
			c-0.1,0.1-0.2,0.2-0.2,0.3s0,0.2,0,0.3s-0.1,0.1-0.1,0.2c0,0.1-0.1,0.2-0.1,0.3c-0.1,0.1-0.1,0.1-0.1,0.3s0.1,0.4,0,0.6
			c0,0.1,0,0.2,0.1,0.3s0.1,0.1,0.2,0.2c0.1,0.1,0.1,0.4,0.3,0.4c0.1,0.2,0.1,0.4,0.1,0.5C103,60,103,60.1,103,60.2z"/>
		<path class="st1" d="M94.7,84.2L94.7,84.2c-0.1,0.1-0.1,0.1-0.2,0.1v0.1c0,0.1-0.1,0.1-0.2,0.1c-0.1,0-0.2-0.1-0.3,0.1
			c-0.1,0.2,0,0.1,0.1,0.2s0,0.4-0.2,0.5c0,0.1,0.1,0.2,0.1,0.2c-0.1,0-0.3,0.1-0.3,0.3c0,0.2,0.2,0.2,0.2,0.4
			c0,0.2-0.1,0.2-0.3,0.4c-0.1,0.1-0.2,0.1,0,0.2c0.1,0,0.2,0,0.3,0c-0.1,0.2-0.1,0.4-0.1,0.6v0.1c-0.1,0.1-0.2,0.2-0.3,0.3
			c-0.1,0.1-0.3,0-0.5,0c-0.2-0.1-0.3,0-0.4,0.2s0,0.3,0,0.5s-0.1,0.4-0.3,0.3c-0.2,0-0.2-0.2-0.3-0.3c-0.1,0-0.2,0-0.3,0L85.9,89
			h-0.1c0,0,0,0,0.1,0s0.1,0,0.2,0l0,0l0,0l0,0l0,0c-0.2,0-0.3-0.4-0.4-0.6c0-0.1,0-0.1,0-0.2s0-0.1-0.1-0.2s-0.1-0.2-0.1-0.3
			c0-0.1,0-0.2,0-0.2c0-0.1-0.1-0.1-0.1-0.2s0-0.2-0.1-0.3c-0.1-0.1-0.1-0.2-0.1-0.3c0-0.1,0-0.3,0.1-0.3c0.1-0.2,0.1-0.2,0.1-0.4
			c0-0.1,0-0.3,0-0.4s-0.1-0.2-0.1-0.3c0-0.2,0.2-0.5,0.1-0.7c-0.1-0.1-0.2,0-0.2-0.1s0.1-0.1,0-0.2c0-0.2-0.1-0.1-0.2-0.1
			c-0.2-0.1-0.3-0.3-0.2-0.5L83.3,78c1-0.1,1.9-0.2,2.8-0.3c1.1-0.1,2-0.3,2.7-0.5c-0.1,0.1-0.2,0.2-0.2,0.3c0,0.1,0,0.2-0.1,0.2
			c-0.1,0.1-0.1,0.2-0.1,0.3c0.1,0.2,0.1,0.4,0.3,0.5c0.1,0,0.2,0,0.4,0c0.1,0.1,0.1,0.1,0.2,0.2s0.1,0,0.2,0.1s0.2,0.2,0.3,0.3
			c0.1,0.2,0.3,0.3,0.4,0.6c0.1,0.3,0.1,0.3,0.4,0.5c0.2,0.1,0.2,0.3,0.4,0.4c0.2,0.1,0.3,0.2,0.5,0.4c0.3,0.2,0.4,0.5,0.8,0.7
			c0.1,0.1,0.2,0.1,0.3,0.2c0.1,0.1,0.2,0.2,0.4,0.2c0.1,0.1,0.1,0.2,0.2,0.3c0,0.1,0,0.1,0.1,0.2c0,0.1,0.1,0.1,0.1,0.2
			c0.1,0.1,0.1,0.2,0.1,0.3c0.1,0.1,0.1,0.1,0.2,0.1c0.1,0.1,0.1,0.1,0.1,0.2c0.1,0.1,0.1,0.1,0.2,0.1c0,0.1,0.1,0.1,0.1,0.2
			s0,0.2,0.1,0.3c0.2,0.1,0.2,0.1,0.4,0.2C94.6,84.3,94.7,84.3,94.7,84.2C94.6,84,94.7,84.1,94.7,84.2z"/>
		<path class="st1" d="M71.9,60c0,0.1-0.1,0.2-0.1,0.3c-0.1,0.2-0.1,0.3-0.3,0.4c-0.2,0.1-0.3,0.2-0.5,0.3c-0.4,0.1-0.7,0.3-0.8,0.8
			c0.3,0.2,0.1,0.4,0.1,0.7c0,0.4-0.1,0.4-0.4,0.6c-0.1,0.1-0.4,0.3-0.5,0.5l0,0c-0.1,0-0.1-0.1-0.1-0.1s-0.1,0-0.1-0.1l-0.1-0.1
			L69,63.2l-8,0.3l0,0c0-0.2-0.1-0.3-0.3-0.4c-0.2-0.2-0.1-0.3-0.1-0.5c0-0.1-0.1-0.2-0.1-0.3c-0.1-0.2,0.1-0.4-0.1-0.6
			c-0.1-0.1-0.2-0.2-0.2-0.3s0-0.2,0-0.3c0-0.3-0.1-0.3-0.3-0.4c0.1-0.1,0-0.3,0-0.5s-0.1-0.3-0.2-0.4c0-0.1,0-0.2,0-0.3
			s0-0.1-0.1-0.2c-0.1-0.1,0-0.2,0-0.4s-0.2-0.2-0.2-0.4c0-0.1,0-0.2,0-0.4c0-0.1,0-0.2-0.1-0.3v-0.1l0,0c0,0,0,0,0-0.1
			s-0.1-0.2-0.1-0.4c0-0.1,0-0.1,0-0.2v-0.2c0-0.1,0-0.1-0.1-0.2c0-0.1,0-0.1,0-0.2c0-0.1,0-0.1,0.1-0.2c0-0.1,0.1-0.1,0.1-0.2
			c0-0.1-0.1-0.1-0.1-0.2c0-0.1-0.1-0.1,0-0.2c0-0.1,0.1-0.1,0.1-0.2c0-0.1,0-0.1,0-0.2c0,0,0.2,0,0.5,0c1.8,0,8.4,0,9.9-0.3
			c0,0.2,0.1,0.4,0.1,0.5c0.1,0.1,0.1,0.2,0.1,0.4s-0.1,0.2-0.2,0.3c-0.1,0.3,0.2,0.5,0.3,0.7c0,0.1,0,0.3,0.1,0.4
			c0.1,0.1,0.3,0,0.4,0.1c0.2,0,0.2,0.2,0.3,0.3c0,0.1,0.1,0.2,0.2,0.3s0.2,0.1,0.3,0.2c0.1,0.1,0.1,0.2,0.2,0.3s0.2,0.1,0.3,0.3
			c0,0.1,0,0.3,0,0.4C71.8,59.7,71.9,59.8,71.9,60z"/>
		<path class="st1" d="M18.8,55.7c-2.1-0.4-4.1-0.9-5.9-1.3l-1.8,7.3l-0.2,0.7l9.3,13v-0.1c0-0.1,0-0.1,0-0.2s0-0.1,0-0.2
			s0-0.1,0-0.2s0.1-0.1,0.1-0.1c0.1-0.1,0.1-0.2,0-0.4c-0.2-0.1,0.1-0.5,0.1-0.6s-0.1-0.2,0-0.3c0-0.1,0.1-0.1,0.2-0.2
			c0.1-0.2-0.1-0.5,0-0.7c0.1-0.1,0.2-0.1,0.3,0c0.1,0.1,0.2,0.1,0.3,0.1c0.2,0,0.2,0.1,0.2,0.2c0.1,0.1,0.1,0.1,0.2,0
			s0.2,0,0.3-0.1c0.1,0,0.1-0.1,0.1-0.1l0,0c0,0,0,0,0-0.1l0,0v-0.1v0.2l0.4-2.2l2.3-13.5C22.5,56.4,20.6,56.1,18.8,55.7z
			 M21.9,72.3L21.9,72.3L21.9,72.3z"/>
		<path class="st1" d="M31.5,50.5L31.5,50.5l-1,6.9l-0.4,2.9c0,0,1.7,0.3,4,0.6C37,61.3,41,61.8,44.2,62l0.4-5.6l0.4-5.5l-13.4-1.3
			L31.5,50.5z"/>
		<path class="st1" d="M73.2,75.1c0-0.1,0.1-0.1,0.1-0.2s0-0.1,0-0.2s-0.1-0.2-0.1-0.3l0,0c-0.3,0-7.8,0.5-9.5,0.5l0.3,7.7l0,0
			c0,0.1,0.1,0.1,0.1,0.2c0.1,0,0.2-0.1,0.2-0.1c0.1,0,0.1,0,0.2-0.1s0.3-0.2,0.4-0.1l0.1,1.8l6.5-0.3l0,0v-0.1c0-0.1,0-0.2,0.1-0.3
			c0.2-0.3,0-0.2-0.2-0.4c0-0.2,0.4-0.4,0.2-0.6c-0.1-0.2-0.3,0.1-0.4,0.2c-0.2-0.2,0.1-0.5,0.1-0.7s0.1-0.2,0.2-0.3
			c0.1-0.1,0.1-0.2,0.1-0.3c0-0.1,0-0.3,0-0.4c0-0.2,0.1-0.1,0.2-0.2c0.2-0.1-0.1-0.6,0.2-0.6c0-0.1,0.2-0.2,0.3-0.1
			c0.2,0,0.2-0.5,0.2-0.6c0,0,0-0.2,0.1-0.2s0.1,0,0.1,0c0.1-0.1,0.1-0.2,0.1-0.3c0-0.2,0.1-0.5,0.3-0.7l0,0
			c0.1-0.1,0.2-0.1,0.3-0.2c0.1-0.1,0.1-0.2,0.1-0.3c0-0.1,0-0.3,0-0.4c0-0.2,0.1-0.2,0.2-0.3c0.1-0.1,0.1-0.3,0.1-0.4
			s0.1-0.2,0.2-0.3c0.2-0.2,0.4-0.5,0.4-0.8c-0.4,0.1-0.7,0.1-1.1,0.1C72.8,75.8,73.1,75.3,73.2,75.1z"/>
		<path class="st1" d="M63.1,67.3c-0.1-0.1-0.2-0.2-0.3-0.3c-0.1-0.1-0.2-0.1-0.3-0.2c0-0.1,0-0.2,0-0.3c0-0.1,0-0.2,0-0.3
			c0.1-0.2,0.2-0.4,0.1-0.6c-0.1-0.2-0.4,0-0.5-0.2c-0.1,0-0.1-0.1-0.1-0.2c-3.8,0.3-11.9-0.2-13.9-0.4L47.7,73
			c8.4,0.5,15,0.5,15.9,0.5l-0.2-5.7C63.4,67.5,63.2,67.4,63.1,67.3z"/>
	</g>
	<path class="st1" d="M66.1,89.6C66.1,89.6,66.1,89.5,66.1,89.6C66,89.4,66,89.4,66,89.4c0-0.1,0.1-0.3,0-0.4c0-0.1-0.1-0.2-0.1-0.3
		c-0.1-0.1-0.1-0.1-0.2-0.2l-0.1-0.1l-0.1-0.1c0-0.1-0.1-0.1-0.1-0.2s0-0.2,0-0.2c-0.1-0.1-0.1-0.1-0.2-0.3c0-0.1,0-0.1-0.1-0.2
		s-0.2-0.3-0.2-0.4l-0.1-2.5l0.1-2c-0.1-0.1-0.3,0-0.4,0.1c-0.1,0-0.1,0-0.2,0.1c-0.1,0-0.1,0.1-0.2,0.1S64,82.7,64,82.6l0,0
		c0,0,0,0-0.1-0.1s-0.1-0.1-0.2-0.2s-0.1,0-0.2,0c-0.2,0-0.2-0.2-0.3-0.2c-0.1,0-0.1,0-0.2,0S62.9,82,62.8,82
		c-0.1-0.1-0.2-0.1-0.4-0.1c-0.1,0-0.2,0-0.2,0c-0.1,0-0.1,0.1-0.2,0.1c-0.2,0-0.2-0.1-0.4-0.1c-0.3,0-0.5,0.1-0.8,0.1
		c-0.2,0-0.3,0.1-0.5,0.1s-0.3,0-0.5,0s-0.3,0-0.4-0.1c-0.1-0.1-0.3-0.1-0.4,0c-0.1,0-0.2,0.1-0.2,0.1c-0.1,0-0.1-0.1-0.2-0.1
		c-0.1,0-0.2,0-0.2,0c-0.1,0-0.1-0.1-0.2,0c-0.1,0-0.2,0.2-0.4,0.2c-0.1,0-0.3,0-0.4-0.1c0-0.1-0.1-0.1-0.1-0.2
		c-0.1-0.1-0.1-0.2-0.3-0.1c-0.1,0.1-0.3,0.3-0.4,0.2c-0.1,0-0.2-0.3-0.3-0.4s-0.1-0.2-0.2-0.2c-0.1,0-0.1,0-0.2,0
		c-0.1,0-0.1,0-0.2,0c-0.1,0-0.2,0-0.2,0c-0.1,0-0.2-0.1-0.3-0.1l-0.1-0.1c-0.1,0-0.1,0-0.2,0c-0.1-0.1-0.3,0-0.4,0
		c-0.1,0-0.1,0-0.2,0c-0.1,0-0.2,0-0.3,0s-0.1,0-0.2-0.1c-0.1-0.2-0.1-0.4-0.3-0.5s-0.3,0-0.5,0s-0.2-0.2-0.4-0.1
		c-0.1,0-0.1,0.1-0.2,0c-0.1,0-0.1-0.1-0.1-0.2c-0.1-0.1-0.1,0-0.1-0.1S52,80,51.9,80c0,0,0,0-0.1,0c0,0,0,0,0-0.1l0.2-5.1
		c-0.3,0-5.1-0.2-6.4-0.2l-0.7,12l-8.4-0.5l0,0c0,0,0,0,0,0.1l0,0l0,0l0,0l0,0l0,0c0,0,0.1,0,0.1,0.1l0,0h0.1c0,0.1,0,0.1,0.1,0.2
		s0.1,0.2,0.2,0.2c0.1,0.1,0.1,0.2,0.1,0.3c0.1,0.2,0.3,0.2,0.4,0.5c0,0.1,0,0.2,0.2,0.2c0.1,0.1,0.2,0.1,0.3,0.2s0.2,0.3,0.3,0.5
		c0.1,0.1,0.1,0.1,0.2,0.2c0.1,0.1,0.2,0.1,0.2,0.3c0,0.1,0,0.2,0.1,0.3c0.1,0.1,0.2,0.1,0.3,0.2s0.1,0.2,0.1,0.3
		c0.1,0.1,0.2,0.1,0.3,0.1c0.2,0,0.2,0.1,0.3,0.2s0.2,0.1,0.2,0.2s0,0.3,0,0.4s0,0.3,0,0.4c0.1,0.2,0.3,0.4,0.3,0.7
		c0.1,0.3,0.1,0.6,0.3,0.8c0.1,0.2,0.3,0.4,0.4,0.6c0.1,0.2,0.4,0.4,0.6,0.6c0.1,0.1,0.2,0.2,0.4,0.3c0.1,0.1,0.3,0.1,0.4,0.2
		c0.1,0.1,0.3,0.1,0.4,0.2c0.1,0.1,0.2,0.2,0.3,0.3c0.2,0.2,0.6,0.3,0.9,0.2c0.3-0.1,0.3-0.5,0.4-0.7c0.1-0.1,0.2-0.2,0.3-0.3
		c0.1-0.1,0.1-0.2,0.2-0.4c0.1-0.3,0.2-0.5,0.5-0.6c0.2-0.1,0.4-0.2,0.7-0.2c0,0,0,0,0.1,0s0.1,0.1,0.1,0.1c0.1,0,0.2,0,0.2,0
		c0.1,0,0.1,0,0.2,0c0.1,0,0.1,0,0.2,0c0.1,0,0.1,0.1,0.2,0.1c0.1,0,0.1,0,0.2,0c0.1,0,0.2-0.1,0.2,0c0.1,0,0.1,0.1,0.2,0.1
		c0.1,0,0.1,0,0.2,0c0.1,0,0.1,0.1,0.1,0.1c0.1,0.1,0.1,0.3,0.3,0.3s0.3,0.1,0.4,0.2c0.1,0.1,0.2,0.2,0.3,0.3c0.1,0,0.1,0.1,0.1,0.1
		c0,0.1,0,0.1,0.1,0.2c0,0.1,0.1,0.1,0.2,0.2c0.1,0,0.2,0,0.2,0.1c0-0.2,0-0.1,0,0s0.2,0.1,0.2,0.2s0,0.1,0.1,0.1v0.1
		c0,0.1,0,0.2,0.1,0.3c0.1,0.1,0.2,0.2,0.3,0.4c0.1,0.1,0.1,0.2,0.1,0.3c0,0.1,0.1,0.2,0.1,0.3c0,0.1,0.1,0.2,0.2,0.3v0.1
		c0,0.1,0.1,0.1,0.1,0.2c0.1,0.1,0.2,0.1,0.3,0.2s0,0.2,0.1,0.3c0,0,0.1,0,0.1,0.1c0,0,0,0.1,0.1,0.1c0,0.1,0.1,0.2,0.2,0.2
		c0,0.1,0.1,0.2,0.1,0.3c0,0.1,0.1,0.2,0.2,0.2c0.1,0.1,0.2,0.1,0.3,0.2s0.1,0.2,0.2,0.3c0.1,0.1,0.1,0.2,0.2,0.3c0,0.1,0,0.2,0,0.3
		c0,0.1,0,0.2,0,0.2c0,0.1,0,0.1,0,0.1c0,0.1-0.1,0.2,0,0.3c0.1,0.1,0,0.1,0.1,0.2c0,0.1,0.1,0.1,0.2,0.2c0,0.1,0,0.1,0.1,0.2
		c0,0.1,0.1,0.1,0.2,0.2c0.2,0.1,0.2,0.3,0.2,0.5c0,0.1,0,0.1,0,0.2s0,0.2,0.1,0.2l0,0c0.1,0,0.1,0,0.2,0.1c0.1,0,0.1,0.1,0.2,0.1
		c0.1,0,0.1,0.1,0.2,0.1l0.1,0.1c0.1,0.1,0.3,0.1,0.4,0.3c0,0.1,0.1,0.1,0.2,0.1c0.1,0,0.1,0,0.2-0.1c0.1,0,0.1-0.1,0.2-0.1
		c0.1,0,0.2,0,0.2,0c0.1,0,0.1,0,0.2,0.1l0.1,0.1c0.1,0,0.1,0,0.1,0.1s0,0.1,0.1,0.1c0.1,0.1,0.2,0.1,0.3,0.1s0.1,0,0.2,0l0.1,0.1
		c0.2,0.1,0.4-0.1,0.5,0.1c0.1,0.1,0.2,0.1,0.4,0.2c0.1,0,0.1,0,0.1,0.1l0.1,0.1c0.1,0,0.1,0,0.1,0h0.1l0.1-0.2c0-0.1,0-0.1-0.1-0.2
		s-0.1-0.3-0.2-0.4c-0.1-0.1-0.2-0.2-0.2-0.3c-0.1-0.2,0-0.2,0-0.4c0.1-0.3,0.1-0.6,0-0.9c0-0.1-0.4-0.8,0-0.7
		c0.1,0.5,0.1,1,0.2,1.5c0,0.1,0.4,1,0.5,0.9c0.2-0.2-0.3-1.2-0.3-1.4c-0.2-1,0.2-1.9,0.5-2.9c-0.4,0-0.4,0.2-0.5,0.5
		c-0.1,0.2-0.1,0.4-0.2,0.6c-0.1,0.1-0.2,0.4-0.3,0.2c0-0.1,0-0.1,0-0.2s0.1-0.2,0.1-0.3c0.1-0.3,0.3-0.5,0.2-0.8
		c0-0.1-0.1-0.2-0.2-0.3c-0.1-0.1-0.2-0.1-0.1-0.2c0-0.2,0.2-0.3,0.3-0.5c0.1-0.1,0.1-0.2,0.2-0.3c0.1-0.1,0.2,0,0.2,0.1
		c0.1,0,0.2,0,0.2-0.1l0.1-0.1l0.1-0.1c-0.1,0.1,0,0.2,0,0.3c0,0.1-0.2,0.2-0.3,0.3c-0.1,0-0.1,0-0.2,0c-0.1,0-0.1,0-0.2,0
		c0,0.1,0,0.2,0,0.3c0,0.1,0,0.2,0.1,0.1c0-0.1,0-0.1,0.1-0.2c0.2-0.1,0,0.4,0,0.4c0.3,0.1,0.6-0.4,0.8-0.6c0.2-0.1,0.8-0.4,0.8-0.7
		c-0.1,0-0.2,0-0.2,0.1c-0.1-0.1-0.3-0.1-0.3-0.2c0-0.2,0.3-0.2,0.4-0.3c0.2-0.2-0.1-0.1-0.1-0.3c0-0.2,0.2-0.3,0.3-0.1
		c0.2,0,0.2-0.3,0.4-0.3c0,0.2,0,0.4,0.2,0.3s0.4-0.4,0.6-0.2c-0.1,0.1-0.1,0.2-0.3,0.3c-0.1,0.1-0.4,0.1-0.5,0.2
		c-0.2,0.3,0.4,0,0.5-0.1c0.1,0,0.3,0,0.4,0c0.1-0.1,0.1-0.2,0.2-0.3c0.2-0.2,0.4-0.3,0.6-0.4c0.2-0.1,0.5-0.2,0.6-0.5
		c-0.1,0-0.1,0-0.2,0c0-0.2,0.3-0.6,0.5-0.6c0,0.1-0.2,0.4,0,0.3c0.1,0,0.2-0.2,0.2-0.3c0.2-0.2,0.3-0.3,0.1-0.5
		c-0.1-0.1-0.2-0.1-0.2-0.3c0-0.2,0.1-0.2-0.1-0.3c-0.1-0.1-0.2-0.1-0.2-0.3c0-0.1,0.1-0.2,0.2-0.2c0.2,0.1,0.2,0.7,0.4,0.2
		c0.3,0,0.4,0,0.3,0.3s0,0.3,0.3,0.3c0,0.1,0,0.2-0.1,0.3c0.2,0,0.4-0.2,0.6-0.3c0.3-0.1,0.6-0.2,0.9-0.3c0.2-0.1,0.3-0.1,0.5-0.1
		l0,0l0.1-0.1c0,0,0,0,0-0.1l0.1-0.1c0.1-0.1,0-0.2,0-0.3v-0.1c0-0.1,0.1-0.1,0.1-0.1c0.1-0.1,0.1-0.2,0.1-0.3
		c0-0.1-0.1-0.2-0.2-0.3c0-0.1-0.1-0.2-0.1-0.3c0-0.1,0.1-0.2,0.2-0.2c0-0.1,0-0.2,0-0.3c0-0.1,0-0.2,0-0.3c0-0.1,0-0.1,0.1-0.2
		l0.1-0.1c0-0.1,0-0.2,0-0.3c0-0.1,0.1-0.1,0.1-0.1v-0.1C66.2,89.8,66.2,89.7,66.1,89.6z"/>
	<path class="st1" d="M30.2,50.5c-0.4,0.1-0.8,0-1.2,0c-0.5,0-0.6,0-1-0.3c-0.2-0.1-0.2-0.3-0.4-0.5c-0.1-0.2-0.2-0.2-0.4-0.3
		c-0.3-0.2-0.2-0.4-0.1-0.7c0-0.3,0-0.5-0.1-0.7s-0.1-0.3-0.1-0.5c0-0.4-0.2-0.8-0.6-0.4c-0.2,0.2-0.2,0.2-0.4,0.1
		c-0.2-0.1-0.3-0.2-0.4-0.4c-0.3-0.3-0.3-0.7,0.1-1c0.1-0.1,0.3-0.2,0.4-0.3c0.1-0.2,0-0.4,0-0.6c0-0.2,0.1-0.3,0.1-0.5
		c0-0.4-0.7-0.3-1-0.5s-0.5-0.6-0.6-0.9c-0.2-0.4-0.3-0.7-0.3-1.1c0-0.2,0.1-0.2,0.2-0.4s0-0.2,0-0.4c0-0.1,0-0.2,0-0.3
		s-0.2-0.1-0.2-0.2c-0.1-0.2,0.1-0.7,0.1-1c0.1-0.3,0.1-0.6,0.2-0.9c0.1-0.4,0.2-0.8,0.2-1.2c-0.7-0.1-1.5-0.3-2.2-0.4L21,45l0,0
		c0.2,0.1,0.3,0.4,0.3,0.6c0,0.1,0,0.1,0,0.2c0.1,0.1,0.1,0.1,0.2,0.1c0.1,0.1,0.1,0.1,0.1,0.2c0,0.1,0,0.1,0,0.2
		c0,0.1,0,0.1-0.1,0.2c0,0,0,0,0,0.1s-0.1,0.1-0.2,0.1s-0.1,0.1-0.2,0.2c-0.1,0.1-0.2,0.2-0.2,0.3s0,0.3-0.2,0.4l0,0
		c-0.1,0.1-0.2,0.2-0.3,0.3c-0.1,0.1-0.1,0.2-0.1,0.4c0,0.1,0,0.1-0.1,0.1c0,0-0.1,0-0.1,0.1c-0.1,0-0.1,0.1-0.1,0.1
		c0,0.1-0.1,0.1-0.1,0.1c0,0.1-0.1,0.1-0.1,0.1c0,0.1,0,0.2,0,0.3c-0.1,0.1-0.1,0.3-0.1,0.4c0,0.1,0,0.1,0,0.2c0,0.1,0,0.2-0.1,0.2
		V50c0,0.1,0,0.1,0,0.2c0,0.1,0.1,0.1,0,0.2c0,0.1,0,0.1,0,0.1l-1.1,5.4c1.8,0.4,3.7,0.7,5.7,1c1.9,0.3,3.9,0.5,5.9,0.7l1-6.9l0,0
		c-0.1,0-0.6-0.1-0.7-0.1C30.5,50.4,30.4,50.4,30.2,50.5z"/>
	<path class="st1" d="M115,43.4c-0.1,0-0.2,0.4-0.3,0.4c-0.1,0-0.2,0-0.2-0.1s0.1-0.2,0.1-0.2c0-0.1,0-0.2-0.1-0.3s-0.2,0-0.2-0.1
		c-0.2-0.1,0.1-0.4-0.2-0.4c-0.1,0-0.2,0-0.3-0.1c0-0.1,0-0.2-0.1-0.2c-0.1-0.1-0.4,0-0.5-0.1c-0.2-0.1-0.3-0.2-0.3-0.4
		c0-0.1,0-0.2-0.1-0.2l-0.1-0.1c0,0-0.1-0.1-0.1,0c0-0.2,0.1-0.3,0-0.5c0-0.1,0-0.3-0.1-0.4c-0.1-0.3-0.2-0.6-0.3-0.9
		c-0.1-0.3-0.2-0.6-0.3-0.9c-0.1-0.3-0.2-0.6-0.4-0.8c-0.1-0.1-0.3-0.2-0.4-0.3s-0.3-0.3-0.4-0.2c-0.1,0-0.1,0.1-0.2,0.2
		c-0.1,0.1-0.1,0.1-0.2,0.2c-0.1,0.1-0.1,0.1-0.2,0.2c-0.1,0-0.2,0-0.3,0c-0.1,0-0.1,0.1-0.2,0.1c-0.2,0-0.3-0.2-0.4-0.4
		c-0.1-0.1-0.1-0.3-0.2-0.3c-0.2,0-0.3,0.2-0.3,0.4c-0.1,0.2-0.1,0.5-0.2,0.7c0,0.2-0.1,0.5-0.1,0.7c-0.1,0.4-0.3,0.9-0.4,1.3
		c0,0.1,0.1,0.3,0.1,0.4c0,0.1,0,0.2,0,0.3s0.1,0.2,0.1,0.3s-0.1,0.2,0,0.3c0,0.1,0.1,0.1,0.1,0.2c0,0.1,0,0.3,0,0.4
		c0,0.1,0,0.2-0.1,0.3s-0.1,0.1-0.2,0.2c0,0.1,0.1,0.2-0.1,0.2c0,0.2,0.3,0.6,0.1,0.7h-0.1c0,0,0,0.1,0,0.2c0,0.1,0,0.2-0.1,0.3
		c0,0.1-0.1,0.2-0.2,0.2s-0.1-0.2-0.2-0.2h-0.1l1.1,3.8c0,0.1,0,0.1,0.1,0.2c0,0.1,0.1,0.1,0.1,0.1c0,0.1,0,0.1,0,0.2l0.1,0.1
		c0.1,0.1,0.2,0.1,0.2,0.1c0.1,0.1,0.1,0.2,0.1,0.3s0.1,0.2,0.2,0.3s0.3,0.1,0.4,0.2c0-0.1,0-0.2,0-0.3c0-0.2,0.1-0.2,0.2-0.4
		c0.1-0.1,0.1-0.3,0.2-0.4c0.1-0.1,0.2-0.3,0.3-0.4c0.2-0.1,0-0.4,0.1-0.5c0.1,0,0.2,0.2,0.3,0.1v-0.2c0-0.1-0.1-0.1-0.1-0.2
		c0-0.1,0.1-0.1,0.2,0c0,0.1-0.1,0.2,0,0.3s0.1-0.1,0.1-0.2c0-0.1,0-0.2,0.1-0.3c0-0.1,0-0.2,0.1-0.2s0,0.2,0,0.3s0,0.3,0.1,0.3
		s0.1-0.2,0.1-0.3s0-0.3,0.1-0.4c0.1,0,0.1,0.1,0.2,0.2c0.1,0.7,0.6-0.4,0.2-0.5c-0.1,0-0.2,0.1-0.2,0s0.1-0.1,0.1-0.1
		c0.1-0.1,0-0.3-0.1-0.5c0-0.1-0.1-0.2,0-0.2s0.1,0.1,0.1,0.2c0.1,0.1,0.1-0.1,0.1-0.2c0-0.1-0.1-0.2-0.1-0.3c0.1-0.2,0.3,0,0.3,0.1
		s-0.1,0.1-0.1,0.2c0,0.1,0.1,0,0.2,0s0.5,0.3,0.4-0.1c-0.1-0.1-0.1-0.4,0.1-0.5s0.1,0.2,0.2,0.3c0.1,0.2,0.3,0.1,0.3-0.1
		c0-0.1-0.1-0.1-0.1-0.2c0-0.1,0-0.1,0.1-0.1s0.1,0.2,0.2,0.2s0.1-0.1,0.1-0.2c0-0.1-0.1-0.5,0.1-0.3c0.1,0.1,0,0.4,0.2,0.4
		c0-0.2,0-0.4,0-0.5s0.1-0.2,0.2,0c0,0.1,0,0.2,0.1,0.2s0.2-0.1,0.2-0.1c0.1-0.1,0.1-0.3,0.2-0.5c0.1-0.1,0.1-0.2,0.2,0
		c0,0.1,0,0.2,0.2,0.1c0-0.1,0-0.2,0-0.3s0.1-0.2,0.2-0.3C114.9,43.9,115.2,43.5,115,43.4z"/>
	<path class="st1" d="M103.2,70.2C103.1,70.2,103.1,70.2,103.2,70.2C103.1,70.2,103.1,70.2,103.2,70.2
		C103.1,70.2,103.1,70.2,103.2,70.2c-0.1,0-0.1,0-0.2,0c0,0,0,0-0.1,0h-0.1h-0.1l0,0h-0.1c-0.1,0-0.2,0-0.4,0.1c0,0,0,0-0.1,0
		s-0.2,0-0.3,0.1c-0.1,0-0.1,0-0.2,0h-0.1h-0.1h-0.1c0,0-0.1,0-0.2,0H101h-0.1c-0.2,0-0.5,0.1-0.8,0.1H100h-0.1h-0.1
		c-0.2,0-0.4,0.1-0.6,0.1c-0.1,0-0.1,0-0.2,0s-0.2,0-0.4,0.1c-0.1,0-0.3,0-0.4,0.1h-0.1c-0.5,0.1-1,0.2-1.5,0.3c-0.1,0-0.1,0-0.2,0
		s-0.3,0-0.4,0.1c-0.1,0-0.2,0-0.2,0h-0.1c-0.1,0-0.1,0-0.2,0c-0.2,0-0.4,0.1-0.7,0.1c-0.1,0-0.2,0-0.4,0.1h-0.1c-0.1,0-0.2,0-0.2,0
		c-0.1,0-0.1,0-0.2,0s-0.1,0-0.2,0c-0.2,0-0.4,0.1-0.5,0.1c-0.2,0-0.4,0.1-0.5,0.1h-0.1c-0.2,0-0.5,0.1-0.7,0.1l0,0
		c-0.1,0-0.1,0-0.2,0s-0.1,0-0.2,0c0,0,0,0-0.1,0c-0.2,0-0.4,0.1-0.6,0.1l0,0c-0.2,0-0.4,0.1-0.5,0.1s-0.3,0-0.4,0.1h-0.1
		c-0.1,0-0.3,0-0.4,0.1c-1,0.1-2,0.3-3.1,0.4l0,0l0,0l0,0l0,0l0,0l0,0l0,0l0,0l0,0l0,0l0,0l0,0l0,0l0,0c0.1-0.1,0.2-0.1,0.3-0.2
		c0.2-0.1,0.3-0.1,0.4-0.2c0,0,0,0,0.1,0s0.2-0.1,0.2-0.1l0,0l0,0l0,0l0,0l0,0l0,0l0,0l0.1-0.1l0,0l0,0l0,0l0,0l0,0l0,0l0,0
		c0.1,0,0.1,0,0.2,0l0,0l0,0l0,0l0,0l0,0l0,0l0,0l0,0l0,0l0,0l0,0c0.2-0.2,0.2-0.5,0.4-0.7l0,0l0,0c0,0,0,0,0.1-0.1l0,0l0,0l0,0l0,0
		l0,0l0,0l0,0l0,0l0,0l0,0l0,0l0,0l0,0l0,0l0,0l0,0l0,0l0,0c0,0,0,0,0.1,0l0,0l0,0c0.1-0.1,0.2-0.3,0.3-0.3l0,0l0,0l0,0h0.1
		c0,0,0.1,0,0.1,0.1l0,0l0,0l0,0l0,0l0,0c0.1,0.1,0.1,0.2,0.2,0.3l0,0l0,0l0,0c0,0,0,0.1,0.1,0.1c0.1,0.1,0.2,0.1,0.2,0h0.1l0,0l0,0
		l0,0h0.1c0.1,0,0.2,0,0.3,0c0.1,0,0.2-0.1,0.3-0.1c0.1,0,0.2,0,0.2,0c0.1-0.1,0.2-0.1,0.3-0.2c0.1,0,0.1-0.1,0.2-0.1l0,0
		c0,0,0,0,0.1,0l0,0l0,0l0,0l0,0c0,0,0,0,0.1,0l0.1-0.1c0,0,0,0,0.1,0h0.1l0,0l0,0l0,0l0,0l0,0c0,0,0,0,0.1,0c0,0,0,0,0.1,0l0,0
		c0,0,0,0,0.1,0l0,0l0,0l0,0l0,0l0,0c0.1-0.1,0.1-0.1,0.2-0.2h0.1l0,0l0,0l0,0l0,0l0,0l0,0l0,0c0,0,0-0.1,0.1-0.1
		c0.1-0.1,0.1-0.3,0.2-0.4l0,0V70l0,0v-0.1c0.1-0.1,0.1-0.3,0.1-0.5c0,0,0,0,0-0.1l0,0l0,0l0,0l0,0l0,0c0,0,0-0.1,0.1-0.1l0,0l0,0
		l0,0l0,0c0,0,0,0,0.1,0l0,0l0,0l0,0l0,0l0,0l0,0l0,0l0,0l0,0l0,0l0,0c0-0.1,0-0.1,0-0.2l0,0l0,0l0,0c0-0.1,0.1-0.1,0.1-0.2l0,0l0,0
		l0,0v-0.1c0-0.1,0-0.2,0.1-0.3v-0.1c0-0.1,0.1-0.2,0.1-0.2l0,0l0,0l0,0l0,0l0,0l0,0l0,0l0,0c0,0,0,0,0.1,0h0.1l0,0l0,0
		c0,0,0,0,0.1,0s0.1,0.1,0.2,0.1l0,0l0,0l0,0l0,0l0,0l0,0l0,0l0,0l0,0l0,0l0,0l0,0l0.1-0.1c0,0,0,0,0-0.1l0.1-0.1l0,0c0,0,0,0,0-0.1
		c0.1-0.1,0.1-0.2,0.1-0.3v-0.1c0,0,0,0,0-0.1l0,0c0,0,0,0,0-0.1c0,0,0,0,0-0.1c0,0,0,0,0-0.1l0,0c0,0,0,0,0-0.1l0,0l0,0l0,0l0,0
		l0,0l0,0l0,0l0,0l0,0c0,0,0,0,0.1,0l0,0c0,0,0,0,0-0.1l0,0l0,0l0,0v-0.1c0-0.1,0.1-0.2,0.1-0.2c0-0.1,0.1-0.1,0.2-0.2l0,0l0,0l0,0
		l0,0v-0.1l0,0l0,0l0,0l0,0c0,0,0,0,0-0.1l0,0c0-0.1,0-0.1,0-0.2c0,0,0,0,0-0.1c0,0,0,0,0-0.1v-0.1l0,0l0,0l0,0c0-0.2,0-0.4,0.2-0.5
		h0.1c0.1,0,0.2,0,0.2,0c0.1,0,0.2,0,0.2,0c0.1,0,0.1,0.1,0.2,0.1l0,0l0,0l0,0c0.1,0,0.2,0.1,0.2,0.1l0,0c0,0,0,0,0.1,0
		c0,0,0.1,0,0.1,0.1l0,0l0,0l0,0l0,0v0.1l0,0l0,0l0,0l0,0l0,0l0,0l0,0c0.1,0,0.1,0,0.2,0l0,0l0,0l0,0l0,0l0,0l0,0l0,0l0,0l0,0l0,0
		l0,0c0,0,0,0,0,0.1l0,0l0,0l0,0c0,0,0,0,0,0.1c0,0,0,0,0,0.1l0,0l0,0l0,0l0,0l0,0l0,0l0,0l0,0l0,0l0,0l0,0h0.1
		c0.1,0,0.3,0.2,0.4,0.3c0.1,0,0.1,0.1,0.2,0.1l0,0c0,0,0,0,0.1,0.1l0,0l0,0l0,0c0,0,0,0,0,0.1c0,0,0,0,0,0.1v0.1l0,0l0,0l0,0l0,0
		l0,0l0,0l0,0c0,0,0,0,0,0.1v0.2l0,0V67l0,0l0,0c-0.1,0.1-0.2,0.2-0.2,0.3l0,0l0,0l0,0l0,0l0,0h0.1h0.1l0,0c0.1,0.2,0.4,0.4,0.5,0.4
		c0.3,0,0.5-0.1,0.8,0c0.2,0.1,0.5,0.1,0.7,0.3c0.3,0.2,0,0.4-0.1,0.7c-0.3-0.1-0.1,0.4,0,0.5c0.2,0.1,0.5-0.1,0.4,0.3
		s-0.2-0.2-0.4,0c-0.2,0.2,0.2,0.4,0.3,0.5c0.1,0.1,0.4,0.4,0.3,0.6c0.2,0,0.2,0.1,0.3,0.1c0.1,0,0.1-0.1,0.2-0.1
		c0.2,0,0.3,0.2,0.4,0.3c0,0.1,0,0.2,0,0.3c0,0.1,0.1,0.1,0.2,0.1C103.2,69.9,103.2,70.1,103.2,70.2z"/>
	<path class="st1" d="M89.6,70.1C89.6,70.1,89.7,70.1,89.6,70.1C89.7,70.1,89.7,70.1,89.6,70.1S89.5,70.1,89.6,70.1L89.6,70.1
		L89.6,70.1L89.6,70.1z"/>
	<path class="st1" d="M90,70.5L90,70.5L90,70.5c-0.1-0.1-0.1-0.2-0.2-0.3C89.9,70.3,89.9,70.4,90,70.5z"/>
	<path class="st1" d="M90.3,70.7C90.4,70.7,90.4,70.7,90.3,70.7C90.4,70.7,90.4,70.7,90.3,70.7c-0.1,0-0.2,0-0.2,0L90,70.6l0,0l0,0
		c0,0,0,0.1,0.1,0.1H90.3z"/>
	<path class="st1" d="M91.6,70.3c0.1,0,0.1-0.1,0.2-0.1C91.7,70.3,91.6,70.3,91.6,70.3c-0.1,0.1-0.2,0.1-0.3,0.2c-0.1,0-0.1,0-0.2,0
		s-0.2,0-0.3,0.1c-0.1,0-0.2,0-0.3,0h-0.1h0.1c0.1,0,0.2,0,0.3,0c0.1,0,0.2-0.1,0.3-0.1c0.1,0,0.2,0,0.2,0
		C91.4,70.5,91.5,70.4,91.6,70.3z"/>
	<path class="st1" d="M91.8,70.2L91.8,70.2L91.8,70.2z"/>
	<path class="st1" d="M91.9,70.2L91.9,70.2L91.9,70.2C91.8,70.2,91.8,70.2,91.9,70.2C91.8,70.2,91.8,70.2,91.9,70.2z"/>
	<path class="st1" d="M92.1,70C92.2,69.9,92.2,69.9,92.1,70C92.2,69.9,92.2,69.9,92.1,70z"/>
	<path class="st1" d="M92.4,69.9C92.4,69.9,92.4,69.8,92.4,69.9C92.4,69.8,92.4,69.9,92.4,69.9z"/>
	<path class="st1" d="M92.4,69.8C92.5,69.8,92.5,69.8,92.4,69.8C92.5,69.8,92.5,69.8,92.4,69.8z"/>
	<path class="st1" d="M92.5,69.8L92.5,69.8L92.5,69.8z"/>
	<path class="st1" d="M92.6,69.7L92.6,69.7L92.6,69.7L92.6,69.7L92.6,69.7z"/>
	<path class="st1" d="M92.9,69.4C92.8,69.5,92.8,69.5,92.9,69.4C92.8,69.5,92.8,69.5,92.9,69.4C92.8,69.5,92.8,69.5,92.9,69.4z"/>
	<polygon class="st1" points="93.5,68 93.5,68 93.5,68 	"/>
	<path class="st1" d="M93.6,67.9C93.6,67.9,93.6,67.8,93.6,67.9C93.6,67.8,93.6,67.9,93.6,67.9z"/>
	<path class="st1" d="M93.6,67.8C93.7,67.8,93.7,67.8,93.6,67.8C93.7,67.8,93.7,67.8,93.6,67.8z"/>
	<path class="st1" d="M94.5,66.3L94.5,66.3L94.5,66.3z"/>
	<path class="st1" d="M94.9,66.3L94.9,66.3L94.9,66.3L94.9,66.3L94.9,66.3c-0.1,0-0.1-0.1-0.2-0.1c0,0,0,0-0.1,0c0,0,0,0,0.1,0
		C94.7,66.3,94.8,66.3,94.9,66.3L94.9,66.3L94.9,66.3z"/>
	<path class="st1" d="M95,66.3L95,66.3L95,66.3L95,66.3z"/>
	<path class="st1" d="M95.7,65.1L95.7,65.1L95.7,65.1z"/>
	<path class="st1" d="M96.2,64.3L96.2,64.3L96.2,64.3L96.2,64.3L96.2,64.3z"/>
	<path class="st1" d="M99.1,98.8c0-0.2-0.1-0.5-0.1-0.7c-0.1-0.4-0.3-0.9-0.4-1.3s-0.3-0.9-0.5-1.2c-0.1-0.2-0.3-0.4-0.5-0.5
		s-0.4-0.2-0.4-0.4c0.2,0.2,0.4,0.5,0.7,0.6c0.3,0.1,0-0.2,0-0.3c-0.1-0.2-0.1-0.4-0.2-0.5c-0.3-0.3-0.4-0.7-0.6-1.1
		c-0.1-0.3-0.4-0.6-0.7-0.8c-0.2-0.2-0.3-0.2-0.5-0.4c-0.1-0.2-0.3-0.3-0.4-0.5c0.2,0,0.6,0.2,0.6-0.1c0-0.2-0.3-0.3-0.5-0.4
		c-0.3-0.2-0.7-0.5-0.8-0.8c-0.1-0.2-0.1-0.4-0.2-0.6s-0.1-0.4-0.2-0.6c-0.1-0.4-0.2-0.8-0.4-1.2c-0.1-0.2-0.2-0.3-0.3-0.4
		c-0.1,0.1-0.2,0.2-0.3,0.3c-0.1,0.1-0.3,0-0.5,0c-0.2-0.1-0.3,0-0.4,0.2s0,0.3,0,0.5s-0.1,0.4-0.3,0.3c-0.2,0-0.2-0.2-0.3-0.3
		c-0.1,0-0.2,0-0.3,0l-5.8,0.5h-0.1c0,0,0,0,0.1,0l0,0c0.1,0,0.1,0,0.2-0.1c-0.2,0-0.3-0.4-0.4-0.6c-1.6,0.2-3.3,0.4-4.9,0.5
		c-0.3,0-1,0.2-1.2,0.1c0,0.2,0.1,0.3,0.2,0.5c0.1,0.1,0.2,0.1,0.2,0.2s0,0.2,0,0.3c0.1,0.2,0.2,0.2,0.3,0.5c0,0.1,0,0.3,0,0.4
		c0.1,0,0.3-0.1,0.4-0.2c0.2-0.1,0.3-0.2,0.5-0.1c-0.2,0.3,0.6,0.1,0.6-0.1c-0.1,0-0.2,0-0.3,0c0.1-0.2,0.4-0.5,0.6-0.6
		c0.3-0.1,0.6,0,0.8,0.1c-0.1,0-0.2,0-0.2,0.1s0.2,0,0.2,0c0.2,0,0.4-0.1,0.6-0.1s0.3,0.1,0.5,0.2c0.1,0.1,0.3,0.4,0.4,0.4
		c0-0.2-0.1-0.4-0.1-0.6c0.1,0.2,0.5,0.4,0.5,0.6c-0.1,0-0.1,0-0.1,0c0,0.1,0.3,0.3,0.3,0.3c0.1,0.1,0.3,0,0.4,0.2
		c0.1,0.1,0,0.3,0,0.5c0.1,0,0.2-0.1,0.2-0.1c0.2,0.1,0.4-0.4,0.7-0.2c0.1,0.1,0,0.3,0.2,0.3s0.2-0.2,0.2-0.3
		c0.3,0.1,0.3,0.1,0.4-0.2c0.1-0.3,0.2-0.2,0.5-0.2c0-0.1-0.1-0.1-0.1-0.2c0,0,0.1-0.1,0.1-0.2c0.1-0.1,0.3-0.1,0.4-0.2
		c0.4,0.2,0.9,0.4,1.3,0.7c0.2,0.1,0.4,0.2,0.5,0.4c0.1,0.1,0.1,0.3,0.3,0.4c0.1,0.1,0.1,0,0.2,0.1s0.1,0.2,0.1,0.3
		c0.2,0.2,0.4,0,0.6,0.1c0.3,0.1,0.5,0.6,0.6,0.8c0.2,0.3,0.2,0.6,0.2,0.9c0,0.4-0.4,0.7-0.2,1c0.1,0.2,0.1,0.2,0.1,0.4
		c0,0.2-0.1,0.3,0,0.4c0,0.1,0.2,0.3,0.3,0.3c0.2,0.1,0.1-0.2,0.2-0.3c0.2,0,0.2-0.3,0.4-0.2c0,0.3,0,0.6-0.1,0.8
		c-0.1,0.3-0.2,0.4,0.1,0.6c0.2,0.2,0.2,0.3,0.3,0.5c0.2,0.3,0.3,1.1,0.9,0.9c-0.1-0.3,0-0.7,0.1-0.3c0.1,0.2,0,0.8,0.3,0.8
		c0-0.1,0.1-0.3,0.2-0.3s0,0.2,0,0.3c0,0,0,0.1,0,0.2s0.1,0.1,0.1,0.1c0,0.1,0,0.2,0,0.3c0.1,0.4,0.4,0.6,0.7,0.9
		c0.2,0.3,0.5,0.3,0.9,0.3s0.5,0.1,0.7,0.4c0.3,0.4,0.3,0.5,0.7,0.3c0.5-0.2,0.4,0.3,0,0.4c-0.2,0.1-0.9,0-0.9,0.3s0.7,0.2,0.8,0.1
		c0.3-0.1,0.7-0.2,1-0.3c0.7-0.2,0.4-1.6,0.5-2.2c0.1,0.1,0.2,0.6,0.2,0.2c0.1-0.2,0-0.5-0.1-0.7C99.1,99.3,99.1,99.1,99.1,98.8z"/>
	<path class="st1" d="M77.3,49.9c-0.1,0-0.3,0.5-0.3,0.6c-0.1,0.2-0.2,0.4-0.4,0.6c-0.3,0.4-0.5,0.8-0.8,1.2c0-0.1,0-0.1,0-0.2
		c0-0.1,0-0.1,0-0.2c0-0.3,0.2-0.5,0.3-0.7c0.2-0.3,0.2-0.6,0.3-0.9v-0.1c-0.1,0-0.2-0.1-0.2-0.1c-0.1-0.1-0.1-0.2-0.2-0.2
		s-0.2,0.1-0.3,0c-0.1,0,0-0.2,0-0.3s0-0.2,0-0.3s0.1-0.2,0.1-0.3s-0.1-0.1-0.2-0.1s-0.2-0.1-0.3-0.1c-0.1,0-0.2,0-0.3-0.1
		c0-0.1,0-0.2,0-0.3c-0.1-0.1-0.2,0-0.3,0c-0.1,0-0.2-0.1-0.3-0.1c-0.1,0-0.2,0.1-0.3,0.1c-0.1,0-0.2,0-0.3-0.1
		c-0.2-0.2-0.5-0.2-0.8-0.3c-0.1,0-0.2,0-0.2-0.1c-0.1,0-0.1,0-0.2,0s-0.3-0.1-0.4-0.1s-0.2-0.1-0.4-0.1c-0.1,0-0.2,0-0.3,0
		c-0.3,0-0.4-0.3-0.5-0.5c0-0.1-0.1-0.2-0.2-0.3s-0.1-0.1-0.2-0.1l0,0c0-0.1,0-0.2-0.2-0.3s-0.2,0.2-0.4,0.2
		c-0.1,0.1-0.1,0.2-0.3,0.1c0,0-0.1,0-0.1-0.1s0.1,0,0.1-0.1c0.2-0.1,0-0.2,0-0.4c0-0.1,0.1-0.2,0.1-0.4c-0.3,0-0.6,0.1-0.8,0.2
		c-0.2,0.1-0.4,0.3-0.7,0.4c-0.2,0-0.6,0.1-0.7,0l0,0h-0.1c-0.4,0-0.3,0.5-0.3,0.7c0,0.3,0,0.5,0,0.8s0.1,0.4-0.2,0.5
		c-0.3,0.2-0.7,0.5-0.7,0.9c0,0.1-0.1,0.3,0,0.4c0.1,0.1,0.2,0.1,0.3,0.2c0.1,0.1,0,0.2,0,0.4c-0.1,0.1-0.1,0.2-0.1,0.4
		c0,0.3,0,0.6-0.1,0.8c0,0.1,0,0.3,0,0.4c0.1,0.1,0.2,0.1,0.3,0.2c0.1,0.1,0.2,0.2,0.3,0.2c0.1,0,0.3,0,0.4,0.1
		c0.1,0,0.2,0.1,0.4,0.1c0.1,0,0.2-0.1,0.4,0.1c0.1,0.1,0.1,0.2,0.2,0.3s0.2,0.2,0.2,0.3c0.1,0.1,0.2,0.2,0.3,0.3
		c0.1,0.1,0.1,0.2,0.2,0.3c0.1,0.2,0.4,0.3,0.6,0.5c0.1,0.1,0.1,0.2,0.1,0.4c0,0.1,0.1,0.1,0,0.2c0,0.1-0.1,0.1-0.1,0.2
		c0,0.1,0,0.2,0,0.3c0,0,0,0,0,0.1c0,0.2,0.1,0.4,0.1,0.5c0.1,0.1,0.1,0.2,0.1,0.4s-0.1,0.2-0.2,0.3c-0.1,0.3,0.2,0.5,0.3,0.7
		c0,0.1,0,0.3,0.1,0.4c0.1,0.1,0.3,0,0.4,0.1c0.2,0,0.2,0.2,0.3,0.3l5.7-0.5c0-0.2,0-0.4,0-0.6c0-0.5-0.4-1-0.4-1.5
		c0-0.2,0.1-0.5,0.2-0.7s0.1-0.4,0.1-0.7c0-0.5,0.2-1,0.2-1.5c0-0.3,0-0.5,0.1-0.8c0.1-0.2,0.2-0.4,0.3-0.6c0.2-0.2,0.2-0.5,0.2-0.8
		C77.5,50.2,77.5,49.8,77.3,49.9z"/>
	<path class="st1" d="M20.7,77.2L20.7,77.2L20.7,77.2c-0.1-0.1-0.1-0.2-0.1-0.2c0-0.1-0.1-0.2-0.2-0.2s-0.2-0.1-0.2-0.2s0-0.1,0-0.1
		c0-0.1,0-0.1,0-0.2s0-0.1,0-0.1c0-0.1-0.1-0.1-0.1-0.2s0-0.2,0-0.3c0-0.1,0-0.2,0-0.2l-9.3-13l0.2-0.7l1.8-7.3
		c-4-1-6.9-1.9-8.1-2.3c0,0.2,0,0.5,0,0.7c0,0.1,0,0.3,0,0.4c0,0.1-0.1,0.2-0.1,0.3c-0.1,0.2,0,0.5-0.1,0.7
		c-0.1,0.1-0.1,0.2-0.1,0.3s0,0.2-0.1,0.3S4.1,55,4.1,55.1c0,0.1,0.2,0.1,0.1,0.2c-0.1,0.2-0.5,0.1-0.6,0.2s-0.2,0.4-0.2,0.6
		c0,0.2,0.2,0.4,0.2,0.6c0.1,0.2,0.1,0.5,0.2,0.8C3.9,57.7,4,57.9,4,58.2s0,0.5-0.1,0.8c-0.1,0.2-0.2,0.4-0.2,0.6
		c0,0.2,0.2,0.4,0.1,0.7c0,0.2-0.1,0.2-0.2,0.4c0,0.1,0,0.2,0.1,0.3c0.1,0.3,0.3,0.6,0.4,0.9c0.1,0.1,0.2,0.3,0.2,0.4
		c0.1,0.2,0.1,0.3,0.1,0.5s0,0.3-0.1,0.4c-0.1,0.1-0.3,0.2-0.1,0.3c0.1,0.1,0.2,0.1,0.3,0.2c0,0.1,0.1,0.1,0.1,0.2
		c0.1,0,0.1-0.1,0.2,0v0.2c0,0.1,0.1,0,0.2,0.1c0.1,0.1-0.1,0.3-0.1,0.4c0,0.1,0,0.2,0,0.2c-0.1,0.1-0.1,0-0.2,0.1s0.1,0.2,0.1,0.4
		c0,0.4-0.2,0.6,0.1,0.9C5,66.3,5,66.4,5.1,66.5c0.4,0,0.5,0.1,0.6,0.2s0.1,0.2,0.1,0.4c0,0.1,0,0.4-0.2,0.3c0-0.1-0.1-0.2-0.2-0.2
		c0,0.2,0,0.4-0.1,0.5c-0.1,0.2-0.1,0.3-0.1,0.5c0.1,0.4,0.3,0.6,0.5,0.9c0.1,0.1,0.2,0.3,0.2,0.4c0,0.2-0.1,0.3,0.1,0.4
		C6.2,70,6.1,70,6.2,70.2c0,0.1,0.2,0.2,0.2,0.3c0,0.1,0,0.1,0.1,0.2c0.1,0,0.1,0,0.2,0.1c0.1,0.1,0.3,0.6,0.2,0.7
		c0,0-0.1,0-0.1,0.1v0.1c0,0.1-0.1,0.1-0.1,0.2c0.1-0.1,0.1-0.2,0.2-0.2v0.1c0.1,0,0.2,0,0.2,0.1C7.2,72.1,7,72.3,7,72.4
		s0,0.2,0,0.3c0,0.1-0.1,0.2-0.1,0.2c0,0.1,0,0.2,0,0.3c0,0.1-0.2,0.1-0.2,0.2c-0.1,0.2,0.2,0.3,0.3,0.4c0.2,0.1,0.3,0.2,0.5,0.3
		c0.2,0,0.4,0,0.6,0.1c0.2,0.1,0.2,0.3,0.5,0.3c0.2,0,0.4,0.1,0.6,0.1c0.3,0.1,0.3,0.2,0.4,0.4c0.1,0.1,0.1,0.1,0.2,0.2
		c0.1,0.1,0.1,0.2,0.2,0.3c0.1,0.1,0.3,0.2,0.5,0.3c0.2,0.1,0.4,0,0.5,0.1s0.3,0.3,0.3,0.5s0,0.4,0.2,0.4s0.3-0.2,0.5,0
		c0.1,0.2,0.1,0.3,0.3,0.5c0.2,0.1,0.4,0.2,0.5,0.4c0.1,0.2,0.3,0.5,0.4,0.7c0.1,0.5,0.1,1,0.1,1.5c0.1,0,0.1-0.2,0.2-0.2
		c0.1,0,0.3,0.1,0.1,0.2c-0.1,0.1-0.2,0-0.3,0.2c0,0.1,0,0.2,0,0.3c0,0.1,0,0.1,0.1,0.1s0.1,0,0.2,0c0.2,0,0.3,0,0.5,0
		c0.5,0,0.9,0.1,1.4,0.1s1.1,0.1,1.6,0.1c0.4,0,0.9,0.1,1.3,0.1c0.2,0,0.3,0,0.5,0l0.1-0.1c0.1,0,0.2,0,0.3-0.1c0-0.1,0-0.2,0-0.3
		c0-0.1,0.1-0.1,0.1-0.1h-0.1l0,0l0,0c0,0-0.1,0-0.1-0.1c0,0-0.1,0-0.1-0.1C19,79.9,19,79.8,19,79.7c0-0.1,0-0.1,0-0.1
		c0-0.1,0-0.1,0-0.1c0.1-0.1,0.1-0.2,0.2-0.2s0.2,0,0.2-0.1s0-0.2,0-0.2c0.1-0.1,0.2,0,0.2-0.1c0.1-0.1,0.1-0.1,0.1-0.2
		s-0.1-0.2,0-0.3c0-0.1,0.1-0.1,0.1-0.1v-0.1c0,0-0.1,0-0.1-0.1s0.1,0,0.1-0.1l0.1-0.1c0.1-0.1,0-0.3,0.1-0.3
		c0.1-0.1,0.2-0.1,0.3-0.1c0.1,0,0.1-0.1,0.2-0.1h0.1l0,0c0,0,0,0,0-0.1S20.7,77.2,20.7,77.2C20.7,77.5,20.8,77.4,20.7,77.2
		C20.7,77.3,20.7,77.3,20.7,77.2z"/>
	<path class="st1" d="M59.8,50.8c-0.2-0.2-0.4-0.4-0.5-0.6c-0.1-0.2-0.1-0.3-0.1-0.5c0-0.3,0.2-0.5,0.2-0.7
		c-3.4,0.1-12.3-0.4-14.2-0.6L45,51l-0.4,5.4c1.4,0.1,9,0.6,11.1,0.5h0.1c0.1,0,0.1,0.1,0.2,0.1c0.1,0,0.1,0.1,0.2,0.1
		c0.1,0,0.1,0.1,0.2,0.2c0.1,0,0.1,0.1,0.2,0.1c0.1,0,0.1,0,0.2,0c0.1,0,0.3,0,0.4,0c0.1,0,0.3,0,0.4,0c0.1,0,0.1,0,0.2,0
		c0.1,0,0.1,0,0.2,0.1c0.1,0.1,0.3,0.1,0.4,0.1c0.1,0,0.1,0,0.2,0c0.1,0,0.1,0,0.2,0.1c0.1,0.1,0.1,0.2,0.2,0.2
		c0.1,0,0.2,0.1,0.2,0.1c0.1,0,0.2,0,0.2,0.1l0,0c0,0,0,0,0-0.1s-0.1-0.2-0.1-0.4c0-0.1,0-0.1,0-0.2v-0.2c0-0.1,0-0.1-0.1-0.2
		c0-0.1,0-0.1,0-0.2c0-0.1,0-0.1,0.1-0.2c0-0.1,0.1-0.1,0.1-0.2c0-0.1-0.1-0.1-0.1-0.2c0-0.1-0.1-0.1,0-0.2c0-0.1,0.1-0.1,0.1-0.2
		c0-0.1,0-0.1,0-0.2c0,0,0.2,0,0.5,0L59.8,50.8z"/>
	<path class="st1" d="M90.8,56.8c-0.1,0.1-0.2,0.2-0.3,0.4c-0.1,0.1-0.3,0.2-0.4,0.3s-0.1,0.3-0.3,0.3c-0.2,0.1-0.3,0.1-0.4,0.3
		s-0.1,0.4-0.3,0.5c-0.1,0.1-0.3,0.2-0.5,0.1c-0.2,0-0.4-0.1-0.5,0c-0.2,0.1-0.2,0.3-0.3,0.3c-0.1,0.1-0.3,0-0.5,0
		c-0.1,0-0.3,0-0.4,0s-0.4,0.1-0.5,0.1c-0.1-0.1,0.3-0.3,0.4-0.3c-0.2,0-0.6,0.1-0.6-0.1c-0.2,0.1-0.3,0-0.4-0.1
		c-0.1,0-0.3,0-0.4-0.1c-0.7,0.1-2.3,0.3-2.6,0.4l1.1,7.6c0.1,0,0.2-0.1,0.3-0.1c0.1,0,0.1,0.1,0.2,0.1s0.2,0,0.3,0
		c0.2,0,0.3,0.2,0.5,0.3c0.2,0.1,0.4,0.2,0.6,0.2c0.2,0.1,0.4,0,0.6,0c0.4,0,0.7-0.1,1.1,0c0.3,0.1,0.5,0.2,0.6,0.4l0,0
		c0.1,0,0.4,0,0.5-0.1s0.1-0.2,0.2-0.3c0.1,0,0.1,0,0.2-0.1l0.1-0.1c0-0.1-0.1-0.2-0.2-0.3c-0.1-0.2,0-0.2,0.1-0.3
		c0.1-0.2,0-0.4,0.2-0.5c0.1-0.1,0.2,0,0.3,0.1c0.1,0,0.2,0,0.3,0c0.1-0.1,0.1-0.1,0.1-0.2s0-0.3,0-0.4c0.1-0.1,0.2-0.2,0.3-0.3
		c0.1-0.1,0.3-0.2,0.4-0.3s0.1-0.1,0.2-0.2c0-0.1,0.1-0.2,0.2-0.2c0-0.1,0-0.2,0.1-0.3c0-0.1,0-0.1,0.1-0.1c0.1-0.1,0.1-0.2,0.2-0.2
		s0.2-0.1,0.2-0.1c0-0.1,0-0.2,0-0.2c0-0.2-0.1-0.3-0.1-0.4c0-0.2,0-0.3,0.1-0.5s0.1-0.3,0.2-0.4c0.1-0.2,0-0.4-0.1-0.6
		c0,0,0-0.1-0.1-0.1c0.1-0.1,0-0.2,0.1-0.3s0.2-0.1,0.2-0.2c0,0,0,0,0.1,0l-0.7-4C91,56.7,90.9,56.8,90.8,56.8z"/>
	<path class="st1" d="M74.9,73L74.9,73c-0.3-0.1-0.3-0.1-0.4-0.3c-0.1-0.1-0.2-0.2-0.3-0.3c-0.1-0.2,0-0.6-0.1-0.8
		c0-0.1,0-0.3-0.1-0.4s-0.2-0.2-0.3-0.3c0-0.1,0-0.3-0.1-0.4s-0.3,0-0.4,0c-0.2-0.1-0.4-0.4-0.6-0.6s-0.5-0.2-0.4-0.6
		c0-0.1,0.1-0.1,0.1-0.2s0-0.1,0-0.2s0-0.2,0.1-0.4c0.1-0.2,0.1-0.6,0-0.8c-0.1-0.3-0.4-0.3-0.6-0.1c-0.1,0.1-0.1,0.1-0.3,0
		c-0.1-0.1-0.2-0.2-0.2-0.3c0-0.2-0.1-0.5-0.2-0.7c-0.1-0.1-0.2-0.1-0.3-0.2c-0.1-0.1-0.2-0.2-0.2-0.3c-0.1-0.2-0.4-0.2-0.6-0.5
		c-0.2-0.2-0.3-0.4-0.3-0.7c0-0.2-0.2-0.5-0.2-0.7c0-0.1,0.1-0.2,0.1-0.4c0-0.1-0.1-0.3-0.1-0.4l0,0l0,0c-0.1,0-0.1-0.1-0.1-0.1
		s-0.1,0-0.1-0.1l-0.1-0.1L69.1,63l-8,0.3c0.1,0.2,0.1,0.5,0.2,0.7c0.1,0.2,0.4,0.3,0.5,0.5c0.1,0.1,0.1,0.2,0.2,0.3v0.1
		c0,0.1,0.1,0.1,0.1,0.2c0.2,0.2,0.4,0,0.5,0.2c0.1,0.2,0,0.4-0.1,0.6c0,0.1,0,0.2,0,0.3c0,0.1,0,0.2,0,0.3c0.1,0.1,0.2,0.1,0.3,0.2
		c0.1,0.1,0.2,0.2,0.3,0.3c0.1,0.1,0.4,0.2,0.3,0.4l0.2,6.1l0.1,1.4c1.7,0,9.2-0.5,9.5-0.5l0,0l0,0l0,0l0,0l0,0l0,0
		c0.1,0.1,0.1,0.2,0.1,0.3c0,0.1,0,0.1,0,0.2s-0.1,0.1-0.1,0.2c-0.1,0.2-0.4,0.7,0,0.7s0.7,0,1.1-0.1v-0.1c0-0.3,0-0.5,0-0.8
		c0-0.1,0.1-0.2,0.2-0.3c0,0,0,0,0-0.1l0,0l0,0v-0.1l0,0l0,0l0,0l0,0l0,0l0,0c0.1-0.2,0.2,0,0.4-0.1c0.2-0.1,0.1-0.5,0.1-0.6
		C75,73.3,75,73.1,74.9,73z"/>
	<path class="st1" d="M103.2,63.4c-0.2-0.1-0.4-0.3-0.5-0.4c-0.1-0.2-0.1-0.4-0.2-0.6c-0.1-0.1-0.4-0.3-0.3-0.4c0-0.1,0.1,0,0.2,0
		l0,0c0-0.1-0.1-0.1-0.1-0.2v-0.1c0-0.1-0.1-0.2-0.1-0.3s0-0.1,0.1-0.2c0,0,0,0-0.1,0s-0.2,0-0.3-0.1c-0.1,0-0.2,0-0.2,0
		c-0.1,0.1-0.2,0.1-0.3,0.1c-0.1,0-0.1,0-0.1,0.1v0.1l-0.1,0.1l-0.1,0.1l0.5-0.1l0.6,2.7l1.4-0.4l0,0
		C103.5,63.6,103.4,63.5,103.2,63.4z"/>
	<path class="st1" d="M108.9,53.2c-0.1,0-0.5,0.1-1,0.2l0.5,2.1h0.1c0-0.1-0.1-0.1-0.1-0.1v-0.1c0.1,0,0.1-0.1,0.2-0.1
		s0.1-0.1,0.2-0.1s0.2,0,0.2,0c0.2-0.1,0-0.3,0-0.4c0-0.2,0.2-0.3,0.3-0.2c0.1,0.1,0.1,0.3,0.3,0.3c0.1,0,0.1-0.1,0.1-0.2
		C109.1,53.8,108.9,53.2,108.9,53.2z"/>
	<path class="st1" d="M107.6,56.4c-0.2,0-0.2,0.1-0.3,0.2c-0.1,0.1-0.2,0.2-0.4,0.2c0-0.2,0.2-0.3,0.3-0.4c0.1-0.1,0.4-0.3,0.3-0.5
		c-0.1-0.1-0.2,0.1-0.3,0.2c-0.1,0.1-0.2,0.1-0.3,0.2c-0.1,0.1-0.2,0.1-0.2,0.2c-0.1,0-0.2,0-0.3,0.1c-0.1,0-0.2,0-0.3,0.1
		c-0.1,0.1-0.2,0.1-0.2,0.2c-0.2,0.2-0.4,0-0.5,0.1c-0.2,0.1-0.2,0.4-0.5,0.3c0-0.1,0.1-0.2,0.1-0.3c0,0,0-0.1,0.1-0.1l-0.6-2.7l0,0
		v-0.1c0-0.1,0-0.1,0-0.2c0-0.1,0.1-0.3,0.1-0.4c0-0.4,0-0.7,0-1l0,0l0,0c0-0.1,0-0.1,0-0.2c0-0.1,0-0.1,0-0.2c0-0.1,0-0.3,0-0.4
		c0-0.1-0.1-0.3-0.1-0.4c0-0.1-0.1-0.1-0.1-0.2V51c0,0,0-0.1-0.1-0.1c-0.1-0.1-0.1-0.2-0.2-0.4c-0.1-0.1-0.2-0.2-0.2-0.4
		c0-0.1,0-0.2,0-0.2v-0.2c0-0.1,0-0.2,0-0.2c0-0.1,0-0.2,0-0.2c-0.1-0.3-0.2-0.5-0.1-0.8c0-0.1,0-0.1,0-0.2c0-0.1,0-0.1,0-0.2
		c0,0,0-0.1,0.1-0.1v-0.1c0-0.1,0-0.1-0.1-0.2c0-0.1-0.1-0.1-0.1-0.2c0-0.1,0-0.1,0-0.2c0-0.1,0-0.2-0.1-0.3s0-0.3-0.1-0.4
		c0-0.1,0-0.2,0-0.3c-0.4,0.1-0.8,0.2-1.1,0.3c-0.4,0.1-0.9,0.2-1.3,0.3c-0.2,0-0.4,0.1-0.5,0.1c-0.1,0.1-0.1,0.1-0.2,0.1
		c-0.1,0.1-0.1,0.2-0.2,0.2c-0.2,0.2-0.5,0.4-0.7,0.7c-0.1,0.1-0.2,0.3-0.4,0.4c-0.1,0.1-0.2,0.2-0.3,0.4c0,0.1,0,0.2,0,0.2
		c0,0.2-0.1,0.4-0.3,0.5c-0.1,0.1-0.2,0.2-0.4,0.3c-0.1,0.1-0.4,0.2-0.4,0.4s0.3,0,0.4-0.1s0.2-0.2,0.4-0.2c0,0.1,0,0.1,0,0.2
		c0,0.2-0.3,0.3-0.2,0.6c0.1,0.3,0.2,0.4-0.1,0.6c-0.2,0.1-0.4,0.2-0.5,0.5c-0.1,0.2-0.2,0.4-0.5,0.4c-0.1,0-0.2,0-0.4,0
		c-0.1,0-0.2,0.1-0.3,0.2c-0.2,0.1-0.5,0.2-0.7,0.2c-0.3-0.1-0.4-0.2-0.7-0.1c-0.1,0-0.2,0.1-0.3,0.1c-0.1,0-0.2,0-0.3,0
		c-0.2,0-0.5,0.1-0.7,0.2c-0.2,0.1-0.4,0.2-0.6,0.4c0.1,0.1,0.1,0.2,0.2,0.3s0.2,0.1,0.3,0.2c0.1,0.2,0.1,0.5,0.1,0.7
		c0,0.3-0.1,0.4-0.3,0.6c-0.1,0.1-0.2,0.3-0.3,0.4c-0.1,0.1-0.3,0.2-0.3,0.3c-0.1,0.1-0.1,0.3-0.2,0.4h-0.1l0.1,1.1
		c0,0,6.7-1.4,8.4-1.9c0,0,0,0,0.1,0s0.1,0,0.2,0s0.1,0.1,0.2,0.1s0.1,0,0.2,0.1c0.1,0,0.2,0,0.2,0.2c0,0.1,0,0.3,0,0.4
		c0,0.1,0.1,0.1,0.1,0.2c0,0,0,0.1,0.1,0.1h0.1c0.1,0,0.1,0,0.2,0.1c0.1,0,0.1,0.1,0.2,0.2c0.1,0,0.3,0,0.3,0.1s0,0.1,0,0.2l0,0
		c0,0.1,0.1,0.1,0.1,0.1c0.1,0,0.2,0,0.3,0.1c0.1,0,0.1,0,0.2,0s0.1,0.1,0.2,0.1s0.2,0.1,0.4,0.1c0.2,0.1,0.4,0.1,0.5,0.3
		s0.1,0.3,0.1,0.4c0,0.1-0.1,0.2,0,0.2c0,0.1,0.1,0.1,0.1,0.2c0,0.1,0,0.2,0,0.2s0,0,0.1,0.1c0-0.1,0-0.4,0.2-0.4
		c0,0.1,0,0.2,0.1,0.2s0-0.2,0.1-0.2c0-0.1,0.1,0,0.2-0.1c0.1,0,0.1-0.1,0.2-0.1s0.2,0,0.2-0.1c0.1-0.1,0.2-0.2,0.4-0.2
		c0.1-0.1,0.2-0.1,0.3-0.2c0.2-0.2,0.5-0.1,0.7-0.2c0.1-0.1,0.2-0.1,0.3-0.2c0.1,0,0.3-0.1,0.4-0.2c0.1-0.1,0.2-0.3,0.3-0.4
		c0.1-0.1,0.3-0.2,0.4-0.4c-0.2,0-0.3,0.1-0.4,0.2C107.8,56.2,107.7,56.3,107.6,56.4z"/>
	<path class="st1" d="M85.5,87.9c-0.1-0.1-0.1-0.2-0.1-0.3c0-0.1,0-0.2,0-0.2c0-0.1-0.1-0.1-0.1-0.2s0-0.2-0.1-0.3
		c-0.1-0.1-0.1-0.2-0.1-0.3c0-0.1,0-0.3,0.1-0.3c0.1-0.2,0.1-0.2,0.1-0.4c0-0.1,0-0.3,0-0.4s-0.1-0.2-0.1-0.3c0-0.2,0.2-0.5,0.1-0.7
		c-0.1-0.1-0.2,0-0.2-0.1s0.1-0.1,0-0.2c0-0.2-0.1-0.1-0.2-0.1c-0.2-0.1-0.3-0.3-0.2-0.5l-1.5-5.7c-1.9,0.2-3.9,0.4-5.6,0.5l0,0
		c0,0.1,0,0.2,0,0.3c0,0.1,0,0.3,0,0.4s-0.1,0.2-0.1,0.4c0,0.5,0.1,0.9,0.1,1.4v0.6c0,0.2-0.1,0.4-0.1,0.6c0,0.5,0,1,0,1.4
		c0,0.3,0,0.6,0,0.8c0,0.3,0,0.6,0,0.9c0,0.5,0.1,1.1,0.1,1.6c0,0.3,0.1,0.5,0.1,0.8v0.9c0,0.2,0,0.3-0.1,0.4s-0.1,0.2-0.1,0.3
		c0,0.1,0,0.2,0,0.2c0.1,0.1,0.1,0.3,0,0.3c0,0.1-0.1,0.1-0.1,0.1c0,0.1,0,0.3,0,0.4s0,0.3,0,0.4l0,0c0.3,0.1,0.2,0.3,0.5,0.3
		c0-0.1,0.1-0.3,0.2-0.3c0.1-0.1,0.2,0.1,0.3,0.1c0-0.2,0.2-0.4,0.2-0.6c0-0.1,0-0.6,0.3-0.5c-0.1,0.3,0.1,0.3,0.2,0.5s0,0.4,0,0.6
		c0.1,0,0.4-0.1,0.5-0.1s0.1-0.1,0.2-0.1s0,0.1,0.1,0.2c0,0,0,0,0.1,0c0-0.1,0-0.3,0-0.4c0-0.2-0.2-0.3-0.3-0.5c0-0.1,0-0.2,0-0.3
		c0-0.1-0.1-0.2-0.2-0.2c-0.1-0.1-0.2-0.3-0.2-0.5c0.3,0.2,0.9,0,1.2-0.1c1.6-0.2,3.3-0.4,4.9-0.5c0-0.1,0-0.1,0-0.2
		C85.6,88,85.6,88,85.5,87.9z"/>
	<path class="st1" d="M59.1,48c0-0.1-0.1-0.1-0.1-0.2c0-0.1,0-0.1,0-0.2c0-0.1,0-0.2,0-0.2c0-0.1-0.1-0.1-0.1-0.2c0-0.1,0-0.3,0-0.4
		c0-0.1,0.1-0.1,0.1-0.2c0-0.1,0-0.1,0-0.2c0-0.1,0-0.2,0-0.3c-0.1-0.2-0.2-0.3-0.1-0.5c0-0.1,0.1-0.2,0.1-0.2
		c0-0.1,0.1-0.1,0.1-0.2c0-0.1,0-0.2-0.1-0.2c0-0.1,0-0.1-0.1-0.1c0,0,0-0.1-0.1-0.1c-0.1-0.3-0.1-0.3-0.2-0.4c0-0.1,0-0.2,0-0.2
		c0-0.1-0.1-0.2-0.2-0.2c0-0.1,0-0.2,0-0.2c0-0.2,0-0.4,0-0.6c0-0.1,0-0.3,0-0.5c0-0.1,0-0.1-0.1-0.2l0,0c0,0,0-0.1-0.1-0.1
		c0-0.1-0.1-0.3,0-0.3c0-0.1,0-0.2,0-0.3c0.1-0.1,0.1-0.2,0.1-0.3s0-0.2,0-0.2c0-0.1-0.1-0.2-0.1-0.2c0-0.1-0.1-0.1-0.1-0.2v-0.1
		c0-0.1,0-0.2-0.1-0.2c-4.3,0-8.4-0.2-12.4-0.4L45,48.5c1.9,0.1,10.8,0.7,14.2,0.6c0-0.1,0-0.3,0-0.4C59.2,48.3,59.2,48.2,59.1,48z"
		/>
	<path class="st1" d="M12.4,34.7c0.1,0.1,0.1,0.1,0,0.2c0,0.1-0.1,0.1,0,0.2c0.1,0.1,0.3,0.2,0.4,0.2l0.1,0.1c0,0.1-0.1,0.1-0.1,0.2
		c0,0.1,0,0.1,0.1,0.1c0,0.1,0,0.1,0,0.2c-0.2,0-0.3-0.1-0.4-0.1c-0.1,0-0.3,0.1-0.4,0.3c-0.1,0.1-0.1,0.3,0,0.4
		c0.1,0.1,0.2-0.1,0.2-0.2c0,0,0-0.1,0.1-0.2c0.1,0,0.1,0,0.1,0.1s0,0.1-0.1,0.2c0,0-0.1,0.1-0.1,0.2c0,0.1,0.2,0.1,0.3,0.2
		c0.1,0.1,0.1,0.3,0,0.3s-0.2-0.2-0.2-0.2c-0.1-0.1-0.2-0.2-0.3-0.2c0,0,0.1,0.1,0.1,0.2c0,0.1,0.1,0.1,0.2,0.2
		c0.1,0.1,0.2,0.3,0.1,0.4c-0.1,0-0.2-0.1-0.2-0.2c-0.1-0.1-0.1-0.2-0.1-0.3c0,0.1,0,0.1-0.1,0c0-0.1-0.1-0.1-0.2-0.1
		c-0.2,0,0,0.3-0.2,0.4c-0.1,0-0.1-0.1-0.1-0.2c0-0.1,0-0.1-0.1-0.2c-0.1-0.1-0.3-0.1-0.4-0.1c-0.1,0-0.3-0.1-0.4-0.1
		c-0.1-0.1-0.3-0.1-0.4-0.1c-0.2-0.1-0.3-0.2-0.4-0.3c-0.1-0.1-0.3-0.2-0.4-0.3c-0.2-0.2-0.3-0.4-0.5-0.5c-0.1-0.1-0.4-0.2-0.4,0
		c0,0.1,0,0.3,0,0.4c0,0.1-0.1,0.2-0.1,0.3c0,0.2-0.1,0.4-0.1,0.5c0,0.2,0.1,0.3,0.1,0.5c0.1,0.3,0,0.7,0.1,1c0,0.3,0.1,0.6,0,0.8
		c0,0.2,0,0.4,0,0.6c0,0.1,0,0.3,0,0.4c0,0.1-0.1,0.2-0.2,0.3c0,0.1-0.1,0.2-0.1,0.3c0,0.2,0,0.3,0.1,0.4c0.1,0.1,0.2,0.1,0.3,0.1
		c0.2,0,0.2,0.1,0.3,0.2c0,0.1,0.1,0.1,0.2,0.1l0,0c0.1,0,0.1,0,0.2,0.1c0.1,0,0.1,0,0.1,0l0.1,0.1c0,0,0.1,0,0.1,0.1l0.1,0.1
		c0.1,0,0.1-0.2,0.2-0.2c0.1-0.1,0.2,0.1,0.3,0.2c0.1,0.1,0.1,0.1,0.1,0.2c0,0.1-0.1,0.1-0.1,0.2c0,0.1,0.1,0.1,0.1,0.2
		c0.1,0.1,0,0.2-0.1,0.3s-0.1,0.2-0.1,0.2c0,0.1,0.1,0.2,0.1,0.3s0,0.1,0,0.2v0.1c0,0.1,0,0.1,0.1,0.1s0.2,0,0.2,0
		c0.1,0,0.2,0.1,0.2,0.1c0.1,0.1,0.3,0.1,0.4,0.1c0.1,0,0.1,0,0.2,0c0.1,0,0.3,0,0.4,0c0.1,0,0.2,0.1,0.4,0.1c0.1,0,0.3,0,0.4,0
		c0.2,0.1,0.2,0.2,0.3,0.2s0.2,0.1,0.3,0.1s0.1,0,0.2,0c0.1,0,0.3,0,0.4,0s0.3,0.1,0.4,0.1s0.1-0.1,0.2-0.1c0,0,0.1,0.1,0.2,0.1
		s0.1-0.1,0.2-0.1c0.1-0.1,0.1-0.1,0.2-0.1s0.3-0.1,0.4-0.1s0.1,0.1,0.2,0.1s0.1,0,0.2,0l0.1,0.1c0.1,0,0.2,0,0.2,0
		c0.1,0,0.3,0.1,0.4,0.1c0.2,0,0.5-0.3,0.7-0.1l3.7,0.7l0,0l1.5-7.9c-6.3-1.4-10-2.5-10-2.5C12.3,34.5,12.4,34.6,12.4,34.7z"/>
	<path class="st1" d="M44.2,61.9c-3.2-0.2-7.2-0.7-10.1-1.1l-1.4,11c4.4,0.5,8.8,0.9,12.9,1.1c0.7,0,1.4,0.1,2.1,0.1l0.4-8.2
		l0.1-2.9C47.2,62.1,45.8,62.1,44.2,61.9z"/>
	<path class="st1" d="M77.7,88.5v-0.8c0-0.3-0.1-0.5-0.1-0.8c0-0.5-0.1-1.1-0.1-1.6c0-0.3,0-0.6,0-0.9s0-0.5,0-0.8
		c-0.1-0.5,0-1,0-1.4c0-0.2,0.1-0.4,0.1-0.6v-0.7c0-0.5-0.1-1-0.1-1.4c0-0.1,0-0.2,0.1-0.4c0-0.1,0-0.3,0-0.4s0-0.2,0-0.3l0,0
		c-2.3,0.2-4.1,0.3-4.6,0.3c-0.2,0.2-0.2,0.5-0.3,0.7c0,0.1,0,0.3-0.1,0.3h-0.1c0,0-0.1,0.1-0.1,0.2s0,0.6-0.2,0.6
		c0-0.1-0.3,0-0.3,0.1c-0.2,0,0,0.5-0.2,0.6c-0.1,0.1-0.2,0-0.2,0.2c0,0.1,0,0.3,0,0.4s0,0.2-0.1,0.3c-0.1,0.1-0.1,0.1-0.2,0.3
		c0,0.2-0.3,0.5-0.1,0.7c0.1-0.1,0.3-0.5,0.4-0.2c0.1,0.2-0.2,0.4-0.2,0.6c0.2,0.2,0.4,0,0.2,0.4c-0.1,0.1-0.1,0.2-0.1,0.3
		c0,0,0,0,0,0.1l0,0c0,0.1,0,0.2,0.1,0.2s0.2-0.1,0.2,0.1c0,0.1-0.2,0.2-0.2,0.3c0,0.1,0,0.5,0,0.5c0.1,0.2,0.3,0,0.4,0
		c0.1,0.1-0.1,0.3-0.1,0.4s-0.1,0.1-0.1,0.2s0.1,0.1,0.1,0.2s0,0.2-0.1,0.3l-0.1,0.1c0,0.1,0,0.1,0,0.2c0,0.2-0.1,0.1-0.2,0.2
		s-0.1,0.2-0.2,0.3c-0.1,0.1-0.2,0-0.3,0.2v0.1c0.2,0,0.1,0.1,0.1,0.1c-0.1,0.1-0.3,0.1-0.3,0.3c0,0.1,0.2,0.1,0.1,0.2
		s-0.3,0.1-0.2,0.3c0.1,0.1,0.2,0.1,0,0.3c-0.2,0.2-0.3,0.2-0.2,0.4c0,0.2,0.1,0.4,0.1,0.5c0.1,0,0.3,0,0.4,0c0.5,0,1-0.1,1.5-0.1
		c0.4,0,0.8-0.1,1.2-0.1c0.2,0,0.6-0.1,0.8-0.1c0.3,0.1,0.1,0.4,0,0.6c0,0.1-0.1,0.3-0.1,0.4s0.1,0.2,0.2,0.2c0,0.1,0,0.2,0.1,0.2
		c0.1,0.1,0.2,0.1,0.3,0.2c0.1,0.1,0.2,0.2,0.2,0.4c0,0.1,0,0.2,0,0.2c0,0.1,0.1,0.1,0.2,0.1s0.2,0.1,0.3,0.2v-0.1
		c0-0.1-0.2-0.2-0.1-0.3c0-0.2,0.4-0.3,0.5-0.4c0.2-0.1,0.4,0,0.6-0.2c0,0,0.1,0,0.1-0.1l0,0l0,0l0,0c0.1,0.1,0.1,0.2,0.2,0.2
		c0.2,0.1,0.2-0.1,0.2-0.3v-0.1c0-0.1,0-0.3,0-0.4s0-0.3,0-0.4s0-0.1,0.1-0.1c0.1-0.1,0.1-0.3,0-0.3c0-0.1,0-0.1,0-0.2
		s0-0.2,0.1-0.3C77.8,88.8,77.7,88.6,77.7,88.5z"/>
	<path class="st1" d="M77,90.8L77,90.8L77,90.8L77,90.8z"/>
	<path class="st1" d="M21.9,72.4v-0.2C21.9,72.3,21.9,72.3,21.9,72.4C21.9,72.4,21.9,72.5,21.9,72.4c-0.2,0.1-0.3,0.1-0.3,0.2
		c-0.1,0.1-0.1,0.2-0.2,0c-0.2-0.1-0.1-0.1-0.3-0.1s-0.2,0-0.3-0.1c-0.1,0-0.2-0.1-0.3,0c-0.1,0.2,0.1,0.5,0,0.7
		c0,0.1-0.1,0.2-0.2,0.2c-0.1,0.1,0,0.2,0,0.3c0,0.1-0.3,0.5-0.1,0.6c0,0.1,0,0.3,0,0.4s-0.1,0.1-0.1,0.1c0,0.1,0,0.1,0,0.2
		s0,0.1,0,0.2s0,0.1,0,0.2v0.1c0,0.1,0,0.2,0,0.2c0,0.1,0,0.2,0,0.3c0,0.1,0,0.1,0.1,0.2v0.1c0,0.1,0,0.1,0,0.2s-0.1,0.1,0,0.1
		c0,0.1,0.1,0.2,0.2,0.2s0.1,0.2,0.2,0.2c0,0.1,0.1,0.1,0.1,0.2l0,0l0,0l0,0l0,0l0,0c0,0,0.1,0,0.1,0.1v0.2c0,0.1-0.1,0.1-0.1,0.2
		c0,0,0,0,0,0.1l0,0h-0.1c-0.1,0-0.1,0.1-0.2,0.1s-0.2,0.1-0.3,0.1c-0.1,0.1,0,0.2-0.1,0.3l-0.1,0.1c-0.1,0-0.1,0-0.1,0.1
		s0.1,0.1,0.1,0.1v0.1c0,0.1,0,0.1-0.1,0.1c0,0.1,0,0.2,0,0.3c0,0.1,0,0.1-0.1,0.2s-0.2,0.1-0.2,0.1c-0.1,0.1,0,0.2,0,0.2
		c-0.1,0.1-0.1,0.1-0.2,0.1s-0.2,0.1-0.2,0.2s0,0.1,0,0.1V80c0,0.1,0,0.2,0.1,0.3c0,0,0.1,0,0.1,0.1c0,0,0.1,0,0.1,0.1l0,0l0,0h0.1
		l-0.1,0.1c0,0.1,0,0.2,0,0.3C19.3,81,19.2,81,19.1,81c0,0-0.1,0-0.1,0.1l0,0l-0.4,0.7l0,0l7.9,4.5l0,0l4.3,0.5l1.9-15.1
		c-3.5-0.4-7.1-1-10.4-1.6L21.9,72.4z"/>
	<path class="st1" d="M103.8,64.8c0,0.1-0.1,0.1-0.1,0.2c0,0.1,0,0.1-0.1,0.1l0,0c-0.1,0-0.1,0.1-0.1,0.1c0,0.1,0,0.1-0.1,0.1
		l-0.1,0.1c0,0,0,0.1-0.1,0.1c0-0.1,0-0.2-0.1-0.2c-0.1-0.1-0.2,0.1-0.2,0.2s0,0.1,0.1,0.2c0.1,0,0.1,0.1,0.2,0.2
		c0.1-0.1,0-0.2,0.1-0.2c0.1-0.1,0.1,0,0.2,0.1c0,0.2-0.2,0.2-0.3,0.4c-0.2,0.2,0,0.3-0.1,0.5c0,0.1-0.2,0.3-0.3,0.3
		c-0.3,0.1,0.1,0.3,0.1,0.4c-0.1-0.1-0.3,0-0.2,0.2c0,0.1,0.1,0.1,0.1,0.2s0,0.2,0,0.2c0,0.1-0.1,0.3-0.3,0.3
		c-0.2,0-0.1-0.3-0.1-0.4s-0.1-0.3-0.2-0.4c0.1,0.1,0.1,0,0.1-0.1s-0.1-0.1-0.1-0.1c0.1-0.1,0.1,0,0.1-0.1s-0.1-0.1-0.1-0.2
		s0.1,0,0.1-0.1s-0.1-0.1,0-0.1h0.1v-0.1h0.1c0,0,0-0.1,0.1-0.1c0,0,0.2-0.1,0.2-0.2s-0.2,0-0.3,0v-0.1c-0.1,0-0.1,0-0.2,0.1h-0.1
		c0-0.1,0-0.1,0-0.1v-0.1c0-0.1-0.1-0.1-0.2-0.1c0-0.1,0.1-0.2,0-0.3c-0.1,0-0.1,0-0.1,0c0-0.1,0.1-0.1,0.1-0.2s-0.1-0.2-0.1-0.2
		c0-0.1,0-0.1-0.1-0.1c-0.4-0.1,0,0.5-0.5,0.3c-0.1,0-0.2-0.1-0.2-0.3c0-0.1,0-0.2-0.1-0.2c-0.1-0.1-0.2-0.1-0.2-0.1
		c-0.1-0.1,0-0.2,0-0.3c0-0.2-0.1-0.5-0.3-0.5c-0.3-0.1-0.4,0.3-0.3,0.5c0.2,0.4,0.4,0.7,0.6,1.1c0.1,0.2,0.2,0.4-0.1,0.4
		c-0.3,0-0.2-0.3-0.5-0.4c-0.1,0-0.2,0.1-0.3,0.1c-0.1,0-0.1,0-0.2-0.1c-0.2-0.1-0.4,0.1-0.6,0c0,0.1,0,0.1,0,0.2H99
		c-0.1,0-0.1,0-0.1,0l0,0l0,0l0,0l0,0l0,0c0-0.1,0.1-0.2,0.2-0.3l0,0l0,0c0,0,0,0,0-0.1l0,0v-0.2c0,0,0,0,0-0.1l0,0l0,0l0,0l0,0l0,0
		l0,0l0,0c0,0,0.1-0.1,0-0.1c0,0,0,0,0-0.1c0,0,0,0,0-0.1l0,0l0,0l0,0c0,0,0,0-0.1-0.1l0,0c-0.1,0-0.1,0-0.2-0.1
		c-0.1-0.1-0.2-0.2-0.4-0.3h-0.1l0,0l0,0l0,0l0,0l0,0l0,0l0,0l0,0l0,0l0,0l0,0c0,0,0,0,0-0.1c0,0,0,0,0-0.1l0,0l0,0l0,0
		c0,0,0,0,0-0.1l0,0l0,0l0,0l0,0l0,0l0,0l0,0l0,0l0,0l0,0l0,0c-0.1,0-0.1,0-0.2,0l0,0l0,0l0,0l0,0l0,0l0,0l0,0c0,0,0,0,0-0.1l0,0
		l0,0l0,0l0,0c0,0-0.1,0-0.1-0.1c0,0,0,0-0.1,0l0,0c-0.1,0-0.2,0-0.2-0.1l0,0l0,0l0,0c-0.1,0-0.1-0.1-0.2-0.1s-0.1,0-0.2,0
		s-0.2,0-0.2,0H97l0,0l0,0l0,0h-0.1l0,0c0,0,0,0-0.1,0h-0.1l0,0l0,0l0,0l0,0c-0.2,0-0.4,0.1-0.6,0.2c-0.1,0.1-0.2,0.1-0.3,0.2
		c-0.1,0.1-0.1,0.2-0.1,0.3c-0.1,0.2-0.3,0-0.5,0.2c-0.1,0.1,0,0.2-0.1,0.3c0,0.1-0.1,0.1-0.2,0.2l-0.1,0.1c0-0.1,0-0.2-0.1-0.4
		c0-0.2,0-0.3-0.1-0.5c0-0.2,0-0.3,0-0.5c0-0.1,0-0.1,0-0.2l7-1.3l0-0.9l0.6,2.7l1.4-0.4C103.6,64.1,104,64.5,103.8,64.8z"/>
	<path class="st1" d="M96.5,63L96.5,63C96.4,63,96.4,63,96.5,63C96.4,63,96.4,63,96.5,63z"/>
	<path class="st1" d="M97.6,63.2C97.6,63.2,97.5,63.2,97.6,63.2C97.5,63.2,97.5,63.2,97.6,63.2C97.5,63.2,97.5,63.2,97.6,63.2
		C97.5,63.2,97.6,63.2,97.6,63.2z"/>
	<path class="st1" d="M97.8,63.4L97.8,63.4L97.8,63.4z"/>
	<path class="st1" d="M97.8,63.4L97.8,63.4L97.8,63.4z"/>
	<path class="st1" d="M98.1,63.4L98.1,63.4c-0.1,0-0.2,0-0.3,0l0,0l0,0C98,63.4,98,63.4,98.1,63.4L98.1,63.4z"/>
	<path class="st1" d="M98.2,63.5C98.2,63.4,98.2,63.4,98.2,63.5C98.2,63.4,98.2,63.4,98.2,63.5z"/>
	<path class="st1" d="M98.2,63.5L98.2,63.5L98.2,63.5z"/>
	<path class="st1" d="M98.3,63.8L98.3,63.8L98.3,63.8z"/>
	<path class="st1" d="M98.4,63.9C98.3,63.8,98.3,63.8,98.4,63.9C98.3,63.8,98.3,63.8,98.4,63.9z"/>
	<path class="st1" d="M98.4,63.9L98.4,63.9L98.4,63.9L98.4,63.9L98.4,63.9L98.4,63.9z"/>
	<path class="st1" d="M99.1,65.6L99.1,65.6C99.1,65.5,99.1,65.5,99.1,65.6C99.1,65.5,99.1,65.5,99.1,65.6L99.1,65.6z"/>
	<path class="st1" d="M99.2,64.3L99.2,64.3c-0.1-0.1-0.2-0.1-0.2-0.1c-0.1-0.1-0.2-0.2-0.4-0.3h-0.1l0,0l0,0h0.1
		c0.1,0,0.3,0.2,0.4,0.3C99,64.3,99.1,64.3,99.2,64.3L99.2,64.3z"/>
	<path class="st1" d="M99.3,64.5L99.3,64.5C99.3,64.4,99.3,64.4,99.3,64.5C99.3,64.4,99.3,64.4,99.3,64.5L99.3,64.5z"/>
	<path class="st1" d="M99.3,65.1L99.3,65.1v-0.2c0,0,0,0,0-0.1c0,0,0,0,0,0.1V65.1L99.3,65.1z"/>
	<path class="st1" d="M99.4,65.7L99.4,65.7c-0.2,0-0.2,0-0.2,0H99.4C99.3,65.7,99.3,65.7,99.4,65.7L99.4,65.7z"/>
	<path class="st1" d="M108.8,49.4c0-0.1,0-0.3-0.1-0.3c-0.1-0.1-0.2-0.1-0.2-0.1c0-0.1-0.1-0.1-0.1-0.1c0-0.1,0-0.1,0-0.2
		c0-0.1,0-0.1-0.1-0.1c0,0,0-0.1-0.1-0.2l-1.1-3.8c-0.1,0-0.1,0.1-0.2,0.1s-0.1,0-0.1,0s0,0.1-0.1,0.1c-0.1,0.1-0.2,0-0.2,0.1
		c-0.1,0.2,0,0.3-0.1,0.5c0,0.1-0.2,0.2-0.3,0.2v0.1c0,0.1,0.1,0.1,0.1,0.2c0,0.1,0,0.1,0,0.1c0,0.1-0.1,0.1-0.1,0.1
		c0,0.1,0,0.2,0,0.3s0,0.1,0,0.1v0.1c0,0.3-0.2,0.6-0.4,0.8c-0.1,0.1-0.2,0.1-0.2,0.2c-0.1,0.1,0,0.2,0,0.4c0,0.1,0.1,0.2,0.1,0.3
		c0,0.2-0.1,0.4-0.1,0.6c0,0.1,0,0.2,0.1,0.3c0,0.1,0,0.2,0,0.3s-0.1,0.2-0.1,0.3s0.1,0.1,0.1,0.2c0,0.1-0.1,0.2-0.1,0.3
		s0.1,0.2,0.1,0.3c0,0.2-0.1,0.4-0.1,0.6c0,0.2,0.2,0.4,0.2,0.6c0,0.1,0,0.1,0,0.2c0.8-0.2,1.8-0.4,2.1-0.5c0.1,0,0.2-0.1,0.2-0.1
		c0.1-0.1,0.2-0.2,0.3-0.3c0.1-0.1,0.2-0.2,0.3-0.3c0.1,0,0.2-0.2,0.3-0.2l0,0c0-0.1,0-0.1,0-0.2c0-0.1,0-0.3,0-0.4l0,0l0,0
		c-0.1-0.1-0.3-0.1-0.4-0.2C109,49.6,108.8,49.5,108.8,49.4z"/>
	<path class="st1" d="M104.5,54.2L104.5,54.2l0.6,2.7c0,0,0.1-0.1,0.2-0.1s0.2-0.1,0.2-0.1c0.1-0.1,0.1-0.2,0.1-0.3
		c0.1-0.1,0.2-0.1,0.3-0.1c0.1-0.1,0.1-0.2,0.2-0.2c0.2,0,0.4-0.2,0.6-0.2s0.4-0.1,0.5-0.1s0.1,0,0.2,0s0.1-0.1,0.1-0.1
		s0.1,0,0.1-0.1c0.1,0,0.1-0.1,0.1-0.1c0.1-0.1,0.4-0.2,0.6-0.1l0.1,0.1l-0.5-2.1C106.8,53.6,104.9,54.1,104.5,54.2z"/>
	<path class="st1" d="M86.8,54.3c-0.1-0.2-0.2-0.2-0.2-0.4s0-0.3-0.1-0.5c-0.1-0.1-0.2-0.3-0.3-0.4c-0.1-0.2,0-0.3-0.1-0.5
		c-0.1-0.1-0.2-0.2-0.3-0.3c-0.2-0.1-0.3,0.1-0.4,0.2c-0.1,0.1-0.3,0.1-0.5,0.1c-0.1,0.1,0,0.2-0.1,0.3h-0.1l-0.1,0.1
		c-0.1,0.2-0.1,0.5-0.3,0.6c-0.2,0.1-0.4-0.2-0.5-0.3c-0.1-0.2,0-0.4,0.1-0.6c0.2-0.2,0.2-0.4,0.3-0.6c0.1-0.2,0.3-0.3,0.3-0.5
		c0.1-0.3-0.1-0.6-0.1-0.8s0-0.5-0.1-0.7c0-0.1-0.4-0.5-0.4-0.6s0.3,0.2,0.4,0.1c0.1-0.1-0.3-0.5-0.4-0.6c-0.2-0.2-0.4-0.4-0.7-0.4
		c-0.2,0-0.4,0-0.6-0.1s-0.4-0.2-0.6-0.1c-0.2,0.1-0.3,0-0.4-0.2c-0.2-0.2-0.3-0.3-0.5-0.1c-0.1,0.1-0.3,0.3-0.2,0.5
		c0.1,0.1,0.4,0.3,0.3,0.5c-0.1,0.1-0.5,0.1-0.6,0.2c-0.2,0.1-0.1,0.4-0.1,0.6c0,0.2,0,0.4,0,0.6c0,0.2,0,0.3,0,0.5
		c0-0.1-0.1-0.2-0.1-0.2c0-0.1-0.1-0.2-0.2-0.1C80.1,50.7,80.1,51,80,51s0-0.3,0-0.3c0-0.1,0.1-0.2,0.1-0.4c0-0.1,0.1-0.7-0.1-0.7
		c-0.1,0-0.2,0.2-0.2,0.3s0,0.3-0.1,0.4c-0.1,0.1-0.2,0.1-0.3,0.2c-0.1,0.1-0.1,0.2-0.2,0.3c-0.1,0.3-0.3,0.4-0.3,0.7s0,0.6-0.1,0.9
		c-0.1,0.2-0.3,0.4-0.2,0.7c0,0.1,0.1,0.3,0.1,0.4c0,0.1,0,0.2-0.1,0.4c-0.1,0.3-0.1,0.5,0.1,0.7c0,0.2,0,0.3,0.2,0.4
		c0.2,0.1,0.2,0.3,0.2,0.5c0,0.1,0.1,0.3,0.1,0.4c0.1,0.2,0.2,0.2,0.1,0.4c-0.1,0.3,0,0.7-0.1,1.1c-0.1,0.3-0.2,0.7-0.3,1
		c0,0.2-0.2,0.5-0.3,0.7c1-0.1,3.2-0.3,3.8-0.4v0.2l0,0c0.3,0,1.9-0.2,2.6-0.4c0,0,0,0,0-0.1c-0.1-0.3,0.4-0.5,0.4-0.8
		c0-0.1-0.1-0.3-0.1-0.4c0-0.1,0.1-0.2,0.1-0.3c0.1-0.2,0.4-0.4,0.5-0.6c0.1-0.1,0.2-0.3,0.3-0.5c0-0.1,0.1-0.2,0.1-0.3
		s0-0.2,0.1-0.2c0.1-0.1,0.1-0.1,0.2-0.2c0.1-0.1,0-0.3,0-0.5C86.8,54.6,86.9,54.4,86.8,54.3z"/>
	<path class="st1" d="M102.9,71.7c-0.2,0.1-0.4,0.1-0.5,0.1c-0.2,0-0.4,0-0.6,0c-0.1,0-0.4,0.4-0.5,0.1c-0.1-0.1,0.1-0.3,0.1-0.5
		c0,0,0,0,0.1,0c0-0.1-0.1-0.2,0-0.2c0.2,0,0.1,0.2,0.2,0.3c0.1,0.1,0.2,0.1,0.4,0c0.6-0.1-0.1-0.3,0-0.5c0.1,0,0.2,0.1,0.3,0.1
		c0.1,0.1,0.1,0.2,0.3,0.1c0-0.1,0-0.5,0.2-0.5c0,0,0.2,0.3,0.3,0.2c0-0.2,0.4,0.1,0.6,0.1c0-0.1-0.1-0.2-0.2-0.3
		c0-0.1,0-0.4-0.2-0.4c0,0.1,0,0.2,0,0.3c-0.2-0.1-0.2-0.3-0.2-0.5l0,0V70c-1.5,0.3-7.1,1.3-13,2.1l0.2,1.2
		c-0.1,0.1-0.1,0.1-0.1,0.2s-0.2,0.1-0.2,0.1c-0.1,0.1-0.1,0.1-0.2,0.2s-0.1,0.1-0.1,0.2c-0.1,0.1-0.1,0.1-0.2,0.1s-0.2,0.1-0.2,0
		c0,0,0-0.1,0-0.2s0.1-0.3-0.1-0.3c-0.1,0-0.2,0.2-0.3,0.3c-0.1,0.1-0.1,0.3-0.1,0.4s-0.1,0.3-0.3,0.3c-0.1,0-0.3,0.1-0.4,0.2
		c-0.1,0-0.1,0.1-0.2,0.2c0,0,0,0.1-0.1,0.1c0,0-0.1,0-0.1,0.1c-0.1,0.3-0.1,0.3-0.2,0.3s-0.1,0-0.2,0s-0.1,0-0.2,0
		s-0.1,0.1-0.2,0.1c-0.1,0.1-0.2,0.2-0.3,0.4c-0.1,0.1-0.1,0.2-0.2,0.3c-0.1,0.1-0.3,0.1-0.3,0.3c0,0.1,0,0.1,0,0.2
		s-0.1,0.1-0.1,0.2c-0.1,0.1,0,0.2,0,0.3v0.1c1.1-0.1,2-0.3,2.7-0.5l0.1-0.1c0.1-0.1,0.2-0.1,0.3-0.2c0.1,0,0.1,0,0.2,0
		s0.1-0.1,0.2-0.1c0.1-0.1,0.2,0,0.4-0.1c0.1-0.1,0.2-0.2,0.3-0.2c0.1,0,0.3,0,0.4,0c0.2,0,0.2-0.1,0.3-0.1l2-0.1
		c0.1,0.1,0,0.3,0.1,0.3s0.2,0,0.2,0l0.4,0.5l2.4-0.4c0,0,0,0,0-0.1l2.9,2l0,0c0.2-0.2,0.3-0.2,0.6-0.4c0.1-0.1,0.2-0.1,0.3-0.3
		c0.1-0.1,0-0.3,0.2-0.3c0,0.2,0,0.4,0,0.6c0.1-0.2,0.3-0.4,0.4-0.6c0.2-0.4,0.3-0.8,0.6-1.2c0.1-0.1,0.3-0.2,0.4-0.3
		c0.1-0.1,0.3-0.1,0.4-0.2l0,0c0.2,0.1,0.5-0.1,0.7-0.1c0.3,0,0.5-0.1,0.7-0.3c0.1-0.2,0.4-0.5,0.4-0.8s-0.2-0.4-0.5-0.4
		c-0.1,0-0.5,0.2-0.6,0.1c-0.2-0.1,0.1-0.3,0.1-0.4s-0.1-0.3-0.2-0.4c0.1-0.1,0-0.3,0.2-0.3s0.1,0.3,0.3,0.3c0-0.1,0-0.2,0-0.3
		c0.1,0,0.1,0.1,0.1,0.2c0.4,0,0.4-0.5,0.7-0.7c0.2-0.2,0.2-0.2,0.2-0.5c0-0.2,0-0.4-0.1-0.5C103.7,71.5,103.2,71.6,102.9,71.7z"/>
	<path class="st1" d="M82.4,46.8c-0.1-0.1-0.2-0.1-0.2-0.2c0-0.1,0-0.2-0.1-0.3c-0.1-0.4-0.9-0.2-1.2-0.2l0,0
		c-0.1,0-0.2-0.1-0.3-0.2c-0.1-0.1,0-0.2,0-0.4s-0.3-0.2-0.5-0.2s-0.3,0.2-0.6,0.2c-0.2,0-0.4-0.1-0.6,0c-0.2,0-0.3,0.3-0.5,0.4
		c-0.1,0-0.2,0.1-0.2,0.2c-0.1,0.1-0.2,0.1-0.3,0.2c-0.1,0.1-0.1,0.1-0.3,0.2c-0.1,0-0.2,0-0.3,0.1c0,0.1-0.1,0.2-0.2,0.2
		s-0.1-0.2-0.2-0.3s-0.5,0-0.5-0.2c-0.1,0-0.2-0.1-0.3-0.1c-0.1,0-0.2-0.1-0.3-0.2c-0.1,0-0.2,0.1-0.3,0c0-0.1,0-0.1-0.1-0.1
		S75.3,46,75.3,46c0,0.1-0.2,0.1-0.3,0.1l0,0c0.1,0,0.1-0.1,0-0.1c0,0-0.1-0.1-0.1-0.2c-0.1-0.1-0.2,0.2-0.3,0.1
		c0-0.1,0-0.4-0.1-0.4s-0.2,0.2-0.3,0.2c0,0.1-0.1,0.1-0.1,0.2C74,46,73.9,46,73.9,45.8c0-0.2,0-0.4,0.1-0.5s0.2-0.2,0.4-0.3
		c0.1-0.1,0.2-0.2,0.2-0.3c0.1-0.2,0.2-0.3,0.3-0.4c0.1-0.1,0.3-0.2,0.4-0.3c0.2-0.2-0.5-0.1-0.6-0.1c-0.3,0.1-0.5,0.4-0.7,0.5
		c-0.3,0.2-0.5,0.6-0.8,0.8c-0.2,0.2-0.5,0.3-0.7,0.6S72,46,71.7,46.1c-0.3,0-0.5,0.3-0.7,0.4c-0.2,0.1-0.4,0.2-0.6,0.3l0,0l0,0
		c0.1,0,0.1,0.1,0.2,0.1c0.1,0.1,0.1,0.2,0.2,0.3c0.1,0.2,0.2,0.5,0.5,0.5c0.1,0,0.2,0,0.3,0c0.1,0,0.2,0.1,0.4,0.1
		c0.1,0,0.3,0,0.4,0.1c0.1,0,0.1,0,0.2,0s0.2,0,0.2,0.1c0.3,0,0.6,0.1,0.8,0.3c0.1,0.1,0.1,0.1,0.3,0.1c0.1,0,0.2-0.1,0.3-0.1
		c0.1,0,0.2,0.1,0.3,0.1c0.1,0,0.2-0.1,0.3,0c0.1,0.1,0,0.2,0,0.3c0.1,0.1,0.2,0,0.3,0.1c0.1,0,0.2,0.1,0.3,0.1c0.1,0,0.2,0,0.2,0.1
		s-0.1,0.2-0.1,0.3s0,0.2,0,0.3c0,0-0.1,0.2,0,0.3c0.1,0,0.2-0.1,0.3,0c0.1,0,0.1,0.2,0.2,0.2s0.1,0.1,0.2,0.1
		c0.1-0.3,0.3-0.5,0.3-0.8c0-0.1,0-0.2,0-0.3c0.1-0.1,0.2-0.1,0.2-0.2c0.1-0.1,0-0.4,0.2-0.4c0,0.2,0.2,0.1,0.3,0.1
		c0.2,0,0.2-0.3,0.3-0.5c0-0.1,0.2-0.1,0.2,0c0.1,0.1-0.1,0.2-0.1,0.3s-0.1,0.3,0,0.3c0.1,0.1,0.2-0.1,0.2-0.1
		c0.1-0.1,0.1-0.1,0.2-0.2c0.1-0.1,0.1-0.2,0.2-0.3c0.2-0.2,0.4-0.2,0.6-0.2c0.1,0,0.2,0,0.3-0.1c0.1-0.1,0.1-0.1,0.2-0.2
		c0.1-0.1,0.1-0.2,0.2-0.2s0.3,0,0.4,0s0.2,0,0.3,0.1c0.1,0,0.2,0,0.4,0.1c0.1,0,0.2,0.1,0.3,0.1c0.1,0.1,0.1,0.2,0.2,0.2
		c0.4,0.1-0.1-0.5,0.2-0.5c0.1,0.1,0.1,0,0.2-0.1s0.2,0,0.3,0C82.7,47.1,82.6,46.9,82.4,46.8z"/>
	<path class="st1" d="M21.5,45.7c-0.1-0.1-0.2-0.1-0.2-0.1c0-0.1,0-0.1,0-0.2c0-0.2-0.2-0.5-0.3-0.6l0,0l-3.7-0.7
		c-0.1-0.2-0.5,0.1-0.7,0.1c-0.1,0-0.3,0-0.4-0.1c-0.1,0-0.2,0-0.2,0L15.9,44c-0.1,0-0.1,0-0.2,0s-0.1-0.1-0.2-0.1S15.2,44,15.1,44
		s-0.1,0-0.2,0.1c-0.1,0-0.1,0.1-0.2,0.1s-0.1-0.1-0.2-0.1s-0.1,0.1-0.2,0.1c-0.2,0-0.3-0.1-0.4-0.1s-0.3,0-0.4,0c0,0-0.1,0-0.2,0
		c-0.1,0-0.2-0.1-0.3-0.1c-0.2,0-0.2-0.1-0.3-0.2c-0.1-0.1-0.3,0-0.4,0c-0.2,0-0.3-0.1-0.4-0.1c-0.1,0-0.3,0-0.4,0
		c-0.1,0-0.1,0-0.2,0c-0.2,0-0.3,0.1-0.4-0.1c-0.1-0.1-0.1-0.1-0.2-0.1c-0.1,0-0.2,0-0.2,0c-0.1,0-0.1,0-0.1-0.1s0-0.1,0-0.1
		c0-0.1,0-0.1,0-0.2c0-0.1-0.1-0.2-0.1-0.3s0-0.2,0.1-0.2c0.1-0.1,0.1-0.1,0.1-0.3c0-0.1-0.1-0.1-0.1-0.2c0-0.1,0.1-0.1,0.1-0.2
		c0-0.1,0-0.2-0.1-0.2c-0.1-0.1-0.2-0.2-0.3-0.2c-0.1,0.1-0.1,0.2-0.2,0.2l-0.1-0.1c0,0-0.1,0-0.1-0.1c-0.1,0-0.1-0.1-0.1-0.1
		s0,0-0.1,0s-0.1-0.1-0.2-0.1c0.1,0,0.1,0.1,0.1,0.1c-0.2,0-0.3,0-0.5,0c-0.1,0-0.2-0.1-0.4-0.1s-0.2,0.2-0.2,0.3
		c-0.1,0.1-0.2,0.2-0.2,0.3C8,42.2,8,42.6,7.9,42.8c0,0.3-0.2,0.5-0.3,0.8s-0.2,0.6-0.3,0.9C7.2,44.7,7,45,7,45.2
		c-0.1,0.3-0.1,0.6-0.2,0.8c-0.2,0.3-0.2,0.5-0.3,0.8s-0.2,0.5-0.3,0.7s-0.3,0.4-0.4,0.6c-0.2,0.3-0.2,0.5-0.4,0.7
		c-0.1,0.2-0.2,0.4-0.3,0.6c-0.1,0.2-0.3,0.3-0.4,0.5s0,0.5,0,0.8s-0.1,0.5-0.1,0.8c0,0.2,0.1,0.4,0.1,0.6v0.1
		c1.2,0.4,4.1,1.3,8.1,2.3c1.8,0.4,3.8,0.9,5.9,1.3l1.1-5.4v-0.1c0.1-0.1,0-0.1,0-0.2c0-0.1,0-0.1,0-0.2c0-0.1,0-0.1,0-0.1
		c0-0.1,0.1-0.2,0.1-0.2c0-0.1,0-0.2,0-0.2c-0.1-0.2-0.1-0.3,0.1-0.4c0-0.1,0-0.2,0-0.3s0.1-0.1,0.1-0.1c0.1,0,0.1-0.1,0.1-0.1
		l0.1-0.1c0,0,0.1,0,0.1-0.1c0.1,0,0.1-0.1,0.1-0.1c0-0.1,0-0.3,0.1-0.4c0.1-0.1,0.2-0.2,0.3-0.3l0,0c0.1-0.1,0.1-0.2,0.2-0.4
		c0-0.1,0.1-0.2,0.2-0.3s0.1-0.1,0.2-0.2c0.1,0,0.2-0.1,0.2-0.1v-0.1c0-0.1,0.1-0.1,0.1-0.2c0-0.1,0-0.1,0-0.2
		C21.6,45.8,21.6,45.7,21.5,45.7z"/>
	<path class="st1" d="M61.8,64.8c-0.1-0.2-0.4-0.3-0.5-0.5c-0.1-0.2-0.1-0.5-0.2-0.7l0,0c0-0.2-0.1-0.3-0.3-0.4
		c-0.2-0.2-0.1-0.3-0.1-0.5c0-0.1-0.1-0.2-0.1-0.3c-0.1-0.2,0.1-0.4-0.1-0.6c-0.1-0.1-0.2-0.2-0.2-0.3s0-0.2,0-0.3
		c0-0.3-0.1-0.3-0.3-0.4c0.1-0.1,0-0.3,0-0.5s-0.1-0.3-0.2-0.4c0-0.1,0-0.2,0-0.3s0-0.1-0.1-0.2c-0.1-0.1,0-0.2,0-0.4
		s-0.2-0.2-0.2-0.4c0-0.1,0-0.2,0-0.4c0-0.1,0-0.2-0.1-0.3v-0.1l0,0l0,0c-0.1,0-0.2,0-0.2-0.1c-0.1,0-0.2-0.1-0.2-0.1
		c-0.1,0-0.2-0.1-0.2-0.2c-0.1,0.2-0.1,0.1-0.2,0.1s-0.1,0-0.2,0c-0.1,0-0.3,0-0.4-0.1c-0.1,0-0.1-0.1-0.2-0.1c-0.1,0-0.1,0-0.2,0
		c-0.1,0-0.3,0-0.4,0c-0.1,0-0.3,0-0.4,0c-0.1,0-0.1,0-0.2,0c-0.1,0-0.1,0-0.2-0.1c-0.1,0-0.1-0.1-0.2-0.2c-0.1,0-0.1-0.1-0.2-0.1
		c-0.1,0-0.1-0.1-0.2-0.1h-0.1c-2.1,0.2-9.7-0.3-11.1-0.4L44.2,62c1.6,0.1,3,0.2,4,0.1L48.1,65c2.1,0.1,10.1,0.6,13.9,0.4v-0.1
		C61.9,65,61.9,64.9,61.8,64.8z"/>
	<path class="st1" d="M63.6,73.5c-0.9,0-7.4,0.1-15.9-0.4c-0.7,0-1.4-0.1-2.1-0.1l-0.1,1.5c1.2,0,6,0.2,6.4,0.2l-0.2,5.1
		c0,0,0,0,0,0.1c0,0,0,0,0.1,0s0.3,0.1,0.3,0.2s0.1,0.1,0.1,0.1c0.1,0.1,0,0.1,0.1,0.2c0.1,0,0.1,0,0.2,0c0.2,0,0.2,0.1,0.4,0.1
		s0.3-0.1,0.5,0s0.2,0.3,0.3,0.5c0,0.1,0.1,0.1,0.2,0.1c0.1,0,0.2,0,0.3,0s0.1,0,0.2,0c0.1,0,0.3,0,0.4,0c0.1,0,0.1,0,0.2,0
		c0.1,0,0.1,0.1,0.1,0.1c0.1,0.1,0.2,0.2,0.3,0.1c0.1,0,0.1,0,0.2,0c0.1,0,0.1,0.1,0.2,0c0.1,0,0.1-0.1,0.2,0c0.1,0,0.1,0.2,0.2,0.2
		c0.1,0.1,0.2,0.3,0.3,0.4c0.1,0,0.3-0.1,0.4-0.2c0.2-0.2,0.2,0,0.3,0.1s0.1,0.1,0.1,0.2c0.1,0.1,0.3,0.1,0.4,0.1
		c0.1,0,0.2-0.2,0.4-0.2c0.1,0,0.1,0,0.2,0c0.1,0,0.2,0,0.2,0c0.1,0,0.1,0.1,0.2,0.1c0.1,0,0.2-0.1,0.2-0.1c0.2,0,0.3-0.1,0.4,0
		c0.2,0.1,0.3,0.1,0.4,0.1c0.2,0,0.3,0,0.5,0s0.3,0,0.5-0.1c0.2,0,0.5-0.1,0.8-0.1c0.2,0,0.2,0.1,0.4,0.1c0.1,0,0.1-0.1,0.2-0.1
		s0.2,0,0.2,0c0.1,0,0.3,0.1,0.4,0.1s0.1,0.1,0.2,0.1s0.1,0,0.2,0s0.2,0.2,0.3,0.2c0.1,0,0.1,0,0.2,0s0.1,0.1,0.2,0.2
		c0,0,0,0,0.1,0.1l-0.3-7.6V73.5z"/>
	<path class="st1" d="M88.7,68.8c-0.2-0.3-0.4-0.7-0.5-1c-0.1-0.5-0.3-0.6-0.7-0.8c-0.4-0.1-0.7,0-1.1,0c-0.2,0-0.4,0.1-0.6,0
		s-0.4-0.1-0.6-0.2s-0.3-0.2-0.5-0.3c-0.1,0-0.2,0-0.3,0c-0.1,0-0.1-0.1-0.2-0.1s-0.2,0-0.3,0.1c-0.1,0-0.2,0.1-0.2,0.2
		c-0.1,0.2,0.2,0.3,0,0.5s-0.4,0.1-0.6,0.1c-0.1,0-0.1,0.1-0.2,0.2c-0.1,0-0.2,0-0.3,0c-0.2,0.1-0.2,0.2-0.2,0.4
		c0,0.2-0.1,0.4-0.1,0.6c-0.3,0.1-0.4,0.2-0.4,0.5c0,0.1,0,0.3,0,0.4c-0.3,0.3-0.3,0.1-0.5,0.1c-0.1,0-0.2,0.1-0.3,0.1
		c-0.1,0-0.3-0.2-0.4-0.2c-0.1-0.1-0.1-0.2-0.3-0.1c-0.1,0-0.2,0.2-0.2,0.3h0.1c0,0.4-0.2,0.7-0.6,0.6c-0.2,0-0.3-0.1-0.4,0
		c-0.1,0-0.1,0.1-0.2,0.1s-0.2,0-0.3-0.1c-0.4-0.1-0.6-0.1-0.9,0s-0.6,0-0.7,0.4c0,0.1,0,0.1,0,0.1c0,0.1,0,0.1-0.1,0.2
		s-0.2,0.1-0.2,0.2s0.1,0.2,0.1,0.4c0,0.3-0.6,0-0.6,0.3c0,0.1,0.1,0.1,0.1,0.2s0,0.1,0,0.2c-0.1,0.2-0.1,0.4-0.4,0.4
		c-0.2,0-0.4-0.1-0.6-0.1s-0.3,0.2-0.4,0.4c0,0.1-0.1,0.2-0.2,0.3c0.1,0.1,0.1,0.3,0.1,0.4s0.1,0.5-0.1,0.6
		c-0.1,0.1-0.2-0.1-0.4,0.1l0,0l0,0l0,0l0,0l0,0l0,0v0.1c0.7,0,3.2-0.1,3.2-0.1v-0.7c2,0,5.1-0.3,8.4-0.7c0.1-0.2,0.3-0.3,0.5-0.4
		s0.3-0.1,0.4-0.2s0.3-0.1,0.5-0.2c0.1-0.1,0.1-0.2,0.3-0.2c0.2,0,0.3,0,0.4-0.1c0.2-0.2,0.2-0.5,0.4-0.7c0.1-0.1,0.2-0.2,0.3-0.3
		c0.1-0.1,0.1-0.1,0.3-0.2c0.1-0.1,0.2-0.3,0.4-0.4c0-0.2-0.1-0.3-0.3-0.5C89,69.3,88.8,69.1,88.7,68.8z"/>
	<path class="st1" d="M99.4,64l-0.2,0.3c0,0,0,0-0.1,0s-0.1,0-0.2-0.1c-0.1-0.1-0.2-0.2-0.4-0.3h-0.1c0,0-0.1,0-0.1-0.1l0.3-0.4
		L99.4,64z"/>
</g>
</svg>
