<?xml version="1.0" encoding="utf-8"?>
<!-- Generator: Adobe Illustrator 20.1.0, SVG Export Plug-In . SVG Version: 6.00 Build 0)  -->
<svg version="1.1" id="Layer_1" xmlns="http://www.w3.org/2000/svg" xmlns:xlink="http://www.w3.org/1999/xlink" x="0px" y="0px"
	 viewBox="0 0 68 55" style="enable-background:new 0 0 68 55;" xml:space="preserve">
<style type="text/css">
	.st0{fill-rule:evenodd;clip-rule:evenodd;fill:#E99E98;}
</style>
<g>
	<path class="st0" d="M21.6,1.2c0.6-0.2,1.1,0.1,1.1,0.7C22.8,4.3,19.4,1.8,21.6,1.2z"/>
	<path class="st0" d="M45.3,1.2c0.8-0.3,1.1,0.2,1.2,0.6c0.3,1.3-1.6,1.5-1.8,0.5C44.6,1.6,44.9,1.4,45.3,1.2z"/>
	<path class="st0" d="M18.2,1.3c0.7-0.2,1,0.2,1,0.6C19.6,4.1,16.2,1.9,18.2,1.3z"/>
	<path class="st0" d="M48.8,1.3c0.5-0.2,1,0,1.1,0.4c0.4,1.3-1.8,1.6-1.6,0.2C48.3,1.7,48.4,1.5,48.8,1.3z"/>
	<path class="st0" d="M52.4,1.3c0.4-0.1,0.6,0.1,0.7,0.2c0.8,1.1-1.6,2-1.4,0.4C51.7,1.7,51.9,1.4,52.4,1.3z"/>
	<path class="st0" d="M14.3,1.6C15,1.2,15.7,1.3,15.8,2C15.9,3.2,13.6,3,14.3,1.6z"/>
	<path class="st0" d="M26.2,1.9c0.2,1.4-1.8,1.4-1.9,0.3C24.1,1,25.4,1.4,26.2,1.9z"/>
	<path class="st0" d="M41.3,2.1c0.6-0.2,1.3-0.7,1.8-0.6C43.9,3.1,41.4,3.6,41.3,2.1z"/>
	<path class="st0" d="M55.1,2C55.7,2,56,2.3,56.5,2.4C56.2,3,54.9,2.8,55.1,2z"/>
	<path class="st0" d="M12.2,2.2c0.2,0.4-0.4,0.7-1,0.6C11.5,2.4,12,2.5,12.2,2.2z"/>
	<path class="st0" d="M25,4.5c0.9-0.2,1.3,0.3,1.4,1c0.1,1.5-2.2,1.7-2.2,0.1C24.1,4.9,24.4,4.6,25,4.5z"/>
	<path class="st0" d="M28.2,4.5c2-0.6,1.9,2.7,0,2.2C27.2,6.4,27.3,4.8,28.2,4.5z"/>
	<path class="st0" d="M38.4,4.5c0.7-0.2,1.4,0,1.5,0.6c0.5,1.8-2.8,2.3-2.2,0C37.8,4.9,38,4.6,38.4,4.5z"/>
	<path class="st0" d="M42,4.5c0.9-0.2,1.3,0.3,1.4,1c0.1,1.5-2.3,1.7-2.3,0.1C41.2,4.9,41.4,4.6,42,4.5z"/>
	<path class="st0" d="M21.6,4.5c0.9-0.2,1.2,0.3,1.3,0.9c0.1,1.4-2.1,1.6-2.1,0.1C20.8,5,21,4.7,21.6,4.5z"/>
	<path class="st0" d="M45.3,4.5c0.9-0.3,1.3,0.2,1.4,0.7c0.2,1.5-2.2,1.9-2.1,0.2C44.6,5,44.8,4.7,45.3,4.5z"/>
	<path class="st0" d="M18.3,4.6c1.2-0.2,1.6,1.8,0.2,1.8C17.5,6.5,16.9,4.9,18.3,4.6z"/>
	<path class="st0" d="M48.9,4.6c0.8-0.2,1.2,0.2,1.2,0.9c0,1.2-1.9,1.4-1.9,0C48.2,5,48.3,4.8,48.9,4.6z"/>
	<path class="st0" d="M52.3,4.7c0.7-0.1,1,0.2,1,0.7c0.1,1.1-1.8,1.4-1.8,0.1C51.6,5.1,51.8,4.8,52.3,4.7z"/>
	<path class="st0" d="M11.5,4.8c0.4-0.1,0.6,0.1,0.7,0.2c0.8,1.1-1.6,2-1.4,0.4C10.8,5.2,11,4.9,11.5,4.8z"/>
	<path class="st0" d="M14.6,4.8c0.5-0.2,1,0,1.1,0.4c0.4,1.3-1.8,1.6-1.6,0.2C14.2,5.2,14.2,4.9,14.6,4.8z"/>
	<path class="st0" d="M55.7,4.8c0.5-0.1,0.9,0.1,1,0.6c0.1,1.2-1.6,1.1-1.6,0.1C55.1,5.2,55.1,4.9,55.7,4.8z"/>
	<path class="st0" d="M8.8,5c0.1,0.3,0.1,0.8-0.1,1C8.4,6.3,7.7,6.3,7.5,6C7,5,8.2,4.4,8.8,5z"/>
	<path class="st0" d="M31,4.8c0.7,0.4,1.1,1.1,1.7,1.6C31.8,7.4,30.2,5.9,31,4.8z"/>
	<path class="st0" d="M60,5c0.1,0.3,0.1,0.8-0.1,1c-0.3,0.3-1,0.2-1.2-0.1C58.2,5,59.4,4.4,60,5z"/>
	<path class="st0" d="M36.6,5.3c0.2,0.8-0.3,1.5-1.2,1.4C35.7,6.1,36.2,5.8,36.6,5.3z"/>
	<path class="st0" d="M28.3,7.7c2.4-0.6,1.8,3.2-0.2,2.4C27.4,9.8,26.9,8,28.3,7.7z"/>
	<path class="st0" d="M31.6,7.7c1.8-0.5,2.3,2.2,0.8,2.5C30.8,10.5,29.9,8.1,31.6,7.7z"/>
	<path class="st0" d="M35.1,7.7c1.8-0.5,2.3,2.2,0.8,2.5C34.2,10.5,33.4,8.1,35.1,7.7z"/>
	<path class="st0" d="M38.4,7.7c0.4-0.1,0.6-0.1,0.8-0.1c0.9,0.2,1.4,2.3-0.1,2.6C37.8,10.4,36.7,8.2,38.4,7.7z"/>
	<path class="st0" d="M42.1,7.7C42.6,7.6,43,7.7,43.3,8c1.6,1.8-2.2,3.2-2.2,0.9C41,8.2,41.3,7.8,42.1,7.7z"/>
	<path class="st0" d="M21.7,7.7c0.4,0,0.9,0.2,1,0.4c1.3,1.8-2.3,2.7-2.2,0.6C20.6,8.2,21,7.8,21.7,7.7z"/>
	<path class="st0" d="M24.9,7.7c1-0.3,1.5,0.2,1.6,0.7c0.5,1.9-2.7,2.4-2.4,0.2C24.1,8.3,24.3,7.9,24.9,7.7z"/>
	<path class="st0" d="M45.4,7.7c1.8-0.4,1.7,2.3,0.3,2.3C44.4,10.1,43.9,8.1,45.4,7.7z"/>
	<path class="st0" d="M49,7.8c0.8-0.1,1.3,0.4,1.3,1c0.1,1.5-2.3,1.6-2.3,0.1C48,8.3,48.3,7.9,49,7.8z"/>
	<path class="st0" d="M18,7.9c0.9-0.3,1.7,0.4,1.4,1.4c-0.3,1.2-2.3,0.7-2.1-0.6C17.4,8.4,17.5,8.1,18,7.9z"/>
	<path class="st0" d="M14.7,8c0.8-0.2,1.2,0.2,1.2,0.9c0,1.2-1.9,1.4-1.9,0C14,8.4,14.2,8.1,14.7,8z"/>
	<path class="st0" d="M52.1,8c0.6-0.2,1.2,0,1.4,0.5c0.5,1.6-2.5,2-1.9,0C51.6,8.3,51.8,8.1,52.1,8z"/>
	<path class="st0" d="M55.7,8.1c0.7-0.1,1,0.2,1,0.7c0.1,1.1-1.8,1.4-1.8,0.1C55,8.5,55.2,8.2,55.7,8.1z"/>
	<path class="st0" d="M8.1,8.1c0.4-0.1,0.6,0.1,0.7,0.2c0.8,1.1-1.6,2-1.4,0.4C7.4,8.5,7.6,8.2,8.1,8.1z"/>
	<path class="st0" d="M11.3,8.1c0.5-0.2,1,0,1.1,0.4c0.4,1.3-1.8,1.6-1.6,0.2C10.8,8.6,10.9,8.3,11.3,8.1z"/>
	<path class="st0" d="M59.2,8.1c0.5-0.1,0.9,0.1,1,0.6c0.1,1.2-1.6,1.1-1.6,0.1C58.5,8.6,58.6,8.3,59.2,8.1z"/>
	<path class="st0" d="M5.4,8.4c0.1,0.3,0.1,0.8-0.1,1C5,9.7,4.3,9.6,4.1,9.4C3.6,8.4,4.8,7.8,5.4,8.4z"/>
	<path class="st0" d="M63.3,8.4c0.1,0.3,0.1,0.8-0.1,1c-0.3,0.3-1,0.2-1.2-0.1C61.5,8.4,62.7,7.8,63.3,8.4z"/>
	<path class="st0" d="M28.5,11c1.6-0.1,2.1,2.3,0.6,2.7C27.3,14.2,26.3,11.2,28.5,11z"/>
	<path class="st0" d="M31.7,11c2.4-0.5,2.1,2.9,0.2,2.8C30.5,13.7,29.9,11.3,31.7,11z"/>
	<path class="st0" d="M35.1,11c2.4-0.5,2.1,2.9,0.2,2.8C34,13.7,33.4,11.3,35.1,11z"/>
	<path class="st0" d="M38.7,11c2-0.3,2,2.7,0.2,2.8C37.3,13.8,36.8,11.2,38.7,11z"/>
	<path class="st0" d="M24.9,11c2-0.5,2.2,2.4,0.6,2.7C24,13.9,23.1,11.5,24.9,11z"/>
	<path class="st0" d="M42,11c2-0.4,2.3,2.5,0.5,2.7C41,13.8,40.1,11.4,42,11z"/>
	<path class="st0" d="M21.5,11.1c2.4-0.6,1.8,3.2-0.2,2.4C20.6,13.3,20,11.5,21.5,11.1z"/>
	<path class="st0" d="M45.3,11.1c0.4-0.1,0.6-0.1,0.8-0.1c0.9,0.2,1.4,2.3-0.1,2.6C44.6,13.9,43.6,11.6,45.3,11.1z"/>
	<path class="st0" d="M18.2,11.2c1.8-0.4,1.7,2.3,0.3,2.3C17.1,13.6,16.7,11.5,18.2,11.2z"/>
	<path class="st0" d="M48.8,11.2c2-0.5,2,2.7,0,2.3C47.9,13.4,47.4,11.5,48.8,11.2z"/>
	<path class="st0" d="M52.3,11.3c0.9-0.2,1.3,0.3,1.4,1c0.1,1.5-2.3,1.7-2.3,0.1C51.4,11.7,51.6,11.4,52.3,11.3z"/>
	<path class="st0" d="M14.6,11.4c0.9-0.3,1.7,0.4,1.4,1.4c-0.3,1.2-2.3,0.7-2.1-0.6C14,11.9,14,11.6,14.6,11.4z"/>
	<path class="st0" d="M11.4,11.4c1.2-0.2,1.6,1.8,0.2,1.8C10.6,13.4,10.1,11.7,11.4,11.4z"/>
	<path class="st0" d="M55.5,11.4c0.5-0.2,0.9,0,1,0.2c1.5,1.5-1.9,2.6-1.7,0.6C54.9,12,54.9,11.6,55.5,11.4z"/>
	<path class="st0" d="M4.7,11.6c0.4-0.1,0.6,0.1,0.7,0.2c0.8,1.1-1.6,2-1.4,0.4C4,12,4.2,11.7,4.7,11.6z"/>
	<path class="st0" d="M7.9,11.6c0.7-0.2,1,0.2,1,0.6C9.3,14.3,5.9,12.2,7.9,11.6z"/>
	<path class="st0" d="M59,11.6c0.5-0.2,1,0,1.1,0.4c0.4,1.3-1.8,1.6-1.6,0.2C58.5,12,58.6,11.8,59,11.6z"/>
	<path class="st0" d="M62.6,11.6c0.4-0.1,0.6,0.1,0.7,0.2c0.8,1.1-1.6,2-1.4,0.4C61.9,12,62.1,11.7,62.6,11.6z"/>
	<path class="st0" d="M66,11.6c0.4,0.2,0.5,0.8,0.6,1.4C65.5,13.6,64.9,11.8,66,11.6z"/>
	<path class="st0" d="M2,11.8c0.4,0.3,0.1,1.2-0.4,1.2C1.7,12.6,1.9,12.3,2,11.8z"/>
	<path class="st0" d="M28.3,14.3c2.4-0.5,2.2,3,0.3,3C27.1,17.2,26.4,14.6,28.3,14.3z"/>
	<path class="st0" d="M31.5,14.3c2.3-0.6,2.6,2.6,1,3c-0.9,0.2-2.4-0.3-2-2C30.5,14.9,30.9,14.4,31.5,14.3z"/>
	<path class="st0" d="M35,14.3c2.3-0.6,2.6,2.6,1,3c-0.9,0.2-2.4-0.3-2-2C34,14.9,34.4,14.4,35,14.3z"/>
	<path class="st0" d="M38.4,14.3c1.2-0.3,2.2,0.6,1.8,1.9c-0.5,1.7-3.4,1.3-3-0.9C37.4,15,37.8,14.4,38.4,14.3z"/>
	<path class="st0" d="M24.9,14.3c2.6-0.7,2.2,3.3,0,2.8C23.9,16.9,23.2,14.8,24.9,14.3z"/>
	<path class="st0" d="M41.8,14.3c1.3-0.5,2.2,0.8,1.9,1.8c-0.4,1.7-3.4,1.1-2.9-1C40.9,14.8,41.3,14.5,41.8,14.3z"/>
	<path class="st0" d="M21.4,14.4c3-0.8,1.5,4.2-0.6,2.3C20,16,20.3,14.7,21.4,14.4z"/>
	<path class="st0" d="M45.2,14.4c1.1-0.3,2.2,0.4,1.8,1.8c-0.4,1.5-3.3,1.2-2.7-1C44.3,15,44.7,14.6,45.2,14.4z"/>
	<path class="st0" d="M18.1,14.5c2.4-0.6,1.8,3.2-0.2,2.4C17.2,16.6,16.7,14.8,18.1,14.5z"/>
	<path class="st0" d="M48.7,14.5c0.9-0.2,1.5,0.1,1.7,0.8c0.5,2-2.9,2.4-2.6,0.2C47.9,15.1,48.1,14.7,48.7,14.5z"/>
	<path class="st0" d="M14.9,14.6c0.4,0,0.9,0.2,1,0.4c1.3,1.8-2.3,2.7-2.2,0.6C13.8,15.1,14.1,14.7,14.9,14.6z"/>
	<path class="st0" d="M52.3,14.6c0.9-0.2,1.4,0.4,1.4,1c0.1,1.6-2.4,1.8-2.4,0.1C51.3,15.1,51.6,14.7,52.3,14.6z"/>
	<path class="st0" d="M11.4,14.7c0.9-0.2,1.2,0.3,1.3,0.9c0.1,1.4-2.1,1.6-2.1,0.1C10.5,15.2,10.8,14.9,11.4,14.7z"/>
	<path class="st0" d="M55.5,14.7c0.9-0.3,1.7,0.4,1.4,1.4c-0.3,1.2-2.3,0.7-2.1-0.6C54.9,15.3,54.9,14.9,55.5,14.7z"/>
	<path class="st0" d="M7.9,14.9C8.5,14.7,9,15,9,15.6C9.2,17.9,5.7,15.5,7.9,14.9z"/>
	<path class="st0" d="M59,14.9c0.8-0.3,1.1,0.2,1.2,0.6c0.3,1.3-1.6,1.5-1.8,0.5C58.3,15.3,58.6,15.1,59,14.9z"/>
	<path class="st0" d="M4.7,15c0.4-0.1,0.6,0.1,0.7,0.2c0.8,1.1-1.6,2-1.4,0.4C4,15.4,4.2,15.1,4.7,15z"/>
	<path class="st0" d="M62.5,15c0.7-0.2,1,0.2,1,0.6c0.1,1.1-1.5,1.3-1.6,0.2C61.9,15.3,62,15.1,62.5,15z"/>
	<path class="st0" d="M2,15.2c0.1,0.3,0.1,0.7,0,1c-0.2,0.3-0.8,0.3-1.1,0.2c0-0.5,0.1-0.9,0.2-1.4C1.5,14.9,1.8,15,2,15.2z"/>
	<path class="st0" d="M66.8,15.2c0.1,0.3,0.1,0.8-0.1,1c-0.3,0.3-1,0.2-1.2-0.1C65,15.2,66.2,14.6,66.8,15.2z"/>
	<path class="st0" d="M32.4,20.8c0.6,0.3,1.1,0.6,1.3,1.3c0.3-0.6,0.6-1.1,1.4-1.2c-1.7-0.4-1.6-3.4,0.4-3.4c1.9,0,2.3,2.9,0.4,3.3
		c0.6,0.2,1.2,0.6,1.3,1.3c0.3-0.6,0.7-1.2,1.5-1.2c-1.1-0.3-1.7-1.1-1.4-2.2c0.4-1.6,2.9-1.4,3.2,0c0.3,1.2-0.5,1.9-1.4,2.1
		c1.7,0,2.1,3,0.4,3.4c0.6,0.3,1.1,0.7,1.2,1.4c0.3-1.8,3.2-1.8,3.4,0.1c0.2,2.2-2.9,2.7-3.3,0.6c-0.3,0.6-0.6,1.1-1.2,1.4
		c0.5,0.3,1,0.7,1.1,1.4c0.4-1.8,3.1-1.6,3.4,0c0.2,0.9-0.5,2-1.5,2.1c0.9,0.2,1.5,0.8,1.5,1.7c0,1.9-3.1,2.4-3.3,0.2
		c-0.3,0.8-0.7,1.5-1.7,1.6c0.9,0.2,1.5,0.7,1.5,1.6c0.1,1.9-3.1,2.5-3.3,0.2c-0.2,0.9-1.1,1.7-2.2,1.5c-1.6-0.3-1.8-3,0-3.3
		c-0.5-0.3-1.1-0.5-1.3-1.2c-0.4,0.5-0.7,1-1.4,1.1c1.8,0.3,1.8,3.2-0.1,3.4c-2.2,0.2-2.6-3-0.6-3.3c-0.6-0.3-1.2-0.6-1.4-1.3
		c-0.4,1.5-3.5,1.5-3.4-0.4c-0.3,1.1-1.1,1.7-2.2,1.4c-1.6-0.4-1.4-2.9,0-3.2c1.2-0.3,1.9,0.5,2.1,1.4c0.2-0.7,0.5-1.3,1.3-1.4
		c-0.6-0.3-1.1-0.6-1.2-1.4c-0.4,1.7-3.3,1.7-3.4-0.3c-0.1-2,2.9-2.4,3.3-0.5c0.2-0.6,0.6-1.2,1.3-1.3c-0.5-0.3-1.1-0.6-1.2-1.4
		c-0.5,1.8-3.4,1.5-3.4-0.4c0-1.8,2.8-2.4,3.3-0.4c0.3-0.6,0.6-1.1,1.3-1.3c-2.4-0.7-0.8-4.5,1.4-3.1c0.3,0.2,0.5,0.5,0.6,1
		c0.3-0.5,0.6-1.1,1.4-1.2c-0.8-0.4-1.3-0.8-1.3-1.7c0-2,3.3-2.3,3.4-0.1C33.7,20,33.2,20.5,32.4,20.8z M29.1,24.2
		c0.5,0.1,0.9,0.5,1.1,0.9c0.2-0.5,0.7-0.7,1-1c-0.6-0.1-0.7-0.7-1-1C30.1,23.7,29.6,23.9,29.1,24.2z M32.8,24.1
		c0.4,0.2,0.7,0.6,1,0.9c0.1-0.4,0.4-0.7,0.8-0.8c-0.3-0.4-0.7-0.7-0.9-1.2C33.6,23.6,33.2,23.9,32.8,24.1z M36.3,24.2
		c0.4,0.1,0.7,0.4,0.8,0.8c0.4-0.3,0.7-0.7,1.1-0.9c-0.6-0.1-0.9-0.6-1.1-1.1C37.1,23.6,36.6,23.8,36.3,24.2z M29.1,27.7
		c0.6,0.1,0.8,0.6,1.2,0.8c0.1-0.5,0.5-0.6,0.8-0.9c-0.5-0.2-0.6-0.6-1-0.9C30,27.3,29.5,27.4,29.1,27.7z M32.9,27.7
		c0.5,0.1,0.6,0.5,0.9,0.7c0.1-0.4,0.5-0.5,0.7-0.8c-0.4-0.1-0.6-0.5-0.8-0.8C33.5,27.2,33.2,27.4,32.9,27.7z M36.4,27.7
		c0.3,0.1,0.6,0.4,0.7,0.7c0.4-0.2,0.6-0.6,1-0.8c-0.5-0.1-0.7-0.6-1-0.8C37.1,27.3,36.7,27.4,36.4,27.7z M39.5,31.1
		c0.7,0.2,0.9,0.9,1.2,1.4c0-1,0.7-1.3,1.4-1.5c-0.8-0.1-1.2-0.6-1.5-1.3C40.5,30.5,40,30.8,39.5,31.1z M29.1,31.1
		c0.7,0.1,0.9,0.6,1.2,1c0.1-0.6,0.6-0.7,0.8-1.1c-0.5-0.1-0.6-0.6-1-0.8C30,30.7,29.5,30.9,29.1,31.1z M32.9,31
		c0.3,0.4,0.6,0.7,0.9,1c0.1-0.5,0.6-0.6,0.7-1c-0.4-0.1-0.5-0.5-0.8-0.7C33.5,30.7,33.3,31,32.9,31z M36.4,31
		c0.2,0.4,0.6,0.6,0.8,1c0.1-0.5,0.6-0.7,1-1c-0.5-0.1-0.6-0.6-1-0.7C37,30.7,36.8,30.9,36.4,31z M35.9,34.6
		c0.8,0.1,1.1,0.8,1.4,1.4c0-1,0.7-1.3,1.4-1.5c-0.8-0.1-1.2-0.6-1.5-1.1C37,34,36.4,34.3,35.9,34.6z"/>
	<path class="st0" d="M28.2,17.6c2.6-0.6,2.5,3.6,0,3.1C26.8,20.5,26.5,18,28.2,17.6z"/>
	<path class="st0" d="M42.2,17.6c0.8-0.1,1.7,0.6,1.7,1.4c0.1,2.8-4.6,1.4-2.9-0.9C41.2,18,41.4,17.7,42.2,17.6z"/>
	<path class="st0" d="M24.8,17.7c2.3-0.6,2.6,2.6,1,3c-0.9,0.2-2.4-0.3-2-2C23.8,18.4,24.2,17.9,24.8,17.7z"/>
	<path class="st0" d="M21.4,17.8c2.6-0.7,2.2,3.3,0,2.8C20.4,20.4,19.7,18.2,21.4,17.8z"/>
	<path class="st0" d="M45.2,17.8c2.7-0.8,2.4,3.4,0,2.8C44.3,20.4,43.6,18.3,45.2,17.8z"/>
	<path class="st0" d="M18.1,17.9c2-0.5,2.2,2.4,0.6,2.7C17.2,20.7,16.3,18.3,18.1,17.9z"/>
	<path class="st0" d="M48.7,17.9c2.4-0.6,2.3,3.1,0,2.7C47.8,20.3,47.1,18.3,48.7,17.9z"/>
	<path class="st0" d="M52.3,18c1-0.2,1.5,0.4,1.5,1.1c0.1,1.7-2.6,1.8-2.6,0.1C51.2,18.4,51.6,18.1,52.3,18z"/>
	<path class="st0" d="M14.6,18c1-0.3,1.5,0.2,1.6,0.7c0.5,1.9-2.7,2.4-2.4,0.2C13.8,18.6,14,18.2,14.6,18z"/>
	<path class="st0" d="M11.4,18.1c0.9-0.2,1.3,0.3,1.4,1c0.1,1.5-2.3,1.7-2.3,0.1C10.5,18.5,10.7,18.2,11.4,18.1z"/>
	<path class="st0" d="M55.5,18.1c2.5-0.6,1.3,3.5-0.5,1.9C54.4,19.4,54.7,18.3,55.5,18.1z"/>
	<path class="st0" d="M8,18.3C9.2,18,9.5,20,8.2,20.1C7.2,20.2,6.7,18.5,8,18.3z"/>
	<path class="st0" d="M59,18.3c0.5-0.2,0.9,0,1,0.2c1.5,1.5-1.9,2.6-1.7,0.6C58.4,18.8,58.4,18.5,59,18.3z"/>
	<path class="st0" d="M4.5,18.4c0.7-0.2,1,0.2,1,0.6C5.9,21.2,2.5,19.1,4.5,18.4z"/>
	<path class="st0" d="M62.4,18.4c0.5-0.2,1,0,1.1,0.4c0.4,1.3-1.8,1.6-1.6,0.2C61.9,18.8,62,18.6,62.4,18.4z"/>
	<path class="st0" d="M66.1,18.4c0.4-0.1,0.6,0.1,0.7,0.2c0.8,1.1-1.6,2-1.4,0.4C65.4,18.8,65.6,18.5,66.1,18.4z"/>
	<path class="st0" d="M2,18.6c0.2,0.2,0.2,0.9,0,1.1c-0.2,0.2-0.9,0.2-1.1,0C0.5,18.7,1.2,18.1,2,18.6z"/>
	<path class="st0" d="M24.9,21c2.6-0.6,2.5,3.6,0,3.1C23.4,23.9,23.1,21.4,24.9,21z"/>
	<path class="st0" d="M41.8,21c1.3-0.4,2.5,0.7,2,2.1c-0.6,1.8-3.7,1.3-3.1-1C40.8,21.7,41.2,21.2,41.8,21z"/>
	<path class="st0" d="M21.5,21.1c2.4-0.5,2.2,3,0.3,3C20.2,24.1,19.6,21.5,21.5,21.1z"/>
	<path class="st0" d="M45.3,21.1c2.6-0.6,2.5,3.4,0,3C44.2,23.9,43.4,21.5,45.3,21.1z"/>
	<path class="st0" d="M18.3,21.2c1.6-0.1,2.1,2.3,0.6,2.7C17.1,24.5,16.1,21.4,18.3,21.2z"/>
	<path class="st0" d="M48.8,21.2c2.4-0.5,2.1,2.9,0.2,2.8C47.7,23.9,47,21.5,48.8,21.2z"/>
	<path class="st0" d="M14.6,21.3c2.4-0.6,1.8,3.2-0.2,2.4C13.7,23.5,13.2,21.7,14.6,21.3z"/>
	<path class="st0" d="M52.1,21.3c1.8-0.5,2.3,2.2,0.8,2.5C51.3,24.2,50.4,21.8,52.1,21.3z"/>
	<path class="st0" d="M55.6,21.4c1.8-0.4,1.7,2.3,0.3,2.3C54.6,23.8,54.2,21.7,55.6,21.4z"/>
	<path class="st0" d="M11.2,21.5c2-0.6,1.9,2.7,0,2.2C10.2,23.4,10.2,21.8,11.2,21.5z"/>
	<path class="st0" d="M59.1,21.6c0.9-0.2,1.3,0.3,1.3,0.9c0.1,1.4-2.1,1.6-2.1,0.1C58.3,22,58.5,21.7,59.1,21.6z"/>
	<path class="st0" d="M7.8,21.6c0.5-0.2,0.9,0,1,0.2c1.5,1.5-1.9,2.6-1.7,0.6C7.2,22.2,7.2,21.8,7.8,21.6z"/>
	<path class="st0" d="M62.5,21.7c0.7-0.1,1,0.2,1,0.7c0.1,1.1-1.8,1.4-1.8,0.1C61.8,22.1,62,21.8,62.5,21.7z"/>
	<path class="st0" d="M4.4,21.8c0.5-0.2,1,0,1.1,0.4C6,23.5,3.7,23.8,4,22.4C4,22.2,4,22,4.4,21.8z"/>
	<path class="st0" d="M66.1,21.8c0.4-0.1,0.6,0.1,0.7,0.2c0.8,1.1-1.6,2-1.4,0.4C65.4,22.2,65.6,21.9,66.1,21.8z"/>
	<path class="st0" d="M1.1,21.8c1.2-0.4,1.3,1.5,0.3,1.4C1.4,22.7,1.2,22.3,1.1,21.8z"/>
	<path class="st0" d="M45.5,24.4c1-0.1,1.5,0.4,1.7,1c0.9,2.7-4,2.9-3.1,0C44.3,25,44.7,24.5,45.5,24.4z"/>
	<path class="st0" d="M21.3,24.5c2.3-0.6,2.6,2.6,1,3c-0.9,0.2-2.4-0.3-2-2C20.3,25.1,20.7,24.6,21.3,24.5z"/>
	<path class="st0" d="M18.1,24.5c2.4-0.5,2.1,2.9,0.2,2.8C17,27.3,16.3,24.9,18.1,24.5z"/>
	<path class="st0" d="M48.7,24.5c0.8-0.2,1.5,0.1,1.8,0.7c0.9,2.4-3.6,3-2.7,0.2C47.8,25.1,48.1,24.7,48.7,24.5z"/>
	<path class="st0" d="M52.3,24.6c1-0.2,1.6,0.4,1.6,1.2c0.1,1.8-2.7,1.9-2.7,0.1C51.1,25.1,51.5,24.8,52.3,24.6z"/>
	<path class="st0" d="M14.6,24.7c1.8-0.5,2.3,2.2,0.8,2.5C13.8,27.6,12.9,25.2,14.6,24.7z"/>
	<path class="st0" d="M11.4,24.8c1.8-0.3,1.6,2.3,0.2,2.3C10.4,27.1,9.9,25,11.4,24.8z"/>
	<path class="st0" d="M55.5,24.8c1-0.2,1.4,0.3,1.5,0.9c0.3,1.7-2.6,2.2-2.4,0.1C54.7,25.3,54.9,24.9,55.5,24.8z"/>
	<path class="st0" d="M8,24.9c0.8-0.1,1.2,0.3,1.2,0.9c0.1,1.4-2.1,1.5-2.1,0.1C7.1,25.4,7.4,25,8,24.9z"/>
	<path class="st0" d="M59,24.9c0.9-0.3,1.3,0.2,1.4,0.7c0.3,1.5-2.2,1.9-2.1,0.2C58.3,25.4,58.4,25.1,59,24.9z"/>
	<path class="st0" d="M62.5,25.1c0.8-0.2,1.1,0.2,1.1,0.6c0.2,1.2-1.7,1.5-1.8,0.2C61.8,25.4,62,25.2,62.5,25.1z"/>
	<path class="st0" d="M4.4,25.2c0.5-0.2,1,0,1.1,0.4C6,26.9,3.7,27.2,4,25.7C4,25.6,4,25.3,4.4,25.2z"/>
	<path class="st0" d="M66.1,25.2c-0.1,0.4-0.3,0.8-0.5,1.2C65.2,26,65.4,25.2,66.1,25.2z"/>
	<path class="st0" d="M45.4,27.8c2.3-0.4,2.4,3.1,0.3,3.1C43.9,31,43.4,28.2,45.4,27.8z"/>
	<path class="st0" d="M21.3,27.9c2.3-0.6,2.6,2.6,1,3c-0.9,0.2-2.4-0.3-2-2C20.3,28.6,20.7,28.1,21.3,27.9z"/>
	<path class="st0" d="M18.1,28c2.4-0.5,2.1,2.9,0.2,2.8C17,30.8,16.3,28.4,18.1,28z"/>
	<path class="st0" d="M48.7,28c0.8-0.2,1.5,0.1,1.8,0.7c0.9,2.4-3.6,3-2.7,0.2C47.8,28.6,48.1,28.2,48.7,28z"/>
	<path class="st0" d="M52.3,28.1c1-0.2,1.6,0.4,1.6,1.2c0.1,1.8-2.7,1.9-2.7,0.1C51.1,28.6,51.5,28.2,52.3,28.1z"/>
	<path class="st0" d="M14.6,28.2c1.8-0.5,2.3,2.2,0.8,2.5C13.8,31,12.9,28.6,14.6,28.2z"/>
	<path class="st0" d="M11.4,28.2c1.8-0.3,1.6,2.3,0.2,2.3C10.4,30.6,9.9,28.5,11.4,28.2z"/>
	<path class="st0" d="M55.5,28.2c2-0.5,2,2.7,0,2.3C54.6,30.4,54.2,28.6,55.5,28.2z"/>
	<path class="st0" d="M8,28.4c0.8-0.1,1.2,0.3,1.2,0.9c0.1,1.4-2.1,1.5-2.1,0.1C7.1,28.8,7.4,28.5,8,28.4z"/>
	<path class="st0" d="M59,28.4c0.9-0.3,1.3,0.2,1.4,0.7c0.3,1.5-2.2,1.9-2.1,0.2C58.3,28.9,58.4,28.6,59,28.4z"/>
	<path class="st0" d="M4.7,30.2c-0.3-0.4-0.5-0.8-0.7-1.1C4.7,27.3,6.7,30.1,4.7,30.2z"/>
	<path class="st0" d="M62.4,28.6c0.8-0.3,1.1,0.2,1.2,0.6c0.3,1.3-1.6,1.5-1.8,0.5C61.7,28.9,61.9,28.7,62.4,28.6z"/>
	<path class="st0" d="M21.4,31.3c1.2-0.3,2.2,0.6,1.8,1.9c-0.5,1.7-3.4,1.3-3-0.9C20.3,32,20.7,31.5,21.4,31.3z"/>
	<path class="st0" d="M45.2,31.3c2.3-0.6,2.6,2.6,1,3c-0.9,0.2-2.4-0.3-2-2C44.2,32,44.6,31.5,45.2,31.3z"/>
	<path class="st0" d="M18.3,31.4c2-0.3,2,2.7,0.2,2.8C16.9,34.3,16.4,31.6,18.3,31.4z"/>
	<path class="st0" d="M48.8,31.4c2.4-0.5,2.1,2.9,0.2,2.8C47.7,34.1,47,31.7,48.8,31.4z"/>
	<path class="st0" d="M52.4,31.5c0.7-0.1,1.4,0.4,1.4,1.2C54,35,50,34,51.4,31.9C51.6,31.6,51.9,31.5,52.4,31.5z"/>
	<path class="st0" d="M14.6,31.5c0.4-0.1,0.6-0.1,0.8-0.1c0.9,0.2,1.4,2.3-0.1,2.6C13.9,34.3,12.9,32,14.6,31.5z"/>
	<path class="st0" d="M55.6,31.6c0.9-0.2,1.4,0.4,1.4,1c0.1,1.6-2.4,1.8-2.4,0.1C54.7,32.1,55,31.7,55.6,31.6z"/>
	<path class="st0" d="M11.2,31.7c0.7-0.2,1.4,0,1.5,0.6c0.5,1.8-2.8,2.3-2.3,0C10.5,32.1,10.8,31.8,11.2,31.7z"/>
	<path class="st0" d="M59.1,31.8c0.5-0.1,1,0.1,1.1,0.3c1.1,1.7-1.9,2.4-1.9,0.6C58.3,32.3,58.3,31.9,59.1,31.8z"/>
	<path class="st0" d="M7.7,31.9c0.6-0.2,1.2,0,1.4,0.5c0.5,1.6-2.5,2-1.9,0C7.2,32.2,7.4,32,7.7,31.9z"/>
	<path class="st0" d="M62.5,31.9c-0.2,0.4-0.5,0.6-0.6,1C61.7,32.4,62,31.9,62.5,31.9z"/>
	<path class="st0" d="M25.2,34.7c0.8-0.1,1.7,0.6,1.7,1.4c0.1,2.8-4.6,1.4-2.9-0.9C24.1,35,24.4,34.7,25.2,34.7z"/>
	<path class="st0" d="M28.1,34.7c1.3-0.4,2.5,0.7,2,2.1c-0.6,1.8-3.7,1.3-3.1-1C27.1,35.4,27.5,34.8,28.1,34.7z"/>
	<path class="st0" d="M42,34.7c2.3-0.4,2.4,3.1,0.3,3.1C40.6,37.9,40,35,42,34.7z"/>
	<path class="st0" d="M45.4,34.7c2.4-0.4,2.1,3,0.2,3C44,37.7,43.5,35.1,45.4,34.7z"/>
	<path class="st0" d="M21.3,34.8c2.7-0.8,2.4,3.4,0,2.8C20.5,37.4,19.7,35.3,21.3,34.8z"/>
	<path class="st0" d="M18.1,34.9c2-0.4,2.3,2.5,0.5,2.7C17.2,37.7,16.3,35.3,18.1,34.9z"/>
	<path class="st0" d="M48.6,34.9c1.1-0.3,2.2,0.4,1.8,1.8c-0.4,1.5-3.3,1.2-2.7-1C47.8,35.5,48.1,35.1,48.6,34.9z"/>
	<path class="st0" d="M14.8,35c0.5-0.1,0.9,0.1,1.1,0.3c1.6,1.8-2.3,3.2-2.3,0.9C13.7,35.5,13.9,35.1,14.8,35z"/>
	<path class="st0" d="M52.2,35c2.4-0.6,1.8,3.2-0.2,2.4C51.3,37.1,50.7,35.3,52.2,35z"/>
	<path class="st0" d="M11.4,35.1c0.9-0.2,1.3,0.3,1.4,1c0.1,1.5-2.3,1.7-2.3,0.1C10.5,35.6,10.7,35.3,11.4,35.1z"/>
	<path class="st0" d="M55.5,35.1c0.7-0.2,1.4,0,1.5,0.6c0.5,1.8-2.8,2.3-2.3,0C54.8,35.6,55,35.3,55.5,35.1z"/>
	<path class="st0" d="M59.8,35.2c-0.4,0.6-0.8,1.1-1.4,1.5C57.9,35.9,58.8,34.8,59.8,35.2z"/>
	<path class="st0" d="M8.4,35.2c0.5,0.1,0.7,0.5,0.8,1C8.9,35.9,8.6,35.6,8.4,35.2z"/>
	<path class="st0" d="M31.8,38c1-0.1,1.5,0.4,1.7,1c0.9,2.7-4,2.9-3.1,0C30.6,38.6,31,38.1,31.8,38z"/>
	<path class="st0" d="M35.2,38c2.3-0.4,2.4,3.1,0.3,3.1C33.7,41.2,33.2,38.4,35.2,38z"/>
	<path class="st0" d="M28.2,38.1c2.6-0.6,2.5,3.4,0,3C27.2,40.9,26.4,38.6,28.2,38.1z"/>
	<path class="st0" d="M38.4,38.1c2.3-0.6,2.6,2.6,1,3c-0.9,0.2-2.4-0.3-2-2C37.4,38.8,37.8,38.3,38.4,38.1z"/>
	<path class="st0" d="M42,38.1c2.4-0.4,2.1,3,0.2,3C40.6,41.1,40.2,38.4,42,38.1z"/>
	<path class="st0" d="M24.8,38.2c2.7-0.8,2.4,3.4,0,2.8C23.9,40.8,23.2,38.7,24.8,38.2z"/>
	<path class="st0" d="M45.4,38.2c2.1-0.4,2,2.7,0.3,2.8C44.1,41.1,43.6,38.5,45.4,38.2z"/>
	<path class="st0" d="M21.3,38.3c1.1-0.3,2.2,0.4,1.8,1.8c-0.4,1.5-3.3,1.2-2.7-1C20.5,38.9,20.8,38.4,21.3,38.3z"/>
	<path class="st0" d="M49,38.3c0.7-0.1,1.4,0.4,1.4,1.2c0.1,2.3-3.8,1.3-2.5-0.7C48.2,38.5,48.5,38.3,49,38.3z"/>
	<path class="st0" d="M18,38.4c0.9-0.3,1.5,0.1,1.7,0.8c0.5,2-2.9,2.4-2.6,0.2C17.2,39,17.4,38.5,18,38.4z"/>
	<path class="st0" d="M14.7,38.4c1.8-0.4,1.7,2.3,0.3,2.3C13.7,40.8,13.3,38.7,14.7,38.4z"/>
	<path class="st0" d="M52.1,38.4c1-0.3,1.5,0.2,1.6,0.7c0.5,1.9-2.7,2.4-2.4,0.2C51.3,39,51.5,38.6,52.1,38.4z"/>
	<path class="st0" d="M56.6,38.7c-0.4,0.6-1,1.2-1.6,1.6C54.2,39.2,55.5,37.9,56.6,38.7z"/>
	<path class="st0" d="M11.4,38.6c0.8-0.3,1.4,0.3,1.3,1.2C12.2,39.5,11.8,39,11.4,38.6z"/>
	<path class="st0" d="M28.3,41.7c2.4-0.5,2.1,2.9,0.2,2.8C27.2,44.4,26.5,42,28.3,41.7z"/>
	<path class="st0" d="M31.6,41.7c0.8-0.2,1.5,0.1,1.8,0.7c0.9,2.4-3.6,3-2.7,0.2C30.7,42.2,31,41.8,31.6,41.7z"/>
	<path class="st0" d="M35.1,41.7c0.8-0.2,1.5,0.1,1.8,0.7c0.9,2.4-3.6,3-2.7,0.2C34.2,42.2,34.4,41.8,35.1,41.7z"/>
	<path class="st0" d="M38.5,41.7c2.4-0.5,2.1,2.9,0.2,2.8C37.4,44.4,36.7,42,38.5,41.7z"/>
	<path class="st0" d="M24.9,41.7c2.4-0.6,2.3,3.1,0,2.7C24,44.2,23.3,42.2,24.9,41.7z"/>
	<path class="st0" d="M41.8,41.7c1.1-0.3,2.2,0.4,1.8,1.8c-0.4,1.5-3.3,1.2-2.7-1C41,42.3,41.3,41.9,41.8,41.7z"/>
	<path class="st0" d="M45.6,41.7c0.7-0.1,1.4,0.4,1.4,1.2c0.1,2.3-3.8,1.3-2.5-0.7C44.7,41.9,45,41.8,45.6,41.7z"/>
	<path class="st0" d="M21.4,41.8c0.9-0.2,1.5,0.1,1.7,0.8c0.5,2-2.9,2.4-2.6,0.2C20.6,42.4,20.8,42,21.4,41.8z"/>
	<path class="st0" d="M18,41.9c1-0.3,1.5,0.2,1.6,0.7c0.5,1.9-2.7,2.4-2.4,0.2C17.3,42.5,17.5,42.1,18,41.9z"/>
	<path class="st0" d="M48.7,41.9c1-0.3,1.5,0.2,1.6,0.7c0.5,1.9-2.7,2.4-2.4,0.2C48,42.5,48.2,42.1,48.7,41.9z"/>
	<path class="st0" d="M15,42c0.5-0.2,1,0.4,1.1,0.9C15.6,42.6,15.4,42.2,15,42z"/>
	<path class="st0" d="M53.1,42.1c-0.6,0.4-1.2,1.2-1.8,1.4C51.1,42.2,52.2,41.6,53.1,42.1z"/>
	<path class="st0" d="M31.8,45.1c1-0.2,1.6,0.4,1.6,1.2c0.1,1.8-2.7,1.9-2.7,0.1C30.6,45.6,31,45.2,31.8,45.1z"/>
	<path class="st0" d="M35.2,45.1c0.9-0.2,1.3,0.2,1.5,0.7c0.9,2.4-3.5,2.6-2.6,0C34.3,45.5,34.6,45.2,35.2,45.1z"/>
	<path class="st0" d="M38.8,45.1c0.7-0.1,1.4,0.4,1.4,1.2c0.1,2.3-3.8,1.3-2.5-0.7C37.9,45.3,38.2,45.2,38.8,45.1z"/>
	<path class="st0" d="M25,45.2c1-0.2,1.5,0.4,1.5,1.1c0.1,1.7-2.6,1.8-2.6,0.1C24,45.7,24.3,45.3,25,45.2z"/>
	<path class="st0" d="M28.2,45.2c1.8-0.5,2.3,2.2,0.8,2.5C27.4,48,26.5,45.6,28.2,45.2z"/>
	<path class="st0" d="M42,45.2c2.4-0.6,1.8,3.2-0.2,2.4C41,47.3,40.5,45.5,42,45.2z"/>
	<path class="st0" d="M22.1,47.6c-0.6-0.3-1.1-0.7-1.5-1.1c-0.1-1.6,2.2-1.6,2.4-0.3C23.1,46.8,22.8,47.3,22.1,47.6z"/>
	<path class="st0" d="M45.3,45.3c1-0.3,1.5,0.2,1.6,0.7c0.5,1.9-2.7,2.4-2.4,0.2C44.5,45.8,44.7,45.4,45.3,45.3z"/>
	<path class="st0" d="M26.2,50.5c-0.6-0.4-1.3-0.9-1.9-1.3C24.9,47.8,27.2,49.2,26.2,50.5z"/>
	<path class="st0" d="M28.4,48.6c1.8-0.4,1.7,2.3,0.3,2.3C27.4,51,26.9,49,28.4,48.6z"/>
	<path class="st0" d="M31.7,48.6c1-0.2,1.4,0.3,1.5,0.9c0.3,1.7-2.6,2.2-2.4,0.1C30.8,49.2,31,48.8,31.7,48.6z"/>
	<path class="st0" d="M35.1,48.6c2-0.5,2,2.7,0,2.3C34.2,50.8,33.8,49,35.1,48.6z"/>
	<path class="st0" d="M38.6,48.6c1-0.2,1.4,0.4,1.4,1c0.1,1.6-2.4,1.8-2.4,0.1C37.6,49.1,37.9,48.8,38.6,48.6z"/>
	<path class="st0" d="M43.4,49.5c-0.4,0.6-1.2,0.8-1.7,1.3C39.7,49.7,42.9,47.3,43.4,49.5z"/>
	<path class="st0" d="M39.4,52.3c-0.5,0.4-1.1,0.7-1.6,1C37.6,52.5,38.6,51.8,39.4,52.3z"/>
	<path class="st0" d="M32.3,54.3c-0.5-0.2-1-0.5-1.4-0.8C31,50.6,34.6,53.3,32.3,54.3z"/>
	<path class="st0" d="M35.1,52.3c0.9-0.3,1.7,0.4,1.4,1.4c-0.3,1.2-2.3,0.7-2.1-0.6C34.4,52.8,34.5,52.5,35.1,52.3z"/>
	<path class="st0" d="M27.7,2.5c0.3-0.1,0.7,0.4,1,0.5C28.3,3.3,27.9,2.8,27.7,2.5z"/>
	<path class="st0" d="M49.3,45.2c-0.3,0.5-0.9,0.7-1.3,1.1C47.9,45.8,48.5,45.2,49.3,45.2z"/>
	<path class="st0" d="M29,52.3c-0.1-0.2,0.5,0.1,0.6,0.2C29.4,52.7,29.1,52.3,29,52.3z"/>
</g>
</svg>
