<?xml version="1.0" encoding="utf-8"?>
<svg version="1.1" id="Layer_1" xmlns="http://www.w3.org/2000/svg" xmlns:xlink="http://www.w3.org/1999/xlink" x="0px" y="0px" viewBox="0 0 20 28" style="enable-background:new 0 0 20 28;" xml:space="preserve">
<style type="text/css">
	.st0{fill:#c55f55;}
</style>
<g>
	<path class="st0" d="M6.8,19.9C6.8,20,6.9,20,6.8,19.9c1.1,0.6,2,0.8,3,0.8c0.1,0,0.1,0,0.2,0c0.1,0,0.1,0,0.2,0c1,0,2-0.3,2.9-0.7
		c0,0,0.1,0,0.1-0.1c2.1-1.1,3.6-3.4,3.6-6c0-3.7-3.1-6.8-6.8-6.8S3.2,10.2,3.2,14C3.2,16.5,4.7,18.8,6.8,19.9z M12.3,19.1
		c-0.7,0.3-1.5,0.5-2.3,0.5c-0.8,0-1.6-0.2-2.3-0.5v-2.9c0-1.2,1-2.3,2.3-2.3c1.2,0,2.3,1,2.3,2.3V19.1z M8.9,11.7
		c0-0.6,0.5-1.1,1.1-1.1c0.6,0,1.1,0.5,1.1,1.1c0,0.6-0.5,1.1-1.1,1.1C9.4,12.8,8.9,12.3,8.9,11.7z M10,8.3c3.1,0,5.7,2.5,5.7,5.7
		c0,1.8-0.9,3.5-2.3,4.5v-2.3c0-1.3-0.7-2.4-1.8-3c0.4-0.4,0.6-1,0.6-1.6c0-1.2-1-2.3-2.3-2.3s-2.3,1-2.3,2.3c0,0.6,0.2,1.2,0.6,1.6
		c-1,0.6-1.8,1.7-1.8,3v2.3c-1.4-1-2.3-2.7-2.3-4.5C4.4,10.9,6.9,8.3,10,8.3z"/>
	<path class="st0" d="M8.2,23.2H3.6c-0.3,0-0.5,0.2-0.5,0.6c0,0.4,0.2,0.6,0.5,0.6h4.5c0.3,0,0.5-0.2,0.5-0.6
		C8.6,23.5,8.4,23.2,8.2,23.2z"/>
	<path class="st0" d="M16,23.2h-5.2c-0.4,0-0.7,0.2-0.7,0.6c0,0.4,0.3,0.6,0.7,0.6H16c0.4,0,0.7-0.2,0.7-0.6
		C16.8,23.5,16.5,23.2,16,23.2z"/>
	<path class="st0" d="M19,3.3v23.6H0.8V3.5C0.6,3.8,0.5,4.1,0.5,4.4v21.7c0,0.8,0.6,1.4,1.4,1.4h16.3c0.8,0,1.4-0.6,1.4-1.4V4.4
		C19.5,4,19.3,3.6,19,3.3z"/>
	<path class="st0" d="M19,26.9V3.3c-0.2-0.2-0.5-0.3-0.8-0.3h-6.3V2.2c0-0.9-0.7-1.6-1.5-1.8H9.7C8.8,0.5,8.2,1.3,8.2,2.2v0.9H1.8
		c-0.4,0-0.8,0.2-1,0.5v23.4H19z M10,1.3c0.3,0,0.6,0.2,0.8,0.5H9.2C9.3,1.4,9.7,1.3,10,1.3z M9.1,3.5V2.6h1.8v0.9v0.9H9.1V3.5z
		 M1.4,4.4C1.4,4.2,1.6,4,1.8,4h6.3v0.9c0,0.3,0.2,0.5,0.5,0.5h2.7c0.3,0,0.5-0.2,0.5-0.5V4h6.3c0.3,0,0.5,0.2,0.5,0.5v21.7
		c0,0.3-0.2,0.5-0.5,0.5H1.8c-0.3,0-0.5-0.2-0.5-0.5V4.4z"/>
</g>
</svg>
