<?xml version="1.0" encoding="utf-8"?>
<!-- Generator: Adobe Illustrator 20.1.0, SVG Export Plug-In . SVG Version: 6.00 Build 0)  -->
<svg version="1.1" id="Layer_1" xmlns="http://www.w3.org/2000/svg" xmlns:xlink="http://www.w3.org/1999/xlink" x="0px" y="0px"
	 viewBox="0 0 122 122" style="enable-background:new 0 0 122 122;" xml:space="preserve">
<style type="text/css">
	.st0{fill:#E99E99;}
	.st1{fill:#FFFFFF;}
</style>
<circle class="st0" cx="61" cy="60.8" r="60"/>
<path class="st1" d="M69.1,94.3l-3.9-1.7c-0.3-0.1-0.5-0.4-0.5-0.7v-1.1c1.3-1,2.2-2.7,2.2-4.5v-1.5c0.4-0.2,0.7-0.7,0.7-1.2v-0.1
	c0-3.2-2.6-5.7-5.7-5.7h-1.4c-3.2,0-5.7,2.6-5.7,5.7v1.3c0,0.5,0.2,0.9,0.5,1.1c0.1,0,0.1,0.1,0.2,0.1v0.3c0,1.8,0.8,3.4,2.2,4.5
	v1.1c0,0.3-0.2,0.6-0.5,0.7l-3.9,1.7c-1.3,0.6-2.1,1.8-2.1,3.2v8.9c0,0.4,0.3,0.7,0.7,0.7s0.7-0.3,0.7-0.7v-8.9c0-0.1,0-0.2,0-0.2
	l1.8,1.8c0.3,0.3,0.4,0.7,0.4,1.1v6.3c0,0.4,0.3,0.7,0.7,0.7s0.7-0.3,0.7-0.7v-6.3c0-0.8-0.3-1.5-0.8-2l-2.2-2.2
	c0.2-0.2,0.4-0.4,0.7-0.5l3.8-1.7l2.9,2.9v9.8c0,0.4,0.3,0.7,0.7,0.7s0.7-0.3,0.7-0.7v-9.8l2.9-2.9l3.8,1.7c0.3,0.1,0.5,0.3,0.7,0.5
	l-2.2,2.2c-0.5,0.5-0.8,1.2-0.8,2v6.3c0,0.4,0.3,0.7,0.7,0.7s0.7-0.3,0.7-0.7v-6.3c0-0.4,0.2-0.8,0.4-1.1l1.8-1.8c0,0.1,0,0.2,0,0.2
	v8.9c0,0.4,0.3,0.7,0.7,0.7c0.4,0,0.7-0.3,0.7-0.7v-8.9C71.3,96.2,70.4,94.9,69.1,94.3z M61.2,95.5L58.7,93c0.2-0.3,0.3-0.7,0.3-1.1
	v-0.3c0.7,0.3,1.4,0.4,2.2,0.4s1.5-0.2,2.2-0.4v0.3c0,0.4,0.1,0.8,0.3,1.1L61.2,95.5z M61.2,90.7c-2.4,0-4.4-2-4.4-4.4v-0.3
	c0.4-0.2,0.8-0.4,1.2-0.8c0.3-0.3,0.3-0.7,0-1c-0.3-0.3-0.7-0.3-1,0c-0.3,0.3-0.7,0.5-1,0.6c0,0,0,0,0,0c0,0,0,0,0-0.1v-1.3
	c0-2.4,2-4.4,4.4-4.4h1.4c2.4,0,4.4,2,4.4,4.4v0.1c0,0,0,0,0,0c-4,0.8-6.1-0.7-6.7-1.4c-0.3-0.3-0.7-0.3-1,0c-0.3,0.3-0.3,0.7,0,1
	c2.1,2.1,5.1,2.1,7,1.9v1.2C65.6,88.8,63.6,90.7,61.2,90.7z M48.3,79.9c0.1-0.3,0.1-0.6,0.1-0.8c0-1.6-1.3-2.8-2.8-2.8
	s-2.8,1.3-2.8,2.8c0,0.3,0,0.6,0.1,0.8c-1.4,0.9-2.3,2.4-2.3,4.2v1.4c0,1.7,0.9,3.2,2.2,4.1v1.5c0,0.3-0.2,0.6-0.4,0.7L40,93
	c-1,0.5-1.6,1.5-1.6,2.5v5.9c0,0.4,0.3,0.7,0.7,0.7s0.7-0.3,0.7-0.7v-5.6l1.1,1.1c0.3,0.3,0.4,0.7,0.4,1.1v3.4
	c0,0.4,0.3,0.7,0.7,0.7c0.4,0,0.7-0.3,0.7-0.7V98c0-0.8-0.3-1.5-0.8-2l-1.5-1.5c0,0,0,0,0,0c0.1-0.1,0.2-0.2,0.3-0.2l2.3-1.2
	c0.1-0.1,0.2-0.1,0.3-0.2l1.6,1.6v6.9c0,0.4,0.3,0.7,0.7,0.7s0.7-0.3,0.7-0.7v-6.9l1.6-1.6c0.1,0.1,0.2,0.1,0.3,0.2l0.6,0.3
	c0.1,0,0.2,0.1,0.3,0.1c0.2,0,0.5-0.1,0.6-0.4c0.2-0.3,0-0.7-0.3-0.9l-0.6-0.3c-0.3-0.1-0.4-0.4-0.4-0.7v-1.5
	c1.3-0.9,2.2-2.4,2.2-4.1v-1.4C50.5,82.4,49.6,80.8,48.3,79.9z M45.6,77.6c0.8,0,1.5,0.7,1.5,1.5c0,0.1,0,0.2,0,0.3
	c-0.5-0.1-1-0.2-1.5-0.2c-0.5,0-1,0.1-1.5,0.2c0-0.1,0-0.2,0-0.3C44.1,78.3,44.7,77.6,45.6,77.6z M45.6,93.3L44,91.7
	c0-0.2,0.1-0.4,0.1-0.5v-0.8c0.5,0.1,1,0.2,1.5,0.2s1-0.1,1.5-0.2v0.8c0,0.2,0,0.4,0.1,0.5L45.6,93.3z M45.6,89.2
	c-2,0-3.6-1.6-3.6-3.6v-0.1c0.5-0.1,1.3-0.4,2.2-1.1c0.3,0.3,0.7,0.6,1.2,0.9c0.6,0.3,1.5,0.7,2.6,0.7c0.4,0,0.8,0,1.3-0.2
	C49.1,87.7,47.5,89.2,45.6,89.2z M49.2,84.4c-2.8,0.9-4.5-1.3-4.5-1.4c-0.1-0.2-0.3-0.3-0.5-0.3c-0.2,0-0.4,0.1-0.5,0.2
	c-0.6,0.6-1.3,1-1.7,1.1c0-2,1.7-3.6,3.6-3.6c2,0,3.6,1.6,3.6,3.6V84.4z M82.4,93.3l-3.8-1.9c-0.3-0.1-0.4-0.4-0.4-0.7v-1
	c0.9-0.8,1.4-1.9,1.4-3.2v-0.8c0,0,0,0,0,0c0.4,0,0.7-0.3,0.7-0.7v-1.4c0-2.4-1.9-4.3-4.3-4.3h-1.4c-2.4,0-4.3,1.9-4.3,4.3v1.4
	c0,0.4,0.3,0.7,0.7,0.7c0,0,0,0,0,0v0.8c0,1.3,0.6,2.4,1.4,3.2v1c0,0.3-0.2,0.6-0.4,0.7c-0.3,0.2-0.5,0.6-0.3,0.9
	c0.1,0.2,0.4,0.4,0.6,0.4c0.1,0,0.2,0,0.3-0.1c0.1-0.1,0.2-0.1,0.3-0.2l1.6,1.6v9.1c0,0.4,0.3,0.7,0.7,0.7c0.4,0,0.7-0.3,0.7-0.7V94
	l1.6-1.6c0.1,0.1,0.2,0.1,0.3,0.2l3.6,1.8l-1.1,1.1c-0.5,0.5-0.8,1.2-0.8,2v5.6c0,0.4,0.3,0.7,0.7,0.7s0.7-0.3,0.7-0.7v-5.6
	c0-0.4,0.2-0.8,0.4-1.1l1-1c0,0.1,0,0.2,0,0.4v7.3c0,0.4,0.3,0.7,0.7,0.7s0.7-0.3,0.7-0.7v-7.3C84,94.7,83.4,93.8,82.4,93.3z
	 M71.8,83.7L71.8,83.7c0-1.6,1.3-2.9,2.9-2.9h1.4c1.6,0,2.9,1.3,2.9,2.9v0.7c-2.9-0.2-4.7-1.3-4.7-1.3C74.2,83,74.1,83,74,83
	c-0.2,0-0.3,0.1-0.5,0.2c-0.6,0.6-1.3,1-1.7,1.1V83.7z M75.4,92.8l-1.6-1.6c0-0.2,0.1-0.4,0.1-0.5v-0.1c0.5,0.2,1,0.3,1.5,0.3
	c0.5,0,1-0.1,1.5-0.3v0.1c0,0.2,0,0.4,0.1,0.5L75.4,92.8z M75.4,89.5c-1.6,0-2.9-1.3-2.9-2.9v-1.1c0.5-0.2,1-0.5,1.6-1
	c0.7,0.4,2.2,1,4.3,1.2v0.8C78.3,88.2,77,89.5,75.4,89.5z M31.8,69.5l-2.2-0.8l-1.1-1.1c-0.1-0.1-0.2-0.1-0.3-0.1v-0.9
	c0.5-0.6,0.9-1.3,1-2.1c0,0,0,0,0,0c0.1,0,0.2,0,0.3,0c0.5-0.1,0.9-0.6,0.9-1.1V63c0-0.3-0.1-0.6-0.4-0.8c0.4-1.9,0.1-3.5-0.8-4.5
	c-0.9-1-2.3-1.5-4-1.4c-1.7,0.1-2.7,0.9-3,1.1c-0.5,0.1-1.8,0.4-1.8,2.2c0,1,0.2,1.9,0.3,2.3c-0.4,0.2-0.7,0.6-0.7,1.1v0.3
	c0,0.6,0.4,1,0.9,1.1c0.1,0,0.2,0,0.3,0c0,0,0,0,0,0c0.1,0.8,0.5,1.5,1,2.1v0.9c-0.1,0-0.2,0-0.3,0.1L21,68.7l-2.2,0.8
	c-1,0.4-1.7,1.4-1.7,2.5l0.3,7.7c0,0.2,0.2,0.4,0.4,0.4c0,0,0,0,0,0c0.2,0,0.4-0.2,0.4-0.4L17.9,72c0-0.2,0-0.4,0.1-0.6l1.2,1.2
	c0.3,0.3,0.5,0.8,0.5,1.3v5.7c0,0.2,0.2,0.4,0.4,0.4s0.4-0.2,0.4-0.4v-5.7c0-0.7-0.3-1.3-0.8-1.8l-1.4-1.4c0.2-0.2,0.4-0.4,0.7-0.5
	l2-0.8l1.5,2.3c0.2,0.3,0.5,0.5,0.8,0.5c0,0,0.1,0,0.1,0c0.2,0,0.4-0.1,0.6-0.2l-0.3,7.6c0,0.2,0.2,0.4,0.4,0.4c0,0,0,0,0,0
	c0.2,0,0.4-0.2,0.4-0.4l0.3-7.1h0.9l0.3,7.1c0,0.2,0.2,0.4,0.4,0.4c0,0,0,0,0,0c0.2,0,0.4-0.2,0.4-0.4l-0.3-7.6
	c0.2,0.1,0.4,0.2,0.6,0.2c0,0,0.1,0,0.1,0c0.3,0,0.6-0.2,0.8-0.5l1.5-2.3l2,0.8c0.3,0.1,0.5,0.3,0.7,0.5l-1.4,1.4
	c-0.5,0.5-0.8,1.1-0.8,1.8v5.7c0,0.2,0.2,0.4,0.4,0.4s0.4-0.2,0.4-0.4v-5.7c0-0.5,0.2-1,0.5-1.3l1.2-1.2c0.1,0.2,0.1,0.4,0.1,0.6
	l-0.3,7.7c0,0.2,0.2,0.4,0.4,0.4c0,0,0,0,0,0c0.2,0,0.4-0.2,0.4-0.4l0.3-7.7C33.5,70.9,32.9,69.9,31.8,69.5z M22.1,64.3
	c-0.1-0.4-0.4-0.6-0.8-0.6c0,0-0.1,0-0.1,0c-0.2,0-0.3-0.2-0.3-0.4V63c0-0.2,0.1-0.4,0.3-0.4c0.1,0,0.3,0,0.4,0.1
	c0.1,0.1,0.2,0.2,0.3,0.2c0.2,0,0.3,0,0.5-0.1c0.3-0.2,0.6-0.5,0.8-0.8c0.1-0.2,0.1-0.4-0.1-0.5c-0.2-0.1-0.4-0.1-0.5,0.1
	c-0.1,0.2-0.3,0.3-0.4,0.5c-0.1-0.1-0.3-0.2-0.4-0.2c-0.1-0.4-0.3-1.2-0.3-2.3c0-0.6,0.2-1,0.6-1.3c0.3-0.2,0.6-0.2,0.6-0.2
	c0.1,0,0.2,0,0.3-0.1c0,0,1-0.9,2.7-1c1.5-0.1,2.7,0.3,3.4,1.1c0.7,0.8,1,2.1,0.7,3.7c-0.1,0-0.2,0-0.4,0L28.7,61
	c-0.1-0.2-0.3-0.3-0.4-0.2c0,0-3.7,0.9-5.3-1c-0.1-0.2-0.4-0.2-0.5-0.1c-0.2,0.1-0.2,0.4-0.1,0.5c1.6,2,4.7,1.5,5.7,1.3l0.3,0.7
	c0.1,0.3,0.4,0.4,0.7,0.4c0.1,0,0.2,0,0.3,0c0.2,0,0.3,0.2,0.3,0.4v0.3c0,0.2-0.1,0.4-0.3,0.4c0,0-0.1,0-0.1,0
	c-0.4,0-0.7,0.2-0.8,0.6c-0.3,1.6-1.7,2.7-3.3,2.7S22.3,65.9,22.1,64.3z M23.9,71.4c-0.1,0.1-0.2,0.1-0.3,0.1
	c-0.1,0-0.2-0.1-0.3-0.2L21.7,69l0.6-0.6l2.4,2.1L23.9,71.4z M24.9,71.9l0-0.6l0.4-0.4l0.4,0.4l0,0.6H24.9z M25.3,69.9L23.1,68v-0.8
	c0.6,0.4,1.4,0.7,2.2,0.7c0.8,0,1.6-0.2,2.2-0.7V68L25.3,69.9z M27.4,71.3c-0.1,0.1-0.2,0.1-0.3,0.2c-0.1,0-0.2,0-0.3-0.1l-0.9-0.9
	l2.4-2.1l0.6,0.6L27.4,71.3z M23.1,73.7h-1.5c-0.2,0-0.4,0.2-0.4,0.4s0.2,0.4,0.4,0.4h1.5c0.2,0,0.4-0.2,0.4-0.4
	S23.3,73.7,23.1,73.7z M86,36.1l1.4,2.3c0.1,0.2,0.3,0.3,0.6,0.4c0,0,0.1,0,0.1,0c0.2,0,0.4-0.1,0.5-0.2l1-0.8v7.7
	c0,0.2,0.2,0.4,0.4,0.4c0.2,0,0.4-0.2,0.4-0.4v-7.7l1,0.8c0.2,0.1,0.3,0.2,0.5,0.2c0,0,0.1,0,0.1,0c0.2,0,0.4-0.2,0.6-0.4l1.4-2.3
	l2,0.9c0.1,0.1,0.3,0.1,0.4,0.2l-1.3,1.6c-0.5,0.6-0.8,1.4-0.8,2.2v4.5c0,0.2,0.2,0.4,0.4,0.4s0.4-0.2,0.4-0.4V41
	c0-0.6,0.2-1.2,0.6-1.7l1.2-1.5c0.2,0.4,0.4,0.8,0.3,1.2L97,45.4c0,0.2,0.2,0.4,0.4,0.4c0,0,0,0,0,0c0.2,0,0.4-0.2,0.4-0.4l0.3-6.4
	c0.1-1.2-0.7-2.4-1.8-2.8l-2.2-1l-1.2-1.2C92.8,34,92.7,34,92.6,34c0,0,0,0,0,0v-0.8c1-0.7,1.8-1.8,2.1-3.1c0,0,0,0,0,0
	c0.1,0,0.2,0,0.4,0c0.6-0.1,1-0.7,1-1.3v-0.3c0-0.5-0.2-0.9-0.6-1.1c0.1-0.4,0.2-0.9,0.2-1.3c0-1.9-1-3.5-2.6-4.5c0,0,0,0,0,0
	c0-1.6-1.3-3-3-3c-1.6,0-3,1.3-3,3c0,0,0,0,0,0c-1.5,0.9-2.6,2.6-2.6,4.5c0,0.4,0.1,0.9,0.2,1.3c-0.4,0.2-0.6,0.6-0.6,1.1v0.3
	c0,0.6,0.4,1.1,1,1.3c0.1,0,0.2,0,0.4,0c0,0,0,0,0,0c0.2,1.3,1,2.4,2.1,3.1V34c0,0,0,0,0,0c-0.1,0-0.2,0-0.3,0.1l-1.2,1.2l-2.2,1
	c-1.1,0.5-1.8,1.6-1.8,2.8l0.3,6.4c0,0.2,0.2,0.4,0.4,0.4c0,0,0,0,0,0c0.2,0,0.4-0.2,0.4-0.4l-0.3-6.4c0-0.4,0.1-0.9,0.3-1.2
	l1.2,1.5c0.4,0.5,0.6,1.1,0.6,1.7v4.5c0,0.2,0.2,0.4,0.4,0.4c0.2,0,0.4-0.2,0.4-0.4V41c0-0.8-0.3-1.6-0.8-2.2l-1.3-1.6
	c0.1-0.1,0.3-0.2,0.4-0.2L86,36.1z M90,36.3l-1.7-1.7v-1.1c0.5,0.2,1.1,0.3,1.7,0.3s1.2-0.1,1.7-0.3v1.1L90,36.3z M92.6,34.9
	l0.8,0.8L91.9,38c0,0,0,0,0,0c0,0,0,0,0,0l-1.3-1.1L92.6,34.9z M90,19.4c1,0,1.9,0.8,2.1,1.7c-0.7-0.3-1.4-0.4-2.1-0.4
	s-1.5,0.1-2.1,0.4C88.1,20.1,89,19.4,90,19.4z M86.2,29.9c-0.1-0.4-0.5-0.7-0.9-0.7c0,0-0.1,0-0.1,0c-0.2,0-0.3-0.3-0.3-0.5v-0.3
	c0-0.2,0.2-0.5,0.4-0.5c0.2,0,0.3,0,0.4,0.2c0.1,0.1,0.2,0.2,0.3,0.2c0.2,0.1,0.4,0,0.5-0.1c0.3-0.2,0.6-0.6,0.9-0.9
	c0.1-0.2,0.1-0.4-0.1-0.6c-0.2-0.1-0.4-0.1-0.6,0.1c-0.1,0.2-0.3,0.4-0.5,0.6c-0.2-0.2-0.5-0.3-0.7-0.3c-0.1-0.4-0.1-0.7-0.1-1.1
	c0-2.5,2.1-4.5,4.7-4.5s4.7,2,4.7,4.5c0,0.4,0,0.7-0.1,1.1c-0.1,0-0.3,0-0.4,0.1l-0.4-0.3c-0.2-0.1-0.4-0.2-0.6-0.2
	c-0.4,0-1.4,0.1-2.6-0.2c-1.5-0.3-2.6-0.9-3.3-1.8c-0.1-0.2-0.4-0.2-0.6-0.1c-0.2,0.1-0.2,0.4-0.1,0.6c0.9,1,2.1,1.7,3.8,2.1
	c1.3,0.3,2.4,0.2,2.8,0.2c0,0,0,0,0,0l0.5,0.4c0.1,0.1,0.3,0.1,0.5,0c0.1,0,0.4-0.1,0.5-0.1c0.2,0,0.4,0.2,0.4,0.5v0.3
	c0,0.2-0.1,0.5-0.3,0.5c0,0-0.1,0-0.1,0c-0.4,0-0.8,0.3-0.9,0.7c-0.3,1.8-1.9,3.2-3.8,3.2S86.6,31.8,86.2,29.9z M87.5,34.9l2,2
	L88.1,38c0,0,0,0,0,0c0,0,0,0,0,0l-1.4-2.3L87.5,34.9z M38.5,47.2c0.2,0,0.4-0.2,0.4-0.4l0.3-6.5c0.1-1.3-0.7-2.4-1.8-2.9l-2.3-1
	L34.8,36c1.6-0.5,2.7-1.1,2.8-1.1c0.1-0.1,0.2-0.1,0.2-0.3s0-0.2,0-0.3c0,0-0.8-1.7-0.8-5.4v-1.7c0-3.3-2.7-6-6-6c-3.3,0-6,2.7-6,6
	v1.7c0,3.7-0.8,5.4-0.8,5.4c-0.1,0.1-0.1,0.2,0,0.3c0,0.1,0.1,0.2,0.2,0.3c0.1,0,1.2,0.6,2.8,1.1l-0.3,0.3l-2.3,1
	c-1.1,0.5-1.9,1.7-1.8,2.9l0.3,6.5c0,0.2,0.2,0.4,0.4,0.4c0,0,0,0,0,0c0.2,0,0.4-0.2,0.4-0.5l-0.3-6.5c0-0.4,0.1-0.9,0.3-1.2
	l1.2,1.5c0.4,0.5,0.6,1.1,0.6,1.7v4.6c0,0.2,0.2,0.4,0.4,0.4c0.2,0,0.4-0.2,0.4-0.4v-4.6c0-0.8-0.3-1.6-0.8-2.2l-1.3-1.6
	c0.1-0.1,0.2-0.2,0.4-0.2l2-0.9l1.4,2.3c0.1,0.2,0.4,0.4,0.6,0.4c0,0,0.1,0,0.1,0c0.2,0,0.4-0.1,0.6-0.2l0.9-0.8v7.8
	c0,0.2,0.2,0.4,0.4,0.4c0.2,0,0.4-0.2,0.4-0.4V39l0.9,0.8c0.2,0.1,0.4,0.2,0.6,0.2c0,0,0.1,0,0.1,0c0.3,0,0.5-0.2,0.6-0.4l1.4-2.3
	l2,0.9c0.1,0.1,0.3,0.1,0.4,0.2l-1.3,1.6c-0.5,0.6-0.8,1.4-0.8,2.2v4.6c0,0.2,0.2,0.4,0.4,0.4s0.4-0.2,0.4-0.4v-4.6
	c0-0.6,0.2-1.2,0.6-1.7L38,39c0.2,0.4,0.3,0.8,0.3,1.2L38,46.7C38,46.9,38.2,47.1,38.5,47.2C38.5,47.2,38.5,47.2,38.5,47.2z
	 M25.8,27.2c0-2.8,2.3-5.2,5.2-5.2s5.2,2.3,5.2,5.2v1.7c0,2.9,0.5,4.6,0.7,5.4c-0.5,0.2-1.5,0.7-2.7,1l-0.2-0.2
	c-0.1-0.1-0.2-0.1-0.3-0.1v-0.8c0.7-0.5,1.4-1.2,1.7-2c0.2-0.5,0.3-1.1,0.4-1.6c0-1.8-1.5-2.3-3.2-2.8c-1.4-0.4-2.9-0.9-4.2-2.1
	c-0.2-0.2-0.5-0.2-0.6,0c-0.2,0.2-0.2,0.5,0,0.6c1.4,1.4,3.2,1.9,4.6,2.3c1.7,0.5,2.6,0.8,2.6,1.9c0,0.4-0.1,0.9-0.3,1.3
	c-0.6,1.4-2,2.3-3.5,2.3c-1.9,0-3.5-1.3-3.8-3.2c-0.1-0.4-0.5-0.7-0.9-0.7c0,0-0.1,0-0.1,0c-0.2,0-0.3-0.2-0.3-0.5v-0.3
	c0-0.2,0.1-0.4,0.3-0.5c0.2,0,0.3,0,0.4,0.2c0.1,0.1,0.2,0.2,0.3,0.2c0.2,0.1,0.4,0,0.5-0.1c0.4-0.3,0.7-0.6,0.9-0.9
	c0.1-0.2,0.1-0.5-0.1-0.6c-0.2-0.1-0.5-0.1-0.6,0.1c-0.1,0.2-0.3,0.4-0.5,0.6c-0.3-0.3-0.7-0.4-1.1-0.3c-0.1,0-0.1,0-0.2,0V27.2z
	 M25,34.3c0.2-0.5,0.5-1.6,0.6-3.3c0.1,0,0.1,0.1,0.2,0.1c0.1,0,0.2,0,0.4,0c0.2,1.3,1,2.4,2,3.1v0.8c-0.1,0-0.2,0-0.3,0.1l-0.2,0.2
	C26.6,35,25.5,34.5,25,34.3z M29,39.1l-1.4-2.3l0.7-0.7l2,2L29,39.1z M30.9,37.4l-1.7-1.7v-1c0.5,0.2,1.1,0.3,1.7,0.3
	c0.6,0,1.2-0.1,1.7-0.3v1L30.9,37.4z M32.8,39.1L31.6,38l2-2l0.7,0.7L32.8,39.1z M29.2,42.8c0.2,0,0.4-0.2,0.4-0.4s-0.2-0.4-0.4-0.4
	h-1.3c-0.2,0-0.4,0.2-0.4,0.4s0.2,0.4,0.4,0.4H29.2z M97.6,74.6h-1.3c-0.2,0-0.4,0.2-0.4,0.4c0,0.2,0.2,0.4,0.4,0.4h1.3
	c0.2,0,0.4-0.2,0.4-0.4C98.1,74.8,97.9,74.6,97.6,74.6z M101,70l-2.3-1l-0.3-0.3c1.6-0.5,2.7-1.1,2.8-1.1c0.1-0.1,0.2-0.1,0.2-0.3
	s0-0.2,0-0.3c0,0-0.8-1.7-0.8-5.4v-1.7c0-3.3-2.7-6-6-6c-3.3,0-6,2.7-6,6v1.7c0,3.7-0.8,5.4-0.8,5.4c-0.1,0.1-0.1,0.2,0,0.3
	s0.1,0.2,0.2,0.3c0.1,0,1.2,0.6,2.8,1.1L90.4,69l-2.3,1c-1.1,0.5-1.9,1.7-1.8,2.9l0.3,6.5c0,0.2,0.2,0.4,0.4,0.4c0,0,0,0,0,0
	c0.2,0,0.4-0.2,0.4-0.5l-0.3-6.5c0-0.4,0.1-0.9,0.3-1.2l1.2,1.5c0.4,0.5,0.6,1.1,0.6,1.7v4.6c0,0.2,0.2,0.4,0.4,0.4
	c0.2,0,0.4-0.2,0.4-0.4v-4.6c0-0.8-0.3-1.6-0.8-2.2L88.1,71c0.1-0.1,0.2-0.2,0.4-0.2l2-0.9l1.4,2.3c0.1,0.2,0.4,0.4,0.6,0.4
	c0,0,0.1,0,0.1,0c0.2,0,0.4-0.1,0.6-0.2l0.9-0.8v7.8c0,0.2,0.2,0.4,0.4,0.4s0.4-0.2,0.4-0.4v-7.8l0.9,0.8c0.2,0.1,0.4,0.2,0.6,0.2
	c0,0,0.1,0,0.1,0c0.3,0,0.5-0.2,0.6-0.4l1.4-2.3l2,0.9c0.1,0.1,0.3,0.1,0.4,0.2l-1.3,1.6c-0.5,0.6-0.8,1.4-0.8,2.2v4.6
	c0,0.2,0.2,0.4,0.4,0.4c0.2,0,0.4-0.2,0.4-0.4v-4.6c0-0.6,0.2-1.2,0.6-1.7l1.2-1.5c0.2,0.4,0.3,0.8,0.3,1.2l-0.3,6.5
	c0,0.2,0.2,0.5,0.4,0.5c0,0,0,0,0,0c0.2,0,0.4-0.2,0.4-0.4l0.3-6.5C102.9,71.7,102.2,70.5,101,70z M100.5,67c-0.5,0.2-1.5,0.7-2.7,1
	l-0.2-0.2c-0.1-0.1-0.2-0.1-0.3-0.1v-0.8c1-0.7,1.8-1.8,2-3.1c0.1,0,0.3,0,0.4,0c0.1,0,0.1,0,0.2-0.1C100,65.4,100.3,66.4,100.5,67z
	 M88.7,67c0.3-0.7,0.7-2.5,0.7-5.4v-1.7c0-2.8,2.3-5.2,5.2-5.2c2.8,0,5.2,2.3,5.2,5.2v0.9c-0.1,0-0.1,0-0.2,0
	c-0.4-0.1-0.8,0-1.1,0.3c-0.2-0.2-0.3-0.3-0.5-0.6c-0.1-0.2-0.4-0.3-0.6-0.1c-0.2,0.1-0.3,0.4-0.1,0.6c0.2,0.4,0.5,0.7,0.9,0.9
	c0.2,0.1,0.4,0.1,0.5,0.1c0.1,0,0.2-0.1,0.3-0.2c0.1-0.1,0.3-0.2,0.4-0.2c0.2,0,0.3,0.2,0.3,0.5v0.3c0,0.2-0.1,0.4-0.3,0.5
	c0,0-0.1,0-0.1,0c-0.4,0-0.8,0.3-0.9,0.7c-0.3,1.8-1.9,3.2-3.8,3.2c-1.5,0-2.9-0.9-3.5-2.3c-0.2-0.4-0.3-0.8-0.3-1.3
	c0-1.1,0.8-1.4,2.6-1.9c1.4-0.4,3.2-0.9,4.6-2.3c0.2-0.2,0.2-0.5,0-0.6s-0.5-0.2-0.6,0c-1.3,1.2-2.8,1.7-4.2,2.1
	c-1.7,0.5-3.2,1-3.2,2.8c0,0.6,0.1,1.1,0.4,1.6c0.4,0.9,1,1.6,1.7,2v0.8c-0.1,0-0.2,0-0.3,0.1L91.4,68C90.2,67.6,89.2,67.2,88.7,67z
	 M92.6,71.8l-1.4-2.3l0.7-0.7l2,2L92.6,71.8z M94.6,70.1l-1.7-1.7v-1c0.5,0.2,1.1,0.3,1.7,0.3c0.6,0,1.2-0.1,1.7-0.3v1L94.6,70.1z
	 M96.5,71.8l-1.3-1.1l2-2l0.7,0.7L96.5,71.8z M51.3,45.6c0.4,0,0.7-0.3,0.7-0.7v-7c0-0.1,0-0.1,0-0.2l1.8,1.8
	c0.3,0.3,0.4,0.7,0.4,1.1v2.8c0,0.4,0.3,0.7,0.7,0.7c0.4,0,0.7-0.3,0.7-0.7v-2.8c0-0.8-0.3-1.5-0.9-2.1l-2.2-2.2
	c0.2-0.2,0.4-0.4,0.7-0.5l4-1.8l3,3v1.9c0,0.4,0.3,0.7,0.7,0.7c0.4,0,0.7-0.3,0.7-0.7V37l3-3l4,1.8c0.3,0.1,0.5,0.3,0.7,0.5
	l-2.2,2.2c-0.6,0.6-0.9,1.3-0.9,2.1v2.8c0,0.4,0.3,0.7,0.7,0.7c0.4,0,0.7-0.3,0.7-0.7v-2.8c0-0.4,0.2-0.8,0.4-1.1l1.8-1.8
	c0,0.1,0,0.1,0,0.2v7c0,0.4,0.3,0.7,0.7,0.7s0.7-0.3,0.7-0.7v-7c0-1.5-0.9-2.8-2.2-3.4l-4.1-1.8c-0.3-0.1-0.5-0.4-0.5-0.7v-1.1
	c1.4-1.1,2.2-2.8,2.2-4.7v-1.6c0.5-0.3,0.7-0.7,0.7-1.3v-0.2c0-3.3-2.7-6-6-6h-1.5c-3.3,0-6,2.7-6,6v1.4c0,0.5,0.2,0.9,0.6,1.2
	c0.1,0,0.1,0.1,0.2,0.1v0.3c0,1.9,0.9,3.6,2.2,4.7V32c0,0.3-0.2,0.6-0.5,0.7l-4.1,1.8c-1.3,0.6-2.2,1.9-2.2,3.4v7
	C50.6,45.3,50.9,45.6,51.3,45.6z M61,35.7l-2.6-2.6c0.2-0.3,0.3-0.7,0.3-1.1v-0.3c0.7,0.3,1.5,0.5,2.3,0.5s1.6-0.2,2.3-0.5V32
	c0,0.4,0.1,0.8,0.3,1.1L61,35.7z M56.5,26.2v-0.3c0.4-0.2,0.9-0.5,1.3-0.8c0.3-0.3,0.3-0.7,0-1c-0.3-0.3-0.7-0.3-1,0
	c-0.3,0.3-0.7,0.5-1,0.6c0,0,0,0,0,0v-1.4c0-2.5,2-4.5,4.5-4.5h1.5c2.5,0,4.5,2,4.5,4.5v0.2c0,0,0,0,0,0c-4.2,0.8-6.3-0.7-7-1.4
	c-0.3-0.3-0.7-0.3-1,0c-0.3,0.3-0.3,0.7,0,1c2.2,2.2,5.3,2.2,7.3,2v1.2c0,2.5-2,4.5-4.5,4.5S56.5,28.7,56.5,26.2z M60.3,63.6v2.3
	c0,0.4,0.3,0.7,0.7,0.7c0.4,0,0.7-0.3,0.7-0.7v-2.3c3-0.2,5.7-1.8,7.3-4.2l2,1.2c0.1,0.1,0.2,0.1,0.4,0.1c0.2,0,0.5-0.1,0.6-0.4
	c0.2-0.3,0.1-0.8-0.3-1l-2-1.1c0.6-1.3,1-2.7,1-4.2c0-1.5-0.3-2.9-1-4.2l2-1.2c0.3-0.2,0.5-0.6,0.3-1c-0.2-0.3-0.6-0.5-1-0.3l-2,1.2
	c-1.6-2.4-4.3-4-7.3-4.2v-2.3c0-0.4-0.3-0.7-0.7-0.7c-0.4,0-0.7,0.3-0.7,0.7v2.3c-3,0.2-5.7,1.8-7.3,4.2l-2-1.2
	c-0.3-0.2-0.8-0.1-1,0.3c-0.2,0.3-0.1,0.8,0.3,1l2,1.1c-0.6,1.3-1,2.7-1,4.2c0,1.5,0.3,2.9,1,4.2l-2,1.2c-0.3,0.2-0.5,0.6-0.3,1
	c0.1,0.2,0.4,0.4,0.6,0.4c0.1,0,0.2,0,0.4-0.1l2-1.2C54.6,61.7,57.3,63.4,60.3,63.6z M61,45.6c4.6,0,8.3,3.7,8.3,8.3
	c0,4.6-3.7,8.3-8.3,8.3s-8.3-3.7-8.3-8.3C52.8,49.3,56.5,45.6,61,45.6z M55.2,57.3c0.1,0.2,0.4,0.4,0.6,0.4c0.1,0,0.2,0,0.4-0.1
	l3.4-1.9c0.2,0.2,0.5,0.3,0.7,0.4v3.9c0,0.4,0.3,0.7,0.7,0.7s0.7-0.3,0.7-0.7V56c0.3-0.1,0.5-0.2,0.7-0.4l3.4,1.9
	c0.1,0.1,0.2,0.1,0.4,0.1c0.2,0,0.5-0.1,0.6-0.4c0.2-0.3,0.1-0.8-0.3-1l-3.4-1.9c0-0.1,0-0.3,0-0.4c0-0.1,0-0.3,0-0.4l3.4-1.9
	c0.3-0.2,0.5-0.6,0.3-1c-0.2-0.3-0.6-0.5-1-0.3l-3.4,1.9c-0.2-0.2-0.5-0.3-0.7-0.4v-3.9c0-0.4-0.3-0.7-0.7-0.7s-0.7,0.3-0.7,0.7v3.9
	c-0.3,0.1-0.5,0.2-0.7,0.4l-3.4-1.9c-0.3-0.2-0.8-0.1-1,0.3c-0.2,0.3-0.1,0.8,0.3,1l3.4,1.9c0,0.1,0,0.3,0,0.4c0,0.1,0,0.3,0,0.4
	l-3.4,1.9C55.1,56.5,55,56.9,55.2,57.3z M61,53.1c0.4,0,0.8,0.3,0.8,0.8s-0.3,0.8-0.8,0.8c-0.4,0-0.8-0.3-0.8-0.8S60.6,53.1,61,53.1
	z"/>
</svg>
