<?xml version="1.0" encoding="utf-8"?>
<!-- Generator: Adobe Illustrator 20.1.0, SVG Export Plug-In . SVG Version: 6.00 Build 0)  -->
<svg version="1.1" id="Layer_1" xmlns="http://www.w3.org/2000/svg" xmlns:xlink="http://www.w3.org/1999/xlink" x="0px" y="0px"
	 viewBox="0 0 122 122" style="enable-background:new 0 0 122 122;" xml:space="preserve">
<style type="text/css">
	.st0{fill:#E99E99;}
	.st1{fill:#FFFFFF;}
</style>
<circle class="st0" cx="61" cy="60.8" r="60"/>
<path class="st1" d="M53.9,50.3l-6.1,6.1L60,74.7l12.2-18.3l-6.1-6.1H53.9z M61,52.5h4l1,0.9l-2.3,2.5l-3.1-3.1L61,52.5z M62.9,56.2
	h-6l3-3L62.9,56.2z M54.9,52.5h4l0.4,0.3l-3.1,3.1l-2.3-2.5L54.9,52.5z M53.3,53.7l2.2,2.5h-4.7L53.3,53.7z M51.1,57.7h4.8L59.2,70
	L51.1,57.7z M57,57.7h6l-3,11.4L57,57.7z M60.7,70L64,57.7h4.8L60.7,70z M69.1,56.2h-4.7l2.2-2.5L69.1,56.2z M57.7,25.9h3v-3h-3
	V25.9z M58.1,23.7h1.5v1.5h-1.5V23.7z M62.2,25.9h3v-3h-3V25.9z M62.5,23.7H64v1.5h-1.5V23.7z M70.2,34.7c0-0.4-0.7-0.7-1.1-0.7
	h-0.4v-7l1.6-1.5v-7c0-0.4-0.7-0.7-1.1-0.7h-3c-0.4,0-0.4,0.3-0.4,0.7v0.7h-2.2v-0.7c0-0.4-0.7-0.7-1.1-0.7h-3
	c-0.4,0-0.4,0.3-0.4,0.7v0.7H57v-0.7c0-0.4-0.7-0.7-1.1-0.7h-3c-0.4,0-0.4,0.3-0.4,0.7v7L54,27v7h-1.1c-0.4,0-0.4,0.3-0.4,0.7v0.7
	h17.7V34.7z M63.6,34h-4.4v-0.7h4.4V34z M59,29.6c0.3-0.9,1.1-1.5,2.1-1.5s1.8,0.6,2.1,1.5H59z M63.6,32.6h-4.4v-0.7h4.4V32.6z
	 M63.6,31.1h-4.4v-0.7h4.4V31.1z M67.3,34h-3v-3.7c0-1.6-1.3-3-3-3s-3,1.3-3,3V34h-3v-7.4L54,25.2v-5.9h1.5v1.5h5.2v-1.5h1.5v1.5
	h5.2v-1.5h1.5v5.9l-1.6,1.4V34z M60.7,93.3c-0.8,0-1.5,0.7-1.5,1.5s0.7,1.5,1.5,1.5s1.5-0.7,1.5-1.5C62.2,93.9,61.5,93.3,60.7,93.3z
	 M60.7,95.5c-0.4,0-0.7-0.3-0.7-0.7c0-0.4,0.3-0.7,0.7-0.7c0.4,0,0.7,0.3,0.7,0.7C61.4,95.2,61.1,95.5,60.7,95.5z M68.5,94.6h-3
	c-0.3-2.3-1.8-4.1-4-4.4v-1.5h0.4c0.4,0,0.7-0.3,0.7-0.7c0-0.4-0.3-0.7-0.7-0.7h-0.4v-0.7c0-0.4-0.3-0.7-0.7-0.7
	c-0.4,0-0.7,0.3-0.7,0.7v0.7H59c-0.4,0-0.7,0.3-0.7,0.7s0.3,0.7,0.7,0.7h1.1v1.5c-3,0.3-4.4,2.1-4.7,4.4h-3c-0.4,0-0.4,0.3-0.4,0.7
	v8.1h17.7v-8.1C69.6,95,68.9,94.6,68.5,94.6z M58.5,102h-3v-2.2c0-0.8,0.7-1.5,1.5-1.5s1.5,0.7,1.5,1.5V102z M62.2,102h-3v-2.2
	c0-0.8,0.7-1.5,1.5-1.5s1.5,0.7,1.5,1.5V102z M65.9,102h-3v-2.2c0-0.8,0.7-1.5,1.5-1.5c0.8,0,1.5,0.7,1.5,1.5V102z M68.1,102h-1.5
	v-2.2c0-1.2-1.2-2.2-2.4-2.2c-0.8,0-1.5,0.4-1.9,1c-0.4-0.6-1.1-1-1.9-1c-0.8,0-1.5,0.4-1.9,1c-0.4-0.6-0.9-1-1.7-1
	c-1.2,0-2.1,1-2.1,2.2v2.2h-1.5v-5.9H57v-0.7c0-2,1.7-3.7,3.7-3.7s3.7,1.7,3.7,3.7v0.7h3.7V102z M109.1,61.4h-5.6v-1.5h3.7v-3.7
	c0-3.3-3-5.9-5.9-5.9v0.5c-0.7-1.2-3-2-4.4-2v2.7c-0.7-1.2-3-2-4.4-2v10.3H94v1.5c-0.7,0-1.5,0-1.5,0v1.5c0,2,1.3,3.7,3.4,3.7h8.1
	c0,0,4.6-3.2,5.4-3.9C110,62,110.1,61.4,109.1,61.4z M102.1,51.1c2.2,0.4,4.4,2.5,4.4,5.1v3h-4.4V51.1z M102.8,59.9v1.5h-3.7v-1.5
	H102.8z M97.6,49.6c1.5,0.2,3,1.2,3.7,2.5v7.1h-3.7V49.6z M98.4,59.9v1.5h-3.7v-1.5H98.4z M93.2,59.3v-8.9c1.5,0.2,3,1.2,3.7,2.5
	v6.4H93.2z M103.6,65.1h-7.8c-1.2,0-2.2-0.7-2.2-2.2h13.1L103.6,65.1z M35.1,64.8c0.4-0.5-0.1-1-0.1-1.1l-7.8-8.5
	c-0.2-0.2-0.4-0.6-0.6-0.6h0.2v-1.4h3V51H26v4.2l-0.2,0.1L20.5,61l-2.3-3.3h1.5l-3-4.4h1.5l-3.7-5.2l-3.7,5.2h1.5l-3,4.4h1.5l-3,4.4
	H14v1.5H6.4C6,63.6,6,63.9,6,64.3V65h12.1c0.2,0.1,0.4,0.1,0.4,0.1h15.8C34.3,65.1,34.8,65.2,35.1,64.8z M26.7,51.8h2.2v0.7h-2.2
	V51.8z M26.4,56.5l3.4,3.7l-0.5,0.6L28.5,60c-0.1-0.1-0.3-0.1-0.5,0l-0.7,0.8L26.6,60c-0.1-0.1-0.3-0.1-0.5,0l-0.7,0.8L24.7,60
	c-0.1-0.1-0.3-0.1-0.5,0l-0.7,0.8L23,60.2L26.4,56.5z M9.3,61.4l3-4.4h-1.5l3-4.4h-1.4l2.3-3.2l2.3,3.2h-1.4l3,4.4h-1.5l0.8,1.1
	l2.2,3.3h-6H9.3z M18.1,63.6h-2.5v-1.5h3.9L18.1,63.6z M19.8,63.6l1.3-1.5h0.1l0,0l1.2-1.4l0.8,0.8c0.1,0.1,0.3,0.1,0.5,0l0.7-0.8
	l0.7,0.8c0.1,0.1,0.3,0.1,0.5,0l0.7-0.8l0.7,0.8c0.1,0.1,0.3,0.1,0.5,0l0.7-0.8l0.7,0.8c0.1,0.1,0.3,0.1,0.5,0l0.8-0.8l2.6,2.9H19.8
	z M23,25.1h25.9v-2.2H20.8v22.2H23V25.1z M99.1,45.1h2.2V22.9H74v2.2h25.1V45.1z M99.2,97.6H73.3v2.2h28.1V70.2h-2.2V97.6z M23,70.2
	h-2.2v29.6h27.3v-2.2H23V70.2z"/>
</svg>
