<?xml version="1.0" encoding="utf-8"?>
<!-- Generator: Adobe Illustrator 20.1.0, SVG Export Plug-In . SVG Version: 6.00 Build 0)  -->
<svg version="1.1" id="Layer_1" xmlns="http://www.w3.org/2000/svg" xmlns:xlink="http://www.w3.org/1999/xlink" x="0px" y="0px"
	 viewBox="0 0 122 122" style="enable-background:new 0 0 122 122;" xml:space="preserve">
<style type="text/css">
	.st0{fill:#E99E99;}
	.st1{fill:#FFFFFF;}
</style>
<circle class="st0" cx="61" cy="60.8" r="60"/>
<path class="st1" d="M46.1,42.3h-3.2v3.2h3.2V42.3z M45.3,44.7h-1.5v-1.5h1.5V44.7z M34,48.2l-0.4,1.2h-1.2l1,0.7L33,51.2l1-0.7
	l1,0.7L34.6,50l1-0.7h-1.2L34,48.2z M34.4,57.2L34,56l-0.4,1.2h-1.2l1,0.7L33,59.1l1-0.7l1,0.7l-0.4-1.2l1-0.7H34.4z M34,52.1
	l-0.4,1.2h-1.2l1,0.7L33,55.2l1-0.7l1,0.7L34.6,54l1-0.7h-1.2L34,52.1z M34,44.3l-0.4,1.2h-1.2l1,0.7L33,47.3l1-0.7l1,0.7l-0.4-1.2
	l1-0.7h-1.2L34,44.3z M34,40.3l-0.4,1.2h-1.2l1,0.7L33,43.4l1-0.7l1,0.7l-0.4-1.2l1-0.7h-1.2L34,40.3z M36.4,58.8h7.3v-2.1h1.5v2.1
	h2.9V40.5H36.4V58.8z M37.2,41.3h10.2V58h-1.3v-2.2h-3.2V58h-5.7V41.3z M46.1,47h-3.2v3.2h3.2V47z M45.2,49.4h-1.5v-1.5h1.5V49.4z
	 M38.5,45.5h3.2v-3.2h-3.2V45.5z M39.4,43.2h1.5v1.5h-1.5V43.2z M46.1,51.7h-3.2V55h3.2V51.7z M45.3,54.1h-1.5v-1.5h1.5V54.1z
	 M38.5,55h3.2v-3.3h-3.2V55z M39.4,52.6h1.5v1.5h-1.5V52.6z M38.5,50.2h3.2V47h-3.2V50.2z M39.4,47.9h1.5v1.5h-1.5V47.9z M41.1,71.1
	v8.7h0.5v-2.5c0.7-0.6,1.1-1.7,1.1-2.9c0-1.2-0.5-2.3-1.2-2.9L41.1,71.1z M41.6,72.4c0.3,0.5,0.6,1.3,0.6,2.1s-0.2,1.6-0.6,2.1V72.4
	z M35.8,71.6c-2.3,0-4.2,1.9-4.2,4.2s1.9,4.2,4.2,4.2s4.2-1.9,4.2-4.2C39.9,73.4,38.1,71.6,35.8,71.6z M35.8,79.4
	c-2,0-3.7-1.6-3.7-3.7c0-2,1.6-3.7,3.7-3.7c2,0,3.7,1.6,3.7,3.7C39.4,77.8,37.8,79.4,35.8,79.4z M30.7,74.2c0,0.3-0.1,0.6-0.2,0.8
	c-0.1,0.1-0.2,0.2-0.3,0.2v-3.5h-0.5v3.5c-0.1,0-0.2-0.1-0.3-0.2c-0.1-0.2-0.2-0.5-0.2-0.8v-2.5h-0.5v2.6c0,0.7,0.4,1.3,1,1.5v4.5
	h0.5v-4.5c0.6-0.2,1-0.8,1-1.5v-2.5h-0.5V74.2z M71.4,84.2V40c0,0,0.1-0.1,0.1-0.1c0.1-0.4,0.1-0.7-0.2-1L54.9,22.5
	c-0.3-0.3-0.7-0.3-1-0.2H26c-1.8,0-3.3,1.4-3.3,3.2v58.7c0,1.7,1.5,3.2,3.3,3.2h42.3C70.1,87.4,71.5,86,71.4,84.2z M55.1,25.3
	l13.3,13.3H56.5c-0.8,0-1.4-0.6-1.4-1.4V25.3z M26,85.5c-0.8,0-1.5-0.6-1.5-1.4V25.4c0-0.8,0.7-1.4,1.5-1.4h27.3v13.3
	c0,1.7,1.4,3.2,3.2,3.2h13.1v36.3L51.3,60.2c-0.1,0-0.1-0.1-0.2-0.1c0.2-0.2,0.5-0.4,0.7-0.7c2.7-2.9,4-6.7,3.8-10.7
	s-1.9-7.6-4.9-10.3c-2.9-2.7-6.7-4-10.7-3.8c-8.2,0.4-14.5,7.4-14.1,15.6c0.2,4,1.9,7.6,4.9,10.3c2.8,2.5,6.3,3.8,9.9,3.8
	c0.3,0,0.5,0,0.8,0c3.2-0.2,6.1-1.3,8.6-3.3c0,0.1,0.1,0.2,0.2,0.3l19.3,17.4v5.3c0,0.8-0.6,1.4-1.4,1.4H26z M50.7,58.4
	c-2.4,2.6-5.7,4.2-9.2,4.4c-3.6,0.2-7-1-9.6-3.4c-2.6-2.4-4.2-5.7-4.4-9.2c-0.4-7.4,5.3-13.6,12.7-14c7.3-0.4,13.6,5.3,14,12.7
	C54.3,52.4,53.1,55.8,50.7,58.4z M101.9,48.3L85.5,31.9c-0.2-0.2-0.4-0.2-0.6-0.3c-0.1,0-0.2,0-0.2,0H73c-0.5,0-0.9,0.4-0.9,0.9
	s0.4,0.9,0.9,0.9h10.9v13.3c0,1.7,1.4,3.2,3.2,3.2h13.1v43.7c0,0.8-0.6,1.4-1.4,1.4H56.6c-0.8,0-1.5-0.6-1.5-1.4v-2.3
	c0-0.5-0.4-0.9-0.9-0.9s-0.9,0.4-0.9,0.9v2.3c0,1.7,1.5,3.2,3.3,3.2h42.2c1.8,0,3.3-1.4,3.2-3.2V49.4c0,0,0.1-0.1,0.1-0.1
	C102.2,48.9,102.2,48.6,101.9,48.3z M87,48c-0.8,0-1.4-0.6-1.4-1.4V34.7L99,48H87z M77.7,87.4h14.1c0.4,0,0.8-0.3,0.8-0.8
	s-0.4-0.8-0.8-0.8H77.7c-0.4,0-0.8,0.3-0.8,0.8S77.2,87.4,77.7,87.4z M28.9,31H43c0.4,0,0.8-0.3,0.8-0.8s-0.4-0.8-0.8-0.8H28.9
	c-0.4,0-0.8,0.3-0.8,0.8S28.4,31,28.9,31z M77.7,78h14.1c0.4,0,0.8-0.3,0.8-0.8s-0.4-0.8-0.8-0.8H77.7c-0.4,0-0.8,0.3-0.8,0.8
	S77.2,78,77.7,78z M77.7,59.1h14.1c0.4,0,0.8-0.3,0.8-0.8s-0.3-0.8-0.8-0.8H77.7c-0.4,0-0.8,0.3-0.8,0.8S77.3,59.1,77.7,59.1z
	 M56,72.5h-9.4c-0.4,0-0.8,0.3-0.8,0.8s0.3,0.8,0.8,0.8H56c0.4,0,0.8-0.3,0.8-0.8S56.5,72.5,56,72.5z M77.7,68.6h14.1
	c0.4,0,0.8-0.3,0.8-0.8S92.2,67,91.8,67H77.7c-0.4,0-0.8,0.3-0.8,0.8S77.2,68.6,77.7,68.6z M56,78.3h-9.4c-0.4,0-0.8,0.3-0.8,0.8
	s0.3,0.8,0.8,0.8H56c0.4,0,0.8-0.3,0.8-0.8S56.5,78.3,56,78.3z"/>
</svg>
