<?xml version="1.0" encoding="utf-8"?>
<!-- Generator: Adobe Illustrator 20.1.0, SVG Export Plug-In . SVG Version: 6.00 Build 0)  -->
<svg version="1.1" id="Layer_1" xmlns="http://www.w3.org/2000/svg" xmlns:xlink="http://www.w3.org/1999/xlink" x="0px" y="0px"
	 viewBox="0 0 122 122" style="enable-background:new 0 0 122 122;" xml:space="preserve">
<style type="text/css">
	.st0{fill:#E99E99;}
	.st1{fill:#FFFFFF;}
</style>
<circle class="st0" cx="60.5" cy="60.7" r="60"/>
<path class="st1" d="M78.7,84.8h-13v1h13V84.8z M63.4,85.8v-1h-13v1H63.4z M50.7,91.6h13v-1h-13V91.6z M63.4,86.8h-13v1h13V86.8z
	 M56,88.6h-5.3v1H56V88.6z M65.7,87.8h13v-1h-13V87.8z M50.7,93.6h13v-1h-13V93.6z M35,87.8h13v-1H35V87.8z M63.6,66.4H50.1v15.1
	h13.5V66.4z M62.8,80.7H50.9v-1.1h11.9V80.7z M62.8,78.7H50.9V67.2h11.9V78.7z M76.9,48.9l0.7,0.8l-0.7,0.9l1,1.4l1.7-2.3l-1.7-2.2
	L76.9,48.9z M77.9,48.8l0.4,0.5L77.9,48.8L77.9,48.8z M78.6,49.7L78.6,49.7l-0.7,0.9l0,0L78.6,49.7z M35.8,47.5l-1.7,2.2l1.7,2.3
	l1-1.4l-0.7-0.9l0.7-0.8L35.8,47.5z M35.8,48.8L35.8,48.8l-0.4,0.5L35.8,48.8z M35.8,50.7l-0.7-0.9l0,0L35.8,50.7L35.8,50.7z
	 M38.3,55.9h37V43.6h-37V55.9z M39.1,44.4h35.4v10.7H39.1V44.4z M48,84.8H35v1h13V84.8z M35.4,91.6h13v-1h-13V91.6z M48.3,66.4H34.8
	v15.1h13.5V66.4z M47.5,80.7H35.6v-1.1h11.9V80.7z M47.5,78.7H35.6V67.2h11.9V78.7z M35.4,93.6h13v-1h-13V93.6z M41.7,88.6H35v1h6.6
	V88.6z M44.7,64H51c0.5,0,0.8-0.3,0.8-0.6v-1.6c0-0.4-0.3-0.6-0.8-0.6h-6.3c-0.5,0-0.8,0.3-0.8,0.6v1.6C43.9,63.7,44.2,64,44.7,64z
	 M44.7,61.9H51v1.3h-6.4V61.9z M72.4,88.6h-6.6v1h6.6V88.6z M72,38.4h3.5v-1.1H72V38.4z M78.2,31.6L78.2,31.6
	c-0.6,0-1.1,0.2-1.4,0.6c-0.4,0.4-0.6,0.9-0.6,1.4c0,0.5,0.2,1,0.6,1.4c0.4,0.4,0.9,0.6,1.5,0.6c1.1,0,2-0.9,2-2
	C80.2,32.5,79.3,31.6,78.2,31.6z M78.2,34.8L78.2,34.8c-0.7,0-1.2-0.6-1.2-1.2c0-0.3,0.1-0.6,0.4-0.9c0.2-0.2,0.5-0.3,0.9-0.3
	c0.3,0,0.6,0.1,0.9,0.4c0.2,0.2,0.4,0.5,0.3,0.9C79.4,34.3,78.9,34.8,78.2,34.8z M67.7,38.3h3.5v-1.1h-3.5V38.3z M59.1,38.4h3.5
	v-1.1h-3.5V38.4z M63.4,38.4h3.5v-1.1h-3.5V38.4z M88,23.7l0-0.6l-49.8,0.3l0,1.1l48.7-0.3l0.6,64.4l0,0.1l1.1,0L88,23.7z M73,35.5
	c1.1,0,2-0.9,2-2c0-0.5-0.2-1-0.6-1.4c-0.4-0.4-0.9-0.6-1.4-0.6h0c-0.5,0-1,0.2-1.4,0.6c-0.4,0.4-0.6,0.9-0.6,1.4s0.2,1,0.6,1.4
	C71.9,35.3,72.4,35.5,73,35.5L73,35.5z M71.8,33.5c0-0.3,0.1-0.6,0.4-0.9c0.2-0.2,0.5-0.3,0.9-0.3c0.3,0,0.6,0.1,0.9,0.4
	c0.2,0.2,0.4,0.5,0.3,0.9c0,0.3-0.1,0.6-0.4,0.9c-0.2,0.2-0.5,0.3-0.8,0.3h0c-0.3,0-0.6-0.1-0.9-0.4C71.9,34.1,71.7,33.8,71.8,33.5z
	 M85.1,26.4l-51.3,0.2l0,1.1L84,27.5l0.7,67l0,0.1l1.1,0l-0.7-68.1L85.1,26.4z M54.8,38.3h3.5v-1.1h-3.5V38.3z M31.1,98.7h51.5V29.5
	H31.1V98.7z M32.1,30.5h49.6v9.6H32.1V30.5z M32.1,40.9h49.5v17.7H32.1V40.9z M32.1,59.4h49.6v38.3H32.1V59.4z M63.9,32.4H32.7v2.8
	h31.3V32.4z M63.1,34.3H33.5v-1.2h29.7V34.3z M67.7,35.3c0.5,0,1-0.2,1.4-0.6c0.4-0.4,0.6-0.9,0.6-1.4c0-0.5-0.2-1-0.6-1.4
	c-0.4-0.4-0.9-0.6-1.4-0.6h0c-1.1,0-2,0.9-2,2c0,0.5,0.2,1.1,0.6,1.4C66.7,35.1,67.2,35.3,67.7,35.3z M67.8,32.1L67.8,32.1
	c0.3,0,0.6,0.1,0.9,0.4c0.2,0.2,0.4,0.5,0.3,0.9c0,0.3-0.1,0.6-0.4,0.9c-0.2,0.2-0.5,0.3-0.9,0.3h0c-0.3,0-0.6-0.1-0.9-0.4
	s-0.4-0.5-0.3-0.9C66.5,32.6,67.1,32.1,67.8,32.1z M76.3,38.4h3.5v-1.1h-3.5V38.4z M50.7,38.3h3.5v-1.1h-3.5V38.3z M79,66.4H65.5
	v15.1H79V66.4z M78.2,80.7H66.3v-1.1h11.9V80.7z M78.2,78.7H66.3V67.2h11.9V78.7z M62.8,64h6.3c0.5,0,0.8-0.3,0.8-0.6v-1.6
	c0-0.4-0.3-0.6-0.8-0.6h-6.3c-0.5,0-0.8,0.3-0.8,0.6v1.6C62,63.7,62.3,64,62.8,64z M62.8,61.9h6.4v1.3h-6.4V61.9z M53.7,64H60
	c0.5,0,0.8-0.3,0.8-0.6v-1.6c0-0.4-0.3-0.6-0.8-0.6h-6.3c-0.5,0-0.8,0.3-0.8,0.6v1.6C52.9,63.7,53.2,64,53.7,64z M53.7,61.9H60v1.3
	h-6.4V61.9z M66.1,93.6h13v-1h-13V93.6z M66.1,91.6h13v-1h-13V91.6z M71.8,64h6.3c0.5,0,0.8-0.3,0.8-0.6v-1.6c0-0.4-0.3-0.6-0.8-0.6
	h-6.3c-0.5,0-0.8,0.3-0.8,0.6v1.6C71,63.7,71.3,64,71.8,64z M71.8,61.9h6.4v1.3h-6.4V61.9z M42.3,38.4h3.5v-1.1h-3.5V38.4z
	 M46.2,38.4h3.5v-1.1h-3.5V38.4z M38,38.3h3.5v-1.1H38V38.3z M35.6,64h6.3c0.5,0,0.8-0.3,0.8-0.6v-1.5c0-0.1,0-0.3,0-0.4
	c-0.1-0.2-0.4-0.3-0.8-0.3h-6.3c-0.5,0-0.8,0.3-0.8,0.6v1.6C34.8,63.7,35.1,64,35.6,64z M35.6,61.9h6.4v1.3h-6.4V61.9z M33.8,38.3
	h3.5v-1.1h-3.5V38.3z"/>
</svg>
