<svg xmlns="http://www.w3.org/2000/svg" xmlns:xlink="http://www.w3.org/1999/xlink" viewBox="0 0 20 20">
  <style>.cls-1 {fill: #007300;}</style>
  <path class="cls-1" d="M10.38,18.231a8.279,8.279,0,1,1,8.185-8.278A8.232,8.232,0,0,1,10.38,18.231Zm0-14.646a6.368,6.368,0,1,0,6.3,6.368A6.332,6.332,0,0,0,10.38,3.585ZM9.415,13.17a0.3,0.3,0,0,1-.421,0L8.9,13.076h0l-0.1-.1-0.439-.444s0,0,0-.006L6.354,10.482a0.3,0.3,0,0,1,0-.426l0.631-.638a0.3,0.3,0,0,1,.421,0l1.8,1.835,3.786-3.829a0.3,0.3,0,0,1,.421,0l0.631,0.639a0.3,0.3,0,0,1,0,.426Z"/>
</svg>
