<?xml version="1.0" encoding="utf-8"?>
<!-- Generator: Adobe Illustrator 20.1.0, SVG Export Plug-In . SVG Version: 6.00 Build 0)  -->
<svg version="1.1" id="Layer_1" xmlns="http://www.w3.org/2000/svg" xmlns:xlink="http://www.w3.org/1999/xlink" x="0px" y="0px"
	 viewBox="0 0 122 122" style="enable-background:new 0 0 122 122;" xml:space="preserve">
<style type="text/css">
	.st0{fill:#E99E99;}
	.st1{fill:#FFFFFF;}
	.st2{fill:#FFFFFF;stroke:#FFFFFF;stroke-width:0.6288;stroke-miterlimit:10;}
</style>
<circle class="st0" cx="61" cy="60.8" r="60"/>
<rect x="17.2" y="79.7" class="st1" width="1.5" height="1.5"/>
<rect x="17.2" y="74.7" class="st1" width="1.5" height="1.5"/>
<rect x="17.2" y="84.8" class="st1" width="1.5" height="1.5"/>
<path class="st2" d="M15.1,93.7c-1.5,0-2.6-1.2-2.6-2.6V65.9l0,0c0-0.2,0.1-0.3,0.2-0.4l8.3-7.1c0.2-0.1,0.3-0.2,0.3-0.2l16.2,0
	c1.5,0,2.6,1.2,2.6,2.6v4.8c-0.4,0.1-0.8,0.1-1.2,0.2v-5c0-0.8-0.7-1.4-1.4-1.4H22.7l0,9.3h-4.6v-1.2h3.4v-8.1l-7.9,6.7V91
	c0,0.8,0.7,1.4,1.4,1.4h22.4c0.8,0,1.4-0.7,1.4-1.4v-0.9c0.4,0.1,0.8,0.2,1.2,0.2V91c0,1.5-1.2,2.6-2.6,2.6H15.1z"/>
<path class="st1" d="M22.2,81.1v-1.2h7.3c0.1,0.4,0.1,0.8,0.2,1.2H22.2z"/>
<path class="st1" d="M22.2,76v-1.2h7.6c-0.1,0.4-0.2,0.8-0.2,1.2H22.2z"/>
<path class="st1" d="M22.2,86.1v-1.2h9.3c0.3,0.4,0.6,0.8,0.9,1.2H22.2z"/>
<polygon class="st2" points="37.9,78.4 38.7,77.5 41.3,79.7 45.2,74.7 46.1,75.4 41.5,81.4 "/>
<path class="st1" d="M41.9,87.3c-5.1,0-9.3-4.2-9.3-9.3c0-5.1,4.2-9.3,9.3-9.3c5.1,0,9.3,4.2,9.3,9.3C51.2,83.1,47,87.3,41.9,87.3z
	 M41.9,69.9c-4.5,0-8.1,3.6-8.1,8.1c0,4.5,3.6,8.1,8.1,8.1c4.5,0,8.1-3.6,8.1-8.1C50,73.5,46.3,69.9,41.9,69.9z"/>
<g>
	<circle class="st2" cx="70.4" cy="76" r="0.9"/>
	<path class="st2" d="M95.6,86.6c-0.7,0-1.3-0.3-1.9-0.8c-0.1-0.1-0.1-0.1-0.2-0.2l-1-1.8L90.3,80c-0.1-0.1-0.1-0.3-0.1-0.5
		c0-0.2,0.1-0.3,0.3-0.4c0.1-0.1,0.2-0.1,0.3-0.1c0.2,0,0.4,0.1,0.5,0.3l3,5.3l0,0c0.4,0.4,0.8,0.6,1.2,0.6c0.2,0,0.4,0,0.5-0.1
		l0.7,1C96.5,86.5,96.1,86.6,95.6,86.6z"/>
	<path class="st2" d="M90.6,87.8c-0.6,0-1.5-0.2-2.3-1.3l-0.2-0.3l-1.7-3c-0.1-0.1-0.1-0.3-0.1-0.5c0-0.2,0.1-0.3,0.3-0.4
		c0.1-0.1,0.2-0.1,0.3-0.1c0.2,0,0.4,0.1,0.5,0.3l1.9,3.2l0,0.1c0.5,0.6,1,0.7,1.3,0.7c0,0,0,0,0.1,0l0.6,1.1
		C91.1,87.8,90.9,87.8,90.6,87.8z"/>
	<circle class="st2" cx="113.4" cy="77.8" r="0.9"/>
	<path class="st2" d="M85.7,88.4c-1,0-2.3-0.3-3.3-1.9L78,79h-2v2.9h-6.6v-1.2h5.4V60.8h-5.3v-1.2h6.5v2.6h8.3l-0.9,1.2h-7.3v14.5
		h2.6l4.7,8.1c0.6,0.9,1.3,1.3,1.9,1.3l0.7,1.2C85.9,88.4,85.8,88.4,85.7,88.4z"/>
	<path class="st2" d="M100.9,85.4c-0.3,0-0.5-0.1-0.8-0.2c-0.4-0.2-0.7-0.4-1-0.8L99,84.4l-0.8-1.2L96.8,81l-2.4-3.7
		c-0.1-0.1-0.1-0.3-0.1-0.4c0-0.2,0.1-0.3,0.3-0.4c0.1-0.1,0.2-0.1,0.3-0.1c0.2,0,0.4,0.1,0.5,0.3l4.5,7l0,0c0.4,0.4,0.7,0.6,1,0.6
		l0.1,0l0.1,0l0.1-0.1c0.1,0,0.2-0.1,0.4-0.2c0.5-0.4,1-1.2,1.2-1.6l0.1-0.2l-0.1-0.2l-7-13.4l-3.1-0.3l-4.2,4.2
		c-0.9,0.7-1.8,1.1-2.7,1.1c-0.3,0-0.5,0-0.8-0.1C83.1,73,82.1,71.2,82,71l-0.2-0.3l5.7-7.5c2-2.5,4-2.6,4.2-2.6l8.4,0l7.6,3.3v-2.5
		h6.5v1.2h-5.3v19.9h5.4v1.2h-6.6v-2l-3.4,0l-0.1,0.3c-0.3,0.8-1.1,2.3-2.1,3c-0.3,0.2-0.7,0.3-1,0.4L100.9,85.4z M103.4,80.5l4.3,0
		V65.2l-7.8-3.4l-8.1,0c-0.3,0-1.8,0.3-3.2,2.1l-5.3,6.9l0.2,0.3c0.4,0.5,0.9,1.1,1.7,1.2c0.2,0,0.3,0.1,0.5,0.1
		c0.6,0,1.3-0.3,2-0.8l0,0l4.5-4.5l0.4,0c1.4,0.1,3.2,0.3,4,0.3L103.4,80.5z"/>
</g>
<path class="st2" d="M42.2,41.8V20.7h22.6l-0.4,1c0,0.1-0.1,0.1-0.1,0.2H43.4v18.7h34V26.9l1.2-3v17.9H42.2z"/>
<path class="st2" d="M66.7,35.5c-0.1,0-0.1,0-0.2,0c-0.3-0.1-0.4-0.4-0.3-0.7l0.6-1.5c0-0.1,0.1-0.2,0-0.4l-1-5.4
	c0.1-0.4,0.2-0.7,0.4-1.1l4-9.9c0.1-0.2,0.1-0.3,0-0.5c-0.1-0.2-0.2-0.3-0.3-0.3l-1.5-0.6c-0.1,0-0.2,0-0.2,0
	c-0.3,0-0.5,0.2-0.6,0.4l-1.4,3.5c-0.1,0.2-0.3,0.3-0.5,0.3c-0.1,0-0.1,0-0.2,0c-0.1-0.1-0.2-0.2-0.3-0.3c-0.1-0.1-0.1-0.3,0-0.4
	l2.7-6.7c0.1-0.2,0.3-0.3,0.5-0.3c0.1,0,0.1,0,0.2,0c0.3,0.1,0.4,0.4,0.3,0.7l-0.4,1.1c-0.1,0.2-0.1,0.3,0,0.5
	c0.1,0.2,0.2,0.3,0.3,0.3l1.5,0.6c0.1,0,0.2,0,0.2,0c0.3,0,0.5-0.2,0.6-0.4L72,12c0.4-1.1,1.5-1.8,2.7-1.8c0.4,0,0.7,0.1,1.1,0.2
	l1.5,0.6c0.7,0.3,1.3,0.8,1.6,1.6c0.3,0.7,0.3,1.5,0,2.2l-5.8,14.4c-0.1,0.3-0.3,0.7-0.5,1L68,33.4c-0.1,0.1-0.2,0.2-0.2,0.3
	l-0.6,1.5C67.1,35.3,66.9,35.5,66.7,35.5z M67.8,28.2c-0.1,0-0.3,0.1-0.4,0.1c-0.2,0.1-0.3,0.4-0.2,0.6l0.4,2.4
	c0,0.2,0.2,0.4,0.4,0.5c0.1,0,0.2,0,0.2,0c0.1,0,0.3,0,0.4-0.1l2-1.4c0.2-0.1,0.3-0.4,0.3-0.6c0-0.2-0.2-0.4-0.4-0.5l-2.4-1
	C67.9,28.2,67.9,28.2,67.8,28.2z M71.7,16.5c-0.3,0-0.5,0.2-0.6,0.4l-3.7,9.3c-0.1,0.2-0.1,0.3,0,0.5c0.1,0.2,0.2,0.3,0.3,0.3
	l3.8,1.5c0.1,0,0.2,0,0.2,0c0.3,0,0.5-0.2,0.6-0.4l3.7-9.3c0.1-0.2,0.1-0.3,0-0.5c-0.1-0.2-0.2-0.3-0.3-0.3L72,16.6
	C71.9,16.5,71.8,16.5,71.7,16.5z M74.7,11.3c-0.8,0-1.5,0.5-1.7,1.2L72,14.8c-0.1,0.3,0,0.7,0.3,0.8l3.8,1.5c0.1,0,0.2,0,0.2,0
	c0.3,0,0.5-0.2,0.6-0.4l0.9-2.3c0.2-0.5,0.2-1,0-1.4c-0.2-0.5-0.6-0.8-1-1l-1.5-0.6C75.2,11.3,74.9,11.3,74.7,11.3z"/>
<path class="st1" d="M47.8,27.2c-0.3,0-0.6-0.3-0.6-0.6c0-0.3,0.3-0.6,0.6-0.6H61c0.3,0,0.6,0.3,0.6,0.6c0,0.3-0.3,0.6-0.6,0.6H47.8
	z"/>
<path class="st1" d="M47.8,32.2c-0.3,0-0.6-0.3-0.6-0.6c0-0.3,0.3-0.6,0.6-0.6H61c0.3,0,0.6,0.3,0.6,0.6c0,0.3-0.3,0.6-0.6,0.6H47.8
	z"/>
<path class="st1" d="M47.8,37.3c-0.3,0-0.6-0.3-0.6-0.6c0-0.3,0.3-0.6,0.6-0.6H61c0.3,0,0.6,0.3,0.6,0.6c0,0.3-0.3,0.6-0.6,0.6H47.8
	z"/>
<path class="st1" d="M87.9,51.1l-2.8,3.5l-3.4-2.8l1-1.2l1.5,1.3c0.4-2.1-0.3-4.2-2-5.6c-0.5-0.4-1.1-0.7-1.7-1l0.5-1.5
	c0.8,0.3,1.5,0.7,2.1,1.2c1.9,1.6,2.9,3.9,2.7,6.3l0.9-1.1L87.9,51.1z"/>
<path class="st1" d="M64.3,102.7l-3.9-2.1l2.1-3.9l1.4,0.7l-0.9,1.7c2.1,0,4.1-1.1,5.1-3c0.3-0.6,0.5-1.2,0.6-1.8l1.5,0.3
	c-0.1,0.8-0.4,1.6-0.8,2.3c-1.2,2.2-3.3,3.5-5.7,3.8l1.3,0.7L64.3,102.7z"/>
<path class="st1" d="M58,88.3l3.6,2.6L59,94.5l-1.3-0.9l1.1-1.6c-2.1-0.3-4.2,0.6-5.5,2.4c-0.4,0.5-0.7,1.1-0.8,1.7l-1.5-0.4
	c0.2-0.8,0.6-1.5,1.1-2.2c1.4-2,3.7-3.1,6.1-3.1l-1.2-0.8L58,88.3z"/>
<path class="st1" d="M31.1,51.1l2.5,3.7l3.7-2.5l-0.9-1.3l-1.6,1.1c-0.2-2.1,0.8-4.2,2.6-5.4c0.5-0.4,1.1-0.6,1.7-0.8l-0.4-1.5
	c-0.8,0.2-1.5,0.6-2.2,1c-2,1.4-3.2,3.6-3.3,6l-0.8-1.2L31.1,51.1z"/>
</svg>
