<svg xmlns="http://www.w3.org/2000/svg" viewBox="0 0 30 23"><defs><style>.cls-1{fill:#c55f55;}</style></defs><title>Asset 1</title><g id="Layer_2" data-name="Layer 2"><g id="Layer_1-2" data-name="Layer 1"><path class="cls-1" d="M29,6H27V4a1,1,0,0,0-1-1H24V1a1,1,0,0,0-1-1H1A1,1,0,0,0,0,1V16a1,1,0,0,0,1,1H3v2a1,1,0,0,0,1,1H6v2a1,1,0,0,0,1,1H29a1,1,0,0,0,1-1V7A1,1,0,0,0,29,6ZM2,15V2H22V15Zm3,3V17H23a1,1,0,0,0,1-1V5h1V18Zm23,3H8V20H26a1,1,0,0,0,1-1V8h1ZM2.48,14.56H5.2v-1H2.48ZM5.2,2.44H2.48v1H5.2Zm-1.81,6A1.64,1.64,0,1,0,5,6.79,1.65,1.65,0,0,0,3.39,8.44Zm2.19,0A.54.54,0,1,1,5,7.89.55.55,0,0,1,5.57,8.44Zm8.7-6h-.91v1h.91Zm3.06,6A1.64,1.64,0,1,0,19,6.79,1.65,1.65,0,0,0,17.33,8.44ZM19,7.89a.55.55,0,1,1-.54.55A.54.54,0,0,1,19,7.89ZM17.9,2.44H17v1h.91Zm-7.26,0H9.73v1h.91ZM6.1,14.56H7v-1H6.1ZM8.83,2.44H7.92v1h.91Zm6.35,1h.91v-1h-.91ZM13.36,14.56h.91v-1h-.91Zm1.81,0h.91v-1h-.91ZM6.1,3.44H7v-1H6.1ZM18.8,14.56h2.72v-1H18.8Zm-1.81,0h.91v-1H17ZM18.8,3.44h2.72v-1H18.8ZM11.55,14.56h.91v-1h-.91Zm-3.63,0h.91v-1H7.92ZM12.45,2.44h-.91v1h.91Zm3.62,6c0-2.76-1.84-5-4.1-5s-4.1,2.24-4.1,5,1.84,5,4.1,5S16.07,11.2,16.07,8.44Zm-7.14,0c0-2.07,1.36-3.76,3-3.76s3,1.69,3,3.76-1.36,3.76-3,3.76S8.93,10.51,8.93,8.44Zm.8,6.12h.91v-1H9.73Z"/></g></g></svg>