<svg xmlns="http://www.w3.org/2000/svg" viewBox="0 0 24 24"><defs><style>.cls-1{fill:#c55f55;}</style></defs><title>Asset 1</title><g id="Layer_2" data-name="Layer 2"><g id="Layer_1-2" data-name="Layer 1"><path class="cls-1" d="M12.56,7.18h-1v1h1Zm2,0h-1v1h1Zm-4,0h-1v1h1Zm6,0h-1v1h1Zm1,1h1v-1h-1Zm3-1h-1v1h1ZM3,17.86H21v-8H3ZM17.61,11h2.25v2.29H17.61Zm0,3.43h2.25v2.29H17.61ZM14.23,11h2.25v2.29H14.23Zm0,3.43h2.25v2.29H14.23ZM10.86,11h2.25v2.29H10.86Zm0,3.43h2.25v2.29H10.86ZM7.48,11H9.73v2.29H7.48Zm0,3.43H9.73v2.29H7.48ZM4.11,11H6.36v2.29H4.11Zm0,3.43H6.36v2.29H4.11ZM8.56,7.18h-1v1h1ZM3,20.5H21v-1H3ZM4.56,7.18h-1v1h1Zm2,0h-1v1h1ZM22.88,1H18a1,1,0,0,0-2,0H13V.79a1,1,0,0,0-1-.79,1,1,0,0,0-1,1H8A1,1,0,0,0,6,1H1.13A1.13,1.13,0,0,0,0,2.13V22.88A1.13,1.13,0,0,0,1.13,24H22.88A1.13,1.13,0,0,0,24,22.88V2.13A1.13,1.13,0,0,0,22.88,1ZM22,7.18h-.43v1H22V22H2V8.18h.56v-1H2V3H6V4A1,1,0,0,0,8,4V3h3.08V4a1,1,0,0,0,1,1,1,1,0,0,0,1-.79V3h3V4a1,1,0,0,0,2,0V3h4Z"/></g></g></svg>