<?xml version="1.0" encoding="utf-8"?>
<svg version="1.1" id="Available_Time_slots" xmlns="http://www.w3.org/2000/svg" xmlns:xlink="http://www.w3.org/1999/xlink" x="0px" y="0px" viewBox="0 0 24 24" style="enable-background:new 0 0 24 24;" xml:space="preserve">
<style type="text/css">
	.st0{fill:#C55F55;}
</style>
<path class="st0" d="M22.2,5.6l-5.4-5.4l-5.3,5.3H2.6C1.2,5.5,0.1,6.6,0.1,8v7.8c0,1,0.7,1.9,1.6,2.3l5.7,5.7l5.5-5.5h8.6
	c1.4,0,2.5-1.1,2.5-2.5V8C24,6.9,23.2,5.9,22.2,5.6z M16.8,1.6l3.9,3.9h-7.8L16.8,1.6z M7.3,22.4l-4.1-4.1h8.2L7.3,22.4z M23,15.8
	c0,0.8-0.7,1.5-1.5,1.5H2.6c-0.8,0-1.5-0.7-1.5-1.5V8c0-0.8,0.7-1.5,1.5-1.5h18.9C22.3,6.5,23,7.1,23,8V15.8z M15.2,10.8
	c-0.1,0-0.2,0-0.4,0c0.1-1.2-0.4-2.2-1.3-2.8c-0.8-0.5-2.1-0.5-3,0.4C9.9,7.8,9.1,7.6,8.2,7.7C7.2,8,6.4,8.9,6.2,10
	c-0.1,0.9,0,3.2,4.1,5.4c0.1,0.1,0.3,0.1,0.4,0c0.2-0.1,0.5-0.3,0.7-0.4c0.5,0.6,1.3,1.2,2.2,1.7c0.1,0,0.1,0.1,0.2,0.1
	s0.2,0,0.2-0.1c1.2-0.6,2.1-1.4,2.6-2.1c0.6-0.9,0.6-1.7,0.4-2.1C16.9,11.5,16.1,10.8,15.2,10.8z M10.7,12.4c-0.1,0.4-0.1,1,0.2,1.8
	c-0.1,0.1-0.3,0.2-0.4,0.2c-3.3-1.8-3.4-3.6-3.4-4.3c0.1-0.7,0.6-1.3,1.3-1.5c0.1,0,0.2,0,0.3,0c0.5,0,1,0.3,1.4,0.9
	c0.2,0.3,0.6,0.3,0.8,0c0.6-1,1.5-1,2.1-0.7c0.6,0.4,1.1,1.2,0.7,2.3c-0.3-0.3-0.7-0.4-1.1-0.4C11.7,10.8,10.9,11.5,10.7,12.4z
	 M13.9,15.7c-2.5-1.4-2.4-2.7-2.3-3.1c0.1-0.5,0.5-0.9,1-0.9c0.3,0,0.6,0.2,0.9,0.6c0.2,0.3,0.6,0.3,0.8,0c0.2-0.4,0.5-0.6,0.9-0.6
	c0.5,0,0.9,0.4,1,0.9C16.3,13,16.4,14.3,13.9,15.7z"/>
</svg>
