<?xml version="1.0" encoding="utf-8"?>
<!-- Generator: Adobe Illustrator 20.1.0, SVG Export Plug-In . SVG Version: 6.00 Build 0)  -->
<svg version="1.1" id="Layer_1" xmlns="http://www.w3.org/2000/svg" xmlns:xlink="http://www.w3.org/1999/xlink" x="0px" y="0px"
	 viewBox="0 0 122 122" style="enable-background:new 0 0 122 122;" xml:space="preserve">
<style type="text/css">
	.st0{fill:#E99E99;}
	.st1{fill:#FFFFFF;}
</style>
<circle class="st0" cx="61" cy="60.8" r="60"/>
<path class="st1" d="M86.8,37.7c-14.4,0-26.1,11.7-26.1,26.1c0,14.4,11.7,26.1,26.1,26.1c14.4,0,26.1-11.7,26.1-26.1
	C112.9,49.4,101.2,37.7,86.8,37.7z M86.8,87.9c-13.3,0-24.1-10.8-24.1-24.1s10.8-24.1,24.1-24.1s24.1,10.8,24.1,24.1
	S100,87.9,86.8,87.9z M86.8,42.6c-11.7,0-21.2,9.5-21.2,21.2S75.1,85,86.8,85S108,75.5,108,63.8S98.5,42.6,86.8,42.6z M87,83v-2.4
	c0-0.6-0.4-1-1-1s-1,0.4-1,1v2.3c-9.7-0.9-17.3-9-17.4-18.9H70c0.6,0,1-0.4,1-1s-0.4-1-1-1h-2.3c0.9-9.2,8.2-16.5,17.3-17.3V47
	c0,0.6,0.4,1,1,1s1-0.4,1-1v-2.4c9.9,0.1,18,7.7,18.9,17.4h-2.3c-0.6,0-1,0.4-1,1s0.4,1,1,1h2.4C105.9,74.4,97.4,82.9,87,83z
	 M96.9,52.1l-12.5,9l-0.2,0.2l-9,12.5c-0.3,0.4-0.2,0.9,0.1,1.3c0.2,0.2,0.4,0.3,0.7,0.3c0.2,0,0.4-0.1,0.6-0.2l12.5-9l0.2-0.2
	l9-12.5c0.3-0.4,0.2-0.9-0.1-1.3C97.8,51.9,97.3,51.9,96.9,52.1z M80.4,70l4.7-6.5l1.8,1.8L80.4,70z M88.4,63.9L86.6,62l6.5-4.7
	L88.4,63.9z M13,84V40h55.1c0.9-0.7,1.9-1.3,2.9-1.9V38H56.4L43.6,27.3c-0.4-0.3-0.9-0.3-1.3,0L29.6,38H11v48h55.9
	c-0.8-0.6-1.5-1.3-2.2-2H13z M43,29.3L53.3,38H32.7L43,29.3z M62.1,46c0.5-0.7,1-1.4,1.6-2H17v36h44.4c-0.4-0.6-0.9-1.3-1.2-2H59
	v-2.3c-0.9-1.9-1.5-3.9-2-6.1v0.5h-5c-0.6,0-1,0.4-1,1V78h-5.5c-1.8-2.2-11-14.4-11-26.5c0-0.6-0.4-1-1-1s-1,0.4-1,1
	c0,12.1-9.2,24.3-10.9,26.5H19V46H62.1z M53,72.2h4V78h-4V72.2z M33.4,59.1c1,4,2.7,7.7,4.4,10.9h-8.7
	C30.8,66.9,32.4,63.1,33.4,59.1z M28,72h10.9c1.5,2.6,3,4.7,4,6H24C25,76.7,26.5,74.6,28,72z"/>
</svg>
