<?xml version="1.0" encoding="utf-8"?>
<!-- Generator: Adobe Illustrator 20.1.0, SVG Export Plug-In . SVG Version: 6.00 Build 0)  -->
<svg version="1.1" id="Layer_1" xmlns="http://www.w3.org/2000/svg" xmlns:xlink="http://www.w3.org/1999/xlink" x="0px" y="0px"
	 viewBox="0 0 104 94.3" style="enable-background:new 0 0 104 94.3;" xml:space="preserve">
<style type="text/css">
	.st0{fill:#F69998;}
</style>
<g>
	<g>
		<path class="st0" d="M59.1,25c-0.1,0-0.2-0.1-0.2-0.2c0-0.1,0-0.2,0-0.3c0.3-0.7,1.9-0.3,18.2,6.7c-15.5-7.2-15.7-7.5-15.7-7.7
			c0-0.1,0-0.2,0-0.3c0.2-0.5,0.2-0.5,13.9,5.3c6.7,2.9,16.1,6.9,20.5,8.5c-4-1.9-12.3-5.7-18.8-8.6c-12.6-5.7-12.7-5.7-12.8-6
			c0-0.1,0-0.2,0-0.3c0.3-0.5,0.7-0.5,11,3.8c-4.2-2-7.4-3.6-7.7-4.3c-0.1-0.1,0-0.3,0-0.4c0.3-0.6,0.9-0.6,13.5,4.7
			c2.1,0.9,4.3,1.8,6.3,2.6c-0.8-0.3-1.5-0.7-2.3-1c-12-5.4-13.1-6-13.2-6.3c0-0.1,0-0.2,0-0.3c0.2-0.4,0.2-0.5,9.7,2.4
			c-1.3-0.6-1.3-0.6-1.3-0.8c0-0.1,0-0.2,0-0.3c0.1-0.2,0.4-0.3,0.6-0.1c0.2,0.1,1.3,0.6,2.3,1c3.8,1.6,3.8,1.7,3.9,1.9
			c0,0.1,0,0.2,0,0.3c-0.1,0.3-0.1,0.3-1.7-0.2c-4.6-1.4-8-2.5-10.2-3.1c2.7,1.3,6.9,3.2,10.4,4.7c8.4,3.8,8.4,3.8,8.5,4
			c0,0.1,0,0.2,0,0.3c-0.3,0.6-0.9,0.5-13.1-4.6c-4.4-1.8-9.7-4-11.8-4.7c3.5,2.2,18.2,8.6,27.7,12.5c0.1,0,0.2,0.1,0.2,0.2
			c0,0.1,0,0.2,0,0.3c-0.3,0.7-2,0.2-17.6-6.5c-2.1-0.9-4.4-1.9-6.4-2.7c1.5,0.7,3,1.4,4.6,2c17.2,7.7,21.2,9.6,21.4,10.2
			c0,0.1,0,0.2,0,0.3c-0.3,0.7-1.6,0.4-23.7-9c-1.9-0.8-3.8-1.6-5.5-2.3c8,3.8,20.8,9.6,30.4,13.9c0.1,0,0.2,0.1,0.2,0.2
			c0,0.1,0,0.2,0,0.3c-0.2,0.5-0.3,0.6-15.9-6.2c-5.8-2.5-12.9-5.6-18-7.7c3.8,1.7,8.9,4,13.9,6.3c20.8,9.5,20.9,9.9,21,10.2
			c0,0.1,0,0.2,0,0.3c-0.1,0.2-0.3,0.3-0.5,0.2c-0.1,0-0.1-0.1-0.2-0.1C99,43.2,75,32.2,59.1,25C59.1,25,59.1,25,59.1,25z"/>
	</g>
	<g>
		<path class="st0" d="M29.6,92c-0.1,0-0.1-0.1-0.1-0.1c-0.3-0.2-2.1-1-3.8-1.7c-0.1,0-0.2-0.1-0.2-0.2c0-0.1,0-0.2,0-0.3
			c0.2-0.4,0.2-0.4,4.6,0.5c0.5,0.1,1.1,0.2,1.7,0.3c-2.2-1.1-5.9-2.7-8.6-4c0,0,0,0,0,0c-0.1,0-0.2-0.1-0.2-0.2c0-0.1,0-0.2,0-0.3
			c0.1-0.1,0.1-0.2,0.5-0.2l0,0c0,0,0.1,0,0.1,0.1c0.5,0.1,1.3,0.4,3,0.9c1.9,0.6,4.9,1.6,7.3,2.3c-13-5.8-13.1-6.2-13.2-6.3
			c0-0.1,0-0.2,0-0.3c0.2-0.5,0.2-0.5,9.6,3c2.6,0.9,5.6,2.1,8,2.9c-2.3-1.1-5.4-2.4-8.1-3.6c-10.4-4.6-11.5-5.2-11.6-5.5
			c0-0.1,0-0.2,0-0.3c0.2-0.4,0.4-0.9,15.7,5.2c-2.5-1.1-5-2.3-7.3-3.3c-10.4-4.8-10.4-4.8-10.5-5c0-0.1,0-0.2,0-0.3
			c0.2-0.4,0.3-0.5,11.7,4.1c-11.3-5.1-13.4-6.5-13.6-7.1c0-0.1,0-0.3,0-0.4c0.3-0.6,0.3-0.7,19,7.3c6.3,2.7,13.9,6,17.5,7.4
			c-5.9-3.1-23.7-11-32-14.7c-6.2-2.7-6.2-2.7-6.2-2.9c0-0.1,0-0.2,0-0.3c0.3-0.6,0.3-0.7,17.4,6.9c7.8,3.5,17.8,7.8,23,9.8
			c-2.4-1.1-5.8-2.5-9.2-4c-21.3-9.2-32.2-14.2-32.7-15.5c0-0.1,0-0.3,0-0.4c0.2-0.4,0.2-0.5,9.8,3.5c-0.1,0-0.1,0-0.2-0.1
			c-6.9-3.2-10.8-5.3-11.2-6.2c-0.1-0.2,0-0.3,0-0.4c0.3-0.7,1.3-0.4,24,9.8c11.3,5.1,25,11.3,28.7,12.3c-3-1.9-15.2-7.1-26.2-11.8
			C17.8,65,8.9,61.1,8.5,59.9c0-0.1,0-0.3,0-0.4c0.2-0.4,0.2-0.4,3.3,1c1.7,0.8,4.2,1.9,7.2,3.2c14.1,6.3,42.8,19.1,47.2,20.1
			C63.3,81.3,39.6,71.2,25.2,65c-15.3-6.6-17.9-7.7-18-8.2c0-0.1,0-0.2,0-0.3c0.3-0.6,0.3-0.7,24.9,10.4
			C45.3,72.8,62.6,80.7,68,82.5c-3.8-1.9-14.2-6.5-24.3-10.9c-22.3-9.7-37-16.2-37.6-17.7c0-0.1,0-0.3,0-0.4c0.2-0.4,0.3-0.7,6,1.5
			c-6.8-3.3-7-3.8-7.1-4c0-0.1,0-0.2,0-0.3c0-0.1,0.1-0.2,0.4-0.3c0.6-0.2,2.5,0.3,5.5,1.4c-4.5-2.1-6.6-3.2-6.8-3.6
			c0-0.1,0-0.2,0-0.3c0.2-0.5,0.4-0.8,11.5,4.1c6.5,2.9,15,6.8,23.9,10.9c14.5,6.7,32.3,14.9,37.1,16.5c-6.9-4-46.2-21.8-73.1-33.7
			c-0.1,0-0.2-0.1-0.2-0.2c0-0.1,0-0.2,0-0.3c0-0.1,0.1-0.2,0.4-0.3c0.3-0.1,1.1,0,2.2,0.3c-1.9-1.1-3-1.9-3.2-2.3
			c-0.1-0.2,0-0.3,0-0.4c0-0.1,0.1-0.2,0.3-0.3c1.4-0.5,13.2,5.1,33.8,15C47.4,62.1,58.3,67.3,67,71.2c9.6,4.3,13.4,5.6,14.8,5.8
			c-6.9-3.4-53.9-25.2-79.4-36.9l0,0c-0.1,0-0.2-0.1-0.2-0.2c0-0.1,0-0.2,0-0.3c0.1-0.2,0.1-0.3,0.5-0.2l0,0c0,0,0,0,0.1,0
			c0.3,0.1,1,0.4,2,0.8c1.4,0.6,3.3,1.5,5.8,2.5c2.9,1.3,6.4,2.8,10.4,4.6C9,41.8,2.2,38.3,1.8,37.4c-0.1-0.2,0-0.3,0-0.4
			c0.3-0.6,0.4-0.8,36.9,15.9c18.7,8.5,41.5,18.9,47.2,20.9c-4.5-2.6-22.5-10.5-38.6-17.5C19.3,44,2.2,36.4,1.6,34.8
			c-0.1-0.2,0-0.3,0-0.4c0.1-0.2,0.3-0.3,0.5-0.2c27.5,12.4,78.6,35.3,86.2,38C84.1,69.1,58.2,58,38.9,49.7
			C13.2,38.6,1.9,33.6,1.4,32.4c0-0.1,0-0.3,0-0.4c0.1-0.2,0.2-0.5,2.2,0.1c-1.3-0.8-2-1.5-2.2-1.9c-0.1-0.3-0.1-0.5,0-0.6
			c0-0.1,0.1-0.2,0.2-0.2c1-0.3,9.6,3.7,32.1,14.5c12.6,6,26.8,12.9,38.1,17.9c15.7,7.1,19.6,8,20.4,7.8c-1.8-2.2-28.8-14-50.6-23.4
			C14.2,34.3,2.1,28.9,1.6,27.6c0-0.1,0-0.2,0-0.4c0.1-0.3,0.3-0.6,3.5,0.5c-3-1.7-3.1-2.1-3.2-2.4c-0.1-0.2,0-0.3,0-0.4
			c0.2-0.5,0.5-1.1,16.2,6c9.2,4.1,21.4,9.8,33.3,15.4c19.3,9,41.2,19.2,44.1,19.7c-0.2-0.4-1-1.1-3.7-2.6
			c-7.5-3-22.3-9.9-42.7-19.6c-1.1-0.5-2.2-1.1-3.3-1.6c-5.6-2.4-11.1-4.8-16.2-6.9C8,26.1,2.5,23.7,2.3,23c0-0.1,0-0.2,0-0.3
			c0-0.1,0.1-0.2,0.3-0.3c1.6-0.6,17.5,6.8,43.5,19.1c21.2,9.1,38.5,16.8,46,21.2c2.4,1,4.1,1.5,4.7,1.5c-0.1-0.3-0.7-1-3-2.3
			c-10-3.6-35.1-15.2-64-28.7c-5.9-2.8-11.5-5.4-16-7.5C3,21.1,2.9,21.1,2.8,20.8c0-0.1,0-0.2,0-0.3c0-0.1,0.1-0.2,0.2-0.2
			C3.4,20.2,5.3,21,14,25c1.2,0.5,2.6,1.1,3.9,1.7c8.8,3.7,17.5,7.4,25.7,11C7.9,21.2,3.7,19.1,3.6,18.7c0-0.1,0-0.2,0-0.3
			c0.2-0.4,0.3-0.7,7,2c-3.9-1.9-5.9-3-6.1-3.5c-0.1-0.1,0-0.3,0-0.4c0.2-0.3,0.3-0.6,5.7,1.5c-2.8-1.5-4.4-2.6-4.6-3.1
			c-0.1-0.2,0-0.3,0-0.4C5.8,13.9,5.9,13.8,41,30c23.7,10.9,55.8,25.8,59.4,26.2c-0.4-0.6-2.7-2.4-14.1-7.8
			C73.4,43,54.4,34.9,38.4,27.6C16.3,18.2,7.1,14.2,6.7,13.1c0-0.1,0-0.3,0-0.4c0.1-0.2,0.3-0.3,0.5-0.2c0.1,0.1,2.1,0.9,5.4,2.4
			c-2.6-1.5-4.3-2.7-4.5-3.4C8,11.2,8,11,8.1,10.9c0.2-0.5,0.2-0.5,9.9,3.8c5.7,2.6,13.8,6.2,22.3,10.1
			c23.9,10.9,56.2,25.7,60.7,26.8c-0.6-0.6-2.5-1.8-5.3-3.3C87.4,45.2,71.3,37.6,50,27.5c-4-1.9-8-3.8-11.8-5.6
			c-9.8-4.3-19.6-8.5-28.3-12.2c-0.1,0-0.2-0.1-0.2-0.2c0-0.1,0-0.2,0-0.3C9.8,9.1,9.9,9,10,9c1.1-0.4,9.8,3.4,28.4,12.2
			c20.3,8.9,45.8,20.3,57.3,26.4c2.7,1.1,4.6,1.7,5.3,1.7c-0.5-0.6-2.2-1.6-5-3.1c-9.1-3.3-28.8-12.6-52.6-23.9
			c-5.2-2.5-10.4-4.9-15-7.1c-5.8-2.5-11.4-5-16.7-7.2c-0.1,0-0.2-0.1-0.2-0.2c0-0.1,0-0.2,0-0.3c0-0.1,0.1-0.2,0.2-0.2
			c0.4-0.1,2.4,0.6,6.6,2.5c-2.9-1.5-4.6-2.6-4.8-3.2c-0.1-0.2,0-0.4,0-0.5c0.5-1,3.9,0.4,21.7,8.6c7.5,3.5,16.4,7.6,20.5,9
			C49,20.6,28,10.9,16.1,5.4l0,0c-0.1,0-0.2-0.1-0.2-0.2c0-0.1,0-0.2,0-0.3c0.3-0.7,2.6-0.2,23.5,8.9c-0.1-0.1-0.3-0.1-0.4-0.2
			C18.9,4.4,18.8,4.3,18.7,4c0-0.1,0-0.2,0-0.3c0.3-0.5,0.3-0.6,17,6.5c7.3,3.1,16,6.8,19.4,8c-2.7-1.5-9.7-4.4-15.6-6.8
			C27.9,6.5,22.3,4.1,22,3.1c0-0.1,0-0.3,0-0.4c0.1-0.2,0.3-0.3,0.5-0.2C33,7,48.3,13.2,53.4,14.9c-2.6-1.4-9.4-4.6-25.3-11.5
			c-1-0.4-1.5-0.7-1.8-0.8c-0.1,0-0.2-0.1-0.2-0.1l0,0c-0.2-0.1-0.2-0.1-0.2-0.2c-0.1-0.1,0-0.3,0.1-0.4c0.1-0.1,0.3-0.1,0.4-0.1
			c7.9,3.2,19.1,7.6,23.8,9.2c-2.1-1-5.4-2.4-8.2-3.6c-8.9-3.8-10.8-4.7-11-5.2c0-0.1,0-0.2,0-0.3c0.2-0.4,0.2-0.5,8.7,2.3
			c0.6,0.2,1.2,0.4,1.8,0.6c-1.6-0.7-1.6-0.7-1.7-0.9c0-0.1,0-0.2,0-0.3c0.1-0.2,0.3-0.3,0.5-0.2c0,0,0.1,0.1,0.1,0.1
			c0.3,0.1,1.4,0.7,2.4,1.1c3.5,1.5,3.6,1.6,3.7,1.9c0,0.1,0,0.2,0,0.3c-0.2,0.4-0.2,0.4-7.1-1.8c-1.8-0.6-4.1-1.3-5.7-1.8
			c2.2,1,5.6,2.5,8.6,3.7c8.7,3.7,10.4,4.5,10.6,5c0,0.1,0,0.2,0,0.3c-0.2,0.4-0.3,0.7-9.1-2.6c9.7,4.3,11.5,5.5,11.7,6
			c0,0.1,0,0.2,0,0.3c-0.2,0.5-0.4,0.8-17-6c-3.6-1.4-7.2-2.9-10-4.1c3.3,1.5,7.6,3.3,11.4,4.9c11.6,4.9,16.8,7.1,17.1,8
			c0,0.1,0,0.3,0,0.4c-0.3,0.6-1.3,0.4-21.5-8.2c-2.6-1.1-5.3-2.3-7.7-3.3c3.5,1.6,7.6,3.5,11.5,5.3c18.5,8.5,18.6,8.5,18.7,8.8
			c0,0.1,0,0.2,0,0.3c-0.2,0.5-0.2,0.5-13.7-5.3C36.8,13.4,26.7,9,20.9,6.8c37.5,17.3,37.6,17.5,37.6,17.7c0,0.1,0,0.2,0,0.3
			c-0.5,1.1-4.5-0.5-23.5-9.3c-8.3-3.8-18.5-8.6-20.6-8.8c1.9,2.3,23.4,11.3,42.5,19.3c27.3,11.5,43.9,18.6,44.7,20.8
			c0.1,0.2,0,0.4,0,0.5c0,0.1-0.1,0.2-0.4,0.3c-0.3,0.1-1,0-1.9-0.2c1.5,0.9,2.4,1.5,2.5,1.9c0.1,0.2,0,0.3,0,0.4
			c0,0.1-0.1,0.2-0.3,0.3c-0.3,0.1-1.1,0-2.3-0.3c1.5,0.9,2.4,1.6,2.6,2.1c0.1,0.2,0,0.4,0,0.5c-0.3,0.5-0.5,1-21.3-8.2
			c-11.9-5.3-27.2-12.3-40.6-18.4c-14.4-6.6-28.1-12.8-31-13.9c0.7,0.8,3.5,2.8,12.9,7.4c23.5,10.4,68.1,30.1,77.7,34.2
			c1.2,0.5,1.8,0.8,1.9,0.8c0.1,0,0.2,0.1,0.2,0.2c0,0.1,0,0.2,0,0.3c-0.1,0.2-0.1,0.3-0.5,0.2l0,0c0,0,0,0-0.1,0
			c-0.2-0.1-0.5-0.2-1-0.4c-0.2-0.1-0.4-0.2-0.6-0.3c-0.7-0.3-1.7-0.7-2.8-1.2c2.7,1.5,4.3,2.6,4.5,3.3c0.1,0.3,0.1,0.5,0,0.6
			c-0.3,0.6-0.5,1.1-20.6-7.8c-11.6-5.2-26.6-12.1-39.8-18.2C25.6,23.7,11.2,17.1,7,15.4c1.9,1.3,7,3.9,13.8,7
			c7.9,3.4,18.7,8.2,32.1,14.2c9.9,4.5,19.9,9,28.1,12.8c16.3,7.2,19.3,8.6,19.5,9c0,0.1,0,0.2,0,0.3c-0.1,0.2-0.3,0.3-0.5,0.2
			c-5-2.3-10.4-4.8-16-7.4c9.5,4.4,15.2,7.4,15.7,8.7c0.1,0.2,0,0.4,0,0.5c-0.1,0.2-0.3,0.3-0.5,0.2C66.7,46,19.6,24.6,7.1,19.9
			c9.3,4.5,38.7,18.1,61.1,28.4c30.3,14,30.3,14,30.4,14.2c0,0.1,0,0.2,0,0.3c0,0.1-0.1,0.2-0.3,0.3c-0.3,0.1-1,0-2.1-0.3
			c0.7,0.5,1.1,1,1.3,1.3c0.1,0.3,0.1,0.5,0,0.6c0,0.1-0.1,0.2-0.3,0.3c-0.3,0.1-1.1,0-2.3-0.4c0.7,0.6,1.2,1,1.3,1.4
			c0.1,0.3,0.1,0.5,0,0.6c-0.2,0.5-0.4,1-14.5-5.4c-8.3-3.7-19.1-8.8-30.6-14.1C30.2,37.2,6.6,26.2,2.8,25.4
			c0.7,0.6,2.8,1.9,7.9,4.5c5,2,12.9,5.4,25.2,11c18.1,8.1,39,17.8,50.2,23c4.7,2.2,8.1,3.8,8.4,3.9l0,0c0.2,0.1,0.2,0.1,0.2,0.2
			c0,0.1,0,0.2,0,0.3c-0.1,0.2-0.1,0.3-0.5,0.1l0,0c-0.1-0.1-1.6-0.7-3.8-1.7c-7-3-13.4-5.8-19.3-8.4c13.5,6,21.5,10,22,11.2
			c0.1,0.2,0,0.3,0,0.4c-0.1,0.1-0.2,0.3-0.4,0.4c-0.5,0.2-1.8,0-3.7-0.6c1.5,0.8,2.2,1.3,2.3,1.5c0,0.1,0,0.2,0,0.4
			c-0.2,0.4-0.2,0.4-6.6-2.5c-3.8-1.7-9.2-4.2-15.3-7c-3.1-1.4-6.4-2.9-9.9-4.5c-0.4-0.2-0.8-0.3-1.1-0.5
			C35.6,47.3,16.6,39.2,7.4,34.3c-2.1-0.8-3.7-1.4-4.6-1.7C6.4,34.8,23.1,42,39.2,49c29.9,12.9,49.5,21.5,50.3,23.6
			c0.1,0.2,0,0.4,0,0.5c-0.2,0.5-0.3,0.6-14.3-5.5c-7.3-3.1-17.3-7.6-30-13.2c-15.9-7.1-32-14.3-39.3-17.6c7.7,4,26.2,12,41.7,18.8
			c26.9,11.7,39.6,17.4,40,18.6c0,0.1,0,0.2,0,0.4c-0.2,0.5-0.4,0.9-16.4-6.2C62,64.2,50,58.8,38.4,53.5
			C23.5,46.7,8.1,39.7,3.5,37.9c6.8,4.4,46.2,21.8,65.9,30.5c15.9,7,15.9,7,16,7.3c0,0.1,0,0.2,0,0.3c-0.2,0.4-0.2,0.4-5.9-2
			c-3.1-1.3-7.5-3.2-13.5-5.9c-7.9-3.5-17.3-7.6-26.5-11.7c1.1,0.5,2.2,1,3.2,1.5C83,76.6,83.1,76.8,83.2,77c0,0.1,0,0.2,0,0.3
			c-0.1,0.1-0.2,0.3-0.4,0.4c-2.5,0.9-20.7-7.7-46.2-20c-14.8-7.1-30-14.4-32.9-14.9c0.7,0.7,3.1,2,6.7,3.8
			c7.5,3,20.7,9.2,37.8,17.3c1.9,0.9,3.8,1.8,5.8,2.7c9.2,4.1,18.5,8.1,26.7,11.6c0.1,0,0.2,0.1,0.2,0.2c0,0.1,0,0.2,0,0.3
			c-0.1,0.1-0.1,0.2-0.3,0.2c-0.9,0.3-6.6-2.1-18.5-7.7c16,7.5,16.2,8.1,16.3,8.4c0,0.1,0,0.2,0,0.3c-0.2,0.4-0.3,0.7-5.3-1.3
			c1.6,0.9,2.5,1.6,2.7,2c0.1,0.2,0,0.4,0,0.5c0,0.1-0.1,0.2-0.2,0.2c-0.7,0.3-6-2.1-25-11C34.2,62.6,9.9,51.2,6.1,51
			c1.3,0.9,6.4,3.6,22.6,11c11.2,4.9,24.4,10.9,33.3,14.9c1.7,0.8,3.2,1.5,4.6,2.1c1,0.4,2,0.9,3,1.3c1.9,0.8,2.7,1.2,3,1.4
			c0,0,0,0,0.1,0l0,0c0.2,0.1,0.2,0.2,0.3,0.2c0,0.1,0,0.2,0,0.3c-0.1,0.2-0.1,0.3-0.5,0.2l0,0c0,0-0.1,0-0.1-0.1
			c-0.5-0.2-1.3-0.5-2.8-1.2c-0.9-0.4-2-0.9-3.2-1.5c-16.8-7.4-28.9-12.9-37.7-17c-10.1-4.4-18.9-8.1-21.3-8.7
			C10.4,56.3,29.6,64.7,44,71c20,8.7,25.8,11.3,26.1,12.1c0,0.1,0,0.2,0,0.3c-0.2,0.4-0.3,0.7-5.6-1.4c1.6,0.9,2.5,1.6,2.6,2
			c0.1,0.2,0,0.4,0,0.4c-0.2,0.4-0.4,0.8-9.9-3.1c4.3,2,6.5,3.2,6.8,3.8c0,0.1,0,0.3,0,0.4c-0.2,0.5-0.4,0.9-10.2-3.3
			c-5.6-2.4-13-5.7-20.1-8.9c-9.2-4.1-19.5-8.8-22.5-9.8c4,2.9,27.8,13.1,39.7,18.3c9.7,4.2,9.7,4.2,9.8,4.4c0,0.1,0,0.2,0,0.3
			c-0.2,0.4-0.2,0.4-6-2.1c-3.3-1.4-7.9-3.3-12.8-5.4C31.7,74.6,18.5,68.9,13.6,67c5,2.8,20.8,9.7,30.8,14
			c12.4,5.4,12.8,5.6,12.9,5.9c0,0.1,0,0.2,0,0.3c-0.3,0.6-2.2,0.2-12-4c5.9,2.8,8.4,4.1,8.5,4.5c0,0.1,0,0.2,0,0.3
			c-0.3,0.6-1.2,0.5-20.4-7.8c-6.7-2.9-14.2-6.2-17.1-7.2c2.5,1.5,10.3,5.3,31.3,14.2c2.7,1.1,2.7,1.1,2.7,1.3c0,0.1,0,0.2,0,0.3
			c-0.2,0.4-0.2,0.4-4.7-1.4c-2.5-1-5.9-2.4-9.6-3.9c-3.5-1.4-7.3-3-10.6-4.3c0.6,0.3,1.3,0.6,2,0.9c19,8.7,19,8.8,19.1,9.1
			c0,0.1,0,0.2,0,0.3c-0.1,0.3-0.1,0.3-1.4-0.2c-14.1-5.8-20.6-8.2-23.6-9.2c0,0,0,0,0,0c2.2,1,5.8,2.6,9,4.1
			c10.7,4.8,11.9,5.4,12.1,5.7c0,0.1,0,0.2,0,0.3c-0.2,0.5-0.3,0.6-12.5-4c-1.4-0.5-2.8-1-4.1-1.5c3.6,1.7,8.5,3.9,12.4,5.6
			c0.1,0,0.2,0.1,0.2,0.2c0,0.1,0,0.2,0,0.3c-0.2,0.4-0.2,0.5-9.7-2.5c5.5,2.5,5.5,2.6,5.6,2.8c0,0.1,0,0.2,0,0.3
			c-0.2,0.4-0.2,0.4-4.5-0.5c-0.5-0.1-1-0.2-1.5-0.3c1.5,0.7,1.6,0.8,1.6,0.9c0,0.1,0,0.2,0,0.3C30,92,29.8,92,29.6,92z M25.2,67.3
			c-2.4-1-4.6-2-6.5-2.9c-1.1-0.5-2.2-1-3.2-1.4C18.2,64.3,21.6,65.8,25.2,67.3z M64.8,75.3c-8.7-4.1-21.5-9.6-32-14
			c-0.1-0.1-0.2-0.1-0.4-0.2c5.5,2.5,11.7,5.4,18.4,8.6c10.8,5.1,21,9.9,23.8,10.8C73.4,79.5,69.8,77.6,64.8,75.3z M6.1,48.6
			c3.9,2,15.6,7.1,27,12c0,0,0,0,0,0C21.6,55.2,10.2,50.1,6.1,48.6z M10.4,47.3c-1.9-0.8-3.5-1.4-4.7-1.7c2.5,1.1,7.5,3.3,13.6,6.1
			C16,50.1,12.9,48.6,10.4,47.3z M53.7,67.3c-0.7-0.3-1.5-0.7-2.3-1c3.4,1.6,6.3,2.9,8.9,4.1C58.4,69.5,56.1,68.4,53.7,67.3z
			 M2.2,30.2c0.3,0.4,1.6,1.4,5.6,3.5c3.6,1.4,9.3,3.9,18.4,7.9c6.1,2.7,12.7,5.7,19.4,8.8c-3.9-1.9-8-3.8-12.2-5.8
			C18.7,37.5,4.7,30.8,2.2,30.2z M2.8,27.8C6.2,30,24.4,37.9,42,45.5c5.3,2.3,10.2,4.4,14.8,6.4C31.1,40.6,17.5,34.2,10.3,30.5
			C6.6,29,4,28,2.8,27.8z M59.5,52.4C48.4,47.3,36.3,41.8,26,37.2C34.2,41,45,46,59.5,52.4z M4.1,23.4C7.3,25,16.7,29,27.6,33.6
			c-0.1,0-0.1,0-0.2-0.1C16.6,28.5,7.4,24.4,4.1,23.4z M68.5,52.1c4.9,2.3,9.5,4.4,13.5,6.2c-2.5-1.2-5.5-2.6-9.1-4.2
			C71.5,53.5,70,52.8,68.5,52.1z M33.4,34.1c18,8.4,42.9,20,56,25.4c-4.4-2.3-11.3-5.7-22.1-10.6C56.5,44,44.2,38.7,33.4,34.1z
			 M91.6,59.8c1,0.5,1.8,1,2.6,1.5c0.9,0.3,1.6,0.6,2.3,0.8C95.3,61.6,93.6,60.8,91.6,59.8z M5.8,17.2c3.7,2.3,21,9.7,37.8,16.9
			c7.5,3.2,14.5,6.2,20.9,8.9C47,35.3,31.4,28.3,20.6,23.2C13.3,20,8,17.9,5.8,17.2z M84.9,52.9c-1.3-0.6-2.6-1.2-4.1-1.9
			c-10.6-4.8-24.3-10.6-37.5-16.3c-0.2-0.1-0.5-0.2-0.7-0.3c3,1.3,6.1,2.7,9.4,4.2C72.4,47.9,93,57.4,98.1,59.8
			C96.8,58.8,93.4,56.8,84.9,52.9z M81.1,50.3C81,50.3,81,50.3,81.1,50.3c0,0,0.1,0.1,0.2,0.1C81.2,50.4,81.1,50.3,81.1,50.3z
			 M66,34.2c6.4,3,12.6,5.9,18.1,8.4C78.8,40.1,72.7,37.3,66,34.2z M53.8,26.5C65.5,32,78.3,38,87.6,42
			C78.9,37.8,66.8,32.3,53.8,26.5z M91.5,41.7c-9-4.2-22.9-10-34.9-15.1c-5.5-2.3-10.6-4.5-15.2-6.4c19.8,8.7,44.1,19.6,54.8,25.4
			c2.4,0.9,4.1,1.4,4.7,1.3C100.4,46.1,96.8,44.2,91.5,41.7z"/>
	</g>
</g>
</svg>
