<?xml version="1.0" encoding="utf-8"?>
<!-- Generator: Adobe Illustrator 20.1.0, SVG Export Plug-In . SVG Version: 6.00 Build 0)  -->
<svg version="1.1" id="Layer_1" xmlns="http://www.w3.org/2000/svg" xmlns:xlink="http://www.w3.org/1999/xlink" x="0px" y="0px"
	 viewBox="0 0 122 122" style="enable-background:new 0 0 122 122;" xml:space="preserve">
<style type="text/css">
	.st0{fill:#E99E99;}
	.st1{fill:#FFFFFF;}
</style>
<circle class="st0" cx="61" cy="60.8" r="60"/>
<path class="st1" d="M109.1,46c-4.3-5-10.5-8.5-17.6-9.8c-14.6-2.7-28.4,4.9-30.6,17c-1,5.7,0.6,11.6,4.7,16.6L58,80
	c-0.2,0.3-0.2,0.7,0,1c0.2,0.2,0.5,0.4,0.7,0.4c0.1,0,0.2,0,0.2,0L74.8,77c2.7,1.4,5.6,2.3,8.7,2.9c14.7,2.7,28.4-4.9,30.6-17
	C115.2,57,113.4,51,109.1,46z M112.3,62.6c-2,11.1-14.8,18-28.5,15.5c-3-0.5-5.9-1.5-8.5-2.9c-0.2-0.1-0.4-0.1-0.7-0.1L61,79
	l6.5-8.7c0.3-0.3,0.2-0.8,0-1.1c-4.1-4.7-5.8-10.2-4.8-15.6c1.7-9.5,11.5-16,22.9-16c1.8,0,3.7,0.2,5.6,0.5
	c6.7,1.2,12.5,4.5,16.5,9.2C111.7,51.8,113.3,57.2,112.3,62.6z M93.8,47.2c-2.4-0.3-5.4,0.8-7.1,4.3c-1.7-3.5-4.7-4.5-7.1-4.3
	c-3.1,0.4-6.3,3.2-6.3,7.7c0,7.1,12.3,16.2,12.9,16.5c0.2,0.1,0.3,0.2,0.5,0.2s0.4-0.1,0.5-0.2c0.5-0.4,12.9-9.4,12.9-16.5
	C100.2,50.3,97,47.6,93.8,47.2z M86.8,69.6c-3.7-2.8-11.6-9.8-11.6-14.7c0-3.5,2.4-5.7,4.7-6c0.2,0,0.4,0,0.5,0
	c2.1,0,4.5,1.4,5.4,5.4c0.1,0.4,0.5,0.7,0.9,0.7c0.4,0,0.8-0.3,0.9-0.7c1.1-4.4,3.8-5.7,6-5.4c2.3,0.3,4.7,2.4,4.7,6
	C98.4,59.8,90.4,66.8,86.8,69.6z M48.1,70.4l0.1-33.7c0-0.8-0.3-1.6-0.9-2.2c-0.6-0.6-1.4-1.1-2.2-1.1L15.8,33h0c-1.1,0-2,0.5-2.6,1
	c-0.6,0.6-1,1.5-1,2.4l-0.1,47.7c0,1,0.3,1.8,1,2.4c0.6,0.6,1.5,0.6,2.6,0.6L44.9,87h0c1.7,0,3.2-1.2,3.2-2.9l0-2.2l7.2,0.1h0
	c0.3,0,0.7-0.1,0.8-0.4c0.2-0.3,0.1-0.6-0.1-0.9L48.1,70.4z M47.2,80.3c-0.2,0-0.5,0.1-0.6,0.3c-0.2,0.2-0.3,0.4-0.3,0.6l0,3.3
	c0,0.8-0.6,1.5-1.4,1.5h0l-29.2-0.2c-0.6,0-1.1-0.2-1.4-0.5c-0.2-0.2-0.4-0.6-0.4-1L14,36.6c0-0.4,0.1-0.9,0.4-1.1
	c0.3-0.3,0.8-0.5,1.4-0.5h0l29.2,0.2c0.4,0,0.7,0.2,1,0.5c0.3,0.3,0.4,0.6,0.4,1l-0.1,34.1c0,0.2,0.1,0.4,0.2,0.6l7,9.1L47.2,80.3z
	 M38.9,57.6c-0.9,0-1.7,0.7-1.7,1.7c0,0.9,0.7,1.7,1.7,1.7c0.9,0,1.7-0.7,1.7-1.7S39.8,57.6,38.9,57.6z M21.8,57.6
	c-0.9,0-1.7,0.7-1.7,1.7s0.7,1.7,1.7,1.7c0.9,0,1.7-0.7,1.7-1.7C23.4,58.4,22.7,57.6,21.8,57.6z M30.4,57.5c-0.9,0-1.7,0.7-1.7,1.7
	c0,0.9,0.7,1.7,1.7,1.7c0.9,0,1.7-0.7,1.7-1.7C32.1,58.2,31.3,57.5,30.4,57.5z"/>
</svg>
