<?xml version="1.0" encoding="utf-8"?>
<!-- Generator: Adobe Illustrator 20.1.0, SVG Export Plug-In . SVG Version: 6.00 Build 0)  -->
<svg version="1.1" id="Layer_1" xmlns="http://www.w3.org/2000/svg" xmlns:xlink="http://www.w3.org/1999/xlink" x="0px" y="0px"
	 viewBox="0 0 122 122" style="enable-background:new 0 0 122 122;" xml:space="preserve">
<style type="text/css">
	.st0{fill:#E99E99;}
	.st1{fill:#FFFFFF;}
</style>
<circle class="st0" cx="61" cy="60.8" r="60"/>
<path class="st1" d="M88,41.5h9v9c0,0.6,0.4,1,1,1s1-0.4,1-1v-11H88c-0.6,0-1,0.4-1,1S87.4,41.5,88,41.5z M51.9,91.3L51.9,91.3
	l-15,0.1c-0.6,0-1,0.5-1,1c0,0.6,0.5,1,1,1h0l15-0.1c0.6,0,1-0.5,1-1C52.9,91.8,52.5,91.3,51.9,91.3z M32.9,91.6L32.9,91.6l-15,0.1
	c-0.6,0-1,0.5-1,1c0,0.6,0.5,1,1,1h0l15-0.1c0.6,0,1-0.5,1-1C33.9,92,33.5,91.6,32.9,91.6z M19.8,89l6.4-0.1c0.6,0,1-0.5,1-1
	c0-0.5-0.5-1-1-1h0L19.8,87c-0.6,0-1,0.5-1,1C18.8,88.5,19.3,89,19.8,89L19.8,89z M108.5,65.5L80,36.5c-0.2-0.2-0.4-0.3-0.7-0.3h0
	c-0.3,0-0.5,0.1-0.7,0.3l-9.3,9.4C69.1,46,69,46.1,69,46.2l-7.7,7.6c-1.3-1.5-3.1-2.7-5.1-3.2c-1-4.1-4.6-7.1-8.8-7.5
	c-0.5-5.1-4.8-9.1-10-9.1c-3.9,0-7.3,2.2-9,5.6c-0.7-0.1-1.3-0.2-1.9-0.2c-1.6,0-3.1,0.4-4.5,1.1c-1.4-0.7-3-1.1-4.5-1.1
	c-5.5,0-10,4.5-10,10c0,3.2,1.6,6.2,4.1,8.1c-1.5,1.8-2.3,4-2.3,6.4c0,5.3,4.1,9.6,9.3,10c0.3,2.6,1.6,4.8,3.7,6.2
	c1.5,1,3.2,1.5,4.9,1.5c0.8,0,1.6-0.1,2.4-0.3c-0.1,2.3-0.1,4.6,0,7.1c0,0.5,0.5,1,1,1h11.1c0.3,0,0.6-0.1,0.8-0.4
	c0.2-0.2,0.3-0.5,0.2-0.8c-0.6-2.9-1-6.3-1.4-9c2,1.1,4.8,2.1,7,2.1c3.8,0,7-1.9,8.7-4.9v17.2h16v-18h12v18h16v-25c0-0.6-0.4-1-1-1
	s-1,0.4-1,1v23H87v-18H71v18H59V68.8c2.9-1.8,4.7-5,4.7-8.5c0-1.8-0.5-3.4-1.3-4.9l10.3-10.1c0.1-0.1,0.2-0.2,0.2-0.4l6.3-6.3
	L107,67c0.2,0.2,0.5,0.3,0.7,0.3c0.3,0,0.5-0.1,0.7-0.3C108.8,66.6,108.9,65.9,108.5,65.5z M39,77.4l0.2,1.7
	c0.3,2.5,0.8,5.5,1.3,8.2h-8.9c-0.1-4.8,0.1-9.4,0.7-13.3c0-0.3,0-0.6-0.3-0.8c-0.2-0.3-0.5-0.5-0.7-0.8c-0.9-1-1.9-2.1-3-2.9
	c-1.5-1.1-3.2-2.1-4.8-3c1.8-0.2,3.5-0.3,5.2,0.1c1.2,0.3,2.3,0.8,3.2,1.5c0.3,0.2,0.6,0.2,0.9,0.1c0.3-0.1,0.5-0.4,0.6-0.7
	c1.2-4.7,3-9.2,5.2-13.3c-0.6,5-0.8,10.3-0.4,15.8c0,0.3,0.2,0.6,0.4,0.7c0.2,0.2,0.5,0.2,0.8,0.2c2.6-0.5,5.2-0.6,7.8-0.1
	c-3.3,1.5-6.1,3.8-8,5.6C39.1,76.8,39,77.1,39,77.4z M56.6,67.8l-0.8,0.3L56,69c0.2,0.8,0.3,1.5,0.3,2.2c0,4.6-3.5,8-8,8
	c-2,0-4.9-1.1-6.6-2.1c2.3-2.1,5.6-4.4,9.3-5.3c0.4-0.1,0.7-0.5,0.8-0.9c0-0.4-0.3-0.8-0.7-1c-3.5-1.2-7.2-1.5-10.8-0.9
	c-0.4-6.9,0.1-13.4,1.3-19.4c0.1-0.5-0.2-0.9-0.6-1.1c-0.4-0.2-1,0-1.2,0.4c-3.4,5.1-6,10.9-7.8,17c-0.9-0.5-1.8-0.8-2.7-1.1
	c-2.9-0.7-5.7-0.2-8.5,0.2L20.3,65c-0.4,0.1-0.8,0.4-0.8,0.8c-0.1,0.4,0.1,0.8,0.5,1c2.4,1.3,5,2.6,7.2,4.2c0.9,0.7,1.8,1.7,2.7,2.6
	c0.1,0.2,0.3,0.3,0.4,0.5c-0.2,1.5-0.4,3.2-0.5,4.9c-2.1,0.8-4.5,0.6-6.4-0.7c-1.9-1.2-2.9-3.2-2.9-5.5v-1l-1,0c-0.1,0-0.1,0-0.2,0
	c-4.4,0-8-3.6-8-8c0-2.2,0.9-4.3,2.6-5.9l1-0.9l-1.2-0.7c-2.6-1.4-4.2-4.1-4.2-7c0-4.4,3.6-8,8-8c1.4,0,2.7,0.4,4,1.1l0.5,0.3
	l0.5-0.3c1.3-0.7,2.6-1.1,4-1.1c0.7,0,1.3,0.1,2.2,0.3l0.9,0.2l0.3-0.8c1.2-3.1,4.1-5.2,7.5-5.2c4.4,0,8,3.6,8,8v1h1
	c3.9,0,7.2,2.8,7.9,6.6l0.1,0.7l0.7,0.1c3.8,0.7,6.6,4,6.6,7.9C61.7,63.7,59.7,66.6,56.6,67.8z M90.1,36.6c0.2,0.2,0.3,0.3,0.5,0.5
	c0.1,0.1,0.2,0.2,0.4,0.2c0.1,0,0.1,0,0.2,0c0.1,0,0.2,0,0.3-0.1c0.2-0.1,0.4-0.2,0.7-0.2c0.6-0.2,1.1-0.4,1.7-0.7
	c1-0.5,1.7-1.2,2.1-2.1c0.3-0.7,0.4-1.5,0.2-2.1c-0.4-1.5-1.9-2.1-3-1.8c-0.2,0-0.4,0.1-0.7,0.2c-0.2-0.2-0.4-0.4-0.5-0.5
	c-1-0.7-2.6-0.7-3.5,0.5c-0.4,0.5-0.6,1.2-0.6,2c0,0.9,0.4,1.9,1.1,2.7C89.2,35.8,89.7,36.2,90.1,36.6z M89.5,31.5
	c0.2-0.3,0.5-0.4,0.8-0.4c0.2,0,0.5,0.1,0.7,0.2c0.3,0.2,0.4,0.4,0.4,0.4c0,0.3,0.3,0.6,0.6,0.7c0.3,0.1,0.7-0.1,0.8-0.4
	c0-0.1,0.2-0.2,0.5-0.2c0.5-0.1,1.1,0.1,1.3,0.7c0.1,0.4,0,0.8-0.1,1.1c-0.2,0.6-0.7,1-1.4,1.4c-0.5,0.3-1,0.4-1.5,0.6
	c-0.1,0-0.2,0.1-0.3,0.1c-0.1-0.1-0.1-0.1-0.2-0.2c-0.4-0.4-0.8-0.8-1.2-1.2c-0.5-0.6-0.7-1.2-0.8-1.8
	C89.2,32.3,89.3,31.8,89.5,31.5z M99.9,33.5c0.2,0.2,0.3,0.3,0.5,0.5c0.1,0.1,0.2,0.2,0.4,0.2c0.1,0,0.1,0,0.2,0
	c0.1,0,0.2,0,0.3-0.1c0.2-0.1,0.4-0.2,0.7-0.2c0.6-0.2,1.1-0.4,1.7-0.7c1-0.5,1.7-1.2,2.1-2.1c0.3-0.7,0.4-1.5,0.2-2.1
	c-0.4-1.5-1.9-2.1-3-1.8c-0.2,0-0.4,0.1-0.7,0.2c-0.2-0.2-0.4-0.4-0.5-0.5c-1-0.7-2.6-0.7-3.5,0.5c-0.4,0.5-0.6,1.2-0.6,2
	c0,0.9,0.4,1.9,1.1,2.7C99,32.7,99.5,33.1,99.9,33.5z M99.3,28.3c0.2-0.3,0.5-0.4,0.8-0.4c0.2,0,0.5,0.1,0.7,0.2
	c0.3,0.2,0.4,0.4,0.4,0.4c0,0.3,0.3,0.6,0.6,0.7c0.3,0.1,0.7-0.1,0.8-0.4c0-0.1,0.2-0.2,0.5-0.2c0.5-0.1,1.1,0.1,1.3,0.7
	c0.1,0.4,0,0.8-0.1,1.1c-0.2,0.6-0.7,1-1.4,1.4c-0.5,0.3-1,0.4-1.5,0.6c-0.1,0-0.2,0.1-0.3,0.1l-0.2-0.2c-0.4-0.4-0.8-0.8-1.2-1.2
	C99.3,30.6,99,30,99,29.4C99,29.1,99.1,28.6,99.3,28.3z"/>
</svg>
