<?xml version="1.0" encoding="utf-8"?>
<!-- Generator: Adobe Illustrator 20.1.0, SVG Export Plug-In . SVG Version: 6.00 Build 0)  -->
<svg version="1.1" id="Layer_1" xmlns="http://www.w3.org/2000/svg" xmlns:xlink="http://www.w3.org/1999/xlink" x="0px" y="0px"
	 viewBox="0 0 174 34" style="enable-background:new 0 0 174 34;" xml:space="preserve">
<style type="text/css">
	.st0{fill:#FE8281;}
	.st1{fill:#592934;}
	.st2{font-family:'Liana';}
	.st3{font-size:21.991px;}
	.st4{font-size:19.1922px;}
	.st5{fill:#FFFFFF;}
	.st6{font-size:17.5928px;}
</style>
<g>
	<g>
		<g>
			<g>
				<g>
					<g>
						<path class="st0" d="M109.2,30c-0.6-2.4-2.5-4.1-4-6.1c-1.5-2.1-3.5-4.4-4.3-6.9c-1.5-4.6,2.7-11.9,9.7-9.8
							c2.2,0.6,4.1,2.6,4.1,5c3.9-2.3,11.9-2.2,12.4,4.4c0.7,9.1-6.2,9-10.9,10.4c-2.9,0.9-4.2,1.4-7,3.3L109.2,30z"/>
					</g>
				</g>
			</g>
		</g>
	</g>
	<text transform="matrix(1 0 0 1 -0.9289 23.915)"><tspan x="0" y="0" class="st1 st2 st3">W</tspan><tspan x="33" y="0" class="st1 st2 st4">eddings on </tspan><tspan x="107.9" y="0" class="st5 st2 st6">the</tspan><tspan x="123.7" y="0" class="st1 st2 st3">M</tspan><tspan x="154.5" y="0" class="st1 st2 st4">ove</tspan></text>
	<g>
		<g>
			<g>
				<g>
					<g>
						<path class="st0" d="M56.4,21.1c-0.1-0.4-0.4-0.8-0.6-1.2c-0.3-0.4-0.6-0.6-0.8-1c-0.3-0.8,0.5-2,1.6-1.7
							c0.4,0.1,0.7,0.5,0.7,0.9c0.7-0.4,2-0.4,2.1,0.8c0.1,1.6-1,1.5-1.8,1.8C57.1,20.7,56.9,20.8,56.4,21.1L56.4,21.1z"/>
					</g>
				</g>
			</g>
		</g>
	</g>
</g>
</svg>
