<?xml version="1.0" encoding="utf-8"?>
<svg version="1.1" xmlns="http://www.w3.org/2000/svg" xmlns:xlink="http://www.w3.org/1999/xlink" x="0px" y="0px" viewBox="0 0 24 24" style="enable-background:new 0 0 24 24;" xml:space="preserve">
<style type="text/css">.st0{fill:#333333;}</style>
<path class="st0" d="M23.2,7.8l-7-7c-0.8-0.8-2.2-0.8-3,0L0.8,13.1c-0.8,0.8-0.8,2.2,0,3l7,7c0.8,0.8,2.2,0.8,3,0l12.3-12.3C24,10,24,8.7,23.2,7.8z M9.1,22.3c-0.1,0-0.2-0.1-0.3-0.2l-7-7c0,0,0,0,0,0h7.3V22.3zM2.3,13.7L13.7,2.3l0,11.1
	c0,0.2-0.1,0.3-0.3,0.3L2.3,13.7zM10.5,21.4v-6.3h2.8c0.5,0,0.9-0.2,1.2-0.5c0.3-0.3,0.5-0.8,0.5-1.2v-2.8l6.3,0L10.5,21.4zM15.1,9.1V1.8c0,0,0,0,0,0l7,7c0.1,0.1,0.1,0.2,0.2,0.3L15.1,9.1zM0.9,3.2h7.3c0.4,0,0.7-0.3,0.7-0.7c0-0.4-0.3-0.7-0.7-0.7H0.9c-0.4,0-0.7,0.3-0.7,0.7C0.2,2.9,0.5,3.2,0.9,3.2zM0.9,6h4.6c0.4,0,0.7-0.3,0.7-0.7c0-0.4-0.3-0.7-0.7-0.7H0.9c-0.4,0-0.7,0.3-0.7,0.7C0.2,5.7,0.5,6,0.9,6zM0.9,8.6h3c0.4,0,0.7-0.3,0.7-0.7c0-0.4-0.3-0.7-0.7-0.7h-3c-0.4,0-0.7,0.3-0.7,0.7C0.2,8.3,0.5,8.6,0.9,8.6zM3.9,21.5h-3c-0.4,0-0.7,0.3-0.7,0.7c0,0.4,0.3,0.7,0.7,0.7h3c0.4,0,0.7-0.3,0.7-0.7C4.6,21.8,4.2,21.5,3.9,21.5z"/>
</svg>
