<?xml version="1.0" encoding="utf-8"?>
<!-- Generator: Adobe Illustrator 20.1.0, SVG Export Plug-In . SVG Version: 6.00 Build 0)  -->
<svg version="1.1" id="Layer_1" xmlns="http://www.w3.org/2000/svg" xmlns:xlink="http://www.w3.org/1999/xlink" x="0px" y="0px"
	 viewBox="0 0 43 56" style="enable-background:new 0 0 43 56;" xml:space="preserve">
<style type="text/css">
	.st0{fill:#F59897;}
</style>
<g>
	<path class="st0" d="M42.9,18c0.1-3.7-4.6-3.5-6.8-2.6c-0.9,0.3-1.9,0.8-2.9,1.3c4.9-5.2,10-12,2.5-14.8c-3.5-1.3-5.3,2.4-6.3,6.7
		c-0.7-3.4-2.2-6.4-4.7-7.9c-2.7-1.7-4.1,2.1-4.2,4c-0.2,2.1,0.1,4.3,0.6,6.4c-2.6-3.1-5.7-4.8-8.7-1.8c-1.6,1.6-1.7,3.3-0.9,5
		c-0.7,0.1-1.4,0.5-2,0.7c-0.9,0.3-1.8,0.7-2.6,1.2c-0.4-0.1-0.9,0.1-1,0.6c-1.8,8.3-6,16.7-5.3,25.3c0,0.3,0.3,0.4,0.5,0.4
		c0.6,0.9,1.2,1.8,2.2,2.4c0.8,0.5,2,1.6,3.1,1.7c0,0,0,0.1,0,0.1c-0.1,0.4,0.1,0.8,0.4,1c1.5,0.9,2.7,1.6,4.4,2.1
		c0.2,0.1,0.4,0,0.5-0.2c0,0.2,0.1,0.5,0.2,0.6c0.8,0.9,1.8,1.6,2.6,2.4c0.8,0.7,1.8,1.8,2.9,2.1c0.1,0.1,0.3,0.1,0.6,0.1
		c1.8-0.7,3.7-1.3,5.6-1.9c1.7-0.5,3.5-0.9,5-1.9c0,0.2,0,0.5-0.1,0.7c0,0.4,0.1,0.6,0.4,0.8c0,0.5,0.7,0.6,1,0.2
		c1.4-1.8,3.6-2.2,4.6-4.2c2.1-1.1,4.2-2.1,6.1-3.5c0.7-0.5,0.4-1.5-0.2-1.8c0.6-7,0.3-14,0.1-21c0-0.2-0.1-0.4-0.1-0.5
		C41.7,20.9,42.8,19.7,42.9,18z M34.8,3.3c1.9,0.5,2.4,2.8,1.9,4.4c-0.6,1.9-2,3.6-3.2,5.2c-1.1,1.5-2.4,2.8-3.6,4.2
		C30.2,13,31.1,2.4,34.8,3.3z M22.2,4.2c0.5-2.9,2.8-1.1,3.7,0.6c2.1,3.8,2.3,11.9,0.3,16.3c0,0,0-0.1,0-0.1c0.1-0.1,0.1-0.2,0-0.4
		c-0.2-0.4-0.4-0.9-0.6-1.3c-0.3-0.7-0.6-1.5-1-2.3c-1.2-3-2.3-6.1-2.5-9.3C22,6.6,22,5.4,22.2,4.2z M27.8,27
		c0.3,0.4,0.6,0.7,0.9,1.1c-1.8,0.6-3.4,1.1-5.3,0.2c-1.8-0.9-3.4-2.2-5.2-3.1c-0.2-0.1-0.4-0.1-0.6,0c0-0.1,0-0.2,0-0.3
		c0.9-0.1,1.8-0.2,2.6-0.4c1.4-0.3,3-0.5,4.3-1c0,0,0,0.1,0.1,0.1C25.8,24.7,26.8,25.9,27.8,27z M13,11c3-6.2,10.6,6.9,12.1,10.8
		c-0.1,0-0.1,0-0.2-0.1c-0.1,0-0.2,0-0.2,0C20.1,19.5,10.8,15.4,13,11z M10.1,16.6c0.7-0.2,1.6-0.4,2.2-0.9c1.4,1.7,3.7,3.3,6,4.6
		c-1.7,0.5-3.4,1-5.1,1.5c0-0.1-0.1-0.2-0.2-0.3c-1.6-1.6-3.6-2.9-5.5-4.3c0,0,0,0,0,0C8.4,17.1,9.3,16.9,10.1,16.6z M4.5,43.8
		c-1.1-0.7-2.2-1.5-3.1-2.4C3.1,33.9,5.8,26.5,7.2,19c1.3,1.4,2.8,2.6,4.3,3.7c-0.2,0.2-0.3,0.3-0.3,0.6C10.7,30.6,9,38,6.7,45
		C6,44.5,5.1,44.2,4.5,43.8z M9.1,43.4c1.1-3.2,1.8-6.5,2.4-9.8c0.5-2.7,0.8-5.4,1.1-8.1c0.3-2.4,5.1-2.7,6.9-3.4
		c0.4-0.1,0.5-0.4,0.6-0.7c0.5,0.2,0.9,0.4,1.4,0.6c-1.9,0.5-3.7,1.5-5.2,2.2c-0.2,0.1-0.2,0.2-0.2,0.4C12,31.7,13.4,40.8,11,48.5
		c0,0.1,0,0.1,0,0.2C8.5,47,8.1,46.6,9.1,43.4z M15.8,51.2c-1-0.8-1.9-1.7-3-2.4c-0.6-0.4-1.1,0-1.3,0.5c0-0.1-0.1-0.2-0.1-0.3
		c0.1,0,0.3,0,0.4-0.2c4.7-6.8,1.6-16,5.7-23.2c0,0.2,0.1,0.3,0.2,0.4c1.6,1.1,3.1,2.4,4.6,3.3c-2.6,7.6-3.9,15.7-4.4,23.7
		C17.4,52.4,16.4,51.7,15.8,51.2z M28.5,49.7c-0.1,0-0.2,0-0.3,0c-1.8,0.2-3.6,1-5.3,1.7c-1.2,0.4-2.3,0.8-3.4,1.3
		c1-7.6,1.8-15.2,4-22.6c1.9,0.8,4,1,6.5-0.5c0.3,0.3,0.5,0.7,0.8,1C29.8,36.9,29.1,43.3,28.5,49.7z M34.3,32.6
		c-0.3,2.2-0.9,4.2-1.1,6.4c-0.3,3.8,0.7,7.5-2.6,10.4c1-6.1,1.5-12.2,1.2-18.4c0.5-0.1,0.9-0.7,0.6-1.3c-1.3-2.5-3.7-4.4-5.9-6.1
		c0,0,0.1,0,0.1,0c0.9-0.1,2.1-0.1,3.6-0.1C32.8,26.3,35,28.2,34.3,32.6z M32.9,23.3c1.8-0.1,3.6-0.4,5.2-0.8
		c-0.6,0.3-1.1,0.8-1.6,1.3c-0.6,0.5-1.1,0.9-1.7,1.4C34.2,24.5,33.5,23.8,32.9,23.3z M35,46.3c0.5-2.4,0.4-4.9,0.4-7.3
		c0-3.7,1.5-7.1,1-10.9c-0.1-0.7-0.4-1.3-0.8-1.9c0.6-0.4,1.2-0.8,1.8-1.2c0.2-0.1,0.5-0.3,0.7-0.4c-0.1,6.4,0.2,12.8,0.8,19.2
		C37.6,44.5,36.3,45.4,35,46.3z M39.9,18.6c-1.7,1.6-5.3,2-7.5,2.4c-0.8,0.2-1.6,0.3-2.4,0.5c1.3-1,2.6-1.9,4-2.8
		c1.3-0.8,2.6-1.4,4.1-1.7C39.2,16.8,41.1,17.5,39.9,18.6z"/>
</g>
</svg>
