<?xml version="1.0" encoding="utf-8"?>
<svg version="1.1" id="Layer_1" xmlns="http://www.w3.org/2000/svg" xmlns:xlink="http://www.w3.org/1999/xlink" x="0px" y="0px" viewBox="0 0 28 26" style="enable-background:new 0 0 28 26;" xml:space="preserve">
<style type="text/css">
	.st0{fill:#c55f55;}
</style>
<path class="st0" d="M26.7,18.8c-1.8-1.3-3.4-2.9-4.6-4.8c-0.7-1-1.4-1.8-2.2-2.3v-0.3L24,8.7c0.7-0.5,1.2-1.2,1.4-2.1
	c0.2-0.9,0-1.7-0.5-2.5c-0.3-0.5-0.8-0.9-1.4-1c-0.6-0.1-1.2,0-1.7,0.3c-0.5,0.3-0.9,0.8-1,1.4c-0.1,0.6,0,1.2,0.3,1.7l0.3,0.5
	c0.2,0.2,0.5,0.3,0.7,0.2c0.2-0.2,0.3-0.5,0.2-0.7L22,6.1c-0.2-0.3-0.2-0.6-0.2-0.9c0.1-0.3,0.3-0.6,0.5-0.8
	c0.3-0.2,0.6-0.2,0.9-0.2c0.3,0.1,0.6,0.3,0.8,0.5c0.3,0.5,0.4,1.1,0.3,1.7c-0.1,0.6-0.5,1.1-1,1.4l-3.6,2.3c0-0.2-0.1-0.4-0.3-0.6
	c-0.2-0.2-0.4-0.2-0.7-0.1l-3.2,0.8h-2.8L9.6,9.4c-0.2-0.1-0.5,0-0.7,0.1c-0.2,0.2-0.3,0.4-0.3,0.6v0.2l-4.5,1
	c-1.2,0.3-2.4-0.5-2.6-1.7c-0.1-0.3,0-0.7,0.2-0.9c0.2-0.3,0.5-0.5,0.8-0.5c0.7-0.1,1.3,0.3,1.5,1L4,9.6c0.1,0.3,0.3,0.5,0.6,0.4
	C4.9,10,5.1,9.7,5,9.4L4.9,8.8c-0.3-1.2-1.5-2-2.7-1.8c-0.6,0.1-1.1,0.5-1.4,1C0.4,8.6,0.3,9.2,0.4,9.8c0.3,1.5,1.7,2.6,3.2,2.6
	c0.2,0,0.5,0,0.7-0.1l4.3-0.9v0.3C7.8,12.2,7.1,13,6.4,14c-1.3,1.9-2.8,3.5-4.6,4.8c-0.2-0.1-0.5,0-0.7,0.2
	c-0.1,0.3-0.1,0.6,0.2,0.7l3.1,1.8c-0.2,0.5-0.2,1-0.1,1.5c0.2,0.6,0.5,1.1,1.1,1.4c0.4,0.2,0.8,0.3,1.2,0.3c0.2,0,0.4,0,0.6-0.1
	c0.5-0.1,0.9-0.4,1.2-0.8l3.1,1.8c0.1,0,0.2,0.1,0.3,0.1c0.2,0,0.4-0.1,0.5-0.3c0.1-0.2,0.1-0.5-0.2-0.7c0.2-2.2,0.8-4.4,1.8-6.4
	c0.1-0.2,0.2-0.5,0.3-0.7c0.1,0.2,0.2,0.5,0.3,0.7c1,2,1.6,4.2,1.8,6.4c-0.2,0.2-0.3,0.5-0.2,0.7c0.1,0.2,0.3,0.3,0.5,0.3
	c0.1,0,0.2,0,0.3-0.1l3.1-1.8c0.3,0.4,0.7,0.7,1.2,0.8c0.2,0.1,0.4,0.1,0.6,0.1c0.4,0,0.8-0.1,1.2-0.3c1-0.6,1.4-1.8,1-2.9l3.1-1.8
	c0.3-0.1,0.3-0.5,0.2-0.7C27.2,18.7,26.9,18.7,26.7,18.8z M16.3,11.1l2.5-0.6v3.4l-2.5-0.6V11.1z M9.7,10.5l2.5,0.6v2.1l-2.5,0.6
	V10.5z M6.9,23.6c-0.3,0.1-0.7,0-1-0.1c-0.3-0.2-0.5-0.4-0.6-0.8c-0.1-0.2-0.1-0.5,0-0.7l2.1,1.2C7.3,23.4,7.1,23.6,6.9,23.6z
	 M13,17.9C13,17.9,13,17.9,13,17.9c-1,2-1.6,4.1-1.9,6.3l-8.3-4.8C4.5,18,6,16.4,7.3,14.6c0,0,0,0,0,0C7.7,14,8.1,13.5,8.6,13v1.2
	c0,0.2,0.1,0.5,0.3,0.6c0.1,0.1,0.3,0.2,0.5,0.2c0.1,0,0.1,0,0.2,0l3.2-0.8h0.8C13.9,15.4,13.5,16.7,13,17.9z M13.3,13.2v-1.9h1.9
	v1.9H13.3z M22.5,23.5c-0.3,0.2-0.6,0.2-1,0.1c-0.2-0.1-0.4-0.2-0.6-0.3l1.1-0.6l1.1-0.6C23.3,22.6,23.1,23.2,22.5,23.5z M21.5,21.7
	l-4.1,2.4c-0.3-2.2-0.9-4.3-1.9-6.3c0,0,0,0,0,0c-0.6-1.1-0.9-2.5-0.7-3.6h0.8l3.2,0.8c0.1,0,0.1,0,0.2,0c0.2,0,0.3-0.1,0.5-0.2
	c0.2-0.2,0.3-0.4,0.3-0.6V13c0.5,0.4,1,1,1.4,1.6c0,0,0,0,0,0c1.2,1.8,2.7,3.4,4.5,4.8L21.5,21.7z"/>
<path class="st0" d="M13.6,9.2c0.1,0.1,0.3,0.1,0.5,0.1s0.3,0,0.5-0.1c0.5-0.3,4.9-2.9,4.9-5.7c0-1.7-1.4-3.1-3.1-3.1
	c-0.9,0-1.6,0.3-2.2,0.9c-0.6-0.6-1.3-0.9-2.2-0.9c-1.7,0-3.1,1.4-3.1,3.1C8.7,6.3,13.1,8.9,13.6,9.2z M12.3,1.5
	c0.7,0,1.3,0.5,1.8,0.9c0.5-0.4,1-0.9,1.7-0.9c1.4,0,2.5,1.1,2.5,2.3c0,2.1-3.5,4.1-3.9,4.3c-0.1,0.1-0.2,0.1-0.4,0.1
	c-0.1,0-0.3,0-0.4-0.1c-0.4-0.2-3.9-2.2-3.9-4.3C9.8,2.5,10.9,1.5,12.3,1.5z"/>
</svg>
