<?xml version="1.0" encoding="utf-8"?>
<!-- Generator: Adobe Illustrator 20.1.0, SVG Export Plug-In . SVG Version: 6.00 Build 0)  -->
<svg version="1.1" id="Layer_1" xmlns="http://www.w3.org/2000/svg" xmlns:xlink="http://www.w3.org/1999/xlink" x="0px" y="0px"
	 viewBox="0 0 122 122" style="enable-background:new 0 0 122 122;" xml:space="preserve">
<style type="text/css">
	.st0{fill:#E99E99;}
	.st1{fill:#FFFFFF;}
</style>
<circle class="st0" cx="61" cy="60.8" r="60"/>
<path class="st1" d="M81.7,76.9C92.3,66.1,92.5,48.6,82,37.7l1.2-1.2c0.4-0.4,0.4-1,0-1.4c-0.4-0.4-1-0.4-1.4,0l-4.2,4.2
	c-0.4,0.4-0.4,1,0,1.4c0.2,0.2,0.4,0.3,0.7,0.3c0.3,0,0.5-0.1,0.7-0.3l1.6-1.6c9.7,10.2,9.6,26.4-0.3,36.4
	c-4.4,4.4-10.1,7.1-16.2,7.5c0,0,0,0,0,0c0,0,0,0,0,0c-0.6,0-1.3,0.1-1.9,0.1c-6.5,0-12.7-2.5-17.5-6.9l1.5-1.5c0.4-0.4,0.4-1,0-1.4
	c-0.4-0.4-1-0.4-1.4,0l-4.2,4.2c-0.4,0.4-0.4,1,0,1.4c0.2,0.2,0.4,0.3,0.7,0.3c0.3,0,0.5-0.1,0.7-0.3l1.2-1.3
	C47.6,81.8,53,84.3,59,85v3.4c-4,0.5-8.7,2.2-12.4,5c-0.3,0.3-0.5,0.6-0.3,1c0.1,0.4,0.5,0.6,1,0.6h29.7c0.4,0,0.8-0.2,0.9-0.6
	c0.1-0.4,0-0.8-0.4-1.1c-3.7-2.8-7.5-4.5-12.5-5V85C71,84.3,77.1,81.5,81.7,76.9z M61,85.1c0,0,0.7,0,1,0c0.3,0,1,0,1,0v3.1
	c0,0-0.7,0-1,0c-0.3,0-1,0-1,0V85.1z M73.6,93h-23c3.5-2,7.4-3,11.5-3C66.2,90,70.1,91,73.6,93z M62.6,44.6c0-9.5-7.6-17.2-17-17.2
	s-17,7.7-17,17.2s7.6,17.2,17,17.2S62.6,54.1,62.6,44.6z M30.5,44.6c0-8.4,6.7-15.2,15-15.2c8.3,0,15,6.8,15,15.2
	c0,8.4-6.7,15.2-15,15.2C37.3,59.8,30.5,53,30.5,44.6z M55.9,46.5c0-0.4-0.3-0.5-0.6-0.5H35.8c-0.4,0-0.6,0.1-0.6,0.5
	c0,4.8,4.5,10.4,10.4,10.4C51.4,56.9,55.9,51.4,55.9,46.5z M36.5,47h18.1c-0.4,4-4.2,8.5-9,8.5C40.7,55.5,36.9,51,36.5,47z
	 M48.4,40.6c0.4,0,0.6-0.3,0.6-0.6c0-1.2,1-2.2,2.2-2.2s2.2,1,2.2,2.2c0,0.4,0.3,0.6,0.6,0.6s0.6-0.3,0.6-0.6c0-2-1.6-3.5-3.5-3.5
	S47.8,38,47.8,40C47.8,40.4,48,40.6,48.4,40.6z M37,40.6c0.4,0,0.6-0.3,0.6-0.6c0-1.2,1-2.2,2.2-2.2s2.2,1,2.2,2.2
	c0,0.4,0.3,0.6,0.6,0.6s0.6-0.3,0.6-0.6c0-2-1.6-3.5-3.5-3.5S36.3,38,36.3,40C36.3,40.4,36.6,40.6,37,40.6z M68.5,44.8
	c0.2,0.5,0.5,1,0.7,1.5c-1,0.4-2,0.7-3,0.9c0,0.7-0.1,1.4-0.1,2c1.3-0.2,2.6-0.6,3.8-1c0.5,1.7,0.9,3.6,1.1,5.7l-0.2,0.2
	c0.1,0.9,0.1,1.9,0.2,2.9H64v-0.8c-1,1.1-2,2.1-3,3v6.4c-2,0.1-4,0.5-5.9,1.3c-0.3-0.9-0.4-1.8-0.6-2.8c-0.6,0.3-1.2,0.5-1.8,0.7
	c0.2,1,0.5,2.1,0.8,3c-1.3,0.6-2.4,1.4-3.5,2.3c-1.3-1.3-2.4-2.9-3.3-4.6c-0.8,0-1.6-0.1-2.3-0.3c3,7.1,10,12.1,18.1,12.1
	c7.5,0,14-4.2,17.3-10.4l0.1,0.1c1.5-2.8,2.4-6,2.4-9.4c0-10.5-8.2-19-18.5-19.6c0.5,0.9,0.9,1.8,1.2,2.7
	C66.3,41.5,67.5,42.9,68.5,44.8z M51.5,71.4c0.8-0.7,1.7-1.2,2.7-1.7c0.2,0.5,0.5,1.1,0.7,1.6c0.6,1.2,1.3,2.2,2,3.1
	C55,73.7,53.2,72.7,51.5,71.4z M61,75.1c-1-0.4-3.2-2.1-4.5-4.8c-0.2-0.5-0.6-1-0.8-1.5c1.7-0.7,4.3-1.1,5.3-1.2V75.1z M63,62h1v-3
	h6.9c-0.1,3-0.8,5.7-1.5,8.1c-1.9-0.7-3.4-1.4-6.4-1.5V62z M63,75.1v-7.5c2,0.1,4,0.5,5.7,1.2c-0.2,0.5-0.6,1-0.8,1.5
	C66.5,73,65,74.6,63,75.1z M68,74.3c0.8-0.9,1.5-1.9,2-3.1c0.3-0.5,0.5-1,0.7-1.6c0.9,0.5,1.8,1.1,2.7,1.8
	C71.8,72.7,70,73.7,68,74.3z M74.9,70.3c-1.1-0.9-2.3-1.8-3.5-2.4c0.2-0.7,0.4-1.4,0.6-2.1l0.2,0.2c0.5-2.2,0.8-5,0.9-7h7
	C79.8,63,77.9,67.3,74.9,70.3z M79,50.5L79,50.5L79,50.5c0,1.9,1,4.5,1.1,6.5h-7c-0.1-3-0.6-6.7-1.5-9.4c1.3-0.6,2.5-1.5,3.6-2.4
	C76.8,46.7,78.1,48.4,79,50.5z M73.6,43.8c-0.8,0.7-1.7,1.2-2.7,1.7c-0.2-0.5-0.5-1.1-0.7-1.6c-0.6-1.2-1.3-2.2-2-3.1
	C70.2,41.5,72,42.5,73.6,43.8z"/>
</svg>
