<?xml version="1.0" encoding="utf-8"?>
<!-- Generator: Adobe Illustrator 20.1.0, SVG Export Plug-In . SVG Version: 6.00 Build 0)  -->
<svg version="1.1" id="Layer_1" xmlns="http://www.w3.org/2000/svg" xmlns:xlink="http://www.w3.org/1999/xlink" x="0px" y="0px"
	 viewBox="0 0 122 122" style="enable-background:new 0 0 122 122;" xml:space="preserve">
<style type="text/css">
	.st0{fill:#E99E99;}
	.st1{fill:#FFFFFF;}
</style>
<circle class="st0" cx="61" cy="60.8" r="60"/>
<path class="st1" d="M60.8,105.4c-1,0-2-0.1-3-0.2c-0.3,0-0.6,0.2-0.7,0.5c0,0.3,0.2,0.6,0.5,0.7c0.7,0.1,1.5,0.1,2.3,0.2
	c0.3,0,0.5,0,0.8,0c0.3,0,0.6-0.3,0.6-0.6C61.4,105.7,61.2,105.4,60.8,105.4z M66.7,105.2c-1,0.1-2,0.2-3,0.2
	c-0.3,0-0.6,0.3-0.6,0.7c0,0.3,0.3,0.6,0.6,0.6h0.1c1,0,2-0.2,3.1-0.3c0.3,0,0.6-0.4,0.5-0.7C67.4,105.4,67.1,105.1,66.7,105.2z
	 M54.9,104.8c-1-0.2-2-0.4-2.9-0.6c-0.3-0.1-0.6,0.1-0.7,0.4c-0.1,0.3,0.1,0.6,0.4,0.7c1,0.2,2,0.4,3,0.6c0,0,0,0,0.1,0
	c0.3,0,0.6-0.2,0.6-0.5C55.4,105.2,55.2,104.9,54.9,104.8z M72.6,104.1c-1,0.2-1.9,0.5-2.9,0.6c-0.3,0.1-0.5,0.4-0.5,0.7
	c0.1,0.3,0.3,0.5,0.6,0.5c0,0,0.1,0,0.1,0c1-0.2,2-0.4,3-0.7c0.3-0.1,0.5-0.4,0.4-0.7C73.3,104.2,72.9,104,72.6,104.1z M49.1,103.4
	c-0.9-0.3-1.9-0.6-2.8-1c-0.3-0.1-0.7,0-0.8,0.3c-0.1,0.3,0,0.7,0.3,0.8c0.9,0.4,1.9,0.7,2.9,1c0.1,0,0.1,0,0.2,0
	c0.3,0,0.5-0.2,0.6-0.4C49.6,103.9,49.4,103.5,49.1,103.4z M78.3,102.2c-0.9,0.4-1.9,0.7-2.8,1c-0.3,0.1-0.5,0.4-0.4,0.8
	c0.1,0.2,0.3,0.4,0.5,0.4c0.1,0,0.1,0,0.2,0c1-0.3,1.9-0.7,2.9-1.1c0.3-0.1,0.5-0.5,0.3-0.8C78.9,102.2,78.6,102.1,78.3,102.2z
	 M43.6,101.3c-0.9-0.4-1.8-0.9-2.6-1.4c-0.3-0.2-0.7-0.1-0.8,0.2c-0.2,0.3-0.1,0.7,0.2,0.8c0.9,0.5,1.8,1,2.7,1.4
	c0.1,0,0.2,0.1,0.2,0.1c0.2,0,0.5-0.1,0.6-0.3C44,101.8,43.8,101.4,43.6,101.3z M83.6,99.6c-0.9,0.5-1.7,1-2.6,1.4
	c-0.3,0.1-0.4,0.5-0.3,0.8c0.1,0.2,0.3,0.3,0.5,0.3c0.1,0,0.2,0,0.3-0.1c0.9-0.5,1.8-0.9,2.7-1.5c0.3-0.2,0.4-0.5,0.2-0.8
	C84.2,99.5,83.9,99.4,83.6,99.6z M19.6,71.5c-0.3,0.1-0.5,0.4-0.5,0.7c0.2,1,0.5,2,0.8,3c0.1,0.3,0.3,0.4,0.5,0.4c0.1,0,0.1,0,0.2,0
	c0.3-0.1,0.5-0.4,0.4-0.7c-0.3-1-0.5-1.9-0.7-2.9C20.2,71.6,19.9,71.4,19.6,71.5z M104.5,70.9c-0.3-0.1-0.6,0.1-0.7,0.5
	c-0.2,1-0.4,1.9-0.7,2.9c-0.1,0.3,0.1,0.6,0.4,0.7c0,0,0.1,0,0.1,0c0.3,0,0.5-0.2,0.6-0.4c0.3-1,0.5-2,0.7-3
	C105,71.2,104.8,70.9,104.5,70.9z M19.1,69.7c0,0,0.1,0,0.1,0c0.3,0,0.6-0.4,0.5-0.7c-0.1-1-0.3-2-0.3-3c0-0.3-0.3-0.6-0.6-0.6
	c-0.3,0-0.6,0.3-0.6,0.6c0.1,1,0.2,2,0.3,3C18.6,69.5,18.8,69.7,19.1,69.7z M105.2,65.5L105.2,65.5c-0.3,0-0.6-0.1-0.6,0.3
	c-0.1,1-0.2,1.7-0.3,2.7c0,0.3,0.2,0.6,0.5,0.7c0,0,0,0,0.1,0c0.3,0,0.6-0.1,0.6-0.4c0.1-1,0.2-1.9,0.3-2.9
	C105.8,65.5,105.5,65.5,105.2,65.5z M18.7,63.7C18.7,63.7,18.7,63.7,18.7,63.7c0.4,0,0.6-0.3,0.6-0.6c0-0.5,0-1,0-1.4
	c0-0.3,0-0.5,0-0.8c0-0.2,0-0.4,0-0.6c0-0.3-0.2-0.5-0.6-0.5h0c-0.3,0-0.6,0.1-0.6,0.4c0,0.2,0,0.3,0,0.6c0,0.3,0,0.6,0,0.9
	c0,0.5,0,1,0,1.5C18.1,63.4,18.3,63.7,18.7,63.7z M104.5,59.6c0.1,1,0.1,2.1,0.1,3.1c0,0.3,0.3,0.9,0.6,0.9h0c0.3,0,0.6-0.5,0.6-0.9
	c0-1,0-2.3-0.1-3.3c0-0.3-0.3-0.5-0.6-0.5C104.8,58.9,104.5,59.3,104.5,59.6z M19,57.7C19,57.7,19,57.7,19,57.7
	c0.4,0,0.6-0.2,0.7-0.5c0.1-1,0.3-2,0.5-2.9c0.1-0.3-0.1-0.6-0.5-0.7C19.3,53.4,19,53.6,19,54c-0.2,1-0.4,2-0.5,3
	C18.4,57.3,18.6,57.6,19,57.7z M103.7,53.6c0.2,1,0.4,1.9,0.5,2.9c0,0.3,0.3,0.5,0.6,0.5c0,0,0.1,0,0.1,0c0.3,0,0.6-0.4,0.5-0.7
	c-0.1-1-0.3-2-0.5-3c-0.1-0.3-0.4-0.5-0.7-0.5C103.8,52.9,103.6,53.2,103.7,53.6z M20.1,51.7c0,0,0.1,0,0.1,0c0.3,0,0.5-0.2,0.6-0.4
	c0.3-1,0.6-1.9,0.9-2.8c0.1-0.3-0.1-0.7-0.4-0.8c-0.3-0.1-0.7,0.1-0.8,0.4c-0.3,1-0.6,1.9-0.9,2.9C19.6,51.3,19.8,51.6,20.1,51.7z
	 M102,47.9c0.3,0.9,0.7,1.9,0.9,2.8c0.1,0.3,0.3,0.4,0.5,0.4c0.1,0,0.1,0,0.2,0c0.3-0.1,0.5-0.4,0.4-0.7c-0.3-1-0.6-2-1-2.9
	c-0.1-0.3-0.5-0.5-0.8-0.4C102,47.2,101.9,47.5,102,47.9z M22,46c0.1,0,0.1,0,0.2,0c0.2,0,0.5-0.1,0.6-0.4c0.4-0.9,0.8-1.8,1.3-2.7
	c0.2-0.3,0-0.7-0.3-0.8c-0.3-0.2-0.7,0-0.8,0.3c-0.5,0.9-0.9,1.8-1.3,2.8C21.6,45.5,21.7,45.9,22,46z M100.8,45.1
	c0.1,0.2,0.3,0.3,0.5,0.4c0.1,0,0.2,0,0.3-0.1c0.3-0.1,0.4-0.5,0.3-0.8c-0.4-0.9-0.9-1.9-1.4-2.7c-0.2-0.3-0.5-0.4-0.8-0.2
	c-0.3,0.2-0.4,0.5-0.2,0.8C100,43.3,100.4,44.2,100.8,45.1z M24.7,40.6c0.1,0.1,0.2,0.1,0.3,0.1c0.2,0,0.4-0.1,0.5-0.3
	c0.5-0.8,1.1-1.7,1.6-2.5c0.2-0.3,0.1-0.6-0.1-0.8c-0.3-0.2-0.6-0.1-0.8,0.1c-0.6,0.8-1.2,1.7-1.7,2.6
	C24.4,40.1,24.5,40.4,24.7,40.6z M98,39.9c0.1,0.2,0.3,0.3,0.5,0.3c0.1,0,0.2,0,0.3-0.1c0.3-0.2,0.4-0.5,0.2-0.8
	c-0.5-0.9-1.1-1.7-1.7-2.5c-0.2-0.3-0.6-0.3-0.8-0.1c-0.3,0.2-0.3,0.6-0.1,0.8C96.9,38.2,97.5,39,98,39.9z M28.5,35.8
	c0.2,0,0.4-0.1,0.5-0.2c0.6-0.8,1.3-1.5,2-2.2c0.2-0.2,0.2-0.6,0-0.8c-0.2-0.2-0.6-0.2-0.8,0c-0.7,0.7-1.4,1.5-2,2.3
	c-0.2,0.3-0.2,0.6,0.1,0.8C28.3,35.8,28.4,35.8,28.5,35.8z M94.5,35.1c0.1,0.1,0.3,0.2,0.4,0.2c0.1,0,0.3,0,0.4-0.1
	c0.3-0.2,0.3-0.6,0.1-0.8c-0.7-0.8-1.4-1.5-2.1-2.3c-0.2-0.2-0.6-0.2-0.8,0c-0.2,0.2-0.2,0.6,0,0.8C93.2,33.6,93.8,34.3,94.5,35.1z
	 M32.7,31.4c0.2,0,0.3,0,0.4-0.2c0.7-0.7,1.5-1.3,2.3-1.9c0.3-0.2,0.3-0.6,0.1-0.8c-0.2-0.3-0.6-0.3-0.8-0.1c-0.8,0.6-1.6,1.3-2.3,2
	c-0.2,0.2-0.3,0.6,0,0.8C32.4,31.4,32.5,31.4,32.7,31.4z M90.3,30.8c0.1,0.1,0.2,0.1,0.4,0.2c0.2,0,0.4-0.1,0.5-0.2
	c0.2-0.2,0.2-0.6,0-0.8c-0.8-0.7-1.6-1.3-2.4-2c-0.3-0.2-0.6-0.2-0.8,0.1c-0.2,0.3-0.2,0.6,0.1,0.8C88.8,29.5,89.6,30.2,90.3,30.8z
	 M37.4,27.7c0.1,0,0.3,0,0.4-0.1c0.8-0.6,1.7-1.1,2.5-1.6c0.3-0.2,0.4-0.5,0.2-0.8c-0.2-0.3-0.5-0.4-0.8-0.2
	c-0.9,0.5-1.7,1.1-2.6,1.6c-0.3,0.2-0.3,0.6-0.2,0.8C37.1,27.6,37.2,27.7,37.4,27.7z M83.1,25.6c0.9,0.5,1.7,1,2.5,1.6
	c0.1,0.1,0.2,0.1,0.3,0.1c0.2,0,0.4-0.1,0.5-0.3c0.2-0.3,0.1-0.6-0.2-0.8c-0.8-0.6-1.7-1.1-2.6-1.6c-0.3-0.2-0.7-0.1-0.8,0.2
	C82.7,25.1,82.8,25.5,83.1,25.6z M42.6,24.6c0.1,0,0.2,0,0.3-0.1c0.9-0.4,1.8-0.9,2.7-1.2c0.3-0.1,0.5-0.5,0.3-0.8
	c-0.1-0.3-0.5-0.5-0.8-0.3c-0.9,0.4-1.9,0.8-2.8,1.3c-0.3,0.1-0.4,0.5-0.3,0.8C42.2,24.5,42.4,24.6,42.6,24.6z M77.7,23
	c0.9,0.4,1.8,0.8,2.7,1.2c0.1,0,0.2,0.1,0.2,0.1c0.2,0,0.5-0.1,0.6-0.3c0.1-0.3,0-0.7-0.3-0.8c-0.9-0.4-1.9-0.9-2.8-1.2
	c-0.3-0.1-0.7,0-0.8,0.3C77.2,22.6,77.4,22.9,77.7,23z M71,18.3c0,0,0-0.1,0-0.1c-0.4-5.8-5.5-10.2-11.4-9.8
	c-5.8,0.4-10.2,5.5-9.8,11.4c0.4,5.8,5.5,10.2,11.4,9.8C67,29.1,71.4,24.1,71,18.3z M60.8,27.1c-4.5,0.2-8.3-3.2-8.6-7.7
	s3.2-8.6,7.7-8.6c0,0,0,0,0,0c4.5,0,8.3,3.1,8.6,7.6c0,0,0,0.1,0,0.1C68.8,23,65.3,26.9,60.8,27.1z M64.2,15.5
	c-0.2-0.1-0.4-0.1-0.5,0l-4.5,5.2l-2.5-2.2c-0.2-0.1-0.4-0.1-0.5,0l-0.8,0.9c0,0,0,0,0,0c-0.1,0.2,0,0.4,0.1,0.5l2.8,2.4
	c0,0,0,0,0,0l0.5,0.5l0.1,0.1l0.1,0.1c0.2,0.1,0.4,0.1,0.5,0l5.5-6.4c0,0,0,0,0,0c0-0.2,0.2-0.4,0-0.5L64.2,15.5z M39.7,87.7
	c-0.4-5.8-5.5-10.2-11.4-9.8c-5.8,0.4-10.2,5.5-9.8,11.4c0.4,5.8,5.5,10.2,11.4,9.8c5.8-0.4,10.2-5.4,9.8-11.3
	C39.7,87.8,39.7,87.7,39.7,87.7z M29.6,96.6c-4.5,0.2-8.3-3.5-8.6-8c-0.2-4.5,3.2-7.9,7.7-8.8c0,0,0,0,0,0c4.5,0,8.3,3.4,8.6,7.9
	c0,0,0,0.2,0,0.2C37.5,92.4,34.1,96.4,29.6,96.6z M98.9,84.4l-2-1.7l-3,3.5l-3.4-3l-1.7,2l3.5,3l-3,3.4l2,1.7l3-3.5l3.4,3l1.7-2
	l-3.5-3L98.9,84.4z M104.8,87.3c-0.4-5.8-5.5-10.2-11.4-9.8c-5.8,0.4-10.2,5.5-9.8,11.4c0.4,5.8,5.5,10.2,11.4,9.8
	c5.8-0.4,10.2-5.4,9.8-11.3C104.8,87.3,104.8,87.3,104.8,87.3z M94.7,96.2c-4.5,0.2-8.3-3.2-8.6-7.7c-0.2-4.5,3.2-8.6,7.7-8.6
	c0,0,0,0,0,0c4.5,0,8.3,3.2,8.6,7.7c0,0,0,0.1,0,0.1C102.7,92.1,99.2,96,94.7,96.2z M62.6,45.8l-0.7-12.9h-1.6l0.6,13
	C61.2,45.9,62.4,45.8,62.6,45.8z M38.7,79.4l1.3,1.1l10.5-11.4c-0.2-0.2-1.1-0.8-1.3-1L38.7,79.4z M72.8,68.6L83.3,79l1-1.3
	L73.9,67.6C73.7,67.8,73,68.4,72.8,68.6z M58.4,60.7L58.4,60.7l0.2,1.9h1.6c-0.1-1,0-1.7,0-2.5v-3.6c0-2-0.8-4-3.8-4
	c-1.2,0-2.4,0.3-3.2,0.9l0.4,1.2c0.7-0.4,1.6-0.7,2.5-0.7c2,0,2.2,1.4,2.2,2.3v0.2c-3.8,0-5.8,1.3-5.8,3.6c0,1.4,1,2.6,3,2.6
	C56.8,62.4,57.9,61.6,58.4,60.7z M55.9,61.3c-0.9,0-1.7-0.5-1.7-1.7c0-1.9,2.2-2.2,4.1-2.2v1.7c0,0.2,0,0.4-0.1,0.6
	C57.9,60.5,57.2,61.3,55.9,61.3z M65,49.9l-1.9,0.5V53h-1.9v1h1.9v5.3c0,1.1,0.3,2,0.8,2.5c0.4,0.5,1.1,0.7,2,0.7
	c0.7,0,1.2-0.1,1.6-0.2L67.3,61c-0.2,0.1-0.6,0.1-1,0.1c-1,0-1.3-0.7-1.3-1.9V54h1.9v-1H65V49.9z M68.8,53v5.3
	c0,3.4,2.1,4.2,3.7,4.2c1.7,0,3.1-0.9,3.5-1.9h0l0.1,1.9h1.6c-0.1-1-0.3-1.9-0.3-2.9V53h-1.9v5.6c0,0.3,0.1,0.6,0,0.9
	c-0.3,0.8-1.3,1.6-2.5,1.6c-1.6,0-2.3-1.2-2.3-3.1v-5H68.8z M86.3,59.7c0-1.4-0.9-2.3-2.6-2.9c-1.3-0.5-1.9-0.8-1.9-1.7
	c0-0.7,0.6-1.3,1.6-1.3c0.9,0,1.6,0.3,2,0.6L86,53c-0.5-0.3-1.4-0.6-2.4-0.6c-2.1,0-3.4,1.3-3.4,2.9c0,1.2,0.8,2.1,2.6,2.8
	c1.3,0.5,1.8,0.9,1.8,1.8c0,0.8-0.6,1.4-1.9,1.4c-0.9,0-1.8-0.4-2.3-0.7l-0.4,1.3c0.7,0.4,1.7,0.7,2.7,0.7
	C85,62.6,86.3,61.4,86.3,59.7z M50,61.1c-1,0-1.3-0.7-1.3-1.9V54h1.9v-1h-1.9v-3.2l-1.9,0.5V53h-1.9v1h1.9v5.3c0,1.1,0.3,2,0.8,2.5
	c0.4,0.5,1.1,0.7,2,0.7c0.7,0,1.3-0.1,1.6-0.2L51,61C50.8,61.1,50.5,61.1,50,61.1z M38.2,55.3c0,1.2,0.8,2.1,2.6,2.8
	c1.3,0.5,1.8,0.9,1.8,1.8c0,0.8-0.6,1.4-1.9,1.4c-0.9,0-1.8-0.4-2.3-0.7l-0.4,1.3c0.7,0.4,1.7,0.7,2.7,0.7c2.3,0,3.6-1.2,3.6-2.9
	c0-1.4-0.9-2.3-2.6-2.9c-1.3-0.5-1.9-0.8-1.9-1.7c0-0.7,0.6-1.3,1.6-1.3c0.9,0,1.6,0.3,2,0.6L44,53c-0.5-0.3-1.4-0.6-2.4-0.6
	C39.5,52.4,38.2,53.7,38.2,55.3z"/>
</svg>
