<?xml version="1.0" encoding="utf-8"?>
<!-- Generator: Adobe Illustrator 20.1.0, SVG Export Plug-In . SVG Version: 6.00 Build 0)  -->
<svg version="1.1" id="Layer_1" xmlns="http://www.w3.org/2000/svg" xmlns:xlink="http://www.w3.org/1999/xlink" x="0px" y="0px"
	 viewBox="0 0 122 122" style="enable-background:new 0 0 122 122;" xml:space="preserve">
<style type="text/css">
	.st0{fill:#E99E99;}
	.st1{fill:#FFFFFF;}
</style>
<circle class="st0" cx="61" cy="60.8" r="60"/>
<path class="st1" d="M45.2,25.2c0.2,0.3,0.5,0.5,0.9,0.5c0.2,0,0.3,0,0.5-0.1c0.5-0.3,0.7-0.9,0.4-1.4l-2.5-4.6
	c-0.3-0.5-0.9-0.7-1.4-0.4c-0.5,0.3-0.7,0.9-0.4,1.4L45.2,25.2z M70.5,25.2c0.2,0.1,0.3,0.1,0.5,0.1c0.3,0,0.7-0.2,0.9-0.5l2.7-4.4
	c0.3-0.5,0.1-1.1-0.3-1.4c-0.5-0.3-1.1-0.1-1.4,0.3l-2.7,4.4C69.9,24.3,70,24.9,70.5,25.2z M109.8,57l-5.4-0.3c-0.5,0-1,0.4-1.1,0.9
	s0.4,1,0.9,1.1l5.4,0.3c0,0,0,0,0.1,0c0.5,0,1-0.4,1-0.9C110.8,57.5,110.4,57.1,109.8,57z M95.5,37.5c0.2,0,0.4,0,0.5-0.1l4.6-2.8
	c0.5-0.3,0.6-0.9,0.3-1.4c-0.3-0.5-0.9-0.6-1.4-0.3l-4.6,2.8c-0.5,0.3-0.6,0.9-0.3,1.4C94.8,37.3,95.1,37.5,95.5,37.5z M64,46.7
	c1.4-1,2.4-2.2,3.1-3.3c1.3-2.1,1.2-3.9,1-5.1c-0.6-2.2-2.4-3.7-4.5-3.7c-1.1,0-2.2,0.5-3,1.3c-0.9-0.8-1.9-1.3-3-1.3
	c-2.1,0-3.9,1.5-4.5,3.7c-0.3,1.1-0.4,2.9,1,5.1c0.7,1.2,1.7,2.3,3.1,3.3c-10.1,1.6-18,10.4-18,21v25.8c0,2,2.3,3.5,5,3.5
	c2.7,0,5-1.5,5-3.5V70.4c5-1.3,7.7-4.2,9.4-6.8c1-1.4,1.6-2.9,2.1-4.2c0.5,1.3,1.1,2.8,2,4.2c1.8,2.6,4.4,5.5,9.4,6.8v23.1
	c0,2,2.3,3.5,5,3.5s5-1.5,5-3.5V67.7C82,57.1,74.1,48.3,64,46.7z M46,93.5c0,0.5-1,1.3-2.5,1.3S41,94,41,93.5V89h5V93.5z M46,87h-5
	v-7h5V87z M46,78h-5v-6.9c1,0,0.8,0,1.1,0c1.4,0,2.9-0.1,3.9-0.3V78z M56.6,62.3c-1.9,2.8-4.6,4.7-7.6,5.7v-0.4
	c0-6,4.5-11,10.3-11.7C59,57.5,58.2,59.9,56.6,62.3z M59,53.7c-7,0.6-13,6.6-13,13.9v0.9c-1,0.3-3,0.4-5,0.3v-1.2
	c0-10.1,8-18.4,18-19V53.7z M60.4,46.2c-5.9-3.4-5.6-6.5-5.4-7.4c0.3-1.2,1.3-2,2.3-2c0.8,0,1.5,0.5,2.1,1.4c0.2,0.3,0.6,0.5,1,0.5
	h0c0.4,0,0.8-0.2,1-0.5c0.6-0.9,1.3-1.4,2.1-1.4c1.1,0,2,0.8,2.3,2C66,39.7,66.3,42.9,60.4,46.2z M72,68.1c-3-1-5.7-2.9-7.6-5.7
	C62.8,60,62,57.5,61.6,56C67.5,56.7,72,61.7,72,67.7V68.1z M79,93.5c0,0.5-1,1.3-2.5,1.3S74,94,74,93.5V89h5V93.5z M79,87h-5v-7h5
	V87z M79,78h-5v-7.1c2,0.2,2.5,0.3,3.9,0.3c0.4,0,1.1,0,1.1,0V78z M79,68.9c-1,0.1-3,0-5-0.3v-0.9c0-7.3-5-13.3-12-13.9v-5.1
	c10,0.6,17,8.9,17,19V68.9z M16.9,58.7c0.5,0,1-0.4,1-0.9c0-0.6-0.4-1-0.9-1.1l-5.4-0.4c-0.6,0-1,0.4-1.1,0.9c0,0.6,0.4,1,0.9,1.1
	L16.9,58.7C16.8,58.7,16.9,58.7,16.9,58.7z M20.2,35.2l4.5,2.9c0.2,0.1,0.4,0.2,0.5,0.2c0.3,0,0.6-0.2,0.8-0.5
	c0.3-0.5,0.2-1.1-0.3-1.4l-4.5-2.9c-0.5-0.3-1.1-0.2-1.4,0.3C19.6,34.3,19.7,34.9,20.2,35.2z M33,83h-1v-6c0-0.3-0.4-1-0.7-1h-1.9
	c-0.3,0-0.5,0.7-0.5,1v6h-1.2c-0.3,0-0.5,0.1-0.5,0.4c0,1.5,0.6,2.6,2.6,2.9v1.7c0,0.7-0.7,1.1-1.3,1.1H23v-5.2
	c2-0.3,2.8-1.6,2.8-3.2c0-0.3,0-0.7-0.3-0.7H24v-5.4c0-0.3,0.1-0.6-0.2-0.6h-1.9c-0.3,0-0.9,0.3-0.9,0.6V80h-0.7
	c-0.3,0-0.7,0.4-0.7,0.7c0,1.5,1.4,2.9,2.4,3.2V89h-4.9c-0.7,0-1.1-0.4-1.1-1.1v-1.7c1-0.3,2.5-1.3,2.5-2.9c0-0.3-0.3-0.4-0.6-0.4
	H17v-6c0-0.3-0.4-1-0.7-1h-1.9c-0.3,0-0.4,0.7-0.4,1v6h-1.2c-0.3,0-0.4,0.1-0.4,0.4c0,1.5,0.7,2.6,2.7,2.9v1.7
	c0,1.3,0.8,2.1,2.1,2.1H22v3.1c-2,0.2-4.8,1.6-4.8,3.4c0,0.3,0.4,0.5,0.7,0.5h9.9c0.3,0,0.3-0.2,0.3-0.5c0-1.8-2.1-3.2-5.1-3.4V90
	h5.7c1.3,0,2.3-0.8,2.3-2.1v-1.7c1-0.3,2.5-1.3,2.5-2.9C33.5,83.1,33.3,83,33,83z M15,78h1v5h-1V78z M15.3,85.5
	c-0.9,0-1.7-0.5-2-1.5h3.9C17,85,16.3,85.5,15.3,85.5z M22,75h1v5h-1V75z M27.1,96h-8.6c0.5-1,2.2-1.8,4.3-1.8
	C24.9,94.2,26.7,95,27.1,96z M22.9,82.5c-0.9,0-1.7-0.5-2-1.5h3.9C24.6,82,23.8,82.5,22.9,82.5z M30,78h1v5h-1V78z M30.4,85.5
	c-0.9,0-1.7-0.5-2-1.5h3.9C32.1,85,31.3,85.5,30.4,85.5z M15.5,70.7c-0.7,0-0.9,0.8-1.1,1.6c-0.2,0.6-0.3,1.4-0.3,1.9
	c0,0.5,0.2,0.7,0.5,0.9c0.3,0.2,0.6,0,0.9,0h0.1c0.3,0,0.6,0.2,0.9,0c0.3-0.2,0.5-0.5,0.5-1c0-0.4-0.1-1.2-0.3-1.8
	C16.5,71.4,16.2,70.7,15.5,70.7z M15.8,74.3c-0.1,0-0.5,0-0.6,0c0,0,0-0.1,0-0.2c0-0.5,0.1-1.3,0.3-1.9c0.2,0.6,0.3,1.5,0.3,1.9
	C15.9,74.2,15.9,74.3,15.8,74.3z M22.8,68c-0.7,0-0.9,0.8-1.1,1.6c-0.2,0.6-0.3,1.4-0.3,1.9c0,0.5,0.2,1,0.5,1.2
	c0.3,0.2,0.6,0.3,0.9,0.3c0,0,0,0,0,0h0.1c0.3,0,0.6-0.1,0.9-0.3c0.3-0.2,0.5-0.6,0.5-1.2c0-0.4-0.1-1.3-0.3-1.9
	C23.7,68.8,23.4,68,22.8,68z M23.1,71.6c-0.1,0-0.5,0-0.6,0c0,0,0-0.1,0-0.2c0-0.5,0.1-1.3,0.3-1.9c0.2,0.6,0.3,1.5,0.3,1.9
	C23.1,71.5,23.1,71.6,23.1,71.6z M29.4,75c0.3,0.2,0.6,0,0.9,0h0.1c0.3,0,0.6,0.2,0.9,0c0.3-0.2,0.5-0.5,0.5-1
	c0-0.4-0.1-1.2-0.3-1.8c-0.2-0.8-0.5-1.6-1.1-1.6c-0.7,0-0.9,0.8-1.1,1.6c-0.2,0.6-0.3,1.3-0.3,1.8C28.9,74.5,29,74.8,29.4,75z
	 M30.3,72.2c0.2,0.6,0.3,1.5,0.3,1.9c0,0.1,0,0.1,0,0.2c-0.1,0-0.5,0-0.6,0c0,0,0-0.1,0-0.2C30,73.7,30.1,72.8,30.3,72.2z M88.5,75
	c0.3,0.2,0.6,0,0.9,0h0.1c0.3,0,0.6,0.2,0.9,0c0.3-0.2,0.5-0.5,0.5-1c0-0.4-0.1-1.2-0.3-1.8c-0.2-0.8-0.5-1.6-1.1-1.6
	c-0.7,0-0.9,0.8-1.1,1.6C88.1,72.9,88,73.6,88,74C88,74.6,88.2,74.8,88.5,75z M89.4,72.2c0.2,0.6,0.3,1.5,0.3,1.9c0,0.1,0,0.1,0,0.2
	c-0.1,0-0.5,0-0.6,0c0,0,0-0.1,0-0.2C89.1,73.7,89.2,72.8,89.4,72.2z M103.2,75c0.3,0.2,0.6,0,0.9,0h0.1c0.3,0,0.6,0.2,0.9,0
	c0.3-0.2,0.5-0.5,0.5-1c0-0.4-0.1-1.2-0.3-1.8c-0.2-0.8-0.5-1.6-1.1-1.6s-0.9,0.8-1.1,1.6c-0.2,0.6-0.3,1.3-0.3,1.8
	C102.7,74.6,102.9,74.8,103.2,75z M104.1,72.2c0.2,0.6,0.3,1.5,0.3,1.9c0,0.1,0,0.1,0,0.2c-0.1,0-0.5,0-0.6,0c0,0,0-0.1,0-0.2
	C103.8,73.7,104,72.8,104.1,72.2z M96.6,68c-0.7,0-0.9,0.8-1.1,1.6c-0.2,0.6-0.3,1.4-0.3,1.9c0,0.5,0.2,1,0.5,1.2
	c0.3,0.2,0.6,0.3,0.9,0.3c0,0,0,0,0,0h0.1c0.3,0,0.6-0.1,0.9-0.3c0.3-0.2,0.5-0.6,0.5-1.1c0-0.4-0.1-1.3-0.3-1.9
	C97.5,68.8,97.2,68,96.6,68z M96.9,71.6c-0.1,0-0.5,0-0.6,0c0,0,0-0.1,0-0.2c0-0.5,0.1-1.3,0.3-1.9c0.2,0.6,0.3,1.5,0.3,1.9
	C96.9,71.6,96.9,71.6,96.9,71.6z M106.8,83H106v-6c0-0.3-0.5-1-0.8-1h-1.9c-0.3,0-0.3,0.7-0.3,1v6h-1.3c-0.3,0-0.4,0.1-0.4,0.4
	c0,1.5,0.7,2.6,2.7,2.9v1.7c0,0.7-0.8,1.1-1.5,1.1H97v-5.1c2-0.3,2.7-1.7,2.7-3.2c0-0.3-0.1-0.7-0.4-0.7H98v-5.4
	c0-0.3-0.1-0.6-0.4-0.6h-1.9c-0.3,0-0.8,0.3-0.8,0.6V80h-0.9c-0.3,0-0.6,0.4-0.6,0.7c0,1.5,1.5,2.9,2.5,3.2V89h-5.1
	c-0.7,0-0.9-0.4-0.9-1.1v-1.7c1-0.3,2.4-1.4,2.4-2.9c0-0.3-0.4-0.4-0.7-0.4H91v-6c0-0.3-0.6-1-0.9-1h-1.9c-0.3,0-0.2,0.7-0.2,1v6
	h-1.4c-0.3,0-0.4,0.1-0.4,0.4c0,1.5,0.8,2.6,2.8,2.9v1.7c0,1.3,0.6,2.1,1.9,2.1H96v3.1c-3,0.2-4.9,1.6-4.9,3.4
	c0,0.3,0.3,0.5,0.6,0.5h9.9c0.3,0,0.4-0.2,0.4-0.5c0-1.8-2.1-3.2-5.1-3.4V90h5.5c1.3,0,2.5-0.8,2.5-2.1v-1.7c1-0.3,2.5-1.4,2.5-2.9
	C107.5,83.1,107.1,83,106.8,83z M89,78h1v5h-1V78z M89.2,85.5c-0.9,0-1.7-0.5-2-1.5h3.9C90.9,85,90.1,85.5,89.2,85.5z M96,75h1v5h-1
	V75z M101,96h-8.6c0.5-1,2.2-1.8,4.3-1.8C98.7,94.2,100.5,95,101,96z M96.7,82.5c-0.9,0-1.7-0.5-2-1.5h3.9
	C98.4,82,97.6,82.5,96.7,82.5z M104,78h1v5h-1V78z M104.3,85.5c-0.9,0-1.7-0.5-2-1.5h3.9C106,85,105.2,85.5,104.3,85.5z"/>
</svg>
