<?xml version="1.0" encoding="utf-8"?>
<!-- Generator: Adobe Illustrator 20.1.0, SVG Export Plug-In . SVG Version: 6.00 Build 0)  -->
<svg version="1.1" id="Layer_1" xmlns="http://www.w3.org/2000/svg" xmlns:xlink="http://www.w3.org/1999/xlink" x="0px" y="0px"
	 viewBox="0 0 122 122" style="enable-background:new 0 0 122 122;" xml:space="preserve">
<style type="text/css">
	.st0{fill:#E99E99;}
	.st1{fill:#FFFFFF;}
</style>
<circle class="st0" cx="60.5" cy="60.7" r="60"/>
<path class="st1" d="M28.4,65.3c0,0,0.1,0.1,0.1,0.1v2.3c0,0.2,0,0.4,0.2,0.5c-1,1.6-2.2,3.6-2.6,5c0,0.2,0,0.3,0.1,0.5
	c0.1,0.1,0.2,0.3,0.4,0.3l4.3,0.1h0c0.1,0,0.3-0.1,0.4-0.2c0.1-0.1,0.2-0.3,0.2-0.4V49.3c0-0.3-0.3-0.6-0.6-0.6h-7.3
	c-0.3-0.6-1-1.2-1.8-1.2c-0.6,0-1.1,0.3-1.5,0.6c-0.4-0.4-0.9-0.7-1.5-0.7c-0.8,0-1.5,0.6-1.8,1.2H9.6C9.4,48.7,9,49,9,49.3v24.2
	c0,0.1,0.1,0.4,0.2,0.4c0.1,0.1,0.3,0.2,0.4,0.2h0l4.3-0.1c0.2,0,0.3-0.1,0.4-0.2c0.1-0.1,0.1-0.3,0.1-0.5c-0.4-1.5-1.4-3.5-2.4-5.1
	c0.2-0.1,0.5-0.3,0.5-0.5v-2.3c0-0.1-0.2-0.1-0.2-0.1c1.9-1.4,3.5-3.4,4.9-6c1.2-2.2,2-4.4,2.5-6.2c0.1,0.1,0.2,0.1,0.3,0.2
	c0.1,0,0.2,0.1,0.3,0.1s0.2,0,0.3-0.1c0,0,0.1-0.1,0.3-0.2c0.6,1.8,1.4,4.1,2.6,6.2C24.8,61.9,26.5,63.9,28.4,65.3z M30.3,73l-3,0
	c0.6-1.5,1.7-3.5,2.6-4.7h0.4V73z M30.3,67.1h-1.2v-1.2h1.2V67.1z M23.7,49.9h6.6v0.6h-7C23.5,50.5,23.6,49.9,23.7,49.9z M10.2,49.9
	h6.7c0.1,0,0.2,0.6,0.4,0.6h-7.1V49.9z M10.2,65.9h1.2v1.2h-1.2V65.9z M13.2,72.9l-3.1,0v-4.7h0.5C11.6,69.5,12.7,71.5,13.2,72.9z
	 M10.9,64.7h-0.8v-13h8c0.2,0.6,0.5,0.4,0.7,0.6C17.8,55.8,15.5,61.8,10.9,64.7z M20.3,52.2c-1-0.7-2.4-1.8-2.4-2.7c0-0.5,0.4-1,1-1
	c0.5,0,0.9,0.4,0.9,0.8c0,0.3,0.3,0.5,0.5,0.5c0.3,0,0.5-0.2,0.5-0.5c0.1-0.5,0.5-0.8,0.9-0.8c0.5,0,1,0.4,1,1
	C22.7,50.4,21.3,51.6,20.3,52.2z M21.7,52.3c0.2-0.2,0.5,0,0.7-0.6h7.9v13h-0.7C25.1,61.8,22.7,55.8,21.7,52.3z M28.5,62.9
	c0.1,0,0.3-0.1,0.4-0.2c0.2-0.2,0.2-0.5,0-0.7c-1.9-1.8-3.5-4.4-4.8-7.9c-0.1-0.3-0.4-0.4-0.7-0.3c-0.3,0.1-0.4,0.4-0.3,0.7
	c1.3,3.6,3,6.4,5,8.3C28.2,62.9,28.4,62.9,28.5,62.9z M16.8,53.8c-0.3-0.1-0.6,0-0.7,0.3c-1.3,3.4-2.9,6.1-4.8,7.9
	c-0.2,0.2-0.2,0.5,0,0.7c0.1,0.1,0.2,0.2,0.4,0.2c0.1,0,0.3,0,0.4-0.1c2-1.9,3.7-4.7,5-8.3C17.2,54.2,17.1,53.9,16.8,53.8z M70,89.5
	c-0.6,0-1.1,0.1-1.6,0.3c0-3-2.5-5.5-5.6-5.5c-2.1,0-4,1.2-4.9,3c-0.9-1.8-2.8-3-4.9-3c-3.1,0-5.6,2.5-5.6,5.6
	c0,5,8.1,10.3,9.9,11.3c0,0.5,0,1.4,0.4,2.5c0.3,0.9,0.9,2.1,2,3.3c-0.9,0.2-1.6,1-1.6,2c0,1.1,0.9,2.1,2.1,2.1c0.2,0,0.4,0,0.6-0.1
	l-1.7,2.3c-0.2,0.3-0.1,0.6,0.1,0.8c0.1,0.1,0.2,0.1,0.3,0.1c0.2,0,0.4-0.1,0.5-0.2l2.9-4l2.9,4c0.1,0.2,0.3,0.2,0.5,0.2
	c0.1,0,0.2,0,0.3-0.1c0.3-0.2,0.3-0.6,0.1-0.8l-1.7-2.3c0.2,0.1,0.4,0.1,0.6,0.1c1.1,0,2.1-0.9,2.1-2.1c0-1.1-0.9-2.1-2.1-2.1
	c0.5-0.8,0.7-1.5,0.9-2.1c0.2-0.9,0.3-1.8,0.3-2.2c0.6-0.4,2.1-1.3,3.6-2.6c2.7-2.3,4-4.3,4-6.2C74.4,91.5,72.4,89.5,70,89.5z
	 M53.4,96.8c-3.1-2.6-4.7-5.1-4.7-7c0-2.4,2-4.4,4.4-4.4c2.2,0,4.1,1.7,4.3,3.9c0,0.3,0.3,0.5,0.6,0.5c0.3,0,0.5-0.2,0.6-0.5
	c0.3-2.2,2.1-3.9,4.3-3.9c2.4,0,4.4,2,4.4,4.4c0,0.2,0,0.5-0.1,0.7c-0.4,0.3-0.7,0.7-0.9,1.1c-0.8-1.3-2.2-2.1-3.8-2.1
	c-2.4,0-4.4,2-4.4,4.4c0,1.4,0.8,3,2.3,4.6c-1.1,0.8-2,1.4-2.5,1.7C57.2,99.7,55.3,98.4,53.4,96.8z M60.2,109.9
	c-0.5,0-0.9-0.4-0.9-0.9c0-0.5,0.4-0.9,0.9-0.9c0.3,0,1,0.4,1.7,0.9C61.2,109.5,60.5,109.9,60.2,109.9z M62.9,108.3
	c-0.1,0-0.1-0.1-0.2-0.2c-1.9-1.4-3.2-3-3.8-4.7c-0.4-1-0.4-1.8-0.4-2.2c0.5-0.3,1.5-0.9,2.7-1.9c0.3,0.2,0.5,0.5,0.8,0.7
	c1.5,1.3,3,2.3,3.6,2.6c0,0.4,0,1.1-0.2,1.9C65,106.1,64.2,107.3,62.9,108.3z M66.6,109c0,0.5-0.4,0.9-0.9,0.9c-0.3,0-1-0.4-1.7-0.9
	c0.7-0.5,1.4-0.9,1.7-0.9C66.2,108.1,66.6,108.5,66.6,109z M66.2,101.6c-2.2-1.4-7-4.9-7-7.8c0-1.8,1.4-3.2,3.2-3.2
	c1.6,0,3,1.2,3.2,2.8c0,0.3,0.3,0.5,0.6,0.5c0.3,0,0.5-0.2,0.6-0.5c0.2-1.6,1.6-2.8,3.2-2.8c1.8,0,3.2,1.4,3.2,3.2
	C73.2,96.7,68.4,100.3,66.2,101.6z M94.3,57.1h2.5c0.3,0,0.6-0.3,0.6-0.6v-4c0-0.3-0.3-0.6-0.6-0.6h-2.5c-0.3,0-0.6,0.3-0.6,0.6v4
	C93.7,56.8,94,57.1,94.3,57.1z M94.9,53.1h1.4v2.8h-1.4V53.1z M94.3,63.4h2.5c0.3,0,0.6-0.3,0.6-0.6v-3.9c0-0.3-0.3-0.6-0.6-0.6
	h-2.5c-0.3,0-0.6,0.3-0.6,0.6v3.9C93.7,63.1,94,63.4,94.3,63.4z M94.9,59.4h1.4v2.8h-1.4V59.4z M109,49.5H92c-0.3,0-0.6,0.3-0.6,0.6
	v21.4c0,0.3,0.3,0.6,0.6,0.6h17.6v-22C109.6,49.8,109.3,49.5,109,49.5z M99.9,70.9h-2.2v-5h2.2V70.9z M103.3,70.9h-2.2v-5h2.2V70.9z
	 M108.4,70.9h-3.9v-5.6c0-0.3-0.3-0.6-0.6-0.6h-7.4l0,1.2v5h-3.9V50.7h15.8V70.9z M109.8,46.6c0-0.1-0.1-0.2-0.2-0.2l-0.8-0.2
	l-0.4-0.7c-0.1-0.1-0.2-0.2-0.3-0.2c-0.1,0-0.2,0.1-0.3,0.2l-0.4,0.7l-0.8,0.2c-0.1,0-0.2,0.1-0.2,0.2c0,0.1,0,0.2,0.1,0.3l0.5,0.6
	l-0.1,0.8c0,0.1,0,0.2,0.1,0.3c0.1,0.1,0.2,0.1,0.3,0l0.7-0.3l0.7,0.3c0,0,0.1,0,0.1,0c0.1,0,0.1,0,0.2-0.1c0.1-0.1,0.1-0.2,0.1-0.3
	l-0.1-0.8l0.5-0.6C109.8,46.8,109.8,46.7,109.8,46.6z M108.6,47.2c-0.1,0.1-0.1,0.2-0.1,0.2l0,0.4l-0.4-0.2c-0.1,0-0.2,0-0.3,0
	l-0.4,0.2l0-0.4c0-0.1,0-0.2-0.1-0.2l-0.3-0.3l0.4-0.1c0.1,0,0.2-0.1,0.2-0.1l0.2-0.4l0.2,0.4c0,0.1,0.1,0.1,0.2,0.1l0.4,0.1
	L108.6,47.2z M94.5,46.6c0-0.1-0.1-0.2-0.2-0.2l-0.8-0.2l-0.4-0.7c-0.1-0.1-0.2-0.2-0.3-0.2s-0.2,0.1-0.3,0.2l-0.4,0.7l-0.8,0.2
	c-0.1,0-0.2,0.1-0.2,0.2c0,0.1,0,0.2,0.1,0.3l0.5,0.6l-0.1,0.8c0,0.1,0,0.2,0.1,0.3c0.1,0.1,0.2,0.1,0.3,0l0.7-0.3l0.7,0.3
	c0,0,0.1,0,0.1,0c0.1,0,0.1,0,0.2-0.1c0.1-0.1,0.1-0.2,0.1-0.3l-0.1-0.8l0.5-0.6C94.6,46.8,94.6,46.7,94.5,46.6z M93.4,47.2
	c-0.1,0.1-0.1,0.2-0.1,0.2l0,0.4L93,47.6c0,0-0.1,0-0.1,0c0,0-0.1,0-0.1,0l-0.4,0.2l0-0.4c0-0.1,0-0.2-0.1-0.2L92,46.9l0.4-0.1
	c0.1,0,0.2-0.1,0.2-0.1l0.2-0.4l0.2,0.4c0,0.1,0.1,0.1,0.2,0.1l0.4,0.1L93.4,47.2z M103.2,47.5l-0.1,0.8c0,0.1,0,0.2,0.1,0.3
	c0.1,0.1,0.2,0.1,0.3,0l0.7-0.3l0.7,0.3c0,0,0.1,0,0.1,0c0.1,0,0.1,0,0.2-0.1c0.1-0.1,0.1-0.2,0.1-0.3l-0.1-0.8l0.5-0.6
	c0.1-0.1,0.1-0.2,0.1-0.3c0-0.1-0.1-0.2-0.2-0.2l-0.8-0.2l-0.4-0.7c-0.1-0.1-0.2-0.2-0.3-0.2c-0.1,0-0.2,0.1-0.3,0.2l-0.4,0.7
	l-0.8,0.2c-0.1,0-0.2,0.1-0.2,0.2c0,0.1,0,0.2,0.1,0.3L103.2,47.5z M103.9,46.8c0.1,0,0.2-0.1,0.2-0.1l0.2-0.4l0.2,0.4
	c0,0.1,0.1,0.1,0.2,0.1l0.4,0.1l-0.3,0.3c-0.1,0.1-0.1,0.2-0.1,0.2l0,0.4l-0.4-0.2c0,0-0.1,0-0.1,0c0,0-0.1,0-0.1,0l-0.4,0.2l0-0.4
	c0-0.1,0-0.2-0.1-0.2l-0.3-0.3L103.9,46.8z M95,46.6c0,0.1,0,0.2,0.1,0.3l0.5,0.6l-0.1,0.8c0,0.1,0,0.2,0.1,0.3
	c0.1,0.1,0.2,0.1,0.3,0l0.7-0.3l0.7,0.3c0,0,0.1,0,0.1,0c0.1,0,0.1,0,0.2-0.1c0.1-0.1,0.1-0.2,0.1-0.3l-0.1-0.8l0.5-0.6
	c0.1-0.1,0.1-0.2,0.1-0.3c0-0.1-0.1-0.2-0.2-0.2l-0.8-0.2l-0.4-0.7c-0.1-0.1-0.2-0.2-0.3-0.2c-0.1,0-0.2,0.1-0.3,0.2L96,46.2
	l-0.8,0.2C95.1,46.4,95,46.5,95,46.6z M96.3,46.8c0.1,0,0.2-0.1,0.2-0.1l0.2-0.4l0.2,0.4c0,0.1,0.1,0.1,0.2,0.1l0.4,0.1l-0.3,0.3
	c-0.1,0.1-0.1,0.2-0.1,0.2l0,0.4l-0.4-0.2c0,0-0.1,0-0.1,0c0,0-0.1,0-0.1,0l-0.4,0.2l0-0.4c0-0.1,0-0.2-0.1-0.2l-0.3-0.3L96.3,46.8z
	 M99.4,47.5l-0.1,0.8c0,0.1,0,0.2,0.1,0.3s0.2,0.1,0.3,0l0.7-0.3l0.7,0.3c0,0,0.1,0,0.1,0c0.1,0,0.1,0,0.2-0.1
	c0.1-0.1,0.1-0.2,0.1-0.3l-0.1-0.8l0.5-0.6c0.1-0.1,0.1-0.2,0.1-0.3c0-0.1-0.1-0.2-0.2-0.2l-0.8-0.2l-0.4-0.7
	c-0.1-0.1-0.2-0.2-0.3-0.2s-0.2,0.1-0.3,0.2l-0.4,0.7L99,46.4c-0.1,0-0.2,0.1-0.2,0.2c0,0.1,0,0.2,0.1,0.3L99.4,47.5z M100.1,46.8
	c0.1,0,0.2-0.1,0.2-0.1l0.2-0.4l0.2,0.4c0,0.1,0.1,0.1,0.2,0.1l0.4,0.1l-0.3,0.3c-0.1,0.1-0.1,0.2-0.1,0.2l0,0.4l-0.4-0.2
	c-0.1,0-0.2,0-0.3,0l-0.4,0.2l0-0.4c0-0.1,0-0.2-0.1-0.2l-0.3-0.3L100.1,46.8z M104.1,57.1h2.5c0.3,0,0.6-0.3,0.6-0.6v-4
	c0-0.3-0.3-0.6-0.6-0.6h-2.5c-0.3,0-0.6,0.3-0.6,0.6v4C103.5,56.8,103.8,57.1,104.1,57.1z M104.7,53.1h1.4v2.8h-1.4V53.1z
	 M104.1,63.4h2.5c0.3,0,0.6-0.3,0.6-0.6v-3.9c0-0.3-0.3-0.6-0.6-0.6h-2.5c-0.3,0-0.6,0.3-0.6,0.6v3.9
	C103.5,63.1,103.8,63.4,104.1,63.4z M104.7,59.4h1.4v2.8h-1.4V59.4z M99.2,63.4h2.5c0.3,0,0.6-0.3,0.6-0.6v-3.9
	c0-0.3-0.3-0.6-0.6-0.6h-2.5c-0.3,0-0.6,0.3-0.6,0.6v3.9C98.6,63.1,98.9,63.4,99.2,63.4z M99.8,59.4h1.4v2.8h-1.4V59.4z M99.2,57.1
	h2.5c0.3,0,0.6-0.3,0.6-0.6v-4c0-0.3-0.3-0.6-0.6-0.6h-2.5c-0.3,0-0.6,0.3-0.6,0.6v4C98.6,56.8,98.9,57.1,99.2,57.1z M99.8,53.1h1.4
	v2.8h-1.4V53.1z M57.4,26.2c0.1,0.1,0.3,0,0.4,0h5.7c0.2,0,0.3,0.1,0.4,0c0.1-0.1,0.1-0.1,0.1-0.3c-0.7-1.8-1.2-3.3-1.6-4.7
	c-0.1-0.2-0.3-0.3-0.5-0.3h-2.5c-0.2,0-0.4,0.1-0.5,0.3c-0.4,1.3-0.9,2.8-1.6,4.7C57.2,26.1,57.3,26.1,57.4,26.2z M59.8,21.5h1.7
	c0.3,1.2,0.8,2.4,1.3,4.1h-4.2C59,23.9,59.5,22.7,59.8,21.5z M52.1,21.7c0.1,0.1,0.2,0.1,0.3,0.1c0.1,0,0.2,0,0.3-0.1
	c0.3-0.2,3.2-1.9,3.2-3.8c0-1.1-0.9-2.1-2.1-2.1c-0.6,0-1.1,0.2-1.5,0.6c-0.4-0.4-0.9-0.6-1.5-0.6c-1.1,0-2.1,0.9-2.1,2.1
	C48.9,19.7,51.8,21.5,52.1,21.7z M51,17c0.4,0,0.8,0.3,0.9,0.8c0,0.3,0.3,0.5,0.6,0.5c0.3,0,0.5-0.2,0.6-0.5
	c0.1-0.4,0.4-0.8,0.9-0.8c0.5,0,0.9,0.4,0.9,0.9c0,0.8-1.3,1.9-2.3,2.6c-1.1-0.7-2.3-1.8-2.3-2.6C50.1,17.4,50.5,17,51,17z M67.2,17
	c0.1,0.1,0.2,0.1,0.3,0.1c0.1,0,0.2,0,0.3-0.1c0.3-0.2,3.2-1.9,3.2-3.8c0-1.1-0.9-2.1-2.1-2.1c-0.6,0-1.1,0.2-1.5,0.6
	c-0.4-0.4-0.9-0.6-1.5-0.6c-1.1,0-2.1,0.9-2.1,2.1C64,15.1,66.9,16.8,67.2,17z M66,12.4c0.4,0,0.8,0.3,0.9,0.8
	c0,0.3,0.3,0.5,0.6,0.5c0.3,0,0.5-0.2,0.6-0.5c0.1-0.4,0.4-0.8,0.9-0.8c0.5,0,0.9,0.4,0.9,0.9c0,0.8-1.3,1.9-2.3,2.6
	c-1.1-0.7-2.3-1.8-2.3-2.6C65.1,12.8,65.5,12.4,66,12.4z M54.9,22.7c0,0.3,0.3,0.6,0.6,0.6H56c-0.4,1.2-0.9,2.4-1.5,4.1h-1.8
	c-0.3,0-0.6,0.3-0.6,0.6c0,0.3,0.3,0.6,0.6,0.6h1.3c-0.8,1.8-1.7,4.1-2.9,7.1h-1.3c-0.3,0-0.1,0.5-0.1,0.8v2.6
	c0,0.3-0.2,0.7,0.1,0.7H57c0.3,0,1.1-0.4,1.1-0.7v-2.6c0-0.3-0.8-0.8-1.1-0.8h-0.8c0.3-2.4,2.2-4.3,4.5-4.3c2.3,0,4.2,2,4.5,4.3
	h-0.8c-0.3,0-0.3,0.5-0.3,0.8v2.6c0,0.3,0,0.7,0.3,0.7h7.1c0.3,0,0.9-0.4,0.9-0.7v-2.6c0-0.3-0.6-0.8-0.9-0.8h-1.3
	c-1.2-3-2.2-5.3-2.9-7.1h1.3c0.3,0,0.6-0.3,0.6-0.6c0-0.3-0.3-0.6-0.6-0.6h-1.8c-0.6-1.8-1.1-3-1.5-4.1h0.6c0.3,0,0.6-0.3,0.6-0.6
	c0-0.3-0.3-0.6-0.6-0.6h-0.9c-0.9-3-1.3-4.7-1.8-7.3c-0.1-0.4-0.2-1-0.3-1.5c-0.1-0.3-0.3-0.7-0.6-0.7h-0.6v-2.3
	c0-0.3-0.3-0.6-0.6-0.6c-0.3,0-0.6,0.3-0.6,0.6v2.3H59c-0.3,0-0.5,0.4-0.6,0.6c-0.1,0.5-0.2,1-0.3,1.4c-0.5,2.6-0.9,4.4-1.8,7.4
	h-0.9C55.1,22.1,54.9,22.4,54.9,22.7z M56.9,36.9v1.8H51v-1.8H56.9z M71.1,36.9v1.8h-5.9v-1.8H71.1z M68.9,35.7h-2.5
	c-0.1-1.2-0.7-2.6-1.7-3.6c-1.1-1.1-2.5-1.7-4-1.7c-1.5,0-3,0.6-4,1.7c-0.9,1-1.5,2.4-1.7,3.6h-2.5c1.2-3,2.1-5.3,2.9-7.1H66
	C66.7,30.4,67.7,32.8,68.9,35.7z M59.3,14.9c0.1-0.3,0.1-0.5,0.2-1h2.3c0.1,0.6,0.1,0.8,0.2,1c0.8,3.9,1.2,6.1,3.5,12.6h-9.7
	C58.1,20.9,58.6,18.7,59.3,14.9z M50.4,72.1c0,1.1,1.2,2.1,3.4,2.8c2,0.6,4.7,1,7.5,1c2.8,0,5.5-0.3,7.5-1c2.2-0.7,3.4-1.7,3.4-2.8
	c0-1.1-1.2-2.1-3.4-2.8c-1.3-0.4-2.9-0.7-4.7-0.9c2.1-4.1,4.7-9.9,4.7-12.4c0-4.2-3.4-7.5-7.5-7.5c-4.2,0-7.5,3.4-7.5,7.5
	c0,2.5,2.7,8.3,4.7,12.4c-1.7,0.2-3.4,0.4-4.7,0.9C51.6,70,50.4,71,50.4,72.1z M58.3,65.6c-2.8-6-3.4-8.5-3.4-9.6
	c0-3.6,2.9-6.5,6.5-6.5c3.6,0,6.5,2.9,6.5,6.5c0,1-0.6,3.6-3.4,9.6c-1.2,2.5-2.4,4.8-3,6C60.7,70.4,59.5,68.1,58.3,65.6z M59,69.5
	c1,1.9,1.7,3.3,1.8,3.5c0.1,0.2,0.3,0.3,0.5,0.3c0.2,0,0.4-0.1,0.5-0.3c0.1-0.2,0.8-1.6,1.8-3.5c1.8,0.1,3.5,0.4,4.9,0.8
	c2,0.6,2.7,1.3,2.7,1.8c0,0.5-0.7,1.2-2.7,1.8c-1.9,0.6-4.5,0.9-7.2,0.9c-2.7,0-5.3-0.3-7.2-0.9c-2-0.6-2.7-1.3-2.7-1.8
	c0-0.5,0.7-1.2,2.7-1.8C55.5,69.9,57.2,69.6,59,69.5z M61.6,61.4c0.1,0,1.3-0.7,2.5-1.8c1.7-1.5,2.6-2.8,2.6-4c0-1.6-1.3-3-3-3
	c-1,0-1.9,0.5-2.4,1.2c-0.5-0.7-1.4-1.2-2.4-1.2c-1.6,0-3,1.3-3,3c0,1.2,0.9,2.6,2.6,4c1.2,1,2.4,1.8,2.5,1.8c0.1,0,0.2,0.1,0.3,0.1
	C61.4,61.4,61.5,61.4,61.6,61.4z M57,55.5c0-1,0.8-1.9,1.9-1.9c0.9,0,1.7,0.7,1.9,1.7c0,0.3,0.3,0.5,0.5,0.5c0.3,0,0.5-0.2,0.5-0.5
	c0.1-0.9,0.9-1.7,1.9-1.7c1,0,1.9,0.8,1.9,1.9c0,1.7-2.9,3.9-4.3,4.7C59.9,59.4,57,57.3,57,55.5z M79.8,24.5c6.3,3,11.8,8.2,14.9,15
	c0.1,0.2,0.3,0.4,0.6,0.4c0.5,0,0.8-0.5,0.6-0.9c-3.2-7-8.5-12.5-15.5-15.6c-0.4-0.2-0.9,0.1-0.9,0.6v0
	C79.4,24.2,79.5,24.4,79.8,24.5z M40.6,22.9c-7,3.2-12.5,8.5-15.6,15.5c-0.2,0.4,0.1,0.9,0.6,0.9h0c0.2,0,0.5-0.1,0.6-0.4
	c3-6.3,8.2-11.8,15-14.9c0.2-0.1,0.4-0.3,0.4-0.6v0C41.5,23,41.1,22.7,40.6,22.9z M95.2,78.9L95.2,78.9c-0.2,0-0.5,0.1-0.6,0.4
	c-3.1,6.8-8.6,12-14.9,15c-0.2,0.1-0.4,0.3-0.4,0.6v0c0,0.5,0.5,0.8,0.9,0.6c7-3.2,12.3-8.7,15.5-15.7C96,79.4,95.7,78.9,95.2,78.9z
	 M41.2,93.6c-6.8-3.1-12-8.1-15-14.9c-0.1-0.2-0.3-0.4-0.6-0.4h0c-0.5,0-0.8,0.5-0.6,0.9c3.1,7,8.7,12.4,15.6,15.5
	c0.4,0.2,0.9-0.1,0.9-0.6v0C41.5,93.9,41.4,93.7,41.2,93.6z"/>
</svg>
