<?xml version="1.0" encoding="utf-8"?>
<!-- Generator: Adobe Illustrator 20.1.0, SVG Export Plug-In . SVG Version: 6.00 Build 0)  -->
<svg version="1.1" id="Layer_1" xmlns="http://www.w3.org/2000/svg" xmlns:xlink="http://www.w3.org/1999/xlink" x="0px" y="0px"
	 viewBox="0 0 122 122" style="enable-background:new 0 0 122 122;" xml:space="preserve">
<style type="text/css">
	.st0{fill:#E99E99;}
	.st1{fill:#FFFFFF;}
</style>
<circle class="st0" cx="60.7" cy="61.1" r="60"/>
<path class="st1" d="M79,40.7c-5.5-1.5-13,0-18,8.3c-4.6-8.3-12-9.8-17.7-8.4c-6.6,1.7-13,8.2-12.3,17.2c0.7,10,8.6,16,16.2,21.7
	c5.6,4.2,10.9,8.3,12.8,13.7c0.1,0.4,0.5,0.8,0.9,0.8h0c0.4,0,0.8-0.4,0.9-0.8c1.9-5.1,7.2-9.2,12.8-13.5
	c7.7-5.9,15.7-11.9,16.2-21.9C91.4,49.8,86.5,42.7,79,40.7z M88.9,57.8c-0.5,9-8.1,14.8-15.5,20.4c-5.1,3.9-9.9,7.5-12.5,12.2
	c-2.6-4.8-7.4-8.5-12.6-12.4C41.1,72.5,33.7,66.9,33,57.7c-0.6-8,5-13.6,10.8-15.1c1-0.3,2.1-0.4,3.3-0.4c4.6,0,9.8,2.4,12.9,9.4
	c0.2,0.3,0.5,0.6,0.9,0.6c0.4,0,0.7-0.2,0.9-0.5c4.5-8.7,11.5-10.4,16.7-9C83.8,44.1,89.4,49.4,88.9,57.8z M61.3,42.1
	c0.3,0,0.6-0.1,0.8-0.4c0.3-0.4,0.6-0.7,0.9-1.1c0.4-0.4,0.3-1.1-0.1-1.4c-0.4-0.4-1.1-0.3-1.4,0.1c-0.3,0.4-0.6,0.8-0.9,1.2
	c-0.3,0.4-0.2,1.1,0.2,1.4C60.9,42,61.1,42.1,61.3,42.1z M64.5,38.6c0.2,0,0.4-0.1,0.6-0.2c2.4-2,5.1-2.8,7.7-2.4
	c0.5,0.1,1.1-0.3,1.1-0.8c0.1-0.5-0.3-1.1-0.8-1.1c-3.2-0.5-6.4,0.5-9.3,2.8c-0.4,0.4-0.5,1-0.1,1.4C63.9,38.5,64.2,38.6,64.5,38.6z
	 M89.2,75.6c-1.1,0.9-2.2,1.7-3.4,2.6l-0.1,0.1c-2.4,1.8-4.9,3.7-7.2,5.8c-0.4,0.4-0.4,1-0.1,1.4c0.2,0.2,0.5,0.3,0.7,0.3
	c0.2,0,0.5-0.1,0.7-0.3c2.2-2,4.7-3.9,7.1-5.7l0.1-0.1c1.2-0.9,2.3-1.7,3.4-2.6c0.4-0.3,0.5-1,0.2-1.4
	C90.3,75.3,89.6,75.3,89.2,75.6z M28.6,46c0.1,0,0.1,0,0.2,0c0.5,0,0.9-0.3,1-0.8c0.1-0.7,0.4-1.5,0.6-2.2c0.2-0.5,0-1.1-0.5-1.3
	c-0.5-0.2-1.1,0-1.3,0.5c-0.3,0.8-0.6,1.7-0.8,2.6C27.7,45.4,28,45.9,28.6,46z M31.6,40.4c0.3,0,0.5-0.1,0.7-0.3
	c0.3-0.3,0.6-0.6,0.9-0.9c0.4-0.3,0.8-0.6,1.2-0.9c2.4-1.5,5.4-2,8.1-1.3c0.5,0.1,1.1-0.2,1.2-0.7s-0.2-1.1-0.7-1.2
	c-3.2-0.9-6.8-0.3-9.7,1.5c-0.5,0.3-1,0.7-1.5,1.1c-0.4,0.3-0.7,0.7-1.1,1c-0.4,0.4-0.3,1,0.1,1.4C31.1,40.3,31.3,40.4,31.6,40.4z
	 M61.7,67.2l11.6,2.3l-1.7-3.4l-10.4,0.4l-0.1-0.2l6.3-1.9l-0.5-2l-1.8-0.5l-4,4.1l-0.1,0l4.2-13.3l-4.9,1.5l0.3,11.6L60.6,66
	l-0.1-0.1l-2.2-13.1L54,51.5l5.9,13.4l-4-6.6L50,58.9l10.1,7.2l-0.6,0l-14-6.7l1.9,4.9l11.8,1.8l-6.5,0.2l-0.4,2l1.5,1.1l6-2.7
	l0.2,0l-5,8.9l3,0.7l2.4-9.6l0.2,0l0,0.4l0.1-0.3l0.1,0l-0.3,5.7l1.1,1l1.9-1.5l-2-4.9l5.4,7.6l4.4,0.1L62.7,68l11.9,7.4l1.2-4.8
	l-13.7-3L61.7,67.2z M71.2,66.9l0.8,1.6l-6.5-1.3L71.2,66.9z M65.3,62.9l1,0.3l0.2,0.9l-3.3,1L65.3,62.9z M64,54l-2.8,8.8l-0.2-7.9
	L64,54z M55.3,52.7l2.3,0.7l1.2,7.4L55.3,52.7z M52.1,59.5l3.4-0.4l3.1,5L52.1,59.5z M48,63.8L47,61l7.9,3.8L48,63.8z M54,68.7
	l-0.8-0.6l0.2-0.9l4.3-0.2L54,68.7z M57.6,75.6l-1.3-0.3l2.5-4.4L57.6,75.6z M60.5,66.6L60.5,66.6l0-0.1L60.5,66.6l0.1-0.1l0,0l0,0
	L60.5,66.6L60.5,66.6z M61.5,69.2l1.1,2.7l-0.9,0.8l-0.3-0.3L61.5,69.2z M69,74.1l-1.8,0l-2.4-3.3L69,74.1z M74.9,71.1l-0.8,3.1
	l-8.1-5L74.9,71.1z M53.8,71.3l0-0.1l0-0.1c-0.2-0.9-1-1.3-1.6-1.6c-0.4-0.2-0.7-0.3-0.9-0.6c-0.1-0.2-0.1-0.6,0-1
	c0.1-0.6,0.2-1.4-0.4-2l-0.1-0.1l-0.1,0c-0.9-0.2-1.5,0.5-1.9,0.9c-0.3,0.3-0.5,0.6-0.8,0.6c-0.3,0-0.6-0.2-1-0.4
	c-0.6-0.3-1.3-0.7-2-0.3L45,66.8l0,0.1c-0.4,0.8,0,1.6,0.4,2.2c0.2,0.4,0.4,0.7,0.4,1c0,0.3-0.3,0.5-0.6,0.8c-0.5,0.4-1,1-0.8,1.8
	l0,0.1l0.1,0.1c0.7,0.7,1.5,0.5,2.2,0.4c0.4-0.1,0.8-0.1,1,0c0.3,0.1,0.4,0.5,0.6,0.9c0.3,0.6,0.6,1.3,1.5,1.4l0.1,0l0.1-0.1
	c0.8-0.4,0.9-1.3,1-1.9c0-0.4,0.1-0.8,0.2-0.9c0.2-0.2,0.6-0.2,1-0.3C52.8,72.2,53.5,72.1,53.8,71.3z M50.6,72
	c-0.4,0.4-0.4,0.9-0.4,1.4c-0.1,0.6-0.1,1-0.5,1.3c-0.3-0.1-0.5-0.4-0.8-0.9c-0.2-0.5-0.5-1-1-1.2c-0.2-0.1-0.5-0.1-0.7-0.1
	c-0.3,0-0.5,0-0.8,0.1c-0.6,0.1-1,0.2-1.4-0.1c0-0.3,0.2-0.6,0.6-1c0.4-0.3,0.8-0.7,0.8-1.2c0.1-0.5-0.2-1-0.5-1.4
	c-0.3-0.6-0.5-1-0.4-1.4c0.3-0.1,0.6,0.1,1.1,0.3c0.5,0.3,0.9,0.5,1.5,0.4c0.5-0.1,0.9-0.5,1.2-0.8c0.4-0.5,0.7-0.7,1.2-0.7
	c0.2,0.3,0.2,0.6,0.1,1.2c-0.1,0.5-0.2,1,0.1,1.5c0.3,0.4,0.7,0.7,1.2,0.9c0.5,0.2,1,0.5,1.1,0.9c-0.1,0.2-0.5,0.3-1.1,0.4
	C51.5,71.6,51,71.6,50.6,72z M58.1,68.1l-6.4,6.6l-0.1,4.4l7.1-10.6L58.1,68.1z M52.4,76.6l0-1.6l3.3-3.4L52.4,76.6z M65.8,76.5
	c-0.3-0.2-0.5-0.3-0.6-0.5c-0.1-0.2-0.1-0.6,0-0.9c0.1-0.6,0.2-1.3-0.4-1.8l-0.1-0.1l-0.1,0c-0.8-0.2-1.4,0.3-1.8,0.6
	c-0.2,0.2-0.4,0.4-0.6,0.4c-0.2,0-0.5-0.1-0.9-0.3c-0.5-0.3-1.2-0.6-1.9-0.3l-0.1,0.1l-0.1,0.1c-0.4,0.7-0.1,1.4,0.1,1.9
	c0.1,0.3,0.3,0.6,0.2,0.8c0,0.2-0.3,0.5-0.5,0.7c-0.4,0.4-0.9,0.9-0.8,1.7l0,0.1l0.1,0.1c0.6,0.6,1.3,0.6,1.8,0.5
	c0.3,0,0.6,0,0.8,0.1c0.2,0.1,0.4,0.4,0.6,0.8c0.3,0.5,0.6,1.2,1.4,1.3l0.1,0l0.1,0c0.8-0.3,0.9-1,1-1.6c0.1-0.3,0.1-0.6,0.3-0.7
	c0.2-0.1,0.5-0.2,0.8-0.2c0.6-0.1,1.3-0.2,1.6-0.9l0-0.1l0-0.1C66.8,77.1,66.2,76.8,65.8,76.5z M65.2,78.3c-0.4,0.1-0.9,0.1-1.2,0.4
	c-0.3,0.3-0.4,0.7-0.5,1.1c-0.1,0.5-0.2,0.8-0.5,1c-0.3-0.1-0.5-0.4-0.7-0.9c-0.2-0.4-0.4-0.8-0.8-1.1c-0.3-0.2-0.5-0.2-0.8-0.2
	c-0.1,0-0.3,0-0.4,0c-0.5,0-0.8,0-1.1-0.2c0-0.3,0.2-0.5,0.6-0.9c0.3-0.3,0.6-0.6,0.7-1.1c0.1-0.5-0.1-0.9-0.3-1.2
	c-0.2-0.4-0.3-0.8-0.2-1.1c0.3-0.1,0.6,0.1,1.1,0.3c0.4,0.2,0.8,0.4,1.3,0.4c0.5,0,0.8-0.3,1.1-0.6c0.3-0.3,0.6-0.5,1-0.5
	c0.2,0.3,0.2,0.6,0.1,1.1c-0.1,0.4-0.1,0.9,0.1,1.3c0.2,0.4,0.6,0.7,0.9,0.9c0.4,0.3,0.7,0.4,0.8,0.8C66,78.2,65.7,78.2,65.2,78.3z
	 M65.1,60.9L65.1,60.9c0.5,0.9,1.3,1,1.9,1c0.4,0,0.7,0.1,0.9,0.2c0.2,0.2,0.3,0.6,0.4,1c0.1,0.7,0.3,1.5,1,1.8l0.1,0l0.1,0
	c0.9-0.2,1.2-1,1.4-1.5c0.1-0.3,0.2-0.7,0.4-0.8c0.2-0.1,0.6-0.1,1,0c0.7,0.1,1.5,0.3,2-0.4l0.1-0.1l0-0.1c0.1-0.9-0.5-1.4-1-1.9
	c-0.3-0.2-0.6-0.5-0.6-0.7c-0.1-0.3,0.1-0.6,0.3-1c0.3-0.6,0.6-1.3,0.2-2l-0.1-0.1l-0.1,0c-0.9-0.4-1.5,0-2,0.4
	c-0.3,0.2-0.6,0.4-0.8,0.3c-0.3,0-0.6-0.3-0.9-0.6c-0.5-0.5-1.1-1.1-1.9-0.9l-0.1,0l-0.1,0.1c-0.6,0.7-0.4,1.5-0.2,2.1
	c0.1,0.4,0.2,0.7,0.1,0.9c-0.1,0.2-0.4,0.4-0.8,0.6c-0.6,0.3-1.3,0.7-1.3,1.5L65.1,60.9z M66.7,60c0.5-0.2,0.9-0.5,1.1-1
	c0.2-0.5,0.1-1-0.1-1.4c-0.2-0.6-0.2-1,0-1.3c0.3,0,0.6,0.3,1,0.7c0.4,0.4,0.8,0.8,1.3,0.9c0.5,0.1,1-0.2,1.3-0.5
	c0.5-0.3,0.8-0.5,1.2-0.4c0.1,0.3,0,0.7-0.3,1.2c-0.2,0.5-0.4,1-0.3,1.5c0.1,0.5,0.5,0.8,0.9,1.2c0.5,0.4,0.8,0.7,0.8,1.1
	c-0.2,0.2-0.6,0.1-1.2,0c-0.5-0.1-1.1-0.2-1.5,0.1c-0.5,0.3-0.6,0.8-0.8,1.2c-0.2,0.5-0.3,0.9-0.7,1c-0.3-0.2-0.4-0.6-0.5-1.2
	c-0.1-0.5-0.2-1.1-0.6-1.4c-0.4-0.4-0.9-0.4-1.4-0.4c-0.6,0-1-0.1-1.2-0.5C65.9,60.4,66.2,60.2,66.7,60z M40.8,82.3
	c-4.7-0.8-8.9-3.3-11.7-7.2c-2.8-3.9-3.9-8.7-3.2-13.4c0.1-0.5-0.3-1.1-0.8-1.1c-0.5-0.1-1.1,0.3-1.1,0.8
	c-0.9,5.3,0.4,10.6,3.5,14.9c3.1,4.3,7.8,7.2,13,8c0.1,0,0.1,0,0.2,0c0.5,0,0.9-0.3,1-0.8C41.7,82.9,41.3,82.4,40.8,82.3z
	 M39.8,88.2c-6.3-1-11.9-4.5-15.6-9.6C20.5,73.4,19,67.1,20,60.7c0.1-0.5-0.3-1.1-0.8-1.1c-0.5-0.1-1.1,0.3-1.1,0.8
	c-1.1,6.9,0.5,13.7,4.6,19.4c4.1,5.6,10.1,9.3,16.9,10.5c0.1,0,0.1,0,0.2,0c0.5,0,0.9-0.3,1-0.8C40.8,88.9,40.4,88.3,39.8,88.2z
	 M89.6,40.8c-0.5-0.1-1.1,0.2-1.2,0.8c-0.1,0.5,0.2,1.1,0.8,1.2c3.3,0.7,5.3,4.4,4.6,8.2c-0.1,0.5,0.3,1.1,0.8,1.2
	c0.1,0,0.1,0,0.2,0c0.5,0,0.9-0.3,1-0.8C96.7,46.4,93.9,41.7,89.6,40.8z M90.9,34c-0.5-0.1-1.1,0.2-1.2,0.8
	c-0.1,0.5,0.2,1.1,0.8,1.2c6.5,1.3,10.6,8.6,9.2,16.2c-0.1,0.5,0.3,1.1,0.8,1.2c0.1,0,0.1,0,0.2,0c0.5,0,0.9-0.3,1-0.8
	C103.3,43.9,98.5,35.5,90.9,34z"/>
</svg>
